<svg width="100" height="40" viewBox="0 0 100 40" fill="none" xmlns="http://www.w3.org/2000/svg">
<path d="M32.9033 7.5H28.897V32.5H32.9033V7.5Z" fill="white"/>
<path d="M46.9256 24.525C46.9256 28.351 43.7035 28.656 42.745 28.656C40.3502 28.656 39.9145 26.418 39.9145 25.068V15.5H35.9082V25.048C35.9082 27.418 36.6534 29.374 37.9594 30.678C39.1133 31.831 40.842 32.461 42.715 32.461C44.0431 32.461 45.924 32.048 46.9256 31.135V32.5H50.932V15.5H46.9256V24.525Z" fill="white"/>
<path d="M58.9447 9.5H54.9383V15.5H51.9336V19.5H54.9383V32.5H58.9447V19.5H61.9494V15.5H58.9447V9.5Z" fill="white"/>
<path d="M74.5662 27.417C73.6938 28.2 72.542 28.634 71.278 28.634C68.4916 28.634 66.4454 26.591 66.4454 23.786C66.4454 20.981 68.4265 19.024 71.278 19.024C72.52 19.024 73.6938 19.437 74.5882 20.22L75.1962 20.742L77.8975 18.046L77.2214 17.437C75.6319 16.004 73.5215 15.2 71.277 15.2C66.2691 15.2 62.6323 18.808 62.6323 23.765C62.6323 28.701 66.3562 32.438 71.277 32.438C73.5636 32.438 75.696 31.634 77.2655 30.178L77.9185 29.569L75.1752 26.875L74.5662 27.417Z" fill="white"/>
<path d="M92.1973 16.982C91.0435 15.83 89.6914 15.2 87.8184 15.2C86.4903 15.2 84.9859 15.613 83.9844 16.525V7.5H79.978V32.5H83.9844V23.135C83.9844 19.309 86.7067 19.005 87.6652 19.005C90.06 19.005 89.9939 21.244 89.9939 22.592V32.5H94.0002V22.613C94.0002 20.243 93.5044 18.287 92.1973 16.982Z" fill="white"/>
<path d="M71.1461 20.938C72.7466 20.938 74.0436 22.231 74.0436 23.83C74.0436 25.427 72.7466 26.722 71.1461 26.722C69.5465 26.722 68.2505 25.427 68.2505 23.83C68.2515 22.232 69.5475 20.938 71.1461 20.938Z" fill="white"/>
<path d="M23.2883 26.221C21.7649 27.786 19.6957 28.634 17.5182 28.634C13.0552 28.634 9.81003 25.134 9.81003 20.33C9.81003 15.504 13.0552 12.004 17.5182 12.004C19.6746 12.004 21.7209 12.851 23.2673 14.395L23.8763 15.004L26.5545 12.33L25.9666 11.721C23.7461 9.43795 20.7413 8.19995 17.5182 8.19995C10.9428 8.19995 6 13.417 6 20.351C6 27.264 10.9649 32.4599 17.5182 32.4599C20.7633 32.4599 23.7681 31.2 25.9886 28.917L26.5765 28.308L23.9203 25.591L23.2883 26.221Z" fill="white"/>
</svg>
