<svg width="100" height="40" viewBox="0 0 100 40" fill="none" xmlns="http://www.w3.org/2000/svg">
<path d="M30.6106 16.3287H21.7V18.9685H28.0111C27.701 22.6816 24.6081 24.2482 21.7 24.2482C17.9661 24.2482 14.7286 21.3192 14.7286 17.2141C14.7286 13.2119 17.823 10.1398 21.7 10.1398C24.6901 10.1398 26.4654 12.0582 26.4654 12.0582L28.3211 10.1398C28.3211 10.1398 25.9496 7.5 21.618 7.5C16.1103 7.5 11.8413 12.1625 11.8413 17.1739C11.8413 22.1032 15.8629 26.9089 21.7626 26.9089C26.9602 26.9089 30.7552 23.3404 30.7552 18.0801C30.7552 16.9682 30.6106 16.3287 30.6106 16.3287Z" fill="#4285F4"/>
<path d="M37.8924 14.4104C34.242 14.4104 31.6216 17.2768 31.6216 20.5978C31.6216 23.9799 34.1585 26.8895 37.9327 26.8895C41.3565 26.8895 44.1409 24.2706 44.1409 20.6813C44.1633 16.5345 40.9049 14.4104 37.8924 14.4104ZM37.9342 16.8654C39.7288 16.8654 41.44 18.3098 41.44 20.6604C41.44 22.9499 39.7482 24.4554 37.9342 24.4554C35.9338 24.4554 34.3657 22.8665 34.3657 20.6604C34.3657 18.4737 35.913 16.8654 37.9342 16.8654Z" fill="#EA4335"/>
<path d="M51.5472 14.4104C47.8968 14.4104 45.2764 17.2768 45.2764 20.5978C45.2764 23.9799 47.8133 26.8895 51.5875 26.8895C55.0113 26.8895 57.7957 24.2706 57.7957 20.6813C57.7972 16.5345 54.5373 14.4104 51.5472 14.4104ZM51.589 16.8654C53.3836 16.8654 55.0948 18.3098 55.0948 20.6604C55.0948 22.9499 53.403 24.4554 51.589 24.4554C49.5886 24.4554 48.0205 22.8665 48.0205 20.6604C47.9997 18.4737 49.5662 16.8654 51.589 16.8654Z" fill="#FBBC05"/>
<path d="M64.9133 14.4104C61.5506 14.4104 58.9316 17.3394 58.9316 20.6395C58.9316 24.3928 61.9843 26.8895 64.8716 26.8895C66.6454 26.8895 67.5949 26.189 68.2954 25.3632V26.6004C68.2954 28.7453 66.9957 30.0451 65.0162 30.0451C63.1187 30.0451 62.1498 28.6216 61.8189 27.8182L59.4265 28.8288C60.2717 30.6235 61.9843 32.5001 65.037 32.5001C68.3789 32.5001 70.9159 30.3969 70.9159 26.0026V14.7816H68.2969V15.8339C67.4905 14.9873 66.3771 14.4104 64.9133 14.4104ZM65.1608 16.8654C66.8108 16.8654 68.5026 18.268 68.5026 20.6604C68.5026 23.0945 66.8108 24.4346 65.1399 24.4346C63.3452 24.4346 61.6952 22.9902 61.6952 20.6813C61.6743 18.2874 63.4078 16.8654 65.1608 16.8654Z" fill="#4285F4"/>
<path d="M82.5277 14.4104C79.3721 14.4104 76.7114 16.9265 76.7114 20.6395C76.7114 24.5791 79.6821 26.9104 82.8377 26.9104C85.4775 26.9104 87.1067 25.466 88.0562 24.1677L85.8904 22.7234C85.3329 23.5894 84.3849 24.4361 82.8377 24.4361C81.0848 24.4361 80.2799 23.4672 79.785 22.5385L88.159 19.0714L87.7253 18.0608C86.9219 16.0605 85.0244 14.4104 82.5277 14.4104ZM82.6514 16.8028C83.7857 16.8028 84.6115 17.4005 84.9618 18.1428L79.3721 20.4741C79.1247 18.66 80.8373 16.8028 82.6514 16.8028Z" fill="#EA4335"/>
<path d="M75.4726 8.1394H72.73V26.5377H75.4726V8.1394Z" fill="#34A853"/>
</svg>
