<svg width="100" height="40" viewBox="0 0 100 40" fill="none" xmlns="http://www.w3.org/2000/svg">
<path d="M11.5343 24.5408V14.351H8.00049V12.0007H17.6404V14.351H14.1254V24.5408H11.5343Z" fill="#204ECF"/>
<path d="M16.4443 19.9908C16.4443 17.4153 18.1835 15.2343 21.0645 15.2343C23.9456 15.2343 25.7031 17.4153 25.7031 19.9908C25.7031 22.5662 23.9639 24.7663 21.0645 24.7663C18.1651 24.7663 16.4443 22.5667 16.4443 19.9908ZM23.3112 19.9908C23.3112 18.5806 22.5137 17.3587 21.064 17.3587C19.6143 17.3587 18.8352 18.5806 18.8352 19.9908C18.8352 21.4009 19.6326 22.6413 21.064 22.6413C22.4954 22.6413 23.3112 21.4194 23.3112 19.9908Z" fill="#204ECF"/>
<path d="M29.2724 23.3752V28H26.9707V15.4595H29.2724V16.6063C29.943 15.7223 30.9035 15.2343 31.972 15.2343C34.2192 15.2343 35.8498 16.9638 35.8498 19.9908C35.8498 23.0178 34.2187 24.7663 31.972 24.7663C30.9392 24.7663 29.997 24.3158 29.2724 23.3752ZM33.4763 19.9908C33.4763 18.4304 32.5703 17.3587 31.2475 17.3587C30.5045 17.3587 29.6709 17.7912 29.2724 18.3929V21.5891C29.6535 22.1718 30.5045 22.6424 31.2475 22.6424C32.5698 22.6424 33.4763 21.5706 33.4763 19.9918V19.9908Z" fill="#204ECF"/>
<path d="M38.151 24.5405V14.3507H34.6172V12.0005H44.2571V14.3507H40.7421V24.5405H38.151Z" fill="#204ECF"/>
<path d="M44.1655 24.5405V15.4595H46.4672V16.6814C47.1012 15.892 48.1707 15.2343 49.2576 15.2343V17.566C49.0951 17.5279 48.8953 17.5094 48.6237 17.5094C47.8629 17.5094 46.8479 17.9604 46.4672 18.5436V24.5405H44.1655Z" fill="#204ECF"/>
<path d="M55.4902 24.5406V23.582C54.892 24.3344 53.8591 24.7669 52.7172 24.7669C51.3225 24.7669 49.6914 23.7893 49.6914 21.7589C49.6914 19.6159 51.3225 18.826 52.7172 18.826C53.8947 18.826 54.9098 19.2215 55.4902 19.9359V18.789C55.4902 17.868 54.7289 17.2662 53.5691 17.2662C52.6458 17.2662 51.7755 17.6422 51.0504 18.338L50.1449 16.6651C51.2145 15.6684 52.5913 15.2365 53.9682 15.2365C55.9789 15.2365 57.8092 16.0639 57.8092 18.6769V24.5433H55.4902V24.5406ZM55.4902 22.3596V21.2312C55.109 20.7051 54.385 20.4233 53.642 20.4233C52.7361 20.4233 51.9931 20.9309 51.9931 21.7954C51.9931 22.6599 52.7361 23.149 53.642 23.149C54.385 23.149 55.1095 22.8856 55.4902 22.3596Z" fill="#204ECF"/>
<path d="M59.0591 19.9908C59.0591 17.2086 61.0163 15.2343 63.6982 15.2343C65.4918 15.2343 66.5787 16.0422 67.1591 16.8702L65.6549 18.3369C65.2381 17.6976 64.6042 17.3593 63.8067 17.3593C62.412 17.3593 61.4331 18.4125 61.4331 19.9913C61.4331 21.5701 62.411 22.6418 63.8067 22.6418C64.6042 22.6418 65.2381 22.2659 65.6549 21.6451L67.1591 23.1119C66.5798 23.9393 65.4924 24.7663 63.6982 24.7663C61.0163 24.7663 59.0591 22.792 59.0591 19.9908Z" fill="#204ECF"/>
<path d="M73.881 24.5405L71.5613 21.0435L70.5107 22.2088V24.5405H68.209V12H70.5107V19.5022L73.8264 15.46H76.6525L73.1912 19.5773L76.7611 24.5411H73.8797L73.881 24.5405Z" fill="#204ECF"/>
<path d="M76.7808 19.9908C76.7808 17.3587 78.6655 15.2343 81.3102 15.2343C83.9556 15.2343 85.6953 17.2652 85.6953 20.2166V20.7807H79.1901C79.3527 21.8905 80.2226 22.8115 81.7087 22.8115C82.4518 22.8115 83.4673 22.4917 84.0284 21.928L85.0608 23.5074C84.1909 24.3349 82.8139 24.7674 81.4552 24.7674C78.791 24.7674 76.7808 22.9062 76.7808 19.9918V19.9908ZM81.3102 17.189C79.8793 17.189 79.2623 18.2232 79.1726 19.1252H83.4849C83.4121 18.2607 82.8321 17.189 81.3102 17.189Z" fill="#204ECF"/>
<path d="M86.9082 24.5405V15.4595H89.2096V16.6814C89.8435 15.892 90.913 15.2343 92.0006 15.2343V17.566C91.8374 17.5279 91.6379 17.5094 91.3667 17.5094C90.6054 17.5094 89.5906 17.9604 89.2096 18.5436V24.5405H86.9082Z" fill="#204ECF"/>
</svg>
