<svg width="100" height="40" viewBox="0 0 100 40" fill="none" xmlns="http://www.w3.org/2000/svg">
<path d="M62.3944 13.2819C58.7028 13.2993 55.6956 16.2776 55.7125 19.986C55.7295 23.6944 58.7667 26.6447 62.4583 26.6281C66.1499 26.6114 69.1579 23.6323 69.1401 19.9255C69.1224 16.2186 66.0859 13.266 62.3928 13.2834L62.3944 13.2819ZM62.4452 23.9084C61.3986 23.9145 60.3929 23.5113 59.6492 22.7888C58.9055 22.0664 58.4931 21.0822 58.4816 20.0548C58.47 19.0275 58.8862 18.0403 59.6222 17.3103C60.3582 16.5802 61.3609 16.1755 62.4075 16.1642C63.454 16.1528 64.4598 16.5613 65.2035 17.2838C65.9472 18.0062 66.3595 18.9905 66.3711 20.0178C66.3819 22.0792 64.5446 23.8979 62.4452 23.9084ZM77.3502 16.4252C75.4197 16.4342 73.9161 18.0062 73.9253 19.9013L73.9562 26.2445L71.0183 26.2581L70.959 13.6526L73.8968 13.639L73.9068 15.6157C73.9068 15.6157 75.1553 13.6337 77.6739 13.6223L78.514 13.6178L78.5279 16.4184L77.3502 16.4252ZM48.0442 13.76L50.2684 22.4007L52.5774 13.7388L55.5152 13.726L51.8807 26.3557L49.0276 26.3686L46.7202 17.5645L44.496 26.389L41.6421 26.4019L37.8057 13.8137L40.6587 13.8009L43.2174 22.4401L45.2751 13.7797L48.0442 13.76ZM87.0986 19.3475C89.1063 18.1855 90.5243 16.0363 90.5128 13.5648L87.5749 13.5785C87.5857 15.7209 85.8301 17.4593 83.7323 17.4669L83.3123 17.4684L83.266 7.5L80.3282 7.51362L80.4183 26.2143L83.3547 26.2014L83.3269 20.2704L83.6622 20.2689C83.9982 20.2674 84.335 20.4308 84.4205 20.6774L88.5591 26.1772L92.0002 26.1621L87.0986 19.3475Z" fill="white"/>
<path d="M31.0054 13.4272C27.8171 13.4423 25.3925 15.5129 24.4854 18.8119C22.9633 16.5122 21.7757 13.8818 21.0944 11.6608L17.7381 11.6759L17.7797 20.4082C17.7834 21.2384 17.4511 22.0361 16.8558 22.6259C16.2606 23.2158 15.4511 23.5495 14.6053 23.5537C13.7594 23.5573 12.9468 23.2311 12.3459 22.6468C11.745 22.0625 11.405 21.2679 11.4007 20.4377L11.3584 11.7054L8.00049 11.7205L8.04211 20.4528C8.05983 24.0764 11.0092 26.9481 14.6191 26.9307C18.229 26.9133 21.153 24.0167 21.136 20.3923L21.1283 18.9095C21.805 20.2236 22.6512 21.6201 23.5814 22.8524L21.5291 32.5L24.9694 32.4849L26.4491 25.4752C27.7955 26.2937 29.3007 26.7801 31.0702 26.7718C34.7633 26.7544 37.7713 23.7761 37.752 19.986C37.7379 18.2398 37.0207 16.57 35.7569 15.341C34.493 14.1121 32.7852 13.4238 31.0062 13.4264L31.0054 13.4272ZM31.0532 23.3956C29.7107 23.4016 28.3658 22.8312 27.2707 21.9295L27.5998 20.6109V20.5352C27.8464 19.1327 28.5878 16.7407 31.1064 16.7301C31.9944 16.7286 32.8471 17.0715 33.4789 17.6841C34.1106 18.2968 34.4703 19.1295 34.4797 20.0012C34.4041 21.8962 32.8173 23.3865 31.054 23.3948L31.0532 23.3956Z" fill="white"/>
</svg>
