<svg width="64" height="64" viewBox="0 0 64 64" fill="none" xmlns="http://www.w3.org/2000/svg">
<path fill-rule="evenodd" clip-rule="evenodd" d="M28.9238 24.8106C28.9239 27.0148 30.7165 28.8067 32.9198 28.8067C35.1234 28.8067 36.9159 27.0148 36.9159 24.8106C36.9159 22.6077 35.1233 20.8159 32.9199 20.8159C30.7165 20.8159 28.9238 22.6078 28.9238 24.8106Z" fill="#5780A5"/>
<path fill-rule="evenodd" clip-rule="evenodd" d="M30.8316 16.9478C30.8008 17.2171 30.6192 17.4455 30.3638 17.5353C29.46 17.8532 28.631 18.3319 27.8998 18.9606C27.6943 19.1357 27.4061 19.18 27.1577 19.0725L24.5147 17.924L22.7529 20.9749L25.067 22.6887C25.2843 22.8507 25.3908 23.1202 25.341 23.3867C25.166 24.3241 25.1658 25.2985 25.3412 26.2359C25.3908 26.5024 25.2843 26.7733 25.067 26.9338L22.7529 28.6477L24.5147 31.6984L27.1578 30.55C27.4061 30.4425 27.6943 30.4868 27.8998 30.662C28.631 31.2906 29.46 31.7693 30.3638 32.0873C30.6193 32.177 30.8008 32.4053 30.8316 32.6733L31.1586 35.5342H34.682L35.0089 32.6748C35.0396 32.4053 35.2212 32.1771 35.4766 32.0888C36.3811 31.7706 37.2103 31.2907 37.9412 30.6634C38.1466 30.4867 38.4349 30.4426 38.6834 30.5501L41.3259 31.6984L43.0877 28.6477L40.7733 26.9337C40.556 26.7717 40.4494 26.5009 40.4991 26.2359C40.6748 25.2953 40.6745 24.3274 40.4994 23.3867C40.4498 23.1202 40.5562 22.8493 40.7735 22.6888L43.0877 20.9749L41.3259 17.924L38.6829 19.0724C38.4343 19.1799 38.1462 19.1373 37.9407 18.9606C37.2095 18.3318 36.3806 17.8533 35.4768 17.5353C35.2214 17.4454 35.0396 17.2172 35.0088 16.9478L34.682 14.0882H31.1586L30.8316 16.9478ZM27.5106 24.8106C27.5107 21.8288 29.9374 19.4023 32.9202 19.4023C35.9031 19.4022 38.3297 21.8289 38.3297 24.8106C38.3298 27.7936 35.903 30.2203 32.9203 30.2202C29.9374 30.2202 27.5106 27.7937 27.5106 24.8106Z" fill="#B0D3F0"/>
<path fill-rule="evenodd" clip-rule="evenodd" d="M20.0305 9.56062C17.5712 9.56053 15.5704 11.5616 15.5704 14.0206C15.5705 14.1737 15.5781 14.3254 15.5933 14.4756C15.631 14.8465 15.3733 15.1838 15.0048 15.2442C12.843 15.5989 11.2739 17.4499 11.2739 19.6453C11.274 22.1043 13.2746 24.1053 15.7339 24.1053L23.8232 24.1051C23.8369 23.9259 23.856 23.7472 23.8801 23.5693L21.4049 21.736C21.1162 21.5225 21.0336 21.1265 21.2134 20.8144L23.6057 16.6708C23.7851 16.3603 24.1698 16.2337 24.4994 16.3765L27.3256 17.6044C27.985 17.0906 28.7054 16.6739 29.4759 16.3603L29.8256 13.3006C29.8665 12.9442 30.1686 12.6748 30.5278 12.6748L35.3125 12.6747C35.6717 12.6747 35.9738 12.9442 36.0147 13.3006L36.3643 16.3603C37.135 16.6738 37.8554 17.0906 38.5147 17.6045L41.3409 16.3765C41.6706 16.2335 42.055 16.3603 42.2345 16.671L44.627 20.8143C44.8066 21.1264 44.7241 21.5226 44.4355 21.7361L41.96 23.5693C41.9843 23.7471 42.0033 23.926 42.0171 24.1053L50.1061 24.1051C52.5653 24.1051 54.5661 22.1043 54.5661 19.6453C54.5661 17.3364 52.766 15.3841 50.468 15.2C50.2799 15.1838 50.1055 15.094 49.9839 14.9497C49.8623 14.8053 49.8036 14.6184 49.8206 14.43C49.8333 14.293 49.8396 14.1546 49.8396 14.0206C49.8397 12.2006 48.7502 10.5781 47.0642 9.89043C46.8038 9.78433 46.6313 9.53411 46.6249 9.25288C46.5698 6.84989 44.5696 4.89742 42.1662 4.89742C42.0514 4.89738 41.9355 4.90185 41.8221 4.90924C41.5072 4.93265 41.2129 4.74579 41.1041 4.44836C40.1322 1.78768 37.5755 0.000122076 34.7419 0.000122076C31.6792 -3.13838e-06 28.9888 2.06449 28.1996 5.01963C28.1481 5.21246 28.0172 5.37449 27.8393 5.46581C27.6615 5.55701 27.4533 5.56886 27.2664 5.4982C26.7618 5.30671 26.2302 5.20958 25.6865 5.20958C23.5024 5.20946 21.6073 6.83516 21.2781 8.99081C21.2209 9.36328 20.8806 9.62544 20.5051 9.58566C20.3472 9.56934 20.1876 9.56062 20.0305 9.56062Z" fill="#5780A5"/>
<path fill-rule="evenodd" clip-rule="evenodd" d="M15.5864 25.5169V39.4524L18.06 39.4524V25.5187L15.7341 25.5188C15.6847 25.5188 15.6355 25.5181 15.5864 25.5169Z" fill="#B0D3F0"/>
<path fill-rule="evenodd" clip-rule="evenodd" d="M28.4741 40.8658L5.17321 40.8657C4.79364 40.8657 4.48486 41.175 4.48486 41.5534V52.7423L29.1624 52.7422V51.3881V51.3874L29.1625 41.5534C29.1625 41.1748 28.8537 40.8658 28.4741 40.8658Z" fill="#5780A5"/>
<path fill-rule="evenodd" clip-rule="evenodd" d="M21.064 56.6503H19.3966C19.0063 56.6503 18.6898 56.3337 18.6898 55.9435C18.6899 55.5532 19.0062 55.2368 19.3966 55.2368L21.064 55.2366C21.4543 55.2366 21.7707 55.5533 21.7707 55.9435C21.7708 56.3335 21.4543 56.6503 21.064 56.6503ZM29.1624 54.1559H4.48486V57.0419C4.48486 57.4217 4.7936 57.7296 5.17321 57.7296L28.4741 57.7295C28.8537 57.7295 29.1624 57.4219 29.1624 57.0419V54.1559ZM25.0557 56.6503H23.3884C22.9981 56.6503 22.6816 56.3337 22.6816 55.9435C22.6816 55.5532 22.998 55.2368 23.3883 55.2368L25.0557 55.2366C25.4461 55.2366 25.7626 55.5533 25.7626 55.9435C25.7626 56.3335 25.446 56.6503 25.0557 56.6503Z" fill="#B0D3F0"/>
<path fill-rule="evenodd" clip-rule="evenodd" d="M20.5693 59.1429H13.0774L12.5186 60.8196H21.1281L20.5693 59.1429Z" fill="#5780A5"/>
<path fill-rule="evenodd" clip-rule="evenodd" d="M23.0117 62.2332L10.6359 62.2333C10.1482 62.2333 9.75244 62.629 9.75244 63.1167C9.75244 63.6045 10.1487 64 10.6362 64H23.0117C23.4992 64 23.8949 63.6042 23.8948 63.1167C23.8947 62.6292 23.4993 62.2332 23.0117 62.2332Z" fill="#B0D3F0"/>
<path fill-rule="evenodd" clip-rule="evenodd" d="M47.7798 25.5186L47.7798 39.4528L50.2535 39.4524L50.2534 25.5167C50.2046 25.5179 50.1556 25.5186 50.1065 25.5186L47.7798 25.5186Z" fill="#B0D3F0"/>
<path fill-rule="evenodd" clip-rule="evenodd" d="M53.2046 41.736C54.0722 42.8111 54.7832 44.2189 55.2776 45.8588C56.0165 45.6349 56.7267 45.3662 57.4113 45.052C56.3238 43.6148 54.8765 42.4644 53.2046 41.736Z" fill="#5780A5"/>
<path fill-rule="evenodd" clip-rule="evenodd" d="M49.7236 40.953L49.7237 46.7008C51.2058 46.6627 52.5892 46.5034 53.8876 46.2196C53.0205 43.4195 51.4849 41.3881 49.7236 40.953Z" fill="#5780A5"/>
<path fill-rule="evenodd" clip-rule="evenodd" d="M48.3102 40.9534C46.5491 41.3884 45.0136 43.4198 44.1465 46.2199C45.4448 46.5037 46.8282 46.663 48.3102 46.7011V40.9534Z" fill="#5780A5"/>
<path fill-rule="evenodd" clip-rule="evenodd" d="M44.8296 41.7356C43.1578 42.464 41.7104 43.6145 40.623 45.0518C41.3075 45.3659 42.0178 45.6345 42.7565 45.8584C43.251 44.2185 43.962 42.8107 44.8296 41.7356Z" fill="#5780A5"/>
<path fill-rule="evenodd" clip-rule="evenodd" d="M39.8394 46.2466C39.0928 47.5742 38.6254 49.079 38.5186 50.681H41.9939C42.0338 49.4689 42.1752 48.3103 42.4051 47.2293C41.5144 46.9625 40.6606 46.6353 39.8394 46.2466Z" fill="#5780A5"/>
<path fill-rule="evenodd" clip-rule="evenodd" d="M43.7896 47.5889C43.5811 48.5625 43.4496 49.6026 43.4092 50.6811L48.3099 50.6811V48.1149C46.703 48.0757 45.2012 47.9015 43.7896 47.5889Z" fill="#5780A5"/>
<path fill-rule="evenodd" clip-rule="evenodd" d="M49.7236 48.1149V50.681L54.6245 50.681C54.5842 49.6024 54.4526 48.5625 54.2441 47.5889C52.8325 47.9014 51.3307 48.0757 49.7236 48.1149Z" fill="#5780A5"/>
<path fill-rule="evenodd" clip-rule="evenodd" d="M55.6284 47.2296C55.8583 48.3106 55.9998 49.4691 56.0397 50.6812H59.5154C59.4086 49.0792 58.9413 47.5743 58.1944 46.2468C57.3731 46.6355 56.5192 46.9628 55.6284 47.2296Z" fill="#5780A5"/>
<path fill-rule="evenodd" clip-rule="evenodd" d="M56.0396 52.0945C55.9998 53.3065 55.8584 54.4649 55.6284 55.5458C56.5192 55.8129 57.3731 56.1403 58.1944 56.5291C58.9413 55.2015 59.4086 53.6966 59.5154 52.0945H56.0396Z" fill="#5780A5"/>
<path fill-rule="evenodd" clip-rule="evenodd" d="M49.7236 52.0945V54.6593C51.3307 54.6985 52.8325 54.8731 54.2441 55.186C54.4526 54.2126 54.5841 53.1728 54.6245 52.0945H49.7236Z" fill="#5780A5"/>
<path fill-rule="evenodd" clip-rule="evenodd" d="M43.4092 52.0945C43.4496 53.1728 43.5811 54.2126 43.7896 55.186C45.2012 54.8731 46.7029 54.6986 48.3099 54.6594V52.0945H43.4092Z" fill="#5780A5"/>
<path fill-rule="evenodd" clip-rule="evenodd" d="M38.5195 52.0945C38.6263 53.6965 39.0936 55.2014 39.8404 56.529C40.6616 56.1402 41.5154 55.8129 42.4061 55.5458C42.1761 54.4649 42.0347 53.3065 41.9949 52.0945H38.5195Z" fill="#5780A5"/>
<path fill-rule="evenodd" clip-rule="evenodd" d="M42.7566 56.9161C42.0176 57.1401 41.3072 57.4088 40.6226 57.7228C41.7102 59.1606 43.1579 60.3115 44.8303 61.04C43.9624 59.9647 43.2511 58.5564 42.7566 56.9161Z" fill="#5780A5"/>
<path fill-rule="evenodd" clip-rule="evenodd" d="M44.1465 56.5551C45.0136 59.3554 46.5491 61.3875 48.3103 61.8227V56.0735C46.8283 56.1116 45.4448 56.2712 44.1465 56.5551Z" fill="#5780A5"/>
<path fill-rule="evenodd" clip-rule="evenodd" d="M49.7236 56.0735L49.7237 61.8227C51.4849 61.3874 53.0205 59.3554 53.8876 56.5552C52.5892 56.2712 51.2057 56.1116 49.7236 56.0735Z" fill="#5780A5"/>
<path fill-rule="evenodd" clip-rule="evenodd" d="M55.2777 56.9161C54.7832 58.5564 54.072 59.9646 53.2041 61.04C54.8765 60.3115 56.3243 59.1606 57.412 57.7229C56.7273 57.4089 56.0168 57.1401 55.2777 56.9161Z" fill="#5780A5"/>
</svg>
