<svg width="64" height="64" viewBox="0 0 64 64" fill="none" xmlns="http://www.w3.org/2000/svg">
<g clip-path="url(#clip0_2593_11373)">
<path d="M49 3.375V9H0V3.375C0 2.47989 0.351988 1.62145 0.97853 0.988515C1.60507 0.355579 2.45484 0 3.34091 0H45.6591C46.5452 0 47.3949 0.355579 48.0215 0.988515C48.648 1.62145 49 2.47989 49 3.375Z" fill="#5780A5"/>
<path d="M49 9V34.6538C49 35.5413 48.648 36.3924 48.0215 37.0199C47.3949 37.6475 46.5452 38 45.6591 38H3.34091C2.45484 38 1.60507 37.6475 0.97853 37.0199C0.351988 36.3924 0 35.5413 0 34.6538V9H49Z" fill="#B0D3F0"/>
<path d="M43.9 6H35.1C34.8083 6 34.5285 5.84196 34.3222 5.56066C34.1159 5.27936 34 4.89782 34 4.5C34 4.10218 34.1159 3.72064 34.3222 3.43934C34.5285 3.15804 34.8083 3 35.1 3H43.9C44.1917 3 44.4715 3.15804 44.6778 3.43934C44.8841 3.72064 45 4.10218 45 4.5C45 4.89782 44.8841 5.27936 44.6778 5.56066C44.4715 5.84196 44.1917 6 43.9 6Z" fill="white"/>
<path d="M4.5 6C5.32843 6 6 5.32843 6 4.5C6 3.67157 5.32843 3 4.5 3C3.67157 3 3 3.67157 3 4.5C3 5.32843 3.67157 6 4.5 6Z" fill="white"/>
<path d="M9 6C9.55228 6 10 5.32843 10 4.5C10 3.67157 9.55228 3 9 3C8.44772 3 8 3.67157 8 4.5C8 5.32843 8.44772 6 9 6Z" fill="#5780A5"/>
<path d="M13 6C13.5523 6 14 5.32843 14 4.5C14 3.67157 13.5523 3 13 3C12.4477 3 12 3.67157 12 4.5C12 5.32843 12.4477 6 13 6Z" fill="#5780A5"/>
<path d="M56 16.375V22H8V16.375C8 15.4799 8.3448 14.6214 8.95856 13.9885C9.57231 13.3556 10.4047 13 11.2727 13H52.7273C53.5953 13 54.4277 13.3556 55.0414 13.9885C55.6552 14.6214 56 15.4799 56 16.375Z" fill="#5780A5"/>
<path d="M56 22V47.6538C56 48.5413 55.6552 49.3924 55.0414 50.0199C54.4277 50.6475 53.5953 51 52.7273 51H11.2727C10.4047 51 9.57231 50.6475 8.95856 50.0199C8.3448 49.3924 8 48.5413 8 47.6538V22H56Z" fill="#B0D3F0"/>
<path d="M51.9 19H43.1C42.8083 19 42.5285 18.8946 42.3222 18.7071C42.1159 18.5196 42 18.2652 42 18C42 17.7348 42.1159 17.4804 42.3222 17.2929C42.5285 17.1054 42.8083 17 43.1 17H51.9C52.1917 17 52.4715 17.1054 52.6778 17.2929C52.8841 17.4804 53 17.7348 53 18C53 18.2652 52.8841 18.5196 52.6778 18.7071C52.4715 18.8946 52.1917 19 51.9 19Z" fill="white"/>
<path d="M12 19C12.5523 19 13 18.5523 13 18C13 17.4477 12.5523 17 12 17C11.4477 17 11 17.4477 11 18C11 18.5523 11.4477 19 12 19Z" fill="white"/>
<path d="M16.5 19C17.3284 19 18 18.5523 18 18C18 17.4477 17.3284 17 16.5 17C15.6716 17 15 17.4477 15 18C15 18.5523 15.6716 19 16.5 19Z" fill="#5780A5"/>
<path d="M21 19C21.5523 19 22 18.5523 22 18C22 17.4477 21.5523 17 21 17C20.4477 17 20 17.4477 20 18C20 18.5523 20.4477 19 21 19Z" fill="#5780A5"/>
<path d="M64 29.375V35H15V29.375C15 28.4799 15.352 27.6214 15.9785 26.9885C16.6051 26.3556 17.4548 26 18.3409 26H60.6591C61.5452 26 62.3949 26.3556 63.0215 26.9885C63.648 27.6214 64 28.4799 64 29.375Z" fill="#5780A5"/>
<path d="M64 35V60.6538C64 61.5413 63.648 62.3924 63.0215 63.0199C62.3949 63.6475 61.5452 64 60.6591 64H18.3409C17.4548 64 16.6051 63.6475 15.9785 63.0199C15.352 62.3924 15 61.5413 15 60.6538V35H64Z" fill="#B0D3F0"/>
<path d="M59.9 32H51.1C50.8083 32 50.5285 31.8946 50.3222 31.7071C50.1159 31.5196 50 31.2652 50 31C50 30.7348 50.1159 30.4804 50.3222 30.2929C50.5285 30.1054 50.8083 30 51.1 30H59.9C60.1917 30 60.4715 30.1054 60.6778 30.2929C60.8841 30.4804 61 30.7348 61 31C61 31.2652 60.8841 31.5196 60.6778 31.7071C60.4715 31.8946 60.1917 32 59.9 32Z" fill="white"/>
<path d="M20 32C20.5523 32 21 31.5523 21 31C21 30.4477 20.5523 30 20 30C19.4477 30 19 30.4477 19 31C19 31.5523 19.4477 32 20 32Z" fill="white"/>
<path d="M24 32C24.5523 32 25 31.5523 25 31C25 30.4477 24.5523 30 24 30C23.4477 30 23 30.4477 23 31C23 31.5523 23.4477 32 24 32Z" fill="#5780A5"/>
<path d="M29 32C29.5523 32 30 31.5523 30 31C30 30.4477 29.5523 30 29 30C28.4477 30 28 30.4477 28 31C28 31.5523 28.4477 32 29 32Z" fill="#5780A5"/>
<path d="M23 42H21C20.7348 42 20.4804 41.8946 20.2929 41.7071C20.1054 41.5196 20 41.2652 20 41C20 40.7348 20.1054 40.4804 20.2929 40.2929C20.4804 40.1054 20.7348 40 21 40H23C23.2652 40 23.5196 40.1054 23.7071 40.2929C23.8946 40.4804 24 40.7348 24 41C24 41.2652 23.8946 41.5196 23.7071 41.7071C23.5196 41.8946 23.2652 42 23 42Z" fill="#5780A5"/>
<path d="M45.8947 42H27.1053C26.8121 42 26.531 41.8946 26.3237 41.7071C26.1164 41.5196 26 41.2652 26 41C26 40.7348 26.1164 40.4804 26.3237 40.2929C26.531 40.1054 26.8121 40 27.1053 40H45.8947C46.1879 40 46.469 40.1054 46.6763 40.2929C46.8836 40.4804 47 40.7348 47 41C47 41.2652 46.8836 41.5196 46.6763 41.7071C46.469 41.8946 46.1879 42 45.8947 42Z" fill="#5780A5"/>
<path d="M23 46H21C20.7348 46 20.4804 45.8946 20.2929 45.7071C20.1054 45.5196 20 45.2652 20 45C20 44.7348 20.1054 44.4804 20.2929 44.2929C20.4804 44.1054 20.7348 44 21 44H23C23.2652 44 23.5196 44.1054 23.7071 44.2929C23.8946 44.4804 24 44.7348 24 45C24 45.2652 23.8946 45.5196 23.7071 45.7071C23.5196 45.8946 23.2652 46 23 46Z" fill="#5780A5"/>
<path d="M37.8182 46H27.1818C26.8684 46 26.5678 45.8946 26.3461 45.7071C26.1245 45.5196 26 45.2652 26 45C26 44.7348 26.1245 44.4804 26.3461 44.2929C26.5678 44.1054 26.8684 44 27.1818 44H37.8182C38.1316 44 38.4322 44.1054 38.6539 44.2929C38.8755 44.4804 39 44.7348 39 45C39 45.2652 38.8755 45.5196 38.6539 45.7071C38.4322 45.8946 38.1316 46 37.8182 46Z" fill="#5780A5"/>
<path d="M23 51H21C20.7348 51 20.4804 50.8946 20.2929 50.7071C20.1054 50.5196 20 50.2652 20 50C20 49.7348 20.1054 49.4804 20.2929 49.2929C20.4804 49.1054 20.7348 49 21 49H23C23.2652 49 23.5196 49.1054 23.7071 49.2929C23.8946 49.4804 24 49.7348 24 50C24 50.2652 23.8946 50.5196 23.7071 50.7071C23.5196 50.8946 23.2652 51 23 51Z" fill="#5780A5"/>
<path d="M40.8571 51H27.1429C26.8398 51 26.5491 50.8946 26.3347 50.7071C26.1204 50.5196 26 50.2652 26 50C26 49.7348 26.1204 49.4804 26.3347 49.2929C26.5491 49.1054 26.8398 49 27.1429 49H40.8571C41.1602 49 41.4509 49.1054 41.6653 49.2929C41.8796 49.4804 42 49.7348 42 50C42 50.2652 41.8796 50.5196 41.6653 50.7071C41.4509 50.8946 41.1602 51 40.8571 51Z" fill="#5780A5"/>
<path d="M23 55H21C20.7348 55 20.4804 54.8946 20.2929 54.7071C20.1054 54.5196 20 54.2652 20 54C20 53.7348 20.1054 53.4804 20.2929 53.2929C20.4804 53.1054 20.7348 53 21 53H23C23.2652 53 23.5196 53.1054 23.7071 53.2929C23.8946 53.4804 24 53.7348 24 54C24 54.2652 23.8946 54.5196 23.7071 54.7071C23.5196 54.8946 23.2652 55 23 55Z" fill="#5780A5"/>
<path d="M45.8947 55H27.1053C26.8121 55 26.531 54.8946 26.3237 54.7071C26.1164 54.5196 26 54.2652 26 54C26 53.7348 26.1164 53.4804 26.3237 53.2929C26.531 53.1054 26.8121 53 27.1053 53H45.8947C46.1879 53 46.469 53.1054 46.6763 53.2929C46.8836 53.4804 47 53.7348 47 54C47 54.2652 46.8836 54.5196 46.6763 54.7071C46.469 54.8946 46.1879 55 45.8947 55Z" fill="#5780A5"/>
<path d="M23 60H21C20.7348 60 20.4804 59.842 20.2929 59.5607C20.1054 59.2794 20 58.8978 20 58.5C20 58.1022 20.1054 57.7206 20.2929 57.4393C20.4804 57.158 20.7348 57 21 57H23C23.2652 57 23.5196 57.158 23.7071 57.4393C23.8946 57.7206 24 58.1022 24 58.5C24 58.8978 23.8946 59.2794 23.7071 59.5607C23.5196 59.842 23.2652 60 23 60Z" fill="#5780A5"/>
<path d="M57.379 59.5862H27.5859C27.2932 59.5862 27.0126 59.47 26.8056 59.263C26.5987 59.0561 26.4824 58.7754 26.4824 58.4828C26.4824 58.1901 26.5987 57.9095 26.8056 57.7025C27.0126 57.4956 27.2932 57.3793 27.5859 57.3793H57.379C57.6716 57.3793 57.9523 57.4956 58.1592 57.7025C58.3662 57.9095 58.4824 58.1901 58.4824 58.4828C58.4824 58.7754 58.3662 59.0561 58.1592 59.263C57.9523 59.47 57.6716 59.5862 57.379 59.5862Z" fill="#5780A5"/>
<path d="M56.2755 41.931H50.7582C50.4656 41.931 50.1849 41.8148 49.978 41.6078C49.771 41.4009 49.6548 41.1202 49.6548 40.8276C49.6548 40.5349 49.771 40.2542 49.978 40.0473C50.1849 39.8404 50.4656 39.7241 50.7582 39.7241H56.2755C56.5681 39.7241 56.8488 39.8404 57.0557 40.0473C57.2627 40.2542 57.3789 40.5349 57.3789 40.8276C57.3789 41.1202 57.2627 41.4009 57.0557 41.6078C56.8488 41.8148 56.5681 41.931 56.2755 41.931Z" fill="#5780A5"/>
<path d="M58.483 50.7586H45.2416C44.949 50.7586 44.6683 50.6423 44.4614 50.4354C44.2544 50.2285 44.1382 49.9478 44.1382 49.6551C44.1382 49.3625 44.2544 49.0818 44.4614 48.8749C44.6683 48.668 44.949 48.5517 45.2416 48.5517H58.483C58.7757 48.5517 59.0563 48.668 59.2633 48.8749C59.4702 49.0818 59.5865 49.3625 59.5865 49.6551C59.5865 49.9478 59.4702 50.2285 59.2633 50.4354C59.0563 50.6423 58.7757 50.7586 58.483 50.7586Z" fill="#5780A5"/>
</g>
<defs>
<clipPath id="clip0_2593_11373">
<rect width="64" height="64" fill="white"/>
</clipPath>
</defs>
</svg>
