<svg width="64" height="64" viewBox="0 0 64 64" fill="none" xmlns="http://www.w3.org/2000/svg">
<path d="M40.4921 37.1501C40.4921 38.9899 38.994 40.488 37.1542 40.488C35.313 40.488 33.8149 38.9899 33.8149 37.1501C33.8149 37.0696 33.8178 36.9906 33.8248 36.9115H35.9569C35.9414 36.9892 35.9329 37.0682 35.9329 37.1501C35.9329 37.8222 36.4807 38.3701 37.1542 38.3701C37.8263 38.3701 38.3742 37.8222 38.3742 37.1501C38.3742 37.0682 38.3657 36.9892 38.3502 36.9115H40.4822C40.4893 36.9906 40.4921 37.0696 40.4921 37.1501Z" fill="#5780A5"/>
<path d="M30.0737 37.1501C30.0737 38.9899 28.577 40.488 26.7358 40.488C24.8946 40.488 23.3979 38.9899 23.3979 37.1501C23.3979 37.0696 23.4008 36.9906 23.4078 36.9115H25.5399C25.5244 36.9892 25.5159 37.0682 25.5159 37.1501C25.5159 37.8222 26.0623 38.3701 26.7358 38.3701C27.4079 38.3701 27.9558 37.8222 27.9558 37.1501C27.9558 37.0682 27.9473 36.9892 27.9318 36.9115H30.0638C30.0709 36.9906 30.0737 37.0696 30.0737 37.1501Z" fill="#5780A5"/>
<path d="M40.4821 36.9115H38.3501C38.2399 36.3523 37.7443 35.9287 37.1541 35.9287C36.5625 35.9287 36.0669 36.3523 35.9568 36.9115H33.8247C33.9461 35.1818 35.3934 33.8108 37.1541 33.8108C38.9134 33.8108 40.3607 35.1818 40.4821 36.9115Z" fill="#5780A5"/>
<path d="M30.0637 36.9115H27.9317C27.8215 36.3523 27.3259 35.9287 26.7357 35.9287C26.1441 35.9287 25.6499 36.3523 25.5398 36.9115H23.4077C23.5291 35.1818 24.975 33.8108 26.7357 33.8108C28.4964 33.8108 29.9423 35.1818 30.0637 36.9115Z" fill="#5780A5"/>
<path d="M58.7731 4H4.76539C2.14478 4 0 6.14478 0 8.76539V36.9115H23.4076C23.529 35.1819 24.9749 33.8109 26.7356 33.8109C28.4963 33.8109 29.9422 35.1819 30.0636 36.9115H33.8251C33.9465 35.1819 35.3938 33.8109 37.1545 33.8109C38.9138 33.8109 40.3611 35.1819 40.4825 36.9115H46.0922C50.6896 36.9115 52.5167 36.1462 54.3226 32.1461L63.5385 8.76539C63.5385 6.14478 61.3937 4 58.7731 4ZM43.168 19.5429L39.6339 29.2982L38.8051 31.5856C38.654 32.0049 38.2558 32.2831 37.8096 32.2831H26.079C25.6342 32.2831 25.2361 32.0049 25.0836 31.5856L20.722 19.5429L17.9009 11.7573H13.9305C13.3459 11.7573 12.8715 11.2829 12.8715 10.6984C12.8715 10.1138 13.3459 9.63939 13.9305 9.63939H18.6436C19.0898 9.63939 19.488 9.91896 19.639 10.3383L22.4602 18.1225H42.1726C42.5171 18.1225 42.8405 18.2919 43.0396 18.5743C43.2372 18.8567 43.2852 19.2182 43.168 19.5429Z" fill="#B0D3F0"/>
<path d="M39.634 29.2982L38.8052 31.5856C38.6541 32.005 38.2559 32.2831 37.8097 32.2831H26.0791C25.6343 32.2831 25.2362 32.005 25.0837 31.5856L20.7221 19.5429L17.901 11.7574H13.9306C13.346 11.7574 12.8716 11.2829 12.8716 10.6984C12.8716 10.1138 13.346 9.6394 13.9306 9.6394H18.6437C19.0899 9.6394 19.4881 9.91897 19.6391 10.3383L22.4602 18.1225H26.5168V26.5223C26.5168 28.0486 28.423 29.2982 30.7527 29.2982H39.634Z" fill="#5780A5"/>
<path d="M43.1679 19.5429L39.6338 29.2982H30.7525C28.4228 29.2982 26.5166 28.0486 26.5166 26.5222V18.1224H42.1725C42.517 18.1224 42.8403 18.2919 43.0394 18.5743C43.2371 18.8567 43.2851 19.2181 43.1679 19.5429Z" fill="#5780A5"/>
<path d="M63.5385 8.76538V41.362C63.5385 43.9826 61.3937 46.1274 58.7731 46.1274H4.76539C2.14478 46.1274 0 43.9826 0 41.362V36.9115H23.4076C23.4005 36.9906 23.3977 37.0697 23.3977 37.1501C23.3977 38.9899 24.8944 40.488 26.7356 40.488C28.5768 40.488 30.0735 38.9899 30.0735 37.1501C30.0735 37.0697 30.0706 36.9906 30.0636 36.9115H33.8251C33.818 36.9906 33.8152 37.0697 33.8152 37.1501C33.8152 38.9899 35.3133 40.488 37.1545 40.488C38.9943 40.488 40.4924 38.9899 40.4924 37.1501C40.4924 37.0697 40.4895 36.9906 40.4825 36.9115H46.0922C50.6896 36.9115 52.5167 36.1462 54.3226 32.1461L63.5385 8.76538Z" fill="#B0D3F0"/>
<path d="M38.3744 37.1501C38.3744 37.8222 37.8266 38.3701 37.1545 38.3701C36.481 38.3701 35.9331 37.8222 35.9331 37.1501C35.9331 37.0682 35.9416 36.9892 35.9571 36.9115H38.3504C38.3659 36.9892 38.3744 37.0682 38.3744 37.1501Z" fill="white"/>
<path d="M27.9555 37.1501C27.9555 37.8222 27.4077 38.3701 26.7356 38.3701C26.0621 38.3701 25.5156 37.8222 25.5156 37.1501C25.5156 37.0682 25.5241 36.9892 25.5396 36.9115H27.9315C27.947 36.9892 27.9555 37.0682 27.9555 37.1501Z" fill="white"/>
<path d="M27.9314 36.9116H25.5396C25.6497 36.3524 26.1439 35.9288 26.7355 35.9288C27.3257 35.9288 27.8213 36.3524 27.9314 36.9116Z" fill="white"/>
<path d="M38.3503 36.9116H35.957C36.0672 36.3524 36.5628 35.9288 37.1544 35.9288C37.7446 35.9288 38.2402 36.3524 38.3503 36.9116Z" fill="white"/>
<path d="M42.8093 54.2279H20.729L23.4569 46.1274H25.3871V49.4187C25.3871 50.9465 27.2932 52.1961 29.623 52.1961H42.1259L42.8093 54.2279Z" fill="#5780A5"/>
<path d="M56.919 58.2788V60H6.61914V58.2788C6.61914 56.0508 8.76392 54.2279 11.3845 54.2279H12.8713V55.349C12.8713 56.8768 14.7775 58.1263 17.1072 58.1263H56.9162C56.9176 58.1772 56.919 58.228 56.919 58.2788Z" fill="#5780A5"/>
<path d="M56.9165 58.1263H17.1075C14.7777 58.1263 12.8716 56.8768 12.8716 55.349V54.2279H52.1539C54.7152 54.2279 56.8205 55.9689 56.9165 58.1263Z" fill="#5780A5"/>
<path d="M42.1261 52.1961H29.6231C27.2934 52.1961 25.3872 50.9465 25.3872 49.4187V46.1274H40.083L42.1261 52.1961Z" fill="#5780A5"/>
</svg>
