<svg width="64" height="64" viewBox="0 0 64 64" fill="none" xmlns="http://www.w3.org/2000/svg">
<g clip-path="url(#clip0_2593_11447)">
<path d="M11.0205 40.9994C8.30689 40.9961 5.68948 39.9902 3.66786 38.1737C1.64624 36.3571 0.361982 33.8571 0.0602135 31.1509C-0.241555 28.4446 0.460295 25.7216 2.03181 23.5016C3.60332 21.2816 5.93443 19.72 8.58023 19.1149C8.65079 19.1001 8.71771 19.0713 8.7771 19.0303C8.83649 18.9893 8.88718 18.9369 8.92621 18.8761C8.96525 18.8152 8.99186 18.7472 9.00449 18.676C9.01713 18.6048 9.01555 18.5318 8.99983 18.4611C8.81803 17.5684 8.76965 16.6534 8.85628 15.7464C8.98958 14.3705 9.44215 13.0451 10.1777 11.8764C10.9133 10.7076 11.9114 9.72802 13.0922 9.01603C14.2729 8.30403 15.6034 7.87945 16.9771 7.77629C18.3507 7.67313 19.7294 7.89427 21.0026 8.42199C21.1294 8.47357 21.2707 8.47605 21.3993 8.42896C21.5278 8.38187 21.6343 8.28857 21.6982 8.16713C23.2678 5.24376 25.7294 2.9019 28.7221 1.48494C31.7148 0.0679821 35.0812 -0.349541 38.3276 0.293595C41.574 0.93673 44.5297 2.60669 46.7614 5.05861C48.993 7.51054 50.383 10.6154 50.7278 13.918C50.7411 14.0514 50.8021 14.1755 50.8996 14.2672C50.997 14.3589 51.1243 14.412 51.2578 14.4167C54.5315 14.5449 57.6417 15.8855 59.9882 18.1798C62.3347 20.4741 63.751 23.5594 63.9637 26.84C64.1765 30.1207 63.1705 33.3642 61.1401 35.9443C59.1097 38.5244 56.1988 40.2582 52.9694 40.811L11.0205 40.9994Z" fill="#5780A5"/>
<path d="M52.9917 33.9994V27.3327C52.9917 26.4487 52.6424 25.6008 52.0205 24.9757C51.3987 24.3506 50.5553 23.9994 49.6759 23.9994H14.3075C13.4281 23.9994 12.5847 24.3506 11.9629 24.9757C11.341 25.6008 10.9917 26.4487 10.9917 27.3327V33.9994C10.9917 34.8834 11.341 35.7313 11.9629 36.3564C12.5847 36.9815 13.4281 37.3327 14.3075 37.3327C13.4281 37.3327 12.5847 37.6839 11.9629 38.309C11.341 38.9342 10.9917 39.782 10.9917 40.6661V47.3327C10.9917 48.2168 11.341 49.0646 11.9629 49.6897C12.5847 50.3149 13.4281 50.6661 14.3075 50.6661C13.4281 50.6661 12.5847 51.0172 11.9629 51.6424C11.341 52.2675 10.9917 53.1153 10.9917 53.9994V60.6661C10.9917 61.5501 11.341 62.398 11.9629 63.0231C12.5847 63.6482 13.4281 63.9994 14.3075 63.9994H49.6759C50.5553 63.9994 51.3987 63.6482 52.0205 63.0231C52.6424 62.398 52.9917 61.5501 52.9917 60.6661V53.9994C52.9917 53.1153 52.6424 52.2675 52.0205 51.6424C51.3987 51.0172 50.5553 50.6661 49.6759 50.6661C50.5553 50.6661 51.3987 50.3149 52.0205 49.6897C52.6424 49.0646 52.9917 48.2168 52.9917 47.3327V40.6661C52.9917 39.782 52.6424 38.9342 52.0205 38.309C51.3987 37.6839 50.5553 37.3327 49.6759 37.3327C50.5553 37.3327 51.3987 36.9815 52.0205 36.3564C52.6424 35.7313 52.9917 34.8834 52.9917 33.9994Z" fill="#B0D3F0"/>
<path d="M49.6759 37.9994H14.3075C12.4762 37.9994 10.9917 39.4545 10.9917 41.2494V47.7494C10.9917 49.5443 12.4762 50.9994 14.3075 50.9994H49.6759C51.5072 50.9994 52.9917 49.5443 52.9917 47.7494V41.2494C52.9917 39.4545 51.5072 37.9994 49.6759 37.9994Z" fill="#B0D3F0"/>
<path d="M17.4917 45.9994C18.8724 45.9994 19.9917 45.104 19.9917 43.9994C19.9917 42.8948 18.8724 41.9994 17.4917 41.9994C16.111 41.9994 14.9917 42.8948 14.9917 43.9994C14.9917 45.104 16.111 45.9994 17.4917 45.9994Z" fill="#5780A5"/>
<path d="M26.4917 45.9994C27.8724 45.9994 28.9917 45.104 28.9917 43.9994C28.9917 42.8948 27.8724 41.9994 26.4917 41.9994C25.111 41.9994 23.9917 42.8948 23.9917 43.9994C23.9917 45.104 25.111 45.9994 26.4917 45.9994Z" fill="#5780A5"/>
<path d="M17.4917 32.9994C18.8724 32.9994 19.9917 32.104 19.9917 30.9994C19.9917 29.8948 18.8724 28.9994 17.4917 28.9994C16.111 28.9994 14.9917 29.8948 14.9917 30.9994C14.9917 32.104 16.111 32.9994 17.4917 32.9994Z" fill="#5780A5"/>
<path d="M26.4917 32.9994C27.8724 32.9994 28.9917 32.104 28.9917 30.9994C28.9917 29.8948 27.8724 28.9994 26.4917 28.9994C25.111 28.9994 23.9917 29.8948 23.9917 30.9994C23.9917 32.104 25.111 32.9994 26.4917 32.9994Z" fill="#5780A5"/>
<path d="M17.4917 59.9994C18.8724 59.9994 19.9917 58.8801 19.9917 57.4994C19.9917 56.1187 18.8724 54.9994 17.4917 54.9994C16.111 54.9994 14.9917 56.1187 14.9917 57.4994C14.9917 58.8801 16.111 59.9994 17.4917 59.9994Z" fill="#5780A5"/>
<path d="M26.4917 59.9994C27.8724 59.9994 28.9917 58.8801 28.9917 57.4994C28.9917 56.1187 27.8724 54.9994 26.4917 54.9994C25.111 54.9994 23.9917 56.1187 23.9917 57.4994C23.9917 58.8801 25.111 59.9994 26.4917 59.9994Z" fill="#5780A5"/>
<path d="M26.7919 19.9994C26.4736 19.9993 26.1684 19.8806 25.9434 19.6693L22.3431 16.2891C22.1181 16.0778 21.9917 15.7912 21.9917 15.4925C21.9917 15.1937 22.1181 14.9072 22.3431 14.6959L25.9434 11.3157C26.1697 11.1104 26.4729 10.9969 26.7875 10.9994C27.1022 11.002 27.4032 11.1205 27.6257 11.3294C27.8482 11.5383 27.9744 11.8209 27.9772 12.1163C27.9799 12.4118 27.8589 12.6964 27.6403 12.9089L24.8885 15.4925L27.6403 18.0761C27.8081 18.2336 27.9224 18.4344 27.9687 18.6529C28.0149 18.8714 27.9912 19.098 27.9004 19.3038C27.8095 19.5097 27.6558 19.6856 27.4585 19.8094C27.2612 19.9332 27.0292 19.9993 26.7919 19.9994Z" fill="white"/>
<path d="M37.1915 19.9994C36.9542 19.9993 36.7222 19.9332 36.5249 19.8094C36.3276 19.6856 36.1738 19.5097 36.083 19.3038C35.9922 19.098 35.9685 18.8714 36.0147 18.6529C36.061 18.4344 36.1753 18.2336 36.3431 18.0761L39.0949 15.4925L36.3431 12.9089C36.1245 12.6964 36.0035 12.4118 36.0062 12.1163C36.009 11.8209 36.1352 11.5383 36.3577 11.3294C36.5802 11.1205 36.8812 11.002 37.1959 10.9994C37.5105 10.9969 37.8137 11.1104 38.04 11.3157L41.6403 14.6959C41.8653 14.9072 41.9917 15.1937 41.9917 15.4925C41.9917 15.7912 41.8653 16.0778 41.6403 16.2891L38.04 19.6693C37.815 19.8806 37.5098 19.9993 37.1915 19.9994Z" fill="white"/>
<path d="M30.9903 19.9994C30.8321 19.9992 30.6761 19.9568 30.5352 19.8756C30.3944 19.7943 30.2727 19.6766 30.1802 19.532C30.0877 19.3875 30.027 19.2203 30.0031 19.0442C29.9793 18.8681 29.9929 18.6881 30.0429 18.5191L32.0417 11.7701C32.1255 11.4867 32.3058 11.2523 32.5431 11.1186C32.7804 10.9849 33.0551 10.9627 33.3069 11.057C33.5587 11.1512 33.767 11.3542 33.8858 11.6213C34.0046 11.8883 34.0243 12.1976 33.9406 12.481L31.9418 19.23C31.8753 19.4546 31.7475 19.6499 31.5767 19.7881C31.4059 19.9262 31.2007 20.0001 30.9903 19.9994Z" fill="white"/>
<path d="M37.6584 42.9994H36.325C35.9714 42.9994 35.6323 42.894 35.3822 42.7065C35.1322 42.519 34.9917 42.2646 34.9917 41.9994C34.9917 41.7342 35.1322 41.4798 35.3822 41.2923C35.6323 41.1047 35.9714 40.9994 36.325 40.9994H37.6584C38.012 40.9994 38.3511 41.1047 38.6012 41.2923C38.8512 41.4798 38.9917 41.7342 38.9917 41.9994C38.9917 42.2646 38.8512 42.519 38.6012 42.7065C38.3511 42.894 38.012 42.9994 37.6584 42.9994Z" fill="#5780A5"/>
<path d="M37.6584 46.9994H36.325C35.9714 46.9994 35.6323 46.894 35.3822 46.7065C35.1322 46.519 34.9917 46.2646 34.9917 45.9994C34.9917 45.7342 35.1322 45.4798 35.3822 45.2923C35.6323 45.1047 35.9714 44.9994 36.325 44.9994H37.6584C38.012 44.9994 38.3511 45.1047 38.6012 45.2923C38.8512 45.4798 38.9917 45.7342 38.9917 45.9994C38.9917 46.2646 38.8512 46.519 38.6012 46.7065C38.3511 46.894 38.012 46.9994 37.6584 46.9994Z" fill="#5780A5"/>
<path d="M42.9917 42.9994H41.9917C41.7265 42.9994 41.4721 42.894 41.2846 42.7065C41.0971 42.519 40.9917 42.2646 40.9917 41.9994C40.9917 41.7342 41.0971 41.4798 41.2846 41.2923C41.4721 41.1047 41.7265 40.9994 41.9917 40.9994H42.9917C43.2569 40.9994 43.5113 41.1047 43.6988 41.2923C43.8863 41.4798 43.9917 41.7342 43.9917 41.9994C43.9917 42.2646 43.8863 42.519 43.6988 42.7065C43.5113 42.894 43.2569 42.9994 42.9917 42.9994Z" fill="#5780A5"/>
<path d="M42.9917 46.9994H41.9917C41.7265 46.9994 41.4721 46.894 41.2846 46.7065C41.0971 46.519 40.9917 46.2646 40.9917 45.9994C40.9917 45.7342 41.0971 45.4798 41.2846 45.2923C41.4721 45.1047 41.7265 44.9994 41.9917 44.9994H42.9917C43.2569 44.9994 43.5113 45.1047 43.6988 45.2923C43.8863 45.4798 43.9917 45.7342 43.9917 45.9994C43.9917 46.2646 43.8863 46.519 43.6988 46.7065C43.5113 46.894 43.2569 46.9994 42.9917 46.9994Z" fill="#5780A5"/>
<path d="M48.6584 42.9994H47.325C46.9714 42.9994 46.6323 42.894 46.3822 42.7065C46.1322 42.519 45.9917 42.2646 45.9917 41.9994C45.9917 41.7342 46.1322 41.4798 46.3822 41.2923C46.6323 41.1047 46.9714 40.9994 47.325 40.9994H48.6584C49.012 40.9994 49.3511 41.1047 49.6012 41.2923C49.8512 41.4798 49.9917 41.7342 49.9917 41.9994C49.9917 42.2646 49.8512 42.519 49.6012 42.7065C49.3511 42.894 49.012 42.9994 48.6584 42.9994Z" fill="#5780A5"/>
<path d="M48.6584 46.9994H47.325C46.9714 46.9994 46.6323 46.894 46.3822 46.7065C46.1322 46.519 45.9917 46.2646 45.9917 45.9994C45.9917 45.7342 46.1322 45.4798 46.3822 45.2923C46.6323 45.1047 46.9714 44.9994 47.325 44.9994H48.6584C49.012 44.9994 49.3511 45.1047 49.6012 45.2923C49.8512 45.4798 49.9917 45.7342 49.9917 45.9994C49.9917 46.2646 49.8512 46.519 49.6012 46.7065C49.3511 46.894 49.012 46.9994 48.6584 46.9994Z" fill="#5780A5"/>
<path d="M37.5147 56.2983H36.4102C36.1172 56.2983 35.8363 56.1819 35.6292 55.9748C35.422 55.7677 35.3057 55.4867 35.3057 55.1938C35.3057 54.9009 35.422 54.6199 35.6292 54.4128C35.8363 54.2057 36.1172 54.0893 36.4102 54.0893H37.5147C37.8076 54.0893 38.0885 54.2057 38.2956 54.4128C38.5028 54.6199 38.6191 54.9009 38.6191 55.1938C38.6191 55.4867 38.5028 55.7677 38.2956 55.9748C38.0885 56.1819 37.8076 56.2983 37.5147 56.2983Z" fill="#5780A5"/>
<path d="M37.5147 60.7163H36.4102C36.1172 60.7163 35.8363 60.5999 35.6292 60.3928C35.422 60.1856 35.3057 59.9047 35.3057 59.6118C35.3057 59.3188 35.422 59.0379 35.6292 58.8308C35.8363 58.6236 36.1172 58.5073 36.4102 58.5073H37.5147C37.8076 58.5073 38.0885 58.6236 38.2956 58.8308C38.5028 59.0379 38.6191 59.3188 38.6191 59.6118C38.6191 59.9047 38.5028 60.1856 38.2956 60.3928C38.0885 60.5999 37.8076 60.7163 37.5147 60.7163Z" fill="#5780A5"/>
<path d="M43.0371 56.2983H41.9326C41.6397 56.2983 41.3588 56.1819 41.1516 55.9748C40.9445 55.7677 40.8281 55.4867 40.8281 55.1938C40.8281 54.9009 40.9445 54.6199 41.1516 54.4128C41.3588 54.2057 41.6397 54.0893 41.9326 54.0893H43.0371C43.33 54.0893 43.611 54.2057 43.8181 54.4128C44.0252 54.6199 44.1416 54.9009 44.1416 55.1938C44.1416 55.4867 44.0252 55.7677 43.8181 55.9748C43.611 56.1819 43.33 56.2983 43.0371 56.2983Z" fill="#5780A5"/>
<path d="M43.0371 60.7163H41.9326C41.6397 60.7163 41.3588 60.5999 41.1516 60.3928C40.9445 60.1856 40.8281 59.9047 40.8281 59.6118C40.8281 59.3188 40.9445 59.0379 41.1516 58.8308C41.3588 58.6236 41.6397 58.5073 41.9326 58.5073H43.0371C43.33 58.5073 43.611 58.6236 43.8181 58.8308C44.0252 59.0379 44.1416 59.3188 44.1416 59.6118C44.1416 59.9047 44.0252 60.1856 43.8181 60.3928C43.611 60.5999 43.33 60.7163 43.0371 60.7163Z" fill="#5780A5"/>
<path d="M48.5596 56.2983H47.4551C47.1622 56.2983 46.8812 56.1819 46.6741 55.9748C46.467 55.7677 46.3506 55.4867 46.3506 55.1938C46.3506 54.9009 46.467 54.6199 46.6741 54.4128C46.8812 54.2057 47.1622 54.0893 47.4551 54.0893H48.5596C48.8525 54.0893 49.1334 54.2057 49.3406 54.4128C49.5477 54.6199 49.6641 54.9009 49.6641 55.1938C49.6641 55.4867 49.5477 55.7677 49.3406 55.9748C49.1334 56.1819 48.8525 56.2983 48.5596 56.2983Z" fill="#5780A5"/>
<path d="M48.5596 60.7163H47.4551C47.1622 60.7163 46.8812 60.5999 46.6741 60.3928C46.467 60.1856 46.3506 59.9047 46.3506 59.6118C46.3506 59.3188 46.467 59.0379 46.6741 58.8308C46.8812 58.6236 47.1622 58.5073 47.4551 58.5073H48.5596C48.8525 58.5073 49.1334 58.6236 49.3406 58.8308C49.5477 59.0379 49.6641 59.3188 49.6641 59.6118C49.6641 59.9047 49.5477 60.1856 49.3406 60.3928C49.1334 60.5999 48.8525 60.7163 48.5596 60.7163Z" fill="#5780A5"/>
<path d="M37.5147 29.7904H36.4102C36.1172 29.7904 35.8363 29.674 35.6292 29.4669C35.422 29.2598 35.3057 28.9788 35.3057 28.6859C35.3057 28.393 35.422 28.1121 35.6292 27.9049C35.8363 27.6978 36.1172 27.5814 36.4102 27.5814H37.5147C37.8076 27.5814 38.0885 27.6978 38.2956 27.9049C38.5028 28.1121 38.6191 28.393 38.6191 28.6859C38.6191 28.9788 38.5028 29.2598 38.2956 29.4669C38.0885 29.674 37.8076 29.7904 37.5147 29.7904Z" fill="#5780A5"/>
<path d="M37.5147 34.2084H36.4102C36.1172 34.2084 35.8363 34.092 35.6292 33.8849C35.422 33.6777 35.3057 33.3968 35.3057 33.1039C35.3057 32.811 35.422 32.53 35.6292 32.3229C35.8363 32.1158 36.1172 31.9994 36.4102 31.9994H37.5147C37.8076 31.9994 38.0885 32.1158 38.2956 32.3229C38.5028 32.53 38.6191 32.811 38.6191 33.1039C38.6191 33.3968 38.5028 33.6777 38.2956 33.8849C38.0885 34.092 37.8076 34.2084 37.5147 34.2084Z" fill="#5780A5"/>
<path d="M43.0371 29.7904H41.9326C41.6397 29.7904 41.3588 29.674 41.1516 29.4669C40.9445 29.2598 40.8281 28.9788 40.8281 28.6859C40.8281 28.393 40.9445 28.1121 41.1516 27.9049C41.3588 27.6978 41.6397 27.5814 41.9326 27.5814H43.0371C43.33 27.5814 43.611 27.6978 43.8181 27.9049C44.0252 28.1121 44.1416 28.393 44.1416 28.6859C44.1416 28.9788 44.0252 29.2598 43.8181 29.4669C43.611 29.674 43.33 29.7904 43.0371 29.7904Z" fill="#5780A5"/>
<path d="M43.0371 34.2084H41.9326C41.6397 34.2084 41.3588 34.092 41.1516 33.8849C40.9445 33.6777 40.8281 33.3968 40.8281 33.1039C40.8281 32.811 40.9445 32.53 41.1516 32.3229C41.3588 32.1158 41.6397 31.9994 41.9326 31.9994H43.0371C43.33 31.9994 43.611 32.1158 43.8181 32.3229C44.0252 32.53 44.1416 32.811 44.1416 33.1039C44.1416 33.3968 44.0252 33.6777 43.8181 33.8849C43.611 34.092 43.33 34.2084 43.0371 34.2084Z" fill="#5780A5"/>
<path d="M48.5596 29.7904H47.4551C47.1622 29.7904 46.8812 29.674 46.6741 29.4669C46.467 29.2598 46.3506 28.9788 46.3506 28.6859C46.3506 28.393 46.467 28.1121 46.6741 27.9049C46.8812 27.6978 47.1622 27.5814 47.4551 27.5814H48.5596C48.8525 27.5814 49.1334 27.6978 49.3406 27.9049C49.5477 28.1121 49.6641 28.393 49.6641 28.6859C49.6641 28.9788 49.5477 29.2598 49.3406 29.4669C49.1334 29.674 48.8525 29.7904 48.5596 29.7904Z" fill="#5780A5"/>
<path d="M48.5596 34.2084H47.4551C47.1622 34.2084 46.8812 34.092 46.6741 33.8849C46.467 33.6777 46.3506 33.3968 46.3506 33.1039C46.3506 32.811 46.467 32.53 46.6741 32.3229C46.8812 32.1158 47.1622 31.9994 47.4551 31.9994H48.5596C48.8525 31.9994 49.1334 32.1158 49.3406 32.3229C49.5477 32.53 49.6641 32.811 49.6641 33.1039C49.6641 33.3968 49.5477 33.6777 49.3406 33.8849C49.1334 34.092 48.8525 34.2084 48.5596 34.2084Z" fill="#5780A5"/>
</g>
<defs>
<clipPath id="clip0_2593_11447">
<rect width="64" height="64" fill="white"/>
</clipPath>
</defs>
</svg>
