<svg width="64" height="64" viewBox="0 0 64 64" fill="none" xmlns="http://www.w3.org/2000/svg">
<path d="M32 8.9975L37.375 23.8811L32 61.6537H15.3838V8.9975H32Z" fill="white"/>
<path d="M32 8.9975H48.12V61.6537H32V8.9975Z" fill="#B0D3F0"/>
<path d="M32 0L38.0667 5.18013L32 11.25H16.75V17.625C16.75 18.66 15.91 19.5 14.875 19.5C13.84 19.5 13 18.66 13 17.625V5.1C13 2.2875 15.2875 0 18.1 0H32Z" fill="#5780A5"/>
<path d="M32 60.25L33.7545 62.0021L32 64H18.1C15.2875 64 13 61.7125 13 58.9V46.375C13 45.34 13.84 44.5 14.875 44.5C15.91 44.5 16.75 45.34 16.75 46.375V58.9C16.75 59.645 17.355 60.25 18.1 60.25H32Z" fill="#5780A5"/>
<path d="M51 5.1V17.625C51 18.66 50.16 19.5 49.125 19.5C48.09 19.5 47.25 18.66 47.25 17.625V11.25H32V0H45.9C48.7125 0 51 2.2875 51 5.1Z" fill="#5780A5"/>
<path d="M51 46.375V58.9C51 61.7125 48.7125 64 45.9 64H32V60.25H45.9C46.645 60.25 47.25 59.645 47.25 58.9V46.375C47.25 45.34 48.09 44.5 49.125 44.5C50.16 44.5 51 45.34 51 46.375Z" fill="#5780A5"/>
<path d="M32 15.75L38.8005 27.526L32 48.25H10.125C9.09 48.25 8.25 47.41 8.25 46.375V17.625C8.25 16.59 9.09 15.75 10.125 15.75H32Z" fill="#5780A5"/>
<path d="M55.75 17.625V46.375C55.75 47.41 54.91 48.25 53.875 48.25H32V15.75H53.875C54.91 15.75 55.75 16.59 55.75 17.625Z" fill="#5780A5"/>
<path d="M25.2008 26.7368C24.4687 26.0047 23.2814 26.0047 22.5492 26.7368L18.6117 30.6743C17.8794 31.4064 17.8794 32.5937 18.6117 33.3259L22.5492 37.2634C22.9153 37.6295 23.3952 37.8127 23.8749 37.8127C24.3547 37.8127 24.8347 37.6295 25.2007 37.2634C25.9329 36.5313 25.9329 35.344 25.2007 34.6118L22.5892 32L25.2009 29.3883C25.9332 28.6562 25.9332 27.4689 25.2008 26.7368Z" fill="white"/>
<path d="M32.0001 24.4675L33.1467 28.8237L32.0001 39.5325C31.7238 40.2688 31.0163 40.7463 30.2463 40.7463C30.0938 40.7463 29.9376 40.7275 29.7813 40.6875C28.7788 40.4313 28.1726 39.41 28.4288 38.4075L31.9376 24.665C31.9551 24.5975 31.9751 24.5313 32.0001 24.4675Z" fill="white"/>
<path d="M32 52.75L33.501 54.625L32 56.5H28.8125C27.7775 56.5 26.9375 55.66 26.9375 54.625C26.9375 53.59 27.7775 52.75 28.8125 52.75H32Z" fill="#5780A5"/>
<path d="M35.5713 25.5925L32.0625 39.335C32.045 39.4025 32.025 39.4688 32 39.5325V24.4675C32.3313 23.5838 33.2825 23.0725 34.2188 23.3125C35.2213 23.5688 35.8275 24.59 35.5713 25.5925Z" fill="#B0D3F0"/>
<path d="M45.3889 33.3262L41.4514 37.2637C41.0852 37.63 40.6052 37.8125 40.1252 37.8125C39.6452 37.8125 39.1652 37.63 38.7989 37.2637C38.0677 36.5312 38.0677 35.3437 38.7989 34.6112L41.4114 32L38.7989 29.3887C38.0677 28.6562 38.0677 27.4687 38.7989 26.7362C39.5314 26.005 40.7189 26.005 41.4514 26.7362L45.3889 30.6737C46.1202 31.4062 46.1202 32.5937 45.3889 33.3262Z" fill="#B0D3F0"/>
<path d="M37.0625 54.625C37.0625 55.66 36.2225 56.5 35.1875 56.5H32V52.75H35.1875C36.2225 52.75 37.0625 53.59 37.0625 54.625Z" fill="#5780A5"/>
</svg>
