<svg width="64" height="64" viewBox="0 0 64 64" fill="none" xmlns="http://www.w3.org/2000/svg">
<g clip-path="url(#clip0_2593_11480)">
<path fill-rule="evenodd" clip-rule="evenodd" d="M51.2353 53.5682H4.00649C1.80018 53.5682 0.00488281 51.7732 0.00488281 49.5668V14.4331C0.00488281 12.2268 1.79987 10.4316 4.00649 10.4316L51.2357 10.4318C53.442 10.4318 55.2376 12.2268 55.2376 14.4334V49.5668C55.2371 51.7732 53.4422 53.5682 51.2353 53.5682Z" fill="#B0D3F0"/>
<path fill-rule="evenodd" clip-rule="evenodd" d="M0.00492031 22.0144V14.4333C0.00492031 12.2308 1.79371 10.4382 3.99501 10.432H51.2358C53.4421 10.432 55.2377 12.227 55.2377 14.4336V22.0144L0.00492031 22.0144Z" fill="#5780A5"/>
<path fill-rule="evenodd" clip-rule="evenodd" d="M25.7336 49H22.2664C22.1193 49 22 48.6755 22 48.2765V37.7235C22 37.3242 22.1193 37 22.2664 37H25.7336C25.8807 37 26 37.3245 26 37.7235V48.2759C26 48.6755 25.8807 49 25.7336 49Z" fill="#5780A5"/>
<path fill-rule="evenodd" clip-rule="evenodd" d="M17.7336 49H14.2664C14.1193 49 14 48.8107 14 48.5779V42.4221C14 42.1891 14.1193 42 14.2664 42H17.7336C17.8807 42 18 42.1893 18 42.4221V48.5776C18 48.8107 17.8807 49 17.7336 49Z" fill="#5780A5"/>
<path fill-rule="evenodd" clip-rule="evenodd" d="M33.667 49H29.333C29.1492 49 29 48.6666 29 48.2566V32.7436C29 32.3331 29.1492 32 29.333 32H33.667C33.8508 32 34 32.3331 34 32.7436V48.2566C34 48.6666 33.8508 49 33.667 49Z" fill="#5780A5"/>
<path fill-rule="evenodd" clip-rule="evenodd" d="M41.667 49H37.333C37.1492 49 37 48.6641 37 48.2511V27.7489C37 27.3355 37.1492 27 37.333 27H41.667C41.8508 27 42 27.3355 42 27.7489V48.2505C42.0002 48.6641 41.8508 49 41.667 49Z" fill="#5780A5"/>
<path fill-rule="evenodd" clip-rule="evenodd" d="M17.7517 26.423H8.95893C8.54495 26.423 8.20907 26.0871 8.20907 25.6731C8.20907 25.2593 8.54495 24.9233 8.95893 24.9233H17.7517C18.1656 24.9233 18.5015 25.2593 18.5015 25.6731C18.5015 26.0871 18.1662 26.423 17.7517 26.423ZM6.16472 26.423H4.68833C4.2745 26.423 3.93848 26.0871 3.93848 25.6731C3.93848 25.2593 4.2745 24.9233 4.68833 24.9233H6.16472C6.57855 24.9233 6.91457 25.2593 6.91457 25.6731C6.91457 26.0871 6.57855 26.423 6.16472 26.423Z" fill="#5780A5"/>
<path fill-rule="evenodd" clip-rule="evenodd" d="M17.7512 29.2045H16.2749C15.861 29.2045 15.5251 28.8685 15.5251 28.4545C15.5251 28.0407 15.861 27.7047 16.2749 27.7047H17.7512C18.1651 27.7047 18.501 28.0407 18.501 28.4545C18.501 28.8685 18.1657 29.2045 17.7512 29.2045ZM13.4807 29.2045H4.68785C4.27402 29.2045 3.93799 28.8685 3.93799 28.4545C3.93799 28.0407 4.27401 27.7047 4.68785 27.7047H13.4807C13.8946 27.7047 14.2306 28.0407 14.2306 28.4545C14.2306 28.8685 13.8946 29.2045 13.4807 29.2045Z" fill="#5780A5"/>
<path fill-rule="evenodd" clip-rule="evenodd" d="M17.7517 31.9863H8.95893C8.54495 31.9863 8.20907 31.6503 8.20907 31.2365C8.20907 30.8225 8.54495 30.4865 8.95893 30.4865H17.7517C18.1656 30.4865 18.5015 30.8225 18.5015 31.2365C18.5015 31.6503 18.1662 31.9863 17.7517 31.9863ZM6.16472 31.9863H4.68833C4.2745 31.9863 3.93848 31.6503 3.93848 31.2365C3.93848 30.8225 4.2745 30.4865 4.68833 30.4865H6.16472C6.57855 30.4865 6.91457 30.8225 6.91457 31.2365C6.91457 31.6503 6.57855 31.9863 6.16472 31.9863Z" fill="#5780A5"/>
<path fill-rule="evenodd" clip-rule="evenodd" d="M17.7512 34.7681H16.2749C15.861 34.7681 15.5251 34.4317 15.5251 34.0183C15.5251 33.6048 15.861 33.2684 16.2749 33.2684H17.7512C18.1651 33.2684 18.501 33.6048 18.501 34.0183C18.501 34.4317 18.1657 34.7681 17.7512 34.7681ZM13.4807 34.7681H4.68785C4.27402 34.7681 3.93799 34.4317 3.93799 34.0183C3.93799 33.6048 4.27401 33.2684 4.68785 33.2684H13.4807C13.8946 33.2684 14.2306 33.6048 14.2306 34.0183C14.2306 34.4317 13.8946 34.7681 13.4807 34.7681Z" fill="#5780A5"/>
<path fill-rule="evenodd" clip-rule="evenodd" d="M10.026 40.6213H4.68785C4.27402 40.6213 3.93799 40.285 3.93799 39.8714V36.6742C3.93799 36.2602 4.27401 35.9242 4.68785 35.9242L10.026 35.924C10.4398 35.924 10.7758 36.2603 10.7758 36.6739V39.8711C10.7758 40.285 10.4401 40.6213 10.026 40.6213Z" fill="#5780A5"/>
<path fill-rule="evenodd" clip-rule="evenodd" d="M6.63263 18.73C5.25058 18.73 4.12646 17.6059 4.12646 16.2237C4.12646 14.8418 5.25058 13.7175 6.63263 13.7175C8.01467 13.7175 9.13879 14.8418 9.13879 16.2237C9.13879 17.6059 8.01467 18.73 6.63263 18.73Z" fill="white"/>
<path fill-rule="evenodd" clip-rule="evenodd" d="M14.8445 18.73C13.4625 18.73 12.3384 17.6059 12.3384 16.2237C12.3384 14.8418 13.4625 13.7175 14.8445 13.7175C16.2266 13.7175 17.3507 14.8418 17.3507 16.2237C17.3507 17.6059 16.2267 18.73 14.8445 18.73Z" fill="white"/>
<path fill-rule="evenodd" clip-rule="evenodd" d="M23.0565 18.73C21.6749 18.73 20.5503 17.6059 20.5503 16.2237C20.5503 14.8418 21.6746 13.7175 23.0565 13.7175C24.4386 13.7175 25.5628 14.8418 25.5628 16.2237C25.5628 17.6059 24.4386 18.73 23.0565 18.73Z" fill="white"/>
<path fill-rule="evenodd" clip-rule="evenodd" d="M48.4735 18.6807H31.6502C31.2364 18.6807 30.9004 18.3447 30.9004 17.9307V14.5152C30.9004 14.1013 31.2364 13.7654 31.6502 13.7654H48.4735C48.8873 13.7654 49.2233 14.1013 49.2233 14.5152V17.9307C49.2233 18.3453 48.8873 18.6807 48.4735 18.6807Z" fill="white"/>
<path fill-rule="evenodd" clip-rule="evenodd" d="M45.1352 49.3183H10.1073C9.6933 49.3183 9.35742 48.982 9.35742 48.5685C9.35742 48.1549 9.6933 47.8186 10.1073 47.8186H45.1352C45.5491 47.8186 45.8851 48.1549 45.8851 48.5685C45.8851 48.982 45.5491 49.3183 45.1352 49.3183Z" fill="#5780A5"/>
<path fill-rule="evenodd" clip-rule="evenodd" d="M55.9134 46.2223H53.0608C52.646 46.2223 52.2976 45.9088 52.2535 45.4962L52.0737 43.8077C51.7584 43.7017 51.4512 43.5736 51.1525 43.426L49.8306 44.4933C49.5081 44.7537 49.0409 44.7283 48.7466 44.4351L46.7299 42.4187C46.4364 42.125 46.412 41.657 46.6725 41.3346L47.7397 40.0126C47.5915 39.7144 47.4641 39.4067 47.3575 39.0915L45.6691 38.9117C45.2563 38.8677 44.9429 38.5198 44.9429 38.1044V35.2523C44.9429 34.8376 45.2563 34.4892 45.6685 34.445L47.3575 34.2646C47.4635 33.9494 47.5915 33.6422 47.7391 33.3435L46.6725 32.022C46.4114 31.6989 46.4362 31.2317 46.7299 30.9385L48.7466 28.922C49.0409 28.6284 49.5086 28.6041 49.8306 28.8638L51.1525 29.931C51.4508 29.7829 51.7585 29.6553 52.0737 29.5489L52.2535 27.8603C52.2973 27.4477 52.6453 27.1348 53.0608 27.1348L55.9134 27.1344C56.3282 27.1344 56.6766 27.4472 56.7207 27.86L56.9005 29.5478C57.2158 29.6544 57.523 29.7826 57.8217 29.9302L59.1436 28.8637C59.4649 28.6031 59.9327 28.6273 60.2276 28.9217L62.2443 30.9383C62.5378 31.232 62.5622 31.6994 62.3018 32.0218L61.2351 33.3433C61.3827 33.6416 61.5101 33.9492 61.6167 34.2645L63.3057 34.4449C63.7179 34.4886 64.0313 34.8366 64.0313 35.2522V38.1042C64.0313 38.5189 63.7179 38.8674 63.3051 38.9115L61.6167 39.0913C61.5107 39.4064 61.3827 39.7138 61.2351 40.0131L62.3018 41.3346C62.5628 41.657 62.538 42.1247 62.2443 42.4187L60.2276 44.4351C59.9333 44.7283 59.4656 44.7531 59.1436 44.4933L57.8217 43.426C57.5234 43.5736 57.2158 43.7011 56.9006 43.8077L56.7207 45.4962C56.6761 45.9088 56.3282 46.2223 55.9134 46.2223ZM54.4877 41.1547C52.0198 41.1547 50.0114 39.1466 50.0114 36.6791C50.0114 34.2115 52.0201 32.2029 54.4877 32.2029C56.9553 32.2029 58.9633 34.2109 58.9633 36.6791C58.9633 39.1473 56.955 41.1547 54.4877 41.1547Z" fill="#5780A5"/>
<path fill-rule="evenodd" clip-rule="evenodd" d="M54.4876 41.8239C51.6508 41.8239 49.3423 39.5156 49.3423 36.6791C49.3423 33.8427 51.6512 31.5339 54.4876 31.5339C57.3242 31.5339 59.6324 33.842 59.6324 36.6791C59.6324 39.5165 57.3239 41.8239 54.4876 41.8239ZM54.4876 41.1548C52.0197 41.1548 50.0114 39.1466 50.0114 36.6792C50.0114 34.2115 52.02 32.2029 54.4876 32.2029C56.9553 32.2029 58.9633 34.2109 58.9633 36.6792C58.9633 39.1474 56.955 41.1548 54.4876 41.1548Z" fill="#5780A5"/>
</g>
<defs>
<clipPath id="clip0_2593_11480">
<rect width="64" height="64" fill="white"/>
</clipPath>
</defs>
</svg>
