<svg width="64" height="64" viewBox="0 0 64 64" fill="none" xmlns="http://www.w3.org/2000/svg">
<g clip-path="url(#clip0_2593_11504)">
<path d="M40.6941 26.4035V60.9531C40.6941 62.6497 39.3187 64.0251 37.6221 64.0251H3.07247C1.37587 64.0251 0.000488281 62.6497 0.000488281 60.9531V26.4035C0.000488281 24.7069 1.37587 23.3315 3.07247 23.3315H37.6221C39.3187 23.3315 40.6941 24.7069 40.6941 26.4035Z" fill="#B0D3F0"/>
<path d="M40.7009 26.4123V60.9619C40.7009 62.6585 39.3255 64.0338 37.6289 64.0338H3.07931C1.3827 64.0338 0.00732422 62.6585 0.00732422 60.9619V59.0265H19.9724C28.655 59.0265 35.6937 51.9879 35.6937 43.3053V23.3403H37.6289C39.3255 23.3403 40.7009 24.7156 40.7009 26.4123Z" fill="#B0D3F0"/>
<path d="M64 25.8677C64 27.2614 62.8703 28.3911 61.4767 28.3911H46.9472C45.5536 28.3911 44.4238 27.2613 44.4238 25.8677C44.4238 24.4741 45.5536 23.3444 46.9472 23.3444H61.4767C62.8703 23.3444 64 24.4741 64 25.8677Z" fill="#B0D3F0"/>
<path d="M63.9962 25.8688C63.9962 27.2624 62.8712 28.3873 61.4776 28.3873H53.1865C54.5803 28.3873 55.7051 27.2624 55.7051 25.8688C55.7051 24.4751 54.5803 23.3403 53.1865 23.3403H61.4776C62.8712 23.3403 63.9962 24.4751 63.9962 25.8688Z" fill="#B0D3F0"/>
<path d="M64 34.8175C64 36.2112 62.8703 37.3409 61.4767 37.3409H46.9472C45.5536 37.3409 44.4238 36.2112 44.4238 34.8176C44.4238 33.4239 45.5536 32.2942 46.9472 32.2942H61.4767C62.8703 32.2942 64 33.4239 64 34.8175Z" fill="#B0D3F0"/>
<path d="M63.9962 34.8186C63.9962 36.2122 62.8712 37.3371 61.4776 37.3371H53.1865C54.5803 37.3371 55.7051 36.2122 55.7051 34.8186C55.7051 33.4249 54.5803 32.29 53.1865 32.29H61.4776C62.8712 32.29 63.9962 33.4249 63.9962 34.8186Z" fill="#B0D3F0"/>
<path d="M64 43.7673C64 45.1609 62.8703 46.2906 61.4767 46.2906H46.9472C45.5536 46.2906 44.4238 45.1609 44.4238 43.7673C44.4238 42.3737 45.5536 41.2439 46.9472 41.2439H61.4767C62.8703 41.2439 64 42.3736 64 43.7673Z" fill="#B0D3F0"/>
<path d="M63.9962 43.7683C63.9962 45.162 62.8712 46.2869 61.4776 46.2869H53.1865C54.5803 46.2869 55.7051 45.162 55.7051 43.7683C55.7051 42.3747 54.5803 41.2398 53.1865 41.2398H61.4776C62.8712 41.2398 63.9962 42.3747 63.9962 43.7683Z" fill="#B0D3F0"/>
<path d="M60.4246 57.7959C60.4246 61.2405 57.6785 64.0335 54.2339 64.0335C50.7894 64.0335 47.9961 61.2405 47.9961 57.7959C47.9961 54.3514 50.7894 51.5587 54.2339 51.5587C57.6785 51.5587 60.4246 54.3514 60.4246 57.7959Z" fill="#5780A5"/>
<path d="M60.428 57.7948C60.428 61.2416 57.6771 64.0339 54.2303 64.0339C53.7414 64.0339 53.2691 63.9758 52.8218 63.8682C55.5726 63.2302 57.5943 60.7527 57.5943 57.7948C57.5943 54.8367 55.5726 52.3593 52.8218 51.7213C53.2691 51.6136 53.7414 51.5556 54.2303 51.5556C57.6771 51.5556 60.428 54.3479 60.428 57.7948Z" fill="#5780A5"/>
<path d="M41.889 2.89203V14.5174C41.889 16.1333 40.5791 17.4433 38.9632 17.4433H2.92926C1.31336 17.4433 0.00341797 16.1333 0.00341797 14.5174V2.89203C0.00341797 1.27613 1.31336 -0.0338135 2.92926 -0.0338135H38.9632C40.5791 -0.0338135 41.889 1.27613 41.889 2.89203Z" fill="#5780A5"/>
<path d="M41.889 2.89203V14.5198C41.889 16.1357 40.5791 17.4457 38.9632 17.4457H2.92926C1.31336 17.4457 0.00341797 16.1357 0.00341797 14.5198V12.6805H28.8787C33.7264 12.6805 37.6562 8.75068 37.6562 3.90299V-0.0338135H38.9632C40.5791 -0.0338135 41.889 1.27613 41.889 2.89203Z" fill="#5780A5"/>
<path d="M63.9977 2.89244V14.5194C63.9977 16.1356 62.6876 17.4457 61.0714 17.4457H49.4443C47.8282 17.4457 46.5181 16.1356 46.5181 14.5194V2.89244C46.5181 1.27632 47.8282 -0.0338135 49.4443 -0.0338135H61.0714C62.6876 -0.0338135 63.9977 1.27632 63.9977 2.89244Z" fill="#5780A5"/>
<path d="M63.9966 2.89244V14.5194C63.9966 16.1356 62.6865 17.4457 61.0703 17.4457H49.4433C47.8272 17.4457 46.5171 16.1356 46.5171 14.5194V14.2853H54.091C57.8163 14.2853 60.8363 11.2654 60.8363 7.54007V-0.0338135H61.0703C62.6865 -0.0338135 63.9966 1.27632 63.9966 2.89244Z" fill="#5780A5"/>
<path d="M24.2655 38.9839C24.2655 41.1434 22.5121 42.8966 20.3526 42.8966C18.1823 42.8966 16.4292 41.1434 16.4292 38.9839C16.4292 36.8137 18.1823 35.0604 20.3526 35.0604C22.5121 35.0604 24.2655 36.8137 24.2655 38.9839Z" fill="#5780A5"/>
<path d="M12.0534 52.2962C11.4389 52.2962 10.9554 51.7564 11.0295 51.1464C11.5948 46.4915 15.5496 42.8967 20.3596 42.8967C25.1458 42.8967 29.0993 46.4915 29.6646 51.1464C29.7387 51.7564 29.2552 52.2962 28.6407 52.2962L12.0534 52.2962Z" fill="#5780A5"/>
</g>
<defs>
<clipPath id="clip0_2593_11504">
<rect width="64" height="64" fill="white"/>
</clipPath>
</defs>
</svg>
