<svg width="64" height="64" viewBox="0 0 64 64" fill="none" xmlns="http://www.w3.org/2000/svg">
<path d="M3.31033 2.20685H51.862C53.6905 2.20685 55.1724 3.68875 55.1724 5.51718V49.6551C55.1724 51.4835 53.6905 52.9654 51.862 52.9654H3.31033C1.48191 52.9655 0 51.4835 0 49.6551V5.51718C0 3.68886 1.48191 2.20685 3.31033 2.20685Z" fill="#5780A5"/>
<path d="M5.5174 5.51715H3.31055V7.724H5.5174V5.51715Z" fill="#5780A5"/>
<path d="M9.93097 5.51715H7.72412V7.724H9.93097V5.51715Z" fill="#5780A5"/>
<path d="M14.345 5.51715H12.1382V7.724H14.345V5.51715Z" fill="#5780A5"/>
<path d="M12.138 11.0345H60.6897C62.5181 11.0345 64 12.5164 64 14.3448V58.4827C64 60.3111 62.5181 61.7931 60.6897 61.7931H12.138C10.3095 61.7931 8.82764 60.3111 8.82764 58.4827V14.3448C8.82764 12.5164 10.3095 11.0345 12.138 11.0345Z" fill="#B0D3F0"/>
<path d="M60.6896 11.0345H58.4828L9.31982 60.1975C9.91463 61.1862 10.9838 61.792 12.138 61.7931H60.6898C62.5182 61.7931 64.0001 60.3111 64.0001 58.4827V14.3448C64.0001 12.5164 62.5181 11.0345 60.6896 11.0345Z" fill="#B0D3F0"/>
<path d="M14.345 14.3448H12.1382V16.5516H14.345V14.3448Z" fill="#5780A5"/>
<path d="M18.7586 14.3448H16.5518V16.5516H18.7586V14.3448Z" fill="#5780A5"/>
<path d="M23.1722 14.3448H20.9653V16.5516H23.1722V14.3448Z" fill="#5780A5"/>
<path d="M60.6899 18.7586H12.1382V20.9655H60.6899V18.7586Z" fill="#5780A5"/>
<path d="M20.9658 24.2758H12.1382V26.4827H20.9658V24.2758Z" fill="#5780A5"/>
<path d="M18.7588 28.6896H12.1382V30.8965H18.7588V28.6896Z" fill="#5780A5"/>
<path d="M52.9654 44.1379V37.5173H49.2214C48.9135 36.3211 48.439 35.1757 47.8111 34.112L50.4594 31.4637L45.7774 26.7818L43.1292 29.43C42.0655 28.8021 40.9201 28.3276 39.7239 28.0198V24.2758H33.1033V28.0198C31.9071 28.3276 30.7617 28.8021 29.698 29.43L27.0497 26.7818L22.3678 31.4637L25.016 34.112C24.3881 35.1746 23.9136 36.3211 23.6058 37.5173H19.8618V44.1379H23.6058C23.9136 45.3341 24.3881 46.4795 25.016 47.5432L22.3678 50.1914L27.0497 54.8734L29.698 52.2251C30.7617 52.853 31.9071 53.3275 33.1033 53.6354V57.3794H39.7239V53.6354C40.9201 53.3275 42.0655 52.853 43.1292 52.2251L45.7774 54.8734L50.4594 50.1914L47.8111 47.5432C48.439 46.4795 48.9135 45.3341 49.2214 44.1379H52.9654ZM36.4136 47.4482C32.7567 47.4482 29.7929 44.4844 29.7929 40.8276C29.7929 37.1707 32.7567 34.2069 36.4136 34.2069C40.0704 34.2069 43.0342 37.1707 43.0342 40.8276C43.0342 44.4844 40.0704 47.4482 36.4136 47.4482Z" fill="#5780A5"/>
<path d="M60.6895 56.2759H54.0688V58.4827H60.6895V56.2759Z" fill="#5780A5"/>
<path d="M47.8115 34.1119L50.4597 31.4637L48.286 29.2888C46.367 32.0683 44.2408 34.699 41.9257 37.1585C43.9461 40.2063 43.1119 44.3144 40.0641 46.3348C37.6134 47.9591 34.3836 47.7726 32.137 45.8758C29.4203 47.9061 26.5844 49.7732 23.646 51.4658L27.0524 54.8722L29.7006 52.224C30.7632 52.8519 31.9086 53.3275 33.1036 53.6353V57.3793H39.7243V53.6353C40.9204 53.3275 42.0658 52.853 43.1296 52.2251L45.7778 54.8733L50.4597 50.1914L47.8115 47.5432C48.4394 46.4794 48.9139 45.334 49.2217 44.1379H52.9657V37.5172H49.2217C48.9138 36.3211 48.4393 35.1757 47.8115 34.1119Z" fill="#5780A5"/>
<path d="M8.82753 14.3448V52.9655H5.51709V17.6551C5.51709 15.8267 6.9991 14.3448 8.82753 14.3448Z" fill="#5780A5"/>
</svg>
