<svg width="64" height="64" viewBox="0 0 64 64" fill="none" xmlns="http://www.w3.org/2000/svg">
<path d="M41.9309 0H11.0343C7.98724 0 5.51709 2.47015 5.51709 5.51724V58.4828C5.51709 61.5298 7.98724 64 11.0343 64H41.9309C44.978 64 47.4481 61.5298 47.4481 58.4828V5.51724C47.4481 2.47015 44.978 0 41.9309 0Z" fill="#5780A5"/>
<path d="M47.4481 20.9987V47.4152C41.2577 47.1725 36.4136 44.8111 36.4136 41.9311V26.4828C36.4136 23.6028 41.2577 21.2414 47.4481 20.9987Z" fill="#5780A5"/>
<path d="M47.4484 37.4841C47.0843 37.5062 46.7201 37.5172 46.345 37.5172C39.636 37.5172 34.207 35.0455 34.207 32V39.7241C34.207 42.7697 39.636 45.2414 46.345 45.2414C46.7201 45.2414 47.0843 45.2303 47.4484 45.2083C53.6388 44.9655 58.4829 42.6041 58.4829 39.7241V32C58.4829 34.88 53.6388 37.2414 47.4484 37.4841Z" fill="#B0D3F0"/>
<path d="M47.4484 29.76C47.0843 29.7821 46.7201 29.7931 46.345 29.7931C39.636 29.7931 34.207 27.3214 34.207 24.2759V32C34.207 35.0455 39.636 37.5173 46.345 37.5173C46.7201 37.5173 47.0843 37.5062 47.4484 37.4842C53.6388 37.2414 58.4829 34.88 58.4829 32V24.2759C58.4829 27.1559 53.6388 29.5173 47.4484 29.76Z" fill="#5780A5"/>
<path d="M47.4484 18.7917C47.0843 18.7696 46.7201 18.7586 46.345 18.7586C39.636 18.7586 34.207 21.2303 34.207 24.2758C34.207 27.3214 39.636 29.7931 46.345 29.7931C46.7201 29.7931 47.0843 29.7821 47.4484 29.76C53.6388 29.5172 58.4829 27.1558 58.4829 24.2758C58.4829 21.3958 53.6388 19.0345 47.4484 18.7917Z" fill="#B0D3F0"/>
<path d="M30.2454 55.8235C30.4528 56.0258 30.6174 56.2678 30.7293 56.5352C30.8411 56.8025 30.898 57.0896 30.8964 57.3794C30.8947 57.9641 30.6616 58.5244 30.2481 58.9379C29.8346 59.3514 29.2743 59.5845 28.6895 59.5862H24.2757C23.6918 59.5819 23.133 59.348 22.72 58.9351C22.3071 58.5221 22.0732 57.9633 22.0688 57.3794C22.0706 56.7946 22.3037 56.2343 22.7172 55.8208C23.1307 55.4073 23.691 55.1742 24.2757 55.1725H28.6895C28.9793 55.1709 29.2664 55.2278 29.5337 55.3396C29.801 55.4515 30.0431 55.616 30.2454 55.8235Z" fill="white"/>
<path d="M18.7588 3.31036H20.9657V5.51726H18.7588V3.31036Z" fill="#5780A5"/>
<path d="M23.1724 3.31036H29.7931V5.51726H23.1724V3.31036Z" fill="#5780A5"/>
<path d="M36.4136 30.8965H38.6205V33.1034H36.4136V30.8965Z" fill="#B0D3F0"/>
<path d="M40.8276 32H43.0345V34.2069H40.8276V32Z" fill="#B0D3F0"/>
<path d="M36.4136 38.6207H38.6205V40.8276H36.4136V38.6207Z" fill="white"/>
<path d="M40.8276 39.7241H43.0345V41.931H40.8276V39.7241Z" fill="white"/>
<path d="M39.7241 23.1724H52.9655V25.3793H39.7241V23.1724Z" fill="white"/>
<path d="M26.1593 30.1164L24.599 31.6767L26.0258 33.1034H13.2412V35.3103H26.0258L24.599 36.7371L26.1593 38.2974L29.4696 34.987C29.6765 34.7801 29.7927 34.4995 29.7927 34.2069C29.7927 33.9143 29.6765 33.6337 29.4696 33.4267L26.1593 30.1164Z" fill="#5780A5"/>
<path d="M24.599 25.7026L26.1593 27.2629L29.4696 23.9525C29.6765 23.7456 29.7927 23.465 29.7927 23.1724C29.7927 22.8798 29.6765 22.5992 29.4696 22.3923L26.1593 19.0819L24.599 20.6422L26.0258 22.0689H13.2412V24.2758H26.0258L24.599 25.7026Z" fill="#5780A5"/>
<path d="M26.1593 41.1509L24.599 42.7112L26.0258 44.1379H13.2412V46.3448H26.0258L24.599 47.7716L26.1593 49.3318L29.4696 46.0215C29.6765 45.8146 29.7927 45.534 29.7927 45.2414C29.7927 44.9488 29.6765 44.6682 29.4696 44.4612L26.1593 41.1509Z" fill="#5780A5"/>
<path d="M23.9527 27.9095L22.3925 29.4698L23.8192 30.8965H11.0347V33.1034H23.8192L22.3925 34.5302L23.9527 36.0905L27.2631 32.7801C27.4699 32.5732 27.5862 32.2926 27.5862 32C27.5862 31.7074 27.4699 31.4268 27.2631 31.2198L23.9527 27.9095Z" fill="#B0D3F0"/>
<path d="M22.3925 23.4957L23.9527 25.056L27.2631 21.7456C27.4699 21.5387 27.5862 21.2581 27.5862 20.9655C27.5862 20.6729 27.4699 20.3923 27.2631 20.1853L23.9527 16.875L22.3925 18.4353L23.8192 19.862H11.0347V22.0689H23.8192L22.3925 23.4957Z" fill="#B0D3F0"/>
<path d="M23.9527 38.944L22.3925 40.5042L23.8192 41.931H11.0347V44.1379H23.8192L22.3925 45.5647L23.9527 47.1249L27.2631 43.8146C27.4699 43.6077 27.5862 43.327 27.5862 43.0345C27.5862 42.7419 27.4699 42.4612 27.2631 42.2543L23.9527 38.944Z" fill="#B0D3F0"/>
</svg>
