<svg width="64" height="64" viewBox="0 0 64 64" fill="none" xmlns="http://www.w3.org/2000/svg">
<g clip-path="url(#clip0_2593_11549)">
<path d="M22.2258 49.5801C21.7269 49.3907 21.1693 49.6411 20.9799 50.1398L19.5564 53.8857C19.3669 54.3843 19.6175 54.9421 20.116 55.1316C20.229 55.1744 20.3449 55.1948 20.4589 55.1948C20.8484 55.1948 21.2153 54.9576 21.3619 54.5718L22.7854 50.8259C22.9751 50.3273 22.7244 49.7696 22.2258 49.5801Z" fill="#B0D3F0"/>
<path d="M26.085 39.4263C25.5866 39.2369 25.0286 39.4873 24.8391 39.986L22.4402 46.2985C22.2507 46.7971 22.5013 47.3549 23 47.5444C23.1128 47.5873 23.2287 47.6076 23.3428 47.6076C23.7323 47.6076 24.0992 47.3704 24.2458 46.9846L26.6447 40.6721C26.8342 40.1734 26.5836 39.6158 26.085 39.4263Z" fill="#B0D3F0"/>
<path d="M12.3458 36.7048L4.87442 42.0385C4.44029 42.3485 4.33967 42.9517 4.64954 43.3858C4.83804 43.6499 5.13492 43.7905 5.43642 43.7905C5.63054 43.7905 5.82667 43.732 5.99679 43.6107L13.4682 38.2769C13.9023 37.9669 14.0029 37.3638 13.693 36.9297C13.3829 36.4955 12.7798 36.395 12.3458 36.7048Z" fill="#B0D3F0"/>
<path d="M13.4999 9.23689L6.40832 4.08864C5.97645 3.77514 5.37257 3.87126 5.05932 4.30276C4.74595 4.73451 4.84182 5.33839 5.27345 5.65176L12.3651 10.8C12.5364 10.9244 12.7349 10.9844 12.9317 10.9844C13.2304 10.9844 13.5251 10.846 13.7141 10.5859C14.0274 10.1541 13.9316 9.55039 13.4999 9.23689Z" fill="#B0D3F0"/>
<path d="M59.3514 4.29149C59.0411 3.85761 58.4379 3.75736 58.0039 4.06799L50.5274 9.41724C50.0937 9.72761 49.9936 10.3309 50.3039 10.7647C50.4926 11.0284 50.7891 11.1686 51.0902 11.1686C51.2847 11.1686 51.4811 11.11 51.6513 10.9881L59.1278 5.63886C59.5617 5.32861 59.6618 4.72536 59.3514 4.29149Z" fill="#B0D3F0"/>
<path d="M49.3154 40.2538C48.9431 39.8718 48.3316 39.8636 47.9496 40.2358C47.5675 40.6081 47.5595 41.2195 47.9316 41.6017L55.2228 49.0872C55.4121 49.2815 55.6633 49.3791 55.9146 49.3791C56.1575 49.3791 56.4008 49.2881 56.5884 49.1052C56.9705 48.733 56.9785 48.1216 56.6064 47.7393L49.3154 40.2538Z" fill="#B0D3F0"/>
<path d="M2.99725 47.5624C4.65259 47.5624 5.9945 46.2205 5.9945 44.5651C5.9945 42.9098 4.65259 41.5679 2.99725 41.5679C1.34191 41.5679 0 42.9098 0 44.5651C0 46.2205 1.34191 47.5624 2.99725 47.5624Z" fill="#B0D3F0"/>
<path d="M58.0056 53.557C59.6609 53.557 61.0028 52.2151 61.0028 50.5597C61.0028 48.9044 59.6609 47.5625 58.0056 47.5625C56.3502 47.5625 55.0083 48.9044 55.0083 50.5597C55.0083 52.2151 56.3502 53.557 58.0056 53.557Z" fill="#5780A5"/>
<path d="M3.4162 6.10729C5.07153 6.10729 6.41345 4.76538 6.41345 3.11004C6.41345 1.45471 5.07153 0.112793 3.4162 0.112793C1.76086 0.112793 0.418945 1.45471 0.418945 3.11004C0.418945 4.76538 1.76086 6.10729 3.4162 6.10729Z" fill="#5780A5"/>
<path d="M61.0026 6.10729C62.658 6.10729 63.9999 4.76538 63.9999 3.11004C63.9999 1.45471 62.658 0.112793 61.0026 0.112793C59.3473 0.112793 58.0054 1.45471 58.0054 3.11004C58.0054 4.76538 59.3473 6.10729 61.0026 6.10729Z" fill="#B0D3F0"/>
<path d="M18.6716 63.9623C21.4496 63.9623 23.7016 61.7103 23.7016 58.9323C23.7016 56.1544 21.4496 53.9023 18.6716 53.9023C15.8936 53.9023 13.6416 56.1544 13.6416 58.9323C13.6416 61.7103 15.8936 63.9623 18.6716 63.9623Z" fill="#5780A5"/>
<path d="M50.6799 38.7571C51.3616 37.6413 51.2199 36.1641 50.2544 35.1987L47.8885 32.8328C47.6172 32.5616 47.5494 32.147 47.7226 31.8046C48.1192 31.0215 48.459 30.2047 48.7365 29.3597C48.8561 28.9957 49.1972 28.751 49.5805 28.751H52.9251C54.5256 28.751 55.823 27.4535 55.823 25.8531V21.8678C55.823 20.2675 54.5256 18.97 52.9251 18.97H49.5806C49.1975 18.97 48.8562 18.7252 48.7366 18.3611C48.459 17.5161 48.1192 16.6995 47.7226 15.9163C47.5492 15.574 47.6171 15.1595 47.8885 14.8881L50.2544 12.5222C51.386 11.3906 51.386 9.55572 50.2544 8.42397L47.4364 5.60622C46.3047 4.4746 44.4699 4.4746 43.3381 5.60622L40.9722 7.9721C40.701 8.24335 40.2864 8.31122 39.9441 8.13785C39.161 7.74122 38.3442 7.40147 37.4992 7.12397C37.1352 7.00435 36.8905 6.66322 36.8905 6.27997V2.93547C36.8905 2.13522 36.5661 1.41072 36.0417 0.886348L35.9274 0.898098C35.9495 0.878973 35.9709 0.859098 35.993 0.839973C35.4729 0.343223 34.7686 0.0375977 33.9926 0.0375977H30.0074C28.407 0.0375977 27.1095 1.33497 27.1095 2.93547V6.27997C27.1095 6.66322 26.8647 7.00435 26.5007 7.12397C25.6557 7.40147 24.8391 7.74135 24.0559 8.13785C23.7136 8.31122 23.299 8.24335 23.0276 7.9721L20.6619 5.60622C20.1171 5.06147 19.4095 4.77922 18.6959 4.75935L15.5215 8.30985L18.6719 23.1518L27.7062 37.3468L39.5652 38.7833L46.724 40.9987L50.6799 38.7571Z" fill="#5780A5"/>
<path d="M46.6164 39.0446C30.8725 39.0446 18.1095 26.2816 18.1095 10.5377C18.1095 8.55857 18.3115 6.62682 18.6955 4.76132C17.9264 4.73945 17.1504 5.01907 16.5634 5.60607L13.7454 8.42407C12.6138 9.55582 12.6138 11.3906 13.7454 12.5223L16.1113 14.8882C16.3825 15.1594 16.4504 15.5741 16.277 15.9163C15.8805 16.6994 15.5406 17.5161 15.2631 18.3611C15.1435 18.7252 14.8024 18.9699 14.4191 18.9699H11.0746C9.47413 18.9699 8.17676 20.2673 8.17676 21.8678V25.8531C8.17676 27.4536 9.47413 28.7509 11.0746 28.7509H14.4191C14.8024 28.7509 15.1435 28.9957 15.2631 29.3597C15.5406 30.2047 15.8805 31.0213 16.277 31.8046C16.4504 32.1468 16.3825 32.5614 16.1113 32.8328L13.7454 35.1987C12.6138 36.3303 12.6138 38.1652 13.7454 39.2968L16.5634 42.1148C17.695 43.2464 19.5299 43.2464 20.6615 42.1148L23.0274 39.7489C23.2986 39.4777 23.7133 39.4098 24.0555 39.5832C24.8386 39.9797 25.6554 40.3196 26.5004 40.5971C26.8644 40.7167 27.1091 41.0579 27.1091 41.4411V44.7856C27.1091 46.3859 28.4065 47.6834 30.007 47.6834H33.9924C34.7681 47.6834 35.4721 47.3781 35.9923 46.8816L35.9934 46.8817C36.546 46.3541 36.8903 45.6099 36.8903 44.7856V41.4411C36.8903 41.0579 37.135 40.7167 37.499 40.5971C38.344 40.3196 39.1606 39.9797 39.9439 39.5832C40.2861 39.4098 40.7008 39.4777 40.972 39.7491L43.3379 42.1149C44.4695 43.2466 46.3044 43.2466 47.4361 42.1149L50.2541 39.2969C50.4205 39.1306 50.5594 38.9478 50.6768 38.7554C49.3503 38.9446 47.9951 39.0446 46.6164 39.0446Z" fill="#5780A5"/>
<path d="M25.9848 18.1375C25.9815 18.1288 25.978 18.1198 25.9743 18.111C25.7858 17.653 25.3443 17.3574 24.8491 17.3574C24.8486 17.3574 24.8482 17.3574 24.8478 17.3574C24.3522 17.3579 23.9106 17.6545 23.7228 18.1133C23.7198 18.1207 23.717 18.128 23.7142 18.1354L19.5557 29.0542C19.3658 29.5525 19.616 30.1105 20.1145 30.3004C20.613 30.4902 21.1708 30.24 21.3607 29.7415L22.1595 27.6443H27.5078L28.2983 29.7389C28.4443 30.1257 28.8118 30.3639 29.2021 30.3639C29.3153 30.3639 29.4306 30.3438 29.5428 30.3014C30.0418 30.1132 30.2938 29.5559 30.1055 29.0568L25.9848 18.1375ZM22.8952 25.7127L24.8461 20.5905L26.7791 25.7127H22.8952Z" fill="white"/>
<path d="M43.5414 17.3573C43.0081 17.3573 42.5757 17.7897 42.5757 18.3231V29.3978C42.5757 29.9313 43.0081 30.3636 43.5414 30.3636C44.0748 30.3636 44.5072 29.9312 44.5072 29.3978V18.3231C44.5072 17.7897 44.0748 17.3573 43.5414 17.3573Z" fill="white"/>
<path d="M36.3363 17.3574H33.2525C32.7334 17.347 32.2778 17.8051 32.2868 18.3231V29.3979C32.2868 29.9314 32.7191 30.3636 33.2525 30.3636C33.7859 30.3636 34.2183 29.9312 34.2183 29.3979V25.5479C34.9251 25.544 35.8523 25.5396 36.3361 25.5396C38.6258 25.5396 40.4885 23.7044 40.4885 21.4485C40.4885 19.1926 38.6259 17.3574 36.3363 17.3574ZM36.3363 23.608C35.8553 23.608 34.9421 23.6124 34.2365 23.6161L34.2216 19.2889H36.3363C37.54 19.2889 38.557 20.2777 38.557 21.4484C38.557 22.6191 37.54 23.608 36.3363 23.608Z" fill="white"/>
</g>
<defs>
<clipPath id="clip0_2593_11549">
<rect width="64" height="64" fill="white"/>
</clipPath>
</defs>
</svg>
