<svg width="64" height="64" viewBox="0 0 64 64" fill="none" xmlns="http://www.w3.org/2000/svg">
<g clip-path="url(#clip0_2619_190)">
<path d="M58.9997 44.96H56.8397V36.32C56.8397 35.7471 56.6122 35.1977 56.2071 34.7927C55.802 34.3876 55.2526 34.16 54.6797 34.16H52.5197C51.9469 34.16 51.3975 34.3876 50.9924 34.7927C50.5873 35.1977 50.3597 35.7471 50.3597 36.32V44.96H49.2797V29.84C49.2797 29.2671 49.0522 28.7177 48.6471 28.3127C48.242 27.9076 47.6926 27.68 47.1197 27.68H44.9597C44.3869 27.68 43.8375 27.9076 43.4324 28.3127C43.0273 28.7177 42.7997 29.2671 42.7997 29.84V44.96H41.7197V33.08C41.7197 32.5071 41.4922 31.9577 41.0871 31.5527C40.682 31.1476 40.1326 30.92 39.5597 30.92H37.3997C36.8269 30.92 36.2775 31.1476 35.8724 31.5527C35.4673 31.9577 35.2397 32.5071 35.2397 33.08V44.96C34.9534 44.9597 34.6788 44.8459 34.4764 44.6434C34.2739 44.4409 34.16 44.1664 34.1597 43.88V26.6C34.1597 26.3136 34.0459 26.0389 33.8434 25.8363C33.6409 25.6338 33.3662 25.52 33.0797 25.52C32.7933 25.52 32.5186 25.6338 32.3161 25.8363C32.1135 26.0389 31.9997 26.3136 31.9997 26.6V43.88C32.0007 44.739 32.3423 45.5626 32.9497 46.17C33.5572 46.7774 34.3807 47.1191 35.2397 47.12H58.9997C59.2862 47.12 59.5609 47.0062 59.7634 46.8037C59.966 46.6012 60.0797 46.3265 60.0797 46.04C60.0797 45.7536 59.966 45.4789 59.7634 45.2763C59.5609 45.0738 59.2862 44.96 58.9997 44.96ZM37.3997 44.96L37.3982 33.08H39.5597V44.96H37.3997ZM44.9597 44.96L44.9582 29.84H47.1197V44.96H44.9597ZM52.5197 44.96L52.5182 36.32H54.6797V44.96H52.5197ZM47.1197 12.56C47.1197 12.4182 47.1476 12.2777 47.2019 12.1467C47.2561 12.0156 47.3357 11.8965 47.436 11.7962C47.5363 11.696 47.6553 11.6164 47.7864 11.5621C47.9174 11.5079 48.0579 11.48 48.1997 11.48H57.9197C58.2062 11.48 58.4809 11.5938 58.6834 11.7963C58.886 11.9989 58.9997 12.2736 58.9997 12.56C58.9997 12.8464 58.886 13.1211 58.6834 13.3237C58.4809 13.5262 58.2062 13.64 57.9197 13.64H48.1997C48.0579 13.64 47.9174 13.6121 47.7864 13.5579C47.6553 13.5036 47.5363 13.4241 47.436 13.3238C47.3357 13.2235 47.2561 13.1044 47.2019 12.9733C47.1476 12.8423 47.1197 12.7018 47.1197 12.56ZM43.8797 12.56C43.8797 12.3464 43.9431 12.1376 44.0617 11.96C44.1804 11.7824 44.3491 11.644 44.5464 11.5622C44.7438 11.4805 44.9609 11.4591 45.1704 11.5008C45.3799 11.5424 45.5724 11.6453 45.7234 11.7963C45.8745 11.9474 45.9773 12.1398 46.019 12.3493C46.0607 12.5588 46.0393 12.776 45.9575 12.9733C45.8758 13.1706 45.7374 13.3393 45.5597 13.458C45.3821 13.5767 45.1733 13.64 44.9597 13.64C44.6733 13.64 44.3986 13.5262 44.1961 13.3237C43.9935 13.1211 43.8797 12.8464 43.8797 12.56ZM47.1197 16.88C47.1197 16.7382 47.1476 16.5977 47.2019 16.4667C47.2561 16.3356 47.3357 16.2165 47.436 16.1162C47.5363 16.016 47.6553 15.9364 47.7864 15.8821C47.9174 15.8279 48.0579 15.8 48.1997 15.8H57.9197C58.2062 15.8 58.4809 15.9138 58.6834 16.1163C58.886 16.3189 58.9997 16.5936 58.9997 16.88C58.9997 17.1664 58.886 17.4411 58.6834 17.6437C58.4809 17.8462 58.2062 17.96 57.9197 17.96H48.1997C48.0579 17.96 47.9174 17.9321 47.7864 17.8779C47.6553 17.8236 47.5363 17.7441 47.436 17.6438C47.3357 17.5435 47.2561 17.4244 47.2019 17.2933C47.1476 17.1623 47.1197 17.0218 47.1197 16.88ZM47.1197 21.2C47.1197 21.0582 47.1476 20.9177 47.2019 20.7867C47.2561 20.6556 47.3357 20.5365 47.436 20.4362C47.5363 20.336 47.6553 20.2564 47.7864 20.2021C47.9174 20.1479 48.0579 20.12 48.1997 20.12H57.9197C58.2062 20.12 58.4809 20.2338 58.6834 20.4363C58.886 20.6389 58.9997 20.9136 58.9997 21.2C58.9997 21.4864 58.886 21.7611 58.6834 21.9637C58.4809 22.1662 58.2062 22.28 57.9197 22.28H48.1997C48.0579 22.28 47.9174 22.2521 47.7864 22.1979C47.6553 22.1436 47.5363 22.0641 47.436 21.9638C47.3357 21.8635 47.2561 21.7444 47.2019 21.6134C47.1476 21.4823 47.1197 21.3418 47.1197 21.2ZM43.8797 16.88C43.8797 16.6664 43.9431 16.4576 44.0617 16.28C44.1804 16.1024 44.3491 15.964 44.5464 15.8822C44.7438 15.8005 44.9609 15.7791 45.1704 15.8208C45.3799 15.8624 45.5724 15.9653 45.7234 16.1163C45.8745 16.2674 45.9773 16.4598 46.019 16.6693C46.0607 16.8788 46.0393 17.096 45.9575 17.2933C45.8758 17.4906 45.7374 17.6593 45.5597 17.778C45.3821 17.8967 45.1733 17.96 44.9597 17.96C44.6733 17.96 44.3986 17.8462 44.1961 17.6437C43.9935 17.4411 43.8797 17.1664 43.8797 16.88ZM43.8797 21.2C43.8797 20.9864 43.9431 20.7776 44.0617 20.6C44.1804 20.4224 44.3491 20.284 44.5464 20.2022C44.7438 20.1205 44.9609 20.0991 45.1704 20.1408C45.3799 20.1824 45.5724 20.2853 45.7234 20.4363C45.8745 20.5874 45.9773 20.7798 46.019 20.9893C46.0607 21.1988 46.0393 21.416 45.9575 21.6133C45.8758 21.8106 45.7374 21.9793 45.5597 22.098C45.3821 22.2167 45.1733 22.28 44.9597 22.28C44.6733 22.28 44.3986 22.1662 44.1961 21.9637C43.9935 21.7611 43.8797 21.4864 43.8797 21.2ZM61.1597 5H7.15972C6.3007 5.00094 5.47714 5.3426 4.86973 5.95001C4.26231 6.55743 3.92065 7.38099 3.91972 8.24V22.3346C3.02119 22.4604 2.19843 22.9068 1.60303 23.5914C1.00763 24.276 0.679721 25.1527 0.679721 26.06C0.679721 26.9673 1.00763 27.844 1.60303 28.5286C2.19843 29.2132 3.02119 29.6596 3.91972 29.7854V34.8522C2.45158 36.2616 1.30768 37.9736 0.567404 39.8693C-0.172874 41.765 -0.491806 43.7991 -0.36726 45.8304C-0.242715 47.8618 0.322326 49.8417 1.28865 51.6328C2.25498 53.4239 3.59945 54.9832 5.22877 56.2027C6.85809 57.4222 8.73323 58.2726 10.7241 58.6948C12.715 59.117 14.7738 59.101 16.7579 58.6479C18.742 58.1947 20.6037 57.3153 22.2138 56.0707C23.824 54.826 25.144 53.2459 26.0824 51.44H61.1597C62.0188 51.4391 62.8423 51.0974 63.4497 50.49C64.0571 49.8826 64.3988 49.059 64.3997 48.2V8.24C64.3988 7.38099 64.0571 6.55743 63.4497 5.95001C62.8423 5.3426 62.0188 5.00094 61.1597 5ZM2.83972 26.06C2.83972 25.7396 2.93473 25.4264 3.11273 25.16C3.29074 24.8936 3.54375 24.6859 3.83977 24.5633C4.13579 24.4407 4.46151 24.4086 4.77576 24.4711C5.09001 24.5336 5.37867 24.6879 5.60523 24.9145C5.83179 25.1411 5.98608 25.4297 6.04859 25.744C6.1111 26.0582 6.07902 26.3839 5.9564 26.68C5.83379 26.976 5.62615 27.229 5.35974 27.407C5.09333 27.585 4.78012 27.68 4.45972 27.68C4.03021 27.6795 3.61843 27.5087 3.31472 27.205C3.01101 26.9013 2.84018 26.4895 2.83972 26.06ZM12.5597 33.1347V44.3145L2.71262 49.6168C1.97765 47.8949 1.6604 46.0235 1.7868 44.1555C1.91319 42.2875 2.47963 40.476 3.43987 38.8687C4.40011 37.2615 5.7269 35.9042 7.31189 34.9076C8.89688 33.9111 10.6951 33.3036 12.5597 33.1347ZM14.7197 33.1347C17.4832 33.3906 20.0701 34.6049 22.0325 36.5673C23.9949 38.5297 25.2092 41.1166 25.465 43.88H14.7197V33.1347ZM13.6397 56.84C11.6787 56.8389 9.74838 56.3522 8.02128 55.4233C6.29417 54.4943 4.82401 53.1522 3.74207 51.5166L13.9128 46.04H25.465C25.193 48.9896 23.83 51.7314 21.6428 53.729C19.4557 55.7265 16.6018 56.8359 13.6397 56.84ZM62.2397 48.2C62.2395 48.4864 62.1256 48.7609 61.9231 48.9634C61.7206 49.1659 61.4461 49.2797 61.1597 49.28H26.9927C27.8887 46.5289 27.9115 43.5679 27.058 40.8033C26.2045 38.0387 24.5164 35.6059 22.2255 33.8387C19.9345 32.0714 17.1528 31.0564 14.2621 30.9327C11.3714 30.8091 8.51322 31.5829 6.07972 33.1481V29.4609C6.72418 29.1558 7.26909 28.6745 7.65135 28.0727C8.03362 27.4708 8.23761 26.773 8.23972 26.06C8.23652 25.4937 8.10459 24.9355 7.8539 24.4278L13.3189 19.5698C13.8249 19.8743 14.3952 20.0561 14.9841 20.1008C15.573 20.1455 16.1642 20.0519 16.7104 19.8273L21.4697 23.5849C21.2398 24.1613 21.1555 24.7854 21.2241 25.4021C21.2927 26.0188 21.5122 26.6092 21.8632 27.1209C22.2141 27.6326 22.6857 28.0501 23.2363 28.3362C23.7869 28.6224 24.3995 28.7686 25.02 28.7618C25.6404 28.755 26.2497 28.5955 26.7939 28.2973C27.3381 27.9991 27.8004 27.5715 28.1401 27.0522C28.4798 26.5329 28.6863 25.9379 28.7414 25.3199C28.7965 24.7018 28.6985 24.0797 28.4561 23.5085L34.6992 18.3511C35.4425 18.8668 36.3466 19.0978 37.2463 19.0019C38.1459 18.906 38.981 18.4896 39.5989 17.8288C40.2168 17.1679 40.5763 16.3068 40.6117 15.4028C40.6471 14.4988 40.356 13.6122 39.7916 12.9051C39.2272 12.198 38.4272 11.7176 37.5379 11.5516C36.6485 11.3857 35.7291 11.5454 34.9477 12.0014C34.1664 12.4574 33.5752 13.1794 33.2822 14.0354C32.9892 14.8913 33.014 15.8242 33.3521 16.6633L27.0829 21.8421C26.4489 21.4196 25.702 21.1985 24.9401 21.2077C24.1783 21.2169 23.437 21.456 22.8133 21.8937L18.4154 18.4215C18.782 17.8707 18.9975 17.2333 19.0404 16.573C19.0834 15.9127 18.9522 15.2528 18.6599 14.6591C18.3677 14.0655 17.9248 13.559 17.3753 13.1903C16.8259 12.8216 16.1893 12.6036 15.5292 12.5582C14.8691 12.5128 14.2087 12.6415 13.6139 12.9314C13.0192 13.2214 12.511 13.6625 12.1402 14.2105C11.7694 14.7585 11.5491 15.3943 11.5011 16.0542C11.4532 16.7141 11.5794 17.3751 11.8671 17.9709L6.3981 22.8322C6.29481 22.7698 6.18914 22.7116 6.07972 22.6592V8.24C6.08 7.95366 6.19388 7.67912 6.39636 7.47664C6.59883 7.27416 6.87337 7.16029 7.15972 7.16H61.1597C61.4461 7.16029 61.7206 7.27416 61.9231 7.47664C62.1256 7.67912 62.2395 7.95366 62.2397 8.24V48.2ZM16.4052 17.4855C16.1787 17.7121 15.89 17.8664 15.5758 17.9289C15.2615 17.9914 14.9358 17.9593 14.6398 17.8367C14.3438 17.7141 14.0908 17.5064 13.9128 17.24C13.7348 16.9736 13.6397 16.6604 13.6397 16.34C13.6397 16.0196 13.7348 15.7064 13.9128 15.44C14.0908 15.1736 14.3438 14.9659 14.6398 14.8433C14.9358 14.7207 15.2615 14.6886 15.5758 14.7511C15.89 14.8136 16.1787 14.9679 16.4052 15.1945C16.7086 15.4985 16.879 15.9105 16.879 16.34C16.879 16.7695 16.7086 17.1815 16.4052 17.4855ZM26.1253 26.1255C25.8987 26.3521 25.61 26.5064 25.2958 26.5689C24.9815 26.6314 24.6558 26.5993 24.3598 26.4767C24.0638 26.3541 23.8108 26.1464 23.6328 25.88C23.4548 25.6136 23.3597 25.3004 23.3597 24.98C23.3597 24.6596 23.4548 24.3464 23.6328 24.08C23.8108 23.8136 24.0638 23.6059 24.3598 23.4833C24.6558 23.3607 24.9815 23.3286 25.2958 23.3911C25.61 23.4536 25.8987 23.6079 26.1253 23.8345C26.4286 24.1385 26.599 24.5505 26.599 24.98C26.599 25.4095 26.4286 25.8215 26.1253 26.1255ZM35.7142 14.1145C35.9408 13.8879 36.2294 13.7336 36.5437 13.6711C36.8579 13.6086 37.1837 13.6407 37.4797 13.7633C37.7757 13.8859 38.0287 14.0936 38.2067 14.36C38.3847 14.6264 38.4797 14.9396 38.4797 15.26C38.4797 15.5804 38.3847 15.8936 38.2067 16.16C38.0287 16.4264 37.7757 16.6341 37.4797 16.7567C37.1837 16.8793 36.8579 16.9114 36.5437 16.8489C36.2294 16.7864 35.9408 16.6321 35.7142 16.4055C35.4108 16.1015 35.2404 15.6895 35.2404 15.26C35.2404 14.8305 35.4108 14.4185 35.7142 14.1145Z" fill="#B0D3F0"/>
</g>
<defs>
<clipPath id="clip0_2619_190">
<rect width="64" height="64" fill="white"/>
</clipPath>
</defs>
</svg>
