<svg width="64" height="64" viewBox="0 0 64 64" fill="none" xmlns="http://www.w3.org/2000/svg">
<g clip-path="url(#clip0_2615_396)">
<path d="M50.212 37.8266C50.212 37.8266 50.1559 37.8266 50.1222 37.8266C50.0885 37.8266 50.0548 37.8266 50.0211 37.8266H37.0527C36.1208 37.8266 35.3685 37.0743 35.3685 36.1424C35.3685 35.2105 36.1208 34.4582 37.0527 34.4582H49.8302H50.0211C50.066 34.4582 50.2232 34.4582 50.2681 34.4694C54.5124 34.4694 58.0155 30.9663 58.0155 26.6659C58.0155 22.3656 54.5124 18.8624 50.212 18.8624C49.9425 18.8624 49.6731 18.8849 49.4148 18.9073C48.5952 18.9972 47.8541 18.4807 47.6183 17.7059C46.6527 14.3937 43.5762 12.0694 40.1292 12.0694C38.9839 12.0694 37.8724 12.3165 36.8394 12.8105C36.3678 13.0351 35.8288 13.0351 35.3573 12.7993C34.8969 12.5635 34.5601 12.1368 34.459 11.6203C33.4934 6.82593 29.2604 3.34523 24.3762 3.34523C18.706 3.34523 14.0913 7.95997 14.0913 13.6301C14.0913 14.6744 14.2485 15.7073 14.5516 16.7179C14.6976 17.2007 14.619 17.7284 14.3383 18.1551C14.0576 18.5817 13.5973 18.8512 13.092 18.8961C9.10604 19.2442 5.98463 22.6575 5.98463 26.6659C5.98463 30.9663 9.48779 34.4694 13.7881 34.4694H26.9474C27.8794 34.4694 28.6316 35.2217 28.6316 36.1537C28.6316 37.0856 27.8794 37.8379 26.9474 37.8379H13.7881C7.62393 37.8379 2.61621 32.8301 2.61621 26.6659C2.61621 21.5796 6.1306 17.167 10.9025 15.8758C10.779 15.1347 10.7229 14.3824 10.7229 13.6414C10.7229 6.10734 16.8534 -0.0119629 24.3762 -0.0119629C30.2036 -0.0119629 35.3348 3.71576 37.2436 9.08277C38.1755 8.82453 39.1411 8.70102 40.1292 8.70102C44.6092 8.70102 48.6625 11.4407 50.4029 15.494C56.4773 15.5951 61.3839 20.5691 61.3839 26.6659C61.3839 32.7628 56.3762 37.8379 50.212 37.8379V37.8266Z" fill="#0284C7"/>
<path d="M14.8214 47.9544H7.99476C7.06283 47.9544 6.31055 47.2021 6.31055 46.2702C6.31055 45.3383 7.06283 44.586 7.99476 44.586H14.8214C15.7534 44.586 16.5056 43.8337 16.5056 42.9018V36.1425C16.5056 35.2105 17.2579 34.4583 18.1898 34.4583C19.1218 34.4583 19.8741 35.2105 19.8741 36.1425V42.9018C19.8741 45.6863 17.606 47.9544 14.8214 47.9544Z" fill="#0284C7"/>
<path d="M4.8393 51.1095C2.16702 51.1095 0 48.9425 0 46.2702C0 43.5979 2.16702 41.4309 4.8393 41.4309C7.51158 41.4309 9.6786 43.5979 9.6786 46.2702C9.6786 48.9425 7.51158 51.1095 4.8393 51.1095ZM4.8393 44.8106C4.03088 44.8106 3.36842 45.473 3.36842 46.2814C3.36842 47.0899 4.03088 47.7523 4.8393 47.7523C5.64772 47.7523 6.31018 47.0899 6.31018 46.2814C6.31018 45.473 5.64772 44.8106 4.8393 44.8106Z" fill="#0284C7"/>
<path d="M21.6364 56.5663H17.0778C16.1458 56.5663 15.3936 55.814 15.3936 54.8821C15.3936 53.9502 16.1458 53.1979 17.0778 53.1979H21.6364C22.5683 53.1979 23.3206 52.4456 23.3206 51.5137V36.1537C23.3206 35.2218 24.0729 34.4695 25.0048 34.4695C25.9367 34.4695 26.689 35.2218 26.689 36.1537V51.5137C26.689 54.2983 24.4209 56.5663 21.6364 56.5663Z" fill="#0284C7"/>
<path d="M13.9116 59.7216C11.2393 59.7216 9.07227 57.5545 9.07227 54.8823C9.07227 52.21 11.2393 50.043 13.9116 50.043C16.5838 50.043 18.7509 52.21 18.7509 54.8823C18.7509 57.5545 16.5838 59.7216 13.9116 59.7216ZM13.9116 53.4114C13.1031 53.4114 12.4407 54.0738 12.4407 54.8823C12.4407 55.6907 13.1031 56.3531 13.9116 56.3531C14.72 56.3531 15.3824 55.6907 15.3824 54.8823C15.3824 54.0738 14.72 53.4114 13.9116 53.4114Z" fill="#0284C7"/>
<path d="M31.9999 64.0216C29.3277 64.0216 27.1606 61.8546 27.1606 59.1823C27.1606 56.51 29.3277 54.343 31.9999 54.343C34.6722 54.343 36.8392 56.51 36.8392 59.1823C36.8392 61.8546 34.6722 64.0216 31.9999 64.0216ZM31.9999 57.7114C31.1915 57.7114 30.5291 58.3739 30.5291 59.1823C30.5291 59.9907 31.1915 60.6532 31.9999 60.6532C32.8084 60.6532 33.4708 59.9907 33.4708 59.1823C33.4708 58.3739 32.8084 57.7114 31.9999 57.7114Z" fill="#0284C7"/>
<path d="M56.0053 47.9544H49.1786C46.394 47.9544 44.126 45.6863 44.126 42.9018V36.1425C44.126 35.2105 44.8783 34.4583 45.8102 34.4583C46.7421 34.4583 47.4944 35.2105 47.4944 36.1425V42.9018C47.4944 43.8337 48.2467 44.586 49.1786 44.586H56.0053C56.9372 44.586 57.6895 45.3383 57.6895 46.2702C57.6895 47.2021 56.9372 47.9544 56.0053 47.9544Z" fill="#0284C7"/>
<path d="M59.1606 51.1095C56.4883 51.1095 54.3213 48.9425 54.3213 46.2702C54.3213 43.5979 56.4883 41.4309 59.1606 41.4309C61.8329 41.4309 63.9999 43.5979 63.9999 46.2702C63.9999 48.9425 61.8329 51.1095 59.1606 51.1095ZM59.1606 44.8106C58.3522 44.8106 57.6897 45.473 57.6897 46.2814C57.6897 47.0899 58.3522 47.7523 59.1606 47.7523C59.969 47.7523 60.6315 47.0899 60.6315 46.2814C60.6315 45.473 59.969 44.8106 59.1606 44.8106Z" fill="#0284C7"/>
<path d="M46.9335 56.5663H42.3749C39.5903 56.5663 37.3223 54.2983 37.3223 51.5137V36.1537C37.3223 35.2218 38.0745 34.4695 39.0065 34.4695C39.9384 34.4695 40.6907 35.2218 40.6907 36.1537V51.5137C40.6907 52.4456 41.443 53.1979 42.3749 53.1979H46.9335C47.8654 53.1979 48.6177 53.9502 48.6177 54.8821C48.6177 55.814 47.8654 56.5663 46.9335 56.5663Z" fill="#0284C7"/>
<path d="M50.0888 59.7216C47.4165 59.7216 45.2495 57.5545 45.2495 54.8823C45.2495 52.21 47.4165 50.043 50.0888 50.043C52.7611 50.043 54.9281 52.21 54.9281 54.8823C54.9281 57.5545 52.7611 59.7216 50.0888 59.7216ZM50.0888 53.4114C49.2804 53.4114 48.6179 54.0738 48.6179 54.8823C48.6179 55.6907 49.2804 56.3531 50.0888 56.3531C50.8972 56.3531 51.5597 55.6907 51.5597 54.8823C51.5597 54.0738 50.8972 53.4114 50.0888 53.4114Z" fill="#0284C7"/>
<path d="M32.0001 51.1095C31.0682 51.1095 30.3159 50.3572 30.3159 49.4253V36.1425C30.3159 35.2105 31.0682 34.4583 32.0001 34.4583C32.9321 34.4583 33.6843 35.2105 33.6843 36.1425V49.4253C33.6843 50.3572 32.9321 51.1095 32.0001 51.1095Z" fill="#0284C7"/>
<path d="M27.1943 31.1237C26.5992 31.1237 26.0154 30.8093 25.7122 30.2479L21.4119 22.3546L17.1115 30.2479C16.6624 31.0676 15.6406 31.3707 14.8322 30.9216C14.0126 30.4725 13.7094 29.4507 14.1585 28.6423L19.941 18.0318C20.2329 17.4928 20.8056 17.156 21.4231 17.156C22.0406 17.156 22.602 17.4928 22.9052 18.0318L28.6877 28.6423C29.1368 29.462 28.8336 30.4837 28.014 30.9216C27.7557 31.0564 27.4863 31.1237 27.2056 31.1237H27.1943Z" fill="#0284C7"/>
<path d="M25.2856 27.6318H17.5382C16.6063 27.6318 15.854 26.8796 15.854 25.9476C15.854 25.0157 16.6063 24.2634 17.5382 24.2634H25.2856C26.2175 24.2634 26.9698 25.0157 26.9698 25.9476C26.9698 26.8796 26.2175 27.6318 25.2856 27.6318Z" fill="#0284C7"/>
<path d="M32.2467 31.1237C31.3148 31.1237 30.5625 30.3714 30.5625 29.4395V18.829C30.5625 17.8971 31.3148 17.1448 32.2467 17.1448C33.1786 17.1448 33.9309 17.8971 33.9309 18.829V29.4395C33.9309 30.3714 33.1786 31.1237 32.2467 31.1237Z" fill="#0284C7"/>
<path d="M35.4804 26.0599H32.2467C31.3148 26.0599 30.5625 25.3076 30.5625 24.3757C30.5625 23.4437 31.3148 22.6914 32.2467 22.6914H35.4804C36.0755 22.6914 36.5695 22.2086 36.5695 21.6023C36.5695 20.996 36.0867 20.5132 35.4804 20.5132H32.2467C31.3148 20.5132 30.5625 19.7609 30.5625 18.829C30.5625 17.8971 31.3148 17.1448 32.2467 17.1448H35.4804C37.9393 17.1448 39.9379 19.1434 39.9379 21.6023C39.9379 24.0613 37.9393 26.0599 35.4804 26.0599Z" fill="#0284C7"/>
<path d="M43.7448 31.1237C42.8128 31.1237 42.0605 30.3714 42.0605 29.4395V18.829C42.0605 17.8971 42.8128 17.1448 43.7448 17.1448C44.6767 17.1448 45.429 17.8971 45.429 18.829V29.4395C45.429 30.3714 44.6767 31.1237 43.7448 31.1237Z" fill="#0284C7"/>
</g>
<defs>
<clipPath id="clip0_2615_396">
<rect width="64" height="64" fill="white"/>
</clipPath>
</defs>
</svg>
