<svg width="64" height="64" viewBox="0 0 64 64" fill="none" xmlns="http://www.w3.org/2000/svg">
<g clip-path="url(#clip0_2598_228)">
<path fill-rule="evenodd" clip-rule="evenodd" d="M26.9855 36.8846L23.043 32.942L10.1436 45.8417C9.86218 45.4963 9.54634 45.1805 9.20095 44.8991L22.1004 31.9993L9.20095 19.0996C9.54634 18.8182 9.86218 18.5024 10.1436 18.157L23.043 31.0567L26.9855 27.1141C27.2669 27.4595 27.5828 27.7753 27.9282 28.0567L23.9857 31.9993L27.9282 35.9419C27.5828 36.2233 27.2669 36.5392 26.9855 36.8846ZM5.12912 44.7871C4.11483 44.7868 3.12324 45.0874 2.27977 45.6507C1.43631 46.2141 0.778862 47.0149 0.390587 47.952C0.00231183 48.889 -0.0993478 49.9202 0.0984664 50.915C0.296281 51.9099 0.784682 52.8237 1.5019 53.5409C2.21911 54.2582 3.13292 54.7466 4.12773 54.9444C5.12255 55.1422 6.15369 55.0405 7.09072 54.6523C8.02776 54.264 8.82859 53.6065 9.39194 52.763C9.95529 51.9195 10.2558 50.9279 10.2556 49.9136C10.2556 48.554 9.71547 47.25 8.75407 46.2886C7.79267 45.3272 6.48874 44.7871 5.12912 44.7871ZM32 1.73417e-07C33.0142 -0.000263544 34.0058 0.300258 34.8492 0.863558C35.6926 1.42686 36.3501 2.22763 36.7384 3.16461C37.1267 4.10159 37.2285 5.13268 37.0307 6.12748C36.833 7.12228 36.3448 8.03611 35.6277 8.75339C34.9106 9.47067 33.9969 9.95919 33.0022 10.1572C32.0075 10.3551 30.9764 10.2537 30.0393 9.86558C29.1023 9.4775 28.3013 8.82024 27.7378 7.97694C27.1743 7.13363 26.8735 6.14215 26.8735 5.12789C26.8735 3.76812 27.4136 2.46402 28.375 1.5024C29.3363 0.540768 30.6403 0.000353728 32 1.73417e-07ZM58.8709 26.8714C59.8851 26.8712 60.8766 27.1717 61.7201 27.735C62.5635 28.2983 63.221 29.0991 63.6093 30.036C63.9976 30.973 64.0993 32.0041 63.9016 32.9989C63.7039 33.9937 63.2157 34.9075 62.4986 35.6248C61.7815 36.3421 60.8678 36.8306 59.8731 37.0286C58.8784 37.2266 57.8473 37.1251 56.9102 36.737C55.9731 36.3489 55.1722 35.6917 54.6087 34.8484C54.0452 34.0051 53.7444 33.0136 53.7444 31.9993C53.7444 30.6396 54.2845 29.3355 55.2458 28.3738C56.2072 27.4122 57.5111 26.8718 58.8709 26.8714ZM32 53.7442C33.0143 53.7439 34.0059 54.0445 34.8493 54.6079C35.6928 55.1712 36.3503 55.9721 36.7385 56.9091C37.1268 57.8462 37.2285 58.8773 37.0307 59.8722C36.8328 60.867 36.3444 61.7808 35.6272 62.4981C34.91 63.2153 33.9962 63.7037 33.0014 63.9015C32.0066 64.0994 30.9754 63.9977 30.0384 63.6094C29.1014 63.2211 28.3005 62.5637 27.7372 61.7202C27.1738 60.8767 26.8733 59.8851 26.8735 58.8708C26.8739 57.5112 27.4141 56.2075 28.3754 55.2461C29.3368 54.2848 30.6405 53.7446 32 53.7442ZM32 35.8299C30.9858 35.8299 29.9943 36.1307 29.151 36.6942C28.3077 37.2577 27.6505 38.0587 27.2624 38.9958C26.8743 39.9328 26.7729 40.964 26.9708 41.9587C27.1688 42.9535 27.6573 43.8672 28.3746 44.5843C29.0918 45.3013 30.0057 45.7896 31.0004 45.9873C31.9952 46.185 33.0263 46.0833 33.9632 45.695C34.9002 45.3067 35.701 44.6492 36.2642 43.8057C36.8275 42.9623 37.128 41.9707 37.1278 40.9565C37.128 40.2831 36.9954 39.6163 36.7378 38.9941C36.4801 38.372 36.1024 37.8067 35.6262 37.3306C35.15 36.8545 34.5846 36.4769 33.9624 36.2194C33.3402 35.9619 32.6734 35.8296 32 35.8299ZM32 17.9143C30.9858 17.9143 29.9944 18.215 29.1512 18.7785C28.3079 19.342 27.6507 20.1428 27.2625 21.0798C26.8744 22.0168 26.7729 23.0479 26.9707 24.0426C27.1686 25.0373 27.657 25.951 28.3741 26.6682C29.0912 27.3853 30.0049 27.8737 30.9996 28.0715C31.9943 28.2694 33.0253 28.1679 33.9623 27.7797C34.8993 27.3916 35.7002 26.7344 36.2636 25.8911C36.827 25.0478 37.1278 24.0564 37.1278 23.0422C37.128 22.3687 36.9954 21.7018 36.7378 21.0796C36.4802 20.4574 36.1025 19.892 35.6263 19.4158C35.1501 18.9396 34.5847 18.5619 33.9625 18.3043C33.3403 18.0466 32.6734 17.9141 32 17.9143ZM5.12912 8.95715C4.11488 8.95688 3.12335 9.2574 2.27991 9.8207C1.43648 10.384 0.779029 11.1848 0.390714 12.1218C0.00240004 13.0587 -0.0993374 14.0898 0.0983688 15.0846C0.296075 16.0794 0.784344 16.9933 1.50142 17.7105C2.21851 18.4278 3.13219 18.9163 4.12692 19.1143C5.12165 19.3123 6.15274 19.2108 7.0898 18.8227C8.02686 18.4346 8.82779 17.7774 9.39129 16.9341C9.9548 16.0908 10.2556 15.0993 10.2556 14.085C10.2556 12.7253 9.71551 11.4212 8.75415 10.4595C7.79279 9.49792 6.48886 8.9575 5.12912 8.95715ZM11.0169 47.2523C11.1991 47.6565 11.3394 48.0782 11.4355 48.511L26.1122 43.6191C25.929 43.2148 25.7883 42.7925 25.6923 42.3591L11.0169 47.2523ZM11.4355 51.3163L26.1122 56.2095C25.9292 56.6134 25.7885 57.0352 25.6923 57.4681L11.0169 52.5762C11.1991 52.1716 11.3393 51.7494 11.4355 51.3163ZM31.3334 52.4456V47.379C31.7766 47.4252 32.2234 47.4252 32.6666 47.379V52.4456C32.2234 52.3994 31.7766 52.3994 31.3334 52.4456ZM31.3334 34.5326V29.4661C31.7767 29.5105 32.2233 29.5105 32.6666 29.4661V34.5326C32.2233 34.4882 31.7767 34.4882 31.3334 34.5326ZM31.3334 16.6183V11.5518C31.7766 11.598 32.2234 11.598 32.6666 11.5518V16.6183C32.2234 16.5721 31.7766 16.5721 31.3334 16.6183ZM26.1122 7.79184L11.4355 12.6851C11.3393 12.2519 11.1991 11.8297 11.0169 11.4251L25.6923 6.5332C25.7885 6.9661 25.9292 7.3879 26.1122 7.79184ZM11.4355 15.4877C11.3394 15.9204 11.1991 16.3422 11.0169 16.7463L25.6923 21.6395C25.7883 21.2062 25.929 20.7839 26.1122 20.3796L11.4355 15.4877ZM5.79576 20.5116V43.4871C5.57577 43.4658 5.35311 43.4538 5.12912 43.4538C4.90513 43.4538 4.68114 43.4658 4.46248 43.4871V20.5116C4.68114 20.5329 4.9038 20.5449 5.12912 20.5449C5.35445 20.5449 5.57577 20.5329 5.79576 20.5116ZM38.3077 24.4448L52.9831 29.3327C52.8009 29.7373 52.6606 30.1595 52.5645 30.5927L37.8878 25.7048C38.071 25.3005 38.2117 24.8782 38.3077 24.4448ZM52.9831 34.6659L38.3077 39.5538C38.2117 39.1205 38.071 38.6982 37.8878 38.2939L52.5645 33.402C52.6604 33.8365 52.8007 34.2601 52.9831 34.6659Z" fill="#B0D3F0"/>
</g>
<defs>
<clipPath id="clip0_2598_228">
<rect width="64" height="64" fill="white"/>
</clipPath>
</defs>
</svg>
