<svg width="64" height="64" viewBox="0 0 64 64" fill="none" xmlns="http://www.w3.org/2000/svg">
<g clip-path="url(#clip0_2601_65)">
<path d="M38 24.5H31.5V18C31.5 17.1719 30.8281 16.5 30 16.5H10C9.17187 16.5 8.5 17.1719 8.5 18V42C8.5 42.8281 9.17188 43.5 10 43.5H14C14.8281 43.5 15.5 42.8281 15.5 42C15.5 41.1719 14.8281 40.5 14 40.5H11.5V27.5H14C14.8281 27.5 15.5 26.8281 15.5 26C15.5 25.1719 14.8281 24.5 14 24.5H11.5V19.5H28.5V24.5H26H20C19.1719 24.5 18.5 25.1719 18.5 26C18.5 26.8281 19.1719 27.5 20 27.5H24.5V30C24.5 30.8281 25.1719 31.5 26 31.5C26.8281 31.5 27.5 30.8281 27.5 30V27.5H36.5V40.5H27.5V36C27.5 35.1719 26.8281 34.5 26 34.5C25.1719 34.5 24.5 35.1719 24.5 36V40.5H20C19.1719 40.5 18.5 41.1719 18.5 42C18.5 42.8281 19.1719 43.5 20 43.5H38C38.8281 43.5 39.5 42.8281 39.5 42V26C39.5 25.1719 38.8281 24.5 38 24.5Z" fill="#0284C7"/>
<path d="M58 8.5H55.5V4C55.5 2.07031 53.9297 0.5 52 0.5H48C46.0703 0.5 44.5 2.07031 44.5 4V8.5H6C2.9668 8.5 0.5 10.9668 0.5 14V46C0.5 49.0332 2.9668 51.5 6 51.5H26.5V60.5H18C17.1719 60.5 16.5 61.1719 16.5 62C16.5 62.8281 17.1719 63.5 18 63.5H46C46.8281 63.5 47.5 62.8281 47.5 62C47.5 61.1719 46.8281 60.5 46 60.5H37.5V51.5H58C61.0332 51.5 63.5 49.0332 63.5 46V14C63.5 10.9668 61.0332 8.5 58 8.5ZM47.5 4C47.5 3.72461 47.7246 3.5 48 3.5H52C52.2754 3.5 52.5 3.72461 52.5 4V29.7559L50 37.2559L47.5 29.7559V4ZM34.5 60.5H29.5V51.5H34.5V60.5ZM60.5 46C60.5 47.3789 59.3789 48.5 58 48.5H6C4.62109 48.5 3.5 47.3789 3.5 46V14C3.5 12.6211 4.62109 11.5 6 11.5H44.5V30C44.5 30.1621 44.5254 30.3223 44.5762 30.4746L48.5762 42.4746C48.7812 43.0859 49.3535 43.5 50 43.5C50.6465 43.5 51.2188 43.0859 51.4238 42.4746L55.4238 30.4746C55.4746 30.3223 55.5 30.1621 55.5 30V11.5H58C59.3789 11.5 60.5 12.6211 60.5 14V46Z" fill="#0284C7"/>
</g>
<defs>
<clipPath id="clip0_2601_65">
<rect width="64" height="64" fill="white"/>
</clipPath>
</defs>
</svg>
