<svg width="64" height="64" viewBox="0 0 64 64" fill="none" xmlns="http://www.w3.org/2000/svg">
<path d="M3 42.0001H11V44.0001H8V46.0001H16V44.0001H13V42.0001H21C21.5304 42.0001 22.0391 41.7893 22.4142 41.4143C22.7893 41.0392 23 40.5305 23 40.0001V26.0001C23 25.4696 22.7893 24.9609 22.4142 24.5858C22.0391 24.2108 21.5304 24.0001 21 24.0001H18.7C18.814 23.8461 18.8987 23.6726 18.95 23.4881C19.0045 23.2869 19.0173 23.0767 18.9877 22.8703C18.9582 22.664 18.8868 22.4659 18.778 22.2881L17.812 20.6881C17.5946 20.3324 17.2479 20.0746 16.8447 19.9689C16.4414 19.8632 16.0129 19.9177 15.649 20.1211L15.503 20.2011C15.2085 20.0007 14.897 19.8267 14.572 19.6811V19.5811C14.5707 19.3718 14.5281 19.1648 14.4467 18.972C14.3653 18.7792 14.2466 18.6044 14.0975 18.4576C13.9484 18.3107 13.7718 18.1947 13.5778 18.1162C13.3838 18.0377 13.1763 17.9982 12.967 18.0001H11.033C10.6121 17.9977 10.2073 18.1622 9.90746 18.4576C9.60757 18.7529 9.43696 19.1551 9.433 19.5761V19.6761C9.10799 19.8217 8.79646 19.9957 8.502 20.1961L8.356 20.1151C7.99179 19.9109 7.56252 19.8563 7.15878 19.9626C6.75504 20.069 6.4084 20.328 6.192 20.6851L5.228 22.2851C5.11832 22.4636 5.04639 22.6627 5.01664 22.8702C4.98688 23.0776 4.99994 23.2889 5.055 23.4911C5.10509 23.6742 5.18812 23.8467 5.3 24.0001H3C2.46957 24.0001 1.96086 24.2108 1.58579 24.5858C1.21071 24.9609 1 25.4696 1 26.0001V40.0001C1 40.5305 1.21071 41.0392 1.58579 41.4143C1.96086 41.7893 2.46957 42.0001 3 42.0001ZM7.9 25.0001C7.90037 24.8281 7.91274 24.6563 7.937 24.4861C7.97816 24.1798 7.92754 23.8682 7.79155 23.5906C7.65555 23.3131 7.44029 23.0822 7.173 22.9271L7.707 22.0411L7.741 22.0601C8.01612 22.2079 8.32755 22.2747 8.63911 22.2526C8.95067 22.2304 9.24955 22.1203 9.501 21.9351C9.78189 21.731 10.0873 21.563 10.41 21.4351C10.7026 21.323 10.9555 21.127 11.1372 20.8717C11.3188 20.6164 11.421 20.3132 11.431 20.0001H12.569C12.5801 20.3126 12.6829 20.6149 12.8647 20.8694C13.0464 21.1238 13.299 21.3192 13.591 21.4311C13.9135 21.5588 14.2186 21.7268 14.499 21.9311C14.7506 22.1166 15.0497 22.2268 15.3615 22.2487C15.6733 22.2707 15.9849 22.2035 16.26 22.0551L16.293 22.0371L16.827 22.9231C16.5606 23.0775 16.3459 23.3072 16.2098 23.5834C16.0737 23.8595 16.0222 24.1698 16.062 24.4751C16.112 24.8183 16.112 25.1669 16.062 25.5101C16.0208 25.8164 16.0715 26.128 16.2075 26.4055C16.3434 26.683 16.5587 26.9139 16.826 27.0691L16.292 27.9551L16.258 27.9361C15.9831 27.7875 15.6715 27.7203 15.3598 27.7424C15.0481 27.7646 14.7491 27.8751 14.498 28.0611C14.2171 28.2651 13.9117 28.4331 13.589 28.5611C13.296 28.6736 13.0428 28.8702 12.8613 29.1263C12.6798 29.3823 12.5781 29.6863 12.569 30.0001H11.431C11.4199 29.6876 11.3171 29.3852 11.1353 29.1308C10.9536 28.8763 10.701 28.681 10.409 28.5691C10.0865 28.4413 9.78141 28.2733 9.501 28.0691C9.24945 27.8835 8.95031 27.7733 8.6385 27.7514C8.3267 27.7294 8.01507 27.7966 7.74 27.9451L7.707 27.9631L7.173 27.0771C7.43944 26.9228 7.65421 26.6931 7.79018 26.4168C7.92616 26.1406 7.97725 25.8303 7.937 25.5251C7.91281 25.3511 7.90045 25.1757 7.9 25.0001ZM3 26.0001H5.3C5.18602 26.154 5.10128 26.3275 5.05 26.5121C4.99553 26.7133 4.98268 26.9235 5.01226 27.1298C5.04183 27.3361 5.1132 27.5343 5.222 27.7121L6.188 29.3121C6.40522 29.668 6.75189 29.9258 7.15521 30.0316C7.55853 30.1373 7.98713 30.0826 8.351 29.8791L8.497 29.7991C8.79146 29.9994 9.10299 30.1734 9.428 30.3191V30.4191C9.42931 30.6283 9.47189 30.8353 9.55331 31.0281C9.63472 31.2209 9.75338 31.3957 9.90247 31.5426C10.0516 31.6894 10.2282 31.8054 10.4222 31.8839C10.6162 31.9624 10.8237 32.0019 11.033 32.0001H12.967C13.3879 32.0025 13.7927 31.838 14.0925 31.5426C14.3924 31.2472 14.563 30.845 14.567 30.4241V30.3241C14.892 30.1784 15.2035 30.0044 15.498 29.8041L15.644 29.8851C16.0084 30.0884 16.4374 30.1427 16.8409 30.0364C17.2444 29.9301 17.5911 29.6715 17.808 29.3151L18.772 27.7151C18.8817 27.5365 18.9536 27.3374 18.9834 27.13C19.0131 26.9226 19.0001 26.7112 18.945 26.5091C18.8949 26.3259 18.8119 26.1535 18.7 26.0001H21V36.0001H3V26.0001ZM3 38.0001H21V40.0001H3V38.0001Z" fill="#B0D3F0"/>
<path d="M12 28C12.5933 28 13.1734 27.8241 13.6667 27.4944C14.1601 27.1648 14.5446 26.6962 14.7716 26.1481C14.9987 25.5999 15.0581 24.9967 14.9424 24.4147C14.8266 23.8328 14.5409 23.2982 14.1213 22.8787C13.7018 22.4591 13.1672 22.1734 12.5853 22.0576C12.0033 21.9419 11.4001 22.0013 10.8519 22.2284C10.3038 22.4554 9.83524 22.8399 9.50559 23.3333C9.17595 23.8266 9 24.4067 9 25C9 25.7957 9.31607 26.5587 9.87868 27.1213C10.4413 27.6839 11.2044 28 12 28ZM12 24C12.1978 24 12.3911 24.0586 12.5556 24.1685C12.72 24.2784 12.8482 24.4346 12.9239 24.6173C12.9996 24.8 13.0194 25.0011 12.9808 25.1951C12.9422 25.3891 12.847 25.5673 12.7071 25.7071C12.5673 25.847 12.3891 25.9422 12.1951 25.9808C12.0011 26.0194 11.8 25.9996 11.6173 25.9239C11.4346 25.8482 11.2784 25.72 11.1685 25.5556C11.0586 25.3911 11 25.1978 11 25C11 24.7348 11.1054 24.4804 11.2929 24.2929C11.4804 24.1054 11.7348 24 12 24Z" fill="#B0D3F0"/>
<path d="M61 1H45C44.4696 1 43.9609 1.21071 43.5858 1.58579C43.2107 1.96086 43 2.46957 43 3V15C43 15.5304 43.2107 16.0391 43.5858 16.4142C43.9609 16.7893 44.4696 17 45 17H61C61.5304 17 62.0391 16.7893 62.4142 16.4142C62.7893 16.0391 63 15.5304 63 15V3C63 2.46957 62.7893 1.96086 62.4142 1.58579C62.0391 1.21071 61.5304 1 61 1ZM45 15V3H61V15H45Z" fill="#B0D3F0"/>
<path d="M32 9V31H26V33H32V55C32 55.2652 32.1054 55.5196 32.2929 55.7071C32.4804 55.8946 32.7348 56 33 56H40V54H34V33H40V31H34V10H40V8H33C32.7348 8 32.4804 8.10536 32.2929 8.29289C32.1054 8.48043 32 8.73478 32 9Z" fill="#B0D3F0"/>
<path d="M51.2319 10.2681L49.8179 8.85412L48.3999 10.2681L50.5209 12.3891C50.7084 12.5766 50.9627 12.6819 51.2279 12.6819C51.4931 12.6819 51.7474 12.5766 51.9349 12.3891L57.5999 6.73212L56.1819 5.31812L51.2319 10.2681Z" fill="#B0D3F0"/>
<path d="M61 24H45C44.4696 24 43.9609 24.2107 43.5858 24.5858C43.2107 24.9609 43 25.4696 43 26V38C43 38.5304 43.2107 39.0391 43.5858 39.4142C43.9609 39.7893 44.4696 40 45 40H61C61.5304 40 62.0391 39.7893 62.4142 39.4142C62.7893 39.0391 63 38.5304 63 38V26C63 25.4696 62.7893 24.9609 62.4142 24.5858C62.0391 24.2107 61.5304 24 61 24ZM45 38V26H61V38H45Z" fill="#B0D3F0"/>
<path d="M51.2319 33.2681L49.8179 31.8541L48.3999 33.2681L50.5209 35.3891C50.7084 35.5766 50.9627 35.6819 51.2279 35.6819C51.4931 35.6819 51.7474 35.5766 51.9349 35.3891L57.5999 29.7321L56.1859 28.3181L51.2319 33.2681Z" fill="#B0D3F0"/>
<path d="M61 47H45C44.4696 47 43.9609 47.2107 43.5858 47.5858C43.2107 47.9609 43 48.4696 43 49V61C43 61.5304 43.2107 62.0391 43.5858 62.4142C43.9609 62.7893 44.4696 63 45 63H61C61.5304 63 62.0391 62.7893 62.4142 62.4142C62.7893 62.0391 63 61.5304 63 61V49C63 48.4696 62.7893 47.9609 62.4142 47.5858C62.0391 47.2107 61.5304 47 61 47ZM45 61V49H61V61H45Z" fill="#B0D3F0"/>
<path d="M51.2319 56.2681L49.8179 54.8541L48.3999 56.2681L50.5209 58.3891C50.7084 58.5766 50.9627 58.6819 51.2279 58.6819C51.4931 58.6819 51.7474 58.5766 51.9349 58.3891L57.5999 52.7321L56.1859 51.3181L51.2319 56.2681Z" fill="#B0D3F0"/>
</svg>
