<svg width="64" height="64" viewBox="0 0 64 64" fill="none" xmlns="http://www.w3.org/2000/svg">
<path d="M57.6002 29.7999H36.1517C33.9557 29.7999 32.1694 28.0136 32.1694 25.8177V10.469C32.1694 8.27313 33.9557 6.48682 36.1517 6.48682H57.6002C59.7961 6.48682 61.5824 8.27313 61.5824 10.469V25.8177C61.5824 28.0136 59.7961 29.7999 57.6002 29.7999ZM36.1517 8.76237C35.2101 8.76237 34.445 9.52753 34.445 10.469V25.8177C34.445 26.7592 35.2101 27.5243 36.1517 27.5243H57.6002C58.5417 27.5243 59.3069 26.7592 59.3069 25.8177V10.469C59.3069 9.52753 58.5417 8.76237 57.6002 8.76237H36.1517Z" fill="#B0D3F0"/>
<path d="M60.4448 17.6442H48.9532C48.3246 17.6442 47.8154 17.1351 47.8154 16.5064C47.8154 15.8778 48.3246 15.3687 48.9532 15.3687H60.4448C61.0734 15.3687 61.5825 15.8778 61.5825 16.5064C61.5825 17.1351 61.0734 17.6442 60.4448 17.6442Z" fill="#B0D3F0"/>
<path d="M44.7988 17.6442H33.3072C32.6786 17.6442 32.1694 17.1351 32.1694 16.5064C32.1694 15.8778 32.6786 15.3687 33.3072 15.3687H44.7988C45.4274 15.3687 45.9365 15.8778 45.9365 16.5064C45.9365 17.1351 45.426 17.6442 44.7988 17.6442Z" fill="#B0D3F0"/>
<path d="M48.9532 19.7209H44.7989C44.1703 19.7209 43.6611 19.2117 43.6611 18.5831V14.4288C43.6611 13.8002 44.1703 13.291 44.7989 13.291H48.9532C49.5818 13.291 50.091 13.8002 50.091 14.4288V18.5831C50.091 19.2117 49.5818 19.7209 48.9532 19.7209ZM45.9367 17.4453H47.8154V15.5666H45.9367V17.4453Z" fill="#B0D3F0"/>
<path d="M51.6297 8.76108C51.001 8.76108 50.4919 8.25192 50.4919 7.6233V5.66064C50.4919 5.1273 50.0581 4.69352 49.5248 4.69352H44.2256C43.6922 4.69352 43.2585 5.1273 43.2585 5.66064V7.6233C43.2585 8.25192 42.7493 8.76108 42.1207 8.76108C41.4921 8.76108 40.9829 8.25192 40.9829 7.6233V5.66064C40.9829 3.8729 42.4378 2.41797 44.2256 2.41797H49.5248C51.3125 2.41797 52.7674 3.8729 52.7674 5.66064V7.6233C52.7674 8.25192 52.2583 8.76108 51.6297 8.76108Z" fill="#B0D3F0"/>
<path d="M27.8487 61.5821H6.40019C4.20428 61.5821 2.41797 59.7958 2.41797 57.5999V42.2513C2.41797 40.0554 4.20428 38.269 6.40019 38.269H27.8487C30.0446 38.269 31.8309 40.0554 31.8309 42.2513V57.5999C31.8309 59.7958 30.0446 61.5821 27.8487 61.5821ZM6.40019 40.5446C5.45868 40.5446 4.69352 41.3098 4.69352 42.2513V57.5999C4.69352 58.5414 5.45868 59.3066 6.40019 59.3066H27.8487C28.7902 59.3066 29.5554 58.5414 29.5554 57.5999V42.2513C29.5554 41.3098 28.7902 40.5446 27.8487 40.5446H6.40019Z" fill="#B0D3F0"/>
<path d="M30.6933 49.4269H19.2017C18.5731 49.4269 18.064 48.9178 18.064 48.2891C18.064 47.6605 18.5731 47.1514 19.2017 47.1514H30.6933C31.3219 47.1514 31.8311 47.6605 31.8311 48.2891C31.8311 48.9178 31.3219 49.4269 30.6933 49.4269Z" fill="#B0D3F0"/>
<path d="M15.0473 49.4269H3.55575C2.92712 49.4269 2.41797 48.9178 2.41797 48.2891C2.41797 47.6605 2.92712 47.1514 3.55575 47.1514H15.0473C15.6759 47.1514 16.1851 47.6605 16.1851 48.2891C16.1851 48.9178 15.6759 49.4269 15.0473 49.4269Z" fill="#B0D3F0"/>
<path d="M19.2018 51.5046H15.0474C14.4188 51.5046 13.9097 50.9954 13.9097 50.3668V46.2125C13.9097 45.5839 14.4188 45.0747 15.0474 45.0747H19.2018C19.8304 45.0747 20.3395 45.5839 20.3395 46.2125V50.3668C20.3395 50.994 19.8304 51.5046 19.2018 51.5046ZM16.1852 49.229H18.064V47.3503H16.1852V49.229Z" fill="#B0D3F0"/>
<path d="M21.8797 40.5433C21.251 40.5433 20.7419 40.0342 20.7419 39.4055V37.4429C20.7419 36.9095 20.3081 36.4758 19.7748 36.4758H14.4756C13.9422 36.4758 13.5085 36.9095 13.5085 37.4429V39.4055C13.5085 40.0342 12.9993 40.5433 12.3707 40.5433C11.7421 40.5433 11.2329 40.0342 11.2329 39.4055V37.4429C11.2329 35.6551 12.6878 34.2002 14.4756 34.2002H19.7748C21.5625 34.2002 23.0174 35.6551 23.0174 37.4429V39.4055C23.0174 40.0342 22.5083 40.5433 21.8797 40.5433Z" fill="#B0D3F0"/>
<path d="M16.8165 29.9577C16.1879 29.9577 15.6787 29.4486 15.6787 28.82V19.9183C15.6787 18.0736 17.1792 16.5718 19.0252 16.5718H26.9612C27.5898 16.5718 28.099 17.0809 28.099 17.7096C28.099 18.3382 27.5898 18.8473 26.9612 18.8473H19.0252C18.435 18.8473 17.9543 19.328 17.9543 19.9183V28.82C17.9543 29.4472 17.4437 29.9577 16.8165 29.9577Z" fill="#B0D3F0"/>
<path d="M16.8166 29.9578C16.4937 29.9578 16.1851 29.8199 15.9689 29.5795L12.3067 25.4963C11.8871 25.0284 11.9255 24.3088 12.3935 23.8892C12.8614 23.4697 13.581 23.5081 14.0006 23.976L16.8151 27.1148L19.6297 23.976C20.0493 23.5081 20.7689 23.4697 21.2368 23.8892C21.7047 24.3088 21.7431 25.0284 21.3236 25.4963L17.6614 29.5795C17.448 29.8199 17.1394 29.9578 16.8166 29.9578Z" fill="#B0D3F0"/>
<path d="M44.9751 47.4284H37.0391C36.4105 47.4284 35.9014 46.9193 35.9014 46.2907C35.9014 45.662 36.4105 45.1529 37.0391 45.1529H44.9751C45.5654 45.1529 46.0461 44.6722 46.0461 44.0819V35.1803C46.0461 34.5516 46.5552 34.0425 47.1839 34.0425C47.8125 34.0425 48.3216 34.5516 48.3216 35.1803V44.0819C48.3216 45.928 46.8212 47.4284 44.9751 47.4284Z" fill="#B0D3F0"/>
<path d="M50.8474 40.4012C50.5359 40.4012 50.2245 40.2732 49.9998 40.0229L47.1838 36.884L44.3678 40.0229C43.9482 40.4908 43.2286 40.5292 42.7606 40.1096C42.2927 39.6901 42.2543 38.9704 42.6739 38.5025L46.3361 34.4193C46.5523 34.179 46.8595 34.041 47.1823 34.041C47.5052 34.041 47.8138 34.179 48.0286 34.4193L51.6908 38.5025C52.1103 38.9704 52.0719 39.6901 51.604 40.1096C51.3893 40.3059 51.1176 40.4012 50.8474 40.4012Z" fill="#B0D3F0"/>
</svg>
