<svg width="64" height="64" viewBox="0 0 64 64" fill="none" xmlns="http://www.w3.org/2000/svg">
<g clip-path="url(#clip0_2625_3)">
<path d="M42.7109 6.76169C42.7109 8.34919 44.0024 9.64056 45.5898 9.64056C49.4038 9.49581 49.4028 4.02694 45.5898 3.88281C44.0024 3.88294 42.7109 5.17431 42.7109 6.76169ZM46.5938 6.76169C46.5938 7.31519 46.1434 7.76556 45.5899 7.76556C44.2613 7.71831 44.2616 5.80481 45.5899 5.75781C46.1434 5.75794 46.5938 6.20819 46.5938 6.76169Z" fill="#B0D3F0"/>
<path d="M35.8827 3.8833H16.4687C15.2274 3.9263 15.2284 5.71568 16.4687 5.7583H35.8827C37.1241 5.71518 37.1232 3.9258 35.8827 3.8833Z" fill="#B0D3F0"/>
<path d="M35.8827 7.76611H16.4687C15.2274 7.80911 15.2284 9.59849 16.4687 9.64111H35.8827C37.1241 9.59799 37.1232 7.80874 35.8827 7.76611Z" fill="#B0D3F0"/>
<path d="M48.469 22.2905C48.469 20.703 47.1775 19.4116 45.5901 19.4116C41.7761 19.5564 41.7771 25.0252 45.5901 25.1694C47.1775 25.1694 48.469 23.8779 48.469 22.2905ZM44.5861 22.2905C44.5861 21.737 45.0365 21.2866 45.59 21.2866C46.9186 21.3339 46.9184 23.2474 45.59 23.2944C45.0365 23.2944 44.5861 22.844 44.5861 22.2905Z" fill="#B0D3F0"/>
<path d="M16.4687 21.2866H35.8827C37.1241 21.2436 37.1231 19.4542 35.8827 19.4116H16.4687C15.2274 19.4546 15.2284 21.244 16.4687 21.2866Z" fill="#B0D3F0"/>
<path d="M16.4687 25.1694H35.8827C37.1241 25.1264 37.1231 23.3371 35.8827 23.2944H16.4687C15.2274 23.3374 15.2284 25.1268 16.4687 25.1694Z" fill="#B0D3F0"/>
<path d="M42.7109 37.8194C42.7109 39.4069 44.0024 40.6983 45.5898 40.6983C49.4038 40.5536 49.4028 35.0846 45.5898 34.9404C44.0024 34.9406 42.7109 36.2319 42.7109 37.8194ZM46.5938 37.8194C46.5938 38.3729 46.1434 38.8233 45.5899 38.8233C44.2612 38.7761 44.2616 36.8624 45.5899 36.8154C46.1434 36.8156 46.5938 37.2659 46.5938 37.8194Z" fill="#B0D3F0"/>
<path d="M35.8827 34.9404H16.4687C15.2274 34.9834 15.2284 36.7728 16.4687 36.8154H35.8827C37.1241 36.7723 37.1232 34.9829 35.8827 34.9404Z" fill="#B0D3F0"/>
<path d="M35.8827 38.8232H16.4687C15.2274 38.8662 15.2284 40.6556 16.4687 40.6982H35.8827C37.1241 40.6552 37.1232 38.8659 35.8827 38.8232Z" fill="#B0D3F0"/>
<path d="M26.8387 50.7512C26.4726 50.385 25.8789 50.385 25.5128 50.7512L21.6301 54.634C21.2639 55.0002 21.2639 55.5938 21.6301 55.9598L25.5128 59.8425C25.9548 60.2087 26.3967 60.2087 26.8387 59.8425C27.2048 59.4764 27.2048 58.8828 26.8387 58.5168L23.6188 55.2969L26.8387 52.077C27.2048 51.7109 27.2048 51.1173 26.8387 50.7512Z" fill="#B0D3F0"/>
<path d="M34.3608 50.5758C33.8977 50.3441 33.3346 50.532 33.1031 50.9951L29.2203 58.7607C28.9887 59.2238 29.1764 59.787 29.6396 60.0185C30.1166 60.2357 30.5358 60.096 30.8973 59.5992L34.7801 51.8336C35.0117 51.3705 34.8241 50.8073 34.3608 50.5758Z" fill="#B0D3F0"/>
<path d="M38.4872 50.7512C38.1212 50.385 37.5276 50.385 37.1613 50.7512C36.7952 51.1173 36.7952 51.7108 37.1613 52.0769L40.3812 55.2968L37.1613 58.5167C36.7952 58.8828 36.7952 59.4764 37.1613 59.8424C37.6033 60.2085 38.0452 60.2085 38.4872 59.8424L42.3699 55.9597C42.7361 55.5935 42.7361 54.9999 42.3699 54.6339L38.4872 50.7512Z" fill="#B0D3F0"/>
<path d="M63.0625 52.418H46.5274V47.5312C46.5274 47.0135 46.1076 46.5938 45.5899 46.5938H36.8204V44.5814H51.414C51.9318 44.5814 52.3515 44.1616 52.3515 43.6439V39.8626C52.3085 38.6213 50.5191 38.6223 50.4765 39.8626V42.7064H13.5236V32.9326H50.4764V35.7764C50.5194 37.0177 52.3088 37.0167 52.3514 35.7764V31.9951C52.3514 31.4774 51.9316 31.0576 51.4139 31.0576H36.8203V29.0526H51.4139C51.9316 29.0526 52.3514 28.6329 52.3514 28.1151V16.4664C52.3514 15.9486 51.9316 15.5289 51.4139 15.5289H36.8203V13.5239H51.4139C51.9316 13.5239 52.3514 13.1041 52.3514 12.5864V8.805C52.3084 7.56363 50.519 7.56463 50.4764 8.805V11.6488H13.5236V1.875H50.4764V4.71875C50.5194 5.96012 52.3088 5.95913 52.3514 4.71875V0.9375C52.3514 0.41975 51.9316 0 51.4139 0H12.5861C12.0684 0 11.6486 0.41975 11.6486 0.9375V12.5863C11.6486 13.104 12.0684 13.5238 12.5861 13.5238H27.1798V15.5288H12.5861C12.0684 15.5288 11.6486 15.9485 11.6486 16.4662V20.2475C11.6916 21.4889 13.481 21.4879 13.5236 20.2475V17.4037H50.4764V27.1775H13.5236V24.3337C13.4806 23.0924 11.6913 23.0934 11.6486 24.3337V28.115C11.6486 28.6327 12.0684 29.0525 12.5861 29.0525H27.1798V31.0575H12.5861C12.0684 31.0575 11.6486 31.4773 11.6486 31.995V43.6437C11.6486 44.1615 12.0684 44.5812 12.5861 44.5812H27.1798V46.5936H18.4102C17.8925 46.5936 17.4727 47.0134 17.4727 47.5311V52.4178H0.9375C0.41975 52.4178 0 52.8375 0 53.3553V57.2381C0 57.7559 0.41975 58.1756 0.9375 58.1756H17.4726V63.0625C17.4726 63.5803 17.8924 64 18.4101 64H45.5897C46.1075 64 46.5272 63.5803 46.5272 63.0625V58.1759H63.0625C63.5803 58.1759 64 57.7561 64 57.2384V53.3555C64 52.8377 63.5803 52.418 63.0625 52.418ZM29.0548 13.5238H34.9453V15.5288H29.0548V13.5238ZM29.0548 29.0526H34.9453V31.0576H29.0548V29.0526ZM29.0548 44.5814H34.9453V46.5938H29.0548V44.5814ZM1.875 56.3008V54.2929H17.4726V56.3008H1.875ZM44.6524 62.125H19.3476V48.4688H44.6522V62.125H44.6524ZM62.125 56.3008H46.5274V54.2929H62.125V56.3008Z" fill="#B0D3F0"/>
</g>
<defs>
<clipPath id="clip0_2625_3">
<rect width="64" height="64" fill="white"/>
</clipPath>
</defs>
</svg>
