<svg width="64" height="64" viewBox="0 0 64 64" fill="none" xmlns="http://www.w3.org/2000/svg">
<path d="M58.2196 2.76292C57.9994 2.62702 57.7456 2.55469 57.487 2.55469H15.7114C12.1199 2.55469 9.19803 5.44808 9.19803 8.99413L8.95253 44.9692H1.40286C0.627997 44.9692 0 45.5972 0 46.372V52.8531C0.00493191 57.6124 3.86169 61.4692 8.62099 61.4747C8.71744 61.4747 8.81443 61.4648 8.90924 61.4451H43.7642C43.9719 61.4599 44.1812 61.4697 44.3922 61.4697C49.2255 61.461 53.1392 57.5417 53.1409 52.7084V31.6788H62.597C63.3719 31.6788 63.9999 31.0508 63.9999 30.2759V9.45115C63.9829 6.10238 61.5306 3.26434 58.2196 2.76292ZM2.80571 52.8537V47.7754H35.6435V52.709C35.6419 54.907 36.4688 57.0244 37.9599 58.6394H8.4292C8.36289 58.6399 8.29713 58.6448 8.23192 58.6547C5.18016 58.447 2.80955 55.9126 2.80571 52.8537ZM50.3352 9.45115V52.7084C50.3324 54.2768 49.7093 55.7794 48.6019 56.8891C47.5415 57.9768 46.1008 58.612 44.5829 58.6602C44.5073 58.647 44.4305 58.6404 44.3533 58.6399H43.8601C40.8045 58.3391 38.4695 55.7799 38.4492 52.7095V46.372C38.4492 45.5977 37.8212 44.9692 37.0464 44.9692H11.7582L12.0037 9.00399C12.024 6.97533 13.6822 5.34506 15.7114 5.3604H51.7287C50.8251 6.53255 50.3346 7.97103 50.3352 9.45115ZM61.1941 28.873H53.1409V9.45115C53.1776 7.25316 54.9695 5.49137 57.1675 5.49137C59.3655 5.49137 61.1574 7.25316 61.1941 9.45115V28.873Z" fill="#B0D3F0"/>
<path d="M18.0108 17.7527H31.2974C32.0722 17.7527 32.7002 17.1247 32.7002 16.3499C32.7002 15.575 32.0722 14.947 31.2974 14.947H18.0108C17.2359 14.947 16.6079 15.575 16.6079 16.3499C16.6079 17.1247 17.2359 17.7527 18.0108 17.7527Z" fill="#B0D3F0"/>
<path d="M42.7953 24.9775H18.0108C17.2359 24.9775 16.6079 25.6055 16.6079 26.3804C16.6079 27.1547 17.2359 27.7833 18.0108 27.7833H42.7953C43.5702 27.7833 44.1982 27.1547 44.1982 26.3804C44.1982 25.6055 43.5702 24.9775 42.7953 24.9775Z" fill="#B0D3F0"/>
<path d="M42.7953 35.0073H18.0108C17.2359 35.0073 16.6079 35.6359 16.6079 36.4102C16.6079 37.185 17.2359 37.813 18.0108 37.813H42.7953C43.5702 37.813 44.1982 37.185 44.1982 36.4102C44.1982 35.6359 43.5702 35.0073 42.7953 35.0073Z" fill="#B0D3F0"/>
</svg>
