<svg width="64" height="64" viewBox="0 0 64 64" fill="none" xmlns="http://www.w3.org/2000/svg">
<g clip-path="url(#clip0_2619_279)">
<path d="M57.104 4.01662H51.95V1.875C51.95 0.8395 51.1105 0 50.075 0C49.0395 0 48.2 0.8395 48.2 1.875V4.01662H39.9V1.875C39.9 0.8395 39.0605 0 38.025 0C36.9895 0 36.15 0.8395 36.15 1.875V4.01662H27.85V1.875C27.85 0.8395 27.0105 0 25.975 0C24.9395 0 24.1 0.8395 24.1 1.875V4.01662H15.8V1.875C15.8 0.8395 14.9605 0 13.925 0C12.8895 0 12.05 0.8395 12.05 1.875V4.01662H6.89575C3.0935 4.01662 0 7.11 0 10.9125V57.1041C0 60.9065 3.0935 64 6.89575 64H57.104C60.9064 64 64 60.9065 64 57.1041V10.9125C64 7.11 60.9064 4.01662 57.104 4.01662ZM6.89575 7.76662H12.05V9.90837C12.05 10.9439 12.8895 11.7834 13.925 11.7834C14.9605 11.7834 15.8 10.9439 15.8 9.90837V7.76662H24.0998V9.90837C24.0998 10.9439 24.9393 11.7834 25.9748 11.7834C27.0103 11.7834 27.8498 10.9439 27.8498 9.90837V7.76662H36.1497V9.90837C36.1497 10.9439 36.9892 11.7834 38.0247 11.7834C39.0602 11.7834 39.8997 10.9439 39.8997 9.90837V7.76662H48.1997V9.90837C48.1997 10.9439 49.0392 11.7834 50.0747 11.7834C51.1102 11.7834 51.9497 10.9439 51.9497 9.90837V7.76662H57.1037C58.8386 7.76662 60.25 9.17788 60.25 10.9125V16.0666H3.75V10.9125C3.75 9.17788 5.16125 7.76662 6.89575 7.76662ZM57.104 60.25H6.89575C5.16125 60.25 3.75 58.8388 3.75 57.1041V19.8166H60.25V57.1041C60.25 58.8388 58.8386 60.25 57.104 60.25Z" fill="#B0D3F0"/>
<path d="M18.946 26.1084H10.9126C9.8771 26.1084 9.0376 26.9479 9.0376 27.9834V36.0166C9.0376 37.0521 9.8771 37.8916 10.9126 37.8916H18.9461C19.9816 37.8916 20.8211 37.0521 20.8211 36.0166V27.9834C20.821 26.9479 19.9816 26.1084 18.946 26.1084ZM17.071 34.1416H12.7875V29.8584H17.071V34.1416Z" fill="#B0D3F0"/>
<path d="M53.0874 26.1084H45.0542C44.0187 26.1084 43.1792 26.9479 43.1792 27.9834V36.0166C43.1792 37.0521 44.0187 37.8916 45.0542 37.8916H53.0874C54.1229 37.8916 54.9624 37.0521 54.9624 36.0166V27.9834C54.9624 26.9479 54.1229 26.1084 53.0874 26.1084ZM51.2124 34.1416H46.9292V29.8584H51.2124V34.1416Z" fill="#B0D3F0"/>
<path d="M18.946 42.1748H10.9126C9.8771 42.1748 9.0376 43.0143 9.0376 44.0498V52.0831C9.0376 53.1186 9.8771 53.9581 10.9126 53.9581H18.9461C19.9816 53.9581 20.8211 53.1186 20.8211 52.0831V44.0498C20.821 43.0143 19.9816 42.1748 18.946 42.1748ZM17.071 50.2081H12.7875V45.9248H17.071V50.2081Z" fill="#B0D3F0"/>
<path d="M53.0874 42.1748H45.0542C44.0187 42.1748 43.1792 43.0143 43.1792 44.0498V52.0831C43.1792 53.1186 44.0187 53.9581 45.0542 53.9581H53.0874C54.1229 53.9581 54.9624 53.1186 54.9624 52.0831V44.0498C54.9624 43.0143 54.1229 42.1748 53.0874 42.1748ZM51.2124 50.2081H46.9292V45.9248H51.2124V50.2081Z" fill="#B0D3F0"/>
<path d="M36.0164 42.1748H27.9829C26.9474 42.1748 26.1079 43.0143 26.1079 44.0498V52.0831C26.1079 53.1186 26.9474 53.9581 27.9829 53.9581H36.0164C37.0519 53.9581 37.8914 53.1186 37.8914 52.0831V44.0498C37.8914 43.0143 37.0519 42.1748 36.0164 42.1748ZM34.1414 50.2081H29.8579V45.9248H34.1414V50.2081Z" fill="#B0D3F0"/>
<path d="M34.9343 27.8343L30.5801 32.1888L29.0656 30.6743C28.3334 29.9421 27.1462 29.9421 26.4139 30.6743C25.6817 31.4066 25.6817 32.5937 26.4139 33.326L29.2543 36.1663C29.6059 36.518 30.0828 36.7156 30.5801 36.7156C31.0774 36.7156 31.5543 36.518 31.9059 36.1663L37.5861 30.486C38.3182 29.7537 38.3182 28.5666 37.5861 27.8343C36.8537 27.1021 35.6666 27.1021 34.9343 27.8343Z" fill="#B0D3F0"/>
</g>
<defs>
<clipPath id="clip0_2619_279">
<rect width="64" height="64" fill="white"/>
</clipPath>
</defs>
</svg>
