<svg width="64" height="64" viewBox="0 0 64 64" fill="none" xmlns="http://www.w3.org/2000/svg">
<path d="M60.8681 14.5161C60.8681 11.384 58.3178 8.83372 55.1857 8.83372H52.9069V5.6725C52.9069 3.62644 51.239 1.96826 49.1929 1.96826H48.4075C46.3614 1.96826 44.6935 3.62644 44.6935 5.6725V8.84341H36.102V5.6725C36.102 3.62644 34.4341 1.96826 32.3881 1.96826H31.6123C29.5663 1.96826 27.8984 3.62644 27.8984 5.6725V8.84341H19.3069V5.6725C19.3069 3.62644 17.639 1.96826 15.5929 1.96826H14.8075C12.7614 1.96826 11.0935 3.62644 11.0935 5.6725V8.84341H8.81475C5.68263 8.84341 3.13232 11.3937 3.13232 14.5258V21.9246V56.3489C3.13232 59.481 5.68263 62.0313 8.81475 62.0313H55.1857C58.3178 62.0313 60.8681 59.481 60.8681 56.3489V21.9246C60.8681 21.9246 60.8681 21.9246 60.8681 21.9149V14.5161ZM46.5166 5.6725C46.5166 4.63493 47.3602 3.79129 48.4075 3.79129H49.1929C50.2402 3.79129 51.0838 4.63493 51.0838 5.6725V9.74523V13.4301C51.0838 14.4677 50.2402 15.3113 49.1929 15.3113H48.4075C47.3602 15.3113 46.5166 14.4677 46.5166 13.4301V9.74523V5.6725ZM29.7214 5.6725C29.7214 4.63493 30.5651 3.79129 31.6123 3.79129H32.3881C33.4354 3.79129 34.279 4.63493 34.279 5.6725V9.74523V13.4301C34.279 14.4677 33.4257 15.3113 32.3881 15.3113H31.6123C30.5651 15.3113 29.7214 14.4677 29.7214 13.4301V9.74523V5.6725ZM12.9166 5.6725C12.9166 4.63493 13.7699 3.79129 14.8075 3.79129H15.5929C16.6402 3.79129 17.4838 4.63493 17.4838 5.6725V9.74523V13.4301C17.4838 14.4677 16.6305 15.3113 15.5929 15.3113H14.8075C13.7602 15.3113 12.9166 14.4677 12.9166 13.4301V9.74523V5.6725ZM4.95535 14.5161C4.95535 12.3925 6.69111 10.6567 8.81475 10.6567H11.0935V13.4398C11.0935 15.4761 12.7614 17.144 14.8075 17.144H15.5929C17.639 17.144 19.3069 15.4858 19.3069 13.4398V10.6567H27.8984V13.4398C27.8984 15.4761 29.5663 17.144 31.6123 17.144H32.3881C34.4341 17.144 36.102 15.4858 36.102 13.4398V10.6567H44.6935V13.4398C44.6935 15.4761 46.3614 17.144 48.4075 17.144H49.1929C51.239 17.144 52.9069 15.4858 52.9069 13.4398V10.6567H55.1857C57.3093 10.6567 59.0451 12.3925 59.0451 14.5161V21.0034H4.95535V14.5161ZM59.0451 56.3489C59.0451 58.4725 57.3093 60.2083 55.1857 60.2083H8.81475C6.69111 60.2083 4.95535 58.4725 4.95535 56.3489V22.8264H59.0451V56.3489Z" fill="#B0D3F0"/>
<path d="M11.4037 38.5744H19.9758C20.4801 38.5744 20.8873 38.1671 20.8873 37.6628V29.0907C20.8873 28.5865 20.4801 28.1792 19.9758 28.1792H11.4037C10.8995 28.1792 10.4922 28.5865 10.4922 29.0907V37.6628C10.4922 38.1671 10.8995 38.5744 11.4037 38.5744ZM12.3152 30.0119H19.0643V36.761H12.3152V30.0119Z" fill="#B0D3F0"/>
<path d="M27.7143 38.5744H36.2864C36.7906 38.5744 37.1979 38.1671 37.1979 37.6628V29.0907C37.1979 28.5865 36.7906 28.1792 36.2864 28.1792H27.7143C27.21 28.1792 26.8027 28.5865 26.8027 29.0907V37.6628C26.8027 38.1671 27.21 38.5744 27.7143 38.5744ZM28.6258 30.0119H35.3749V36.761H28.6258V30.0119Z" fill="#B0D3F0"/>
<path d="M44.0341 38.5744H52.6062C53.1104 38.5744 53.5177 38.1671 53.5177 37.6628V29.0907C53.5177 28.5865 53.1104 28.1792 52.6062 28.1792H44.0341C43.5298 28.1792 43.1226 28.5865 43.1226 29.0907V37.6628C43.1226 38.1671 43.5298 38.5744 44.0341 38.5744ZM44.9359 30.0119H51.685V36.761H44.9359V30.0119Z" fill="#B0D3F0"/>
<path d="M11.4037 54.8458H19.9758C20.4801 54.8458 20.8873 54.4386 20.8873 53.9343V45.3622C20.8873 44.858 20.4801 44.4507 19.9758 44.4507H11.4037C10.8995 44.4507 10.4922 44.858 10.4922 45.3622V53.9343C10.4922 54.4386 10.8995 54.8458 11.4037 54.8458ZM12.3152 46.2834H19.0643V53.0325H12.3152V46.2834Z" fill="#B0D3F0"/>
<path d="M27.7143 54.8458H36.2864C36.7906 54.8458 37.1979 54.4386 37.1979 53.9343V45.3622C37.1979 44.858 36.7906 44.4507 36.2864 44.4507H27.7143C27.21 44.4507 26.8027 44.858 26.8027 45.3622V53.9343C26.8027 54.4386 27.21 54.8458 27.7143 54.8458ZM28.6258 46.2834H35.3749V53.0325H28.6258V46.2834Z" fill="#B0D3F0"/>
<path d="M44.0341 54.8458H52.6062C53.1104 54.8458 53.5177 54.4386 53.5177 53.9343V45.3622C53.5177 44.858 53.1104 44.4507 52.6062 44.4507H44.0341C43.5298 44.4507 43.1226 44.858 43.1226 45.3622V53.9343C43.1226 54.4386 43.5298 54.8458 44.0341 54.8458ZM44.9359 46.2834H51.685V53.0325H44.9359V46.2834Z" fill="#B0D3F0"/>
</svg>
