<svg width="64" height="64" viewBox="0 0 64 64" fill="none" xmlns="http://www.w3.org/2000/svg">
<path d="M25.3085 61.6791C21.7945 61.6791 18.9355 58.8201 18.9355 55.3061C18.9355 51.7921 21.7945 48.9341 25.3085 48.9341C28.8225 48.9341 31.6815 51.7921 31.6815 55.3061C31.6815 58.8201 28.8225 61.6791 25.3085 61.6791ZM25.3085 52.9341C24.0005 52.9341 22.9355 53.9981 22.9355 55.3061C22.9355 56.6151 23.9995 57.6791 25.3085 57.6791C26.6175 57.6791 27.6815 56.6151 27.6815 55.3061C27.6815 53.9981 26.6175 52.9341 25.3085 52.9341Z" fill="#B0D3F0"/>
<path d="M47.4628 61.6791C43.9488 61.6791 41.0908 58.8201 41.0908 55.3061C41.0908 51.7921 43.9488 48.9341 47.4628 48.9341C50.9768 48.9341 53.8358 51.7921 53.8358 55.3061C53.8358 58.8201 50.9758 61.6791 47.4628 61.6791ZM47.4628 52.9341C46.1548 52.9341 45.0908 53.9981 45.0908 55.3061C45.0908 56.6151 46.1548 57.6791 47.4628 57.6791C48.7718 57.6791 49.8358 56.6151 49.8358 55.3061C49.8358 53.9981 48.7708 52.9341 47.4628 52.9341Z" fill="#B0D3F0"/>
<path d="M52.1282 43.994H20.7092C17.6522 43.994 15.0412 41.913 14.3592 38.933L7.83818 10.456C7.75218 10.08 7.49218 9.75804 7.14218 9.59604L1.73318 7.08904C0.481176 6.50904 -0.0638238 5.02304 0.516176 3.77004C1.09618 2.51804 2.58318 1.97304 3.83518 2.55304L9.24418 5.06004C10.9872 5.86704 12.2842 7.46704 12.7122 9.34004L19.2332 37.819C19.3912 38.511 19.9982 38.995 20.7092 38.995H52.1282C52.8362 38.995 53.4422 38.514 53.6042 37.824L58.6742 16.011C58.8192 15.391 58.5552 14.94 58.3862 14.727C58.2162 14.513 57.8362 14.155 57.2002 14.155H20.2002C18.8192 14.155 17.7002 13.036 17.7002 11.655C17.7002 10.274 18.8192 9.15504 20.2002 9.15504H57.2002C59.1992 9.15504 61.0572 10.052 62.3012 11.617C63.5452 13.182 63.9972 15.196 63.5452 17.143L58.4742 38.957C57.7832 41.922 55.1742 43.994 52.1282 43.994Z" fill="#B0D3F0"/>
</svg>
