<svg width="64" height="64" viewBox="0 0 64 64" fill="none" xmlns="http://www.w3.org/2000/svg">
<g clip-path="url(#clip0_2601_126)">
<path d="M22.625 37.625C21.5895 37.625 20.75 38.4645 20.75 39.5V43.25C20.75 44.2855 21.5895 45.125 22.625 45.125C23.6605 45.125 24.5 44.2855 24.5 43.25V39.5C24.5 38.4645 23.6605 37.625 22.625 37.625Z" fill="#B0D3F0"/>
<path d="M41.375 45.125C42.4105 45.125 43.25 44.2855 43.25 43.25V39.5C43.25 38.4645 42.4105 37.625 41.375 37.625C40.3395 37.625 39.5 38.4645 39.5 39.5V43.25C39.5 44.2855 40.3395 45.125 41.375 45.125Z" fill="#B0D3F0"/>
<path d="M34 13.25H54.5C55.5355 13.25 56.375 12.4105 56.375 11.375C56.375 10.3395 55.5355 9.5 54.5 9.5H34C32.9645 9.5 32.125 10.3395 32.125 11.375C32.125 12.4105 32.9645 13.25 34 13.25Z" fill="#B0D3F0"/>
<path d="M64 22V8.125C64 3.64488 60.3551 0 55.875 0H32.625C28.1449 0 24.5 3.64488 24.5 8.125V22.625H22C15.1466 22.625 9.39887 27.4462 7.96812 33.875H7.625V22.3025C9.80737 21.5285 11.375 19.4444 11.375 17C11.375 13.8984 8.85162 11.375 5.75 11.375C2.64838 11.375 0.125 13.8984 0.125 17C0.125 19.4444 1.69263 21.5285 3.875 22.3025V34.1551C1.62788 34.8927 0 37.0092 0 39.5V47C0 50.1016 2.52338 52.625 5.625 52.625H7.94088C9.3245 59.1161 15.1023 64 22 64H42C48.8977 64 54.6755 59.1161 56.0591 52.625H58.375C61.4766 52.625 64 50.1016 64 47V39.5C64 36.3984 61.4766 33.875 58.375 33.875H56.0311C55.7397 32.565 55.2668 31.3029 54.6253 30.125H55.875C60.3551 30.125 64 26.4801 64 22ZM28.25 8.125C28.25 5.71263 30.2126 3.75 32.625 3.75H55.875C58.2874 3.75 60.25 5.71263 60.25 8.125V22C60.25 24.4124 58.2874 26.375 55.875 26.375H33.875C33.5839 26.375 33.2969 26.4427 33.0365 26.5729L28.25 28.9661V8.125ZM5.75 15.125C6.78387 15.125 7.625 15.9661 7.625 17C7.625 18.0339 6.78387 18.875 5.75 18.875C4.71613 18.875 3.875 18.0339 3.875 17C3.875 15.9661 4.71613 15.125 5.75 15.125ZM3.75 47V39.5C3.75 38.4661 4.59113 37.625 5.625 37.625H7.625V48.875H5.625C4.59113 48.875 3.75 48.0339 3.75 47ZM60.25 39.5V47C60.25 48.0339 59.4089 48.875 58.375 48.875H56.375V37.625H58.375C59.4089 37.625 60.25 38.4661 60.25 39.5ZM52.625 37V49.625C52.625 55.4836 47.8586 60.25 42 60.25H22C16.1414 60.25 11.375 55.4836 11.375 49.625V37C11.375 31.1414 16.1414 26.375 22 26.375H24.5V32C24.5 33.3915 25.9677 34.3 27.2135 33.677L34.3176 30.125H50.0978C51.7275 32.043 52.625 34.4755 52.625 37Z" fill="#B0D3F0"/>
<path d="M34 20.75H54.5C55.5355 20.75 56.375 19.9105 56.375 18.875C56.375 17.8395 55.5355 17 54.5 17H34C32.9645 17 32.125 17.8395 32.125 18.875C32.125 19.9105 32.9645 20.75 34 20.75Z" fill="#B0D3F0"/>
<path d="M26.375 50.75C26.375 51.7855 27.2145 52.625 28.25 52.625H35.75C36.7855 52.625 37.625 51.7855 37.625 50.75C37.625 49.7145 36.7855 48.875 35.75 48.875H28.25C27.2145 48.875 26.375 49.7145 26.375 50.75Z" fill="#B0D3F0"/>
</g>
<defs>
<clipPath id="clip0_2601_126">
<rect width="64" height="64" fill="white"/>
</clipPath>
</defs>
</svg>
