<svg width="64" height="64" viewBox="0 0 64 64" fill="none" xmlns="http://www.w3.org/2000/svg">
<g clip-path="url(#clip0_2619_180)">
<path d="M60.0065 46.2176C66.191 37.5405 65.2456 25.6524 56.7984 17.9085C52.9387 14.3704 48.0184 12.1677 42.7033 11.5526C42.6701 11.5119 42.6362 11.4715 42.5991 11.4329C37.9752 6.62975 31.3323 3.875 24.3735 3.875C11.1311 3.875 0 13.7416 0 26.375C0 30.8044 1.37587 35.0505 3.9895 38.7176L0.338375 50.1809C0.108875 50.9014 0.334625 51.689 0.91075 52.1786C1.48787 52.6691 2.302 52.7634 2.97463 52.4212L14.078 46.7754C16.3583 47.7573 18.7763 48.4015 21.2803 48.6946C26.1105 53.7741 32.7894 56.375 39.6225 56.375C43.1745 56.375 46.7136 55.6511 49.9175 54.2752L61.0214 59.9214C61.2902 60.0581 61.5814 60.125 61.8708 60.125C63.1361 60.125 64.0432 58.8919 63.6576 57.6809L60.0065 46.2176ZM14.8348 43.0026C14.3096 42.7532 13.6987 42.7615 13.1806 43.025L5.27225 47.0462L7.85475 38.938C8.04275 38.3476 7.92713 37.7026 7.54563 37.2145C5.06238 34.0358 3.74975 30.2876 3.74975 26.375C3.74975 16.0363 13.0015 7.625 24.3735 7.625C28.953 7.625 33.3616 9.01237 36.9378 11.5107C24.8943 12.7217 15.249 22.1285 15.249 33.875C15.249 37.5285 16.1855 41.0457 17.9511 44.197C16.8821 43.8786 15.841 43.4805 14.8348 43.0026ZM50.8154 50.5249C50.3048 50.2653 49.6934 50.2496 49.1613 50.5026C46.2381 51.8911 42.9398 52.625 39.6225 52.625C28.2505 52.625 18.9988 44.2137 18.9988 33.875C18.9988 23.5363 28.2505 15.125 39.6225 15.125C50.9945 15.125 60.2463 23.5363 60.2463 33.875C60.2463 37.7876 58.9336 41.5357 56.4502 44.7144C56.0689 45.2025 55.9532 45.8475 56.1411 46.4379L58.7236 54.5461L50.8154 50.5249Z" fill="#B0D3F0"/>
<path d="M31.998 35.75C33.0336 35.75 33.873 34.9105 33.873 33.875C33.873 32.8395 33.0336 32 31.998 32C30.9625 32 30.123 32.8395 30.123 33.875C30.123 34.9105 30.9625 35.75 31.998 35.75Z" fill="#B0D3F0"/>
<path d="M39.4976 35.75C40.5331 35.75 41.3726 34.9105 41.3726 33.875C41.3726 32.8395 40.5331 32 39.4976 32C38.462 32 37.6226 32.8395 37.6226 33.875C37.6226 34.9105 38.462 35.75 39.4976 35.75Z" fill="#B0D3F0"/>
<path d="M46.9971 35.75C48.0326 35.75 48.8721 34.9105 48.8721 33.875C48.8721 32.8395 48.0326 32 46.9971 32C45.9615 32 45.1221 32.8395 45.1221 33.875C45.1221 34.9105 45.9615 35.75 46.9971 35.75Z" fill="#B0D3F0"/>
</g>
<defs>
<clipPath id="clip0_2619_180">
<rect width="64" height="64" fill="white"/>
</clipPath>
</defs>
</svg>
