<svg width="64" height="64" viewBox="0 0 64 64" fill="none" xmlns="http://www.w3.org/2000/svg">
<g clip-path="url(#clip0_2619_451)">
<path d="M58.6667 0H5.33333C2.39253 0 0 2.39253 0 5.33333V58.6667C0 61.6075 2.39253 64 5.33333 64H58.6667C61.6075 64 64 61.6075 64 58.6667V5.33333C64 2.39253 61.6075 0 58.6667 0ZM5.33333 2.13333H58.6667C60.4309 2.13333 61.8667 3.56907 61.8667 5.33333V8.53333H2.13333V5.33333C2.13333 3.56907 3.56907 2.13333 5.33333 2.13333ZM58.6667 61.8667H5.33333C3.56907 61.8667 2.13333 60.4309 2.13333 58.6667V10.6667H61.8667V58.6667C61.8667 60.4309 60.4309 61.8667 58.6667 61.8667Z" fill="#B0D3F0"/>
<path d="M6.40016 6.39994C6.98927 6.39994 7.46683 5.92237 7.46683 5.33327C7.46683 4.74416 6.98927 4.2666 6.40016 4.2666C5.81106 4.2666 5.3335 4.74416 5.3335 5.33327C5.3335 5.92237 5.81106 6.39994 6.40016 6.39994Z" fill="#B0D3F0"/>
<path d="M10.6668 6.39994C11.2559 6.39994 11.7334 5.92237 11.7334 5.33327C11.7334 4.74416 11.2559 4.2666 10.6668 4.2666C10.0777 4.2666 9.6001 4.74416 9.6001 5.33327C9.6001 5.92237 10.0777 6.39994 10.6668 6.39994Z" fill="#B0D3F0"/>
<path d="M14.9334 6.39994C15.5225 6.39994 16 5.92237 16 5.33327C16 4.74416 15.5225 4.2666 14.9334 4.2666C14.3443 4.2666 13.8667 4.74416 13.8667 5.33327C13.8667 5.92237 14.3443 6.39994 14.9334 6.39994Z" fill="#B0D3F0"/>
<path d="M27.7332 6.39994H36.2665C36.8564 6.39994 37.3332 5.92207 37.3332 5.33327C37.3332 4.74447 36.8564 4.2666 36.2665 4.2666H27.7332C27.1433 4.2666 26.6665 4.74447 26.6665 5.33327C26.6665 5.92207 27.1433 6.39994 27.7332 6.39994Z" fill="#B0D3F0"/>
<path d="M49.0665 23.4667H42.6121C42.0756 18.0843 37.5209 13.8667 31.9998 13.8667C26.4788 13.8667 21.9241 18.0843 21.3876 23.4667H14.9332V21.711C14.9332 20.3958 14.1438 19.2288 12.9214 18.7392L8.9289 17.1424C8.3849 16.9248 7.7609 17.1894 7.54224 17.7366C7.32357 18.2838 7.59024 18.9046 8.13744 19.1232L12.1289 20.72C12.5364 20.8832 12.7998 21.2726 12.7998 21.711V50.1334C12.7998 51.8976 14.2356 53.3334 15.9998 53.3334H16.5929C16.226 53.9638 15.9998 54.6859 15.9998 55.4667C15.9998 57.8198 17.9134 59.7334 20.2665 59.7334C22.6196 59.7334 24.5332 57.8198 24.5332 55.4667C24.5332 54.6859 24.307 53.9638 23.9401 53.3334H38.994C38.627 53.9638 38.4009 54.6859 38.4009 55.4667C38.4009 57.8198 40.3145 59.7334 42.6676 59.7334C45.0206 59.7334 46.9342 57.8198 46.9342 55.4667C46.9342 54.6859 46.7081 53.9638 46.3412 53.3334H49.0676C49.6574 53.3334 50.1342 52.8555 50.1342 52.2667C50.1342 51.6779 49.6574 51.2 49.0676 51.2H15.9998C15.411 51.2 14.9332 50.7211 14.9332 50.1334V48H46.7838C48.8948 48 50.7113 46.4224 51.0078 44.3318L53.2894 28.3339C53.4665 27.1126 53.1038 25.8752 52.2942 24.9408C51.4836 24.0043 50.307 23.4667 49.0665 23.4667ZM22.3998 55.4667C22.3998 56.6432 21.443 57.6 20.2665 57.6C19.09 57.6 18.1332 56.6432 18.1332 55.4667C18.1332 54.2902 19.09 53.3334 20.2665 53.3334C21.443 53.3334 22.3998 54.2902 22.3998 55.4667ZM44.7998 55.4667C44.7998 56.6432 43.843 57.6 42.6665 57.6C41.49 57.6 40.5332 56.6432 40.5332 55.4667C40.5332 54.2902 41.49 53.3334 42.6665 53.3334C43.843 53.3334 44.7998 54.2902 44.7998 55.4667ZM31.9998 16C36.7049 16 40.5332 19.8283 40.5332 24.5334C40.5332 29.2384 36.7049 33.0667 31.9998 33.0667C27.2948 33.0667 23.4665 29.2384 23.4665 24.5334C23.4665 19.8283 27.2948 16 31.9998 16ZM51.1774 28.031L48.8948 44.031C48.7465 45.0774 47.8388 45.8667 46.7838 45.8667H14.9332V25.6H21.3876C21.9241 30.9824 26.4788 35.2 31.9998 35.2C37.5209 35.2 42.0756 30.9824 42.6121 25.6H49.0665C49.6873 25.6 50.2761 25.8688 50.6825 26.3371C51.0857 26.8043 51.267 27.4198 51.1785 28.0299L51.1774 28.031Z" fill="#B0D3F0"/>
<path d="M30.179 28.4875C30.3796 28.6881 30.6516 28.8001 30.9332 28.8001C30.9673 28.8001 31.0025 28.799 31.0388 28.7947C31.3566 28.7638 31.6436 28.591 31.8206 28.3254L36.0873 21.9254C36.4148 21.4358 36.2825 20.7723 35.7918 20.4459C35.3001 20.1185 34.6388 20.2507 34.3124 20.7414L30.7678 26.0587L29.554 24.8459C29.1369 24.4289 28.4628 24.4289 28.0457 24.8459C27.6286 25.263 27.6286 25.9371 28.0457 26.3542L30.179 28.4875Z" fill="#B0D3F0"/>
</g>
<defs>
<clipPath id="clip0_2619_451">
<rect width="64" height="64" fill="white"/>
</clipPath>
</defs>
</svg>
