<svg width="64" height="64" viewBox="0 0 64 64" fill="none" xmlns="http://www.w3.org/2000/svg">
<g clip-path="url(#clip0_2619_98)">
<path d="M11.5742 47.0251C11.5742 48.2312 12.5556 49.2126 13.7617 49.2126H25.0109C26.217 49.2126 27.1984 48.2312 27.1984 47.0251V43.6216C27.1984 42.4154 26.217 41.4341 25.0109 41.4341H13.7617C12.5556 41.4341 11.5742 42.4154 11.5742 43.6216V47.0251ZM13.4492 43.6216C13.4492 43.4492 13.5893 43.3091 13.7617 43.3091H25.0109C25.1833 43.3091 25.3234 43.4492 25.3234 43.6216V47.0251C25.3234 47.1975 25.1833 47.3376 25.0109 47.3376H13.7617C13.5893 47.3376 13.4492 47.1975 13.4492 47.0251V43.6216Z" fill="#B0D3F0"/>
<path d="M12.5118 25.4619H19.0908C20.3321 25.4189 20.3311 23.6294 19.0908 23.5869H12.5118C11.2704 23.6298 11.2713 25.4194 12.5118 25.4619Z" fill="#B0D3F0"/>
<path d="M12.5117 29.8369H22.4107C23.6521 29.7939 23.6511 28.0044 22.4107 27.9619H12.5117C11.2704 28.0048 11.2713 29.7944 12.5117 29.8369Z" fill="#B0D3F0"/>
<path d="M35.2583 10.1565C35.0405 9.08896 33.5307 9.00408 33.1932 10.0398C33.1897 10.0506 33.1865 10.0615 33.1833 10.0723L32.3327 13.0563L31.4496 10.0631C31.4463 10.0518 31.4427 10.0407 31.4391 10.0296C31.2843 9.56958 30.8391 9.27058 30.3536 9.30321C29.8691 9.33583 29.4667 9.69133 29.373 10.1788L28.3461 15.8683C28.2542 16.3778 28.5927 16.8656 29.1022 16.9575C29.6113 17.0492 30.0995 16.711 30.1913 16.2013L30.6142 13.858L31.3217 16.2558C31.3248 16.2668 31.3283 16.2776 31.332 16.2885C31.4787 16.727 31.8887 17.0203 32.3508 17.0181C32.8135 17.0158 33.2203 16.7187 33.3632 16.2787C33.3666 16.268 33.37 16.2571 33.3731 16.2462L34.0557 13.8516L34.5066 16.211C34.6038 16.7196 35.096 17.0536 35.6033 16.9557C36.1118 16.8586 36.4453 16.3675 36.3481 15.859L35.2583 10.1565Z" fill="#B0D3F0"/>
<path d="M26.2552 14.5375C25.8583 14.2051 25.2671 14.257 24.9344 14.6537C24.8901 14.7069 24.8423 14.7561 24.7923 14.8006C23.6234 15.755 21.7699 14.6156 21.8289 13.1595C21.7994 11.6017 23.6487 10.62 24.9211 11.514C25.3501 11.8036 25.9328 11.691 26.2227 11.2619C26.5124 10.8329 26.3997 10.2501 25.9706 9.96023C23.4726 8.22398 19.9143 10.114 19.9538 13.1595C19.8762 16.2086 23.6931 18.2485 26.0391 16.2009C26.1567 16.0961 26.2684 15.9809 26.3712 15.8584C26.7041 15.4615 26.6519 14.8701 26.2552 14.5375Z" fill="#B0D3F0"/>
<path d="M41.4515 12.3257C40.7712 12.0748 40.135 11.8022 39.9025 11.7008C39.8484 11.6461 39.8438 11.5781 39.8512 11.5267C39.8705 11.3918 39.987 11.2828 40.1707 11.2275C40.8822 11.0126 41.5617 11.541 41.5879 11.5616C41.9843 11.8888 42.571 11.8362 42.9025 11.442C43.2357 11.0457 43.1845 10.4543 42.7882 10.1211C42.2545 9.67245 40.989 9.02258 39.6298 9.4322C38.7453 9.6987 38.1189 10.3991 37.9953 11.2602C37.8785 12.0731 38.2313 12.8552 38.9154 13.3013C38.9569 13.3283 39.0004 13.352 39.0454 13.3721C39.0794 13.3873 39.8903 13.7483 40.8028 14.0847C41.1208 14.202 41.4774 14.4203 41.4365 14.6495C41.1917 15.4513 39.723 15.152 39.2787 14.5848C38.4133 13.6938 37.0879 14.8961 37.8893 15.8438C39.377 17.5675 42.7823 17.4522 43.2824 14.979C43.4425 14.0821 43.0458 12.9138 41.4515 12.3257Z" fill="#B0D3F0"/>
<path d="M62.6875 41.1714H60.8545C60.6014 40.2594 60.2374 39.3827 59.7684 38.5551L61.0667 37.2568C61.5778 36.7452 61.5778 35.9129 61.0663 35.4009L58.5033 32.838C58.0151 32.3285 57.1352 32.3284 56.647 32.8376L56.0815 33.4031V29.4297C56.0385 28.1883 54.249 28.1893 54.2065 29.4297V33.5694C53.7274 33.3634 53.2356 33.1889 52.7328 33.0493V31.2163C52.7328 30.4926 52.144 29.9038 51.4203 29.9038H47.7953C47.0716 29.9038 46.4829 30.4926 46.4829 31.2163V33.0493C45.5707 33.3024 44.6939 33.6665 43.8665 34.1355L42.5687 32.8375C42.0803 32.3284 41.2007 32.3284 40.7126 32.8375L38.1488 35.4011C37.6377 35.9127 37.6377 36.7451 38.1492 37.2571L39.4471 38.5548C38.978 39.3824 38.6141 40.2592 38.361 41.1713H36.528C35.8043 41.1713 35.2155 41.76 35.2155 42.4838V46.1087C35.2155 46.8325 35.8043 47.4212 36.528 47.4212H38.361C38.6141 48.3332 38.9782 49.2099 39.4471 50.0375L38.1491 51.3354C38.037 51.4475 37.9508 51.5756 37.8878 51.712H8.18413C8.7365 50.9509 9.06325 50.0114 9.06325 48.9959V22.32C9.06325 21.5963 9.65199 21.0076 10.3757 21.0076H52.8939C53.6176 21.0076 54.2064 21.5963 54.2064 22.32V25.055C54.2494 26.2964 56.0389 26.2954 56.0814 25.055V22.32C56.0814 20.5624 54.6515 19.1326 52.8939 19.1326H52.7851V8.49898C52.7851 6.74138 51.3553 5.31152 49.5977 5.31152H13.6719C11.9143 5.31152 10.4845 6.74138 10.4845 8.49898V10.0578H3.18833C1.43072 10.0578 0.000868918 11.4877 0.000868918 13.2453V14.4903C0.0438683 15.7316 1.83334 15.7306 1.87584 14.4903V13.2453C1.87584 12.5215 2.46459 11.9328 3.18833 11.9328H10.4845V19.1327H10.3757C8.61813 19.1327 7.18827 20.5626 7.18827 22.3202V48.9961C7.20352 51.3823 4.32193 52.6165 2.65496 50.933C2.15246 50.4307 1.87584 49.7623 1.87584 49.0509V18.865C1.83284 17.6236 0.0433683 17.6246 0.000868918 18.865V49.0507C-0.0495054 51.49 2.09772 53.6372 4.53706 53.5869H38.5447L40.7123 55.7543C41.2007 56.2638 42.0802 56.264 42.5687 55.7547L43.8666 54.4569C44.6941 54.926 45.571 55.2898 46.483 55.543V57.3759C46.483 58.0997 47.0717 58.6884 47.7955 58.6884H51.4204C52.1442 58.6884 52.7329 58.0997 52.7329 57.3759V55.543C53.645 55.2898 54.5219 54.9257 55.3492 54.4569L56.6468 55.7543C57.1351 56.2638 58.0149 56.264 58.5032 55.7547L61.0669 53.1911C61.5783 52.6794 61.5781 51.8469 61.0667 51.3353L59.7687 50.0374C60.2377 49.2099 60.6017 48.3331 60.8548 47.4211H62.6878C63.4115 47.4211 64.0002 46.8323 64.0002 46.1086V42.4836C64 41.7601 63.4112 41.1714 62.6875 41.1714ZM12.3594 8.49885C12.3594 7.77511 12.9482 7.18637 13.6719 7.18637H49.5977C50.3214 7.18637 50.9102 7.77511 50.9102 8.49885V19.1325H12.3594V8.49885ZM62.125 45.5463H60.4204C59.8077 45.5463 59.2818 45.9607 59.1417 46.5541C58.9013 47.5723 58.4982 48.5433 57.9436 49.4397C57.6228 49.9578 57.7011 50.6218 58.1337 51.0546L59.3427 52.2635L57.5748 54.0312L56.366 52.8224C55.9335 52.39 55.2696 52.3118 54.7514 52.632C53.8548 53.1867 52.884 53.59 51.8657 53.8302C51.2722 53.9704 50.8577 54.4962 50.8577 55.109V56.8137H48.3577V55.109C48.3577 54.4962 47.9432 53.9704 47.3497 53.8302C46.3315 53.59 45.3606 53.1869 44.4638 52.6319C43.9459 52.3116 43.282 52.39 42.8495 52.8224L41.6405 54.0312L39.8727 52.2635L41.0817 51.0546C41.5144 50.6218 41.5927 49.9578 41.2719 49.4399C40.7172 48.5433 40.3141 47.5724 40.0737 46.5542C39.9336 45.9607 39.4077 45.5463 38.795 45.5463H37.0904V43.0464H38.795C39.4077 43.0464 39.9336 42.6319 40.0737 42.0385C40.3141 41.0203 40.7172 40.0493 41.2718 39.1529C41.5925 38.6348 41.5143 37.9708 41.0816 37.538L39.8727 36.3291L41.6405 34.5614L42.8498 35.7706C43.2824 36.2029 43.9463 36.2809 44.464 35.9607C45.3606 35.406 46.3314 35.0027 47.3497 34.7625C47.9432 34.6224 48.3577 34.0965 48.3577 33.4838V31.779H50.8577V33.4838C50.8577 34.0965 51.2722 34.6224 51.8657 34.7625C52.8839 35.0027 53.8548 35.4059 54.7516 35.9609C55.2696 36.2811 55.9332 36.2027 56.3658 35.7704L57.5748 34.5615L59.3427 36.3292L58.1337 37.5381C57.7009 37.971 57.6227 38.6349 57.9434 39.1528C58.4982 40.0494 58.9013 41.0203 59.1417 42.0385C59.2818 42.632 59.8077 43.0465 60.4204 43.0465H62.125V45.5463Z" fill="#B0D3F0"/>
<path d="M49.6076 38.7397C46.5437 38.7397 44.0513 41.2323 44.0513 44.2962C44.3305 51.6573 54.8857 51.6553 55.1639 44.296C55.1639 41.2325 52.6714 38.7397 49.6076 38.7397ZM49.6076 47.9776C47.5777 47.9776 45.9262 46.3261 45.9262 44.2963C46.1114 39.419 53.1046 39.4204 53.2889 44.2963C53.2889 46.3261 51.6375 47.9776 49.6076 47.9776Z" fill="#B0D3F0"/>
</g>
<defs>
<clipPath id="clip0_2619_98">
<rect width="64" height="64" fill="white"/>
</clipPath>
</defs>
</svg>
