<svg width="64" height="64" viewBox="0 0 64 64" fill="none" xmlns="http://www.w3.org/2000/svg">
<path d="M34.319 32.3999C35.3098 31.8812 36.0981 31.0453 36.5579 30.0258C37.0177 29.0064 37.1224 27.8622 36.8553 26.7762C36.5883 25.6902 35.9648 24.725 35.0846 24.0351C34.2044 23.3452 33.1184 22.9702 32 22.9702C30.8816 22.9702 29.7956 23.3452 28.9154 24.0351C28.0352 24.725 27.4117 25.6902 27.1447 26.7762C26.8776 27.8622 26.9823 29.0064 27.4421 30.0258C27.9019 31.0453 28.6902 31.8812 29.681 32.3999C28.3141 32.881 27.1299 33.774 26.2916 34.956C25.4532 36.138 25.002 37.5508 25 38.9999C25 39.2651 25.1054 39.5195 25.2929 39.707C25.4804 39.8946 25.7348 39.9999 26 39.9999H38C38.2652 39.9999 38.5196 39.8946 38.7071 39.707C38.8946 39.5195 39 39.2651 39 38.9999C38.998 37.5508 38.5468 36.138 37.7084 34.956C36.8701 33.774 35.6859 32.881 34.319 32.3999ZM32 24.9999C32.5933 24.9999 33.1734 25.1759 33.6667 25.5055C34.1601 25.8351 34.5446 26.3037 34.7716 26.8519C34.9987 27.4 35.0581 28.0032 34.9424 28.5852C34.8266 29.1671 34.5409 29.7017 34.1213 30.1212C33.7018 30.5408 33.1672 30.8265 32.5853 30.9423C32.0033 31.058 31.4001 30.9986 30.8519 30.7716C30.3038 30.5445 29.8352 30.16 29.5056 29.6666C29.1759 29.1733 29 28.5933 29 27.9999C29 27.2043 29.3161 26.4412 29.8787 25.8786C30.4413 25.316 31.2044 24.9999 32 24.9999ZM27.1 37.9999C27.3295 36.8696 27.9427 35.8534 28.8357 35.1235C29.7288 34.3936 30.8466 33.9949 32 33.9949C33.1534 33.9949 34.2712 34.3936 35.1643 35.1235C36.0573 35.8534 36.6705 36.8696 36.9 37.9999H27.1Z" fill="#B0D3F0"/>
<path d="M52.9998 42.9998C50.6935 42.998 48.4581 43.7972 46.6758 45.2608L41.8618 40.4468C43.7642 38.2316 44.8611 35.4377 44.9738 32.5198L55.1858 32.1418C55.4705 33.0649 56.082 33.8526 56.9056 34.3575C57.7293 34.8623 58.7087 35.0496 59.6605 34.8844C60.6123 34.7192 61.4713 34.2128 62.0767 33.46C62.682 32.7071 62.9923 31.7595 62.9493 30.7944C62.9064 29.8293 62.5132 28.9129 61.8433 28.2168C61.1735 27.5207 60.2729 27.0926 59.3102 27.0126C58.3475 26.9326 57.3886 27.2062 56.613 27.7822C55.8375 28.3582 55.2984 29.1971 55.0968 30.1418L44.9088 30.5188C44.6906 28.6252 44.0586 26.8028 43.0577 25.1806C42.0568 23.5584 40.7113 22.1762 39.1168 21.1318L41.0278 17.6578C42.4502 18.1543 44.0072 18.0983 45.3903 17.5008C46.7733 16.9033 47.8814 15.8081 48.4949 14.4321C49.1084 13.0561 49.1826 11.4998 48.7027 10.0717C48.2228 8.6436 47.2239 7.44792 45.904 6.72164C44.584 5.99536 43.0393 5.7915 41.5762 6.15047C40.113 6.50943 38.8381 7.40502 38.0041 8.65972C37.1701 9.91443 36.838 11.4367 37.0735 12.9247C37.3091 14.4128 38.0951 15.758 39.2758 16.6938L37.3638 20.1698C35.1152 19.1402 32.6182 18.778 30.1698 19.1266C27.7214 19.4751 25.4247 20.5196 23.5528 22.1358L18.7388 17.3218C20.3654 15.3324 21.1651 12.7939 20.9726 10.2314C20.7801 7.66886 19.61 5.27836 17.7043 3.55435C15.7987 1.83034 13.3034 0.904721 10.7344 0.968953C8.16545 1.03318 5.71946 2.08235 3.90237 3.89944C2.08528 5.71653 1.03611 8.16252 0.971883 10.7315C0.907651 13.3004 1.83327 15.7958 3.55728 17.7014C5.28129 19.607 7.67179 20.7771 10.2343 20.9697C12.7968 21.1622 15.3354 20.3625 17.3248 18.7358L22.1388 23.5498C20.8649 25.0205 19.9413 26.7612 19.4378 28.6406C18.9342 30.52 18.8638 32.4892 19.2318 34.3998L10.4488 36.7638C9.89202 35.6835 8.95807 34.8451 7.82414 34.4078C6.6902 33.9704 5.43517 33.9645 4.29718 34.3912C3.15918 34.8179 2.21741 35.6475 1.65055 36.7225C1.0837 37.7976 0.931197 39.0433 1.22199 40.2234C1.51278 41.4035 2.22663 42.4357 3.22809 43.1243C4.22956 43.8129 5.44895 44.1099 6.6549 43.959C7.86085 43.8081 8.96945 43.2198 9.77035 42.3056C10.5712 41.3915 11.0087 40.2152 10.9998 38.9998C10.9998 38.8998 10.9758 38.7998 10.9688 38.6998L19.7578 36.3338C20.7696 39.1746 22.7338 41.5774 25.3168 43.1338L23.1998 47.3598C21.5179 46.7966 19.6852 46.8913 18.0704 47.6249C16.4556 48.3586 15.1786 49.6767 14.4965 51.3139C13.8144 52.9511 13.7778 54.786 14.3941 56.4491C15.0104 58.1123 16.2337 59.4802 17.818 60.2777C19.4023 61.0751 21.2298 61.2429 22.9327 60.7471C24.6357 60.2514 26.0876 59.129 26.9964 57.6058C27.9051 56.0826 28.2031 54.2718 27.8304 52.5377C27.4577 50.8037 26.442 49.2752 24.9878 48.2598L27.0998 44.0338C29.3082 44.9392 31.7243 45.2155 34.0801 44.8319C36.4359 44.4484 38.6396 43.42 40.4468 41.8608L45.2608 46.6748C43.8258 48.4329 43.0319 50.627 43.0095 52.8962C42.9871 55.1654 43.7376 57.3747 45.1375 59.1608C46.5375 60.9468 48.5035 62.2033 50.7124 62.7236C52.9213 63.2439 55.2415 62.997 57.2914 62.0235C59.3414 61.0501 60.999 59.408 61.9918 57.3674C62.9846 55.3267 63.2534 53.009 62.754 50.7953C62.2546 48.5816 61.0167 46.6037 59.2439 45.187C57.4712 43.7702 55.2691 42.9989 52.9998 42.9998ZM58.9998 28.9998C59.3953 28.9998 59.782 29.1171 60.1109 29.3369C60.4398 29.5567 60.6961 29.869 60.8475 30.2345C60.9989 30.5999 61.0385 31.002 60.9613 31.39C60.8842 31.778 60.6937 32.1343 60.414 32.414C60.1343 32.6937 59.7779 32.8842 59.3899 32.9614C59.002 33.0386 58.5998 32.999 58.2344 32.8476C57.8689 32.6962 57.5566 32.4399 57.3368 32.111C57.1171 31.7821 56.9998 31.3954 56.9998 30.9998C56.9998 30.4694 57.2105 29.9607 57.5855 29.5856C57.9606 29.2105 58.4693 28.9998 58.9998 28.9998ZM42.9998 7.99983C43.7909 7.99983 44.5642 8.23442 45.222 8.67395C45.8798 9.11348 46.3925 9.73819 46.6953 10.4691C46.998 11.2 47.0772 12.0043 46.9229 12.7802C46.7686 13.5561 46.3876 14.2688 45.8282 14.8283C45.2688 15.3877 44.556 15.7686 43.7801 15.923C43.0042 16.0773 42.1999 15.9981 41.469 15.6953C40.7381 15.3926 40.1134 14.8799 39.6739 14.2221C39.2344 13.5643 38.9998 12.791 38.9998 11.9998C38.9998 10.939 39.4212 9.92155 40.1713 9.1714C40.9215 8.42126 41.9389 7.99983 42.9998 7.99983ZM5.99976 41.9998C5.40641 41.9998 4.82639 41.8239 4.33305 41.4942C3.8397 41.1646 3.45518 40.6961 3.22812 40.1479C3.00106 39.5997 2.94165 38.9965 3.0574 38.4146C3.17316 37.8326 3.45888 37.2981 3.87844 36.8785C4.298 36.459 4.83254 36.1732 5.41449 36.0575C5.99643 35.9417 6.59963 36.0011 7.14781 36.2282C7.69599 36.4553 8.16452 36.8398 8.49417 37.3331C8.82381 37.8265 8.99976 38.4065 8.99976 38.9998C8.99976 39.7955 8.68369 40.5585 8.12108 41.1211C7.55847 41.6838 6.79541 41.9998 5.99976 41.9998ZM25.9998 53.9998C25.9998 54.9887 25.7065 55.9554 25.1571 56.7777C24.6077 57.5999 23.8268 58.2408 22.9132 58.6192C21.9995 58.9977 20.9942 59.0967 20.0243 58.9038C19.0544 58.7108 18.1635 58.2346 17.4642 57.5354C16.765 56.8361 16.2888 55.9452 16.0958 54.9753C15.9029 54.0054 16.0019 53 16.3804 52.0864C16.7588 51.1728 17.3997 50.3919 18.2219 49.8425C19.0442 49.2931 20.0109 48.9998 20.9998 48.9998C22.3254 49.0014 23.5962 49.5287 24.5335 50.466C25.4709 51.4034 25.9982 52.6742 25.9998 53.9998ZM2.99976 10.9998C2.99665 9.69999 3.31032 8.41897 3.91363 7.26761C4.51694 6.11626 5.39171 5.12925 6.46224 4.39199C7.53278 3.65474 8.76684 3.18945 10.0576 3.03637C11.3484 2.8833 12.6571 3.04706 13.8704 3.51349C15.0837 3.97991 16.165 4.73495 17.0209 5.71327C17.8767 6.69159 18.4813 7.86372 18.7823 9.12823C19.0833 10.3927 19.0716 11.7116 18.7483 12.9706C18.425 14.2296 17.7998 15.3908 16.9268 16.3538C16.9729 16.2414 16.9977 16.1213 16.9998 15.9998C17.0023 15.2116 16.8484 14.4307 16.547 13.7024C16.2455 12.974 15.8026 12.3127 15.2438 11.7568C14.8452 11.3584 14.3928 11.0177 13.8998 10.7448C14.4402 10.1782 14.8025 9.46535 14.9416 8.69473C15.0807 7.92412 14.9906 7.12962 14.6824 6.40974C14.3742 5.68987 13.8615 5.0763 13.2078 4.6451C12.5542 4.2139 11.7883 3.98406 11.0053 3.98406C10.2222 3.98406 9.45634 4.2139 8.80267 4.6451C8.14901 5.0763 7.63629 5.68987 7.32809 6.40974C7.01989 7.12962 6.92977 7.92412 7.0689 8.69473C7.20803 9.46535 7.57029 10.1782 8.11076 10.7448C7.16928 11.2621 6.38392 12.0226 5.83668 12.9469C5.28945 13.8713 5.00042 14.9256 4.99976 15.9998C5.00179 16.1201 5.02551 16.239 5.06976 16.3508C3.73866 14.8864 3.0007 12.9788 2.99976 10.9998ZM10.9998 9.99983C10.6042 9.99983 10.2175 9.88253 9.88862 9.66277C9.55972 9.443 9.30337 9.13065 9.152 8.76519C9.00062 8.39974 8.96102 7.99761 9.03819 7.60965C9.11536 7.22169 9.30584 6.86532 9.58555 6.58561C9.86525 6.30591 10.2216 6.11543 10.6096 6.03826C10.9975 5.96109 11.3997 6.00069 11.7651 6.15207C12.1306 6.30344 12.4429 6.55979 12.6627 6.88869C12.8825 7.21759 12.9998 7.60427 12.9998 7.99983C12.9998 8.53026 12.789 9.03897 12.414 9.41404C12.0389 9.78911 11.5302 9.99983 10.9998 9.99983ZM10.9998 11.9998C11.8865 11.9998 12.7482 12.2945 13.4493 12.8375C14.1503 13.3806 14.6511 14.1412 14.8728 14.9998H7.12576C7.34858 14.1416 7.84976 13.3816 8.55079 12.8387C9.25182 12.2958 10.1131 12.0008 10.9998 11.9998ZM5.64976 16.9298C5.76121 16.9742 5.87981 16.9979 5.99976 16.9998H15.9998C16.1215 16.9981 16.2419 16.9737 16.3548 16.9278C14.8911 18.2594 12.9835 18.9974 11.0048 18.9974C9.02602 18.9974 7.1184 18.2594 5.65476 16.9278L5.64976 16.9298ZM20.9998 31.9998C20.9998 29.8242 21.6449 27.6975 22.8536 25.8886C24.0623 24.0796 25.7803 22.6697 27.7902 21.8372C29.8002 21.0046 32.012 20.7868 34.1458 21.2112C36.2795 21.6356 38.2396 22.6833 39.7779 24.2217C41.3163 25.76 42.364 27.72 42.7884 29.8538C43.2128 31.9876 42.995 34.1994 42.1624 36.2093C41.3299 38.2193 39.92 39.9373 38.111 41.146C36.3021 42.3547 34.1754 42.9998 31.9998 42.9998C29.0834 42.9964 26.2875 41.8364 24.2254 39.7742C22.1632 37.712 21.0032 34.9162 20.9998 31.9998ZM47.6498 58.9298C47.7612 58.9742 47.8798 58.9979 47.9998 58.9998H57.9998C58.1215 58.9981 58.2419 58.9737 58.3548 58.9278C56.8911 60.2594 54.9835 60.9974 53.0048 60.9974C51.026 60.9974 49.1184 60.2594 47.6548 58.9278L47.6498 58.9298ZM52.9998 51.9998C52.6042 51.9998 52.2175 51.8825 51.8886 51.6628C51.5597 51.443 51.3034 51.1306 51.152 50.7652C51.0006 50.3997 50.961 49.9976 51.0382 49.6096C51.1154 49.2217 51.3058 48.8653 51.5855 48.5856C51.8652 48.3059 52.2216 48.1154 52.6096 48.0383C52.9975 47.9611 53.3997 48.0007 53.7651 48.1521C54.1306 48.3034 54.4429 48.5598 54.6627 48.8887C54.8825 49.2176 54.9998 49.6043 54.9998 49.9998C54.9998 50.5303 54.789 51.039 54.414 51.414C54.0389 51.7891 53.5302 51.9998 52.9998 51.9998ZM52.9998 53.9998C53.8865 53.9998 54.7482 54.2945 55.4493 54.8375C56.1503 55.3806 56.6511 56.1412 56.8728 56.9998H49.1258C49.3486 56.1416 49.8498 55.3816 50.5508 54.8387C51.2518 54.2958 52.1131 54.0008 52.9998 53.9998ZM58.9258 58.3538C58.9722 58.2415 58.9973 58.1214 58.9998 57.9998C59.0023 57.2116 58.8484 56.4307 58.547 55.7024C58.2455 54.974 57.8026 54.3127 57.2438 53.7568C56.8452 53.3584 56.3928 53.0177 55.8998 52.7448C56.4402 52.1782 56.8025 51.4653 56.9416 50.6947C57.0807 49.9241 56.9906 49.1296 56.6824 48.4097C56.3742 47.6899 55.8615 47.0763 55.2078 46.6451C54.5542 46.2139 53.7883 45.9841 53.0053 45.9841C52.2222 45.9841 51.4563 46.2139 50.8027 46.6451C50.149 47.0763 49.6363 47.6899 49.3281 48.4097C49.0199 49.1296 48.9298 49.9241 49.0689 50.6947C49.208 51.4653 49.5703 52.1782 50.1108 52.7448C49.1693 53.2621 48.3839 54.0226 47.8367 54.9469C47.2895 55.8713 47.0004 56.9256 46.9998 57.9998C47.0018 58.1201 47.0255 58.239 47.0698 58.3508C46.0299 57.2031 45.3455 55.7783 45.0997 54.2492C44.8539 52.7201 45.0571 51.1526 45.6848 49.7368C46.3126 48.321 47.3377 47.1179 48.6359 46.2734C49.9341 45.4289 51.4496 44.9793 52.9983 44.9793C54.547 44.9793 56.0624 45.4289 57.3606 46.2734C58.6588 47.1179 59.684 48.321 60.3117 49.7368C60.9394 51.1526 61.1427 52.7201 60.8968 54.2492C60.651 55.7783 59.9666 57.2031 58.9268 58.3508L58.9258 58.3538Z" fill="#B0D3F0"/>
</svg>
