<svg width="64" height="64" viewBox="0 0 64 64" fill="none" xmlns="http://www.w3.org/2000/svg">
<path d="M35.8186 40.1413C35.5094 39.8323 35.0823 39.682 34.6494 39.7281C34.212 39.7749 33.8239 40.0146 33.5846 40.3859C33.0233 41.3041 31.421 41.6051 30.5741 40.5384C30.0399 39.8759 30.034 38.9098 30.5601 38.2411C30.6933 38.0718 30.8509 37.9286 31.0284 37.8156C31.3944 37.5824 31.6315 37.2002 31.679 36.7669C31.7271 36.3287 31.5759 35.8989 31.2645 35.5872L27.6777 32.0003L30.9114 28.7665C31.0699 28.9497 31.2465 29.1179 31.4398 29.2691C32.7921 30.3288 34.7417 30.3125 36.0755 29.2302V29.2301C37.7669 27.9144 37.9782 25.0016 36.1725 23.5051L38.8878 20.7899C39.3802 20.2974 39.6515 19.6426 39.6515 18.9462C39.6515 18.2497 39.3802 17.5949 38.8878 17.1025L35.8188 14.0335C35.5099 13.7247 35.0837 13.5742 34.6503 13.6204C34.213 13.667 33.825 13.9064 33.5855 14.2776C33.0369 15.1755 31.4878 15.4947 30.6225 14.4879C30.0271 13.8048 30.0287 12.7362 30.626 12.0553C30.7451 11.9195 30.8808 11.8026 31.029 11.7081C31.3952 11.4745 31.6323 11.0918 31.6797 10.6585C31.7274 10.2208 31.5763 9.79126 31.2652 9.47988L28.1953 6.41001C27.7028 5.91762 27.048 5.64648 26.3516 5.64648C25.6551 5.64648 25.0003 5.91762 24.5079 6.41001L21.7927 9.12536C21.7337 9.05724 21.6722 8.99123 21.6084 8.92736C20.1539 7.47305 17.7878 7.4733 16.3335 8.92736C14.8561 10.405 14.8826 12.9635 16.5315 14.3866L11.7856 19.1324C11.4194 19.4986 11.4194 20.0921 11.7856 20.4583C12.1518 20.8243 12.7453 20.8243 13.1115 20.4583L13.2975 20.2722L17.3813 24.3558C17.5962 24.5706 17.901 24.6658 18.1983 24.6157C18.216 24.6127 18.2339 24.6112 18.2517 24.6071C18.5658 24.5358 18.8213 24.3083 18.9285 24.0047C19.246 22.9601 20.892 22.2011 21.9913 23.3088C22.8018 24.071 22.7716 25.8282 21.2937 26.37C20.9899 26.4771 20.7625 26.7326 20.6913 27.0468C20.6201 27.3608 20.7149 27.6894 20.9427 27.9172L25.0256 32.0001L21.7928 35.2328C20.4315 33.562 17.4811 33.5068 16.0673 35.3305C14.9853 36.6643 14.9691 38.6138 16.029 39.9661C16.1802 40.1591 16.3486 40.3356 16.5316 40.4939L13.2984 43.727L9.71149 40.14C9.39997 39.8285 8.96996 39.6775 8.53157 39.7255C8.09843 39.773 7.71641 40.01 7.4834 40.3759C7.3694 40.555 7.22477 40.7138 7.05364 40.8475C6.38249 41.3728 5.41595 41.3646 4.75543 40.828C3.9129 40.1739 3.76076 38.544 4.91368 37.8206C5.28495 37.5813 5.52458 37.1933 5.57133 36.7558C5.61771 36.3217 5.4672 35.8957 5.15832 35.5867L2.08808 32.5165C1.80257 32.2311 1.80257 31.7666 2.08808 31.4812L4.8033 28.7658C4.96231 28.9496 5.13957 29.1182 5.3337 29.2701C6.6865 30.329 8.6362 30.312 9.96924 29.2296C11.6616 27.9118 11.8699 24.9952 10.0595 23.5003C10.349 23.1324 10.3241 22.5977 9.98487 22.2584C9.61861 21.8923 9.02508 21.8923 8.65895 22.2584L8.38469 22.5326C8.0758 22.8416 7.92517 23.2678 7.97155 23.7018C8.0183 24.1392 8.25806 24.5273 8.62932 24.7666C9.54485 25.3271 9.84999 26.9251 8.78745 27.7741C8.12705 28.3106 7.16039 28.3186 6.48937 27.7936C6.31823 27.6597 6.17373 27.5009 6.05972 27.322C5.82684 26.956 5.44458 26.7189 5.01131 26.6714C4.57379 26.6236 4.1429 26.7745 3.83139 27.086L0.762403 30.1559C-0.254134 31.1726 -0.254134 32.8265 0.762403 33.8432L3.47863 36.5594C1.80782 37.9191 1.75156 40.8705 3.57401 42.2843C4.90681 43.3666 6.85625 43.3836 8.20955 42.3248C8.40356 42.1728 8.58094 42.0043 8.73982 41.8205L16.887 49.9678C17.1949 50.2756 17.6199 50.4249 18.0519 50.3799C18.4899 50.3334 18.8792 50.0933 19.1201 49.7207C19.5402 48.94 21.0288 48.5593 21.8537 49.2901C22.2662 49.6304 22.5073 50.1089 22.5326 50.6374C22.5576 51.1592 22.3605 51.6698 21.9917 52.0385C21.8978 52.1325 21.7943 52.2161 21.6843 52.287C21.3132 52.5261 21.0734 52.9142 21.0267 53.3515C20.9803 53.7855 21.1309 54.2117 21.4398 54.5207L24.509 57.5898C25.0014 58.0823 25.6562 58.3534 26.3527 58.3534C27.0491 58.3534 27.7039 58.0823 28.1964 57.5899L30.9116 54.8746C32.1328 56.3586 34.6785 56.6088 36.1785 55.2521H36.1786C37.7893 53.9065 37.9338 51.0929 36.1728 49.6135L38.8879 46.8983C39.3805 46.4059 39.6516 45.7511 39.6516 45.0546C39.6516 44.3582 39.3805 43.7034 38.8881 43.2109L35.8186 40.1413ZM23.1187 27.4415C24.5585 26.2057 24.9943 23.5863 23.3217 21.9882C22.0084 20.6164 19.2773 20.4205 17.8574 22.1801L14.6237 18.9464L18.2113 15.3588C18.5201 15.05 18.6707 14.6239 18.6244 14.1899C18.5778 13.7528 18.3383 13.3648 17.9677 13.1258C17.072 12.5997 16.817 11.0722 17.6597 10.2533C18.3827 9.53 19.5592 9.53 20.283 10.2535C20.377 10.3475 20.4608 10.4509 20.5318 10.5613C20.7711 10.9321 21.1592 11.1714 21.5964 11.2181C22.0298 11.2638 22.4562 11.1136 22.7651 10.8049L25.8341 7.73581C25.9723 7.59756 26.1562 7.52143 26.3519 7.52143C26.5475 7.52143 26.7312 7.59743 26.8696 7.73594L29.5858 10.452C29.4551 10.5652 29.3318 10.6878 29.2167 10.8191C27.9933 12.2139 27.99 14.3208 29.2092 15.7199C30.5553 17.3294 33.3665 17.475 34.8469 15.7134L37.5623 18.4286C37.7005 18.5668 37.7768 18.7507 37.7768 18.9464C37.7768 19.142 37.7005 19.3257 37.5621 19.4641L34.4929 22.5334C34.184 22.8424 34.0335 23.2684 34.0799 23.7024C34.1266 24.1398 34.3663 24.5279 34.7374 24.7671C35.6537 25.3282 35.9575 26.9254 34.8943 27.7746C34.2333 28.3109 33.267 28.3187 32.5966 27.7934C32.426 27.6598 32.2816 27.5013 32.1678 27.3225C31.9348 26.9565 31.5527 26.7195 31.1194 26.672C30.6806 26.6239 30.2511 26.7753 29.9396 27.0867L26.3519 30.6745L23.1187 27.4415ZM37.5619 45.5721L34.493 48.641C34.1843 48.9498 34.0336 49.3759 34.0799 49.8099C34.1265 50.247 34.366 50.635 34.7363 50.8739C35.6342 51.4224 35.9545 52.9726 34.947 53.8378C34.1833 54.4657 32.8043 54.4454 32.1676 53.4309C31.9339 53.0647 31.5513 52.8276 31.118 52.7802C30.6799 52.7332 30.2507 52.8835 29.9394 53.1947L26.8704 56.2637C26.7321 56.4021 26.5482 56.4782 26.3526 56.4782C26.157 56.4782 25.9732 56.4022 25.8348 56.2637L23.1195 53.5485C23.1876 53.4895 23.2536 53.428 23.3175 53.3643C24.059 52.6226 24.4555 51.5959 24.4054 50.5477C24.3553 49.4999 23.86 48.5142 23.0467 47.8433C21.5435 46.6435 19.2193 46.7084 17.8574 48.2863L14.6244 45.0534L18.7074 40.9705C18.9351 40.7428 19.03 40.4142 18.9588 40.1001C18.8876 39.786 18.6601 39.5305 18.3566 39.4235C18.0214 39.3052 17.727 39.093 17.505 38.8098C16.9796 38.1394 16.9874 37.1732 17.5237 36.5121C18.2957 35.5138 20.2 35.5872 20.7216 37.0579C20.9178 37.5725 21.6497 37.9567 22.2688 37.4092L26.3519 33.3263L29.5847 36.5591C29.4036 36.716 29.237 36.8906 29.0867 37.0816C28.0254 38.4306 28.0372 40.3794 29.115 41.7154C30.4273 43.4138 33.3485 43.6296 34.8469 41.8212L37.5621 44.5366C37.7005 44.6748 37.7766 44.8587 37.7766 45.0543C37.7766 45.25 37.7003 45.4336 37.5619 45.5721Z" fill="#B0D3F0"/>
<path d="M63.2378 30.1567L60.5224 27.4415C62.116 26.1367 62.2932 23.2336 60.5198 21.7958C59.0304 20.5089 56.6089 20.6051 55.2602 22.1793L52.5451 19.4641C51.5283 18.4475 49.8744 18.4475 48.8579 19.4641L45.7883 22.5336C45.4794 22.8426 45.329 23.2686 45.3754 23.7026C45.4222 24.14 45.6619 24.528 46.0331 24.7673C46.9492 25.3282 47.2528 26.9256 46.1898 27.7744C45.4137 28.3479 44.1207 28.3463 43.4634 27.3226C43.2305 26.9567 42.8484 26.7196 42.4151 26.6721C41.9777 26.6242 41.5469 26.7751 41.2352 27.0867L38.6179 29.7041C38.2517 30.0703 38.2517 30.6639 38.6179 31.03C38.9841 31.396 39.5777 31.396 39.9438 31.03L42.207 28.7667C43.335 30.176 45.8979 30.5091 47.3711 29.2304C49.0625 27.9148 49.2738 25.0019 47.4681 23.5055L50.1835 20.7902C50.3218 20.652 50.5057 20.5757 50.7013 20.5757C50.8969 20.5757 51.0807 20.6519 51.2191 20.7902L54.2881 23.8592C54.5992 24.1702 55.0278 24.3209 55.4665 24.2737C55.9 24.2264 56.2825 23.9892 56.5162 23.6231C56.9762 22.7939 58.4652 22.4553 59.2924 23.2136C60.0942 23.8831 60.2185 25.4738 59.0864 26.1806C58.7156 26.4199 58.4762 26.8078 58.4296 27.245C58.3833 27.6789 58.5339 28.1048 58.8427 28.4139L61.9117 31.4829C62.1972 31.7683 62.1972 32.2328 61.9117 32.5183L59.1965 35.2336C57.8926 33.6423 55.0006 33.4621 53.5592 35.2263C52.3395 36.6253 52.3425 38.7324 53.5658 40.1272C53.6809 40.2586 53.8044 40.3813 53.9353 40.4946L51.2191 43.2107C51.0808 43.3489 50.8969 43.4253 50.7013 43.4253C50.5057 43.4253 50.3219 43.3491 50.1835 43.2107L47.1143 40.1415C46.8053 39.8326 46.3788 39.6827 45.9451 39.7283C45.5077 39.7751 45.1196 40.0148 44.8807 40.3857C44.3188 41.3042 42.717 41.6055 41.8699 40.5385C41.3356 39.8761 41.3296 38.91 41.8555 38.2415C41.989 38.072 42.1466 37.9286 42.3241 37.8157C42.6901 37.5826 42.9273 37.2005 42.9747 36.7672C43.0228 36.3291 42.8717 35.899 42.5601 35.5875L40.9733 34.0006C40.6072 33.6345 40.0135 33.6343 39.6475 34.0005C39.2813 34.3666 39.2813 34.9603 39.6474 35.3263L40.8803 36.5593C40.6992 36.7161 40.5327 36.8906 40.3822 37.0817C39.3209 38.4308 39.3328 40.3796 40.4106 41.7155C41.723 43.414 44.644 43.6296 46.1425 41.8213L48.8577 44.5366C49.366 45.0448 50.0338 45.299 50.7014 45.299C51.3691 45.299 52.0369 45.0449 52.5451 44.5366L55.615 41.4668C55.9261 41.1555 56.0773 40.726 56.0295 40.2882C55.9823 39.8548 55.7453 39.4723 55.3791 39.2387C55.2306 39.1439 55.095 39.027 54.9756 38.8909C54.3784 38.21 54.3771 37.1415 54.9726 36.4584C55.6442 35.6605 57.2302 35.5383 57.9355 36.6695C58.1748 37.0403 58.563 37.2797 59.0002 37.3264C59.4331 37.3724 59.8599 37.2218 60.1688 36.9131L63.2378 33.8441C64.2543 32.8274 64.2543 31.1734 63.2378 30.1567Z" fill="#B0D3F0"/>
</svg>
