<svg width="64" height="64" viewBox="0 0 64 64" fill="none" xmlns="http://www.w3.org/2000/svg">
<g clip-path="url(#clip0_2602_156)">
<path d="M43.7894 60.6315H11.7894C9.00326 60.6315 6.73682 58.365 6.73682 55.5788V33.1227C6.73682 32.1929 7.49121 31.4385 8.42103 31.4385C9.35085 31.4385 10.1052 32.1929 10.1052 33.1227V55.5788C10.1052 56.5076 10.8607 57.263 11.7894 57.263H43.7894C44.7193 57.263 45.4737 58.0174 45.4737 58.9472C45.4737 59.8771 44.7193 60.6315 43.7894 60.6315Z" fill="#B0D3F0"/>
<path d="M49.9649 25.8245C49.0351 25.8245 48.2807 25.0702 48.2807 24.1403V8.42104C48.2807 7.49231 47.5252 6.73683 46.5965 6.73683H20.1886C19.2588 6.73683 18.5044 5.98244 18.5044 5.05262C18.5044 4.1228 19.2588 3.36841 20.1886 3.36841H46.5965C49.3827 3.36841 51.6491 5.63485 51.6491 8.42104V24.1403C51.6491 25.0702 50.8947 25.8245 49.9649 25.8245Z" fill="#B0D3F0"/>
<path d="M23.0175 34.807H5.05263C2.26644 34.807 0 32.5405 0 29.7543V16.2807C0 13.4945 2.26644 11.228 5.05263 11.228H23.0175C25.8037 11.228 28.0702 13.4945 28.0702 16.2807V29.7543C28.0702 32.5405 25.8037 34.807 23.0175 34.807ZM5.05263 14.5964C4.1239 14.5964 3.36842 15.3519 3.36842 16.2807V29.7543C3.36842 30.6831 4.1239 31.4386 5.05263 31.4386H23.0175C23.9463 31.4386 24.7018 30.6831 24.7018 29.7543V16.2807C24.7018 15.3519 23.9463 14.5964 23.0175 14.5964H5.05263Z" fill="#B0D3F0"/>
<path d="M14.0352 24.6097C16.0251 24.6097 17.6383 22.9966 17.6383 21.0067C17.6383 19.0167 16.0251 17.4036 14.0352 17.4036C12.0453 17.4036 10.4321 19.0167 10.4321 21.0067C10.4321 22.9966 12.0453 24.6097 14.0352 24.6097Z" fill="#B0D3F0"/>
<path d="M14.0353 29.193C13.1055 29.193 12.3511 28.4386 12.3511 27.5087V23.671C12.3511 22.7412 13.1055 21.9868 14.0353 21.9868C14.9651 21.9868 15.7195 22.7412 15.7195 23.671V27.5087C15.7195 28.4386 14.9651 29.193 14.0353 29.193Z" fill="#B0D3F0"/>
<path d="M21.3334 14.5965C20.4036 14.5965 19.6492 13.8421 19.6492 12.9123V8.98246C19.6492 5.88706 17.1306 3.36842 14.0352 3.36842C12.5396 3.36842 11.1262 3.95285 10.0571 5.01425C9.00559 6.07347 8.42116 7.48684 8.42116 8.98246V12.9123C8.42116 13.8421 7.66676 14.5965 6.73694 14.5965C5.80713 14.5965 5.05273 13.8421 5.05273 12.9123V8.98246C5.05273 6.5921 5.98365 4.33662 7.67444 2.63158C9.38935 0.930919 11.6448 0 14.0352 0C18.988 0 23.0176 4.02961 23.0176 8.98246V12.9123C23.0176 13.8421 22.2633 14.5965 21.3334 14.5965Z" fill="#B0D3F0"/>
<path d="M43.228 21.3333H33.1227C32.1929 21.3333 31.4385 20.5789 31.4385 19.6491C31.4385 18.7192 32.1929 17.9648 33.1227 17.9648H43.228C44.1578 17.9648 44.9122 18.7192 44.9122 19.6491C44.9122 20.5789 44.1578 21.3333 43.228 21.3333Z" fill="#B0D3F0"/>
<path d="M43.228 28.0701H33.1227C32.1929 28.0701 31.4385 27.3157 31.4385 26.3859C31.4385 25.4561 32.1929 24.7017 33.1227 24.7017H43.228C44.1578 24.7017 44.9122 25.4561 44.9122 26.3859C44.9122 27.3157 44.1578 28.0701 43.228 28.0701Z" fill="#B0D3F0"/>
<path d="M30.8771 41.544H15.1578C14.228 41.544 13.4736 40.7896 13.4736 39.8597C13.4736 38.9299 14.228 38.1755 15.1578 38.1755H30.8771C31.807 38.1755 32.5614 38.9299 32.5614 39.8597C32.5614 40.7896 31.807 41.544 30.8771 41.544Z" fill="#B0D3F0"/>
<path d="M30.8771 48.2808H15.1578C14.228 48.2808 13.4736 47.5264 13.4736 46.5966C13.4736 45.6667 14.228 44.9124 15.1578 44.9124H30.8771C31.807 44.9124 32.5614 45.6667 32.5614 46.5966C32.5614 47.5264 31.807 48.2808 30.8771 48.2808Z" fill="#B0D3F0"/>
<path d="M49.9648 63.9999C49.6874 63.9999 49.41 63.9308 49.1589 63.7937L40.3189 58.9724C37.6117 57.4955 35.9297 54.6632 35.9297 51.5799V34.5602C35.9297 33.8156 36.4187 33.1588 37.1325 32.9461L49.4834 29.263C49.7839 29.1731 50.1051 29.1698 50.4078 29.2521L62.7586 32.6194C63.4911 32.8189 63.9999 33.4845 63.9999 34.2444V51.5799C63.9999 54.6632 62.3178 57.4955 59.6117 58.9724L50.7707 63.7937C50.5196 63.9308 50.2422 63.9999 49.9648 63.9999ZM39.2981 35.8156V51.5799C39.2981 53.4297 40.3069 55.1292 41.9319 56.0163L49.9648 60.3968L57.9988 56.0163C59.6227 55.1292 60.6314 53.4297 60.6314 51.5799V35.5306L49.9856 32.6281L39.2981 35.8156Z" fill="#B0D3F0"/>
<path d="M48.8421 50.5275C48.488 50.5275 48.1327 50.4167 47.8312 50.1909L43.3399 46.8225C42.5965 46.2643 42.4452 45.2084 43.0033 44.4639C43.5625 43.7205 44.6174 43.5703 45.3619 44.1273L48.6842 46.6196L54.3882 40.9146C55.0461 40.2567 56.1119 40.2567 56.7698 40.9146C57.4277 41.5725 57.4277 42.6383 56.7698 43.2961L50.0329 50.0341C49.7062 50.3608 49.2753 50.5275 48.8421 50.5275Z" fill="#B0D3F0"/>
</g>
<defs>
<clipPath id="clip0_2602_156">
<rect width="64" height="64" fill="white"/>
</clipPath>
</defs>
</svg>
