<svg width="64" height="64" viewBox="0 0 64 64" fill="none" xmlns="http://www.w3.org/2000/svg">
<g clip-path="url(#clip0_2615_334)">
<path d="M6.40039 4.2666H8.53372V6.39994H6.40039V4.2666Z" fill="#B0D3F0"/>
<path d="M10.667 4.2666H12.8003V6.39994H10.667V4.2666Z" fill="#B0D3F0"/>
<path d="M14.9336 4.2666H17.0669V6.39994H14.9336V4.2666Z" fill="#B0D3F0"/>
<path d="M7.46706 27.7334H24.5337C24.8166 27.7334 25.0879 27.621 25.288 27.4209C25.488 27.2209 25.6004 26.9496 25.6004 26.6667V16C25.6004 15.7171 25.488 15.4458 25.288 15.2458C25.0879 15.0457 24.8166 14.9333 24.5337 14.9333H7.46706C7.18416 14.9333 6.91285 15.0457 6.71281 15.2458C6.51277 15.4458 6.40039 15.7171 6.40039 16V26.6667C6.40039 26.9496 6.51277 27.2209 6.71281 27.4209C6.91285 27.621 7.18416 27.7334 7.46706 27.7334ZM8.53372 17.0667H23.4671V25.6H8.53372V17.0667Z" fill="#B0D3F0"/>
<path d="M34.1338 16H51.2005V18.1333H34.1338V16Z" fill="#B0D3F0"/>
<path d="M29.8662 20.2666H49.0662V22.3999H29.8662V20.2666Z" fill="#B0D3F0"/>
<path d="M29.8662 24.5334H44.7995V26.6668H29.8662V24.5334Z" fill="#B0D3F0"/>
<path d="M10.667 32H38.4003V34.1333H10.667V32Z" fill="#B0D3F0"/>
<path d="M6.40039 36.2666H34.1337V38.3999H6.40039V36.2666Z" fill="#B0D3F0"/>
<path d="M6.40039 40.5334H29.8671V42.6668H6.40039V40.5334Z" fill="#B0D3F0"/>
<path d="M6.40039 44.8H29.8671V46.9334H6.40039V44.8Z" fill="#B0D3F0"/>
<path d="M6.40039 49.0667H29.8671V51.2H6.40039V49.0667Z" fill="#B0D3F0"/>
<path d="M6.40039 32H8.53372V34.1333H6.40039V32Z" fill="#B0D3F0"/>
<path d="M58.6667 6.4H57.6V5.33333C57.6 3.91885 57.0381 2.56229 56.0379 1.5621C55.0377 0.561903 53.6812 0 52.2667 0H5.33333C3.91885 0 2.56229 0.561903 1.5621 1.5621C0.561903 2.56229 0 3.91885 0 5.33333V52.2667C0 53.6812 0.561903 55.0377 1.5621 56.0379C2.56229 57.0381 3.91885 57.6 5.33333 57.6H6.4V58.6667C6.4 60.0812 6.9619 61.4377 7.9621 62.4379C8.96229 63.4381 10.3188 64 11.7333 64H58.6667C60.0812 64 61.4377 63.4381 62.4379 62.4379C63.4381 61.4377 64 60.0812 64 58.6667V11.7333C64 10.3188 63.4381 8.96229 62.4379 7.9621C61.4377 6.9619 60.0812 6.4 58.6667 6.4ZM56.7573 22.976L61.2907 27.5093L58.272 30.528L53.7387 25.9947L56.7573 22.976ZM37.472 44.4267L38.3147 42.24L42.0267 45.952L39.84 46.7947L37.472 44.4267ZM37.664 47.6267L35.9893 48.2773L36.64 46.6027L37.664 47.6267ZM40.9173 41.8347L39.4133 40.3307L52.2347 27.5093L53.7387 29.0133L40.9173 41.8347ZM55.2533 30.528L56.7573 32.032L43.936 44.8533L42.432 43.3493L55.2533 30.528ZM2.13333 5.33333C2.13587 4.48542 2.47382 3.67296 3.07339 3.07339C3.67296 2.47382 4.48542 2.13587 5.33333 2.13333H52.2667C53.1146 2.13587 53.927 2.47382 54.5266 3.07339C55.1262 3.67296 55.4641 4.48542 55.4667 5.33333V8.53333H2.13333V5.33333ZM5.33333 55.4667C4.48542 55.4641 3.67296 55.1262 3.07339 54.5266C2.47382 53.927 2.13587 53.1146 2.13333 52.2667V10.6667H55.4667V21.2587L37.152 39.5733C37.0451 39.6794 36.9616 39.8065 36.9067 39.9467L33.1413 49.7493C33.0639 49.9416 33.0448 50.1524 33.0866 50.3554C33.1283 50.5584 33.229 50.7446 33.376 50.8907C33.5778 51.0896 33.85 51.2008 34.1333 51.2C34.265 51.2011 34.3956 51.1757 34.5173 51.1253L44.32 47.36C44.4602 47.3051 44.5873 47.2215 44.6933 47.1147L55.4667 36.3413V52.2667C55.4641 53.1146 55.1262 53.927 54.5266 54.5266C53.927 55.1262 53.1146 55.4641 52.2667 55.4667H5.33333ZM61.8667 58.6667C61.8641 59.5146 61.5262 60.327 60.9266 60.9266C60.327 61.5262 59.5146 61.8641 58.6667 61.8667H11.7333C10.8854 61.8641 10.073 61.5262 9.47339 60.9266C8.87382 60.327 8.53587 59.5146 8.53333 58.6667V57.6H52.2667C53.6812 57.6 55.0377 57.0381 56.0379 56.0379C57.0381 55.0377 57.6 53.6812 57.6 52.2667V34.208L61.8667 29.9413V58.6667ZM61.8667 25.0667L57.6 20.8V17.0667H61.8667V25.0667ZM61.8667 14.9333H57.6V8.53333H58.6667C59.5146 8.53587 60.327 8.87382 60.9266 9.47339C61.5262 10.073 61.8641 10.8854 61.8667 11.7333V14.9333Z" fill="#B0D3F0"/>
<path d="M29.8662 16H31.9995V18.1333H29.8662V16Z" fill="#B0D3F0"/>
</g>
<defs>
<clipPath id="clip0_2615_334">
<rect width="64" height="64" fill="white"/>
</clipPath>
</defs>
</svg>
