<svg width="64" height="64" viewBox="0 0 64 64" fill="none" xmlns="http://www.w3.org/2000/svg">
<path d="M33 9C34.103 9 35 9.897 35 11H37C37 8.794 35.206 7 33 7C30.794 7 29 8.794 29 11V13C29 15.206 30.794 17 33 17C35.206 17 37 15.206 37 13H35C35 14.103 34.103 15 33 15C31.897 15 31 14.103 31 13V11C31 9.897 31.897 9 33 9Z" fill="#B0D3F0"/>
<path d="M44 7H39V17H41V13H44C44.551 13 45 13.449 45 14V17H47V14C47 13.229 46.699 12.532 46.22 12C46.7 11.468 47 10.771 47 10C47 8.346 45.654 7 44 7ZM41 11V9H44C44.551 9 45 9.449 45 10C45 10.551 44.551 11 44 11H41Z" fill="#B0D3F0"/>
<path d="M54.279 13H53.721L51.721 7H49V17H51V11.162L52.279 15H55.721L57 11.162V17H59V7H56.279L54.279 13Z" fill="#B0D3F0"/>
<path d="M5 21H7V23H5V21Z" fill="#B0D3F0"/>
<path d="M9 21H11V23H9V21Z" fill="#B0D3F0"/>
<path d="M13 21H15V23H13V21Z" fill="#B0D3F0"/>
<path d="M52 31H36C34.346 31 33 32.346 33 34V36C33 37.654 34.346 39 36 39V41C34.346 41 33 42.346 33 44V46C33 47.654 34.346 49 36 49V51C34.346 51 33 52.346 33 54V56C33 57.654 34.346 59 36 59H52C53.654 59 55 57.654 55 56V54C55 52.346 53.654 51 52 51V49C53.654 49 55 47.654 55 46V44C55 42.346 53.654 41 52 41V39C53.654 39 55 37.654 55 36V34C55 32.346 53.654 31 52 31ZM53 54V56C53 56.552 52.551 57 52 57H36C35.449 57 35 56.552 35 56V54C35 53.448 35.449 53 36 53H52C52.551 53 53 53.448 53 54ZM50 51H38V49H50V51ZM53 44V46C53 46.552 52.551 47 52 47H36C35.449 47 35 46.552 35 46V44C35 43.448 35.449 43 36 43H52C52.551 43 53 43.448 53 44ZM50 41H38V39H50V41ZM53 36C53 36.552 52.551 37 52 37H36C35.449 37 35 36.552 35 36V34C35 33.448 35.449 33 36 33H52C52.551 33 53 33.448 53 34V36Z" fill="#B0D3F0"/>
<path d="M58 1H30C27.243 1 25 3.243 25 6V17H4C2.346 17 1 18.346 1 20V60C1 61.654 2.346 63 4 63H56C57.654 63 59 61.654 59 60V22.899C61.279 22.434 63 20.415 63 18V6C63 3.243 60.757 1 58 1ZM4 19H25.101C25.566 21.279 27.585 23 30 23H33.532L35.199 25H3V20C3 19.449 3.449 19 4 19ZM56 61H4C3.449 61 3 60.552 3 60V27H36.865L37.619 27.905C38.199 28.601 39.051 29 39.957 29C41.267 29 42.376 28.163 42.804 27H57V60C57 60.552 56.551 61 56 61ZM43 25V23H57V25H43ZM61 18C61 19.654 59.654 21 58 21H41V25.957C41 26.532 40.532 27 39.957 27C39.646 27 39.354 26.863 39.155 26.625L34.468 21H30C28.346 21 27 19.654 27 18V6C27 4.346 28.346 3 30 3H58C59.654 3 61 4.346 61 6V18Z" fill="#B0D3F0"/>
<path d="M18 51C24.065 51 29 46.065 29 40C29 33.935 24.065 29 18 29C11.935 29 7 33.935 7 40C7 46.065 11.935 51 18 51ZM18 49C15.878 49 13.929 48.258 12.389 47.025L18.414 41H26.941C26.442 45.493 22.624 49 18 49ZM25.025 34.389C26.061 35.684 26.748 37.267 26.941 39H20.414L25.025 34.389ZM23.611 32.975L18 38.586L12.389 32.975C13.929 31.742 15.878 31 18 31C20.122 31 22.071 31.742 23.611 32.975ZM10.975 34.389L16.586 40L10.975 45.611C9.742 44.071 9 42.122 9 40C9 37.878 9.742 35.929 10.975 34.389Z" fill="#B0D3F0"/>
<path d="M5 53H7V55H5V53Z" fill="#B0D3F0"/>
<path d="M9 53H31V55H9V53Z" fill="#B0D3F0"/>
<path d="M5 57H11V59H5V57Z" fill="#B0D3F0"/>
<path d="M13 57H31V59H13V57Z" fill="#B0D3F0"/>
</svg>
