<svg width="64" height="64" viewBox="0 0 64 64" fill="none" xmlns="http://www.w3.org/2000/svg">
<g clip-path="url(#clip0_2619_337)">
<path d="M51.4947 49.808C50.7287 49.8088 49.9654 49.7184 49.2208 49.5388C48.5513 49.3648 47.8921 49.1534 47.2462 48.9057C47.0047 48.818 46.777 48.735 46.5462 48.6557C43.4893 47.605 41.0493 47.3726 38.2231 47.1042C36.8116 46.9703 35.3523 46.8319 33.6946 46.5811C31.7185 46.2819 30.5116 45.3965 30.1077 43.9496C29.6462 42.2857 30.3762 40.4619 31.81 39.7057C32.8046 39.1803 33.9685 39.1996 34.9039 39.2149H34.9285C35.7069 39.228 36.3131 39.2619 36.8608 39.3019L26.5008 28.9426C26.1648 28.6068 25.8982 28.2081 25.7162 27.7692C25.5343 27.3303 25.4406 26.86 25.4404 26.3849C25.4401 25.4254 25.821 24.5051 26.4992 23.8265C27.1775 23.1478 28.0975 22.7664 29.057 22.7661C29.5321 22.766 30.0025 22.8594 30.4415 23.0411C30.8805 23.2227 31.2794 23.4891 31.6154 23.8249L35.9231 28.1326C36.1427 27.6826 36.4525 27.2825 36.8332 26.9573C37.214 26.6321 37.6576 26.3887 38.1364 26.2423C38.6153 26.0958 39.1191 26.0494 39.6166 26.106C40.1142 26.1626 40.5948 26.3209 41.0285 26.5711C41.244 26.1174 41.5536 25.7148 41.9368 25.39C42.3199 25.0652 42.7678 24.8258 43.2507 24.6875C43.7336 24.5492 44.2404 24.5154 44.7374 24.5881C45.2343 24.6609 45.7101 24.8387 46.1331 25.1096C46.3795 24.688 46.7193 24.3285 47.1264 24.0589C47.5334 23.7893 47.9969 23.6166 48.4812 23.5542C48.9655 23.4918 49.4576 23.5413 49.9198 23.6989C50.3819 23.8565 50.8018 24.1181 51.147 24.4634L53.9485 27.2649C56.3155 29.6335 58.2768 32.3752 59.7539 35.3803C60.1554 36.198 60.6485 37.2903 60.9077 38.4842C61.5831 41.608 60.487 45.0503 58.1147 47.2534C56.3323 48.9042 53.9293 49.808 51.4947 49.808ZM34.4116 41.6711C33.8677 41.6711 33.2993 41.7026 32.9593 41.8826C32.5469 42.0996 32.3269 42.7434 32.4793 43.2888C32.5285 43.4649 32.6593 43.9349 34.0631 44.1473C35.6531 44.388 37.0777 44.5234 38.4562 44.6542C41.3139 44.9257 44.0131 45.1819 47.347 46.328C47.5977 46.4142 47.8462 46.505 48.087 46.5919C48.6471 46.8081 49.2187 46.9932 49.7993 47.1465C52.117 47.7073 54.7223 47.0388 56.4393 45.445C58.1877 43.8211 58.997 41.2911 58.5024 38.9988C58.3 38.0649 57.887 37.1526 57.5454 36.4603C56.1882 33.6974 54.3856 31.1766 52.21 28.9988L49.4077 26.1988C49.2691 26.0704 49.0862 26.0007 48.8973 26.0043C48.7084 26.0078 48.5282 26.0844 48.3946 26.218C48.261 26.3515 48.1842 26.5316 48.1805 26.7205C48.1768 26.9094 48.2464 27.0924 48.3747 27.2311L49.1008 27.9572C49.3316 28.1881 49.4613 28.5012 49.4613 28.8276C49.4613 29.1541 49.3316 29.4672 49.1008 29.698C48.87 29.9289 48.5569 30.0585 48.2304 30.0585C47.904 30.0585 47.5909 29.9289 47.36 29.698L44.9816 27.3188C44.7932 27.1309 44.5415 27.0199 44.2757 27.0074C44.0099 26.9949 43.749 27.0818 43.5438 27.2512C43.3386 27.4206 43.2038 27.6603 43.1657 27.9236C43.1276 28.187 43.1889 28.4551 43.3377 28.6757L43.3454 28.6865C43.382 28.7385 43.423 28.7874 43.4677 28.8326L44.6308 30.0003C44.7479 30.114 44.8412 30.2497 44.9053 30.3997C44.9694 30.5498 45.003 30.711 45.0043 30.8742C45.0055 31.0373 44.9743 31.199 44.9124 31.35C44.8506 31.501 44.7593 31.6381 44.644 31.7535C44.5287 31.8689 44.3915 31.9602 44.2406 32.0221C44.0897 32.084 43.9279 32.1153 43.7648 32.1142C43.6017 32.113 43.4404 32.0794 43.2903 32.0154C43.1403 31.9513 43.0045 31.8581 42.8908 31.7411L40.0446 28.8949C39.9344 28.7846 39.8035 28.6971 39.6595 28.6374C39.5154 28.5777 39.361 28.547 39.205 28.547C39.0491 28.547 38.8947 28.5777 38.7506 28.6374C38.6065 28.6971 38.4756 28.7846 38.3654 28.8949C38.1441 29.117 38.0194 29.4175 38.0182 29.731C38.0171 30.0445 38.1396 30.3458 38.3593 30.5696C38.566 30.8051 38.6752 31.1106 38.6644 31.4238C38.6537 31.737 38.5238 32.0344 38.3014 32.2551C38.0789 32.4759 37.7806 32.6035 37.4674 32.6119C37.1541 32.6203 36.8494 32.5089 36.6154 32.3003L29.88 25.5649C29.663 25.348 29.3686 25.2261 29.0617 25.2262C28.7548 25.2263 28.4605 25.3483 28.2435 25.5653C28.0265 25.7824 27.9047 26.0768 27.9047 26.3837C27.9048 26.6906 28.0268 26.9849 28.2439 27.2019L40.8923 39.8526C41.0658 40.0261 41.1834 40.2474 41.2302 40.4882C41.2769 40.729 41.2507 40.9782 41.1548 41.204C41.0589 41.4298 40.8977 41.6217 40.692 41.7552C40.4862 41.8888 40.2453 41.9578 40 41.9534C38.8746 41.9349 38.1062 41.8719 37.3631 41.8111C36.62 41.7503 35.9316 41.6942 34.8862 41.6765H34.8616C34.7185 41.6742 34.5662 41.6711 34.4116 41.6711Z" fill="#B0D3F0"/>
<path d="M24.5661 31.8282C24.4039 31.8287 24.2432 31.7972 24.0933 31.7354C23.9433 31.6736 23.807 31.5828 23.6923 31.4682C22.3061 30.0816 21.5275 28.2012 21.5278 26.2406C21.5281 24.2799 22.3073 22.3997 23.6938 21.0136C25.0804 19.6274 26.9608 18.8488 28.9215 18.8491C30.8821 18.8494 32.7623 19.6285 34.1484 21.0151C34.2675 21.1283 34.3628 21.2641 34.4286 21.4147C34.4943 21.5652 34.5293 21.7274 34.5314 21.8916C34.5335 22.0559 34.5027 22.2189 34.4408 22.3711C34.3789 22.5233 34.2872 22.6615 34.171 22.7777C34.0549 22.8938 33.9166 22.9856 33.7644 23.0475C33.6123 23.1094 33.4492 23.1402 33.285 23.1381C33.1207 23.136 32.9585 23.101 32.808 23.0352C32.6574 22.9695 32.5216 22.8742 32.4084 22.7551C31.4839 21.8305 30.2299 21.3111 28.9223 21.3111C27.6147 21.3111 26.3607 21.8305 25.4361 22.7551C24.5115 23.6797 23.9921 24.9337 23.9921 26.2413C23.9921 27.5488 24.5115 28.8028 25.4361 29.7274C25.6081 29.8996 25.7253 30.1188 25.7727 30.3575C25.8202 30.5961 25.7958 30.8435 25.7027 31.0683C25.6096 31.2932 25.4519 31.4853 25.2496 31.6206C25.0473 31.7558 24.8095 31.8281 24.5661 31.8282Z" fill="#B0D3F0"/>
<path d="M22.2626 20.8123C22.1009 20.8125 21.9406 20.7808 21.7912 20.7189C21.6418 20.657 21.506 20.5661 21.3919 20.4515L20.1349 19.1946C19.9041 18.9637 19.7744 18.6506 19.7744 18.3242C19.7744 17.9977 19.9041 17.6846 20.1349 17.4538C20.3658 17.2229 20.6789 17.0933 21.0053 17.0933C21.3318 17.0933 21.6449 17.2229 21.8757 17.4538L23.1326 18.7115C23.3046 18.8836 23.4218 19.1029 23.4692 19.3415C23.5167 19.5802 23.4923 19.8276 23.3992 20.0524C23.3061 20.2772 23.1484 20.4694 22.9461 20.6046C22.7438 20.7399 22.506 20.8121 22.2626 20.8123Z" fill="#B0D3F0"/>
<path d="M19.8256 25.0342C19.7179 25.0344 19.6105 25.0204 19.5064 24.9927L17.7887 24.5311C17.6321 24.4898 17.4851 24.4179 17.3563 24.3196C17.2275 24.2214 17.1194 24.0987 17.0381 23.9585C16.9569 23.8184 16.9041 23.6636 16.8828 23.503C16.8615 23.3424 16.8721 23.1791 16.914 23.0227C16.9559 22.8662 17.0283 22.7195 17.127 22.5911C17.2258 22.4626 17.3489 22.3549 17.4893 22.2742C17.6298 22.1934 17.7848 22.1412 17.9454 22.1205C18.1061 22.0997 18.2693 22.1109 18.4256 22.1534L20.1433 22.615C20.4313 22.6925 20.6814 22.872 20.847 23.1201C21.0126 23.3682 21.0825 23.6679 21.0437 23.9637C21.0049 24.2594 20.8599 24.531 20.6359 24.7279C20.4118 24.9248 20.1239 25.0337 19.8256 25.0342Z" fill="#B0D3F0"/>
<path d="M18.1064 30.3706C17.8076 30.3707 17.519 30.2622 17.2943 30.0652C17.0697 29.8682 16.9244 29.5962 16.8855 29.3C16.8466 29.0037 16.9168 28.7035 17.083 28.4552C17.2492 28.2069 17.5 28.0275 17.7887 27.9506L19.5064 27.489C19.8213 27.4059 20.1562 27.4509 20.438 27.6143C20.7197 27.7777 20.9252 28.046 21.0094 28.3606C21.0937 28.6751 21.0498 29.0102 20.8875 29.2925C20.7252 29.5748 20.4576 29.7813 20.1433 29.8667L18.4256 30.3282C18.3215 30.3562 18.2142 30.3704 18.1064 30.3706Z" fill="#B0D3F0"/>
<path d="M21.0049 35.3898C20.7614 35.3899 20.5234 35.3177 20.3209 35.1824C20.1184 35.0471 19.9607 34.8548 19.8675 34.6298C19.7744 34.4049 19.7501 34.1573 19.7977 33.9185C19.8453 33.6797 19.9626 33.4604 20.1349 33.2883L21.3918 32.0314C21.6252 31.8153 21.9331 31.6979 22.2512 31.7038C22.5692 31.7098 22.8725 31.8386 23.0976 32.0633C23.3227 32.288 23.4521 32.5912 23.4586 32.9092C23.4651 33.2272 23.3483 33.5353 23.1326 33.7691L21.8757 35.026C21.7617 35.1412 21.6261 35.2326 21.4767 35.295C21.3272 35.3575 21.1669 35.3897 21.0049 35.3898Z" fill="#B0D3F0"/>
<path d="M35.5827 20.8123C35.3394 20.8121 35.1016 20.7399 34.8993 20.6046C34.697 20.4694 34.5393 20.2772 34.4462 20.0524C34.3531 19.8276 34.3287 19.5802 34.3762 19.3415C34.4236 19.1029 34.5407 18.8836 34.7127 18.7115L35.9697 17.4538C36.2005 17.2229 36.5136 17.0933 36.84 17.0933C37.1665 17.0933 37.4796 17.2229 37.7104 17.4538C37.9413 17.6846 38.071 17.9977 38.071 18.3242C38.071 18.6506 37.9413 18.9637 37.7104 19.1946L36.4527 20.4515C36.3387 20.5661 36.2032 20.657 36.0538 20.7189C35.9045 20.7808 35.7444 20.8126 35.5827 20.8123Z" fill="#B0D3F0"/>
<path d="M31.361 18.3741C31.2531 18.3744 31.1458 18.3601 31.0417 18.3318C30.7266 18.2473 30.4579 18.0411 30.2948 17.7585C30.1316 17.4759 30.0874 17.1401 30.1717 16.8249L30.6333 15.1072C30.7187 14.793 30.9251 14.5254 31.2074 14.363C31.4897 14.2007 31.8249 14.1569 32.1394 14.2411C32.454 14.3254 32.7223 14.5309 32.8857 14.8126C33.049 15.0943 33.0941 15.4293 33.011 15.7441L32.5494 17.4618C32.4793 17.7235 32.3249 17.9547 32.11 18.1197C31.8951 18.2846 31.6318 18.3741 31.361 18.3741Z" fill="#B0D3F0"/>
<path d="M26.4842 18.3744C26.2132 18.3743 25.9499 18.2847 25.735 18.1196C25.5201 17.9545 25.3657 17.7231 25.2958 17.4613L24.8342 15.7437C24.7511 15.4288 24.7962 15.0938 24.9595 14.8121C25.1229 14.5304 25.3912 14.3249 25.7058 14.2406C26.0203 14.1564 26.3555 14.2002 26.6378 14.3626C26.9201 14.5249 27.1265 14.7925 27.2119 15.1067L27.6735 16.8244C27.7578 17.1396 27.7136 17.4754 27.5504 17.758C27.3873 18.0406 27.1186 18.2468 26.8035 18.3313C26.6995 18.3599 26.5921 18.3744 26.4842 18.3744Z" fill="#B0D3F0"/>
<path d="M41.0678 64H7.19705C6.05658 63.9984 4.96329 63.5446 4.15693 62.7381C3.35056 61.9316 2.89693 60.8382 2.89551 59.6977V4.30231C2.89693 3.16184 3.35056 2.06847 4.15693 1.26196C4.96329 0.455454 6.05658 0.00162836 7.19705 0H41.0678C42.2083 0.00162836 43.3016 0.455454 44.108 1.26196C44.9143 2.06847 45.368 3.16184 45.3694 4.30231V25.7769C45.3694 26.1034 45.2397 26.4164 45.0089 26.6472C44.7781 26.878 44.465 27.0077 44.1386 27.0077C43.8122 27.0077 43.4991 26.878 43.2683 26.6472C43.0375 26.4164 42.9078 26.1034 42.9078 25.7769V4.30231C42.9064 3.81468 42.7121 3.34741 42.3674 3.00253C42.0227 2.65765 41.5555 2.46316 41.0678 2.46154H7.19705C6.70942 2.46316 6.24223 2.65765 5.89749 3.00253C5.55276 3.34741 5.35847 3.81468 5.35705 4.30231V59.6977C5.35847 60.1854 5.55276 60.6526 5.89749 60.9975C6.24223 61.3424 6.70942 61.5369 7.19705 61.5385H41.0678C41.5555 61.5369 42.0227 61.3424 42.3674 60.9975C42.7121 60.6526 42.9064 60.1854 42.9078 59.6977V46.6923C42.9078 46.3659 43.0375 46.0529 43.2683 45.8221C43.4991 45.5912 43.8122 45.4616 44.1386 45.4616C44.465 45.4616 44.7781 45.5912 45.0089 45.8221C45.2397 46.0529 45.3694 46.3659 45.3694 46.6923V59.6977C45.368 60.8382 44.9143 61.9316 44.108 62.7381C43.3016 63.5446 42.2083 63.9984 41.0678 64Z" fill="#B0D3F0"/>
<path d="M44.1384 10.5123H4.1253C3.79888 10.5123 3.48583 10.3827 3.25502 10.1518C3.0242 9.92102 2.89453 9.60797 2.89453 9.28155C2.89453 8.95513 3.0242 8.64208 3.25502 8.41127C3.48583 8.18045 3.79888 8.05078 4.1253 8.05078H44.1384C44.4648 8.05078 44.7779 8.18045 45.0087 8.41127C45.2395 8.64208 45.3692 8.95513 45.3692 9.28155C45.3692 9.60797 45.2395 9.92102 45.0087 10.1518C44.7779 10.3827 44.4648 10.5123 44.1384 10.5123Z" fill="#B0D3F0"/>
<path d="M44.1384 55.9493H4.1253C3.79888 55.9493 3.48583 55.8197 3.25502 55.5888C3.0242 55.358 2.89453 55.045 2.89453 54.7186C2.89453 54.3921 3.0242 54.0791 3.25502 53.8483C3.48583 53.6175 3.79888 53.4878 4.1253 53.4878H44.1384C44.4648 53.4878 44.7779 53.6175 45.0087 53.8483C45.2395 54.0791 45.3692 54.3921 45.3692 54.7186C45.3692 55.045 45.2395 55.358 45.0087 55.5888C44.7779 55.8197 44.4648 55.9493 44.1384 55.9493Z" fill="#B0D3F0"/>
<path d="M27.3033 6.48693H20.9617C20.6353 6.48693 20.3223 6.35726 20.0914 6.12645C19.8606 5.89563 19.731 5.58258 19.731 5.25616C19.731 4.92974 19.8606 4.61669 20.0914 4.38588C20.3223 4.15506 20.6353 4.02539 20.9617 4.02539H27.3033C27.6297 4.02539 27.9427 4.15506 28.1736 4.38588C28.4044 4.61669 28.534 4.92974 28.534 5.25616C28.534 5.58258 28.4044 5.89563 28.1736 6.12645C27.9427 6.35726 27.6297 6.48693 27.3033 6.48693Z" fill="#B0D3F0"/>
<path d="M27.2665 59.9747H21.0003C20.6739 59.9747 20.3608 59.8451 20.13 59.6142C19.8992 59.3834 19.7695 59.0704 19.7695 58.744C19.7695 58.4175 19.8992 58.1045 20.13 57.8737C20.3608 57.6429 20.6739 57.5132 21.0003 57.5132H27.268C27.5944 57.5132 27.9075 57.6429 28.1383 57.8737C28.3691 58.1045 28.4988 58.4175 28.4988 58.744C28.4988 59.0704 28.3691 59.3834 28.1383 59.6142C27.9075 59.8451 27.5944 59.9747 27.268 59.9747H27.2665Z" fill="#B0D3F0"/>
</g>
<defs>
<clipPath id="clip0_2619_337">
<rect width="64" height="64" fill="white"/>
</clipPath>
</defs>
</svg>
