<svg width="64" height="64" viewBox="0 0 64 64" fill="none" xmlns="http://www.w3.org/2000/svg">
<path d="M58.6665 44.8H56.5332V36.2667C56.5332 35.7009 56.3084 35.1583 55.9084 34.7582C55.5083 34.3581 54.9657 34.1333 54.3999 34.1333H52.2665C51.7007 34.1333 51.1581 34.3581 50.758 34.7582C50.3579 35.1583 50.1332 35.7009 50.1332 36.2667V44.8H49.0665V29.8667C49.0665 29.3009 48.8418 28.7582 48.4417 28.3582C48.0416 27.9581 47.499 27.7333 46.9332 27.7333H44.7998C44.234 27.7333 43.6914 27.9581 43.2913 28.3582C42.8913 28.7582 42.6665 29.3009 42.6665 29.8667V44.8H41.5998V33.0667C41.5998 32.5009 41.3751 31.9582 40.975 31.5582C40.5749 31.1581 40.0323 30.9333 39.4665 30.9333H37.3331C36.7673 30.9333 36.2247 31.1581 35.8246 31.5582C35.4246 31.9582 35.1998 32.5009 35.1998 33.0667V44.8C34.917 44.7998 34.6458 44.6873 34.4459 44.4873C34.2459 44.2873 34.1334 44.0162 34.1331 43.7334V26.6666C34.1331 26.3837 34.0208 26.1124 33.8207 25.9124C33.6207 25.7124 33.3494 25.6 33.0665 25.6C32.7836 25.6 32.5123 25.7124 32.3122 25.9124C32.1122 26.1124 31.9998 26.3837 31.9998 26.6666V43.7334C32.0007 44.5818 32.3382 45.3952 32.9381 45.9951C33.538 46.595 34.3514 46.9324 35.1998 46.9334H58.6665C58.9494 46.9334 59.2207 46.821 59.4208 46.621C59.6208 46.4209 59.7332 46.1496 59.7332 45.8667C59.7332 45.5838 59.6208 45.3125 59.4208 45.1125C59.2207 44.9124 58.9494 44.8 58.6665 44.8ZM37.3331 44.8L37.3316 33.0667H39.4665V44.8H37.3331ZM44.7998 44.8L44.7983 29.8667H46.9332V44.8H44.7998ZM52.2665 44.8L52.265 36.2667H54.3999V44.8H52.2665ZM46.9332 12.7999C46.9331 12.6599 46.9607 12.5211 47.0143 12.3917C47.0679 12.2623 47.1465 12.1447 47.2455 12.0456C47.3446 11.9466 47.4622 11.868 47.5916 11.8144C47.721 11.7608 47.8598 11.7332 47.9998 11.7333H57.5999C57.8828 11.7333 58.1541 11.8457 58.3541 12.0457C58.5542 12.2457 58.6665 12.517 58.6665 12.7999C58.6665 13.0828 58.5542 13.3542 58.3541 13.5542C58.1541 13.7542 57.8828 13.8666 57.5999 13.8666H47.9998C47.8598 13.8666 47.721 13.8391 47.5916 13.7855C47.4622 13.7319 47.3446 13.6533 47.2455 13.5543C47.1465 13.4552 47.0679 13.3376 47.0143 13.2082C46.9607 13.0787 46.9331 12.94 46.9332 12.7999ZM43.7332 12.7999C43.7332 12.589 43.7957 12.3827 43.9129 12.2073C44.0301 12.0319 44.1967 11.8952 44.3916 11.8145C44.5865 11.7337 44.801 11.7126 45.0079 11.7538C45.2148 11.7949 45.4049 11.8965 45.5541 12.0457C45.7033 12.1949 45.8048 12.3849 45.846 12.5918C45.8872 12.7988 45.866 13.0132 45.7853 13.2081C45.7046 13.403 45.5679 13.5696 45.3924 13.6868C45.217 13.8041 45.0108 13.8666 44.7998 13.8666C44.5169 13.8666 44.2456 13.7542 44.0456 13.5542C43.8455 13.3542 43.7332 13.0828 43.7332 12.7999ZM46.9332 17.0666C46.9331 16.9265 46.9607 16.7878 47.0143 16.6584C47.0679 16.5289 47.1465 16.4113 47.2455 16.3123C47.3446 16.2132 47.4622 16.1347 47.5916 16.0811C47.721 16.0275 47.8598 15.9999 47.9998 16H57.5999C57.8828 16 58.1541 16.1123 58.3541 16.3124C58.5542 16.5124 58.6665 16.7837 58.6665 17.0666C58.6665 17.3495 58.5542 17.6208 58.3541 17.8209C58.1541 18.0209 57.8828 18.1333 57.5999 18.1333H47.9998C47.8598 18.1333 47.721 18.1058 47.5916 18.0522C47.4622 17.9986 47.3446 17.92 47.2455 17.821C47.1465 17.7219 47.0679 17.6043 47.0143 17.4749C46.9607 17.3454 46.9331 17.2067 46.9332 17.0666ZM46.9332 21.3333C46.9331 21.1932 46.9607 21.0545 47.0143 20.9251C47.0679 20.7956 47.1465 20.678 47.2455 20.579C47.3446 20.4799 47.4622 20.4013 47.5916 20.3478C47.721 20.2942 47.8598 20.2666 47.9998 20.2666H57.5999C57.8828 20.2666 58.1541 20.379 58.3541 20.579C58.5542 20.7791 58.6665 21.0504 58.6665 21.3333C58.6665 21.6162 58.5542 21.8875 58.3541 22.0875C58.1541 22.2876 57.8828 22.4 57.5999 22.4H47.9998C47.8598 22.4 47.721 22.3724 47.5916 22.3188C47.4622 22.2653 47.3446 22.1867 47.2455 22.0876C47.1465 21.9886 47.0679 21.871 47.0143 21.7415C46.9607 21.6121 46.9331 21.4734 46.9332 21.3333ZM43.7332 17.0666C43.7332 16.8557 43.7957 16.6494 43.9129 16.474C44.0301 16.2986 44.1967 16.1619 44.3916 16.0811C44.5865 16.0004 44.801 15.9793 45.0079 16.0204C45.2148 16.0616 45.4049 16.1632 45.5541 16.3124C45.7033 16.4615 45.8048 16.6516 45.846 16.8585C45.8872 17.0654 45.866 17.2799 45.7853 17.4748C45.7046 17.6697 45.5679 17.8363 45.3924 17.9535C45.217 18.0707 45.0108 18.1333 44.7998 18.1333C44.5169 18.1333 44.2456 18.0209 44.0456 17.8209C43.8455 17.6208 43.7332 17.3495 43.7332 17.0666ZM43.7332 21.3333C43.7332 21.1223 43.7957 20.9161 43.9129 20.7407C44.0301 20.5653 44.1967 20.4286 44.3916 20.3478C44.5865 20.2671 44.801 20.246 45.0079 20.2871C45.2148 20.3283 45.4049 20.4299 45.5541 20.579C45.7033 20.7282 45.8048 20.9183 45.846 21.1252C45.8872 21.3321 45.866 21.5466 45.7853 21.7415C45.7046 21.9364 45.5679 22.103 45.3924 22.2202C45.217 22.3374 45.0108 22.4 44.7998 22.4C44.5169 22.4 44.2456 22.2876 44.0456 22.0875C43.8455 21.8875 43.7332 21.6162 43.7332 21.3333ZM60.7999 5.33325H7.46639C6.61798 5.33418 5.80458 5.67162 5.20466 6.27154C4.60475 6.87145 4.2673 7.68485 4.26638 8.53326V22.4539C3.37895 22.5782 2.56634 23.019 1.97829 23.6952C1.39024 24.3713 1.06638 25.2372 1.06638 26.1333C1.06638 27.0294 1.39024 27.8953 1.97829 28.5715C2.56634 29.2476 3.37895 29.6885 4.26638 29.8127V34.817C2.81636 36.209 1.68659 37.8998 0.955445 39.7721C0.224304 41.6445 -0.0906907 43.6535 0.0323176 45.6597C0.155326 47.666 0.713392 49.6214 1.66779 51.3904C2.62219 53.1594 3.95006 54.6995 5.55927 55.904C7.16848 57.1084 9.02048 57.9482 10.9868 58.3653C12.9531 58.7823 14.9865 58.7665 16.9461 58.3189C18.9057 57.8714 20.7444 57.0028 22.3347 55.7736C23.925 54.5443 25.2287 52.9837 26.1555 51.2001H60.7999C61.6483 51.1991 62.4617 50.8617 63.0616 50.2618C63.6615 49.6619 63.999 48.8485 63.9999 48V8.53326C63.999 7.68485 63.6615 6.87145 63.0616 6.27154C62.4617 5.67162 61.6483 5.33418 60.7999 5.33325ZM3.19971 26.1333C3.19971 25.8169 3.29355 25.5075 3.46936 25.2444C3.64517 24.9813 3.89506 24.7762 4.18742 24.6551C4.47978 24.534 4.80149 24.5023 5.11186 24.5641C5.42223 24.6258 5.70732 24.7782 5.93109 25.0019C6.15485 25.2257 6.30724 25.5108 6.36897 25.8212C6.43071 26.1315 6.39903 26.4532 6.27793 26.7456C6.15682 27.038 5.95175 27.2879 5.68863 27.4637C5.42551 27.6395 5.11616 27.7333 4.79971 27.7333C4.37551 27.7329 3.96881 27.5641 3.66885 27.2642C3.36889 26.9642 3.20017 26.5575 3.19971 26.1333ZM12.7997 33.1207V44.1625L3.07418 49.3993C2.34828 47.6986 2.03495 45.8504 2.15979 44.0055C2.28462 42.1605 2.84407 40.3713 3.79246 38.7839C4.74084 37.1965 6.05126 35.8559 7.61668 34.8717C9.18211 33.8875 10.9581 33.2875 12.7997 33.1207ZM14.9331 33.1207C17.6624 33.3734 20.2174 34.5727 22.1556 36.5109C24.0938 38.449 25.293 41.004 25.5457 43.7334H14.9331V33.1207ZM13.8664 56.5334C11.9295 56.5323 10.0231 56.0516 8.31731 55.1341C6.61153 54.2167 5.15951 52.8911 4.09092 51.2756L14.1361 45.8667H25.5457C25.2771 48.7798 23.9309 51.4879 21.7707 53.4607C19.6106 55.4336 16.7919 56.5293 13.8664 56.5334ZM61.8665 48C61.8663 48.2829 61.7538 48.554 61.5538 48.754C61.3538 48.954 61.0827 49.0664 60.7999 49.0667H27.0545C27.9395 46.3495 27.962 43.4251 27.119 40.6946C26.2761 37.9641 24.6089 35.5614 22.3462 33.8159C20.0835 32.0705 17.3362 31.068 14.4811 30.9459C11.6261 30.8238 8.80318 31.588 6.39972 33.1339V29.4922C7.03623 29.1909 7.57441 28.7156 7.95195 28.1211C8.3295 27.5267 8.53098 26.8375 8.53306 26.1333C8.5299 25.574 8.3996 25.0227 8.152 24.5212L13.5495 19.7232C14.0493 20.0239 14.6126 20.2035 15.1942 20.2477C15.7758 20.2918 16.3597 20.1993 16.8992 19.9775L21.5997 23.6888C21.3727 24.258 21.2894 24.8745 21.3572 25.4836C21.4249 26.0927 21.6417 26.6757 21.9883 27.1811C22.335 27.6865 22.8007 28.0988 23.3445 28.3815C23.8883 28.6641 24.4934 28.8085 25.1062 28.8018C25.719 28.7951 26.3207 28.6375 26.8582 28.343C27.3957 28.0485 27.8523 27.6261 28.1878 27.1133C28.5233 26.6004 28.7272 26.0127 28.7817 25.4023C28.8361 24.7919 28.7393 24.1774 28.4999 23.6133L34.6659 18.5196C35.4001 19.0289 36.2931 19.2571 37.1816 19.1623C38.0701 19.0676 38.8949 18.6563 39.5052 18.0037C40.1154 17.351 40.4705 16.5005 40.5055 15.6076C40.5404 14.7148 40.2529 13.8391 39.6955 13.1408C39.1381 12.4424 38.348 11.9679 37.4696 11.804C36.5912 11.6402 35.6831 11.7978 34.9114 12.2482C34.1397 12.6986 33.5558 13.4117 33.2664 14.2571C32.9771 15.1025 33.0016 16.0238 33.3355 16.8526L27.1437 21.9675C26.5174 21.5502 25.7798 21.3318 25.0273 21.3409C24.2749 21.35 23.5427 21.5862 22.9268 22.0185L18.5831 18.5891C18.9452 18.0451 19.1581 17.4155 19.2005 16.7634C19.2429 16.1113 19.1133 15.4595 18.8247 14.8732C18.5361 14.2868 18.0986 13.7866 17.5559 13.4224C17.0133 13.0583 16.3845 12.843 15.7326 12.7982C15.0806 12.7533 14.4283 12.8804 13.8409 13.1668C13.2535 13.4532 12.7516 13.8888 12.3854 14.43C12.0192 14.9713 11.8015 15.5992 11.7542 16.251C11.7069 16.9028 11.8315 17.5556 12.1157 18.1441L6.71417 22.9453C6.61216 22.8838 6.50779 22.8262 6.39972 22.7744V8.53326C6.4 8.25045 6.51247 7.9793 6.71245 7.77932C6.91243 7.57935 7.18358 7.46687 7.46639 7.46659H60.7999C61.0827 7.46687 61.3538 7.57935 61.5538 7.77932C61.7538 7.9793 61.8663 8.25045 61.8665 8.53326V48ZM16.5978 17.6647C16.374 17.8884 16.0889 18.0408 15.7786 18.1025C15.4682 18.1643 15.1465 18.1326 14.8541 18.0115C14.5618 17.8904 14.3119 17.6853 14.1361 17.4222C13.9603 17.1591 13.8664 16.8497 13.8664 16.5333C13.8664 16.2168 13.9603 15.9075 14.1361 15.6444C14.3119 15.3813 14.5618 15.1762 14.8541 15.0551C15.1465 14.934 15.4682 14.9023 15.7786 14.964C16.0889 15.0258 16.374 15.1781 16.5978 15.4019C16.8974 15.7022 17.0657 16.1091 17.0657 16.5333C17.0657 16.9575 16.8974 17.3644 16.5978 17.6647ZM26.1978 26.198C25.9741 26.4218 25.689 26.5742 25.3786 26.6359C25.0682 26.6976 24.7465 26.666 24.4542 26.5449C24.1618 26.4238 23.9119 26.2187 23.7361 25.9556C23.5603 25.6924 23.4665 25.3831 23.4665 25.0666C23.4665 24.7502 23.5603 24.4408 23.7361 24.1777C23.9119 23.9146 24.1618 23.7095 24.4542 23.5884C24.7465 23.4673 25.0682 23.4356 25.3786 23.4974C25.689 23.5591 25.9741 23.7115 26.1978 23.9353C26.4974 24.2356 26.6657 24.6424 26.6657 25.0666C26.6657 25.4908 26.4974 25.8977 26.1978 26.198ZM35.6684 14.3352C35.8922 14.1115 36.1773 13.9591 36.4877 13.8974C36.798 13.8356 37.1197 13.8673 37.4121 13.9884C37.7045 14.1095 37.9543 14.3146 38.1301 14.5777C38.306 14.8408 38.3998 15.1502 38.3998 15.4666C38.3998 15.7831 38.306 16.0924 38.1301 16.3555C37.9543 16.6186 37.7045 16.8237 37.4121 16.9448C37.1197 17.0659 36.798 17.0976 36.4877 17.0359C36.1773 16.9741 35.8922 16.8218 35.6684 16.598C35.3688 16.2977 35.2005 15.8908 35.2005 15.4666C35.2005 15.0424 35.3688 14.6355 35.6684 14.3352Z" fill="#B0D3F0"/>
</svg>
