<svg width="64" height="64" viewBox="0 0 64 64" fill="none" xmlns="http://www.w3.org/2000/svg">
<g clip-path="url(#clip0_2615_380)">
<path d="M16.3114 33.8777C17.0017 33.8777 17.5613 33.3181 17.5613 32.6278C17.5613 31.9375 17.0017 31.3779 16.3114 31.3779C15.6211 31.3779 15.0615 31.9375 15.0615 32.6278C15.0615 33.3181 15.6211 33.8777 16.3114 33.8777Z" fill="#B0D3F0"/>
<path d="M21.3309 31.3779C20.6377 31.3779 20.0809 31.9419 20.0811 32.6279C20.0811 33.3149 20.6408 33.8779 21.3311 33.8778C22.0208 33.8778 22.5811 33.3153 22.5809 32.6278C22.5809 31.9473 22.0293 31.3778 21.3309 31.3779Z" fill="#B0D3F0"/>
<path d="M26.3517 31.3777C25.6584 31.3777 25.1016 31.9418 25.1016 32.6279C25.1016 33.3151 25.6613 33.8781 26.3518 33.8781C27.0417 33.8781 27.6019 33.3156 27.6019 32.6278C27.6019 31.9472 27.0502 31.3777 26.3517 31.3777Z" fill="#B0D3F0"/>
<path d="M56.731 16.8159C57.3261 7.79037 50.1519 0 41.0441 0C34.5336 0 28.9577 3.96813 26.5567 9.67975C19.631 4.47838 9.48913 8.1435 7.53713 16.7361C3.13338 17.9825 0 22.3771 0 27.4704C0 33.5806 4.502 38.5516 10.0356 38.5516H10.0407V58.9847C10.0407 61.7501 12.2906 64 15.0561 64H48.9439C51.7094 64 53.9593 61.7501 53.9593 58.9847V38.5516H53.9644C59.4981 38.5516 64 33.5805 64 27.4704C64 22.4088 60.9344 18.1466 56.731 16.8159ZM51.4593 36.398H12.5407V31.3725C12.5407 29.9855 13.6691 28.8573 15.0561 28.8573H48.9439C50.3309 28.8573 51.4593 29.9855 51.4593 31.3725V36.398ZM48.9439 61.5H15.0561C13.6691 61.5 12.5407 60.3717 12.5407 58.9847V38.898H51.4593V58.9847C51.4593 60.3717 50.3309 61.5 48.9439 61.5ZM53.9644 36.0516H53.9593V31.3725C53.9593 28.6071 51.7094 26.3573 48.9439 26.3573H15.0561C12.2906 26.3573 10.0407 28.6071 10.0407 31.3725V36.0518H10.0356C5.8805 36.0518 2.5 32.2021 2.5 27.4705C2.5 23.2294 5.16475 19.6662 8.83613 18.9984C9.36063 18.9029 9.76687 18.4854 9.84787 17.9585C10.5645 13.2965 14.6441 9.781 19.3372 9.781C21.9519 9.781 24.3975 10.8219 26.2237 12.7118C26.8919 13.4038 28.0651 13.1112 28.3261 12.181C29.9261 6.481 35.156 2.5 41.0441 2.5C48.9349 2.5 55.2195 9.49575 54.141 17.601C54.0529 18.2625 54.4999 18.8764 55.1565 18.9958C58.8323 19.6639 61.5 23.2279 61.5 27.4704C61.5 32.202 58.1195 36.0516 53.9644 36.0516Z" fill="#B0D3F0"/>
<path d="M25.3942 43.0825C24.9297 42.5717 24.1393 42.534 23.6284 42.9984L16.7254 49.2739C16.1809 49.7689 16.1792 50.6272 16.7254 51.1238L23.6284 57.3993C23.8679 57.617 24.1688 57.7244 24.4689 57.7244C25.6051 57.7244 26.1552 56.3175 25.3101 55.5495L19.4246 50.1989L25.3101 44.8483C25.8209 44.3839 25.8586 43.5933 25.3942 43.0825Z" fill="#B0D3F0"/>
<path d="M40.3711 42.9986C39.8602 42.5341 39.0697 42.5716 38.6054 43.0827C38.141 43.5934 38.1786 44.3841 38.6895 44.8484L44.575 50.1991L38.6895 55.5497C38.1786 56.0141 38.141 56.8047 38.6054 57.3154C39.0704 57.8269 39.8607 57.8633 40.3711 57.3996L47.2741 51.1241C47.8186 50.6291 47.8204 49.7708 47.2741 49.2742L40.3711 42.9986Z" fill="#B0D3F0"/>
<path d="M34.9744 42.763C34.3336 42.5069 33.606 42.8182 33.3495 43.4594L28.329 56.0104C28.0726 56.6514 28.3844 57.3787 29.0254 57.6352C29.6691 57.8929 30.395 57.5769 30.6502 56.9389L35.6707 44.3879C35.9271 43.7469 35.6154 43.0194 34.9744 42.763Z" fill="#B0D3F0"/>
</g>
<defs>
<clipPath id="clip0_2615_380">
<rect width="64" height="64" fill="white"/>
</clipPath>
</defs>
</svg>
