<svg width="64" height="64" viewBox="0 0 64 64" fill="none" xmlns="http://www.w3.org/2000/svg">
<path d="M59.4122 4.66187H4.5874C3.4262 4.66366 2.31317 5.1262 1.49271 5.94793C0.672247 6.76966 0.211424 7.8834 0.211426 9.0446V54.9551C0.211424 56.1163 0.672247 57.23 1.49271 58.0518C2.31317 58.8735 3.4262 59.336 4.5874 59.3378H59.4122C60.5734 59.336 61.6864 58.8735 62.5069 58.0518C63.3273 57.23 63.7881 56.1163 63.7881 54.9551V9.0446C63.7881 7.8834 63.3273 6.76966 62.5069 5.94793C61.6864 5.1262 60.5734 4.66366 59.4122 4.66187ZM61.82 54.9551C61.82 55.5943 61.5665 56.2074 61.1151 56.6601C60.6638 57.1127 60.0514 57.3679 59.4122 57.3697H4.5874C3.94819 57.3679 3.33577 57.1127 2.88441 56.6601C2.43306 56.2074 2.1796 55.5943 2.1796 54.9551V14.0428H61.82V54.9551ZM61.82 12.0746H2.1796V9.0446C2.1796 8.40539 2.43306 7.79226 2.88441 7.33963C3.33577 6.88701 3.94819 6.63183 4.5874 6.63004H59.4122C60.0514 6.63183 60.6638 6.88701 61.1151 7.33963C61.5665 7.79226 61.82 8.40539 61.82 9.0446V12.0746Z" fill="#B0D3F0"/>
<path d="M0 54.9557V9.04502C-1.44938e-06 7.82781 0.48367 6.65962 1.3437 5.79826C2.20368 4.93718 3.37036 4.45232 4.58735 4.45044V4.662C3.42637 4.66385 2.31373 5.12643 1.49334 5.94791L1.3437 6.10581C0.617 6.90951 0.211564 7.95636 0.211565 9.04502V54.9557L0.216725 55.1724C0.270368 56.2546 0.724171 57.2814 1.49334 58.0518C2.31374 58.8733 3.4263 59.3358 4.58735 59.3377H59.4126C60.5737 59.3358 61.6863 58.8733 62.5067 58.0518C63.2758 57.2814 63.7296 56.2546 63.7833 55.1724L63.7884 54.9557V9.04502C63.7884 7.88381 63.3271 6.76964 62.5067 5.94791C61.6863 5.12642 60.5736 4.66389 59.4126 4.662H4.58735V4.45044H59.4126L59.6397 4.45663C60.774 4.51448 61.8499 4.99084 62.6563 5.79826C63.5163 6.65962 64 7.82781 64 9.04502V54.9557C63.9999 56.1727 63.5162 57.3402 62.6563 58.2014C61.7963 59.0626 60.6297 59.5473 59.4126 59.5492H4.58735C3.37029 59.5473 2.2037 59.0626 1.3437 58.2014C0.483775 57.3402 0.000116301 56.1727 0 54.9557ZM61.6088 14.2547H2.3912V54.9557C2.39132 55.5388 2.62244 56.098 3.03415 56.5109C3.446 56.924 4.00513 57.1564 4.58838 57.158H59.4116C59.9949 57.1564 60.554 56.924 60.9658 56.5109C61.3775 56.0981 61.6087 55.5387 61.6088 54.9557V14.2547ZM61.6088 9.04502C61.6088 8.46176 61.3777 7.90172 60.9658 7.48872C60.6056 7.12744 60.1326 6.90437 59.6294 6.85299L59.4116 6.84164H4.58838L4.37063 6.85299C3.86742 6.90433 3.39446 7.12745 3.03415 7.48872C2.62231 7.90173 2.3912 8.46176 2.3912 9.04502V11.8635H61.6088V9.04502ZM61.808 55.1931C61.7534 55.745 61.5105 56.2645 61.1155 56.6606L60.939 56.8206C60.5717 57.1225 60.1231 57.3091 59.65 57.3572L59.4126 57.3696H4.58735C4.02808 57.368 3.48928 57.1726 3.06099 56.8206L2.88451 56.6606C2.48949 56.2645 2.24664 55.7449 2.19202 55.1931L2.17964 54.9557V14.0431H61.8204V54.9557L61.808 55.1931ZM61.8204 12.075H2.17964V9.04502C2.17963 8.48569 2.37364 7.94591 2.72455 7.51659L2.88451 7.34011C3.33582 6.88753 3.94821 6.63192 4.58735 6.63008H59.4126C60.0517 6.63196 60.6642 6.88757 61.1155 7.34011C61.5667 7.79271 61.8204 8.40593 61.8204 9.04502V12.075Z" fill="#B0D3F0"/>
<path d="M21.8884 29.8358L33.5013 33.5083C33.5972 33.5405 33.6977 33.5565 33.7989 33.5557C34.0068 33.5563 34.2097 33.4912 34.3785 33.3698C34.5473 33.2483 34.6735 33.0767 34.739 32.8793C35.1412 31.5943 35.3465 30.2557 35.3477 28.9092C35.3388 25.4231 33.9486 22.0826 31.4816 19.6195C29.0147 17.1563 25.6721 15.7713 22.186 15.7677C22.0572 15.7641 21.9289 15.7859 21.8086 15.8319C21.6882 15.8779 21.5781 15.9472 21.4845 16.0357C21.3909 16.1243 21.3157 16.2304 21.2631 16.3481C21.2106 16.4657 21.1817 16.5926 21.1782 16.7214V28.8956C21.1788 29.1081 21.2483 29.3147 21.3764 29.4842C21.5045 29.6538 21.6841 29.7771 21.8884 29.8358ZM23.1667 17.7494C24.7533 17.8898 26.2917 18.367 27.6793 19.1491C29.0668 19.9313 30.2716 21.0003 31.2132 22.285C32.1548 23.5697 32.8115 25.0405 33.1396 26.5991C33.4677 28.1578 33.4596 29.7685 33.1158 31.3237L23.1667 28.1787V17.7494Z" fill="#B0D3F0"/>
<path d="M20.9668 16.7156C20.9711 16.559 21.0061 16.4045 21.07 16.2615C21.1339 16.1185 21.2256 15.9894 21.3394 15.8817C21.4531 15.7741 21.5874 15.6899 21.7336 15.634C21.8778 15.579 22.0313 15.5542 22.1856 15.5577L22.1867 15.5566L22.1887 15.5577L22.1918 15.5566L22.1908 15.5577C25.7312 15.5625 29.1252 16.9685 31.6307 19.4701C34.1371 21.9726 35.5504 25.3661 35.5596 28.9079V28.909C35.5584 30.2769 35.349 31.6367 34.9404 32.9421L34.9394 32.9463C34.8598 33.1856 34.7066 33.3934 34.5018 33.5407C34.2973 33.6878 34.0519 33.7661 33.8 33.7657L33.8011 33.7667L33.799 33.7657L33.798 33.7667V33.7657C33.6755 33.7664 33.554 33.7475 33.4378 33.7089V33.71L21.8244 30.037V30.036C21.5788 29.9641 21.3627 29.816 21.2083 29.6118C21.0915 29.4572 21.0146 29.2768 20.9833 29.0875L20.9668 28.8956V16.7156ZM23.1671 17.7497C24.7535 17.8901 26.2917 18.3671 27.6791 19.1491C29.0666 19.9312 30.2722 20.9998 31.2138 22.2844C32.1554 23.5691 32.8114 25.0407 33.1395 26.5993C33.4676 28.1579 33.4596 29.7688 33.1158 31.3239L23.1671 28.1783V17.7497ZM23.3786 28.0235L32.9527 31.0494C33.2422 29.5944 33.239 28.0959 32.9331 26.6427C32.6112 25.1135 31.9662 23.6707 31.0425 22.4103C30.1187 21.1499 28.9372 20.1002 27.5759 19.3328C26.2819 18.6034 24.8536 18.148 23.3786 17.986V28.0235ZM21.1784 28.8956C21.1789 29.1079 21.2485 29.3143 21.3765 29.4838C21.5046 29.6533 21.6842 29.7771 21.8884 29.8357L33.5018 33.5077C33.5976 33.5398 33.6979 33.556 33.799 33.5552C33.9549 33.5556 34.1079 33.5193 34.2459 33.4499L34.379 33.3694C34.5056 33.2782 34.6083 33.1589 34.6793 33.0216L34.7392 32.8792C35.0911 31.7548 35.2921 30.5894 35.3377 29.4136L35.3481 28.909C35.3394 25.5319 34.0344 22.2915 31.7102 19.853L31.4821 19.6197C29.0152 17.1566 25.6717 15.7707 22.1856 15.7672C22.057 15.7636 21.9291 15.7863 21.8089 15.8322L21.7202 15.8704C21.6342 15.9134 21.555 15.9692 21.4849 16.0355L21.4178 16.1057C21.3548 16.1783 21.3023 16.2601 21.263 16.3482L21.2279 16.438C21.1976 16.5291 21.181 16.6244 21.1784 16.7208V28.8956Z" fill="#B0D3F0"/>
<path d="M18.358 44.7693C21.1568 44.7783 23.8849 43.8908 26.1427 42.2367C28.4004 40.5827 30.0691 38.249 30.9043 35.5777C30.9441 35.4552 30.9593 35.326 30.9489 35.1975C30.9384 35.0691 30.9026 34.944 30.8435 34.8295C30.7843 34.715 30.703 34.6134 30.6044 34.5305C30.5057 34.4477 30.3915 34.3852 30.2685 34.3468L19.3387 30.8906V19.4333C19.3334 19.1767 19.2278 18.9325 19.0444 18.7529C18.8611 18.5734 18.6146 18.4728 18.358 18.4729C14.8673 18.4729 11.5196 19.8596 9.05127 22.3279C6.58297 24.7962 5.19629 28.1439 5.19629 31.6346C5.19629 35.1253 6.58297 38.4731 9.05127 40.9414C11.5196 43.4097 14.8673 44.7964 18.358 44.7964V44.7693ZM17.3706 20.4546V31.6076C17.3699 31.8155 17.435 32.0184 17.5564 32.1872C17.6779 32.356 17.8495 32.4822 18.0469 32.5477L28.6791 35.9294C27.9128 37.7588 26.6743 39.3517 25.0902 40.5451C23.5061 41.7385 21.6333 42.4897 19.6636 42.7216C17.6939 42.9535 15.6979 42.6579 13.8799 41.865C12.062 41.0722 10.4873 39.8105 9.3171 38.2092C8.1469 36.6079 7.42318 34.7244 7.22001 32.7515C7.01684 30.7786 7.34152 28.7871 8.16081 26.9809C8.9801 25.1747 10.2646 23.6186 11.8828 22.4719C13.501 21.3251 15.3949 20.629 17.3706 20.4546Z" fill="#B0D3F0"/>
<path d="M19.3393 19.4339C19.334 19.1773 19.2275 18.9323 19.0441 18.7527C18.8608 18.5734 18.6143 18.473 18.3578 18.473C14.8672 18.4731 11.5193 19.8594 9.05104 22.3277C6.58281 24.7959 5.19651 28.1439 5.19643 31.6345C5.19643 35.125 6.58294 38.473 9.05104 40.9413C11.4423 43.3325 14.6593 44.7092 18.0317 44.7928L18.3578 44.7969V44.769C21.1566 44.7781 23.8847 43.8905 26.1424 42.2364C28.4002 40.5824 30.069 38.2491 30.9042 35.5778C30.9341 35.4859 30.9499 35.3903 30.9516 35.294L30.9485 35.198C30.9381 35.0696 30.9024 34.9441 30.8433 34.8296C30.7989 34.7438 30.7423 34.6652 30.6751 34.5964L30.6049 34.5303C30.5062 34.4475 30.3914 34.385 30.2684 34.3466L19.3393 30.8904V19.4339ZM17.3702 31.6076C17.3696 31.8156 17.4355 32.0188 17.557 32.1876C17.6784 32.3562 17.85 32.4823 18.0472 32.5478L28.6791 35.9297C27.9129 37.7588 26.6746 39.3516 25.0908 40.545L24.7905 40.7637C23.2722 41.8306 21.5101 42.5041 19.6634 42.7215C17.6937 42.9533 15.6977 42.6577 13.8799 41.8649C12.1757 41.1216 10.6851 39.9666 9.54125 38.5057L9.3173 38.2095C8.22027 36.7083 7.51583 34.9589 7.26461 33.1206L7.22023 32.7511C7.02985 30.9016 7.30287 29.0358 8.01282 27.3216L8.16144 26.9811C8.92953 25.2878 10.1062 23.8144 11.5836 22.692L11.8829 22.4721C13.501 21.3255 15.3947 20.629 17.3702 20.4545V31.6076ZM17.1597 20.6888C15.3044 20.8919 13.5295 21.5639 12.0047 22.6445C10.4172 23.7695 9.15716 25.2968 8.35339 27.0688C7.5497 28.8408 7.23144 30.795 7.43076 32.7305C7.63017 34.6659 8.33966 36.5137 9.48759 38.0846C10.6357 39.6557 12.1809 40.894 13.9645 41.6719C15.748 42.4497 17.7062 42.7394 19.6386 42.512C21.571 42.2845 23.4087 41.5475 24.9628 40.3767C26.4555 39.2522 27.6331 37.7646 28.3902 36.0587L17.9832 32.749L17.9801 32.748C17.7407 32.6684 17.532 32.5153 17.3846 32.3104C17.2374 32.1056 17.1589 31.8589 17.1597 31.6066V20.6888ZM19.5498 30.7356L30.3324 34.1454H30.3314C30.4809 34.1921 30.6201 34.2676 30.7401 34.3683C30.8601 34.4691 30.9591 34.5933 31.0311 34.7326C31.1031 34.8719 31.1474 35.0242 31.1601 35.1805C31.1727 35.3357 31.1532 35.4916 31.1054 35.6397L31.1064 35.6408C30.2578 38.3552 28.5615 40.727 26.2673 42.4078C24.0302 44.0465 21.3387 44.9413 18.5694 44.9765V45.0074H18.3578C14.8113 45.0074 11.4103 43.5986 8.90243 41.0909C6.39449 38.583 4.98486 35.1812 4.98486 31.6345C4.98495 28.0878 6.39456 24.6869 8.90243 22.179C11.4103 19.6712 14.8112 18.2616 18.3578 18.2615C18.6698 18.2614 18.9699 18.3838 19.1928 18.602C19.4154 18.8202 19.5433 19.117 19.5498 19.4287V30.7356Z" fill="#B0D3F0"/>
<path d="M33.6099 55.0364H40.5762V42.2332H33.6099V55.0364ZM35.578 44.2149H38.6081V53.0683H35.578V44.2149Z" fill="#B0D3F0"/>
<path d="M40.5762 55.0364V42.233H33.61V55.0364H40.5762ZM38.6081 44.2145V53.0683H35.5781V44.2145H38.6081ZM35.7896 52.8567H38.3965V44.4261H35.7896V52.8567ZM40.7877 55.2479H33.3984V42.0215H40.7877V55.2479Z" fill="#B0D3F0"/>
<path d="M42.7271 55.0365H49.6867V38.8718H42.7271V55.0365ZM44.6952 40.8332H47.7253V53.0684H44.6952V40.8332Z" fill="#B0D3F0"/>
<path d="M49.6867 55.0363V38.8717H42.7267V55.0363H49.6867ZM47.7248 40.8336V53.0683H44.6948V40.8336H47.7248ZM44.9063 52.8567H47.5132V41.0441H44.9063V52.8567ZM49.8972 55.2479H42.5151V38.6602H49.8972V55.2479Z" fill="#B0D3F0"/>
<path d="M51.8369 55.0364H58.8033V33.9546H51.8369V55.0364ZM53.8051 35.9228H56.8351V53.0682H53.8051V35.9228Z" fill="#B0D3F0"/>
<path d="M58.8032 55.0369V33.9547H51.8371V55.0369H58.8032ZM56.8352 35.9228V53.0678H53.8051V35.9228H56.8352ZM54.0167 52.8573H56.6236V36.1344H54.0167V52.8573ZM59.0148 55.2475H51.6255V33.7432H59.0148V55.2475Z" fill="#B0D3F0"/>
<path d="M41.8818 15.7407H57.8234V17.7089H41.8818V15.7407Z" fill="#B0D3F0"/>
<path d="M41.8818 21.2798H57.8234V23.248H41.8818V21.2798Z" fill="#B0D3F0"/>
<path d="M6.17725 47.5288H22.1188V49.497H6.17725V47.5288Z" fill="#B0D3F0"/>
<path d="M6.17725 53.0684H22.1188V55.0365H6.17725V53.0684Z" fill="#B0D3F0"/>
<path d="M6.17725 7.89502H10.9387V9.86319H6.17725V7.89502Z" fill="#B0D3F0"/>
<path d="M41.8818 27.2791H57.8234V29.2472H41.8818V27.2791Z" fill="#B0D3F0"/>
</svg>
