<svg width="64" height="64" viewBox="0 0 64 64" fill="none" xmlns="http://www.w3.org/2000/svg">
<path d="M11.6955 6.90869C9.3638 6.90869 7.4668 8.80507 7.4668 11.1358C7.4668 13.4666 9.3638 15.3629 11.6955 15.3629C14.0292 15.3629 15.9278 13.4666 15.9278 11.1358C15.9278 8.80507 14.0292 6.90869 11.6955 6.90869ZM11.6955 12.8419C10.7539 12.8419 9.98792 12.0766 9.98792 11.1358C9.98792 10.1951 10.7539 9.42982 11.6955 9.42982C12.639 9.42982 13.4068 10.1952 13.4068 11.1359C13.4068 12.0767 12.639 12.8419 11.6955 12.8419Z" fill="#0284C7"/>
<path d="M48.6706 6.90869H37.4919C35.1602 6.90869 33.2632 8.80507 33.2632 11.1358C33.2632 13.4666 35.1602 15.3629 37.4919 15.3629H48.6706C51.0023 15.3629 52.8993 13.4666 52.8993 11.1358C52.8993 8.80507 51.0023 6.90869 48.6706 6.90869ZM48.6706 12.8419H37.4919C36.5503 12.8419 35.7843 12.0766 35.7843 11.1358C35.7843 10.1951 36.5504 9.42969 37.4919 9.42969H48.6706C49.6122 9.42969 50.3782 10.1951 50.3782 11.1358C50.3782 12.0766 49.6122 12.8419 48.6706 12.8419Z" fill="#0284C7"/>
<path d="M22.6545 6.90869C20.3228 6.90869 18.4258 8.80507 18.4258 11.1358C18.4258 13.4666 20.3228 15.3629 22.6545 15.3629C24.9882 15.3629 26.8868 13.4666 26.8868 11.1358C26.8868 8.80507 24.9882 6.90869 22.6545 6.90869ZM22.6545 12.8419C21.7129 12.8419 20.9469 12.0766 20.9469 11.1358C20.9469 10.1951 21.713 9.42969 22.6545 9.42969C23.598 9.42969 24.3658 10.1951 24.3658 11.1358C24.3658 12.0766 23.598 12.8419 22.6545 12.8419Z" fill="#0284C7"/>
<path d="M20.599 27.8054C19.9221 27.6433 19.2417 28.0612 19.08 28.7384L16.5792 39.2032C16.4175 39.8803 16.8351 40.5604 17.5122 40.7222C17.6107 40.7457 17.7094 40.7571 17.8064 40.7571C18.3762 40.7571 18.893 40.3678 19.0312 39.7892L21.532 29.3244C21.6939 28.6473 21.2761 27.9673 20.599 27.8054Z" fill="#0284C7"/>
<path d="M25.2269 39.4926C25.4672 39.7066 25.7667 39.8118 26.0649 39.8118C26.412 39.8118 26.7577 39.6693 27.0068 39.3897L30.5415 35.4217C31.1248 34.7724 31.1248 33.7557 30.5452 33.1106L27.0067 29.1384C26.5434 28.6184 25.7465 28.5727 25.2269 29.0356C24.7069 29.4987 24.6609 30.2956 25.124 30.8153L28.1962 34.2639L25.124 37.7127C24.661 38.2327 24.707 39.0296 25.2269 39.4926Z" fill="#0284C7"/>
<path d="M12.8845 29.0355C12.3645 28.5724 11.5678 28.6188 11.1047 29.1384L7.57034 33.106C6.98634 33.7554 6.98634 34.7727 7.56634 35.4175L11.1048 39.3897C11.354 39.6694 11.6995 39.8118 12.0467 39.8118C12.345 39.8118 12.6446 39.7065 12.8847 39.4925C13.4047 39.0294 13.4507 38.2325 12.9876 37.7128L9.91546 34.2642L12.9876 30.8154C13.4505 30.2954 13.4045 29.4985 12.8845 29.0355Z" fill="#0284C7"/>
<path d="M61.1739 42.4415H60.7059C60.4608 41.6475 60.1431 40.881 59.7556 40.1485L60.0896 39.8134C60.623 39.2833 60.9174 38.5754 60.9185 37.8201C60.9196 37.0631 60.6263 36.3524 60.0923 35.8185L59.4415 35.1681V8.31814C59.4415 4.55826 56.7882 1.49951 53.5267 1.49951H5.91475C2.65325 1.49951 0 4.55826 0 8.31814V43.5498C0 47.3096 2.65325 50.3684 5.91475 50.3684H13.3105C14.0066 50.3684 14.571 49.804 14.571 49.1079C14.571 48.4118 14.0066 47.8474 13.3105 47.8474H5.91475C4.07525 47.8474 2.52113 45.8793 2.52113 43.5499V20.6806H56.9202V33.4188C56.7766 33.3966 56.6311 33.3821 56.483 33.3821C56.4815 33.3821 56.48 33.3821 56.4786 33.3821C55.7234 33.3834 55.0155 33.6774 54.4895 34.2063L54.1488 34.5455C53.4009 34.1504 52.622 33.829 51.8189 33.5836V33.1346C51.8189 31.5766 50.5511 30.3093 48.9927 30.3093H46.7116C45.1552 30.3093 43.8891 31.5766 43.8891 33.1346V33.6144C43.1011 33.862 42.3402 34.1806 41.613 34.5676L41.2865 34.2421C40.7562 33.7093 40.0482 33.415 39.293 33.4139C39.2916 33.4139 39.2902 33.4139 39.2887 33.4139C38.5334 33.4139 37.8241 33.707 37.2912 34.2395L35.6796 35.8504C35.1456 36.3841 34.8522 37.095 34.8534 37.8519C34.8545 38.6071 35.1487 39.315 35.6781 39.841L36.0262 40.1901C35.6484 40.9114 35.338 41.6638 35.0979 42.4413H34.6191C33.0626 42.4413 31.7965 43.707 31.7965 45.263V47.5464C31.7965 47.6479 31.8021 47.7481 31.8126 47.8469H24.4783C23.7821 47.8469 23.2178 48.4113 23.2178 49.1074C23.2178 49.8035 23.7821 50.3679 24.4783 50.3679H34.619H35.1026C35.3464 51.1528 35.6615 51.9111 36.0459 52.6371L35.7052 52.9763C34.6086 54.0788 34.6096 55.8686 35.7079 56.966L37.3204 58.5779C37.8506 59.1108 38.5586 59.405 39.3139 59.4061H39.318C40.0735 59.4061 40.7827 59.113 41.3156 58.5804L41.6533 58.243C42.3858 58.6291 43.1474 58.9446 43.9314 59.187V59.6749C43.9314 61.2329 45.1975 62.5003 46.754 62.5003H49.0386C50.595 62.5003 51.8611 61.2329 51.8611 59.6749V59.19C52.6525 58.9459 53.4173 58.6291 54.1489 58.2429L54.485 58.5778C55.0151 59.1108 55.723 59.4049 56.4782 59.4061H56.4826C57.238 59.4061 57.9472 59.113 58.4811 58.5795L60.0892 56.9686C60.6226 56.4385 60.917 55.7306 60.9181 54.9754C60.9193 54.2184 60.6259 53.5076 60.0918 52.9738L59.7554 52.6375C60.139 51.9109 60.4539 51.152 60.6973 50.368H61.1736C62.732 50.368 63.9997 49.1023 63.9997 47.5464V45.263C64 43.7073 62.7322 42.4415 61.1739 42.4415ZM2.52113 18.1595V8.31814C2.52113 5.98876 4.07525 4.02064 5.91475 4.02064H53.5267C55.3662 4.02064 56.9204 5.98876 56.9204 8.31814V18.1596L2.52113 18.1595ZM61.4789 47.5466C61.4789 47.7068 61.3364 47.8471 61.1738 47.8471H59.7323C59.1445 47.8471 58.6348 48.2533 58.5035 48.8261C58.2313 50.0143 57.7636 51.141 57.1135 52.1754C56.8004 52.6735 56.8735 53.322 57.2897 53.7379L58.3097 54.7573C58.386 54.8335 58.3973 54.9245 58.3973 54.972C58.3971 55.0288 58.3824 55.1111 58.3088 55.1841L56.6982 56.7975C56.6219 56.8738 56.5307 56.8853 56.4827 56.8853C56.4826 56.8853 56.4825 56.8853 56.4825 56.8853C56.4252 56.8853 56.3426 56.8704 56.2687 56.796L55.245 55.7765C54.8286 55.3619 54.1814 55.29 53.6842 55.6025C52.6484 56.2541 51.5169 56.7225 50.321 56.9946C49.7474 57.1254 49.3402 57.6354 49.3402 58.2239V59.6753C49.3402 59.8373 49.1994 59.9795 49.0389 59.9795H46.7542C46.5936 59.9795 46.4528 59.8374 46.4528 59.6753V58.2203C46.4528 57.6313 46.0447 57.1206 45.4702 56.9908C44.2896 56.7238 43.1601 56.2561 42.1134 55.6011C41.9071 55.472 41.6754 55.409 41.445 55.409C41.1194 55.409 40.7966 55.5349 40.5535 55.7781L39.5336 56.7975C39.4573 56.8738 39.3661 56.8853 39.3181 56.8853C39.318 56.8853 39.3179 56.8853 39.3177 56.8853C39.2606 56.8853 39.1779 56.8704 39.1055 56.7976L37.4904 55.1833C37.3773 55.0703 37.3785 54.87 37.4889 54.759L38.5125 53.7395C38.9308 53.323 39.0039 52.6723 38.6888 52.1733C38.0376 51.1423 37.5694 50.0163 37.2969 48.8265C37.1656 48.2536 36.6559 47.8474 36.068 47.8474H34.6193C34.4559 47.8474 34.3177 47.7098 34.3177 47.5469V45.2635C34.3177 45.1006 34.4559 44.9629 34.6193 44.9629H36.0644C36.6528 44.9629 37.163 44.5558 37.2936 43.9821C37.5626 42.8 38.0249 41.6786 38.6675 40.6489C38.9777 40.1518 38.9045 39.5064 38.4906 39.0914L37.4594 38.0571C37.3894 37.9876 37.3746 37.9053 37.3745 37.8485C37.3745 37.801 37.3858 37.71 37.462 37.6339L39.0735 36.0231C39.1499 35.9469 39.241 35.9354 39.289 35.9354H39.2894C39.3465 35.9355 39.4292 35.9503 39.5031 36.0246L40.5196 37.0371C40.9373 37.453 41.5869 37.5243 42.0841 37.2088C43.1141 36.5558 44.2423 36.0828 45.437 35.8031C46.007 35.6698 46.4101 35.1613 46.4101 34.5758V33.135C46.4101 32.9701 46.5481 32.8308 46.7115 32.8308H48.9926C49.158 32.8308 49.2977 32.9701 49.2977 33.135V34.5545C49.2977 35.1451 49.7077 35.6565 50.2844 35.7849C51.4837 36.052 52.628 36.5238 53.6854 37.1871C54.1823 37.4986 54.8289 37.4266 55.2449 37.0124L56.2728 35.9886C56.3425 35.9185 56.4251 35.9038 56.4823 35.9036H56.4826C56.5306 35.9036 56.6218 35.9151 56.698 35.9914L58.3096 37.602C58.3859 37.6783 58.3971 37.7693 58.3971 37.8168C58.397 37.8735 58.3822 37.9559 58.3081 38.0295L57.288 39.0526C56.8726 39.4693 56.8006 40.1178 57.1145 40.6153C57.7671 41.6499 58.2366 42.7829 58.5101 43.9826C58.6409 44.5561 59.1509 44.963 59.7393 44.963H61.1738C61.3363 44.963 61.4789 45.1036 61.4789 45.2636V47.5466Z" fill="#0284C7"/>
<path d="M47.8983 38.7065C43.6506 38.7065 40.1948 42.1608 40.1948 46.4067C40.1948 50.6505 43.6506 54.1033 47.8983 54.1033C52.1442 54.1033 55.5983 50.6507 55.5983 46.4067C55.5983 42.1609 52.1442 38.7065 47.8983 38.7065ZM47.8983 51.5822C45.0408 51.5822 42.716 49.2604 42.716 46.4067C42.716 43.5509 45.0408 41.2277 47.8983 41.2277C50.754 41.2277 53.0772 43.5509 53.0772 46.4067C53.0772 49.2604 50.7538 51.5822 47.8983 51.5822Z" fill="#0284C7"/>
<path d="M18.9317 47.8472H18.907C18.2109 47.8472 17.6465 48.4115 17.6465 49.1077C17.6465 49.8038 18.2109 50.3682 18.907 50.3682H18.9317C19.6279 50.3682 20.1922 49.8038 20.1922 49.1077C20.1922 48.4115 19.6279 47.8472 18.9317 47.8472Z" fill="#0284C7"/>
</svg>
