<svg width="64" height="64" viewBox="0 0 64 64" fill="none" xmlns="http://www.w3.org/2000/svg">
<g clip-path="url(#clip0_2601_31)">
<path d="M21.2682 7.68302C21.1296 7.25594 20.7845 6.92716 20.3509 6.80868L14.888 5.31714L11.7813 0.582764C11.2891 -0.168538 10.0443 -0.168538 9.5521 0.582764L6.44598 5.31714L0.982438 6.80868C0.548844 6.92716 0.203792 7.25594 0.0651204 7.68302C-0.0735514 8.11076 0.0123861 8.57886 0.292985 8.92912L3.8366 13.3471L3.56642 19.0033C3.54494 19.4526 3.75132 19.8816 4.1146 20.1459C4.34572 20.3139 4.62111 20.4005 4.89845 20.4005C5.05731 20.4005 5.21746 20.3718 5.37046 20.3139L10.6667 18.3093L15.9636 20.3139C16.3835 20.4734 16.8561 20.4102 17.2194 20.1459C17.5827 19.8816 17.7891 19.4526 17.7676 19.0033L17.4974 13.3471L21.0404 8.92912C21.321 8.57886 21.4069 8.11011 21.2682 7.68302ZM15.1009 12.0723C14.8978 12.3256 14.7943 12.6453 14.8093 12.9701L15.0065 17.101L11.1387 15.6368C10.9863 15.5789 10.8268 15.5502 10.6667 15.5502C10.5065 15.5502 10.347 15.5789 10.1947 15.6368L6.32749 17.1003L6.52476 12.9701C6.54038 12.6453 6.43621 12.3256 6.23309 12.0723L3.6452 8.84644L7.63478 7.75724C7.94858 7.67131 8.22007 7.47404 8.39845 7.2019L10.6667 3.74487L12.9356 7.2019C13.1139 7.47404 13.3854 7.67131 13.6992 7.75724L17.6882 8.84644L15.1009 12.0723Z" fill="#0284C7"/>
<path d="M49.3332 6.64722H26.6665V9.31388H49.3332V6.64722Z" fill="#0284C7"/>
<path d="M63.9998 13.314H26.6665V15.9806H63.9998V13.314Z" fill="#0284C7"/>
<path d="M21.2682 29.4729C21.1289 29.0458 20.7845 28.717 20.3509 28.5986L14.888 27.1077L11.7813 22.3733C11.2891 21.622 10.0443 21.622 9.5521 22.3733L6.44598 27.1077L0.982438 28.5986C0.548844 28.717 0.204443 29.0458 0.0651204 29.4729C-0.0735514 29.9 0.0123861 30.3687 0.292985 30.719L3.8366 35.137L3.56642 40.7932C3.54494 41.2424 3.75132 41.6715 4.1146 41.9358C4.47723 42.1988 4.94989 42.262 5.37046 42.1038L10.6667 40.0992L15.9636 42.1038C16.1166 42.1617 16.2767 42.1903 16.4356 42.1903C16.7129 42.1903 16.9883 42.1038 17.2194 41.9358C17.5827 41.6715 17.7891 41.2424 17.7676 40.7932L17.4974 35.137L21.0404 30.719C21.321 30.3687 21.4069 29.9 21.2682 29.4729ZM15.1009 33.8622C14.8978 34.1155 14.7943 34.4351 14.8093 34.76L15.0065 38.8909L11.1387 37.4267C10.9863 37.3687 10.8268 37.3401 10.6667 37.3401C10.5065 37.3401 10.347 37.3687 10.1947 37.4267L6.32749 38.8902L6.52476 34.76C6.54038 34.4351 6.43621 34.1155 6.23309 33.8622L3.6452 30.6363L7.63478 29.5478C7.94858 29.4618 8.22007 29.2646 8.39845 28.9924L10.6667 25.5354L12.9356 28.9924C13.1139 29.2646 13.3854 29.4618 13.6992 29.5478L17.6882 30.6363L15.1009 33.8622Z" fill="#0284C7"/>
<path d="M49.3332 27.9807H26.6665V30.6474H49.3332V27.9807Z" fill="#0284C7"/>
<path d="M63.9998 34.6472H26.6665V37.3139H63.9998V34.6472Z" fill="#0284C7"/>
<path d="M21.2682 51.2631C21.1289 50.836 20.7845 50.5072 20.3509 50.3888L14.888 48.8979L11.7813 44.1628C11.2891 43.4115 10.0443 43.4115 9.5521 44.1628L6.44598 48.8979L0.982438 50.3888C0.548844 50.5072 0.204443 50.836 0.0651204 51.2631C-0.0735514 51.6902 0.0123861 52.1589 0.292985 52.5092L3.8366 56.9272L3.56642 62.5834C3.54494 63.0326 3.75132 63.4617 4.1146 63.726C4.47723 63.9903 4.94989 64.0522 5.37046 63.894L10.6667 61.8894L15.9636 63.894C16.1166 63.9519 16.2767 63.9806 16.4356 63.9806C16.7129 63.9806 16.9883 63.894 17.2194 63.726C17.5827 63.4617 17.7891 63.0326 17.7676 62.5834L17.4974 56.9272L21.0404 52.5092C21.321 52.1589 21.4069 51.6902 21.2682 51.2631ZM15.1009 55.6524C14.8978 55.9057 14.7943 56.2253 14.8093 56.5502L15.0065 60.6811L11.1387 59.2169C10.9863 59.1589 10.8268 59.1303 10.6667 59.1303C10.5065 59.1303 10.347 59.1589 10.1947 59.2169L6.32749 60.6804L6.52476 56.5502C6.54038 56.2253 6.43621 55.9057 6.23309 55.6524L3.6452 52.4265L7.63478 51.338C7.94858 51.252 8.22007 51.0548 8.39845 50.7826L10.6667 47.325L12.9356 50.7826C13.1139 51.0548 13.3854 51.252 13.6992 51.338L17.6882 52.4265L15.1009 55.6524Z" fill="#0284C7"/>
<path d="M49.3332 50.6472H26.6665V53.3139H49.3332V50.6472Z" fill="#0284C7"/>
<path d="M63.9998 57.314H26.6665V59.9806H63.9998V57.314Z" fill="#0284C7"/>
</g>
<defs>
<clipPath id="clip0_2601_31">
<rect width="64" height="64" fill="white"/>
</clipPath>
</defs>
</svg>
