<svg width="64" height="64" viewBox="0 0 64 64" fill="none" xmlns="http://www.w3.org/2000/svg">
<path d="M21.2682 11.6637C21.1296 11.2367 20.7845 10.9079 20.3509 10.7894L14.888 9.29785L11.7813 4.56348C11.2891 3.81217 10.0443 3.81217 9.5521 4.56348L6.44598 9.29785L0.982438 10.7894C0.548844 10.9079 0.203792 11.2367 0.0651204 11.6637C-0.0735514 12.0915 0.0123861 12.5596 0.292985 12.9098L3.8366 17.3278L3.56642 22.984C3.54494 23.4333 3.75132 23.8623 4.1146 24.1266C4.34572 24.2946 4.62111 24.3812 4.89845 24.3812C5.05731 24.3812 5.21746 24.3525 5.37046 24.2946L10.6667 22.29L15.9636 24.2946C16.3835 24.4541 16.8561 24.3909 17.2194 24.1266C17.5827 23.8623 17.7891 23.4333 17.7676 22.984L17.4974 17.3278L21.0404 12.9098C21.321 12.5596 21.4069 12.0908 21.2682 11.6637ZM15.1009 16.0531C14.8978 16.3063 14.7943 16.626 14.8093 16.9508L15.0065 21.0817L11.1387 19.6175C10.9863 19.5596 10.8268 19.5309 10.6667 19.5309C10.5065 19.5309 10.347 19.5596 10.1947 19.6175L6.32749 21.0811L6.52476 16.9508C6.54038 16.626 6.43621 16.3063 6.23309 16.0531L3.6452 12.8271L7.63478 11.738C7.94858 11.652 8.22007 11.4548 8.39845 11.1826L10.6667 7.72559L12.9356 11.1826C13.1139 11.4548 13.3854 11.652 13.6992 11.738L17.6882 12.8271L15.1009 16.0531Z" fill="#B0D3F0"/>
<path d="M49.3332 10.6279H26.6665V13.2946H49.3332V10.6279Z" fill="#B0D3F0"/>
<path d="M63.9998 17.2947H26.6665V19.9613H63.9998V17.2947Z" fill="#B0D3F0"/>
<path d="M63.9998 30.3813H26.6665V33.048H63.9998V30.3813Z" fill="#B0D3F0"/>
<path d="M21.2682 46.7118C21.1289 46.2847 20.7845 45.956 20.3509 45.8375L14.888 44.3466L11.7813 39.6116C11.2891 38.8603 10.0443 38.8603 9.5521 39.6116L6.44598 44.3466L0.982438 45.8375C0.548844 45.956 0.204443 46.2847 0.0651204 46.7118C-0.0735514 47.1389 0.0123861 47.6077 0.292985 47.9579L3.8366 52.3759L3.56642 58.0321C3.54494 58.4814 3.75132 58.9104 4.1146 59.1747C4.47723 59.439 4.94989 59.5009 5.37046 59.3427L10.6667 57.3381L15.9636 59.3427C16.1166 59.4006 16.2767 59.4293 16.4356 59.4293C16.7129 59.4293 16.9883 59.3427 17.2194 59.1747C17.5827 58.9104 17.7891 58.4814 17.7676 58.0321L17.4974 52.3759L21.0404 47.9579C21.321 47.6077 21.4069 47.1389 21.2682 46.7118ZM15.1009 51.1012C14.8978 51.3544 14.7943 51.6741 14.8093 51.9989L15.0065 56.1298L11.1387 54.6656C10.9863 54.6077 10.8268 54.579 10.6667 54.579C10.5065 54.579 10.347 54.6077 10.1947 54.6656L6.32749 56.1292L6.52476 51.9989C6.54038 51.6741 6.43621 51.3544 6.23309 51.1012L3.6452 47.8752L7.63478 46.7867C7.94858 46.7008 8.22007 46.5035 8.39845 46.2314L10.6667 42.7737L12.9356 46.2314C13.1139 46.5035 13.3854 46.7008 13.6992 46.7867L17.6882 47.8752L15.1009 51.1012Z" fill="#B0D3F0"/>
<path d="M49.3332 46.0959H26.6665V48.7626H49.3332V46.0959Z" fill="#B0D3F0"/>
<path d="M63.9998 52.7627H26.6665V55.4294H63.9998V52.7627Z" fill="#B0D3F0"/>
</svg>
