<svg width="64" height="64" viewBox="0 0 64 64" fill="none" xmlns="http://www.w3.org/2000/svg">
<path d="M63.8346 36.6787L60.5951 31.7221C59.1646 29.5318 56.7342 28.2239 54.0923 28.2239H45.7142V23.4027C45.7142 20.4591 43.3204 18.0653 40.3768 18.0653H24.6931C23.813 13.4691 19.7673 9.98193 14.9182 9.98193C9.42732 9.98193 4.9607 14.4491 4.9607 19.9394C4.9607 23.3916 6.7284 26.437 9.40465 28.2239H1.01609C0.454567 28.2239 0 28.6785 0 29.24C0 29.8015 0.454567 30.2561 1.01609 30.2561H11.1747V32.2877H7.11089C6.54994 32.2877 6.09538 32.7422 6.09538 33.3038C6.09538 33.8653 6.54994 34.3193 7.11089 34.3193H11.1747V36.3509H1.01609C0.454567 36.3509 0 36.8054 0 37.367C0 37.9285 0.454567 38.383 1.01609 38.383H11.1747V42.8822C9.38372 43.6722 8.12698 45.4591 8.12698 47.5389V48.5416C8.12698 49.1031 8.58212 49.5577 9.14307 49.5577H18.153C18.7308 52.0433 20.9595 53.9034 23.6189 53.9034C26.2788 53.9034 28.5069 52.0433 29.0847 49.5577H48.6293C49.2077 52.0433 51.4364 53.9034 54.0952 53.9034C56.754 53.9034 58.9832 52.0433 59.561 49.5577H62.9842C63.5457 49.5577 63.9997 49.1031 63.9997 48.5416V37.2344C63.9997 37.0368 63.9422 36.8432 63.8346 36.6787ZM6.9923 19.9394C6.9923 15.5693 10.548 12.0135 14.9182 12.0135C19.2889 12.0135 22.844 15.5693 22.844 19.9394C22.844 24.3095 19.2889 27.8652 14.9182 27.8652C10.548 27.8652 6.9923 24.3095 6.9923 19.9394ZM13.2063 38.383H15.2379C15.7994 38.383 16.254 37.9285 16.254 37.367C16.254 36.8054 15.7994 36.3509 15.2379 36.3509H13.2063V34.3193H20.3177C20.8787 34.3193 21.3332 33.8653 21.3332 33.3038C21.3332 32.7422 20.8787 32.2877 20.3177 32.2877H13.2063V30.2561H26.4125C26.9735 30.2561 27.4286 29.8015 27.4286 29.24C27.4286 28.6785 26.9735 28.2239 26.4125 28.2239H20.4317C23.0666 26.4643 24.8146 23.4835 24.868 20.0969H40.3774C42.1997 20.0969 43.6826 21.5804 43.6826 23.4027V42.4462H13.2191C13.215 42.4462 13.2109 42.4474 13.2063 42.4474V38.383ZM43.6826 47.5255H29.1771C29.0173 46.3571 28.4988 45.3039 27.7332 44.4778H43.6826V47.5255ZM13.2191 44.4778H19.5045C18.7395 45.3039 18.2204 46.3571 18.0612 47.5255H10.1586C10.1656 45.8445 11.5362 44.4778 13.2191 44.4778ZM23.6189 51.8718C21.6431 51.8718 20.0346 50.264 20.0346 48.2876C20.0346 46.3118 21.6431 44.7034 23.6189 44.7034C25.5952 44.7034 27.2031 46.3118 27.2031 48.2876C27.2031 50.264 25.5952 51.8718 23.6189 51.8718ZM54.0952 51.8718C52.1194 51.8718 50.511 50.264 50.511 48.2876C50.511 46.3118 52.1194 44.7034 54.0952 44.7034C56.0715 44.7034 57.6794 46.3118 57.6794 48.2876C57.6794 50.264 56.0715 51.8718 54.0952 51.8718ZM61.9681 47.5255H59.6534C59.2797 44.7894 56.9324 42.6718 54.0952 42.6718C51.2579 42.6718 48.9112 44.7894 48.5369 47.5255H45.7142V30.2561H54.0923C56.0448 30.2561 57.8404 31.2193 58.8949 32.8329L61.9681 37.5367V47.5255Z" fill="#B0D3F0"/>
<path d="M55.7569 48.2879C55.7569 49.2057 55.0129 49.9498 54.095 49.9498C53.1772 49.9498 52.4331 49.2057 52.4331 48.2879C52.4331 47.37 53.1772 46.626 54.095 46.626C55.0129 46.626 55.7569 47.37 55.7569 48.2879Z" fill="#B0D3F0"/>
<path d="M25.2807 48.2879C25.2807 49.2057 24.5367 49.9498 23.6188 49.9498C22.7016 49.9498 21.9575 49.2057 21.9575 48.2879C21.9575 47.37 22.7016 46.626 23.6188 46.626C24.5367 46.626 25.2807 47.37 25.2807 48.2879Z" fill="#B0D3F0"/>
<path d="M16.254 19.9395V15.495C16.254 14.9335 15.7994 14.4795 15.2379 14.4795C14.6769 14.4795 14.2224 14.9335 14.2224 15.495V19.6082L12.1489 22.4524C11.8182 22.9058 11.9176 23.5406 12.371 23.8708C12.5523 24.0033 12.7616 24.0667 12.9691 24.0667C13.2824 24.0667 13.5917 23.9219 13.7905 23.6487L16.0592 20.5377C16.1854 20.3644 16.254 20.1552 16.254 19.9395Z" fill="#B0D3F0"/>
<path d="M53.7528 31.2715H51.8095C51.248 31.2715 50.7935 31.7261 50.7935 32.2876V39.3985C50.7935 39.96 51.248 40.4146 51.8095 40.4146H58.6466C59.2837 40.4146 59.854 40.085 60.1737 39.5345C60.4934 38.984 60.494 38.3248 60.1789 37.7755L57.8067 33.6234C56.9784 32.1736 55.4246 31.2715 53.7528 31.2715ZM52.8256 38.383V33.3037H53.7528C54.6974 33.3037 55.5745 33.8123 56.0425 34.6319L58.1857 38.383H52.8256Z" fill="#B0D3F0"/>
</svg>
