<svg width="64" height="64" viewBox="0 0 64 64" fill="none" xmlns="http://www.w3.org/2000/svg">
<path d="M28.4072 46.9675C27.0542 46.9675 25.9544 45.8686 25.9544 44.5157C25.9544 43.1628 27.0542 42.0639 28.4072 42.0639C29.7601 42.0639 30.8599 43.1628 30.8599 44.5157C30.8599 45.8686 29.7601 46.9675 28.4072 46.9675ZM28.4072 44.1285C28.1934 44.1285 28.019 44.3019 28.019 44.5157C28.019 44.9431 28.7953 44.9431 28.7953 44.5157C28.7953 44.3019 28.6209 44.1285 28.4072 44.1285ZM37.6275 46.9675C36.2746 46.9675 35.1758 45.8686 35.1758 44.5157C35.1758 43.1628 36.2746 42.0639 37.6275 42.0639C38.9805 42.0639 40.0793 43.1628 40.0793 44.5157C40.0793 45.8686 38.9805 46.9675 37.6275 46.9675ZM37.6275 44.1285C37.4138 44.1285 37.2404 44.3019 37.2404 44.5157C37.2404 44.9431 38.0147 44.9431 38.0147 44.5157C38.0147 44.3019 37.8413 44.1285 37.6275 44.1285ZM45.3498 23.4235C44.8921 22.8267 44.1965 22.4849 43.4445 22.4849H19.9885L19.3773 20.1995C19.0678 19.0391 18.0133 18.2296 16.8126 18.2296H15.2742C14.7036 18.2296 14.2419 18.6913 14.2419 19.2619C14.2419 19.8325 14.7036 20.2943 15.2742 20.2943H16.8126C17.0798 20.2943 17.3137 20.4747 17.3832 20.7328L22.314 39.1685C22.6749 40.5194 23.9038 41.463 25.3021 41.463H41.8516C42.4222 41.463 42.884 41.0013 42.884 40.4307C42.884 39.8601 42.4222 39.3984 41.8516 39.3984H25.3021C24.8374 39.3984 24.4281 39.0838 24.3081 38.6362L23.9317 37.2289H27.3486H37.0892H39.4704C41.3395 37.2289 42.9827 35.9667 43.4666 34.1601L45.7672 25.5073C45.9608 24.7795 45.8075 24.0203 45.3498 23.4235ZM43.7126 24.6817C43.7509 24.7311 43.8094 24.8349 43.7711 24.977L42.7477 28.8251H39.1217L39.6969 24.5496H43.4445C43.5896 24.5496 43.6743 24.6323 43.7126 24.6817ZM37.0397 28.8251H33.2462V24.5496H37.6155L37.0397 28.8251ZM31.1815 24.5496V28.8251H27.3917L26.8123 24.5496H31.1815ZM24.7286 24.5496L25.3079 28.8251H21.6892L20.5437 24.5496H24.7286ZM25.5875 30.8897L26.1667 35.1642H23.3877L22.2424 30.8897H25.5875ZM27.6716 30.8897H31.1815V35.1642H28.2509L27.6716 30.8897ZM33.2462 35.1642V30.8897H36.7616L36.1859 35.1642H33.2462ZM39.4704 35.1642H38.2688L38.8438 30.8897H42.1987L41.4705 33.6278C41.2286 34.5331 40.406 35.1642 39.4704 35.1642ZM17.484 6.98228C17.484 6.44773 17.0514 6.01517 16.5168 6.01517H5.89716C5.36261 6.01517 4.93005 6.44772 4.93005 6.98228C4.93005 7.51684 5.3626 7.94939 5.89716 7.94939H16.5168C17.0514 7.94939 17.484 7.51684 17.484 6.98228ZM46.6482 6.98216C46.6482 7.5523 46.186 8.01449 45.6159 8.01449C45.0458 8.01449 44.5836 7.5523 44.5836 6.98216C44.5836 6.41202 45.0458 5.94983 45.6159 5.94983C46.186 5.94984 46.6482 6.41203 46.6482 6.98216ZM49.8748 5.94984C49.3047 5.94984 48.8425 6.41203 48.8425 6.98217C48.8425 7.55231 49.3047 8.0145 49.8748 8.0145C50.4449 8.0145 50.9071 7.55231 50.9071 6.98217C50.9071 6.41203 50.4449 5.94984 49.8748 5.94984ZM54.1337 5.94984C53.5635 5.94984 53.1013 6.41203 53.1013 6.98217C53.1013 7.55231 53.5635 8.0145 54.1337 8.0145C54.7038 8.0145 55.166 7.55231 55.166 6.98217C55.166 6.41203 54.7038 5.94984 54.1337 5.94984ZM63.2442 51.0605L60.0781 48.3912C60.0802 48.3275 60.09 48.265 60.09 48.2012V7.87121C60.09 4.77117 57.56 2.24121 54.46 2.24121H5.63C2.53002 2.24121 0 4.77118 0 7.87121V48.2012C0 51.3012 2.53003 53.8312 5.63 53.8312H48.9679L48.9691 57.698C48.9691 58.5307 49.4368 59.2667 50.1909 59.6195C50.9389 59.9683 51.8079 59.8594 52.4471 59.3292L54.3807 57.7222L55.4574 60.0349C55.79 60.7567 56.3869 61.3051 57.1329 61.5773C57.4656 61.6983 57.8124 61.7588 58.1551 61.7588C58.5826 61.7588 59.0101 61.666 59.4092 61.4805C60.1291 61.1458 60.6775 60.549 60.9497 59.803C61.2219 59.0549 61.1876 58.2464 60.8509 57.5286L59.7762 55.214L62.2502 54.7724C63.0688 54.6252 63.7099 54.0344 63.9257 53.23C64.1414 52.4275 63.8793 51.5948 63.2442 51.0605ZM2.05999 7.87121C2.05999 5.91119 3.65997 4.31121 5.63 4.31121H54.46C56.43 4.31121 58.03 5.91119 58.03 7.87121V9.65118H2.05999V7.87121ZM48.965 43.5821L48.9673 51.7612H5.63C3.65997 51.7612 2.05999 50.1612 2.05999 48.2012V11.7212H58.03V46.6645L52.4511 41.9611C51.8119 41.4207 50.945 41.3118 50.1909 41.6606C49.4348 42.0115 48.965 42.7474 48.965 43.5821ZM61.8853 52.74L58.0927 53.4175C57.7781 53.4739 57.5059 53.6735 57.3587 53.9578C57.2095 54.2421 57.2035 54.5788 57.3386 54.8692L58.9798 58.4017C59.0826 58.6194 59.0927 58.8674 59.0101 59.0953C58.9254 59.3231 58.758 59.5066 58.5402 59.6094C58.3185 59.7103 58.0684 59.7223 57.8427 59.6376C57.6128 59.555 57.4313 59.3876 57.3285 59.1658L55.6872 55.6374C55.5521 55.347 55.29 55.1353 54.9775 55.0648C54.9029 55.0486 54.8263 55.0406 54.7517 55.0406C54.5138 55.0406 54.2799 55.1232 54.0923 55.2785L51.0337 57.698L51.1204 43.5378L61.9134 52.6372L61.8853 52.74Z" fill="#B0D3F0"/>
</svg>
