<svg width="64" height="64" viewBox="0 0 64 64" fill="none" xmlns="http://www.w3.org/2000/svg">
<path d="M57.3879 6.42776H27.4398C26.8879 6.42776 26.4405 6.87514 26.4405 7.42701C26.4405 7.97889 26.8879 8.42626 27.4398 8.42626H57.3878C59.3806 8.42626 61.0019 10.0475 61.0019 12.0404V43.7743C61.0019 45.7653 59.3806 47.3849 57.3878 47.3849H6.61214C4.61926 47.3849 2.99801 45.7653 2.99801 43.7743V23.1203C2.99801 22.5684 2.55064 22.121 1.99876 22.121C1.44689 22.121 0.999512 22.5684 0.999512 23.1203V43.7741C0.999512 46.867 3.51726 49.3833 6.61201 49.3833H21.5719V54.7158H15.5518C12.8301 54.7158 10.616 56.574 10.616 58.858V62.001C10.616 62.5529 11.0634 63.0003 11.6153 63.0003H52.3845C52.9364 63.0003 53.3838 62.5529 53.3838 62.001V58.858C53.3838 56.5741 51.1696 54.7158 48.448 54.7158H42.4279V49.3833H57.3878C60.4825 49.3833 63.0003 46.867 63.0003 43.7741V12.0403C63.0004 8.94551 60.4826 6.42776 57.3879 6.42776ZM51.3854 58.858V61.0016H12.6146V58.858C12.6146 57.696 13.9598 56.7144 15.552 56.7144H48.4481C50.0403 56.7144 51.3854 57.696 51.3854 58.858ZM40.4295 54.7159H23.5705V49.3834H40.4295V54.7159ZM5.85751 27.2836C5.30564 27.2836 4.85826 27.731 4.85826 28.2829V40.6171C4.85826 41.169 5.30564 41.6164 5.85751 41.6164H58.1425C58.6944 41.6164 59.1418 41.169 59.1418 40.6171V11.9234C59.1418 11.0208 58.4074 10.2864 57.5048 10.2864H28.7011C28.1493 10.2864 27.7019 10.7338 27.7019 11.2856C27.7019 11.8375 28.1493 12.2849 28.7011 12.2849H57.1433V39.6179H54.3086V19.6655C54.3086 19.1136 53.8613 18.6663 53.3094 18.6663H48.657C48.1051 18.6663 47.6578 19.1136 47.6578 19.6655V39.6178H45.67V27.7053C45.67 27.1534 45.2226 26.706 44.6708 26.706H40.0184C39.4665 26.706 39.0191 27.1534 39.0191 27.7053V39.6178H37.0314V25.7671C37.0314 25.2153 36.584 24.7679 36.0321 24.7679H31.38C30.8281 24.7679 30.3808 25.2153 30.3808 25.7671V39.6179H28.3929V31.5285C28.3929 30.9766 27.9455 30.5293 27.3936 30.5293H22.7449C22.193 30.5293 21.7456 30.9766 21.7456 31.5285V39.6178H6.85676V28.2828C6.85676 27.731 6.40926 27.2836 5.85751 27.2836ZM49.6563 20.6648H52.3101V39.6179H49.6563V20.6648ZM41.0178 28.7045H43.6716V39.6179H41.0178V28.7045ZM32.3791 26.7663H35.033V39.6178H32.3791V26.7663ZM23.7441 32.5278H26.3945V39.6179H23.7441V32.5278ZM5.62876 11.9585C5.24351 12.1073 4.98939 12.4776 4.98939 12.8908V15.0523C4.98939 15.4653 5.24339 15.8356 5.62876 15.9844L6.48026 16.3131C6.62014 16.7621 6.80076 17.1969 7.02051 17.6135L6.64901 18.4476C6.48064 18.8255 6.56276 19.2681 6.85526 19.5606L8.38239 21.0878C8.67489 21.3803 9.11751 21.4623 9.49539 21.294L10.3314 20.9216C10.7471 21.1398 11.1811 21.32 11.6291 21.4606L11.9586 22.3143C12.1074 22.6995 12.4778 22.9536 12.8909 22.9536H15.0524C15.4654 22.9536 15.8358 22.6995 15.9845 22.3143L16.3139 21.4611C16.7656 21.3198 17.1999 21.1396 17.6133 20.9223L18.4479 21.2939C18.8259 21.4623 19.2684 21.3803 19.5609 21.0876L21.088 19.5605C21.3805 19.268 21.4626 18.8254 21.2943 18.4475L20.9225 17.6129C21.1399 17.1995 21.32 16.7653 21.4614 16.3135L22.3145 15.9841C22.6998 15.8354 22.9539 15.465 22.9539 15.052V12.8905C22.9539 12.4775 22.6998 12.107 22.3145 11.9583L21.4614 11.6289C21.32 11.1773 21.1399 10.7429 20.9225 10.3296L21.2943 9.49501C21.4626 9.11714 21.3805 8.67451 21.088 8.38201L19.5609 6.85489C19.2684 6.56239 18.8258 6.48026 18.4479 6.64864L17.6138 7.02014C17.1971 6.80039 16.7624 6.61976 16.3134 6.47989L15.9846 5.62839C15.8359 5.24301 15.4655 4.98901 15.0525 4.98901H12.891C12.478 4.98901 12.1075 5.24314 11.9588 5.62839L11.6301 6.47989C11.1811 6.61976 10.7463 6.80039 10.3298 7.02014L9.49564 6.64864C9.11776 6.48039 8.67526 6.56226 8.38264 6.85489L6.85526 8.38226C6.56276 8.67476 6.48064 9.11739 6.64901 9.49526L7.02051 10.3294C6.80076 10.746 6.62014 11.1808 6.48026 11.6298L5.62876 11.9585ZM6.98776 13.576L7.67001 13.3126C7.97764 13.1939 8.20676 12.931 8.28264 12.61C8.42439 12.0095 8.66189 11.4384 8.98826 10.9123C9.16289 10.631 9.18676 10.2814 9.05201 9.97889L8.75389 9.30951L9.30976 8.75364L9.97914 9.05176C10.2816 9.18651 10.6313 9.16264 10.9125 8.98801C11.4385 8.66164 12.0098 8.42414 12.6103 8.28239C12.9311 8.20664 13.194 7.97739 13.3129 7.66976L13.5763 6.98751H14.367L14.6304 7.66976C14.7491 7.97739 15.012 8.20651 15.3329 8.28239C15.9334 8.42414 16.5045 8.66164 17.0306 8.98801C17.3119 9.16251 17.6615 9.18651 17.964 9.05176L18.6334 8.75364L19.1893 9.30951L18.8911 9.97889C18.7564 10.2814 18.7803 10.6309 18.9549 10.9123C19.2764 11.4304 19.5141 12.0031 19.6616 12.6146C19.7385 12.9335 19.9671 13.1944 20.2731 13.3125L20.9554 13.5759V14.3666L20.2731 14.63C19.9671 14.7481 19.7385 15.009 19.6616 15.3279C19.5141 15.9394 19.2764 16.5121 18.9549 17.0301C18.7803 17.3114 18.7564 17.661 18.8911 17.9635L19.1893 18.6329L18.6334 19.1888L17.964 18.8906C17.6615 18.7558 17.3119 18.7798 17.0306 18.9544C16.5126 19.2759 15.94 19.5136 15.3284 19.6611C15.0095 19.738 14.7486 19.9666 14.6305 20.2726L14.3671 20.9549H13.5764L13.313 20.2726C13.1949 19.9666 12.934 19.738 12.6151 19.6611C12.0116 19.5156 11.4378 19.2771 10.9093 18.9523C10.6285 18.7798 10.2806 18.7566 9.97951 18.8906L9.31014 19.1888L8.75426 18.6329L9.05239 17.9635C9.18714 17.661 9.16326 17.3115 8.98864 17.0301C8.66226 16.5041 8.42476 15.9329 8.28301 15.3324C8.20726 15.0115 7.97801 14.7486 7.67039 14.6299L6.98814 14.3665V13.576H6.98776ZM13.9716 18.7408C16.6015 18.7408 18.7409 16.6013 18.7409 13.9715C18.7409 11.3418 16.6014 9.20226 13.9716 9.20226C11.3419 9.20226 9.20239 11.3418 9.20239 13.9715C9.20239 16.6013 11.3419 18.7408 13.9716 18.7408ZM13.9716 11.2005C15.4995 11.2005 16.7425 12.4435 16.7425 13.9714C16.7425 15.4993 15.4995 16.7423 13.9716 16.7423C12.4438 16.7423 11.2008 15.4993 11.2008 13.9714C11.2008 12.4435 12.4439 11.2005 13.9716 11.2005ZM23.4585 8.45476C23.1805 7.97814 23.3415 7.36626 23.8183 7.08826C24.2948 6.81051 24.9068 6.97114 25.1848 7.44801C26.3354 9.42101 26.9436 11.6768 26.9436 13.9715C26.9436 21.1244 21.1244 26.9435 13.9716 26.9435C11.6936 26.9435 9.46151 26.3393 7.50476 25.2143C7.41926 25.5465 7.16576 25.8261 6.81201 25.9271C6.72039 25.9533 6.62801 25.9658 6.53726 25.9658C6.10239 25.9658 5.70226 25.6796 5.57689 25.2406L4.97101 23.1183C4.88676 22.823 4.94276 22.5055 5.12314 22.257C5.30351 22.0085 5.58814 21.8568 5.89489 21.8455L8.10239 21.764C8.65351 21.7445 9.11739 22.1743 9.13776 22.7256C9.15101 23.0833 8.97389 23.403 8.69776 23.5899C10.3054 24.471 12.12 24.9453 13.9715 24.9453C20.0224 24.9453 24.9451 20.0225 24.9451 13.9716C24.9453 12.0301 24.4311 10.1225 23.4585 8.45476ZM2.84289 20.637C1.63701 18.6284 0.999637 16.3235 0.999637 13.9715C0.999637 6.81864 6.81889 0.999512 13.9716 0.999512C16.2548 0.999512 18.481 1.60426 20.4351 2.72789C20.5209 2.39601 20.7743 2.11676 21.1276 2.01576C21.6583 1.86414 22.2113 2.17164 22.3628 2.70226L22.9686 4.82476C23.053 5.12026 22.9968 5.43814 22.816 5.68676C22.6353 5.93539 22.3501 6.08689 22.0431 6.09776L19.8356 6.17576C19.8236 6.17614 19.8116 6.17639 19.7998 6.17639C19.2641 6.17639 18.8208 5.75189 18.8018 5.21251C18.7891 4.85514 18.9664 4.53589 19.2424 4.34939C17.6375 3.47001 15.8268 2.99801 13.9716 2.99801C7.92076 2.99801 2.99801 7.92076 2.99801 13.9716C2.99801 15.9614 3.53689 17.9105 4.55626 19.6085C4.84026 20.0816 4.68701 20.6955 4.21389 20.9795C4.05289 21.0761 3.87551 21.1221 3.70051 21.1223C3.36114 21.122 3.03026 20.9491 2.84289 20.637ZM24.4555 25.9176L33.0941 19.1924C33.3556 18.9889 33.7009 18.9284 34.016 19.0303L42.0699 21.64L48.3555 15.302L48.2584 15.3105C47.7086 15.3593 47.2243 14.9515 47.1764 14.4016C47.1285 13.8519 47.5354 13.3674 48.0853 13.3196L50.8951 13.0751C51.1934 13.049 51.4875 13.1583 51.6968 13.3725C51.9059 13.5868 52.008 13.8834 51.9749 14.181L51.663 16.9838C51.6061 17.4946 51.1734 17.8725 50.6711 17.8726C50.6343 17.8726 50.597 17.8705 50.5594 17.8664C50.027 17.8071 49.6404 17.3398 49.6739 16.8108L43.0561 23.4836C42.7906 23.7513 42.3974 23.847 42.0386 23.7306L33.904 21.0946L25.6834 27.4945C25.501 27.6365 25.2848 27.7054 25.0703 27.7054C24.7726 27.7054 24.4781 27.573 24.2811 27.32C23.9419 26.8844 24.02 26.2566 24.4555 25.9176Z" fill="#B0D3F0"/>
</svg>
