<svg width="64" height="64" viewBox="0 0 64 64" fill="none" xmlns="http://www.w3.org/2000/svg">
<path d="M49.9917 17.4497H44.8515V16.127C44.8515 13.9444 43.1167 12.1587 40.9964 12.1587H23.0057C20.8854 12.1587 19.1506 13.9444 19.1506 16.127V17.4497H14.0104C11.8901 17.4497 10.1553 19.2354 10.1553 21.418V47.873C10.1553 50.0555 11.8901 51.8412 14.0104 51.8412H49.9917C52.112 51.8412 53.8468 50.0555 53.8468 47.873V21.418C53.8468 19.2354 52.112 17.4497 49.9917 17.4497ZM21.7207 16.127C21.7207 15.3994 22.2989 14.8042 23.0057 14.8042H40.9964C41.7031 14.8042 42.2814 15.3994 42.2814 16.127V17.4497H21.7207V16.127ZM12.7254 21.418C12.7254 20.6905 13.3036 20.0952 14.0104 20.0952H49.9917C50.6985 20.0952 51.2768 20.6905 51.2768 21.418V24.0634C51.2768 27.7143 48.3983 30.6773 44.8515 30.6773H43.5665V29.3545C43.5665 28.6269 42.9882 28.0317 42.2814 28.0317C41.5747 28.0317 40.9964 28.6269 40.9964 29.3545V30.6773H23.0057V29.3545C23.0057 28.6269 22.4274 28.0317 21.7207 28.0317C21.0139 28.0317 20.4356 28.6269 20.4356 29.3545V30.6773H19.1506C15.6039 30.6773 12.7254 27.7143 12.7254 24.0634V21.418ZM51.2768 47.873C51.2768 48.6005 50.6985 49.1957 49.9917 49.1957H14.0104C13.3036 49.1957 12.7254 48.6005 12.7254 47.873V30.5317C14.3574 32.2513 16.6319 33.3227 19.1506 33.3227H20.4356V34.6455C20.4356 35.373 21.0139 35.9682 21.7207 35.9682C22.4274 35.9682 23.0057 35.373 23.0057 34.6455V33.3227H40.9964V34.6455C40.9964 35.373 41.5747 35.9682 42.2814 35.9682C42.9882 35.9682 43.5665 35.373 43.5665 34.6455V33.3227H44.8515C47.3702 33.3227 49.6448 32.2513 51.2768 30.5317V47.873Z" fill="white"/>
<path fill-rule="evenodd" clip-rule="evenodd" d="M45.0047 17.291H49.9906C52.1961 17.291 54 19.1478 54 21.418V47.873C54 50.1432 52.1961 52 49.9906 52H14.0093C11.8038 52 10 50.1432 10 47.873V21.418C10 19.1478 11.8038 17.291 14.0093 17.291H18.9953V16.127C18.9953 13.8568 20.7992 12 23.0047 12H40.9953C43.2008 12 45.0047 13.8568 45.0047 16.127V17.291ZM23.0047 14.963C22.383 14.963 21.8738 15.4871 21.8738 16.127V17.291H42.1261V16.127C42.1261 15.4871 41.6169 14.963 40.9953 14.963H23.0047ZM14.0093 20.2539C13.3877 20.2539 12.8785 20.7781 12.8785 21.418V24.0634C12.8785 27.6267 15.688 30.5186 19.1495 30.5186H20.2804V29.3545C20.2804 28.5393 20.9277 27.873 21.7197 27.873C22.5115 27.873 23.1589 28.5393 23.1589 29.3545V30.5186H40.8411V29.3545C40.8411 28.5393 41.4884 27.873 42.2803 27.873C43.0723 27.873 43.7196 28.5393 43.7196 29.3545V30.5186H44.8505C48.312 30.5186 51.1215 27.6267 51.1215 24.0634V21.418C51.1215 20.7781 50.6123 20.2539 49.9906 20.2539H14.0093ZM49.9906 49.037C50.6123 49.037 51.1215 48.5129 51.1215 47.873V30.9105C49.4847 32.5019 47.2792 33.4815 44.8505 33.4815H43.7196V34.6455C43.7196 35.4607 43.0723 36.127 42.2803 36.127C41.4884 36.127 40.8411 35.4607 40.8411 34.6455V33.4815H23.1589V34.6455C23.1589 35.4607 22.5115 36.127 21.7197 36.127C20.9277 36.127 20.2804 35.4607 20.2804 34.6455V33.4815H19.1495C16.7208 33.4815 14.5153 32.5019 12.8785 30.9105V47.873C12.8785 48.5129 13.3877 49.037 14.0093 49.037H49.9906ZM12.7243 30.5318C12.7751 30.5852 12.8265 30.6381 12.8785 30.6904C14.4981 32.317 16.7092 33.3227 19.1495 33.3227H20.4346V34.6455C20.4346 35.373 21.0129 35.9682 21.7197 35.9682C22.4264 35.9682 23.0047 35.373 23.0047 34.6455V33.3227H40.9953V34.6455C40.9953 35.373 41.5735 35.9682 42.2803 35.9682C42.9872 35.9682 43.5655 35.373 43.5655 34.6455V33.3227H44.8505C47.2908 33.3227 49.5019 32.317 51.1215 30.6904C51.1735 30.6381 51.2249 30.5852 51.2757 30.5318V47.873C51.2757 48.6006 50.6974 49.1958 49.9906 49.1958H14.0093C13.3026 49.1958 12.7243 48.6006 12.7243 47.873V30.5318ZM49.9906 17.4497C52.1109 17.4497 53.8457 19.2355 53.8457 21.418V47.873C53.8457 50.0556 52.1109 51.8413 49.9906 51.8413H14.0093C11.889 51.8413 10.1542 50.0556 10.1542 47.873V21.418C10.1542 19.2355 11.889 17.4497 14.0093 17.4497H19.1495V16.127C19.1495 13.9445 20.8844 12.1587 23.0047 12.1587H40.9953C43.1157 12.1587 44.8505 13.9445 44.8505 16.127V17.4497H49.9906ZM23.0047 14.8042C22.2979 14.8042 21.7197 15.3995 21.7197 16.127V17.4497H42.2803V16.127C42.2803 15.3995 41.702 14.8042 40.9953 14.8042H23.0047ZM14.0093 20.0952C13.3026 20.0952 12.7243 20.6905 12.7243 21.418V24.0634C12.7243 27.7143 15.6028 30.6773 19.1495 30.6773H20.4346V29.3545C20.4346 28.627 21.0129 28.0318 21.7197 28.0318C22.4264 28.0318 23.0047 28.627 23.0047 29.3545V30.6773H40.9953V29.3545C40.9953 28.627 41.5735 28.0318 42.2803 28.0318C42.9872 28.0318 43.5655 28.627 43.5655 29.3545V30.6773H44.8505C48.3971 30.6773 51.2757 27.7143 51.2757 24.0634V21.418C51.2757 20.6905 50.6974 20.0952 49.9906 20.0952H14.0093Z" fill="white"/>
</svg>
