<svg width="64" height="64" viewBox="0 0 64 64" fill="none" xmlns="http://www.w3.org/2000/svg">
<path d="M17.0667 64H46.9334C48.3474 63.9983 49.7029 63.4359 50.7028 62.436C51.7026 61.4362 52.265 60.0806 52.2667 58.6667V5.33333C52.265 3.91937 51.7026 2.5638 50.7028 1.56397C49.7029 0.564141 48.3474 0.00169371 46.9334 0L17.0667 0C15.6528 0.00169371 14.2972 0.564141 13.2974 1.56397C12.2975 2.5638 11.7351 3.91937 11.7334 5.33333V58.6667C11.7351 60.0806 12.2975 61.4362 13.2974 62.436C14.2972 63.4359 15.6528 63.9983 17.0667 64ZM46.9334 61.8667H17.0667C16.218 61.8667 15.4041 61.5295 14.804 60.9294C14.2039 60.3293 13.8667 59.5154 13.8667 58.6667V49.0667H50.1334V58.6667C50.1334 59.5154 49.7963 60.3293 49.1961 60.9294C48.596 61.5295 47.7821 61.8667 46.9334 61.8667ZM13.8667 46.9333V21.3333H50.1334V46.9333H13.8667ZM41.3014 2.13333L40.9697 3.45813C40.912 3.68917 40.7788 3.89429 40.5911 4.04081C40.4034 4.18733 40.172 4.26684 39.9339 4.26667H24.0662C23.8281 4.26684 23.5968 4.18733 23.4091 4.04081C23.2214 3.89429 23.0881 3.68917 23.0305 3.45813L22.6987 2.13333H41.3014ZM17.0667 2.13333H20.5014L20.9611 3.97653C21.1343 4.6689 21.534 5.28349 22.0966 5.72261C22.6592 6.16173 23.3525 6.40016 24.0662 6.4H39.9339C40.6476 6.40016 41.3409 6.16173 41.9035 5.72261C42.4661 5.28349 42.8658 4.6689 43.039 3.97653L43.4987 2.13333H46.9334C47.7821 2.13333 48.596 2.47048 49.1961 3.07059C49.7963 3.67071 50.1334 4.48464 50.1334 5.33333V19.2H13.8667V5.33333C13.8667 4.48464 14.2039 3.67071 14.804 3.07059C15.4041 2.47048 16.218 2.13333 17.0667 2.13333Z" fill="#B0D3F0"/>
<path d="M20.2669 16.0001C20.8998 16.0001 21.5185 15.8124 22.0447 15.4608C22.571 15.1092 22.9811 14.6094 23.2233 14.0247C23.4655 13.44 23.5289 12.7965 23.4054 12.1758C23.2819 11.5551 22.9772 10.9849 22.5296 10.5374C22.0821 10.0898 21.5119 9.78506 20.8912 9.66159C20.2704 9.53811 19.627 9.60148 19.0423 9.84368C18.4576 10.0859 17.9578 10.496 17.6062 11.0223C17.2546 11.5485 17.0669 12.1672 17.0669 12.8001C17.0669 13.6488 17.404 14.4627 18.0042 15.0628C18.6043 15.663 19.4182 16.0001 20.2669 16.0001ZM20.2669 11.7334C20.4779 11.7334 20.6841 11.796 20.8595 11.9132C21.0349 12.0304 21.1716 12.197 21.2524 12.3919C21.3331 12.5868 21.3542 12.8013 21.3131 13.0082C21.2719 13.2151 21.1703 13.4052 21.0211 13.5543C20.872 13.7035 20.6819 13.8051 20.475 13.8463C20.2681 13.8874 20.0536 13.8663 19.8587 13.7856C19.6638 13.7048 19.4972 13.5681 19.38 13.3927C19.2628 13.2173 19.2002 13.0111 19.2002 12.8001C19.2002 12.5172 19.3126 12.2459 19.5126 12.0459C19.7127 11.8458 19.984 11.7334 20.2669 11.7334Z" fill="#B0D3F0"/>
<path d="M20.2669 52.2666C19.634 52.2666 19.0153 52.4543 18.4891 52.8059C17.9628 53.1575 17.5527 53.6573 17.3105 54.242C17.0683 54.8267 17.0049 55.4702 17.1284 56.0909C17.2519 56.7116 17.5566 57.2818 18.0042 57.7293C18.4517 58.1769 19.0219 58.4816 19.6426 58.6051C20.2633 58.7286 20.9068 58.6652 21.4915 58.423C22.0762 58.1808 22.576 57.7707 22.9276 57.2444C23.2792 56.7182 23.4669 56.0995 23.4669 55.4666C23.4669 54.6179 23.1298 53.804 22.5296 53.2039C21.9295 52.6037 21.1156 52.2666 20.2669 52.2666ZM20.2669 56.5333C20.0559 56.5333 19.8497 56.4707 19.6743 56.3535C19.4989 56.2363 19.3622 56.0697 19.2814 55.8748C19.2007 55.6799 19.1796 55.4654 19.2207 55.2585C19.2619 55.0516 19.3635 54.8615 19.5126 54.7124C19.6618 54.5632 19.8519 54.4616 20.0588 54.4204C20.2657 54.3793 20.4802 54.4004 20.6751 54.4811C20.87 54.5619 21.0366 54.6986 21.1538 54.874C21.271 55.0494 21.3336 55.2556 21.3336 55.4666C21.3336 55.7495 21.2212 56.0208 21.0211 56.2208C20.8211 56.4209 20.5498 56.5333 20.2669 56.5333Z" fill="#B0D3F0"/>
<path d="M46.1246 36.5473L38.9267 28.4492C38.7211 28.2335 38.4738 28.0617 38.1999 27.9444C37.926 27.8271 37.6311 27.7666 37.3331 27.7666C37.0351 27.7666 36.7402 27.8271 36.4663 27.9444C36.1924 28.0617 35.9451 28.2335 35.7395 28.4492L28.7539 36.3073L26.0414 33.6001C25.6413 33.2002 25.0988 32.9755 24.5331 32.9755C23.9674 32.9755 23.4249 33.2002 23.0248 33.6001L18.004 38.6134C17.7056 38.9101 17.4691 39.263 17.3082 39.6517C17.1472 40.0404 17.0651 40.4572 17.0664 40.878V42.6668C17.0664 43.2326 17.2912 43.7752 17.6913 44.1753C18.0913 44.5753 18.634 44.8001 19.1998 44.8001H44.7998C45.3656 44.8001 45.9082 44.5753 46.3083 44.1753C46.7083 43.7752 46.9331 43.2326 46.9331 42.6668V38.6721C46.9327 37.8887 46.6451 37.1327 46.1246 36.5473ZM44.7998 42.6668H19.1998V40.878C19.2006 40.5953 19.3129 40.3243 19.5123 40.1238L24.5331 35.103L27.2467 37.8166C27.672 38.2161 28.2333 38.4388 28.8168 38.4396C29.1073 38.4303 29.3929 38.362 29.6562 38.239C29.9195 38.1159 30.155 37.9407 30.3486 37.7238L37.3331 29.8668L44.5299 37.9638C44.7035 38.1589 44.7995 38.4109 44.7998 38.6721V42.6668Z" fill="#B0D3F0"/>
<path d="M20.8002 31.9999C21.5386 31.9999 22.2604 31.7809 22.8744 31.3707C23.4883 30.9605 23.9668 30.3774 24.2494 29.6952C24.5319 29.013 24.6059 28.2624 24.4618 27.5382C24.3178 26.814 23.9622 26.1488 23.4401 25.6267C22.918 25.1046 22.2528 24.749 21.5286 24.6049C20.8044 24.4609 20.0537 24.5348 19.3715 24.8174C18.6894 25.1 18.1063 25.5785 17.6961 26.1924C17.2859 26.8064 17.0669 27.5282 17.0669 28.2665C17.0669 29.2567 17.4602 30.2063 18.1604 30.9064C18.8605 31.6065 19.8101 31.9999 20.8002 31.9999ZM20.8002 26.6665C21.1167 26.6665 21.426 26.7604 21.6891 26.9362C21.9523 27.112 22.1573 27.3619 22.2784 27.6542C22.3995 27.9466 22.4312 28.2683 22.3695 28.5787C22.3077 28.8891 22.1554 29.1741 21.9316 29.3979C21.7078 29.6217 21.4227 29.7741 21.1124 29.8358C20.802 29.8975 20.4803 29.8658 20.1879 29.7447C19.8956 29.6236 19.6457 29.4186 19.4699 29.1555C19.2941 28.8923 19.2002 28.583 19.2002 28.2665C19.2002 27.8422 19.3688 27.4352 19.6689 27.1352C19.9689 26.8351 20.3759 26.6665 20.8002 26.6665Z" fill="#B0D3F0"/>
<path d="M27.7332 11.7334H36.2665C36.5494 11.7334 36.8207 11.6211 37.0208 11.421C37.2208 11.221 37.3332 10.9497 37.3332 10.6668C37.3332 10.3839 37.2208 10.1126 37.0208 9.91252C36.8207 9.71248 36.5494 9.6001 36.2665 9.6001H27.7332C27.4503 9.6001 27.179 9.71248 26.9789 9.91252C26.7789 10.1126 26.6665 10.3839 26.6665 10.6668C26.6665 10.9497 26.7789 11.221 26.9789 11.421C27.179 11.6211 27.4503 11.7334 27.7332 11.7334Z" fill="#B0D3F0"/>
<path d="M27.7332 16H33.0665C33.3494 16 33.6207 15.8877 33.8208 15.6876C34.0208 15.4876 34.1332 15.2163 34.1332 14.9334C34.1332 14.6505 34.0208 14.3792 33.8208 14.1791C33.6207 13.9791 33.3494 13.8667 33.0665 13.8667H27.7332C27.4503 13.8667 27.179 13.9791 26.9789 14.1791C26.7789 14.3792 26.6665 14.6505 26.6665 14.9334C26.6665 15.2163 26.7789 15.4876 26.9789 15.6876C27.179 15.8877 27.4503 16 27.7332 16Z" fill="#B0D3F0"/>
<path d="M36.2665 52.2666H27.7332C27.4503 52.2666 27.179 52.379 26.9789 52.579C26.7789 52.7791 26.6665 53.0504 26.6665 53.3333C26.6665 53.6162 26.7789 53.8875 26.9789 54.0875C27.179 54.2876 27.4503 54.3999 27.7332 54.3999H36.2665C36.5494 54.3999 36.8207 54.2876 37.0208 54.0875C37.2208 53.8875 37.3332 53.6162 37.3332 53.3333C37.3332 53.0504 37.2208 52.7791 37.0208 52.579C36.8207 52.379 36.5494 52.2666 36.2665 52.2666Z" fill="#B0D3F0"/>
<path d="M33.0665 56.5332H27.7332C27.4503 56.5332 27.179 56.6456 26.9789 56.8456C26.7789 57.0457 26.6665 57.317 26.6665 57.5999C26.6665 57.8828 26.7789 58.1541 26.9789 58.3541C27.179 58.5542 27.4503 58.6665 27.7332 58.6665H33.0665C33.3494 58.6665 33.6207 58.5542 33.8208 58.3541C34.0208 58.1541 34.1332 57.8828 34.1332 57.5999C34.1332 57.317 34.0208 57.0457 33.8208 56.8456C33.6207 56.6456 33.3494 56.5332 33.0665 56.5332Z" fill="#B0D3F0"/>
</svg>
