<svg width="64" height="64" viewBox="0 0 64 64" fill="none" xmlns="http://www.w3.org/2000/svg">
<g clip-path="url(#clip0_2619_327)">
<path d="M27.5 13.7499C27.5 13.0865 27.4528 12.4339 27.3614 11.7952H39.8295C42.9551 11.7952 45.8062 12.7564 47.8576 14.5019C49.9785 16.3064 51.0995 18.7989 51.0995 21.71V29.1073L48.814 26.8216C48.3257 26.3336 47.5345 26.3336 47.0461 26.8216C46.558 27.3097 46.558 28.1013 47.0461 28.5895L51.4655 33.0089C51.7096 33.2529 52.0295 33.375 52.3494 33.375C52.6693 33.375 52.9891 33.2529 53.2332 33.0089L57.6526 28.5895C58.1408 28.1014 58.1408 27.3099 57.6526 26.8216C57.1644 26.3336 56.3731 26.3336 55.8848 26.8216L53.5993 29.1073V21.71C53.5993 18.0954 52.1354 14.8592 49.4775 12.5979C46.9745 10.4681 43.548 9.29525 39.8293 9.29525H26.7594C24.9045 3.89325 19.7734 0 13.75 0C6.16825 0 0 6.16825 0 13.7499C0 21.3316 6.16825 27.4999 13.75 27.4999C21.3317 27.4999 27.5 21.3316 27.5 13.7499ZM2.5 13.7499C2.5 7.54663 7.54675 2.5 13.75 2.5C19.9532 2.5 25 7.54663 25 13.7499C25 19.9531 19.9532 24.9999 13.75 24.9999C7.54675 24.9999 2.5 19.9531 2.5 13.7499Z" fill="#B0D3F0"/>
<path d="M62.7502 35.8752H47.5511C47.2149 35.8752 46.8929 36.0106 46.6578 36.2508L36.8571 46.2626C36.6283 46.4961 36.5003 46.8101 36.5003 47.1369V49.9546H24.1707C17.9674 49.9546 12.9207 44.9079 12.9207 38.7047V34.1456L15.2063 36.4312C15.4504 36.6752 15.7703 36.7973 16.0902 36.7973C16.4101 36.7973 16.7299 36.6752 16.9741 36.4312C17.4622 35.9431 17.4622 35.1516 16.9741 34.6633L12.5547 30.2439C12.0666 29.7559 11.2752 29.7559 10.7869 30.2439L6.36756 34.6633C5.87943 35.1514 5.87943 35.9429 6.36756 36.4312C6.85568 36.9192 7.64706 36.9192 8.13531 36.4312L10.4209 34.1456V38.7047C10.4209 46.2863 16.5892 52.4546 24.1709 52.4546H36.5002V62.7502C36.5002 63.4404 37.0599 64.0002 37.7502 64.0002H62.7502C63.4404 64.0002 64.0002 63.4404 64.0002 62.7502V37.1252C64.0002 36.4349 63.4404 35.8752 62.7502 35.8752ZM46.3011 40.1889V45.8869H40.7232L46.3011 40.1889ZM61.5002 61.5002H39.0002V48.3869H47.5509C48.2412 48.3869 48.8009 47.8272 48.8009 47.1369V38.3752H61.5002V61.5002Z" fill="#B0D3F0"/>
<path d="M57.75 56.5H54.5625C53.8723 56.5 53.3125 57.0598 53.3125 57.75C53.3125 58.4402 53.8723 59 54.5625 59H57.75C58.4402 59 59 58.4402 59 57.75C59 57.0598 58.4404 56.5 57.75 56.5Z" fill="#B0D3F0"/>
<path d="M57.75 51.5234H42.75C42.0598 51.5234 41.5 52.0832 41.5 52.7734C41.5 53.4637 42.0598 54.0234 42.75 54.0234H57.75C58.4402 54.0234 59 53.4637 59 52.7734C59 52.0832 58.4404 51.5234 57.75 51.5234Z" fill="#B0D3F0"/>
<path d="M49.5508 56.5H42.75C42.0598 56.5 41.5 57.0598 41.5 57.75C41.5 58.4402 42.0598 59 42.75 59H49.5506C50.2409 59 50.8006 58.4402 50.8006 57.75C50.8006 57.0598 50.241 56.5 49.5508 56.5Z" fill="#B0D3F0"/>
<path d="M14.9999 21.2423V19.6693C15.8642 19.2798 16.536 18.5889 16.8986 17.7129C17.6806 15.8249 16.7809 13.6528 14.8927 12.8704L13.5635 12.3201C13.2684 12.1977 13.0375 11.9656 12.9135 11.6661C12.7895 11.3666 12.7885 11.0392 12.9109 10.7439C13.0331 10.4488 13.2652 10.2179 13.5646 10.0939C13.8642 9.96993 14.1919 9.96893 14.4869 10.0913L15.1515 10.3666C15.7894 10.6302 16.5205 10.3277 16.7846 9.68993C17.0487 9.05218 16.7459 8.32093 16.1081 8.0568L15.4435 7.78155C15.2977 7.72118 15.1496 7.67055 14.9997 7.62955V6.2583C14.9997 5.56805 14.4401 5.0083 13.7497 5.0083C13.0594 5.0083 12.4997 5.56805 12.4997 6.2583V7.8313C11.6354 8.2208 10.9637 8.91168 10.6011 9.78755C10.2232 10.6997 10.2241 11.7067 10.6037 12.6231C10.9834 13.5396 11.6947 14.2522 12.6069 14.6302L13.936 15.1806C14.5505 15.4352 14.8434 16.1422 14.5889 16.7568C14.4666 17.0519 14.2344 17.2828 13.935 17.4068C13.6356 17.5308 13.308 17.5321 13.0129 17.4094L12.3482 17.1342C11.7102 16.8704 10.9792 17.1729 10.7151 17.8108C10.451 18.4487 10.7539 19.1797 11.3916 19.4439L12.0562 19.7191C12.202 19.7794 12.3501 19.83 12.4999 19.871V21.2424C12.4999 21.9327 13.0595 22.4924 13.7499 22.4924C14.4402 22.4924 14.9999 21.9326 14.9999 21.2423Z" fill="#B0D3F0"/>
<path d="M52.7384 48.3867H57.7502C58.4404 48.3867 59.0002 47.827 59.0002 47.1367V42.125C59.0002 41.4348 58.4404 40.875 57.7502 40.875H52.7383C52.048 40.875 51.4883 41.4348 51.4883 42.125V47.1367C51.4884 47.827 52.048 48.3867 52.7384 48.3867ZM53.9884 43.375H56.5002V45.8867H53.9883V43.375H53.9884Z" fill="#B0D3F0"/>
</g>
<defs>
<clipPath id="clip0_2619_327">
<rect width="64" height="64" fill="white"/>
</clipPath>
</defs>
</svg>
