<svg width="64" height="64" viewBox="0 0 64 64" fill="none" xmlns="http://www.w3.org/2000/svg">
<path d="M49.5254 53.5123H14.7004V34.0498H12.6504V58.6248C12.6504 61.4498 14.9504 63.7498 17.7754 63.7498H46.4504C49.2754 63.7498 51.5754 61.4498 51.5754 58.6248V34.0498H49.5254V53.5123ZM46.4504 61.6998H17.7754C16.0754 61.6998 14.7004 60.3248 14.7004 58.6248V55.5498H49.5254V58.6248C49.5254 60.3248 48.1504 61.6998 46.4504 61.6998Z" fill="#B0D3F0"/>
<path d="M14.7004 10.4875H49.5254V27.9H51.5754V5.375C51.5754 2.55 49.2754 0.25 46.4504 0.25H17.7754C14.9504 0.25 12.6504 2.55 12.6504 5.375V27.9125H14.7004V10.4875ZM17.7754 2.3H46.4504C48.1504 2.3 49.5254 3.675 49.5254 5.375V8.45H14.7004V5.375C14.7004 3.675 16.0754 2.3 17.7754 2.3Z" fill="#B0D3F0"/>
<path d="M25.9629 4.3501H38.2504V6.4001H25.9629V4.3501Z" fill="#B0D3F0"/>
<path d="M30.0625 57.6001H34.1625V59.6501H30.0625V57.6001Z" fill="#B0D3F0"/>
<path d="M21.875 4.3501H23.925V6.4001H21.875V4.3501Z" fill="#B0D3F0"/>
<path d="M45.9127 29.9498C46.2502 29.0248 46.4502 28.1123 46.4502 27.2498C46.4502 22.5248 42.7752 18.6748 38.2627 18.6748C35.9002 18.6748 33.6627 19.7623 32.1127 21.5873C30.5752 19.7623 28.3252 18.6748 25.9627 18.6748C21.4502 18.6748 17.7752 22.5248 17.7752 27.2498C17.7752 28.0998 17.9752 29.0123 18.3252 29.9498H8.3252V31.9998H19.3002C22.7877 38.1498 32.1002 45.5873 32.1002 45.5873C32.1002 45.5873 41.4877 38.2123 44.9502 31.9998H55.6627V29.9498H45.9127ZM19.8252 27.2623C19.8252 23.6623 22.5877 20.7373 25.9752 20.7373C28.1377 20.7373 30.1002 21.9123 31.2252 23.8998L32.1127 25.4623L33.0002 23.8998C34.1252 21.9248 36.0877 20.7373 38.2502 20.7373C41.6377 20.7373 44.4002 23.6623 44.4002 27.2623C44.4002 28.0873 44.1377 28.9998 43.7127 29.9623H39.8877L37.4877 32.3623L35.2002 28.1248L31.8752 32.2248L27.3752 23.9248L23.1502 29.9623H20.5377C20.0877 28.9873 19.8252 28.0748 19.8252 27.2623ZM32.1127 42.9748C29.3377 40.6873 24.3752 36.1248 21.6877 31.9998H24.2127L27.1502 27.7998L31.5252 35.8873L34.8502 31.7873L36.9877 35.7373L40.7252 31.9998H42.5752C39.9002 36.1623 34.9127 40.7123 32.1127 42.9748Z" fill="#B0D3F0"/>
</svg>
