<svg width="64" height="64" viewBox="0 0 64 64" fill="none" xmlns="http://www.w3.org/2000/svg">
<g clip-path="url(#clip0_2619_324)">
<path d="M42.4498 49.2677H26.5832C26.1438 49.2677 25.7867 49.6249 25.7867 50.0644V50.2198C25.7867 52.0934 27.3108 53.6177 29.1841 53.6177H39.8503C41.7236 53.6177 43.2477 52.0934 43.2477 50.2198V50.0644C43.2464 49.6249 42.8906 49.2677 42.4498 49.2677ZM39.849 52.0243H29.1828C28.4141 52.0243 27.7555 51.5397 27.4953 50.8598H41.5351C41.2775 51.541 40.619 52.0243 39.849 52.0243ZM51.9331 47.9864C51.7273 47.8364 51.4605 47.7952 51.2189 47.8735L47.3448 49.1363C46.284 49.4815 45.5976 50.4269 45.5976 51.5423V52.274C45.5976 52.7135 45.9548 53.0706 46.3942 53.0706H49.7319C51.1272 53.0706 52.2624 51.9354 52.2624 50.5398V48.6304C52.261 48.3768 52.1389 48.1364 51.9331 47.9864ZM50.6679 50.5398C50.6679 51.0563 50.247 51.4773 49.7306 51.4773H47.1921C47.216 51.0869 47.459 50.7735 47.8374 50.65L50.6679 49.7272V50.5398ZM21.6896 49.1363L17.8155 47.8749C17.5726 47.7952 17.3071 47.8377 17.1013 47.9877C16.8955 48.1378 16.772 48.3768 16.772 48.633V50.5425C16.772 51.938 17.9071 53.0733 19.3025 53.0733H22.6402C23.0796 53.0733 23.4367 52.7161 23.4367 52.2766V51.545C23.4354 50.4269 22.7504 49.4815 21.6896 49.1363ZM19.3025 51.4786C18.786 51.4786 18.3652 51.0577 18.3652 50.5411V49.7298L21.1957 50.6527C21.5741 50.7762 21.817 51.0895 21.8409 51.4799H19.3025V51.4786ZM9.39833 32.8053L5.52429 31.5426C5.28133 31.4642 5.01581 31.5054 4.81002 31.6554C4.60424 31.8055 4.48077 32.0445 4.48077 32.3008V34.2102C4.48077 35.6057 5.6159 36.741 7.01124 36.741H10.3489C10.7884 36.741 11.1455 36.3838 11.1455 35.9443V35.2127C11.1455 34.096 10.4591 33.1519 9.39833 32.8053ZM7.01124 35.1476C6.49479 35.1476 6.07393 34.7267 6.07393 34.2102V33.3989L8.90445 34.3217C9.28283 34.4452 9.52578 34.7586 9.54968 35.1489H7.01124V35.1476ZM62.4653 8.32681H58.7226L55.7394 2.54412C54.9176 0.950725 53.3577 0 51.5654 0H31.9668C30.1745 0 28.6145 0.950725 27.7914 2.54412L24.8082 8.32681H21.0656C20.2239 8.32681 19.5388 9.01197 19.5388 9.85381V10.8709C19.5388 11.6371 20.1124 12.2891 20.8718 12.3847L22.6003 12.6051L22.3414 13.107C21.8768 14.0059 21.5475 14.8956 21.3364 15.8065H12.4267C10.6344 15.8065 9.07306 16.7572 8.25125 18.3506L5.26806 24.1333H1.52678C0.68506 24.1333 0 24.8184 0 25.659V26.6774C0 27.4436 0.573539 28.0955 1.33295 28.1911L3.06153 28.4102L2.80264 28.9108C1.91843 30.6237 1.50819 32.3193 1.50819 34.246V42.1015V45.5618C1.50819 46.725 2.4548 47.6717 3.61781 47.6717H6.98867C8.15168 47.6717 9.09829 46.725 9.09829 45.5618V42.8982H10.726C10.8959 42.8982 11.0619 42.8437 11.1986 42.7428L12.1333 42.055H12.2926V43.0057C12.2926 43.7719 12.8661 44.4225 13.6255 44.5194L15.3541 44.7385L15.0952 45.2391C14.211 46.952 13.8008 48.6477 13.8008 50.5743V58.4298V61.8901C13.8008 63.0533 14.7474 64 15.9104 64H19.2812C20.4443 64 21.3909 63.0533 21.3909 61.8901V59.2265H23.0185C23.1885 59.2265 23.3544 59.172 23.4912 59.0711L24.4258 58.3833H44.6152L45.5498 59.0711C45.6866 59.172 45.8525 59.2265 46.0225 59.2265H47.6502V61.8901C47.6502 63.0533 48.5968 64 49.7598 64H53.1306C54.2937 64 55.2403 63.0533 55.2403 61.8901V58.4298V50.577C55.2403 48.6503 54.8287 46.9547 53.9445 45.2418L53.6856 44.7412L55.4142 44.5221C56.1749 44.4252 56.7471 43.7745 56.7471 43.0084V41.9912C56.7471 41.1494 56.0621 40.4642 55.2217 40.4642H51.4791L48.4959 34.6816C47.6741 33.0882 46.1128 32.1374 44.3205 32.1374H42.7658C42.5693 31.034 42.2108 29.993 41.6532 28.9135L41.3943 28.4129L43.1229 28.1938C43.8837 28.0969 44.4572 27.4462 44.4572 26.6801V26.2538H51.8654L52.8001 26.9416C52.9368 27.0426 53.1028 27.097 53.2727 27.097H54.9004V29.7606C54.9004 30.9238 55.847 31.8705 57.01 31.8705H60.3809C61.5439 31.8705 62.4905 30.9238 62.4905 29.7606V26.3003V18.4449C62.4905 16.5169 62.0789 14.8225 61.196 13.1097L60.9371 12.6091L62.6657 12.39C63.4265 12.293 64 11.6424 64 10.8762V9.85249C63.992 9.01064 63.307 8.32681 62.4653 8.32681ZM29.208 3.27442C29.7589 2.20685 30.7653 1.59339 31.9668 1.59339H51.5654C52.7682 1.59339 53.7732 2.20685 54.3242 3.27442L57.5875 9.6002H25.9447L29.208 3.27442ZM21.1333 10.8112V9.92021H23.9864L23.3797 11.098L21.1333 10.8112ZM9.66784 19.0796C10.2188 18.0107 11.2252 17.3985 12.4267 17.3985H32.0239C33.2254 17.3985 34.2318 18.012 34.7827 19.0796L38.0461 25.4053H6.40451L9.66784 19.0796ZM36.3931 18.725H48.7853C48.5264 19.4049 47.8679 19.8895 47.0979 19.8895H36.9932L36.3931 18.725ZM1.59316 26.6163V25.7253H4.44625L3.83952 26.9031L1.59316 26.6163ZM7.5038 45.5618C7.5038 45.842 7.26748 46.0783 6.98735 46.0783H3.61781C3.33768 46.0783 3.10136 45.842 3.10136 45.5618V42.8982H7.5038V45.5618ZM13.8844 42.9473V42.0563H16.7375L16.1308 43.2341L13.8844 42.9473ZM19.795 61.8914C19.795 62.1716 19.5587 62.4079 19.2786 62.4079H15.9077C15.6276 62.4079 15.3913 62.1716 15.3913 61.8914V59.2278H19.7937V61.8914H19.795ZM45.3441 56.9479C45.2073 56.847 45.0414 56.7926 44.8714 56.7926H24.1603C23.9904 56.7926 23.8244 56.847 23.6877 56.9479L22.753 57.6357H15.3913V50.577C15.3913 48.8906 15.7365 47.4712 16.5091 45.9721L17.8726 43.3297H51.1591L52.5226 45.9721C53.2953 47.4712 53.6405 48.8906 53.6405 50.577V57.6357H46.2787L45.3441 56.9479ZM53.1253 62.4079H49.7545C49.4743 62.4079 49.238 62.1716 49.238 61.8914V59.2278H53.6405V61.8914C53.6418 62.1716 53.4055 62.4079 53.1253 62.4079ZM55.1487 42.055V42.946L52.9023 43.2314L52.2956 42.0537H55.1487V42.055ZM47.074 35.4105L50.3373 41.7363H18.6944L21.9578 35.4105C22.5087 34.3416 23.5151 33.7295 24.7166 33.7295H44.3138C45.518 33.7295 46.523 34.3416 47.074 35.4105ZM20.0194 35.6947H16.8928C16.1228 35.6947 15.4643 35.21 15.2054 34.5302H20.6248C20.5969 34.5793 20.5677 34.6284 20.5412 34.6789L20.0194 35.6947ZM24.7179 32.1361C23.7394 32.1361 22.8313 32.4216 22.0733 32.9381H14.292C13.8525 32.9381 13.4954 33.2953 13.4954 33.7348V33.8902C13.4954 35.7637 15.0195 37.2881 16.8928 37.2881H19.1963L17.5593 40.4616H13.8167H11.8704C11.7005 40.4616 11.5345 40.516 11.3978 40.6169L10.4631 41.3048H3.10136V34.246C3.10136 32.5597 3.44654 31.1402 4.21923 29.6411L5.58271 26.9987H38.8692L40.2327 29.6411C40.6668 30.4816 40.9615 31.2916 41.1408 32.1348H24.7179V32.1361ZM42.8587 26.6163L40.6124 26.9018L40.0056 25.724H42.8587V26.6163ZM52.5943 24.8118C52.4575 24.7109 52.2916 24.6564 52.1216 24.6564H44.0735C43.7934 24.3351 43.3831 24.132 42.9251 24.132H39.1825L37.8164 21.4829H47.0992C48.9725 21.4829 50.4966 19.9586 50.4966 18.085V17.9297C50.4966 17.4902 50.1395 17.133 49.7 17.133H35.3058C34.4482 16.2871 33.2958 15.8065 32.0239 15.8065H25.2689L25.0631 15.7388C24.848 15.6684 24.6144 15.6949 24.4205 15.8065H22.9814C23.1619 15.1479 23.4182 14.4972 23.7594 13.8373L25.1228 11.1949H58.4093L59.7728 13.8373C60.5455 15.3351 60.8907 16.7559 60.8907 18.4422V25.5009H53.5289L52.5943 24.8118ZM60.3742 30.2718H57.0034C56.7232 30.2718 56.4869 30.0355 56.4869 29.7553V27.0917H60.8893V29.7553C60.8907 30.0355 60.6544 30.2718 60.3742 30.2718ZM62.3989 10.8112L60.1525 11.0967L59.5458 9.91888H62.3989V10.8112ZM59.182 15.8516C58.9762 15.7016 58.7094 15.6604 58.4677 15.7388L54.5937 17.0015C53.5329 17.3468 52.8465 18.2922 52.8465 19.4075V20.1392C52.8465 20.5787 53.2037 20.9359 53.6431 20.9359H56.9808C58.3761 20.9359 59.5113 19.8006 59.5113 18.405V16.4956C59.5113 16.2407 59.3891 16.0003 59.182 15.8516ZM57.9181 18.405C57.9181 18.9216 57.4972 19.3425 56.9808 19.3425H54.4423C54.4662 18.9521 54.7092 18.6387 55.0876 18.5152L57.9181 17.5924V18.405Z" fill="#B0D3F0"/>
</g>
<defs>
<clipPath id="clip0_2619_324">
<rect width="64" height="64" fill="white"/>
</clipPath>
</defs>
</svg>
