<svg width="64" height="64" viewBox="0 0 64 64" fill="none" xmlns="http://www.w3.org/2000/svg">
<g clip-path="url(#clip0_2615_214)">
<path d="M31.8201 63.0707C23.521 63.0707 15.7185 59.8388 9.85013 53.9704C3.98175 48.1021 0.75 40.2997 0.75 32.0006C0.75 14.8287 14.6451 0.929443 31.8201 0.929443C40.138 0.929443 48.0017 4.15869 53.9631 10.0226C66.352 22.2091 66.3562 41.7874 53.9631 53.9778C48.0017 59.8413 40.1378 63.0707 31.8201 63.0707ZM31.8201 3.42944C16.0665 3.42944 3.25 16.2464 3.25 32.0006C3.25 47.7542 16.0665 60.5706 31.8201 60.5706C47.7721 60.5707 60.75 47.7542 60.75 32.0006C60.75 16.2464 47.7721 3.42944 31.8201 3.42944Z" fill="#B0D3F0"/>
<path d="M57.2658 48.4294H6.37451C5.68414 48.4294 5.12451 47.8698 5.12451 47.1794C5.12451 46.4892 5.68414 45.9294 6.37451 45.9294H57.2658C57.956 45.9294 58.5158 46.4892 58.5158 47.1794C58.5158 47.8698 57.956 48.4294 57.2658 48.4294Z" fill="#B0D3F0"/>
<path d="M62 33.2505H2C1.30963 33.2505 0.75 32.6909 0.75 32.0005C0.75 31.3101 1.30963 30.7505 2 30.7505H62C62.6902 30.7505 63.25 31.3101 63.25 32.0005C63.25 32.6909 62.6902 33.2505 62 33.2505Z" fill="#B0D3F0"/>
<path d="M57.2658 18.4294H6.37451C5.68414 18.4294 5.12451 17.8698 5.12451 17.1794C5.12451 16.4891 5.68414 15.9294 6.37451 15.9294H57.2658C57.956 15.9294 58.5158 16.4891 58.5158 17.1794C58.5158 17.8698 57.956 18.4294 57.2658 18.4294Z" fill="#B0D3F0"/>
<path d="M31.8199 63.0707C27.4334 63.0707 23.3834 59.7194 20.416 53.6346C17.5875 47.8344 16.0298 40.1514 16.0298 32.0007C16.0298 23.8496 17.5875 16.1662 20.416 10.3658C23.3834 4.28069 27.4334 0.929443 31.8199 0.929443C36.2087 0.929443 40.2598 4.28069 43.2267 10.3658C46.0539 16.1649 47.611 23.8482 47.611 32.0006C47.611 40.1524 46.0539 47.8354 43.2267 53.6343C40.2597 59.7194 36.2087 63.0707 31.8199 63.0707ZM31.8199 3.42944C28.4408 3.42944 25.1889 6.28194 22.663 11.4616C19.9977 16.9274 18.5298 24.2217 18.5298 32.0007C18.5298 39.7792 19.9977 47.0732 22.663 52.5387C25.1888 57.7182 28.4408 60.5707 31.8199 60.5707C35.2012 60.5707 38.454 57.7183 40.9794 52.5388C43.6438 47.0743 45.111 39.7804 45.111 32.0007C45.111 24.2204 43.6438 16.9262 40.9794 11.4616C38.4542 6.28194 35.2012 3.42944 31.8199 3.42944Z" fill="#B0D3F0"/>
<path d="M32 63.0707C31.3096 63.0707 30.75 62.5109 30.75 61.8207V2.17944C30.75 1.48907 31.3096 0.929443 32 0.929443C32.6902 0.929443 33.25 1.48907 33.25 2.17944V61.8206C33.25 62.5109 32.6902 63.0707 32 63.0707Z" fill="#B0D3F0"/>
</g>
<defs>
<clipPath id="clip0_2615_214">
<rect width="64" height="64" fill="white"/>
</clipPath>
</defs>
</svg>
