<svg width="64" height="64" viewBox="0 0 64 64" fill="none" xmlns="http://www.w3.org/2000/svg">
<path d="M60.07 25.8374H59.0884V23.1681C59.0884 20.0899 56.5841 17.5858 53.506 17.5858H52.1136C51.5227 15.3923 49.5173 13.7729 47.1396 13.7729C44.2991 13.7729 41.9883 16.0837 41.9883 18.9242V27.4488H22.0116V18.9242C22.0116 16.0837 19.7007 13.7729 16.8604 13.7729C14.4829 13.7729 12.4774 15.3923 11.8865 17.5858H10.494C7.41588 17.5858 4.91162 20.0899 4.91162 23.1681V25.8374H3.93C1.763 25.8374 0 27.6006 0 29.7674V34.2186C0 36.3856 1.763 38.1484 3.93 38.1484H4.91175V40.8321C4.91175 43.9102 7.416 46.4143 10.4941 46.4143H11.8866C12.4775 48.6078 14.483 50.2272 16.8605 50.2272C19.701 50.2272 22.0117 47.9164 22.0117 45.0759V36.5513H39.1366C39.6545 36.5513 40.0741 36.1317 40.0741 35.6138C40.0741 35.0959 39.6545 34.6763 39.1366 34.6763H22.0116V29.3237H41.9883V45.0761C41.9883 47.9166 44.2991 50.2273 47.1396 50.2273C49.5173 50.2273 51.5227 48.6079 52.1136 46.4144H53.506C56.5841 46.4144 59.0884 43.9103 59.0884 40.8322V38.1486H60.07C62.237 38.1486 64 36.3857 64 34.2187V29.7676C64 27.6005 62.237 25.8374 60.07 25.8374ZM4.91175 36.2737H3.93C2.79688 36.2737 1.875 35.3517 1.875 34.2187V29.7676C1.875 28.6345 2.79688 27.7126 3.93 27.7126H4.91175V36.2737ZM20.1366 45.0761C20.1366 46.8826 18.6669 48.3523 16.8604 48.3523C15.0537 48.3523 13.5841 46.8826 13.5841 45.0761V26.1606C13.5841 25.6427 13.1644 25.2231 12.6466 25.2231C12.1289 25.2231 11.7091 25.6427 11.7091 26.1606V44.5396H10.4941C8.44988 44.5396 6.78675 42.8765 6.78675 40.8323V23.1679C6.78675 21.1237 8.44988 19.4607 10.4941 19.4607H11.7091V22.0072C11.7091 22.5251 12.1289 22.9447 12.6466 22.9447C13.1644 22.9447 13.5841 22.5251 13.5841 22.0072V18.9241C13.5841 17.1176 15.0539 15.6478 16.8604 15.6478C18.667 15.6478 20.1366 17.1176 20.1366 18.9241V45.0761ZM50.416 45.0761C50.416 46.8826 48.9463 48.3523 47.1396 48.3523C45.333 48.3523 43.8633 46.8826 43.8633 45.0761V18.9241C43.8633 17.1176 45.333 15.6478 47.1396 15.6478C48.9463 15.6478 50.416 17.1176 50.416 18.9241V45.0761ZM57.2134 40.8322C57.2134 42.8763 55.5503 44.5394 53.506 44.5394H52.291V19.4607H53.506C55.5503 19.4607 57.2134 21.1238 57.2134 23.1679V40.8322ZM62.125 34.2187C62.125 35.3517 61.2031 36.2736 60.07 36.2736H59.0884V27.7124H60.07C61.2031 27.7124 62.125 28.6343 62.125 29.7674V34.2187Z" fill="#B0D3F0"/>
</svg>
