<svg width="64" height="64" viewBox="0 0 64 64" fill="none" xmlns="http://www.w3.org/2000/svg">
<g clip-path="url(#clip0_2614_20)">
<path d="M51.6943 2.07471C52.6214 2.96252 53.4706 4.14199 54.2105 5.5897C54.7152 6.57723 55.1514 7.66094 55.5191 8.81576H61.1318C58.9183 5.56341 55.5866 3.13117 51.6943 2.07471Z" fill="#5780A5"/>
<path d="M56.8769 17.5H63.9998C63.8931 14.8559 63.1689 12.3684 61.9668 10.1782H55.9111C56.4954 12.436 56.8271 14.9204 56.8769 17.5Z" fill="#5780A5"/>
<path d="M19.2092 51.3307C18.9714 53.1575 18.333 54.9424 17.335 56.578H32.3892C31.391 54.9424 30.7529 53.1577 30.515 51.3307H19.2092Z" fill="#5780A5"/>
<path d="M39.3555 22.8358C39.3555 22.7252 39.2621 22.6318 39.1517 22.6318H10.5544C10.4439 22.6318 10.3506 22.7252 10.3506 22.8358V25.2688H39.3555V22.8358Z" fill="#5780A5"/>
<path d="M55.9199 26.1841H61.9782C63.178 23.9851 63.894 21.4939 63.9998 18.8623H56.878C56.8283 21.47 56.4936 23.9524 55.9199 26.1841Z" fill="#5780A5"/>
<path d="M7.81687 62.2888C7.80488 62.3513 7.79099 62.4252 7.77832 62.4961C7.85107 62.4991 7.94275 62.4985 8.06059 62.5009C13.635 62.4961 19.2486 62.4938 24.8622 62.4938C30.4758 62.4938 36.0893 62.4963 41.6637 62.5009C41.7879 62.5016 41.8733 62.4991 41.9459 62.4961C41.9336 62.4261 41.9198 62.3541 41.9083 62.2937C41.4458 59.7688 39.1541 57.9399 36.4579 57.9399H13.2663C10.5702 57.9399 8.27842 59.7688 7.81687 62.2887V62.2888Z" fill="#B0D3F0"/>
<path d="M10.3506 26.6312H39.3555V29.1466H10.3506V26.6312Z" fill="#5780A5"/>
<path d="M39.2622 15.2317H46.646V10.1782H40.1529C39.7236 11.7491 39.4211 13.4533 39.2622 15.2317Z" fill="#5780A5"/>
<path d="M40.5698 8.81586H46.6465V1.55469C44.9713 1.85017 43.3564 3.22759 42.0385 5.50848C41.4729 6.48743 40.9811 7.60165 40.5698 8.81586Z" fill="#5780A5"/>
<path d="M38.7466 10.1782H32.6841C31.8346 11.7255 31.2219 13.4251 30.8999 15.2317H37.896C38.0476 13.4653 38.3363 11.7639 38.7466 10.1782Z" fill="#5780A5"/>
<path d="M40.8586 4.82695C41.4957 3.72417 42.2058 2.80299 42.9677 2.07593C39.0937 3.12912 35.7455 5.55033 33.52 8.81589H39.1381C39.6053 7.34529 40.1819 5.99784 40.8584 4.82695H40.8586Z" fill="#5780A5"/>
<path d="M51.1006 27.5464V32.9463C52.3132 31.6469 53.3319 29.7784 54.085 27.5464H51.1006Z" fill="#5780A5"/>
<path d="M54.5007 26.1841C55.1045 23.9687 55.4627 21.4715 55.5159 18.8623H51.1006V26.1841H54.5007Z" fill="#5780A5"/>
<path d="M51.6807 34.2953C55.6336 33.2352 58.9525 30.7903 61.1484 27.5464H55.5294C54.6257 30.4015 53.306 32.7531 51.6807 34.2953Z" fill="#5780A5"/>
<path d="M54.5054 10.1782H48.0088V15.2521C49.3355 15.395 50.4404 16.2893 50.8873 17.5H55.5146C55.4629 14.9025 55.1168 12.4116 54.5054 10.1782Z" fill="#5780A5"/>
<path d="M37.495 31.6557C38.1401 31.6557 38.7636 31.7477 39.3555 31.9159V30.5088H10.3506V37.5891C10.3506 37.6997 10.444 37.793 10.5544 37.793H30.7108C31.0537 34.352 33.9653 31.6557 37.495 31.6557ZM20.2725 34.8466H13.6992C13.323 34.8466 13.0181 34.5416 13.0181 34.1655C13.0181 33.7893 13.323 33.4843 13.6992 33.4843H20.2725C20.6487 33.4843 20.9536 33.7893 20.9536 34.1655C20.9536 34.5416 20.6487 34.8466 20.2725 34.8466ZM29.6797 34.8466H25.3157C24.9394 34.8466 24.6345 34.5416 24.6345 34.1655C24.6345 33.7893 24.9394 33.4843 25.3157 33.4843H29.6797C30.0559 33.4843 30.3608 33.7893 30.3608 34.1655C30.3608 34.5416 30.0559 34.8466 29.6797 34.8466Z" fill="#5780A5"/>
<path d="M37.4957 33.0181C34.4872 33.0181 32.0396 35.4657 32.0396 38.4742C32.0396 41.4827 34.4872 43.9303 37.4957 43.9303C40.5042 43.9303 42.9518 41.4827 42.9518 38.4742C42.9518 35.4657 40.5042 33.0181 37.4957 33.0181ZM40.8599 37.0031L36.9544 40.9085C36.8215 41.0415 36.6471 41.1079 36.4729 41.1079C36.2986 41.1079 36.1241 41.0415 35.9913 40.9085L34.1315 39.0487C33.8654 38.7826 33.8654 38.3513 34.1315 38.0854C34.3973 37.8193 34.8289 37.8193 35.0946 38.0854L36.4729 39.4636L39.8967 36.0398C40.1625 35.7739 40.5941 35.7739 40.8599 36.0398C41.1259 36.3058 41.1259 36.7371 40.8599 37.0031Z" fill="#5780A5"/>
<path d="M47.6352 16.5939H2.08993C0.930207 16.5939 -0.0131836 17.5373 -0.0131836 18.697V47.8653C-0.0131836 49.0248 0.930207 49.9684 2.08993 49.9684H47.6352C48.7949 49.9684 49.7383 49.025 49.7383 47.8653V18.697C49.7383 17.5374 48.7949 16.5939 47.6352 16.5939ZM37.4956 45.2926C33.9659 45.2926 31.0543 42.5963 30.7114 39.1553H10.555C9.69141 39.1553 8.98887 38.4526 8.98887 37.589V22.8358C8.98887 21.9722 9.69141 21.2695 10.555 21.2695H39.1523C40.0159 21.2695 40.7184 21.9721 40.7184 22.8358V32.4516C40.7184 32.4567 40.717 32.4614 40.7169 32.4665C42.8562 33.6184 44.314 35.879 44.314 38.4741C44.314 42.2338 41.2553 45.2926 37.4956 45.2926Z" fill="#B0D3F0"/>
<path d="M52.9978 6.20986C51.6123 3.49903 49.8616 1.87503 48.0088 1.55408V8.81594H54.0887C53.7735 7.8878 53.4092 7.01471 52.9978 6.20986Z" fill="#5780A5"/>
</g>
<defs>
<clipPath id="clip0_2614_20">
<rect width="64" height="64" fill="white"/>
</clipPath>
</defs>
</svg>
