<svg width="64" height="64" viewBox="0 0 64 64" fill="none" xmlns="http://www.w3.org/2000/svg">
<path d="M38 24.5H31.5V18C31.5 17.1719 30.8281 16.5 30 16.5H10C9.17187 16.5 8.5 17.1719 8.5 18V42C8.5 42.8281 9.17188 43.5 10 43.5H14C14.8281 43.5 15.5 42.8281 15.5 42C15.5 41.1719 14.8281 40.5 14 40.5H11.5V27.5H14C14.8281 27.5 15.5 26.8281 15.5 26C15.5 25.1719 14.8281 24.5 14 24.5H11.5V19.5H28.5V24.5H26H20C19.1719 24.5 18.5 25.1719 18.5 26C18.5 26.8281 19.1719 27.5 20 27.5H24.5V30C24.5 30.8281 25.1719 31.5 26 31.5C26.8281 31.5 27.5 30.8281 27.5 30V27.5H36.5V40.5H27.5V36C27.5 35.1719 26.8281 34.5 26 34.5C25.1719 34.5 24.5 35.1719 24.5 36V40.5H20C19.1719 40.5 18.5 41.1719 18.5 42C18.5 42.8281 19.1719 43.5 20 43.5H38C38.8281 43.5 39.5 42.8281 39.5 42V26C39.5 25.1719 38.8281 24.5 38 24.5Z" fill="#B0D3F0"/>
<path d="M58 8.50005H55.5L54 8.5C51.8167 8.50012 53.9297 8.50013 52 8.50013L49.5 8.50005C47.5703 8.50005 51 8.50002 46 8.50005H44.5H6C2.9668 8.50005 0.5 10.9668 0.5 14.0001V46C0.5 49.0333 2.9668 51.5 6 51.5H26.5V60.5H18C17.1719 60.5 16.5 61.1719 16.5 62C16.5 62.8282 17.1719 63.5 18 63.5H46C46.8281 63.5 47.5 62.8282 47.5 62C47.5 61.1719 46.8281 60.5 46 60.5H37.5V51.5H58C61.0332 51.5 63.5 49.0333 63.5 46V14.0001C63.5 10.9668 61.0332 8.50005 58 8.50005ZM34.5 60.5H29.5V51.5H34.5V60.5ZM60.5 46C60.5 47.379 59.3789 48.5 58 48.5H6C4.62109 48.5 3.5 47.379 3.5 46V14.0001C3.5 12.6211 4.62109 11.5001 6 11.5001H44.5H46C47.5 11.5001 46 11.5001 47 11.5001H48C49 11.5001 48.8535 11.5001 49.5 11.5001C50.1465 11.5001 51 11.5001 51.5 11.5001H54C54.5 11.5001 53 11.5001 54.5 11.5001H55.5H58C59.3789 11.5001 60.5 12.6211 60.5 14.0001V46Z" fill="#B0D3F0"/>
<path d="M49.1756 37.1063C48.8215 37.1063 48.4662 36.9956 48.1647 36.7697L43.6734 33.4013C42.93 32.8432 42.7787 31.7873 43.3368 31.0428C43.896 30.2993 44.9509 30.1491 45.6954 30.7061L49.0177 33.1985L54.7217 27.4934C55.3796 26.8355 56.4454 26.8355 57.1033 27.4934C57.7612 28.1513 57.7612 29.2171 57.1033 29.875L50.3664 36.6129C50.0397 36.9397 49.6088 37.1063 49.1756 37.1063Z" fill="#B0D3F0"/>
</svg>
