<svg width="64" height="64" viewBox="0 0 64 64" fill="none" xmlns="http://www.w3.org/2000/svg">
<path d="M59.6364 19.5882H45.8667C45.7697 19.5882 45.7697 19.5882 45.7697 19.5882C45.2849 19.5882 44.8 19.6852 44.4122 19.8791C44.2182 19.9761 43.7334 20.17 38.9818 26.0852V11.6367C38.9818 11.0549 38.594 10.667 38.0122 10.667H1.93942C1.35761 10.667 0.969727 11.0549 0.969727 11.6367V38.3034C0.969727 38.8852 1.35761 39.2731 1.93942 39.2731H18.5212L8.33942 53.6246C8.04852 54.1094 8.14548 54.6912 8.53336 54.9821C9.01821 55.2731 9.60003 55.1761 9.89094 54.7882L19.394 41.3094V50.6185C19.394 51.2003 19.7818 51.5882 20.3637 51.5882C20.9455 51.5882 21.3334 51.2003 21.3334 50.6185V41.3094L30.7394 54.7882C31.0303 55.2731 31.6122 55.37 32.097 54.9821C32.5818 54.6912 32.6788 54.1094 32.2909 53.6246L22.2061 39.1761H37.9152C38.497 39.1761 38.8849 38.7882 38.8849 38.2064V35.3943C39.4667 35.2003 40.0485 34.9094 40.4364 34.5215L42.9576 31.8064V55.2731C42.9576 57.0185 44.3152 58.57 45.9637 58.764C48 58.9579 49.6485 57.4064 49.6485 55.467V42.4731C49.6485 41.9882 50.0364 41.5034 50.6182 41.5034C51.1031 41.5034 51.5879 41.8912 51.5879 42.4731V55.2731C51.5879 57.0185 52.9455 58.57 54.594 58.764H54.9819C56.8243 58.764 58.3758 57.2124 58.3758 55.37V37.4306C58.7637 37.6246 59.2485 37.7215 59.8303 37.7215C61.6728 37.7215 63.2243 36.17 63.2243 34.3276V22.9821C63.0303 21.0428 61.4788 19.5882 59.6364 19.5882ZM2.90912 37.2367V12.6064H36.9455V24.4367L35.5879 22.4003C34.7152 21.1397 33.1637 20.5579 31.8061 21.0428L29.3818 17.4549C29.0909 16.97 28.5091 16.8731 28.0243 17.2609C27.5394 17.5518 27.4425 18.1337 27.8303 18.6185L30.3515 22.1094C29.3818 23.2731 29.3818 24.9215 30.0606 26.0852L35.2 34.1337C35.5879 34.8124 36.2667 35.2973 36.9455 35.4912V37.3337H2.90912V37.2367ZM61.0909 34.4246C61.0909 35.2003 60.4122 35.8791 59.6364 35.8791C58.8606 35.8791 58.1818 35.2003 58.1818 34.4246V24.4367C58.1818 23.8549 57.794 23.467 57.2122 23.467C56.6303 23.467 56.2425 23.8549 56.2425 24.4367V34.3276V55.2731C56.2425 56.1458 55.5637 56.7276 54.6909 56.7276C54.0122 56.6306 53.4303 55.9518 53.4303 55.1761V42.4731C53.4303 40.9215 52.1697 39.564 50.5212 39.564C48.9697 39.564 47.6122 40.8246 47.6122 42.4731V55.37C47.6122 56.2427 46.9334 56.8246 46.0606 56.8246C45.3818 56.7276 44.8 56.0488 44.8 55.2731V29.3821C44.8 28.9943 44.5091 28.6064 44.2182 28.5094C43.8303 28.4124 43.4425 28.4124 43.1515 28.7034L38.9818 33.164C38.4 33.8428 37.2364 33.7458 36.7515 32.97L31.6122 24.9215C30.6425 23.37 32.9697 21.8185 34.0364 23.37L37.5273 28.8003C37.9152 29.3821 38.6909 29.3821 39.0788 28.8973C41.6 25.6973 44.5091 22.1094 45.1879 21.5276C45.3818 21.4306 45.5758 21.4306 45.7697 21.4306H45.8667H59.6364C60.4122 21.4306 61.0909 22.1094 61.0909 22.8852V34.4246Z" fill="#B0D3F0"/>
<path d="M50.4243 17.7456C53.8183 17.7456 56.6304 14.9335 56.6304 11.5396C56.6304 8.14562 53.8183 5.3335 50.4243 5.3335C47.0304 5.3335 44.2183 8.14562 44.2183 11.5396C44.2183 14.9335 47.0304 17.7456 50.4243 17.7456ZM50.4243 7.17592C52.7516 7.17592 54.691 9.11531 54.691 11.4426C54.691 13.7699 52.7516 15.7093 50.4243 15.7093C48.0971 15.7093 46.1577 13.7699 46.1577 11.4426C46.1577 9.11531 48.0971 7.17592 50.4243 7.17592Z" fill="#B0D3F0"/>
<path d="M6.9819 17.6489H19.394C19.9758 17.6489 20.3637 17.261 20.3637 16.6792C20.3637 16.0974 19.9758 15.7095 19.394 15.7095H6.9819C6.40009 15.7095 6.01221 16.0974 6.01221 16.6792C6.01221 17.261 6.40009 17.6489 6.9819 17.6489Z" fill="#B0D3F0"/>
<path d="M6.9819 23.1757H24.2425C24.8243 23.1757 25.2122 22.7878 25.2122 22.206C25.2122 21.6242 24.8243 21.2363 24.2425 21.2363H6.9819C6.40009 21.2363 6.01221 21.6242 6.01221 22.206C6.01221 22.6909 6.40009 23.1757 6.9819 23.1757Z" fill="#B0D3F0"/>
<path d="M6.9819 28.6064H26.1819C26.7637 28.6064 27.1516 28.2185 27.1516 27.6367C27.1516 27.0549 26.7637 26.667 26.1819 26.667H6.9819C6.40009 26.667 6.01221 27.0549 6.01221 27.6367C6.01221 28.2185 6.40009 28.6064 6.9819 28.6064Z" fill="#B0D3F0"/>
<path d="M28.1213 32.0972H6.9819C6.40009 32.0972 6.01221 32.485 6.01221 33.0669C6.01221 33.6487 6.40009 34.0366 6.9819 34.0366H28.1213C28.7031 34.0366 29.091 33.6487 29.091 33.0669C29.091 32.582 28.7031 32.0972 28.1213 32.0972Z" fill="#B0D3F0"/>
<path d="M50.4243 30.8364C49.8425 30.8364 49.4546 31.2243 49.4546 31.8061V33.7455C49.4546 34.3273 49.8425 34.7152 50.4243 34.7152C51.0061 34.7152 51.394 34.3273 51.394 33.7455V31.8061C51.394 31.2243 51.0061 30.8364 50.4243 30.8364Z" fill="#B0D3F0"/>
<path d="M50.4243 25.0186C49.8425 25.0186 49.4546 25.4064 49.4546 25.9883V27.9276C49.4546 28.5095 49.8425 28.8973 50.4243 28.8973C51.0061 28.8973 51.394 28.5095 51.394 27.9276V25.9883C51.394 25.4064 51.0061 25.0186 50.4243 25.0186Z" fill="#B0D3F0"/>
</svg>
