<svg width="64" height="64" viewBox="0 0 64 64" fill="none" xmlns="http://www.w3.org/2000/svg">
<g clip-path="url(#clip0_2615_276)">
<path d="M50 36C50 36 41.4736 36 41.4609 36C39.9625 36 38.98 37.719 39.7344 39.0117C39.9063 39.3027 40 39.6543 40 40C40 41.1035 39.1035 42 38 42C36.8965 42 36 41.1035 36 40C36 39.6543 36.0938 39.3027 36.2656 39.0117C37.0334 37.7115 36.0314 36 34.5391 36H28V32C31.3086 32 34 29.3086 34 26C34 22.6914 31.3086 20 28 20V14C28 12.8945 27.1045 12 26 12H6C2.6914 12 0 14.6914 0 18V58C0 61.3086 2.6914 64 6 64H46C49.3086 64 52 61.3086 52 58V38C52 36.8945 51.1055 36 50 36ZM4 18C4 16.8965 4.89746 16 6 16H24V22.5391C24 24.0455 25.7103 25.0228 27.0107 24.2656C27.3027 24.0938 27.6533 24 28 24C29.1025 24 30 24.8965 30 26C30 27.1035 29.1025 28 28 28C27.6533 28 27.3027 27.9062 27.0107 27.7344C25.7053 26.9659 24 27.9591 24 29.4609V36H20C20 32.6914 17.3086 30 14 30C10.6914 30 8 32.6914 8 36H4V18ZM24 60H6C4.89746 60 4 59.1035 4 58V40H10.54C12.0348 40 13.0199 38.2772 12.2656 36.9883C12.0947 36.6973 12 36.3457 12 36C12 34.8965 12.8975 34 14 34C15.1025 34 16 34.8965 16 36C16 36.3457 15.9053 36.6971 15.7344 36.9882C14.976 38.2797 15.9711 40 17.46 40H24V44C20.6914 44 18 46.6914 18 50C18 53.3086 20.6914 56 24 56V60ZM48 58C48 59.1035 47.1035 60 46 60H28C28 60 28 53.4664 28 53.4609C28 51.9453 26.299 50.9717 24.9893 51.7344C24.6973 51.9063 24.3467 52 24 52C22.8975 52 22 51.1035 22 50C22 48.8965 22.8975 48 24 48C24.3467 48 24.6973 48.0938 24.9893 48.2656C26.2961 49.0348 28 48.05 28 46.5391V40H32C32 43.3086 34.6914 46 38 46C41.3086 46 44 43.3086 44 40H48V58Z" fill="#B0D3F0"/>
<path d="M58 0H38C36.8945 0 36 0.89454 36 2V10.5391C36.0001 11.8207 37.3799 12.788 38.5884 12.4311C39.0784 12.2864 39.4648 12 40 12C41.1035 12 42 12.8965 42 14C42 15.1035 41.1035 16 40 16C39.6543 16 39.3027 15.9062 39.0117 15.7344C37.7325 14.9906 35.9961 15.9938 35.9961 17.4688V26.0078C35.9961 27.1133 36.8906 28.0078 38.0348 28H44C44 31.3086 46.6914 34 50 34C53.3086 34 56 31.3086 56 28H62C63.1055 28 64 27.1055 64 26V6C64 2.6914 61.3086 0 58 0ZM60 24H53.4609C52.3662 24 51.3743 25.0789 51.4945 26.1829C51.5636 26.8165 52 27.356 52 28C52 29.1035 51.1035 30 50 30C48.8965 30 48 29.1035 48 28C48 27.4554 48.2913 26.9922 48.4375 26.4839C48.7783 25.2988 47.776 24 46.5391 24H39.9961L40 20C43.3086 20 46 17.3086 46 14C46 10.6914 43.3086 8 40 8V4H58C59.1035 4 60 4.89648 60 6V24Z" fill="#B0D3F0"/>
</g>
<defs>
<clipPath id="clip0_2615_276">
<rect width="64" height="64" fill="white"/>
</clipPath>
</defs>
</svg>
