<svg width="64" height="64" viewBox="0 0 64 64" fill="none" xmlns="http://www.w3.org/2000/svg">
<g clip-path="url(#clip0_2619_476)">
<path d="M28.7858 33.2454L33.2443 28.7864C33.3319 28.699 33.4013 28.5952 33.4487 28.4809C33.4961 28.3666 33.5205 28.2442 33.5205 28.1205C33.5205 27.9968 33.4961 27.8743 33.4487 27.76C33.4013 27.6457 33.3319 27.5419 33.2443 27.4545L30.8692 25.0794C31.3574 24.1847 31.7488 23.2405 32.0368 22.2628H35.3939C35.6437 22.2628 35.8834 22.1636 36.06 21.9869C36.2367 21.8102 36.336 21.5706 36.336 21.3208V15.0158C36.336 14.7659 36.2367 14.5263 36.06 14.3496C35.8834 14.173 35.6437 14.0737 35.3939 14.0737H32.0444C31.7561 13.0947 31.3634 12.1495 30.873 11.2545L33.2443 8.88256C33.3319 8.79511 33.4013 8.69126 33.4487 8.57695C33.4961 8.46264 33.5205 8.34011 33.5205 8.21637C33.5205 8.09263 33.4961 7.97009 33.4487 7.85578C33.4013 7.74147 33.3319 7.63763 33.2443 7.55018L28.7858 3.09116C28.6984 3.00362 28.5946 2.93418 28.4804 2.88679C28.3661 2.83941 28.2436 2.81502 28.1199 2.81502C27.9962 2.81502 27.8737 2.83941 27.7595 2.88679C27.6452 2.93418 27.5414 3.00362 27.454 3.09116L25.0821 5.4636C24.1871 4.97315 23.2419 4.58042 22.2628 4.29219V0.941596C22.2629 0.81786 22.2386 0.695323 22.1913 0.580992C22.144 0.466661 22.0746 0.362779 21.9871 0.275284C21.8996 0.187789 21.7957 0.118399 21.6814 0.0710797C21.567 0.0237606 21.4445 -0.000558894 21.3208 -0.000488127H15.0153C14.8915 -0.000558894 14.769 0.0237606 14.6547 0.0710797C14.5403 0.118399 14.4364 0.187789 14.3489 0.275284C14.2615 0.362779 14.1921 0.466661 14.1447 0.580992C14.0974 0.695323 14.0731 0.81786 14.0732 0.941596V4.29811C13.0957 4.58645 12.1517 4.97805 11.2572 5.46629L8.88256 3.09116C8.79511 3.00361 8.69127 2.93415 8.57696 2.88676C8.46265 2.83937 8.34011 2.81498 8.21637 2.81498C8.09263 2.81498 7.9701 2.83937 7.85579 2.88676C7.74148 2.93415 7.63763 3.00361 7.55018 3.09116L3.09116 7.55018C3.00361 7.63763 2.93415 7.74147 2.88676 7.85578C2.83937 7.97009 2.81498 8.09263 2.81498 8.21637C2.81498 8.34011 2.83937 8.46264 2.88676 8.57695C2.93415 8.69126 3.00361 8.79511 3.09116 8.88256L5.46522 11.2571C4.97701 12.1519 4.58541 13.0961 4.29703 14.0737H0.941596C0.81786 14.0736 0.695323 14.098 0.580992 14.1453C0.466661 14.1926 0.362779 14.262 0.275284 14.3495C0.187789 14.437 0.118399 14.5409 0.0710797 14.6552C0.0237606 14.7695 -0.000558894 14.8921 -0.000488127 15.0158V21.3208C-0.000558894 21.4445 0.0237606 21.567 0.0710797 21.6814C0.118399 21.7957 0.187789 21.8996 0.275284 21.9871C0.362779 22.0746 0.466661 22.144 0.580992 22.1913C0.695323 22.2386 0.81786 22.2629 0.941596 22.2628H4.29165C4.58002 23.2419 4.97294 24.1871 5.4636 25.0821L3.09116 27.4545C3.00363 27.5419 2.93418 27.6457 2.88679 27.76C2.83941 27.8743 2.81502 27.9968 2.81502 28.1205C2.81502 28.2442 2.83941 28.3666 2.88679 28.4809C2.93418 28.5952 3.00363 28.699 3.09116 28.7864L7.54911 33.2454C7.72592 33.4218 7.96551 33.5209 8.21529 33.5209C8.46508 33.5209 8.70467 33.4218 8.88148 33.2454L11.2534 30.873C12.1487 31.3634 13.094 31.7563 14.0732 32.0449V35.3955C14.0732 35.6454 14.1724 35.885 14.3491 36.0617C14.5258 36.2383 14.7654 36.3376 15.0153 36.3376H21.3208C21.5706 36.3376 21.8102 36.2383 21.9869 36.0617C22.1636 35.885 22.2628 35.6454 22.2628 35.3955V32.0384C23.2403 31.7501 24.1843 31.3585 25.0789 30.8703L27.454 33.2454C27.6307 33.4219 27.8702 33.5211 28.1199 33.5211C28.3697 33.5211 28.6092 33.4219 28.7858 33.2454ZM25.8998 29.0265C25.7502 28.8766 25.5544 28.7815 25.3441 28.7567C25.1337 28.7319 24.9212 28.7788 24.7408 28.8897C23.6153 29.5818 22.3869 30.0906 21.1017 30.3971C20.896 30.4464 20.7129 30.5635 20.5818 30.7295C20.4506 30.8955 20.3791 31.1007 20.3787 31.3122V34.4507H15.9573V31.3209C15.957 31.1091 15.8854 30.9037 15.7541 30.7377C15.6227 30.5716 15.4393 30.4547 15.2333 30.4057C13.9482 30.0984 12.7206 29.5875 11.5968 28.8924C11.4163 28.7811 11.2034 28.7339 10.9927 28.7585C10.782 28.7831 10.5857 28.8781 10.4357 29.0281L8.2161 31.246L5.09054 28.1194L7.30847 25.9009C7.45833 25.7509 7.55323 25.5547 7.57785 25.3441C7.60246 25.1335 7.55535 24.9208 7.44413 24.7403C6.74913 23.6159 6.23861 22.3875 5.93195 21.1017C5.88295 20.8957 5.76601 20.7122 5.59997 20.5809C5.43394 20.4495 5.2285 20.3779 5.01678 20.3776H1.88368V15.9573H5.02163C5.23317 15.957 5.43845 15.8855 5.60445 15.7544C5.77045 15.6232 5.8875 15.4401 5.9368 15.2344C6.24298 13.9494 6.75179 12.7213 7.44413 11.5963C7.55489 11.4157 7.60164 11.203 7.57683 10.9925C7.55203 10.7821 7.45712 10.5861 7.30739 10.4362L5.09054 8.2161L8.2161 5.09053L10.4362 7.31062C10.586 7.46039 10.7819 7.55534 10.9923 7.58014C11.2026 7.60495 11.4152 7.55818 11.5958 7.44736C12.7211 6.75535 13.9493 6.24656 15.2344 5.94003C15.44 5.89065 15.6231 5.77356 15.7543 5.60759C15.8854 5.44161 15.9569 5.23638 15.9573 5.02486V1.88368H20.3787V5.01624C20.379 5.22796 20.4506 5.4334 20.582 5.59944C20.7133 5.76547 20.8968 5.88242 21.1027 5.93141C22.3885 6.23797 23.6169 6.7483 24.7413 7.44305C24.9217 7.55475 25.1346 7.60214 25.3453 7.57751C25.556 7.55288 25.7522 7.45768 25.902 7.30739L28.1199 5.08946L31.246 8.2161L29.0281 10.4346C28.8783 10.5847 28.7834 10.781 28.7588 10.9916C28.7342 11.2023 28.7813 11.4151 28.8924 11.5958C29.5874 12.7199 30.0978 13.9482 30.4041 15.2338C30.4531 15.4398 30.57 15.6232 30.736 15.7546C30.9021 15.886 31.1075 15.9576 31.3192 15.9579H34.4518V20.3787H31.3133C31.1017 20.3791 30.8964 20.4507 30.7304 20.582C30.5645 20.7132 30.4474 20.8964 30.3982 21.1022C30.0917 22.3873 29.5829 23.6155 28.8908 24.7408C28.7799 24.9212 28.733 25.1337 28.7578 25.3441C28.7826 25.5544 28.8777 25.7502 29.0276 25.8998L31.246 28.1205L28.1199 31.246L25.8998 29.0265Z" fill="#B0D3F0"/>
<path d="M18.1684 10.0127C16.5555 10.0127 14.9787 10.491 13.6376 11.3871C12.2965 12.2832 11.2512 13.5569 10.634 15.047C10.0167 16.5372 9.85522 18.177 10.1699 19.7589C10.4846 21.3409 11.2613 22.794 12.4018 23.9345C13.5423 25.0751 14.9954 25.8518 16.5774 26.1664C18.1594 26.4811 19.7991 26.3196 21.2893 25.7024C22.7794 25.0851 24.0531 24.0398 24.9492 22.6987C25.8453 21.3576 26.3236 19.7809 26.3236 18.1679C26.3212 16.0058 25.4612 13.9329 23.9323 12.404C22.4035 10.8751 20.3306 10.0151 18.1684 10.0127ZM18.1684 24.44C16.9282 24.44 15.7158 24.0723 14.6845 23.3833C13.6533 22.6942 12.8495 21.7149 12.3748 20.5691C11.9001 19.4232 11.7759 18.1624 12.0178 16.946C12.2597 15.7295 12.8568 14.6121 13.7337 13.7351C14.6106 12.858 15.7279 12.2607 16.9443 12.0186C18.1607 11.7765 19.4216 11.9005 20.5675 12.375C21.7134 12.8495 22.6929 13.6531 23.3821 14.6842C24.0713 15.7153 24.4392 16.9277 24.4395 18.1679C24.4375 19.8305 23.7761 21.4244 22.6005 22.6C21.4249 23.7756 19.831 24.437 18.1684 24.439V24.44Z" fill="#B0D3F0"/>
<path d="M63.0576 41.7364H59.707C59.4188 40.7573 59.026 39.8121 58.5356 38.9171L60.9075 36.5447C60.995 36.4573 61.0644 36.3535 61.1118 36.2392C61.1592 36.1249 61.1836 36.0024 61.1836 35.8787C61.1836 35.755 61.1592 35.6326 61.1118 35.5183C61.0644 35.404 60.995 35.3002 60.9075 35.2128L56.449 30.7549C56.3615 30.6673 56.2577 30.5979 56.1434 30.5505C56.0291 30.5031 55.9065 30.4787 55.7828 30.4787C55.659 30.4787 55.5365 30.5031 55.4222 30.5505C55.3079 30.5979 55.204 30.6673 55.1166 30.7549L52.7447 33.1262C51.8498 32.6359 50.9048 32.243 49.926 31.9543V28.6037C49.926 28.3538 49.8267 28.1142 49.6501 27.9376C49.4734 27.7609 49.2338 27.6616 48.9839 27.6616H42.6784C42.4285 27.6616 42.1889 27.7609 42.0122 27.9376C41.8356 28.1142 41.7363 28.3538 41.7363 28.6037V31.9608C40.7586 32.249 39.8144 32.6406 38.9197 33.1289L36.5452 30.7549C36.4578 30.6673 36.354 30.5979 36.2397 30.5505C36.1254 30.5031 36.0029 30.4787 35.8792 30.4787C35.7555 30.4787 35.6331 30.5031 35.5188 30.5505C35.4045 30.5979 35.3007 30.6673 35.2133 30.7549L30.7543 35.2128C30.5778 35.3895 30.4786 35.629 30.4786 35.8787C30.4786 36.1285 30.5778 36.368 30.7543 36.5447L33.13 38.9198C32.6415 39.8144 32.2501 40.7586 31.9623 41.7364H28.6042C28.3543 41.7364 28.1147 41.8356 27.938 42.0123C27.7614 42.189 27.6621 42.4286 27.6621 42.6784V48.9834C27.6621 49.2333 27.7614 49.4729 27.938 49.6496C28.1147 49.8262 28.3543 49.9255 28.6042 49.9255H31.9548C32.243 50.9045 32.6357 51.8497 33.1262 52.7447L30.7543 55.1166C30.5777 55.2934 30.4786 55.533 30.4786 55.7828C30.4786 56.0327 30.5777 56.2723 30.7543 56.449L35.2133 60.908C35.3007 60.9956 35.4045 61.065 35.5188 61.1124C35.6331 61.1598 35.7555 61.1842 35.8792 61.1842C36.0029 61.1842 36.1254 61.1598 36.2397 61.1124C36.354 61.065 36.4578 60.9956 36.5452 60.908L38.9171 58.5394C39.812 59.0299 40.7572 59.4227 41.7363 59.7108V63.0614C41.7362 63.1851 41.7606 63.3076 41.8079 63.422C41.8552 63.5363 41.9246 63.6402 42.0121 63.7277C42.0996 63.8152 42.2035 63.8846 42.3178 63.9319C42.4321 63.9792 42.5547 64.0035 42.6784 64.0035H48.9834C49.1071 64.0035 49.2296 63.9792 49.344 63.9319C49.4583 63.8846 49.5622 63.8152 49.6497 63.7277C49.7372 63.6402 49.8066 63.5363 49.8539 63.422C49.9012 63.3076 49.9255 63.1851 49.9254 63.0614V59.7049C50.9032 59.4165 51.8473 59.0247 52.742 58.5361L55.1166 60.9107C55.204 60.9983 55.3079 61.0677 55.4222 61.1151C55.5365 61.1625 55.659 61.1869 55.7828 61.1869C55.9065 61.1869 56.0291 61.1625 56.1434 61.1151C56.2577 61.0677 56.3615 60.9983 56.449 60.9107L60.9075 56.4528C60.995 56.3653 61.0645 56.2615 61.1119 56.1472C61.1593 56.0329 61.1836 55.9103 61.1836 55.7866C61.1836 55.6629 61.1593 55.5403 61.1119 55.426C61.0645 55.3117 60.995 55.2079 60.9075 55.1204L58.5329 52.7453C59.0211 51.8507 59.4127 50.9067 59.7011 49.9293H63.0576C63.1813 49.9293 63.3038 49.905 63.4182 49.8577C63.5325 49.8104 63.6364 49.741 63.7239 49.6535C63.8114 49.566 63.8808 49.4621 63.9281 49.3478C63.9754 49.2335 63.9997 49.1109 63.9996 48.9872V42.6784C63.9997 42.5547 63.9754 42.4322 63.9281 42.3178C63.8808 42.2035 63.8114 42.0996 63.7239 42.0121C63.6364 41.9246 63.5325 41.8552 63.4182 41.8079C63.3038 41.7606 63.1813 41.7363 63.0576 41.7364ZM62.1155 48.0419H58.9775C58.766 48.0422 58.5607 48.1137 58.3947 48.2448C58.2287 48.376 58.1117 48.5591 58.0624 48.7648C57.7558 50.0499 57.247 51.2781 56.555 52.4034C56.4443 52.584 56.3976 52.7966 56.4224 53.0069C56.4472 53.2173 56.5421 53.4132 56.6918 53.563L58.9124 55.7836L55.7863 58.9092L53.5662 56.6891C53.4162 56.5396 53.2204 56.4448 53.0101 56.42C52.7998 56.3952 52.5872 56.4418 52.4066 56.5524C51.281 57.2443 50.0527 57.7531 48.7675 58.0597C48.5618 58.109 48.3786 58.2261 48.2475 58.3921C48.1163 58.5581 48.0448 58.7633 48.0445 58.9749V62.1128H43.6205V58.9803C43.6202 58.7686 43.5486 58.5631 43.4172 58.3971C43.2858 58.231 43.1024 58.1141 42.8964 58.0651C41.6107 57.7585 40.3823 57.2482 39.2578 56.5535C39.0774 56.4419 38.8646 56.3945 38.6539 56.4192C38.4432 56.4438 38.247 56.5389 38.0972 56.6891L35.8792 58.9071L32.7531 55.7831L34.9711 53.5646C35.1211 53.4146 35.2162 53.2184 35.2408 53.0076C35.2654 52.7969 35.2182 52.584 35.1067 52.4034C34.4121 51.2792 33.902 50.0509 33.5956 48.7654C33.5466 48.5594 33.4297 48.376 33.2636 48.2446C33.0976 48.1132 32.8922 48.0416 32.6805 48.0413H29.5463V43.6205H32.6842C32.8958 43.6201 33.1011 43.5485 33.2671 43.4172C33.4331 43.286 33.5501 43.1028 33.5994 42.897C33.9058 41.6119 34.4146 40.3837 35.1067 39.2584C35.2177 39.078 35.2646 38.8655 35.2397 38.6551C35.2149 38.4448 35.1199 38.249 34.97 38.0994L32.7531 35.8787L35.8792 32.7532L38.0993 34.9733C38.2488 35.1233 38.4447 35.2185 38.6551 35.2433C38.8654 35.2681 39.078 35.2212 39.2584 35.11C40.3839 34.418 41.6123 33.9092 42.8975 33.6027C43.1032 33.5533 43.2863 33.4362 43.4174 33.2702C43.5485 33.1043 43.62 32.899 43.6205 32.6875V29.549H48.0418V32.6816C48.0421 32.8933 48.1137 33.0987 48.2451 33.2648C48.3764 33.4308 48.5599 33.5478 48.7659 33.5968C50.0514 33.9036 51.2796 34.4141 52.4039 35.1089C52.5844 35.2206 52.7974 35.2679 53.0082 35.2433C53.2189 35.2187 53.4152 35.1235 53.5651 34.9733L55.7831 32.7532L58.9092 35.8793L56.6907 38.0978C56.5407 38.2477 56.4458 38.4439 56.4212 38.6545C56.3965 38.8651 56.4437 39.0779 56.555 39.2584C57.2497 40.3826 57.7599 41.6109 58.0661 42.8965C58.115 43.1025 58.2319 43.2861 58.398 43.4176C58.564 43.5491 58.7695 43.6207 58.9813 43.6211H62.1139L62.1155 48.0419Z" fill="#B0D3F0"/>
<path d="M45.8315 37.6763C44.2185 37.6763 42.6418 38.1546 41.3007 39.0507C39.9596 39.9468 38.9143 41.2205 38.2971 42.7106C37.6798 44.2008 37.5183 45.8405 37.833 47.4225C38.1476 49.0045 38.9244 50.4576 40.0649 51.5981C41.2054 52.7386 42.6585 53.5153 44.2405 53.83C45.8224 54.1447 47.4622 53.9832 48.9524 53.3659C50.4425 52.7487 51.7162 51.7034 52.6123 50.3623C53.5084 49.0212 53.9867 47.4444 53.9867 45.8315C53.9843 43.6693 53.1243 41.5964 51.5954 40.0676C50.0666 38.5387 47.9936 37.6787 45.8315 37.6763ZM45.8315 52.1036C44.5912 52.1036 43.3788 51.7358 42.3475 51.0468C41.3162 50.3577 40.5124 49.3783 40.0378 48.2324C39.5632 47.0865 39.439 45.8256 39.6809 44.6091C39.9229 43.3927 40.5202 42.2753 41.3972 41.3983C42.2742 40.5212 43.3916 39.924 44.6081 39.682C45.8245 39.44 47.0854 39.5642 48.2313 40.0389C49.3772 40.5135 50.3566 41.3173 51.0457 42.3486C51.7348 43.3798 52.1025 44.5923 52.1025 45.8326C52.1004 47.495 51.439 49.0887 50.2634 50.2641C49.0878 51.4395 47.4939 52.1007 45.8315 52.1025V52.1036Z" fill="#B0D3F0"/>
<path d="M38.8427 8.77455C44.3163 10.3859 49.0434 13.8817 52.1874 18.6433C51.4334 19.3258 50.9566 20.2618 50.8478 21.273C50.739 22.2842 51.0058 23.3002 51.5974 24.1275C52.189 24.9548 53.0641 25.5357 54.0562 25.7598C55.0483 25.9838 56.0881 25.8352 56.9778 25.3424C57.8675 24.8496 58.5449 24.0469 58.8812 23.087C59.2175 22.1272 59.1892 21.0772 58.8017 20.1369C58.4141 19.1965 57.6944 18.4315 56.7794 17.9874C55.8644 17.5432 54.8181 17.4509 53.8396 17.7281C50.4525 12.5339 45.3237 8.71831 39.3751 6.96736C39.2556 6.92974 39.1299 6.9163 39.0052 6.92783C38.8805 6.93937 38.7594 6.97564 38.6489 7.03454C38.5384 7.09344 38.4407 7.17377 38.3616 7.27085C38.2825 7.36793 38.2236 7.4798 38.1882 7.59993C38.1529 7.72005 38.1418 7.84602 38.1557 7.97047C38.1696 8.09491 38.2082 8.21534 38.2692 8.32471C38.3302 8.43408 38.4123 8.53019 38.5109 8.60743C38.6094 8.68467 38.7219 8.74148 38.8427 8.77455ZM57.1939 21.7037C57.1939 22.1479 57.0622 22.5821 56.8154 22.9515C56.5686 23.3208 56.2179 23.6087 55.8075 23.7787C55.3971 23.9487 54.9455 23.9931 54.5098 23.9065C54.0742 23.8198 53.674 23.6059 53.3599 23.2918C53.0458 22.9777 52.8319 22.5775 52.7452 22.1419C52.6586 21.7062 52.703 21.2546 52.873 20.8442C53.043 20.4338 53.3309 20.0831 53.7002 19.8363C54.0696 19.5895 54.5038 19.4578 54.948 19.4578C55.5435 19.4584 56.1144 19.6952 56.5355 20.1162C56.9565 20.5373 57.1933 21.1082 57.1939 21.7037Z" fill="#B0D3F0"/>
<path d="M25.1567 55.2252C19.6841 53.6133 14.958 50.1175 11.8147 45.3565C12.5687 44.6739 13.0455 43.738 13.1543 42.7267C13.263 41.7155 12.9963 40.6996 12.4047 39.8723C11.8131 39.045 10.938 38.464 9.9459 38.24C8.95382 38.016 7.914 38.1645 7.02431 38.6573C6.13462 39.1501 5.45717 39.9529 5.12086 40.9127C4.78456 41.8726 4.81288 42.9226 5.20044 43.8629C5.58799 44.8032 6.30773 45.5683 7.22269 46.0124C8.13765 46.4565 9.18397 46.5488 10.1625 46.2716C13.5488 51.4654 18.6767 55.281 24.6243 57.0324C24.7108 57.058 24.8006 57.0708 24.8908 57.0706C25.1171 57.0701 25.3356 56.9882 25.5065 56.8398C25.6773 56.6915 25.789 56.4866 25.8213 56.2626C25.8535 56.0387 25.804 55.8106 25.6819 55.6201C25.5598 55.4296 25.3732 55.2894 25.1562 55.2252H25.1567ZM6.80548 42.296C6.8057 41.8519 6.9376 41.4178 7.18451 41.0486C7.43143 40.6794 7.78227 40.3917 8.19268 40.2218C8.60309 40.052 9.05463 40.0077 9.49023 40.0945C9.92583 40.1813 10.3259 40.3952 10.6399 40.7094C10.9539 41.0235 11.1677 41.4237 11.2543 41.8594C11.3408 42.295 11.2963 42.7465 11.1263 43.1568C10.9563 43.5672 10.6684 43.9179 10.2991 44.1646C9.92975 44.4113 9.49557 44.543 9.05141 44.543C8.45574 44.5425 7.88465 44.3055 7.46355 43.8842C7.04245 43.4629 6.80577 42.8917 6.80548 42.296Z" fill="#B0D3F0"/>
</g>
<defs>
<clipPath id="clip0_2619_476">
<rect width="64" height="64" fill="white"/>
</clipPath>
</defs>
</svg>
