<svg width="64" height="64" viewBox="0 0 64 64" fill="none" xmlns="http://www.w3.org/2000/svg">
<path d="M52.2665 64H11.7332C9.96654 63.9979 8.53529 62.5667 8.5332 60.8V3.2C8.53529 1.43333 9.96654 0.00208333 11.7332 0H52.2665C54.0332 0.00208333 55.4645 1.43333 55.4665 3.2V60.8C55.4645 62.5667 54.0332 63.9979 52.2665 64ZM11.7332 2.13333C11.1441 2.13385 10.6671 2.61094 10.6665 3.2V60.8C10.6671 61.3891 11.1441 61.8661 11.7332 61.8667H52.2665C52.8556 61.8661 53.3327 61.3891 53.3332 60.8V3.2C53.3327 2.61094 52.8556 2.13385 52.2665 2.13333H11.7332Z" fill="#B0D3F0"/>
<path d="M31.9998 37.3332C29.0545 37.3332 26.6665 34.9452 26.6665 31.9998C26.6665 29.0545 29.0545 26.6665 31.9998 26.6665C34.9452 26.6665 37.3332 29.0545 37.3332 31.9998C37.3295 34.9441 34.9441 37.3295 31.9998 37.3332ZM31.9998 28.7998C30.2326 28.7998 28.7998 30.2326 28.7998 31.9998C28.7998 33.767 30.2326 35.1998 31.9998 35.1998C33.767 35.1998 35.1998 33.767 35.1998 31.9998C35.1978 30.2332 33.7665 28.8019 31.9998 28.7998Z" fill="#B0D3F0"/>
<path d="M17.0664 10.6666C15.8883 10.6666 14.9331 9.71136 14.9331 8.53324C14.9331 7.35511 15.8883 6.3999 17.0664 6.3999C18.2446 6.3999 19.1998 7.35511 19.1998 8.53324C19.1982 9.71084 18.244 10.665 17.0664 10.6666Z" fill="#B0D3F0"/>
<path d="M46.9331 10.6666C45.755 10.6666 44.7998 9.71136 44.7998 8.53324C44.7998 7.35511 45.755 6.3999 46.9331 6.3999C48.1113 6.3999 49.0665 7.35511 49.0665 8.53324C49.0649 9.71084 48.1107 10.665 46.9331 10.6666Z" fill="#B0D3F0"/>
<path d="M17.0664 57.6002C15.8883 57.6002 14.9331 56.645 14.9331 55.4668C14.9331 54.2887 15.8883 53.3335 17.0664 53.3335C18.2446 53.3335 19.1998 54.2887 19.1998 55.4668C19.1982 56.6444 18.244 57.5986 17.0664 57.6002Z" fill="#B0D3F0"/>
<path d="M46.9331 57.6002C45.755 57.6002 44.7998 56.645 44.7998 55.4668C44.7998 54.2887 45.755 53.3335 46.9331 53.3335C48.1113 53.3335 49.0665 54.2887 49.0665 55.4668C49.0649 56.6444 48.1107 57.5986 46.9331 57.6002Z" fill="#B0D3F0"/>
<path d="M46.8625 42.337C48.9948 39.312 50.1375 35.7011 50.1334 32C50.1334 21.9854 42.0146 13.8667 32 13.8667C21.9854 13.8667 13.8667 21.9854 13.8667 32C13.8667 42.0146 21.9854 50.1334 32 50.1334C35.7011 50.1375 39.3125 48.9953 42.3381 46.8636L44.0683 48.5933C45.3188 49.8365 47.3396 49.8334 48.5865 48.5865C49.8334 47.3396 49.8365 45.3188 48.5933 44.0677L46.8625 42.337ZM32 48C23.1636 48 16 40.8365 16 32C16 23.1636 23.1636 16 32 16C40.8365 16 48 23.1636 48 32C48.0058 35.136 47.0782 38.2026 45.3349 40.8094L41.8052 37.2797C40.5558 36.0287 38.5287 36.0282 37.2787 37.2787C36.0282 38.5287 36.0287 40.5558 37.2797 41.8052L40.8094 45.3349C38.2026 47.0787 35.136 48.0063 32 48ZM47.0849 47.0849C46.6683 47.5011 45.9933 47.5011 45.5766 47.0849L38.7881 40.2969C38.3719 39.8802 38.3719 39.2047 38.7881 38.7881C39.2047 38.3719 39.8802 38.3719 40.2969 38.7881L47.0849 45.5766C47.5011 45.9933 47.5011 46.6683 47.0849 47.0849Z" fill="#B0D3F0"/>
</svg>
