<svg width="64" height="64" viewBox="0 0 64 64" fill="none" xmlns="http://www.w3.org/2000/svg">
<g clip-path="url(#clip0_2619_511)">
<path d="M32.8355 34.9287C32.7171 34.903 32.5956 34.8984 32.4757 34.9164C31.2736 34.7764 30.3669 33.7594 30.3648 32.5497C30.3648 31.97 29.8948 31.4999 29.315 31.4999C28.7353 31.4999 28.2652 31.97 28.2652 32.5497C28.2683 34.5698 29.6195 36.3393 31.5674 36.8739V37.9237C31.5674 38.5035 32.0374 38.9735 32.6171 38.9735C33.1969 38.9735 33.6669 38.5035 33.6669 37.9237V36.9375C35.9151 36.4669 37.4432 34.373 37.2069 32.0884C36.9701 29.8038 35.0453 28.0676 32.7484 28.0671C31.432 28.0671 30.3648 26.9999 30.3648 25.6836C30.3648 24.3672 31.432 23.3 32.7484 23.3C34.0647 23.3 35.1319 24.3672 35.1319 25.6836C35.1319 26.2633 35.6019 26.7334 36.1817 26.7334C36.7614 26.7334 37.2315 26.2633 37.2315 25.6836C37.2284 23.5625 35.7424 21.733 33.6669 21.2953V20.3398C33.6669 19.7601 33.1969 19.29 32.6171 19.29C32.0374 19.29 31.5674 19.7601 31.5674 20.3398V21.3594C29.4011 21.9509 28.0069 24.0541 28.3052 26.2797C28.6036 28.5054 30.5027 30.1667 32.7484 30.1662C34.0473 30.1662 35.1068 31.2062 35.1304 32.5046C35.1545 33.803 34.1334 34.8815 32.8355 34.9287Z" fill="#B0D3F0"/>
<path d="M17.5254 29.197C17.5254 37.6045 24.3408 44.4199 32.7483 44.4199C41.1558 44.4199 47.9712 37.6045 47.9712 29.197C47.9712 20.7895 41.1558 13.9741 32.7483 13.9741C24.3449 13.9833 17.5351 20.7936 17.5254 29.197ZM32.7483 16.0737C39.9963 16.0737 45.8716 21.949 45.8716 29.197C45.8716 36.4451 39.9963 42.3204 32.7483 42.3204C25.5003 42.3204 19.625 36.4451 19.625 29.197C19.6332 21.9526 25.5039 16.0819 32.7483 16.0737Z" fill="#B0D3F0"/>
<path d="M53.1464 47.0083L44.9229 50.8937C43.7875 48.7819 41.6095 47.4379 39.2126 47.3702L31.6212 47.1616C30.4192 47.1272 29.2397 46.8228 28.1709 46.2707L27.3985 45.8704C23.4433 43.8087 18.729 43.8138 14.778 45.8837L14.8262 44.1337C14.8421 43.554 14.3853 43.0711 13.8056 43.0552L5.48113 42.8261C4.90139 42.8102 4.41905 43.2669 4.40316 43.8467L3.9003 62.1143C3.88441 62.6941 4.34113 63.1769 4.92087 63.1928L13.2453 63.422H13.274C13.843 63.422 14.3084 62.9693 14.3238 62.4009L14.3479 61.5269L16.5105 60.369C17.3594 59.9123 18.3518 59.8036 19.279 60.066L32.1932 63.6906C32.2158 63.6972 32.2383 63.7023 32.2614 63.7075C33.1948 63.9028 34.1462 64.0007 35.0996 64.0002C37.1192 64.0012 39.1153 63.566 40.9508 62.7233C40.9959 62.7028 41.0395 62.6787 41.081 62.6515L59.8054 50.5401C60.2719 50.2381 60.4226 49.6256 60.1494 49.1417C58.7592 46.6751 55.676 45.7355 53.1464 47.0083ZM6.02807 61.123L6.473 44.9538L12.6984 45.1251L12.2535 61.2947L6.02807 61.123ZM40.0051 60.8482C37.7246 61.8775 35.1775 62.1615 32.7263 61.6607L19.847 58.0454C18.3974 57.6358 16.8458 57.8055 15.5197 58.5185L14.4146 59.1106L14.7103 48.36C18.2123 46.0308 22.7037 45.7914 26.4333 47.7347L27.2057 48.135C28.5559 48.8321 30.045 49.2165 31.5638 49.2606L39.1557 49.4693C41.2881 49.5308 43.0991 51.0491 43.5317 53.1384L32.2235 52.8262C31.6437 52.8103 31.1614 53.2675 31.145 53.8468C31.1291 54.4265 31.5863 54.9094 32.1656 54.9253L44.6451 55.2687H44.6743C45.2428 55.2682 45.7077 54.8156 45.7231 54.2476C45.7359 53.7914 45.702 53.3347 45.6216 52.8857L54.0562 48.9003C54.0644 48.8967 54.0726 48.8926 54.0808 48.8885C55.2772 48.2831 56.7238 48.4856 57.7079 49.3965L40.0051 60.8482Z" fill="#B0D3F0"/>
<path d="M33.7983 11.0227V1.04978C33.7983 0.470045 33.3283 0 32.7485 0C32.1688 0 31.6987 0.470045 31.6987 1.04978V11.0227C31.6987 11.6025 32.1688 12.0725 32.7485 12.0725C33.3283 12.0725 33.7983 11.6025 33.7983 11.0227Z" fill="#B0D3F0"/>
<path d="M41.6713 11.0228V6.29881C41.6713 5.71907 41.2013 5.24902 40.6216 5.24902C40.0418 5.24902 39.5718 5.71907 39.5718 6.29881V11.0228C39.5718 11.6026 40.0418 12.0726 40.6216 12.0726C41.2013 12.0726 41.6713 11.6026 41.6713 11.0228Z" fill="#B0D3F0"/>
<path d="M25.9248 11.0228V6.29881C25.9248 5.71907 25.4547 5.24902 24.875 5.24902C24.2952 5.24902 23.8252 5.71907 23.8252 6.29881V11.0228C23.8252 11.6026 24.2952 12.0726 24.875 12.0726C25.4547 12.0726 25.9248 11.6026 25.9248 11.0228Z" fill="#B0D3F0"/>
</g>
<defs>
<clipPath id="clip0_2619_511">
<rect width="64" height="64" fill="white"/>
</clipPath>
</defs>
</svg>
