<svg width="64" height="64" viewBox="0 0 64 64" fill="none" xmlns="http://www.w3.org/2000/svg">
<g clip-path="url(#clip0_2625_150)">
<path d="M32.9399 13.5522C25.6313 13.4615 18.87 17.7191 15.8369 24.3296L12.9419 22.5208C14.3193 25.0066 15.318 28.7559 15.7451 31.6962C17.3387 29.1893 19.7876 26.1804 22.0624 24.4772L19.0894 24.8832C21.7112 19.918 26.9232 16.713 32.6109 16.713C32.7005 16.713 32.7923 16.713 32.883 16.7151C41.3106 16.8659 48.0434 23.8444 47.8916 32.271C47.8188 36.3535 46.1598 40.1618 43.2216 42.9977C40.2834 45.8326 36.416 47.3702 32.3356 47.2806C31.4761 47.3059 30.741 47.9619 30.7252 48.8341C30.7094 49.7084 31.4054 50.4297 32.2787 50.4445C32.3905 50.4466 32.5023 50.4477 32.6141 50.4477C42.6331 50.4477 50.8751 42.3871 51.0555 32.3279C51.2379 22.1581 43.1109 13.7347 32.9399 13.5522Z" fill="#B0D3F0"/>
<path d="M61.4181 31.476C60.5449 31.476 59.8362 32.1837 59.8362 33.0579C59.8362 48.4072 47.3492 60.8941 32 60.8941C16.6519 60.8941 4.16392 48.4072 4.16392 33.0579C4.16392 20.3949 12.8109 9.33491 24.9224 6.15518L24.1904 9.21258C26.1099 7.11701 29.3476 4.9782 32 3.63987C29.1167 2.92482 25.4855 1.55907 23.1474 -0.0566406L24.6313 2.94381C10.8693 6.29966 1 18.775 1 33.0579C1 50.1515 14.9065 64.058 32 64.058C49.0936 64.058 63.0001 50.1515 63.0001 33.0579C63.0001 32.1837 62.2914 31.476 61.4181 31.476Z" fill="#B0D3F0"/>
</g>
<defs>
<clipPath id="clip0_2625_150">
<rect width="64" height="64" fill="white"/>
</clipPath>
</defs>
</svg>
