<svg width="64" height="64" viewBox="0 0 64 64" fill="none" xmlns="http://www.w3.org/2000/svg">
<path d="M32.8912 14.5082C25.9612 14.4222 19.5502 18.4592 16.6742 24.7272L13.9292 23.0122C15.2352 25.3692 16.1822 28.9242 16.5872 31.7122C18.0982 29.3352 20.4202 26.4822 22.5772 24.8672L19.7582 25.2522C22.2442 20.5442 27.1862 17.5052 32.5792 17.5052C32.6642 17.5052 32.7512 17.5052 32.8372 17.5072C40.8282 17.6502 47.2122 24.2672 47.0682 32.2572C46.9992 36.1282 45.4262 39.7392 42.6402 42.4282C39.8542 45.1162 36.1872 46.5742 32.3182 46.4892C31.5032 46.5132 30.8062 47.1352 30.7912 47.9622C30.7762 48.7912 31.4362 49.4752 32.2642 49.4892C32.3702 49.4912 32.4762 49.4922 32.5822 49.4922C42.0822 49.4922 49.8972 41.8492 50.0682 32.3112C50.2412 22.6682 42.5352 14.6812 32.8912 14.5082Z" fill="#0284C7"/>
<path d="M59.894 31.503C59.066 31.503 58.394 32.174 58.394 33.003C58.394 47.557 46.554 59.397 32 59.397C17.447 59.397 5.60596 47.557 5.60596 33.003C5.60596 20.996 13.805 10.509 25.289 7.494L24.595 10.393C26.415 8.406 29.485 6.378 32 5.109C29.266 4.431 25.823 3.136 23.606 1.604L25.013 4.449C11.964 7.631 2.60596 19.46 2.60596 33.003C2.60596 49.211 15.792 62.397 32 62.397C48.208 62.397 61.394 49.211 61.394 33.003C61.394 32.174 60.722 31.503 59.894 31.503Z" fill="#0284C7"/>
</svg>
