<svg width="64" height="64" viewBox="0 0 64 64" fill="none" xmlns="http://www.w3.org/2000/svg">
<path d="M50.875 0H13.125C10.5403 0 8.4375 2.10275 8.4375 4.6875V17.8125C8.47588 19.052 10.2745 19.0511 10.3125 17.8125V4.6875C10.3125 3.13663 11.5742 1.875 13.125 1.875H50.875C52.4258 1.875 53.6875 3.13663 53.6875 4.6875V44.61C53.7259 45.8495 55.5245 45.8486 55.5625 44.61V4.6875C55.5625 2.10275 53.4597 0 50.875 0Z" fill="#B0D3F0"/>
<path d="M54.625 48.0476C54.1071 48.0476 53.6875 48.4673 53.6875 48.9851V59.3126C53.6875 60.8635 52.4258 62.1251 50.875 62.1251H13.125C11.5742 62.1251 10.3125 60.8635 10.3125 59.3126V22.1876C10.2741 20.9481 8.4755 20.949 8.4375 22.1876V59.3126C8.4375 61.8973 10.5403 64.0001 13.125 64.0001H50.875C53.4597 64.0001 55.5625 61.8973 55.5625 59.3126V48.9851C55.5625 48.4673 55.1429 48.0476 54.625 48.0476Z" fill="#B0D3F0"/>
<path d="M16.9194 55.1765L19.3499 57.4914C19.7219 57.8458 20.3106 57.8348 20.6692 57.4654L24.4887 53.5303C24.8494 53.1588 24.8405 52.5652 24.469 52.2047C24.0975 51.8442 23.5039 51.8529 23.1434 52.2244L19.9707 55.4932L18.2127 53.8188C17.8379 53.4618 17.2445 53.4763 16.8872 53.8512C16.5299 54.226 16.5445 54.8194 16.9194 55.1765Z" fill="#B0D3F0"/>
<path d="M16.9194 47.1289L19.3499 49.4438C19.7219 49.7982 20.3106 49.7872 20.6692 49.4178L24.4887 45.4825C24.8494 45.1109 24.8405 44.5174 24.469 44.1569C24.0975 43.7962 23.5039 43.8052 23.1434 44.1767L19.9707 47.4455L18.2127 45.7712C17.8379 45.4142 17.2445 45.4287 16.8872 45.8035C16.5299 46.1784 16.5445 46.7718 16.9194 47.1289Z" fill="#B0D3F0"/>
<path d="M18.2121 37.7239C17.8372 37.3669 17.2438 37.3814 16.8866 37.7563C16.5295 38.1313 16.544 38.7247 16.9188 39.0818L19.3493 41.3967C19.7213 41.7511 20.3101 41.7401 20.6687 41.3707L24.4882 37.4356C24.8488 37.0641 24.84 36.4704 24.4685 36.1099C24.097 35.7493 23.5033 35.7583 23.1428 36.1297L19.9702 39.3984L18.2121 37.7239Z" fill="#B0D3F0"/>
<path d="M46.1905 53.9072H28.6905C27.451 53.9456 27.4519 55.7442 28.6905 55.7822H46.1905C47.4302 55.7439 47.4292 53.9452 46.1905 53.9072Z" fill="#B0D3F0"/>
<path d="M46.1905 45.8599H28.6905C27.451 45.8982 27.4519 47.6969 28.6905 47.7349H46.1905C47.4302 47.6965 47.4292 45.8979 46.1905 45.8599Z" fill="#B0D3F0"/>
<path d="M46.4342 37.8125H28.9342C27.6947 37.8509 27.6956 39.6495 28.9342 39.6875H46.4342C47.6737 39.6491 47.6728 37.8505 46.4342 37.8125Z" fill="#B0D3F0"/>
<path d="M32.0002 6.25C23.9133 6.47938 20.6272 14.5794 23.862 21.387L28.1705 30.9613C29.6311 34.2419 34.3707 34.2405 35.8302 30.9613L40.1386 21.3871C43.3753 14.577 40.082 6.47725 32.0002 6.25ZM38.4286 20.6175L34.1202 30.1917C33.3118 32.0077 30.6881 32.0069 29.8802 30.1917L25.5718 20.6176C22.9372 15.0126 25.2435 8.39075 32.0002 8.125C38.7581 8.39125 41.0628 15.0134 38.4286 20.6175Z" fill="#B0D3F0"/>
<path d="M32 10C28.8984 10 26.375 12.5234 26.375 15.625C26.6578 23.0771 37.3434 23.075 37.625 15.6249C37.625 12.5234 35.1016 10 32 10ZM32 19.375C29.9323 19.375 28.25 17.6927 28.25 15.625C28.4385 10.657 35.5623 10.6582 35.75 15.625C35.75 17.6927 34.0677 19.375 32 19.375Z" fill="#B0D3F0"/>
</svg>
