<svg width="64" height="64" viewBox="0 0 64 64" fill="none" xmlns="http://www.w3.org/2000/svg">
<path d="M32 13.5C42.2173 13.5 50.5 21.7827 50.5 32C50.5 42.2173 42.2173 50.5 32 50.5C21.7827 50.5 13.5 42.2173 13.5 32C13.5 21.7827 21.7827 13.5 32 13.5Z" stroke="white" stroke-width="3"/>
<path d="M38.0139 34.0914C37.0021 34.0914 36.0541 33.6521 35.1927 32.9369L35.4023 31.9273L35.4114 31.8899C35.5983 30.8148 36.1908 29.0105 38.0139 29.0105C39.3812 29.0105 40.4933 30.151 40.4933 31.5533C40.4887 32.9509 39.3766 34.0914 38.0139 34.0914ZM38.0139 26.435C35.6849 26.435 33.8801 27.9869 33.1463 30.539C32.0251 28.8142 31.1774 26.7435 30.6806 25H28.1738V31.6889C28.1738 33.007 27.1256 34.0821 25.8403 34.0821C24.555 34.0821 23.5068 33.007 23.5068 31.6889V25H21V31.6889C20.9909 34.428 23.1649 36.6763 25.8357 36.6763C28.5065 36.6763 30.6806 34.428 30.6806 31.6889V30.567C31.1682 31.6094 31.7653 32.6611 32.49 33.596L30.954 41H33.52L34.6321 35.6293C35.6074 36.2696 36.7286 36.6716 38.0139 36.6716C40.7622 36.6716 43 34.3625 43 31.544C43 28.7301 40.7622 26.435 38.0139 26.435Z" fill="white"/>
</svg>
