<svg width="64" height="64" viewBox="0 0 64 64" fill="none" xmlns="http://www.w3.org/2000/svg">
<g clip-path="url(#clip0_2619_354)">
<path d="M62.9333 12.7998H43.7333C43.1443 12.7998 42.6667 13.2774 42.6667 13.8665V38.3998H19.2V35.1998C19.2 34.6107 18.7224 34.1331 18.1333 34.1331H14.9333V36.2665H17.0667V38.3998H12.8V34.1331H10.6667V38.3998H6.4V36.2665H8.53333V34.1331H5.33333C4.74427 34.1331 4.26667 34.6107 4.26667 35.1998V38.3998H1.06667C0.477604 38.3998 0 38.8774 0 39.4665V62.9331C0 63.5222 0.477604 63.9998 1.06667 63.9998H62.9333C63.5224 63.9998 64 63.5222 64 62.9331V13.8665C64 13.2774 63.5224 12.7998 62.9333 12.7998ZM44.8 14.9331H61.8667V27.7331H44.8V14.9331ZM42.6667 44.7998H23.4667V40.5331H42.6667V44.7998ZM2.13333 40.5331H21.3333V44.7998H2.13333V40.5331ZM2.13333 46.9331H21.3333V61.8665H2.13333V46.9331ZM23.4667 46.9331H32V61.8665H23.4667V46.9331ZM34.1333 46.9331H42.6667V61.8665H34.1333V46.9331ZM44.8 61.8665V29.8665H61.8667V61.8665H44.8Z" fill="#B0D3F0"/>
<path d="M46.9331 19.2002H49.0664V23.4669H46.9331V19.2002Z" fill="#B0D3F0"/>
<path d="M46.9331 34.1333H49.0664V38.4H46.9331V34.1333Z" fill="#B0D3F0"/>
<path d="M6.39994 42.6668C6.39994 43.2558 5.92233 43.7334 5.33327 43.7334C4.74421 43.7334 4.2666 43.2558 4.2666 42.6668C4.2666 42.0777 4.74421 41.6001 5.33327 41.6001C5.92233 41.6001 6.39994 42.0777 6.39994 42.6668Z" fill="#B0D3F0"/>
<path d="M10.6665 42.6668C10.6665 43.2558 10.1889 43.7334 9.59987 43.7334C9.01081 43.7334 8.5332 43.2558 8.5332 42.6668C8.5332 42.0777 9.01081 41.6001 9.59987 41.6001C10.1889 41.6001 10.6665 42.0777 10.6665 42.6668Z" fill="#B0D3F0"/>
<path d="M14.9331 42.6668C14.9331 43.2558 14.4555 43.7334 13.8665 43.7334C13.2774 43.7334 12.7998 43.2558 12.7998 42.6668C12.7998 42.0777 13.2774 41.6001 13.8665 41.6001C14.4555 41.6001 14.9331 42.0777 14.9331 42.6668Z" fill="#B0D3F0"/>
<path d="M19.2002 42.6668C19.2002 43.2558 18.7226 43.7334 18.1336 43.7334C17.5445 43.7334 17.0669 43.2558 17.0669 42.6668C17.0669 42.0777 17.5445 41.6001 18.1336 41.6001C18.7226 41.6001 19.2002 42.0777 19.2002 42.6668Z" fill="#B0D3F0"/>
<path d="M1.06667 20.2667H22.4C22.9891 20.2667 23.4667 19.7891 23.4667 19.2V16C23.4667 15.7172 23.3542 15.4458 23.1542 15.2458L18.8875 10.9792C18.6875 10.7792 18.4161 10.6667 18.1333 10.6667H17.0667V1.06667C17.0667 0.477604 16.5891 0 16 0H7.46667C6.8776 0 6.4 0.477604 6.4 1.06667V10.6667H5.33333C5.05052 10.6667 4.77917 10.7792 4.57917 10.9792L0.3125 15.2458C0.1125 15.4458 0 15.7172 0 16V19.2C0 19.7891 0.477604 20.2667 1.06667 20.2667ZM8.53333 2.13333H14.9333V10.6667H8.53333V2.13333ZM2.13333 16.4417L5.775 12.8H17.6917L21.3333 16.4417V18.1333H2.13333V16.4417Z" fill="#B0D3F0"/>
<path d="M18.1333 49.0669H5.33327C4.74421 49.0669 4.2666 49.5445 4.2666 50.1336V58.6669C4.2666 59.256 4.74421 59.7336 5.33327 59.7336H18.1333C18.7223 59.7336 19.1999 59.256 19.1999 58.6669V50.1336C19.1999 49.5445 18.7223 49.0669 18.1333 49.0669ZM17.0666 57.6002H6.39994V51.2002H17.0666V57.6002Z" fill="#B0D3F0"/>
<path d="M30.9331 41.6001H35.1998V43.7334H30.9331V41.6001Z" fill="#B0D3F0"/>
<path d="M27.7334 52.2666H29.8667V56.5333H27.7334V52.2666Z" fill="#B0D3F0"/>
<path d="M36.2666 52.2666H38.3999V56.5333H36.2666V52.2666Z" fill="#B0D3F0"/>
<path d="M25.5999 26.6667H31.9999C32.5889 26.6667 33.0665 26.1891 33.0665 25.6V24.5333C33.0592 22.5938 31.7447 20.9031 29.8665 20.4182V0H27.7332V20.4182C25.8551 20.9031 24.5405 22.5938 24.5332 24.5333V25.6C24.5332 26.1891 25.0108 26.6667 25.5999 26.6667ZM28.7999 22.4C29.978 22.4 30.9332 23.3552 30.9332 24.5333H26.6665C26.6665 23.3552 27.6217 22.4 28.7999 22.4Z" fill="#B0D3F0"/>
<path d="M33.0667 18.1333H39.4667C40.0557 18.1333 40.5333 17.6557 40.5333 17.0667V16C40.526 14.0604 39.2115 12.3698 37.3333 11.8849V0H35.2V11.8849C33.3219 12.3698 32.0073 14.0604 32 16V17.0667C32 17.6557 32.4776 18.1333 33.0667 18.1333ZM36.2667 13.8667C37.4448 13.8667 38.4 14.8219 38.4 16H34.1333C34.1333 14.8219 35.0885 13.8667 36.2667 13.8667Z" fill="#B0D3F0"/>
</g>
<defs>
<clipPath id="clip0_2619_354">
<rect width="64" height="64" fill="white"/>
</clipPath>
</defs>
</svg>
