<svg width="64" height="64" viewBox="0 0 64 64" fill="none" xmlns="http://www.w3.org/2000/svg">
<g clip-path="url(#clip0_2615_232)">
<path d="M49.7024 7.82617C49.7024 7.1358 49.1427 6.57617 48.4524 6.57617H48.4452C47.7549 6.57617 47.1987 7.1358 47.1987 7.82617C47.1987 8.51655 47.7619 9.07617 48.4522 9.07617C49.1426 9.07617 49.7024 8.51655 49.7024 7.82617Z" fill="#B0D3F0"/>
<path d="M56.445 7.82617C56.445 7.1358 55.8854 6.57617 55.195 6.57617H55.1879C54.4975 6.57617 53.9414 7.1358 53.9414 7.82617C53.9414 8.51655 54.5045 9.07617 55.1949 9.07617C55.8853 9.07617 56.445 8.51655 56.445 7.82617Z" fill="#B0D3F0"/>
<path d="M42.9631 7.82617C42.9631 7.1358 42.4035 6.57617 41.7131 6.57617H41.706C41.0156 6.57617 40.4595 7.1358 40.4595 7.82617C40.4595 8.51655 41.0226 9.07617 41.713 9.07617C42.4033 9.07617 42.9631 8.51655 42.9631 7.82617Z" fill="#B0D3F0"/>
<path d="M7.55469 7.82617C7.55469 8.51655 8.11431 9.07617 8.80469 9.07617H27.5692C28.2596 9.07617 28.8192 8.51655 28.8192 7.82617C28.8192 7.1358 28.2596 6.57617 27.5692 6.57617H8.80469C8.11444 6.57617 7.55469 7.1358 7.55469 7.82617Z" fill="#B0D3F0"/>
<path d="M59.964 0H20.8831C20.1928 0 19.6331 0.559625 19.6331 1.25C19.6331 1.94037 20.1928 2.5 20.8831 2.5H59.964C60.7968 2.5 61.4741 3.17588 61.4741 4.00663V13.1525H2.52539V4.00663C2.52539 3.17588 3.20127 2.5 4.03202 2.5H9.65851C10.3489 2.5 10.9085 1.94037 10.9085 1.25C10.9085 0.559625 10.3489 0 9.65851 0H4.03202C1.82277 0 0.0253906 1.79738 0.0253906 4.00663V59.9897C0.0253906 62.201 1.82277 64 4.03202 64H59.964C62.1751 64 63.9741 62.201 63.9741 59.9897V4.00663C63.9741 1.79738 62.1751 0 59.964 0ZM59.964 61.5H4.03202C3.20127 61.5 2.52539 60.8225 2.52539 59.9897V15.6525H61.4741V59.9897C61.4741 60.8225 60.7966 61.5 59.964 61.5Z" fill="#B0D3F0"/>
<path d="M11.7063 47.8267C8.83478 47.8267 6.49854 50.1628 6.49854 53.0344C6.49854 55.904 8.83466 58.2387 11.7063 58.2387C14.5759 58.2387 16.9104 55.904 16.9104 53.0344C16.9104 50.1629 14.5759 47.8267 11.7063 47.8267ZM11.7063 55.7388C10.2133 55.7388 8.99853 54.5257 8.99853 53.0345C8.99853 51.5415 10.2132 50.3268 11.7063 50.3268C13.1973 50.3268 14.4104 51.5415 14.4104 53.0345C14.4104 54.5257 13.1974 55.7388 11.7063 55.7388Z" fill="#B0D3F0"/>
<path d="M25.2339 47.8267C22.3643 47.8267 20.0298 50.1628 20.0298 53.0344C20.0298 55.904 22.3644 58.2387 25.2339 58.2387C28.1034 58.2387 30.438 55.904 30.438 53.0344C30.438 50.1629 28.1035 47.8267 25.2339 47.8267ZM25.2339 55.7388C23.7428 55.7388 22.5298 54.5257 22.5298 53.0345C22.5298 51.5415 23.7429 50.3268 25.2339 50.3268C26.7249 50.3268 27.938 51.5415 27.938 53.0345C27.938 54.5257 26.725 55.7388 25.2339 55.7388Z" fill="#B0D3F0"/>
<path d="M38.7617 47.8267C35.8921 47.8267 33.5576 50.1628 33.5576 53.0344C33.5576 55.904 35.8922 58.2387 38.7617 58.2387C41.6332 58.2387 43.9695 55.904 43.9695 53.0344C43.9694 50.1629 41.6332 47.8267 38.7617 47.8267ZM38.7617 55.7388C37.2706 55.7388 36.0576 54.5257 36.0576 53.0345C36.0576 51.5415 37.2707 50.3268 38.7617 50.3268C40.2547 50.3268 41.4695 51.5415 41.4695 53.0345C41.4694 54.5257 40.2547 55.7388 38.7617 55.7388Z" fill="#B0D3F0"/>
<path d="M52.2932 47.8267C49.4217 47.8267 47.0854 50.1628 47.0854 53.0344C47.0854 55.904 49.4216 58.2387 52.2932 58.2387C55.1628 58.2387 57.4973 55.904 57.4973 53.0344C57.4973 50.1629 55.1627 47.8267 52.2932 47.8267ZM52.2932 55.7388C50.8002 55.7388 49.5854 54.5257 49.5854 53.0345C49.5854 51.5415 50.8001 50.3268 52.2932 50.3268C53.7843 50.3268 54.9973 51.5415 54.9973 53.0345C54.9973 54.5257 53.7842 55.7388 52.2932 55.7388Z" fill="#B0D3F0"/>
<path d="M6.50291 41.7342C6.54791 42.3805 7.10016 42.8965 7.75029 42.8965H35.7269C36.409 42.8965 36.9787 42.3274 36.9787 41.6465V20.4897C36.9787 19.7994 36.419 19.2397 35.7287 19.2397H7.74854C7.05816 19.2397 6.49854 19.7994 6.49854 20.4897V41.6464C6.50004 41.6757 6.50141 41.705 6.50291 41.7342ZM27.225 40.3965L24.8962 36.726L28.0115 31.8186L33.455 40.3965H27.225ZM24.2643 40.3965H10.0224L17.1447 29.1756L24.2643 40.3965ZM34.4787 21.7397V37.3439L29.0672 28.8164C28.8379 28.455 28.4397 28.2361 28.0119 28.2361C27.584 28.2361 27.1859 28.455 26.9565 28.8162L23.416 34.3932L18.2004 26.1732C17.9712 25.8119 17.5729 25.593 17.145 25.5929C17.145 25.5929 17.145 25.5929 17.1449 25.5929C16.717 25.5929 16.3189 25.8117 16.0895 26.173L8.99841 37.3446V21.7397H34.4787Z" fill="#B0D3F0"/>
<path d="M42.2554 21.7397H56.1976C56.888 21.7397 57.4476 21.1801 57.4476 20.4897C57.4476 19.7994 56.888 19.2397 56.1976 19.2397H42.2554C41.565 19.2397 41.0054 19.7994 41.0054 20.4897C41.0054 21.1801 41.565 21.7397 42.2554 21.7397Z" fill="#B0D3F0"/>
<path d="M42.2554 28.6667H56.1976C56.888 28.6667 57.4476 28.1071 57.4476 27.4167C57.4476 26.7264 56.888 26.1667 56.1976 26.1667H42.2554C41.565 26.1667 41.0054 26.7264 41.0054 27.4167C41.0054 28.1071 41.565 28.6667 42.2554 28.6667Z" fill="#B0D3F0"/>
<path d="M42.2554 35.5903H56.1976C56.888 35.5903 57.4476 35.0307 57.4476 34.3403C57.4476 33.65 56.888 33.0903 56.1976 33.0903H42.2554C41.565 33.0903 41.0054 33.65 41.0054 34.3403C41.0054 35.0307 41.565 35.5903 42.2554 35.5903Z" fill="#B0D3F0"/>
<path d="M42.2554 42.5137H56.1976C56.888 42.5137 57.4476 41.954 57.4476 41.2637C57.4476 40.5733 56.888 40.0137 56.1976 40.0137H42.2554C41.565 40.0137 41.0054 40.5733 41.0054 41.2637C41.0054 41.954 41.565 42.5137 42.2554 42.5137Z" fill="#B0D3F0"/>
<path d="M15.2709 2.5H15.278C15.9684 2.5 16.5245 1.94037 16.5245 1.25C16.5245 0.559625 15.9614 0 15.271 0C14.5806 0 14.021 0.559625 14.021 1.25C14.021 1.94037 14.5806 2.5 15.2709 2.5Z" fill="#B0D3F0"/>
</g>
<defs>
<clipPath id="clip0_2615_232">
<rect width="64" height="64" fill="white"/>
</clipPath>
</defs>
</svg>
