<svg width="64" height="64" viewBox="0 0 64 64" fill="none" xmlns="http://www.w3.org/2000/svg">
<g clip-path="url(#clip0_2615_306)">
<path d="M63.925 4.77798C63.7864 2.23573 61.7645 0.214104 59.2223 0.0753538C54.0925 -0.204896 44.0545 0.067729 34.456 5.03235C29.5629 7.56335 24.3879 11.8545 20.258 16.8055C20.2072 16.8665 20.1577 16.9279 20.1072 16.989L10.7347 17.713C9.19191 17.8322 7.81778 18.6409 6.96453 19.9314L0.570281 29.6029C-0.0768438 30.5816 -0.179719 31.8065 0.294906 32.8794C0.769656 33.9524 1.74516 34.7001 2.90453 34.8797L10.8009 36.1027C10.773 36.2562 10.745 36.4096 10.7194 36.5631C10.4565 38.1356 10.9775 39.7524 12.1133 40.888L23.1123 51.8871C24.0539 52.8287 25.3263 53.3479 26.63 53.3479C26.8985 53.3479 27.1685 53.3257 27.4373 53.2809C27.5908 53.2552 27.7442 53.2272 27.8977 53.1994L29.1207 61.0959C29.3003 62.2552 30.048 63.2309 31.1208 63.7055C31.5672 63.903 32.0395 64.0005 32.5098 64.0005C33.1702 64.0004 33.8259 63.8081 34.3974 63.4302L44.0689 57.0359C45.3595 56.1825 46.168 54.8084 46.287 53.2657L47.011 43.8934C47.0722 43.8429 47.1337 43.7934 47.1947 43.7425C52.1458 39.6126 56.437 34.4376 58.9679 29.5444C63.9328 19.9455 64.2049 9.90735 63.925 4.77798ZM42.0008 53.9076L32.7494 60.0242L31.5574 52.3286C35.4674 51.179 39.3353 49.3377 43.0202 46.8711L42.5485 52.9767C42.5192 53.3576 42.3194 53.697 42.0008 53.9076ZM25.7639 49.2355L14.7648 38.2364C14.4842 37.9556 14.3544 37.5612 14.418 37.1814C14.745 35.226 15.2532 33.3646 15.8822 31.6111L32.3857 48.1146C30.2797 48.869 28.3933 49.319 26.8189 49.5822C26.4384 49.6455 26.0445 49.5161 25.7639 49.2355ZM11.0235 21.4519L17.129 20.9802C14.6623 24.6651 12.821 28.533 11.6714 32.443L3.97591 31.2511L10.0927 21.9996C10.3034 21.6809 10.6428 21.4812 11.0235 21.4519ZM44.7929 40.8626C41.7638 43.3892 38.8234 45.2167 36.1132 46.5391L17.4605 27.8865C19.1928 24.3485 21.3069 21.4024 23.1377 19.2076C26.9595 14.6257 31.7129 10.6731 36.179 8.3631C44.9883 3.80648 54.2697 3.5611 59.0182 3.8196C59.6467 3.85385 60.1465 4.35373 60.1808 4.98235C60.4397 9.73085 60.1938 19.0121 55.6372 27.8215C53.3273 32.2875 49.3747 37.0407 44.7929 40.8626Z" fill="#B0D3F0"/>
<path d="M43.8406 29.5304C46.2408 29.5301 48.6421 28.6164 50.4694 26.789C52.2402 25.0184 53.2152 22.6641 53.2152 20.1601C53.2152 17.6561 52.2401 15.3019 50.4694 13.5312C46.8142 9.87586 40.8667 9.87611 37.2117 13.5312C35.4409 15.3019 34.4658 17.6561 34.4658 20.1601C34.4658 22.6641 35.4411 25.0184 37.2117 26.789C39.0394 28.6167 41.4394 29.5306 43.8406 29.5304ZM39.8631 16.1827C40.9596 15.0861 42.3999 14.5379 43.8403 14.5379C45.2808 14.5379 46.7212 15.0861 47.8177 16.1827C48.8801 17.2451 49.4651 18.6576 49.4651 20.16C49.4651 21.6624 48.8801 23.075 47.8177 24.1374C45.6247 26.3305 42.0561 26.3304 39.8629 24.1374C38.8006 23.075 38.2154 21.6625 38.2154 20.1601C38.2154 18.6577 38.8007 17.2451 39.8631 16.1827Z" fill="#B0D3F0"/>
<path d="M1.91302 52.7423C2.3929 52.7423 2.87277 52.5593 3.23877 52.193L9.3604 46.0714C10.0926 45.3392 10.0926 44.152 9.3604 43.4198C8.62827 42.6875 7.44102 42.6875 6.70877 43.4198L0.587273 49.5414C-0.144977 50.2737 -0.144977 51.4608 0.587273 52.193C0.953273 52.5592 1.43315 52.7423 1.91302 52.7423Z" fill="#B0D3F0"/>
<path d="M14.9701 49.0299C14.2379 48.2977 13.0507 48.2977 12.3184 49.0299L0.549187 60.7993C-0.183062 61.5315 -0.183062 62.7186 0.549187 63.4509C0.915312 63.817 1.39506 64 1.87494 64C2.35481 64 2.83469 63.817 3.20069 63.4508L14.9699 51.6815C15.7023 50.9493 15.7023 49.7622 14.9701 49.0299Z" fill="#B0D3F0"/>
<path d="M17.9286 54.64L11.807 60.7616C11.0748 61.4939 11.0748 62.681 11.807 63.4133C12.1731 63.7794 12.653 63.9625 13.1327 63.9625C13.6125 63.9625 14.0925 63.7795 14.4585 63.4133L20.5801 57.2916C21.3124 56.5594 21.3124 55.3723 20.5801 54.64C19.848 53.9078 18.6608 53.9078 17.9286 54.64Z" fill="#B0D3F0"/>
</g>
<defs>
<clipPath id="clip0_2615_306">
<rect width="64" height="64" fill="white"/>
</clipPath>
</defs>
</svg>
