<svg width="64" height="64" viewBox="0 0 64 64" fill="none" xmlns="http://www.w3.org/2000/svg">
<g clip-path="url(#clip0_2600_299)">
<path d="M63.9245 4.77798C63.7859 2.23573 61.764 0.214104 59.2218 0.0753538C54.092 -0.204896 44.054 0.067729 34.4555 5.03235C29.5624 7.56335 24.3874 11.8545 20.2575 16.8055C20.2067 16.8665 20.1572 16.9279 20.1067 16.989L10.7342 17.713C9.19142 17.8322 7.81729 18.6409 6.96404 19.9314L0.569793 29.6029C-0.0773321 30.5816 -0.180207 31.8065 0.294418 32.8794C0.769168 33.9524 1.74467 34.7001 2.90404 34.8797L10.8004 36.1027C10.7725 36.2562 10.7445 36.4096 10.7189 36.5631C10.456 38.1356 10.977 39.7524 12.1128 40.888L23.1118 51.8871C24.0534 52.8287 25.3258 53.3479 26.6295 53.3479C26.898 53.3479 27.168 53.3257 27.4368 53.2809C27.5903 53.2552 27.7437 53.2272 27.8972 53.1994L29.1202 61.0959C29.2998 62.2552 30.0475 63.2309 31.1203 63.7055C31.5667 63.903 32.039 64.0005 32.5093 64.0005C33.1697 64.0004 33.8254 63.8081 34.3969 63.4302L44.0684 57.0359C45.359 56.1825 46.1675 54.8084 46.2865 53.2657L47.0105 43.8934C47.0717 43.8429 47.1332 43.7934 47.1942 43.7425C52.1453 39.6126 56.4365 34.4376 58.9674 29.5444C63.9323 19.9455 64.2044 9.90735 63.9245 4.77798ZM42.0003 53.9076L32.7489 60.0242L31.5569 52.3286C35.4669 51.179 39.3348 49.3377 43.0197 46.8711L42.548 52.9767C42.5187 53.3576 42.3189 53.697 42.0003 53.9076ZM25.7634 49.2355L14.7643 38.2364C14.4837 37.9556 14.3539 37.5612 14.4175 37.1814C14.7445 35.226 15.2527 33.3646 15.8817 31.6111L32.3852 48.1146C30.2792 48.869 28.3928 49.319 26.8184 49.5822C26.4379 49.6455 26.044 49.5161 25.7634 49.2355ZM11.023 21.4519L17.1285 20.9802C14.6618 24.6651 12.8205 28.533 11.6709 32.443L3.97542 31.2511L10.0922 21.9996C10.3029 21.6809 10.6423 21.4812 11.023 21.4519ZM44.7924 40.8626C41.7633 43.3892 38.8229 45.2167 36.1127 46.5391L17.46 27.8865C19.1923 24.3485 21.3064 21.4024 23.1372 19.2076C26.959 14.6257 31.7124 10.6731 36.1785 8.3631C44.9878 3.80648 54.2692 3.5611 59.0177 3.8196C59.6462 3.85385 60.146 4.35373 60.1803 4.98235C60.4392 9.73085 60.1933 19.0121 55.6367 27.8215C53.3268 32.2875 49.3742 37.0407 44.7924 40.8626Z" fill="#0284C7"/>
<path d="M43.8401 29.5304C46.2403 29.5301 48.6416 28.6164 50.469 26.789C52.2397 25.0184 53.2147 22.6641 53.2147 20.1601C53.2147 17.6561 52.2396 15.3019 50.469 13.5312C46.8137 9.87586 40.8662 9.87611 37.2112 13.5312C35.4405 15.3019 34.4653 17.6561 34.4653 20.1601C34.4653 22.6641 35.4406 25.0184 37.2112 26.789C39.039 28.6167 41.439 29.5306 43.8401 29.5304ZM39.8626 16.1827C40.9591 15.0861 42.3995 14.5379 43.8398 14.5379C45.2803 14.5379 46.7207 15.0861 47.8172 16.1827C48.8796 17.2451 49.4646 18.6576 49.4646 20.16C49.4646 21.6624 48.8796 23.075 47.8172 24.1374C45.6242 26.3305 42.0556 26.3304 39.8625 24.1374C38.8001 23.075 38.215 21.6625 38.215 20.1601C38.215 18.6577 38.8002 17.2451 39.8626 16.1827Z" fill="#0284C7"/>
<path d="M1.91254 52.7423C2.39241 52.7423 2.87229 52.5593 3.23829 52.193L9.35991 46.0714C10.0922 45.3392 10.0922 44.152 9.35991 43.4198C8.62779 42.6875 7.44054 42.6875 6.70829 43.4198L0.586785 49.5414C-0.145465 50.2737 -0.145465 51.4608 0.586785 52.193C0.952785 52.5592 1.43266 52.7423 1.91254 52.7423Z" fill="#0284C7"/>
<path d="M14.9701 49.0299C14.2379 48.2977 13.0507 48.2977 12.3184 49.0299L0.549187 60.7993C-0.183062 61.5315 -0.183062 62.7186 0.549187 63.4509C0.915312 63.817 1.39506 64 1.87494 64C2.35481 64 2.83469 63.817 3.20069 63.4508L14.9699 51.6815C15.7023 50.9493 15.7023 49.7622 14.9701 49.0299Z" fill="#0284C7"/>
<path d="M17.9286 54.64L11.807 60.7616C11.0748 61.4939 11.0748 62.681 11.807 63.4133C12.1731 63.7794 12.653 63.9625 13.1327 63.9625C13.6125 63.9625 14.0925 63.7795 14.4585 63.4133L20.5801 57.2916C21.3124 56.5594 21.3124 55.3723 20.5801 54.64C19.848 53.9078 18.6608 53.9078 17.9286 54.64Z" fill="#0284C7"/>
</g>
<defs>
<clipPath id="clip0_2600_299">
<rect width="64" height="64" fill="white"/>
</clipPath>
</defs>
</svg>
