<svg width="64" height="64" viewBox="0 0 64 64" fill="none" xmlns="http://www.w3.org/2000/svg">
<g clip-path="url(#clip0_2619_546)">
<path d="M38.7315 38.5706C37.6866 37.5257 35.9886 37.5257 34.9538 38.5706L24.4344 49.0899C21.8121 51.7122 17.6526 51.9232 14.96 49.5722C13.4731 48.2661 12.619 46.3873 12.619 44.418C12.619 42.5995 13.3223 40.8815 14.6184 39.5954L25.2985 28.9154C26.3434 27.8705 26.3434 26.1725 25.2985 25.1376L20.2749 20.1141C19.2602 19.0993 17.5019 19.0993 16.4972 20.1141L12.9607 23.6507L5.52579 31.0855C-1.98944 38.6008 -1.98944 50.8381 5.53584 58.3634C9.29346 62.121 14.2366 63.9998 19.1698 63.9998C24.1029 63.9998 29.0461 62.121 32.8037 58.3634L40.2385 50.9286L43.7751 47.392C44.2775 46.8896 44.5588 46.2165 44.5588 45.5031C44.5588 44.7898 44.2775 44.1166 43.7751 43.6143L38.7315 38.5706ZM17.5321 21.1389C17.7632 20.9078 18.0746 20.7873 18.3861 20.7873C18.6975 20.7873 18.999 20.9078 19.23 21.1389L24.2536 26.1625C24.7258 26.6347 24.7258 27.3882 24.2536 27.8604L21.2294 30.8846L14.5079 24.1631L17.5321 21.1389ZM31.7487 57.3085C24.8062 64.251 13.5032 64.251 6.5506 57.2984C-0.391949 50.3559 -0.391949 39.0529 6.5506 32.1103L13.463 25.1979L20.1845 31.9194L13.5635 38.5405C11.9961 40.1078 11.1321 42.1976 11.1321 44.408C11.1321 46.8092 12.1669 49.0899 13.9754 50.6673C17.2407 53.5308 22.2844 53.2896 25.4592 50.1147L31.9195 43.6545L38.641 50.376L31.7487 57.3085ZM42.7202 46.337L39.696 49.3612L32.9745 42.6397L35.9987 39.6155C36.4709 39.1433 37.2345 39.1534 37.6966 39.6155L42.7202 44.6391C43.1924 45.1012 43.1924 45.8648 42.7202 46.337Z" fill="#B0D3F0"/>
<path d="M30.9249 22.6358C34.6724 22.6358 38.1688 20.7872 40.2787 17.6826C41.5547 15.7837 42.2379 13.5834 42.2379 11.3228C42.2379 5.08355 37.1641 0.00976562 30.9249 0.00976562C24.6856 0.00976562 19.6118 5.08355 19.6118 11.3228C19.6118 13.5934 20.285 15.7938 21.571 17.6826C23.6809 20.7771 27.1773 22.6358 30.9249 22.6358ZM30.9249 21.1589C27.8404 21.1589 24.9669 19.7021 23.1082 17.2707C24.9368 14.8594 27.7701 13.4126 30.8143 13.3825C30.8545 13.3825 30.8847 13.3925 30.9249 13.3925C30.965 13.3925 30.9952 13.3825 31.0354 13.3825C34.0796 13.4126 36.9129 14.8594 38.7415 17.2707C36.8828 19.7021 34.0093 21.1589 30.9249 21.1589ZM27.971 10.3482C27.5691 9.74541 27.3481 9.05216 27.3481 8.33881C27.3481 6.36958 28.9556 4.76205 30.9249 4.76205C32.8941 4.76205 34.5016 6.36958 34.5016 8.33881C34.5016 9.05216 34.2906 9.75546 33.8787 10.3482C33.2256 11.3027 32.1506 11.8754 30.9952 11.9055C30.9751 11.9055 30.9449 11.9055 30.9249 11.9055C30.9048 11.9055 30.8746 11.9055 30.8545 11.9055C29.6891 11.8754 28.614 11.3027 27.971 10.3482ZM30.9249 1.47664C36.3503 1.47664 40.761 5.88732 40.761 11.3128C40.761 12.9404 40.339 14.5178 39.5754 15.9445C38.1085 14.1862 36.1594 12.9404 33.9892 12.3275C34.4112 12.006 34.793 11.6142 35.0944 11.1621C35.6671 10.3181 35.9685 9.33348 35.9685 8.32877C35.9685 5.54572 33.7079 3.28512 30.9249 3.28512C28.1418 3.28512 25.8712 5.55577 25.8712 8.33881C25.8712 9.35357 26.1726 10.3281 26.7453 11.1821C27.0567 11.6343 27.4285 12.0161 27.8504 12.3376C25.6803 12.9504 23.7311 14.1963 22.2643 15.9545C21.5007 14.5278 21.0787 12.9504 21.0787 11.3228C21.0787 5.89737 25.4994 1.47664 30.9249 1.47664Z" fill="#B0D3F0"/>
<path d="M54.2844 24.9067C48.8589 24.9067 44.4482 29.3174 44.4482 34.7429C44.4482 36.7121 45.041 38.6311 46.1462 40.2788C47.9848 42.9714 51.019 44.579 54.2844 44.579C57.5396 44.579 60.5839 42.9714 62.4225 40.2688C63.5377 38.621 64.1205 36.7121 64.1205 34.7328C64.1305 29.3174 59.7098 24.9067 54.2844 24.9067ZM45.9252 34.7429C45.9252 30.1312 49.6727 26.3736 54.2944 26.3736C58.9161 26.3736 62.6636 30.1312 62.6636 34.7429C62.6636 36.0691 62.3321 37.3651 61.7393 38.5407C60.5136 37.124 58.9261 36.1093 57.1578 35.5768C57.4693 35.3155 57.7506 35.0141 57.9817 34.6725C58.484 33.929 58.7453 33.065 58.7453 32.1708C58.7453 29.7193 56.7559 27.73 54.3045 27.73C51.853 27.73 49.8636 29.7193 49.8636 32.1708C49.8636 33.065 50.1249 33.929 50.6373 34.6725C50.8683 35.0141 51.1497 35.3155 51.4611 35.5768C49.6928 36.1193 48.1054 37.1341 46.8796 38.5507C46.2567 37.3752 45.9252 36.0791 45.9252 34.7429ZM54.2844 35.1447C54.2643 35.1447 54.2442 35.1447 54.2241 35.1447C53.2596 35.1246 52.3754 34.6524 51.8329 33.8587C51.5013 33.3563 51.3205 32.7837 51.3205 32.1808C51.3205 30.5432 52.6567 29.2069 54.2944 29.2069C55.9321 29.2069 57.2683 30.5432 57.2683 32.1808C57.2683 32.7736 57.0875 33.3564 56.7559 33.8487C56.2134 34.6424 55.3192 35.1246 54.3547 35.1447C54.3346 35.1447 54.3145 35.1447 54.2844 35.1447ZM54.2844 43.1121C51.6922 43.1121 49.2608 41.8964 47.6834 39.8669C49.2407 37.8474 51.6219 36.6518 54.1839 36.6217C54.214 36.6217 54.2442 36.6317 54.2743 36.6317C54.3044 36.6317 54.3346 36.6217 54.3647 36.6217C56.9267 36.6518 59.3079 37.8575 60.8652 39.8669C59.3079 41.9064 56.8866 43.1121 54.2844 43.1121Z" fill="#B0D3F0"/>
<path d="M47.0502 17.8133C48.5975 19.8328 50.9585 20.9983 53.5105 20.9983C56.0625 20.9983 58.4235 19.8328 59.9808 17.8033C60.0813 17.6727 60.1617 17.5521 60.2421 17.4315C61.1664 16.0651 61.6587 14.4877 61.6587 12.8601C61.6587 8.36906 58.0016 4.71191 53.5105 4.71191C49.0195 4.71191 45.3623 8.36906 45.3623 12.8601C45.3623 14.4877 45.8546 16.0752 46.7689 17.4315C46.8593 17.5622 46.9497 17.6827 47.0502 17.8133ZM53.5105 19.5314C51.6116 19.5314 49.8534 18.7477 48.5975 17.3713C49.8634 15.9948 51.6217 15.2111 53.5105 15.2111C55.3994 15.2111 57.1576 15.9948 58.4235 17.3713C57.1576 18.7477 55.4094 19.5314 53.5105 19.5314ZM55.3994 12.7395C54.9774 13.3625 54.264 13.7342 53.5105 13.7342C52.757 13.7342 52.0436 13.3625 51.6216 12.7395C51.3604 12.3578 51.2198 11.9056 51.2198 11.4535C51.2198 10.1976 52.2446 9.17283 53.5005 9.17283C54.7563 9.17283 55.7811 10.1976 55.7811 11.4535C55.7912 11.9157 55.6606 12.3578 55.3994 12.7395ZM53.5105 6.18884C57.1877 6.18884 60.1818 9.18287 60.1818 12.8702C60.1818 14.0256 59.8603 15.1408 59.2876 16.1556C58.3834 15.2413 57.2983 14.5681 56.0926 14.1763C56.2835 13.9954 56.4543 13.7945 56.605 13.5735C57.027 12.9405 57.2581 12.2171 57.2581 11.4636C57.2581 9.39386 55.5702 7.70595 53.5005 7.70595C51.4308 7.70595 49.7428 9.39386 49.7428 11.4636C49.7428 12.2171 49.9639 12.9505 50.3959 13.5735C50.5466 13.7945 50.7174 13.9854 50.9083 14.1662C49.7127 14.5681 48.6176 15.2413 47.7133 16.1556C47.1406 15.1509 46.8191 14.0256 46.8191 12.8702C46.8392 9.18287 49.8333 6.18884 53.5105 6.18884Z" fill="#B0D3F0"/>
<path d="M32.6228 36.5609C32.7132 36.6011 32.8137 36.6212 32.9041 36.6212C33.1955 36.6212 33.4668 36.4504 33.5873 36.1691L35.5766 31.4068C35.6671 31.1757 35.647 30.9245 35.5063 30.7135C35.3657 30.5126 35.1446 30.382 34.8934 30.382H31.9898L33.3763 26.7952C33.527 26.4134 33.3361 25.9914 32.9543 25.8407C32.5726 25.69 32.1506 25.8809 31.9999 26.2627L30.2316 30.8441C30.1412 31.0752 30.1713 31.3264 30.312 31.5273C30.4526 31.7283 30.6737 31.8488 30.9148 31.8488H33.7883L32.2209 35.5864C32.0702 35.9682 32.251 36.4002 32.6228 36.5609Z" fill="#B0D3F0"/>
<path d="M9.35342 15.5025C9.51418 15.6834 9.75531 15.7738 9.99644 15.7437C10.2376 15.7135 10.4486 15.5729 10.5591 15.3518L11.8853 12.8099L14.4774 15.9245C14.6282 16.0953 14.8291 16.1857 15.0401 16.1857C15.2109 16.1857 15.3716 16.1255 15.5123 16.0149C15.8238 15.7537 15.8639 15.2915 15.6128 14.9801L12.3173 11.0115C12.1566 10.8206 11.9154 10.7302 11.6743 10.7503C11.4332 10.7804 11.2121 10.9211 11.1016 11.1421L9.75531 13.7142L7.22344 10.8206C6.95216 10.5192 6.49 10.489 6.18858 10.7503C5.87712 11.0316 5.84698 11.5038 6.10821 11.8052L9.35342 15.5025Z" fill="#B0D3F0"/>
<path d="M51.5314 51.2806L48.7383 52.0743L49.09 48.2463C49.1302 47.8444 48.8288 47.4827 48.4269 47.4426C48.025 47.4024 47.6633 47.7038 47.6231 48.1057L47.171 52.9986C47.1509 53.2397 47.2514 53.4809 47.4322 53.6316C47.6231 53.7823 47.8743 53.8426 48.1054 53.7722L50.8683 52.9886L50.3861 57.0074C50.3358 57.4093 50.6272 57.781 51.0291 57.8212H51.1195C51.4912 57.8212 51.8027 57.5499 51.8529 57.1682L52.4658 52.0441C52.496 51.803 52.3955 51.5518 52.2146 51.4011C52.0237 51.2705 51.7726 51.2203 51.5314 51.2806Z" fill="#B0D3F0"/>
</g>
<defs>
<clipPath id="clip0_2619_546">
<rect width="64" height="64" fill="white"/>
</clipPath>
</defs>
</svg>
