<svg width="64" height="64" viewBox="0 0 64 64" fill="none" xmlns="http://www.w3.org/2000/svg">
<g clip-path="url(#clip0_2619_585)">
<path d="M15.3157 2H52.4998C52.7649 2.0003 53.0191 2.10576 53.2066 2.29323C53.3941 2.4807 53.4995 2.73488 53.4998 3V21.5253C54.1848 21.5736 54.8588 21.7233 55.4998 21.9695V3C55.4989 2.20462 55.1826 1.44206 54.6202 0.879639C54.0578 0.317218 53.2952 0.000868196 52.4998 0L11.4998 0C10.8353 0.000102499 10.1899 0.22217 9.66602 0.63095C10.6507 0.436856 11.6658 0.458746 12.6412 0.695109C13.6166 0.931472 14.5291 1.37668 15.3157 2Z" fill="#B0D3F0"/>
<path d="M46.4693 26C46.7474 25.2725 47.1449 24.5966 47.6456 24H38.354C38.8546 24.5966 39.2522 25.2725 39.5303 26H46.4693Z" fill="#B0D3F0"/>
<path d="M42.9457 47.5H41.0547C41.417 48.1221 41.6802 48.7969 41.8347 49.5H42.1657C42.3203 48.7969 42.5834 48.1221 42.9457 47.5Z" fill="#B0D3F0"/>
<path d="M62 42.5002H61V36.5002C60.9982 35.3352 60.5901 34.2073 59.846 33.3109C59.1019 32.4145 58.0685 31.8056 56.9238 31.5893C57.5059 30.8522 57.8686 29.9662 57.9705 29.0325C58.0724 28.0989 57.9092 27.1554 57.4997 26.3102C57.0902 25.465 56.451 24.7522 55.6552 24.2535C54.8594 23.7548 53.9392 23.4902 53 23.4902C52.0608 23.4902 51.1406 23.7548 50.3448 24.2535C49.549 24.7522 48.9097 25.465 48.5003 26.3102C48.0908 27.1554 47.9276 28.0989 48.0295 29.0325C48.1314 29.9662 48.4941 30.8522 49.0762 31.5893C47.9315 31.8056 46.8981 32.4145 46.154 33.3109C45.4099 34.2073 45.0018 35.3352 45 36.5002V42.5002H41V36.5002C40.9982 35.3352 40.5901 34.2073 39.846 33.3109C39.1019 32.4145 38.0685 31.8056 36.9238 31.5893C37.5059 30.8522 37.8686 29.9662 37.9705 29.0325C38.0724 28.0989 37.9092 27.1554 37.4997 26.3102C37.0902 25.465 36.451 24.7522 35.6552 24.2535C34.8594 23.7548 33.9392 23.4902 33 23.4902C32.0608 23.4902 31.1406 23.7548 30.3448 24.2535C29.549 24.7522 28.9097 25.465 28.5003 26.3102C28.0908 27.1554 27.9276 28.0989 28.0295 29.0325C28.1314 29.9662 28.4941 30.8522 29.0762 31.5893C27.9315 31.8056 26.8981 32.4145 26.154 33.3109C25.4099 34.2073 25.0018 35.3352 25 36.5002V42.5002H21V36.5002C20.9982 35.3352 20.5901 34.2073 19.846 33.3109C19.1019 32.4145 18.0685 31.8056 16.9238 31.5893C17.5059 30.8522 17.8686 29.9662 17.9705 29.0325C18.0724 28.0989 17.9092 27.1554 17.4997 26.3102C17.0902 25.465 16.451 24.7522 15.6552 24.2535C14.8594 23.7548 13.9392 23.4902 13 23.4902C12.0608 23.4902 11.1406 23.7548 10.3448 24.2535C9.549 24.7522 8.90975 25.465 8.50026 26.3102C8.09078 27.1554 7.92763 28.0989 8.02949 29.0325C8.13136 29.9662 8.49412 30.8522 9.07623 31.5893C7.9315 31.8056 6.89808 32.4145 6.15401 33.3109C5.40994 34.2073 5.00183 35.3352 5 36.5002V42.5002H2C1.46974 42.5007 0.961361 42.7116 0.586411 43.0866C0.21146 43.4615 0.000565148 43.9699 0 44.5002L0 47.5002C0.000565148 48.0304 0.21146 48.5388 0.586411 48.9138C0.961361 49.2887 1.46974 49.4996 2 49.5002H2.1655C2.32006 48.797 2.58322 48.1223 2.94553 47.5002H2V44.5002H5.1647C4.91367 43.3665 4.95008 42.1881 5.27061 41.0722C5.59115 39.9562 6.18564 38.9381 7 38.1105V36.5002C7.00087 35.7048 7.31722 34.9422 7.87964 34.3798C8.44206 33.8174 9.20462 33.501 10 33.5002H16C16.7954 33.501 17.5579 33.8174 18.1204 34.3798C18.6828 34.9422 18.9991 35.7048 19 36.5002V42.5002H18.9747C18.9865 42.666 19 42.8314 19 43.0002C18.9995 43.5046 18.9443 44.0076 18.8353 44.5002H25.1647C24.9137 43.3665 24.9501 42.1881 25.2706 41.0722C25.5912 39.9562 26.1856 38.9381 27 38.1105V36.5002C27.0009 35.7048 27.3172 34.9422 27.8796 34.3798C28.4421 33.8174 29.2046 33.501 30 33.5002H36C36.7954 33.501 37.5579 33.8174 38.1204 34.3798C38.6828 34.9422 38.9991 35.7048 39 36.5002V42.5002H38.9747C38.9865 42.666 39 42.8314 39 43.0002C38.9995 43.5046 38.9443 44.0076 38.8353 44.5002H45.1647C44.9137 43.3665 44.9501 42.1881 45.2706 41.0722C45.5912 39.9562 46.1856 38.9381 47 38.1105V36.5002C47.0009 35.7048 47.3172 34.9422 47.8796 34.3798C48.4421 33.8174 49.2046 33.501 50 33.5002H56C56.7954 33.501 57.5579 33.8174 58.1204 34.3798C58.6828 34.9422 58.9991 35.7048 59 36.5002V42.5002H58.9747C58.9865 42.666 59 42.8314 59 43.0002C58.9995 43.5046 58.9443 44.0076 58.8353 44.5002H62L62.0015 47.5002H61.0545C61.4168 48.1223 61.6799 48.797 61.8345 49.5002H62C62.5303 49.4996 63.0386 49.2887 63.4136 48.9138C63.7885 48.5388 63.9994 48.0304 64 47.5002V44.5002C63.9994 43.9699 63.7885 43.4615 63.4136 43.0866C63.0386 42.7116 62.5303 42.5007 62 42.5002ZM13 31.5002C12.4067 31.5002 11.8266 31.3242 11.3333 30.9946C10.8399 30.6649 10.4554 30.1964 10.2284 29.6482C10.0013 29.1 9.94189 28.4968 10.0576 27.9149C10.1734 27.3329 10.4591 26.7984 10.8787 26.3788C11.2982 25.9593 11.8328 25.6736 12.4147 25.5578C12.9967 25.4421 13.5999 25.5015 14.1481 25.7285C14.6962 25.9556 15.1648 26.3401 15.4944 26.8335C15.8241 27.3268 16 27.9068 16 28.5002C15.9991 29.2955 15.6828 30.0581 15.1204 30.6205C14.5579 31.1829 13.7954 31.4993 13 31.5002ZM33 31.5002C32.4067 31.5002 31.8266 31.3242 31.3333 30.9946C30.8399 30.6649 30.4554 30.1964 30.2284 29.6482C30.0013 29.1 29.9419 28.4968 30.0576 27.9149C30.1734 27.3329 30.4591 26.7984 30.8787 26.3788C31.2982 25.9593 31.8328 25.6736 32.4147 25.5578C32.9967 25.4421 33.5999 25.5015 34.148 25.7285C34.6962 25.9556 35.1648 26.3401 35.4944 26.8335C35.8241 27.3268 36 27.9068 36 28.5002C35.9991 29.2955 35.6828 30.0581 35.1204 30.6205C34.5579 31.1829 33.7954 31.4993 33 31.5002ZM53 31.5002C52.4067 31.5002 51.8266 31.3242 51.3333 30.9946C50.8399 30.6649 50.4554 30.1964 50.2284 29.6482C50.0013 29.1 49.9419 28.4968 50.0576 27.9149C50.1734 27.3329 50.4591 26.7984 50.8787 26.3788C51.2982 25.9593 51.8328 25.6736 52.4147 25.5578C52.9967 25.4421 53.5999 25.5015 54.148 25.7285C54.6962 25.9556 55.1648 26.3401 55.4944 26.8335C55.8241 27.3268 56 27.9068 56 28.5002C55.9991 29.2955 55.6828 30.0581 55.1204 30.6205C54.5579 31.1829 53.7954 31.4993 53 31.5002Z" fill="#B0D3F0"/>
<path d="M22.9457 47.5H21.0547C21.417 48.1221 21.6802 48.7969 21.8347 49.5H22.1657C22.3203 48.7969 22.5834 48.1221 22.9457 47.5Z" fill="#B0D3F0"/>
<path d="M62 57.0002H60V51.0002C59.9982 49.8352 59.5901 48.7073 58.846 47.8109C58.1019 46.9145 57.0685 46.3056 55.9238 46.0893C56.5059 45.3523 56.8686 44.4662 56.9705 43.5325C57.0724 42.5989 56.9092 41.6554 56.4997 40.8102C56.0902 39.965 55.451 39.2522 54.6552 38.7535C53.8594 38.2548 52.9392 37.9902 52 37.9902C51.0608 37.9902 50.1406 38.2548 49.3448 38.7535C48.549 39.2522 47.9097 39.965 47.5003 40.8102C47.0908 41.6554 46.9276 42.5989 47.0295 43.5325C47.1314 44.4662 47.4941 45.3523 48.0762 46.0893C46.9315 46.3056 45.8981 46.9145 45.154 47.8109C44.4099 48.7073 44.0018 49.8352 44 51.0002V57.0002H40V51.0002C39.9982 49.8352 39.5901 48.7073 38.846 47.8109C38.1019 46.9145 37.0685 46.3056 35.9238 46.0893C36.5059 45.3523 36.8686 44.4662 36.9705 43.5325C37.0724 42.5989 36.9092 41.6554 36.4997 40.8102C36.0902 39.965 35.451 39.2522 34.6552 38.7535C33.8594 38.2548 32.9392 37.9902 32 37.9902C31.0608 37.9902 30.1406 38.2548 29.3448 38.7535C28.549 39.2522 27.9097 39.965 27.5003 40.8102C27.0908 41.6554 26.9276 42.5989 27.0295 43.5325C27.1314 44.4662 27.4941 45.3523 28.0762 46.0893C26.9315 46.3056 25.8981 46.9145 25.154 47.8109C24.4099 48.7073 24.0018 49.8352 24 51.0002V57.0002H20V51.0002C19.9982 49.8352 19.5901 48.7073 18.846 47.8109C18.1019 46.9145 17.0685 46.3056 15.9238 46.0893C16.5059 45.3523 16.8686 44.4662 16.9705 43.5325C17.0724 42.5989 16.9092 41.6554 16.4997 40.8102C16.0902 39.965 15.451 39.2522 14.6552 38.7535C13.8594 38.2548 12.9392 37.9902 12 37.9902C11.0608 37.9902 10.1406 38.2548 9.34481 38.7535C8.549 39.2522 7.90975 39.965 7.50026 40.8102C7.09078 41.6554 6.92763 42.5989 7.02949 43.5325C7.13136 44.4662 7.49412 45.3523 8.07623 46.0893C6.9315 46.3056 5.89808 46.9145 5.15401 47.8109C4.40994 48.7073 4.00183 49.8352 4 51.0002V57.0002H2C1.46974 57.0007 0.961361 57.2116 0.586411 57.5866C0.21146 57.9615 0.000565148 58.4699 0 59.0002L0 62.0002C0.000565148 62.5304 0.21146 63.0388 0.586411 63.4138C0.961361 63.7887 1.46974 63.9996 2 64.0002H62C62.5303 63.9996 63.0386 63.7887 63.4136 63.4138C63.7885 63.0388 63.9994 62.5304 64 62.0002V59.0002C63.9994 58.4699 63.7885 57.9615 63.4136 57.5866C63.0386 57.2116 62.5303 57.0007 62 57.0002ZM52 40.0002C52.5933 40.0002 53.1734 40.1761 53.6667 40.5058C54.1601 40.8354 54.5446 41.3039 54.7716 41.8521C54.9987 42.4003 55.0581 43.0035 54.9424 43.5854C54.8266 44.1674 54.5409 44.7019 54.1213 45.1215C53.7018 45.541 53.1672 45.8268 52.5853 45.9425C52.0033 46.0583 51.4001 45.9989 50.852 45.7718C50.3038 45.5447 49.8352 45.1602 49.5056 44.6669C49.1759 44.1735 49 43.5935 49 43.0002C49.0009 42.2048 49.3172 41.4422 49.8796 40.8798C50.4421 40.3174 51.2046 40.001 52 40.0002ZM46 51.0002C46.0009 50.2048 46.3172 49.4422 46.8796 48.8798C47.4421 48.3174 48.2046 48.001 49 48.0002H55C55.7954 48.001 56.5579 48.3174 57.1204 48.8798C57.6828 49.4422 57.9991 50.2048 58 51.0002V57.0002H46V51.0002ZM32 40.0002C32.5933 40.0002 33.1734 40.1761 33.6667 40.5058C34.1601 40.8354 34.5446 41.3039 34.7716 41.8521C34.9987 42.4003 35.0581 43.0035 34.9424 43.5854C34.8266 44.1674 34.5409 44.7019 34.1213 45.1215C33.7018 45.541 33.1672 45.8268 32.5853 45.9425C32.0033 46.0583 31.4001 45.9989 30.8519 45.7718C30.3038 45.5447 29.8352 45.1602 29.5056 44.6669C29.1759 44.1735 29 43.5935 29 43.0002C29.0009 42.2048 29.3172 41.4422 29.8796 40.8798C30.4421 40.3174 31.2046 40.001 32 40.0002ZM26 51.0002C26.0009 50.2048 26.3172 49.4422 26.8796 48.8798C27.4421 48.3174 28.2046 48.001 29 48.0002H35C35.7954 48.001 36.5579 48.3174 37.1204 48.8798C37.6828 49.4422 37.9991 50.2048 38 51.0002V57.0002H26V51.0002ZM12 40.0002C12.5933 40.0002 13.1734 40.1761 13.6667 40.5058C14.1601 40.8354 14.5446 41.3039 14.7716 41.8521C14.9987 42.4003 15.0581 43.0035 14.9424 43.5854C14.8266 44.1674 14.5409 44.7019 14.1213 45.1215C13.7018 45.541 13.1672 45.8268 12.5853 45.9425C12.0033 46.0583 11.4001 45.9989 10.8519 45.7718C10.3038 45.5447 9.83524 45.1602 9.50559 44.6669C9.17595 44.1735 9 43.5935 9 43.0002C9.00087 42.2048 9.31722 41.4422 9.87964 40.8798C10.4421 40.3174 11.2046 40.001 12 40.0002ZM6 51.0002C6.00087 50.2048 6.31722 49.4422 6.87964 48.8798C7.44206 48.3174 8.20462 48.001 9 48.0002H15C15.7954 48.001 16.5579 48.3174 17.1204 48.8798C17.6828 49.4422 17.9991 50.2048 18 51.0002V57.0002H6V51.0002ZM2 62.0002V59.0002H62L62.0015 62.0002H2Z" fill="#B0D3F0"/>
<path d="M26.5 10H38.5C38.7652 10 39.0196 9.89464 39.2071 9.70711C39.3946 9.51957 39.5 9.26522 39.5 9C39.5 8.73478 39.3946 8.48043 39.2071 8.29289C39.0196 8.10536 38.7652 8 38.5 8H26.5C26.2348 8 25.9804 8.10536 25.7929 8.29289C25.6054 8.48043 25.5 8.73478 25.5 9C25.5 9.26522 25.6054 9.51957 25.7929 9.70711C25.9804 9.89464 26.2348 10 26.5 10Z" fill="#B0D3F0"/>
<path d="M48.5 12H26.5C26.2348 12 25.9804 12.1054 25.7929 12.2929C25.6054 12.4804 25.5 12.7348 25.5 13C25.5 13.2652 25.6054 13.5196 25.7929 13.7071C25.9804 13.8946 26.2348 14 26.5 14H48.5C48.7652 14 49.0196 13.8946 49.2071 13.7071C49.3946 13.5196 49.5 13.2652 49.5 13C49.5 12.7348 49.3946 12.4804 49.2071 12.2929C49.0196 12.1054 48.7652 12 48.5 12Z" fill="#B0D3F0"/>
<path d="M49.5 17C49.5 16.7348 49.3946 16.4804 49.2071 16.2929C49.0196 16.1054 48.7652 16 48.5 16H26.5C26.2348 16 25.9804 16.1054 25.7929 16.2929C25.6054 16.4804 25.5 16.7348 25.5 17C25.5 17.2652 25.6054 17.5196 25.7929 17.7071C25.9804 17.8946 26.2348 18 26.5 18H48.5C48.7652 18 49.0196 17.8946 49.2071 17.7071C49.3946 17.5196 49.5 17.2652 49.5 17Z" fill="#B0D3F0"/>
<path d="M19.5303 26H26.4693C26.7474 25.2725 27.1449 24.5966 27.6456 24H18.354C18.8546 24.5966 19.2522 25.2725 19.5303 26Z" fill="#B0D3F0"/>
<path d="M6 30.7638V15.5001C6.00087 14.7048 6.31722 13.9422 6.87964 13.3798C7.44206 12.8174 8.20462 12.501 9 12.5001H12C12.5366 12.5008 13.0631 12.6458 13.5245 12.9197C13.9858 13.1937 14.3651 13.5866 14.6226 14.0574L10.6113 16.2697C10.3791 16.3977 10.2072 16.6128 10.1335 16.8676C10.0599 17.1224 10.0904 17.3961 10.2185 17.6283C10.3466 17.8606 10.5617 18.0324 10.8165 18.1061C11.0713 18.1798 11.3449 18.1492 11.5772 18.0211L19.5508 13.6232C19.7761 13.4982 20.0415 13.4665 20.2899 13.535C20.5383 13.6034 20.75 13.7666 20.8794 13.9894C20.9399 14.0959 20.9787 14.2133 20.9937 14.3349C21.0086 14.4564 20.9993 14.5798 20.9663 14.6977C20.9334 14.8157 20.8774 14.926 20.8017 15.0222C20.7259 15.1184 20.6318 15.1987 20.5249 15.2584L9.4995 21.6344C9.31262 21.7431 9.16611 21.9096 9.08205 22.1088C8.99799 22.3079 8.98093 22.529 9.03343 22.7388C10.1986 21.9314 11.5825 21.4993 13 21.5001C13.2256 21.5001 13.448 21.513 13.6682 21.534L15 20.7638V21.7949C15.7142 22.0088 16.3894 22.3359 17 22.7638V19.6072L21.5259 16.9899C22.1948 16.602 22.6844 15.9667 22.8891 15.221C23.0937 14.4753 22.9969 13.679 22.6196 13.004C22.2295 12.3244 21.5882 11.8251 20.8337 11.6134C20.0792 11.4017 19.2717 11.4945 18.585 11.872L16.3756 13.0905C15.921 12.2686 15.2455 11.5904 14.4255 11.1325C15.1422 10.459 15.6444 9.58913 15.8693 8.6317C16.0942 7.67427 16.0318 6.67178 15.6898 5.74964C15.3479 4.8275 14.7417 4.02664 13.947 3.44725C13.1523 2.86786 12.2044 2.53565 11.2219 2.49219C10.2394 2.44873 9.26582 2.69594 8.42306 3.2029C7.58031 3.70986 6.90574 4.45406 6.48374 5.34241C6.06175 6.23076 5.91106 7.22382 6.05052 8.19737C6.18999 9.17092 6.61342 10.0817 7.26785 10.8159C6.31033 11.1701 5.48406 11.8086 4.89993 12.646C4.31581 13.4833 4.00178 14.4792 4 15.5001V32.5001C4.00126 32.609 4.02049 32.717 4.05691 32.8196C4.55899 32.01 5.22001 31.3107 6 30.7638ZM11 4.50014C11.5933 4.50014 12.1734 4.67608 12.6667 5.00573C13.1601 5.33537 13.5446 5.80391 13.7716 6.35209C13.9987 6.90027 14.0581 7.50347 13.9424 8.08541C13.8266 8.66735 13.5409 9.2019 13.1213 9.62146C12.7018 10.041 12.1672 10.3267 11.5853 10.4425C11.0033 10.5582 10.4001 10.4988 9.85195 10.2718C9.30377 10.0447 8.83524 9.6602 8.50559 9.16685C8.17595 8.6735 8 8.09348 8 7.50014C8.00087 6.70475 8.31722 5.9422 8.87964 5.37978C9.44206 4.81736 10.2046 4.50101 11 4.50014Z" fill="#B0D3F0"/>
</g>
<defs>
<clipPath id="clip0_2619_585">
<rect width="64" height="64" fill="white"/>
</clipPath>
</defs>
</svg>
