<svg width="64" height="64" viewBox="0 0 64 64" fill="none" xmlns="http://www.w3.org/2000/svg">
<g clip-path="url(#clip0_2619_492)">
<path d="M49.0667 45.8666C50.2449 45.8666 51.2001 44.9114 51.2001 43.7332V40.9748C51.2003 40.1845 50.7636 39.4588 50.0651 39.089L32.9985 30.0532C32.374 29.7225 31.6262 29.7225 31.0017 30.0532L13.935 39.089C13.2366 39.4588 12.7999 40.1845 12.8001 40.9748V43.7332C12.8001 44.9114 13.7552 45.8666 14.9334 45.8666H16.0001V56.5332C13.6437 56.5332 11.7334 58.4435 11.7334 60.7999V61.8666C11.7334 63.0448 12.6885 63.9999 13.8667 63.9999H50.1334C51.3116 63.9999 52.2667 63.0448 52.2667 61.8666V60.7999C52.2667 58.4435 50.3565 56.5332 48.0001 56.5332V45.8666H49.0667ZM14.9334 40.9748L32.0001 31.9391L49.0667 40.9748V43.7332H14.9334V40.9748ZM36.2667 56.5332V45.8666H39.4667V56.5332H36.2667ZM24.5334 56.5332V45.8666H27.7334V56.5332H24.5334ZM29.8667 45.8666H34.1334V56.5332H29.8667V45.8666ZM18.1334 45.8666H22.4001V56.5332H18.1334V45.8666ZM50.1334 60.7999V61.8666H13.8667V60.7999C13.8667 59.6217 14.8219 58.6666 16.0001 58.6666H48.0001C49.1783 58.6666 50.1334 59.6217 50.1334 60.7999ZM45.8667 56.5332H41.6001V45.8666H45.8667V56.5332Z" fill="#B0D3F0"/>
<path d="M28.8001 40.5332H35.2001C35.7892 40.5332 36.2667 40.0557 36.2667 39.4666C36.2667 38.8775 35.7892 38.3999 35.2001 38.3999H28.8001C28.211 38.3999 27.7334 38.8775 27.7334 39.4666C27.7334 40.0557 28.211 40.5332 28.8001 40.5332Z" fill="#B0D3F0"/>
<path d="M8.53333 28.8001C13.2462 28.8001 17.0667 24.9796 17.0667 20.2667C17.0667 15.5539 13.2462 11.7334 8.53333 11.7334C3.8205 11.7334 0 15.5539 0 20.2667C0.00529054 24.9774 3.8227 28.7948 8.53333 28.8001ZM8.53333 13.8667C12.068 13.8667 14.9333 16.7321 14.9333 20.2667C14.9333 23.8014 12.068 26.6667 8.53333 26.6667C4.99871 26.6667 2.13333 23.8014 2.13333 20.2667C2.13686 16.7336 5.00017 13.8703 8.53333 13.8667Z" fill="#B0D3F0"/>
<path d="M24.4192 28.8002C24.475 28.8087 24.5313 28.813 24.5878 28.813C25.112 28.8127 25.5583 28.4315 25.6406 27.9138C25.8454 26.353 25.4497 24.7726 24.5334 23.4925C23.4438 22.1966 21.8524 21.4281 20.16 21.3805C19.5821 21.3447 19.0812 21.7765 19.0314 22.3534C18.9815 22.9302 19.4011 23.4415 19.9766 23.5053C21.0713 23.5153 22.112 23.9824 22.847 24.7938C23.4075 25.6068 23.6528 26.5961 23.5371 27.5768C23.4429 28.1582 23.8378 28.7059 24.4192 28.8002Z" fill="#B0D3F0"/>
<path d="M19.7963 18.1429C23.056 18.2443 25.4773 19.1744 26.9941 20.9077C28.2742 22.4993 28.913 24.5119 28.7851 26.5504C28.7228 27.1348 29.1449 27.6595 29.7291 27.7237C29.768 27.728 29.8072 27.7301 29.8464 27.7301C30.3901 27.7296 30.8464 27.3202 30.9056 26.7797C31.103 24.1582 30.2846 21.5611 28.6197 19.5264C26.6997 17.3152 23.7515 16.1323 19.8624 16.0117C19.5778 15.9966 19.2994 16.0984 19.0917 16.2936C18.8841 16.4888 18.7652 16.7603 18.7627 17.0453C18.7453 17.6337 19.2079 18.1249 19.7963 18.1429Z" fill="#B0D3F0"/>
<path d="M44.0276 23.5053C44.6031 23.4415 45.0226 22.9302 44.9728 22.3534C44.923 21.7765 44.4221 21.3447 43.8441 21.3805C42.1518 21.4281 40.5604 22.1966 39.4708 23.4925C38.555 24.772 38.1593 26.3515 38.3636 27.9117C38.4473 28.4277 38.8926 28.8071 39.4153 28.8077C39.4681 28.8086 39.5208 28.8061 39.5732 28.8002C40.1546 28.711 40.554 28.1679 40.466 27.5864C40.3498 26.604 40.5951 25.6128 41.1561 24.7981C41.8906 23.9849 42.9319 23.5161 44.0276 23.5053Z" fill="#B0D3F0"/>
<path d="M35.3802 19.5251C33.7154 21.5598 32.897 24.1569 33.0944 26.7785C33.1541 27.3181 33.6096 27.7268 34.1525 27.7278C34.1906 27.7278 34.2287 27.7257 34.2666 27.7214C34.5482 27.6918 34.8064 27.5516 34.9845 27.3315C35.1625 27.1114 35.2458 26.8296 35.216 26.5481C35.0875 24.51 35.7259 22.4977 37.0058 20.9065C38.5226 19.1731 40.944 18.2398 44.2037 18.1417C44.7928 18.1234 45.2556 17.631 45.2373 17.0419C45.219 16.4528 44.7267 15.9901 44.1376 16.0083C40.2485 16.131 37.3024 17.3139 35.3802 19.5251Z" fill="#B0D3F0"/>
<path d="M5.33356 20.2667C5.61643 20.2667 5.8877 20.1543 6.08769 19.9542L8.22103 17.8209C8.62526 17.4023 8.61948 16.7371 8.20803 16.3256C7.79658 15.9142 7.1313 15.9084 6.71276 16.3126L4.57943 18.4459C4.27446 18.751 4.18324 19.2097 4.3483 19.6082C4.51336 20.0068 4.9022 20.2667 5.33356 20.2667Z" fill="#B0D3F0"/>
<path d="M5.6458 24.2206C6.06233 24.637 6.73753 24.637 7.15407 24.2206L12.4874 18.8873C12.8916 18.4687 12.8859 17.8035 12.4744 17.392C12.063 16.9806 11.3977 16.9748 10.9791 17.379L5.6458 22.7123C5.22939 23.1289 5.22939 23.8041 5.6458 24.2206Z" fill="#B0D3F0"/>
<path d="M55.4664 11.7334C50.7536 11.7334 46.9331 15.5539 46.9331 20.2667C46.9331 24.9796 50.7536 28.8001 55.4664 28.8001C60.1793 28.8001 63.9998 24.9796 63.9998 20.2667C63.9945 15.5561 60.1771 11.7387 55.4664 11.7334ZM55.4664 26.6667C51.9318 26.6667 49.0664 23.8014 49.0664 20.2667C49.0664 16.7321 51.9318 13.8667 55.4664 13.8667C59.0011 13.8667 61.8664 16.7321 61.8664 20.2667C61.8629 23.7999 58.9996 26.6632 55.4664 26.6667Z" fill="#B0D3F0"/>
<path d="M53.0209 19.9542L55.1543 17.8209C55.5585 17.4023 55.5527 16.7371 55.1413 16.3256C54.7298 15.9142 54.0646 15.9084 53.646 16.3126L51.5127 18.4459C51.2354 18.7138 51.1242 19.1103 51.2218 19.4833C51.3194 19.8562 51.6107 20.1475 51.9836 20.2451C52.3565 20.3427 52.7531 20.2315 53.0209 19.9542Z" fill="#B0D3F0"/>
<path d="M57.9124 17.379L52.5791 22.7123C52.3018 22.9802 52.1906 23.3768 52.2882 23.7497C52.3858 24.1226 52.6771 24.4139 53.05 24.5115C53.423 24.6091 53.8195 24.4979 54.0874 24.2206L59.4207 18.8873C59.8249 18.4687 59.8191 17.8035 59.4077 17.392C58.9962 16.9806 58.331 16.9748 57.9124 17.379Z" fill="#B0D3F0"/>
<path d="M32.0001 17.0667C36.713 17.0667 40.5335 13.2462 40.5335 8.53333C40.5335 3.8205 36.713 0 32.0001 0C27.2873 0 23.4668 3.8205 23.4668 8.53333C23.4721 13.244 27.2895 17.0614 32.0001 17.0667ZM32.0001 2.13333C35.5348 2.13333 38.4001 4.99871 38.4001 8.53333C38.4001 12.068 35.5348 14.9333 32.0001 14.9333C28.4655 14.9333 25.6001 12.068 25.6001 8.53333C25.6037 5.00017 28.467 2.13686 32.0001 2.13333Z" fill="#B0D3F0"/>
<path d="M28.7999 8.53322C29.0827 8.53316 29.354 8.42074 29.554 8.22069L31.6873 6.08735C31.9646 5.81954 32.0758 5.42295 31.9782 5.05001C31.8806 4.67707 31.5893 4.38582 31.2164 4.28821C30.8435 4.19059 30.4469 4.3018 30.1791 4.57909L28.0457 6.71242C27.7408 7.01748 27.6496 7.47619 27.8146 7.87472C27.9797 8.27324 28.3685 8.53313 28.7999 8.53322Z" fill="#B0D3F0"/>
<path d="M29.1126 12.4876C29.5291 12.904 30.2043 12.904 30.6209 12.4876L35.9542 7.15425C36.2315 6.88643 36.3427 6.48984 36.2451 6.11691C36.1475 5.74397 35.8562 5.45272 35.4833 5.3551C35.1103 5.25749 34.7137 5.36869 34.4459 5.64598L29.1126 10.9793C28.6962 11.3958 28.6962 12.071 29.1126 12.4876Z" fill="#B0D3F0"/>
</g>
<defs>
<clipPath id="clip0_2619_492">
<rect width="64" height="64" fill="white"/>
</clipPath>
</defs>
</svg>
