<svg width="64" height="64" viewBox="0 0 64 64" fill="none" xmlns="http://www.w3.org/2000/svg">
<path d="M55.6573 11.563V6.495C55.6573 4.56775 54.0969 3 52.1781 3H12.0885C10.1698 3 8.60938 4.56775 8.60938 6.495V11.5593H8.41563C3.775 11.5593 0 15.3526 0 20.015V43.3241C0 47.9923 3.775 51.7903 8.41563 51.7903H26.2094V55.0388H26.1719C22.6 55.0388 20.3812 56.8572 20.3812 59.785C20.3812 61.5578 21.8167 63 23.5812 63H40.1146C41.8792 63 43.3146 61.5578 43.3146 59.785C43.3146 56.9775 41.2599 55.2085 37.9427 55.0663V51.7902H55.5844C60.225 51.7902 64 47.9923 64 43.3241V20.015C64 15.3773 60.2641 11.603 55.6573 11.563ZM55.6573 13.7064C57.9076 13.7326 59.8725 14.9545 60.9613 16.7675H55.6573V13.7064ZM10.7427 6.49499C10.7427 5.74984 11.3469 5.14335 12.0885 5.14335H52.1781C52.9198 5.14335 53.524 5.74984 53.524 6.49499V34.9715C53.524 35.7166 52.9198 36.3226 52.1781 36.3226H12.0885C11.3469 36.3226 10.7427 35.7166 10.7427 34.9715V6.49499ZM8.41563 13.7027H8.60938V16.7571H3.04506C4.14714 14.9301 6.13906 13.7027 8.41563 13.7027ZM41.1813 59.7849C41.1813 60.3757 40.7031 60.8566 40.1146 60.8566H23.5812C22.9927 60.8566 22.5146 60.3757 22.5146 59.7849C22.5146 57.6337 24.5031 57.1821 26.1719 57.1821H37.524C39.1927 57.1821 41.1813 57.6337 41.1813 59.7849ZM28.3427 55.0388V51.7902H35.8094V55.0388H28.3427ZM55.5844 49.6469H36.8993C36.8911 49.6467 36.8843 49.6422 36.876 49.6422H27.276C27.2678 49.6422 27.261 49.6467 27.2528 49.6469H8.41563C4.97877 49.6469 2.18021 46.8533 2.1373 43.4036H61.8627C61.8198 46.8533 59.0212 49.6469 55.5844 49.6469ZM61.8667 20.015V41.2603H2.13333V20.015C2.13333 19.6341 2.17279 19.2629 2.23744 18.9004H8.60938V34.9715C8.60938 36.8982 10.1698 38.4659 12.0885 38.4659H52.1781C54.0969 38.4659 55.6573 36.8982 55.6573 34.9715V18.9109H61.7642C61.8277 19.2701 61.8667 19.6377 61.8667 20.015ZM28.3812 46.2932C28.3812 45.7013 28.8583 45.2215 29.4479 45.2215H34.5333C35.1229 45.2215 35.6 45.7013 35.6 46.2932C35.6 46.885 35.1229 47.3649 34.5333 47.3649H29.4479C28.8583 47.3649 28.3812 46.885 28.3812 46.2932ZM18.0073 14.9094H20.675C22.1135 14.9094 23.2844 13.733 23.2844 12.2872V9.45886C23.2844 8.01303 22.1135 6.83722 20.675 6.83722H18.0073C16.5687 6.83722 15.3979 8.01303 15.3979 9.45886V12.2872C15.3979 13.733 16.5687 14.9094 18.0073 14.9094ZM17.5312 9.45886C17.5312 9.19513 17.7448 8.98058 18.0073 8.98058H20.675C20.9375 8.98058 21.151 9.19513 21.151 9.45886V12.2872C21.151 12.5515 20.9375 12.766 20.675 12.766H18.0073C17.7448 12.766 17.5312 12.5515 17.5312 12.2872V9.45886ZM24.1781 13.8377C24.1781 13.2458 24.6552 12.766 25.2448 12.766H47.8021C48.3917 12.766 48.8687 13.2458 48.8687 13.8377C48.8687 14.4295 48.3917 14.9094 47.8021 14.9094H25.2448C24.6552 14.9094 24.1781 14.4295 24.1781 13.8377ZM18.0073 23.9585H20.675C22.1135 23.9585 23.2844 22.7821 23.2844 21.3363V18.508C23.2844 17.0621 22.1135 15.8863 20.675 15.8863H18.0073C16.5687 15.8863 15.3979 17.0621 15.3979 18.508V21.3363C15.3979 22.7821 16.5687 23.9585 18.0073 23.9585ZM17.5312 18.508C17.5312 18.2442 17.7448 18.0297 18.0073 18.0297H20.675C20.9375 18.0297 21.151 18.2442 21.151 18.508V21.3363C21.151 21.6006 20.9375 21.8151 20.675 21.8151H18.0073C17.7448 21.8151 17.5312 21.6006 17.5312 21.3363V18.508ZM24.1781 22.8868C24.1781 22.295 24.6552 21.8151 25.2448 21.8151H47.8021C48.3917 21.8151 48.8687 22.295 48.8687 22.8868C48.8687 23.4786 48.3917 23.9585 47.8021 23.9585H25.2448C24.6552 23.9585 24.1781 23.4786 24.1781 22.8868ZM18.0073 33.0071H20.675C22.1135 33.0071 23.2844 31.8312 23.2844 30.3854V27.5571C23.2844 26.1113 22.1135 24.9354 20.675 24.9354H18.0073C16.5687 24.9354 15.3979 26.1113 15.3979 27.5571V30.3854C15.3979 31.8312 16.5687 33.0071 18.0073 33.0071ZM17.5312 27.5571C17.5312 27.2934 17.7448 27.0788 18.0073 27.0788H20.675C20.9375 27.0788 21.151 27.2934 21.151 27.5571V30.3854C21.151 30.6492 20.9375 30.8637 20.675 30.8637H18.0073C17.7448 30.8637 17.5312 30.6492 17.5312 30.3854V27.5571ZM24.1781 31.9354C24.1781 31.3435 24.6552 30.8637 25.2448 30.8637H47.8021C48.3917 30.8637 48.8687 31.3435 48.8687 31.9354C48.8687 32.5272 48.3917 33.0071 47.8021 33.0071H25.2448C24.6552 33.0071 24.1781 32.5272 24.1781 31.9354Z" fill="#B0D3F0"/>
</svg>
