<svg width="64" height="64" viewBox="0 0 64 64" fill="none" xmlns="http://www.w3.org/2000/svg">
<g clip-path="url(#clip0_2619_419)">
<path d="M61.2849 0.000488281H2.71562C1.16412 0.000488281 0.000488281 1.16412 0.000488281 2.71562V61.2849C0.000488281 62.8364 1.16412 64 2.71562 64H61.2849C62.7394 64 64 62.8364 64 61.2849V2.71562C64 1.16412 62.8364 0.000488281 61.2849 0.000488281ZM2.71562 1.93987H61.2849C61.6728 1.93987 62.0606 2.32774 62.0606 2.71562V13.3822H1.93987V2.71562C1.93987 2.32774 2.32774 1.93987 2.71562 1.93987ZM61.2849 62.0606H2.71562C2.32774 62.0606 1.93987 61.6728 1.93987 61.2849V15.3216H62.0606V61.2849C62.0606 61.6728 61.6728 62.0606 61.2849 62.0606Z" fill="#B0D3F0"/>
<path d="M8.14594 11.7338C10.3762 11.7338 12.2186 9.89136 12.2186 7.66108C12.2186 5.43079 10.3762 3.58838 8.14594 3.58838C5.91565 3.58838 4.07324 5.33382 4.07324 7.56411C4.07324 9.89136 5.91565 11.7338 8.14594 11.7338ZM8.14594 5.43079C9.30957 5.43079 10.2793 6.40048 10.2793 7.56411C10.2793 8.72774 9.30957 9.69743 8.14594 9.69743C6.98231 9.69743 6.01262 8.72774 6.01262 7.56411C6.01262 6.40048 6.98231 5.43079 8.14594 5.43079Z" fill="#B0D3F0"/>
<path d="M17.9399 11.7338C20.1702 11.7338 22.0126 9.89136 22.0126 7.66108C22.0126 5.43079 20.1702 3.58838 17.9399 3.58838C15.7096 3.58838 13.8672 5.43079 13.8672 7.66108C13.8672 9.89136 15.7096 11.7338 17.9399 11.7338ZM17.9399 5.43079C19.1035 5.43079 20.0732 6.40048 20.0732 7.56411C20.0732 8.72774 19.1035 9.69743 17.9399 9.69743C16.7763 9.69743 15.8066 8.72774 15.8066 7.56411C15.8066 6.40048 16.7763 5.43079 17.9399 5.43079Z" fill="#B0D3F0"/>
<path d="M27.8305 11.7338C30.0608 11.7338 31.9032 9.89136 31.9032 7.66108C31.9032 5.43079 30.0608 3.58838 27.8305 3.58838C25.6002 3.58838 23.7578 5.43079 23.7578 7.66108C23.7578 9.89136 25.5033 11.7338 27.8305 11.7338ZM27.8305 5.43079C28.9941 5.43079 29.9638 6.40048 29.9638 7.56411C29.9638 8.72774 28.9941 9.69743 27.8305 9.69743C26.6669 9.69743 25.6972 8.72774 25.6972 7.56411C25.6972 6.40048 26.5699 5.43079 27.8305 5.43079Z" fill="#B0D3F0"/>
<path d="M35.2002 11.346H58.6667C59.2485 11.346 59.6363 10.9581 59.6363 10.3763V4.84908C59.6363 4.26727 59.2485 3.87939 58.6667 3.87939H35.2002C34.6183 3.87939 34.2305 4.26727 34.2305 4.84908V10.2793C34.2305 10.8612 34.6183 11.346 35.2002 11.346ZM36.1698 5.81877H57.697V9.30966H36.1698V5.81877Z" fill="#B0D3F0"/>
<path d="M42.6669 17.4551C33.3578 17.4551 25.6973 24.3399 25.6973 32.7762C25.6973 36.0731 26.9579 39.3701 29.1882 41.9882L25.7943 48.97C25.6003 49.3579 25.6973 49.7458 25.9882 50.0367C26.2791 50.3276 26.667 50.4245 27.0549 50.2306L35.6851 46.6427C37.9154 47.5155 40.2426 48.0003 42.6669 48.0003C51.9759 48.0003 59.6364 41.1155 59.6364 32.6792C59.6364 24.2429 51.9759 17.4551 42.6669 17.4551ZM42.6669 46.0609C40.4366 46.0609 38.2063 45.5761 36.073 44.7034C35.879 44.6064 35.5881 44.6064 35.2972 44.7034L28.6064 47.5155L31.1276 42.2791C31.3215 41.8913 31.2245 41.5034 30.9336 41.2125C28.8003 38.8852 27.5397 35.8792 27.5397 32.7762C27.6367 25.4065 34.3275 19.3945 42.6669 19.3945C51.0062 19.3945 57.6971 25.4065 57.6971 32.7762C57.6971 40.1458 50.9092 46.0609 42.6669 46.0609Z" fill="#B0D3F0"/>
<path d="M51.4908 28.0243H36.2666L35.5879 25.4061C35.4909 25.0182 35.103 24.6304 34.6182 24.6304H32.9697C32.3879 24.6304 32 25.0182 32 25.6001C32 26.1819 32.3879 26.5698 32.9697 26.5698H33.9394L36.3636 36.1697C36.4606 36.5576 36.8484 36.9454 37.3333 36.9454H49.6484C50.1332 36.9454 50.5211 36.6545 50.618 36.2667L52.4605 29.2849C52.5574 28.6061 52.0726 28.0243 51.4908 28.0243ZM48.9696 35.0061H38.109L36.8484 29.9637H50.3271L48.9696 35.0061Z" fill="#B0D3F0"/>
<path d="M47.7088 37.6245C46.1573 37.6245 44.9937 38.8851 44.9937 40.3396C44.9937 41.7942 46.2542 43.0548 47.7088 43.0548C49.2603 43.0548 50.4239 41.7942 50.4239 40.3396C50.4239 38.8851 49.2603 37.6245 47.7088 37.6245ZM47.7088 41.2124C47.2239 41.2124 46.933 40.8245 46.933 40.4366C46.933 40.0487 47.3209 39.6609 47.7088 39.6609C48.0967 39.6609 48.4845 40.0487 48.4845 40.4366C48.4845 40.8245 48.1936 41.2124 47.7088 41.2124Z" fill="#B0D3F0"/>
<path d="M39.4666 37.6245C37.9151 37.6245 36.7515 38.8851 36.7515 40.3396C36.7515 41.7942 38.0121 43.0548 39.4666 43.0548C40.9211 43.0548 42.1817 41.7942 42.1817 40.3396C42.1817 38.8851 41.0181 37.6245 39.4666 37.6245ZM39.4666 41.2124C38.9818 41.2124 38.6908 40.8245 38.6908 40.4366C38.6908 40.0487 39.0787 39.6609 39.4666 39.6609C39.8545 39.6609 40.2423 40.0487 40.2423 40.4366C40.2423 40.8245 39.9514 41.2124 39.4666 41.2124Z" fill="#B0D3F0"/>
<path d="M22.4971 42.2788H6.10934C5.52752 42.2788 5.13965 42.6667 5.13965 43.2485V58.2787C5.13965 58.8605 5.52752 59.2484 6.10934 59.2484H22.4001C22.9819 59.2484 23.3698 58.8605 23.3698 58.2787V43.2485C23.4668 42.6667 22.9819 42.2788 22.4971 42.2788ZM21.5274 57.309H7.07903V44.2182H21.4304V57.309H21.5274Z" fill="#B0D3F0"/>
<path d="M22.9819 19.8789H5.62448C5.04266 19.8789 4.65479 20.2668 4.65479 20.8486C4.65479 21.4304 5.04266 21.8183 5.62448 21.8183H22.9819C23.5637 21.8183 23.9516 21.4304 23.9516 20.8486C23.9516 20.2668 23.4668 19.8789 22.9819 19.8789Z" fill="#B0D3F0"/>
<path d="M22.9819 25.1152H5.62448C5.04266 25.1152 4.65479 25.5031 4.65479 26.0849C4.65479 26.6667 5.04266 27.0546 5.62448 27.0546H22.9819C23.5637 27.0546 23.9516 26.6667 23.9516 26.0849C23.9516 25.5031 23.4668 25.1152 22.9819 25.1152Z" fill="#B0D3F0"/>
<path d="M22.9819 30.3521H5.62448C5.04266 30.3521 4.65479 30.7399 4.65479 31.3217C4.65479 31.9036 5.04266 32.2914 5.62448 32.2914H22.9819C23.5637 32.2914 23.9516 31.9036 23.9516 31.3217C23.9516 30.8369 23.4668 30.3521 22.9819 30.3521Z" fill="#B0D3F0"/>
<path d="M22.9819 35.5879H5.62448C5.04266 35.5879 4.65479 35.9758 4.65479 36.5576C4.65479 37.1394 5.04266 37.5273 5.62448 37.5273H22.9819C23.5637 37.5273 23.9516 37.1394 23.9516 36.5576C23.9516 35.9758 23.4668 35.5879 22.9819 35.5879Z" fill="#B0D3F0"/>
</g>
<defs>
<clipPath id="clip0_2619_419">
<rect width="64" height="64" fill="white"/>
</clipPath>
</defs>
</svg>
