<svg width="64" height="64" viewBox="0 0 64 64" fill="none" xmlns="http://www.w3.org/2000/svg">
<path d="M60.0984 3.31348H48.0382C47.5205 3.31348 47.1007 3.73323 47.1007 4.25098C47.1007 4.76873 47.5205 5.18848 48.0382 5.18848H60.0984C61.2159 5.18848 62.125 6.0976 62.125 7.2151V42.8369H1.875V7.2151C1.875 6.0976 2.78412 5.18848 3.90162 5.18848H43.6631C44.1809 5.18848 44.6006 4.76873 44.6006 4.25098C44.6006 3.73323 44.1809 3.31348 43.6631 3.31348H3.90162C1.75025 3.31348 0 5.06373 0 7.2151V45.8102C0 47.9616 1.75025 49.7119 3.90162 49.7119H12.8767C13.3945 49.7119 13.8142 49.2921 13.8142 48.7744C13.8142 48.2566 13.3945 47.8369 12.8767 47.8369H3.90162C2.78412 47.8369 1.875 46.9277 1.875 45.8102V44.7119H62.125V45.8102C62.125 46.9277 61.2159 47.8369 60.0984 47.8369H17.2105C16.6928 47.8369 16.273 48.2566 16.273 48.7744C16.273 49.2921 16.6928 49.7119 17.2105 49.7119H23.111L22.1854 55.0612H20.4746C18.9237 55.0612 17.6621 56.3229 17.6621 57.8737C17.6621 59.4246 18.9237 60.6862 20.4746 60.6862H43.5254C45.0763 60.6862 46.3379 59.4246 46.3379 57.8737C46.3379 56.3229 45.0763 55.0612 43.5254 55.0612H41.8146L40.889 49.7119H60.0983C62.2496 49.7119 63.9999 47.9616 63.9999 45.8102V7.2151C64 5.06373 62.2497 3.31348 60.0984 3.31348ZM39.9118 55.0612H37.3595C36.8418 55.0612 36.422 55.481 36.422 55.9987C36.422 56.5165 36.8418 56.9362 37.3595 56.9362H43.5254C44.0424 56.9362 44.4629 57.3567 44.4629 57.8737C44.4629 58.3907 44.0424 58.8112 43.5254 58.8112H20.4746C19.9576 58.8112 19.5371 58.3907 19.5371 57.8737C19.5371 57.3567 19.9576 56.9362 20.4746 56.9362H32.983C33.5008 56.9362 33.9205 56.5165 33.9205 55.9987C33.9205 55.481 33.5008 55.0612 32.983 55.0612H24.0882L25.0139 49.7119H38.9863L39.9118 55.0612Z" fill="#B0D3F0"/>
<path d="M50.7148 27.0347C50.362 27.0347 50.0392 27.2327 49.8792 27.547L45.4549 36.2427L41.7214 28.9045C41.5614 28.5902 41.2385 28.3922 40.8858 28.3922C40.533 28.3922 40.2102 28.5902 40.0502 28.9045L38.0263 32.8824H34.7949C34.2772 32.8824 33.8574 33.3022 33.8574 33.8199C33.8574 34.3377 34.2772 34.7574 34.7949 34.7574H38.6012C38.9539 34.7574 39.2768 34.5594 39.4368 34.245L40.8858 31.3972L44.6193 38.7353C44.7793 39.0497 45.1022 39.2477 45.4549 39.2477C45.8077 39.2477 46.1306 39.0497 46.2906 38.7353L50.7148 30.0397L52.8544 34.2452C53.0144 34.5595 53.3373 34.7575 53.69 34.7575H57.4963C58.014 34.7575 58.4338 34.3378 58.4338 33.82C58.4338 33.3023 58.014 32.8825 57.4963 32.8825H54.2649L51.5504 27.5472C51.3904 27.2327 51.0675 27.0347 50.7148 27.0347Z" fill="#B0D3F0"/>
<path d="M34.7954 24.2574H39.6603C40.178 24.2574 40.5978 23.8377 40.5978 23.3199V13.4507C40.5978 12.9329 40.178 12.5132 39.6603 12.5132H34.7954C34.2777 12.5132 33.8579 12.9329 33.8579 13.4507V23.3199C33.8579 23.8377 34.2777 24.2574 34.7954 24.2574ZM35.7329 14.3882H38.7228V22.3824H35.7329V14.3882Z" fill="#B0D3F0"/>
<path d="M48.6115 15.1948H43.7466C43.2288 15.1948 42.8091 15.6146 42.8091 16.1323V23.3197C42.8091 23.8375 43.2288 24.2572 43.7466 24.2572H48.6115C49.1292 24.2572 49.549 23.8375 49.549 23.3197V16.1323C49.549 15.6146 49.1292 15.1948 48.6115 15.1948ZM47.674 22.3822H44.6841V17.0698H47.674V22.3822Z" fill="#B0D3F0"/>
<path d="M57.4962 24.2572C58.014 24.2572 58.4337 23.8375 58.4337 23.3197V10.9761C58.4337 10.4583 58.014 10.0386 57.4962 10.0386H52.6313C52.1136 10.0386 51.6938 10.4583 51.6938 10.9761V23.3197C51.6938 23.8375 52.1136 24.2572 52.6313 24.2572H57.4962ZM53.5688 11.9136H56.5587V22.3822H53.5688V11.9136Z" fill="#B0D3F0"/>
<path d="M27.7373 20.644H6.4873C5.96955 20.644 5.5498 21.0638 5.5498 21.5815C5.5498 22.0993 5.96955 22.519 6.4873 22.519H27.7373C28.2551 22.519 28.6748 22.0993 28.6748 21.5815C28.6748 21.0638 28.2551 20.644 27.7373 20.644Z" fill="#B0D3F0"/>
<path d="M6.4873 27.499H10.2901C10.8078 27.499 11.2276 27.0793 11.2276 26.5615C11.2276 26.0438 10.8078 25.624 10.2901 25.624H6.4873C5.96955 25.624 5.5498 26.0438 5.5498 26.5615C5.5498 27.0793 5.96955 27.499 6.4873 27.499Z" fill="#B0D3F0"/>
<path d="M27.7371 25.624H14.5854C14.0677 25.624 13.6479 26.0438 13.6479 26.5615C13.6479 27.0793 14.0677 27.499 14.5854 27.499H27.7371C28.2548 27.499 28.6746 27.0793 28.6746 26.5615C28.6746 26.0438 28.2548 25.624 27.7371 25.624Z" fill="#B0D3F0"/>
<path d="M27.7373 10.0386H6.4873C5.96955 10.0386 5.5498 10.4583 5.5498 10.9761C5.5498 11.4938 5.96955 11.9136 6.4873 11.9136H27.7373C28.2551 11.9136 28.6748 11.4938 28.6748 10.9761C28.6748 10.4583 28.2551 10.0386 27.7373 10.0386Z" fill="#B0D3F0"/>
<path d="M6.4873 16.894H19.6651C20.1828 16.894 20.6026 16.4743 20.6026 15.9565C20.6026 15.4388 20.1828 15.019 19.6651 15.019H6.4873C5.96955 15.019 5.5498 15.4388 5.5498 15.9565C5.5498 16.4743 5.96955 16.894 6.4873 16.894Z" fill="#B0D3F0"/>
<path d="M27.7371 15.019H23.9604C23.4427 15.019 23.0229 15.4388 23.0229 15.9565C23.0229 16.4743 23.4427 16.894 23.9604 16.894H27.7371C28.2548 16.894 28.6746 16.4743 28.6746 15.9565C28.6746 15.4388 28.2548 15.019 27.7371 15.019Z" fill="#B0D3F0"/>
<path d="M28.6748 31.4814C28.6748 30.9637 28.2551 30.5439 27.7373 30.5439H6.4873C5.96955 30.5439 5.5498 30.9637 5.5498 31.4814C5.5498 31.9992 5.96955 32.4189 6.4873 32.4189H27.7373C28.2551 32.4189 28.6748 31.9992 28.6748 31.4814Z" fill="#B0D3F0"/>
<path d="M6.4873 35.4976C5.96955 35.4976 5.5498 35.9173 5.5498 36.4351C5.5498 36.9528 5.96955 37.3726 6.4873 37.3726H16.4873C17.0051 37.3726 17.4248 36.9528 17.4248 36.4351C17.4248 35.9173 17.0051 35.4976 16.4873 35.4976H6.4873Z" fill="#B0D3F0"/>
</svg>
