<svg width="64" height="64" viewBox="0 0 64 64" fill="none" xmlns="http://www.w3.org/2000/svg">
<path d="M24.6434 26.1486C21.9825 25.364 18.4676 24.9319 14.7461 24.9319C11.0246 24.9319 7.50962 25.364 4.84888 26.1486C1.63138 27.0974 0 28.4474 0 30.1609V54.3081C0 56.0216 1.63138 57.3716 4.849 58.3204C7.50988 59.105 11.0248 59.5371 14.7463 59.5371C18.4678 59.5371 21.9826 59.105 24.6435 58.3204C27.861 57.3716 29.4925 56.0216 29.4925 54.3081V30.1609C29.4924 28.4474 27.861 27.0974 24.6434 26.1486ZM26.9929 46.2481C26.9929 46.2494 26.9927 46.2506 26.9926 46.2519C26.9577 46.4254 26.298 47.2169 23.6911 47.9458C21.2815 48.6195 18.1048 48.9904 14.7461 48.9904C11.3875 48.9904 8.21075 48.6194 5.801 47.9458C3.19125 47.216 2.533 46.4235 2.5 46.2578V41.3225C3.15538 41.6544 3.9385 41.955 4.849 42.2234C7.50988 43.008 11.0248 43.4401 14.7463 43.4401C18.4678 43.4401 21.9826 43.008 24.6435 42.2234C25.554 41.9549 26.3372 41.6543 26.9926 41.3224L26.9929 46.2481ZM26.9929 38.2004C26.9929 38.2018 26.9926 38.2033 26.9926 38.2046C26.9565 38.3785 26.2918 39.1705 23.6835 39.8981C21.2741 40.5701 18.1001 40.9403 14.7461 40.9403C11.3921 40.9403 8.21813 40.5701 5.80875 39.8981C3.197 39.1695 2.534 38.3764 2.5 38.2111V33.2738C3.1555 33.6056 3.93862 33.9063 4.84912 34.1746C7.5085 34.9584 11.0234 35.39 14.7463 35.39C18.469 35.39 21.9839 34.9584 24.6432 34.1746C25.5537 33.9063 26.3371 33.6056 26.9926 33.2738L26.9929 38.2004ZM5.80888 28.474C8.21825 27.802 11.3923 27.4319 14.7463 27.4319C18.1003 27.4319 21.2742 27.802 23.6836 28.474C26.2615 29.1931 26.9409 29.9751 26.9914 30.1613C26.9421 30.3468 26.2671 31.1279 23.6909 31.8471C21.2819 32.5196 18.1053 32.89 14.7464 32.89C11.3874 32.89 8.21088 32.5196 5.80188 31.8471C3.2255 31.1279 2.5505 30.3468 2.50125 30.1613C2.55163 29.9751 3.231 29.1931 5.80888 28.474ZM23.6835 55.995C21.2741 56.667 18.1001 57.0371 14.7461 57.0371C11.3921 57.0371 8.21813 56.667 5.80875 55.995C3.197 55.2665 2.534 54.4733 2.5 54.3081V49.3718C3.15538 49.7038 3.93838 50.0046 4.84875 50.2731C7.50913 51.0581 11.024 51.4904 14.7463 51.4904C18.4684 51.4904 21.9834 51.0581 24.6437 50.2731C25.5541 50.0045 26.3372 49.7036 26.9926 49.3716L26.993 54.3008C26.9584 54.4733 26.2954 55.2665 23.6835 55.995Z" fill="#B0D3F0"/>
<path d="M59.1489 26.1485C56.4872 25.364 52.9717 24.9319 49.25 24.9319C45.5299 24.9319 42.0155 25.364 39.3542 26.1486C36.1358 27.0975 34.5039 28.4474 34.5039 30.1609V54.3081C34.5039 56.0216 36.1358 57.3715 39.3542 58.3205C42.0155 59.105 45.5299 59.5371 49.25 59.5371C52.9717 59.5371 56.4872 59.105 59.1489 58.3205C62.3677 57.3716 63.9998 56.0216 63.9998 54.3081V30.1609C63.9998 28.4474 62.3677 27.0974 59.1489 26.1485ZM61.5003 46.2481C61.5003 46.2494 61.5002 46.2505 61.5002 46.2518C61.4652 46.4254 60.8043 47.2173 58.1955 47.9461C55.7852 48.6196 52.6083 48.9904 49.2502 48.9904C45.8935 48.9904 42.7178 48.6195 40.3078 47.9461C37.6964 47.2164 37.037 46.4234 37.0039 46.2578V41.3221C37.6597 41.6541 38.4433 41.9549 39.3542 42.2235C42.0155 43.008 45.5299 43.4401 49.25 43.4401C52.9717 43.4401 56.4872 43.008 59.1489 42.2235C60.0602 41.9549 60.844 41.654 61.4999 41.3219L61.5003 46.2481ZM61.5003 38.2004C61.5003 38.2018 61.5 38.2031 61.5 38.2045C61.4637 38.3785 60.798 39.1708 58.1878 39.8984C55.7777 40.5703 52.6034 40.9403 49.2499 40.9403C45.8979 40.9403 42.7248 40.5703 40.3152 39.8984C37.702 39.1699 37.038 38.3764 37.0038 38.2113V33.2735C37.6595 33.6055 38.4433 33.9063 39.3543 34.1748C42.0142 34.9585 45.5285 35.3901 49.2499 35.3901C52.9729 35.3901 56.4884 34.9585 59.1487 34.1748C60.06 33.9063 60.8439 33.6054 61.4999 33.2733L61.5003 38.2004ZM40.3153 28.4738C42.7249 27.8019 45.898 27.4319 49.25 27.4319C52.6035 27.4319 55.7778 27.8019 58.1879 28.4738C60.7668 29.1926 61.4477 29.9748 61.4987 30.1611C61.4489 30.3471 60.7724 31.1284 58.195 31.8474C55.7853 32.5198 52.6087 32.89 49.25 32.89C45.893 32.89 42.7174 32.5198 40.3082 31.8474C37.7312 31.1284 37.0548 30.3471 37.005 30.1613C37.056 29.9748 37.7368 29.1926 40.3153 28.4738ZM58.1879 55.9953C55.7778 56.6671 52.6035 57.0371 49.25 57.0371C45.898 57.0371 42.7249 56.6671 40.3153 55.9953C37.7022 55.2668 37.0382 54.4733 37.0039 54.3081V49.3714C37.6595 49.7036 38.4432 50.0045 39.354 50.2733C42.0148 51.0583 45.5293 51.4905 49.25 51.4905C52.9724 51.4905 56.488 51.0583 59.1492 50.2733C60.0604 50.0045 60.8442 49.7035 61.4999 49.3713L61.5003 54.3008C61.4655 54.4733 60.8014 55.2668 58.1879 55.9953Z" fill="#B0D3F0"/>
<path d="M13.8626 19.0651C14.1066 19.3091 14.4266 19.4313 14.7464 19.4313C15.0663 19.4313 15.3863 19.3091 15.6303 19.0651L20.6617 14.0338C21.1498 13.5456 21.1498 12.7541 20.6617 12.2659C20.1736 11.7779 19.3821 11.7779 18.8938 12.2659L15.9963 15.1634V8.50815C15.9963 7.65602 16.6897 6.96265 17.5419 6.96265H46.4583C47.3086 6.96265 48.0003 7.65602 48.0003 8.50815V17.43C48.0003 18.1203 48.5599 18.68 49.2503 18.68C49.9407 18.68 50.5003 18.1203 50.5003 17.43V8.50815C50.5003 6.2774 48.6871 4.46265 46.4583 4.46265H17.5419C15.3112 4.46265 13.4963 6.27752 13.4963 8.50815V15.1634L10.5987 12.2659C10.1106 11.7779 9.31906 11.7779 8.83094 12.2659C8.34281 12.754 8.34281 13.5455 8.83094 14.0338L13.8626 19.0651Z" fill="#B0D3F0"/>
</svg>
