<svg width="64" height="64" viewBox="0 0 64 64" fill="none" xmlns="http://www.w3.org/2000/svg">
<path d="M33.0336 6.39994H26.6336C26.0448 6.39994 25.5669 5.92207 25.5669 5.33327C25.5669 4.74447 26.0448 4.2666 26.6336 4.2666H33.0336C33.6224 4.2666 34.1002 4.74447 34.1002 5.33327C34.1002 5.92207 33.6224 6.39994 33.0336 6.39994Z" fill="#B0D3F0"/>
<path d="M41.5666 64.0002H18.0999C15.1581 64.0002 12.7666 61.6066 12.7666 58.6668V43.7335C12.7666 43.1447 13.2445 42.6668 13.8333 42.6668C14.4221 42.6668 14.8999 43.1447 14.8999 43.7335V58.6668C14.8999 60.4311 16.3357 61.8668 18.0999 61.8668H41.5666C43.3309 61.8668 44.7666 60.4311 44.7666 58.6668V22.4002C44.7666 21.8114 45.2445 21.3335 45.8333 21.3335C46.4221 21.3335 46.8999 21.8114 46.8999 22.4002V58.6668C46.8999 61.6066 44.5085 64.0002 41.5666 64.0002Z" fill="#B0D3F0"/>
<path d="M45.8333 8.53333C45.2445 8.53333 44.7666 8.05547 44.7666 7.46667V5.33333C44.7666 3.56907 43.3309 2.13333 41.5666 2.13333H18.0999C16.3357 2.13333 14.8999 3.56907 14.8999 5.33333V7.46667C14.8999 8.05547 14.4221 8.53333 13.8333 8.53333C13.2445 8.53333 12.7666 8.05547 12.7666 7.46667V5.33333C12.7666 2.3936 15.1581 0 18.0999 0H41.5666C44.5085 0 46.8999 2.3936 46.8999 5.33333V7.46667C46.8999 8.05547 46.4221 8.53333 45.8333 8.53333Z" fill="#B0D3F0"/>
<path d="M28.7665 51.2002H20.2332C19.6444 51.2002 19.1665 50.7224 19.1665 50.1336C19.1665 49.5448 19.6444 49.0669 20.2332 49.0669H28.7665C29.3553 49.0669 29.8332 49.5448 29.8332 50.1336C29.8332 50.7224 29.3553 51.2002 28.7665 51.2002Z" fill="#B0D3F0"/>
<path d="M35.1665 55.4668H20.2332C19.6444 55.4668 19.1665 54.989 19.1665 54.4002C19.1665 53.8114 19.6444 53.3335 20.2332 53.3335H35.1665C35.7553 53.3335 36.2332 53.8114 36.2332 54.4002C36.2332 54.989 35.7553 55.4668 35.1665 55.4668Z" fill="#B0D3F0"/>
<path d="M39.4332 46.9331H20.2332C19.6444 46.9331 19.1665 46.4553 19.1665 45.8665C19.1665 45.2777 19.6444 44.7998 20.2332 44.7998H39.4332C40.022 44.7998 40.4998 45.2777 40.4998 45.8665C40.4998 46.4553 40.022 46.9331 39.4332 46.9331Z" fill="#B0D3F0"/>
<path d="M17.0335 27.7336C14.0917 27.7336 11.7002 25.34 11.7002 22.4002C11.7002 19.4605 14.0917 17.0669 17.0335 17.0669C19.9754 17.0669 22.3669 19.4605 22.3669 22.4002C22.3669 25.34 19.9754 27.7336 17.0335 27.7336ZM17.0335 19.2002C15.2693 19.2002 13.8335 20.636 13.8335 22.4002C13.8335 24.1645 15.2693 25.6002 17.0335 25.6002C18.7978 25.6002 20.2335 24.1645 20.2335 22.4002C20.2335 20.636 18.7978 19.2002 17.0335 19.2002Z" fill="#B0D3F0"/>
<path d="M17.0334 40.5334C13.2915 40.5334 9.70113 39.1211 6.92353 36.5611C6.63766 36.2966 6.51819 35.8976 6.61206 35.5222C7.43126 32.192 10.4009 29.8667 13.8334 29.8667H20.2334C23.6659 29.8667 26.6355 32.192 27.4569 35.52C27.5507 35.8976 27.4291 36.2966 27.1454 36.559C24.3657 39.1211 20.7753 40.5334 17.0334 40.5334ZM8.86913 35.4283C13.4814 39.2704 20.5854 39.2704 25.1977 35.4283C24.4297 33.3824 22.4691 32 20.2334 32H13.8334C11.5977 32 9.63713 33.3824 8.86913 35.4283Z" fill="#B0D3F0"/>
<path d="M17.0334 40.5332C8.8009 40.5332 2.1001 33.8345 2.1001 25.5998C2.1001 17.3652 8.8009 10.6665 17.0334 10.6665C25.266 10.6665 31.9668 17.3652 31.9668 25.5998C31.9668 33.8345 25.266 40.5332 17.0334 40.5332ZM17.0334 12.7998C9.97423 12.7998 4.23343 18.5406 4.23343 25.5998C4.23343 32.659 9.97423 38.3998 17.0334 38.3998C24.0926 38.3998 29.8334 32.659 29.8334 25.5998C29.8334 18.5406 24.0926 12.7998 17.0334 12.7998Z" fill="#B0D3F0"/>
<path d="M7.43337 46.8264C6.84457 46.8264 6.3667 46.4552 6.3667 45.8664V45.6531C6.3667 45.0643 6.84457 44.5864 7.43337 44.5864C8.02217 44.5864 8.50003 45.0643 8.50003 45.6531C8.50003 46.2419 8.02217 46.8264 7.43337 46.8264Z" fill="#B0D3F0"/>
<path d="M7.43337 51.093C6.84457 51.093 6.3667 50.7218 6.3667 50.133V49.9197C6.3667 49.3309 6.84457 48.853 7.43337 48.853C8.02217 48.853 8.50003 49.3309 8.50003 49.9197C8.50003 50.5085 8.02217 51.093 7.43337 51.093Z" fill="#B0D3F0"/>
<path d="M7.43337 55.3596C6.84457 55.3596 6.3667 54.9884 6.3667 54.3996V54.1863C6.3667 53.5975 6.84457 53.1196 7.43337 53.1196C8.02217 53.1196 8.50003 53.5975 8.50003 54.1863C8.50003 54.7751 8.02217 55.3596 7.43337 55.3596Z" fill="#B0D3F0"/>
<path d="M49.7586 55.4668H47.9666C47.3778 55.4668 46.8999 54.9889 46.8999 54.4001C46.8999 53.8113 47.3778 53.3334 47.9666 53.3334H48.8988L49.4215 50.9121C49.5068 50.511 49.8162 50.1974 50.213 50.1014C51.2199 49.8582 52.2012 49.4486 53.1292 48.8833C53.4727 48.67 53.9143 48.6764 54.2578 48.894L56.3698 50.2444L57.6775 48.926L56.3271 46.831C56.1052 46.4876 56.101 46.046 56.3122 45.6982C56.8775 44.7702 57.2871 43.7889 57.5282 42.782C57.6242 42.3852 57.9356 42.078 58.3346 41.9884L60.7644 41.4486V39.6204L58.3346 39.0806C57.9356 38.991 57.6242 38.6838 57.5282 38.287C57.2871 37.2801 56.8754 36.2988 56.3122 35.3708C56.0988 35.023 56.1031 34.5836 56.325 34.2401L57.6775 32.126L56.3719 30.8204L54.2578 32.1729C53.9164 32.3926 53.4748 32.3969 53.1292 32.1836C52.1991 31.6182 51.2178 31.2086 50.213 30.9654C49.814 30.8694 49.5068 30.5537 49.4215 30.1548L48.8988 27.7334H47.9666C47.3778 27.7334 46.8999 27.2556 46.8999 26.6668C46.8999 26.078 47.3778 25.6001 47.9666 25.6001H49.7586C50.2599 25.6001 50.6951 25.9521 50.7996 26.4428L51.3692 29.0732C52.15 29.31 52.9159 29.63 53.654 30.0289L55.9452 28.5633C56.3676 28.2966 56.9202 28.3521 57.2743 28.7084L59.7938 31.2257C60.1479 31.5798 60.2076 32.1324 59.9367 32.5548L58.4711 34.846C58.87 35.5862 59.19 36.3521 59.4268 37.135L62.0615 37.7196C62.55 37.8284 62.8978 38.2614 62.8978 38.7606V42.302C62.8978 42.8012 62.55 43.2364 62.0615 43.343L59.4268 43.9276C59.19 44.7105 58.87 45.4764 58.4711 46.2145L59.9346 48.4844C60.2076 48.9046 60.15 49.4593 59.7959 49.8134L57.2764 52.3521C56.9223 52.7084 56.3698 52.7702 55.9452 52.4993L53.654 51.0337C52.9138 51.4326 52.15 51.7526 51.3692 51.9894L50.7996 54.6198C50.6951 55.1148 50.2599 55.4668 49.7586 55.4668Z" fill="#B0D3F0"/>
<path d="M50.2131 46.4384C49.812 46.4384 49.428 46.2101 49.2467 45.8218C48.9992 45.2885 49.2296 44.6528 49.7629 44.4053C51.2627 43.7056 52.2333 42.1866 52.2333 40.5333C52.2333 38.1802 50.3197 36.2666 47.9667 36.2666C47.3885 36.2666 46.8317 36.3797 46.3091 36.6016C45.7693 36.8341 45.1421 36.5802 44.9117 36.0362C44.6813 35.4944 44.9352 34.8693 45.4771 34.6389C46.2621 34.304 47.1027 34.1333 47.9667 34.1333C51.4952 34.1333 54.3667 37.0048 54.3667 40.5333C54.3667 43.0144 52.9117 45.2928 50.6632 46.3381C50.516 46.4064 50.3645 46.4384 50.2131 46.4384Z" fill="#B0D3F0"/>
<path d="M53.3001 19.1998H40.5001C38.147 19.1998 36.2334 17.2862 36.2334 14.9332C36.2334 12.5801 38.147 10.6665 40.5001 10.6665H53.3001C55.6531 10.6665 57.5667 12.5801 57.5667 14.9332C57.5667 17.2862 55.6531 19.1998 53.3001 19.1998ZM40.5001 12.7998C39.3225 12.7998 38.3667 13.7577 38.3667 14.9332C38.3667 16.1086 39.3225 17.0665 40.5001 17.0665H53.3001C54.4777 17.0665 55.4334 16.1086 55.4334 14.9332C55.4334 13.7577 54.4777 12.7998 53.3001 12.7998H40.5001Z" fill="#B0D3F0"/>
</svg>
