<svg width="64" height="64" viewBox="0 0 64 64" fill="none" xmlns="http://www.w3.org/2000/svg">
<path d="M37.8667 5.3335H31.4667C30.5824 5.3335 29.8667 6.04925 29.8667 6.9335C29.8667 7.81775 30.5824 8.5335 31.4667 8.5335H37.8667C38.751 8.5335 39.4667 7.81775 39.4667 6.9335C39.4667 6.04925 38.751 5.3335 37.8667 5.3335Z" fill="#0284C7"/>
<path d="M44.7998 0H19.1998C15.6713 0 12.7998 2.8715 12.7998 6.4V57.6C12.7998 61.1285 15.6713 64 19.1998 64H44.7998C48.3283 64 51.1998 61.1285 51.1998 57.6V6.4C51.1998 2.8715 48.3283 0 44.7998 0ZM47.9998 57.6C47.9998 59.3675 46.5673 60.8 44.7998 60.8H19.1998C17.4323 60.8 15.9998 59.3675 15.9998 57.6V6.4C15.9998 4.6325 17.4323 3.2 19.1998 3.2H44.7998C46.5673 3.2 47.9998 4.6325 47.9998 6.4V57.6Z" fill="#0284C7"/>
<path d="M31.9998 58.6666C33.7671 58.6666 35.1998 57.2339 35.1998 55.4666C35.1998 53.6993 33.7671 52.2666 31.9998 52.2666C30.2325 52.2666 28.7998 53.6993 28.7998 55.4666C28.7998 57.2339 30.2325 58.6666 31.9998 58.6666Z" fill="#0284C7"/>
<path d="M26.1332 8.5335C27.0169 8.5335 27.7332 7.81715 27.7332 6.9335C27.7332 6.04984 27.0169 5.3335 26.1332 5.3335C25.2495 5.3335 24.5332 6.04984 24.5332 6.9335C24.5332 7.81715 25.2495 8.5335 26.1332 8.5335Z" fill="#0284C7"/>
</svg>
