<svg width="64" height="64" viewBox="0 0 64 64" fill="none" xmlns="http://www.w3.org/2000/svg">
<g clip-path="url(#clip0_2615_262)">
<path d="M57.1428 0H29.7142C25.933 0 22.8571 3.07589 22.8571 6.85714V9.14286H18.2857C17.0234 9.14286 15.9999 10.1652 15.9999 11.4286V15.0379C14.3682 15.6808 12.8236 16.5513 11.4274 17.6183L8.11267 15.7612C7.03454 15.1563 5.66512 15.5223 5.03119 16.5871L0.321371 24.5067C0.005523 25.0357 -0.0815305 25.6696 0.0780676 26.2656C0.237666 26.8616 0.630523 27.3661 1.16847 27.6674L4.41289 29.4844C4.28789 30.3326 4.22539 31.1719 4.22539 32C4.22539 32.8281 4.28789 33.6674 4.41289 34.5156L1.16847 36.3326C0.630523 36.6339 0.237666 37.1384 0.0780676 37.7344C-0.0815305 38.3304 0.005523 38.9643 0.321371 39.4933L5.03119 47.4129C5.66512 48.4799 7.03454 48.8482 8.11267 48.2388L11.4274 46.3817C12.8236 47.4487 14.3682 48.3192 15.9999 48.9621V52.5714C15.9999 53.8348 17.0234 54.8571 18.2857 54.8571H22.8571V57.1429C22.8571 60.9241 25.933 64 29.7142 64H57.1428C60.924 64 63.9999 60.9241 63.9999 57.1429V6.85714C63.9999 3.07589 60.924 0 57.1428 0ZM22.8571 50.2857H20.5714V47.3281C20.5714 46.3103 19.8984 45.4152 18.9196 45.1317C16.8158 44.5246 14.8482 43.4174 13.2287 41.933C12.4999 41.2656 11.4263 41.1406 10.5669 41.625L7.82137 43.1629L5.44972 39.1741L8.08923 37.6942C8.98543 37.1942 9.43633 36.154 9.19191 35.1563C8.92963 34.0848 8.79682 33.0246 8.79682 32C8.79682 30.9754 8.92963 29.9152 9.19191 28.8438C9.43633 27.846 8.98543 26.8058 8.08923 26.3058L5.44972 24.8259L7.82137 20.8371L10.5669 22.375C11.4263 22.8594 12.4999 22.7321 13.2287 22.067C14.8482 20.5826 16.8158 19.4754 18.9196 18.8683C19.8984 18.5848 20.5714 17.6897 20.5714 16.6719V13.7143H22.8571V50.2857ZM59.4285 57.1429C59.4285 58.404 58.404 59.4286 57.1428 59.4286H29.7142C28.4542 59.4286 27.4285 58.404 27.4285 57.1429V41.1429H33.3392L37.241 45.0446C37.6696 45.4732 38.2499 45.7143 38.8571 45.7143H41.779C42.5721 47.0738 44.0304 48 45.7142 48C48.2343 48 50.2857 45.9487 50.2857 43.4286C50.2857 40.9085 48.2343 38.8571 45.7142 38.8571C44.0304 38.8571 42.5721 39.7833 41.779 41.1429H39.8035L35.9017 37.2411C35.4732 36.8125 34.8928 36.5714 34.2857 36.5714H27.4285V34.2857H41.779C42.5721 35.6452 44.0304 36.5714 45.7142 36.5714C48.2343 36.5714 50.2857 34.5201 50.2857 32C50.2857 29.4799 48.2343 27.4286 45.7142 27.4286C44.0304 27.4286 42.5721 28.3548 41.779 29.7143H27.4285V27.4286H34.2857C34.8928 27.4286 35.4732 27.1875 35.9017 26.7589L39.8035 22.8571H41.779C42.5721 24.2167 44.0304 25.1429 45.7142 25.1429C48.2343 25.1429 50.2857 23.0915 50.2857 20.5714C50.2857 18.0513 48.2343 16 45.7142 16C44.0304 16 42.5721 16.9262 41.779 18.2857H38.8571C38.2499 18.2857 37.6696 18.5268 37.241 18.9554L33.3392 22.8571H27.4285V6.85714C27.4285 5.59598 28.4542 4.57143 29.7142 4.57143H38.8571C38.8571 7.09152 40.9084 9.14286 43.4285 9.14286C45.9486 9.14286 47.9999 7.09152 47.9999 4.57143H57.1428C58.404 4.57143 59.4285 5.59598 59.4285 6.85714V57.1429Z" fill="#B0D3F0"/>
<path d="M19.9019 25.8125C19.0091 24.9196 17.5626 24.9196 16.6698 25.8125L12.0984 30.3839C11.2055 31.2768 11.2055 32.7232 12.0984 33.616L16.6698 38.1875C17.1162 38.6339 17.701 38.8571 18.2859 38.8571C18.8707 38.8571 19.4555 38.6339 19.9019 38.1875C20.7948 37.2946 20.7948 35.8482 19.9019 34.9553L16.9466 32L19.9019 29.0446C20.7948 28.1518 20.7948 26.7053 19.9019 25.8125Z" fill="#B0D3F0"/>
</g>
<defs>
<clipPath id="clip0_2615_262">
<rect width="64" height="64" fill="white"/>
</clipPath>
</defs>
</svg>
