<svg width="64" height="64" viewBox="0 0 64 64" fill="none" xmlns="http://www.w3.org/2000/svg">
<g clip-path="url(#clip0_2615_251)">
<path d="M60.9032 53.6775H59.871V19.613C59.871 16.767 57.5556 14.4517 54.7097 14.4517H51.6129V16.5162H54.7097C56.417 16.5162 57.8064 17.9056 57.8064 19.613V53.6775H6.19355V19.613C6.19355 17.9056 7.58297 16.5162 9.29032 16.5162H12.3871V14.4517H9.29032C6.44439 14.4517 4.12903 16.767 4.12903 19.613V53.6775H3.09677C1.38942 53.6775 0 55.0669 0 56.7742C0 60.7577 3.24232 64 7.22581 64H56.7742C60.7577 64 64 60.7577 64 56.7742C64 55.0669 62.6106 53.6775 60.9032 53.6775ZM25.8065 55.742H38.1935V56.7742C38.1935 57.344 37.7311 57.8065 37.1613 57.8065H26.8387C26.2689 57.8065 25.8065 57.344 25.8065 56.7742V55.742ZM47.4839 61.9355H45.4194V59.871H47.4839V61.9355ZM55.7419 61.9355H53.6774V59.871H55.7419V61.9355ZM57.8064 61.8313V57.8065H51.6129V61.9355H49.5484V57.8065H43.3548V61.9355H7.22581C4.37987 61.9355 2.06452 59.6202 2.06452 56.7742C2.06452 56.2044 2.52697 55.742 3.09677 55.742H23.7419V56.7742C23.7419 58.4816 25.1314 59.871 26.8387 59.871H37.1613C38.8686 59.871 40.2581 58.4816 40.2581 56.7742V55.742H60.9032C61.473 55.742 61.9355 56.2044 61.9355 56.7742C61.9355 59.2661 60.159 61.3513 57.8064 61.8313Z" fill="#B0D3F0"/>
<path d="M22.7099 20.6451V18.5806H10.3228C9.18424 18.5806 8.2583 19.5065 8.2583 20.6451V49.5483C8.2583 50.6869 9.18424 51.6128 10.3228 51.6128H53.6777C54.8162 51.6128 55.7422 50.6869 55.7422 49.5483V20.6451C55.7422 19.5065 54.8162 18.5806 53.6777 18.5806H41.2906V20.6451H53.6777V49.5483H49.5486V43.6345L46.7264 42.7302C46.4694 41.9323 46.1515 41.1612 45.7778 40.4293L47.1321 37.7981L41.688 32.354L39.0567 33.7083C38.3238 33.3346 37.5538 33.0167 36.7558 32.7597L35.8495 29.9354H28.1499L27.2457 32.7576C26.4477 33.0146 25.6766 33.3326 24.9448 33.7062L22.3135 32.3519L16.8694 37.7961L18.2237 40.4273C17.85 41.1602 17.5321 41.9302 17.2751 42.7282L14.4518 43.6345V49.5483H10.3228V20.6451H22.7099ZM22.7099 47.4838C22.7099 42.3607 26.8771 38.1935 32.0002 38.1935C37.1233 38.1935 41.2906 42.3607 41.2906 47.4838C41.2906 48.1847 41.1873 48.8722 41.0335 49.5483H36.7269C37.0088 48.9031 37.1615 48.2022 37.1615 47.4838C37.1615 44.6379 34.8462 42.3225 32.0002 42.3225C29.1543 42.3225 26.8389 44.6379 26.8389 47.4838C26.8389 48.2022 26.9917 48.9031 27.2735 49.5483H22.968C22.8142 48.8722 22.7099 48.1847 22.7099 47.4838ZM28.9035 47.4838C28.9035 45.7764 30.2929 44.387 32.0002 44.387C33.7076 44.387 35.097 45.7764 35.097 47.4838C35.097 48.2539 34.7956 48.9816 34.2836 49.5483H29.7158C29.2049 48.9816 28.9035 48.2539 28.9035 47.4838ZM16.5164 45.1395L18.9484 44.3612L19.0991 43.8275C19.3871 42.8077 19.7876 41.8353 20.2893 40.9403L20.5597 40.4562L19.3933 38.1914L22.7089 34.8758L24.9737 36.0422L25.4578 35.7718C26.3528 35.2701 27.3251 34.8696 28.345 34.5816L28.8787 34.4309L29.656 31.9999H34.3435L35.1218 34.4319L35.6555 34.5826C36.6753 34.8706 37.6477 35.2711 38.5427 35.7728L39.0268 36.0433L41.2916 34.8768L44.6072 38.1924L43.4408 40.4572L43.7112 40.9413C44.2129 41.8363 44.6134 42.8087 44.9014 43.8286L45.0521 44.3622L47.4841 45.1395V49.5483H43.16C43.2849 48.8701 43.3551 48.1806 43.3551 47.4838C43.3551 41.2231 38.2609 36.129 32.0002 36.129C25.7396 36.129 20.6454 41.2231 20.6454 47.4838C20.6454 48.1806 20.7166 48.8701 20.8405 49.5483H16.5164V45.1395Z" fill="#B0D3F0"/>
<path d="M13.4194 4.12915H17.5485V6.19367H13.4194V4.12915Z" fill="#B0D3F0"/>
<path d="M29.9355 4.12915H34.0646V6.19367H29.9355V4.12915Z" fill="#B0D3F0"/>
<path d="M46.4517 4.12915H50.5807V6.19367H46.4517V4.12915Z" fill="#B0D3F0"/>
<path d="M30.9679 27.871H33.0324V10.3226H38.1937V0H25.8066V10.3226H30.9679V27.871ZM27.8712 2.06452H36.1292V8.25806H27.8712V2.06452Z" fill="#B0D3F0"/>
<path d="M47.4837 14.4516H37.1611V27.871H39.2256V16.5161H49.5482V10.3226H54.7095V0H42.3224V10.3226H47.4837V14.4516ZM44.3869 2.06452H52.645V8.25806H44.3869V2.06452Z" fill="#B0D3F0"/>
<path d="M14.4518 16.5161H24.7744V27.871H26.8389V14.4516H16.5163V10.3226H21.6776V0H9.29053V10.3226H14.4518V16.5161ZM11.355 2.06452H19.6131V8.25806H11.355V2.06452Z" fill="#B0D3F0"/>
</g>
<defs>
<clipPath id="clip0_2615_251">
<rect width="64" height="64" fill="white"/>
</clipPath>
</defs>
</svg>
