<svg width="64" height="64" viewBox="0 0 64 64" fill="none" xmlns="http://www.w3.org/2000/svg">
<path d="M32.2229 26.5616C34.9985 26.5616 37.2566 24.3034 37.2566 21.5277C37.2566 18.7524 34.9985 16.4946 32.2229 16.4946C29.4471 16.4946 27.189 18.7524 27.189 21.5277C27.189 24.3034 29.4471 26.5616 32.2229 26.5616ZM32.2229 18.2447C34.0335 18.2447 35.5066 19.7176 35.5066 21.5278C35.5066 23.3386 34.0335 24.8117 32.2229 24.8117C30.4121 24.8117 28.939 23.3386 28.939 21.5278C28.939 19.7176 30.4121 18.2447 32.2229 18.2447ZM32.2229 27.2083C26.7786 27.2083 22.3494 31.6372 22.3494 37.0811C22.3494 38.1623 22.9366 39.6674 25.734 40.6974C27.4604 41.3331 29.7648 41.6832 32.2226 41.6832C37.137 41.6832 42.0957 40.2602 42.0957 37.0812C42.0956 31.6372 37.6667 27.2083 32.2229 27.2083ZM32.2225 39.9332C27.7434 39.9332 24.0994 38.6538 24.0994 37.0812C24.0994 32.6022 27.7435 28.9584 32.2229 28.9584C36.7019 28.9584 40.3456 32.6023 40.3456 37.0812C40.3456 38.6537 36.7016 39.9332 32.2225 39.9332ZM6.65175 7.79282C6.65175 7.30957 7.0435 6.91782 7.52675 6.91782H15.8687C16.352 6.91782 16.7437 7.30957 16.7437 7.79282C16.7437 8.27607 16.352 8.66782 15.8687 8.66782H7.52675C7.0435 8.66782 6.65175 8.27607 6.65175 7.79282ZM15.8687 13.2641H7.52675C7.0435 13.2641 6.65175 12.8723 6.65175 12.3891C6.65175 11.9058 7.0435 11.5141 7.52675 11.5141H15.8687C16.352 11.5141 16.7437 11.9058 16.7437 12.3891C16.7437 12.8723 16.352 13.2641 15.8687 13.2641ZM47.2562 12.3891C47.2562 11.9058 47.648 11.5141 48.1312 11.5141H56.4733C56.9565 11.5141 57.3483 11.9058 57.3483 12.3891C57.3483 12.8723 56.9565 13.2641 56.4733 13.2641H48.1312C47.648 13.2641 47.2562 12.8723 47.2562 12.3891ZM47.2562 7.79282C47.2562 7.30957 47.648 6.91782 48.1312 6.91782H56.4733C56.9565 6.91782 57.3483 7.30957 57.3483 7.79282C57.3483 8.27607 56.9565 8.66782 56.4733 8.66782H48.1312C47.648 8.66782 47.2562 8.27607 47.2562 7.79282ZM62.875 15.5122V4.66957C62.875 3.56082 61.9729 2.65869 60.8641 2.65869H43.7404C42.6315 2.65869 41.7295 3.56082 41.7295 4.66957V5.55207C38.6897 4.44419 35.498 3.88257 32.2226 3.88257C28.7824 3.88257 25.4411 4.50044 22.2706 5.71869V4.66969C22.2706 3.56094 21.3685 2.65882 20.2598 2.65882H3.13587C2.02713 2.65869 1.125 3.56082 1.125 4.66957V15.5123C1.125 16.6211 2.02713 17.5232 3.13587 17.5232H8.29688C5.7605 21.7996 4.42688 26.6606 4.42688 31.6782C4.42688 35.0048 5.0055 38.2428 6.14687 41.3228H3.13587C2.02713 41.3227 1.125 42.2248 1.125 43.3336V54.1762C1.125 55.2851 2.02713 56.1872 3.13587 56.1872H9.10563C9.215 56.6933 9.42862 57.3696 9.84625 58.0766C10.5941 59.3426 12.1559 60.9354 15.3486 61.3346C15.3854 61.3391 15.4221 61.3414 15.4586 61.3414C15.7804 61.3414 16.0815 61.1659 16.2339 60.8761C16.4035 60.5536 16.3577 60.1623 16.1155 59.8899C16.0627 59.8287 14.9333 58.4831 15.2046 56.1871H19.1066C23.1161 58.3361 27.645 59.4734 32.2225 59.4734C36.8 59.4734 41.329 58.3361 45.3385 56.1871H48.7952C49.0665 58.4831 47.9375 59.8282 47.889 59.8847C47.6467 60.1569 47.5986 60.5508 47.7682 60.8734C47.9207 61.1634 48.2206 61.3412 48.5424 61.3412C48.5785 61.3412 48.6149 61.3389 48.6512 61.3344C51.844 60.9353 53.4058 59.3423 54.1536 58.0764C54.5713 57.3694 54.7849 56.6932 54.8942 56.1871H60.864C61.9729 56.1871 62.8749 55.2849 62.8749 54.1761V43.3334C62.8749 42.2247 61.9727 41.3226 60.864 41.3226H58.2979C59.4392 38.2422 60.018 35.0042 60.018 31.6779C60.018 26.6594 58.6845 21.7991 56.1483 17.5229H60.864C61.9729 17.5231 62.875 16.6211 62.875 15.5122ZM43.4794 4.66957C43.4794 4.52819 43.5989 4.40869 43.7402 4.40869H60.864C61.0054 4.40869 61.1249 4.52819 61.1249 4.66957V15.5123C61.1249 15.6537 61.0054 15.7732 60.864 15.7732H54.1338C53.6575 15.7732 53.2688 16.1539 53.2589 16.6301C53.2588 16.6389 53.2244 17.5447 52.6468 18.5224C52.1111 19.4293 51.296 20.0931 50.2136 20.5069C50.5553 19.5042 50.7635 18.1296 50.384 16.4548C50.2936 16.0562 49.9394 15.7732 49.5306 15.7732H43.7401C43.5987 15.7732 43.4793 15.6537 43.4793 15.5123L43.4794 4.66957ZM2.875 15.5122V4.66957C2.875 4.52819 2.9945 4.40869 3.13587 4.40869H20.2596C20.401 4.40869 20.5205 4.52819 20.5205 4.66957V15.5123C20.5205 15.6537 20.401 15.7732 20.2596 15.7732H14.4691C14.0604 15.7732 13.7061 16.0562 13.6158 16.4548C13.237 18.1262 13.4438 19.4986 13.7841 20.5007C10.8725 19.3704 10.7453 16.7548 10.741 16.6301C10.7311 16.1539 10.3424 15.7732 9.86613 15.7732H3.13587C2.9945 15.7731 2.875 15.6537 2.875 15.5122ZM14.4691 54.4372C14.0604 54.4372 13.7061 54.7202 13.6158 55.1188C13.237 56.7901 13.4438 58.1624 13.784 59.1646C10.8725 58.0343 10.7451 55.4187 10.7409 55.2941C10.731 54.8179 10.3423 54.4372 9.866 54.4372H3.13587C2.9945 54.4372 2.875 54.3177 2.875 54.1762V43.3336C2.875 43.1922 2.9945 43.0727 3.13587 43.0727H20.2596C20.401 43.0727 20.5205 43.1922 20.5205 43.3336V54.1762C20.5205 54.3177 20.401 54.4372 20.2596 54.4372H14.4691ZM61.125 43.3336V54.1762C61.125 54.3177 61.0055 54.4372 60.8641 54.4372H54.1339C53.6623 54.4372 53.2752 54.8171 53.2591 55.2884C53.2547 55.4179 53.1275 58.0343 50.2159 59.1647C50.5562 58.1624 50.7629 56.7902 50.3841 55.1189C50.2937 54.7203 49.9395 54.4373 49.5308 54.4373H43.7402C43.5989 54.4373 43.4794 54.3178 43.4794 54.1763V43.3337C43.4794 43.1923 43.5989 43.0728 43.7402 43.0728H60.864C61.0055 43.0727 61.125 43.1922 61.125 43.3336ZM56.4231 41.3227H43.7404C42.6315 41.3227 41.7295 42.2248 41.7295 43.3336V54.1762C41.7295 54.7646 41.985 55.2929 42.389 55.6611C39.1905 57.0146 35.7219 57.7236 32.2226 57.7236C28.6096 57.7236 25.0296 56.9672 21.7456 55.5264C22.0706 55.1691 22.2706 54.6962 22.2706 54.1762V43.3336C22.2706 42.2248 21.3685 41.3227 20.2598 41.3227H8.02175C6.79788 38.2568 6.177 35.0154 6.177 31.6781C6.177 27.1449 7.3385 22.7486 9.55125 18.8486C9.63638 19.0327 9.73338 19.2212 9.84638 19.4126C10.5943 20.6786 12.156 22.2716 15.3488 22.6706C15.3855 22.6752 15.4222 22.6774 15.4587 22.6774C15.7805 22.6774 16.0816 22.5018 16.234 22.2122C16.4036 21.8896 16.3579 21.4983 16.1156 21.2261C16.0629 21.1648 14.9334 19.8192 15.2048 17.5231H20.2596C21.3684 17.5231 22.2705 16.6209 22.2705 15.5122V7.60257C25.4256 6.29569 28.7705 5.63244 32.2225 5.63244C35.5082 5.63244 38.7035 6.23494 41.7294 7.42282V15.5122C41.7294 16.6209 42.6315 17.5231 43.7402 17.5231H48.7951C49.0664 19.8191 47.9374 21.1643 47.8889 21.2208C47.6466 21.4931 47.5985 21.8871 47.7681 22.2096C47.9206 22.4996 48.2205 22.6774 48.5423 22.6773C48.5784 22.6773 48.6146 22.6751 48.6511 22.6706C51.8439 22.2716 53.4056 20.6786 54.1535 19.4126C54.3601 19.0628 54.5165 18.7207 54.6354 18.4028C57.0161 22.4119 58.2679 26.9706 58.2679 31.6782C58.2681 35.0151 57.6471 38.2566 56.4231 41.3227ZM47.2562 46.4568C47.2562 45.9736 47.648 45.5818 48.1312 45.5818H56.4733C56.9565 45.5818 57.3483 45.9736 57.3483 46.4568C57.3483 46.9401 56.9565 47.3318 56.4733 47.3318H48.1312C47.648 47.3318 47.2562 46.9401 47.2562 46.4568ZM47.2562 51.0531C47.2562 50.5698 47.648 50.1781 48.1312 50.1781H56.4733C56.9565 50.1781 57.3483 50.5698 57.3483 51.0531C57.3483 51.5363 56.9565 51.9281 56.4733 51.9281H48.1312C47.648 51.9281 47.2562 51.5363 47.2562 51.0531ZM16.7437 46.4568C16.7437 46.9401 16.352 47.3318 15.8687 47.3318H7.52675C7.0435 47.3318 6.65175 46.9401 6.65175 46.4568C6.65175 45.9736 7.0435 45.5818 7.52675 45.5818H15.8687C16.352 45.5818 16.7437 45.9736 16.7437 46.4568ZM16.7437 51.0531C16.7437 51.5363 16.352 51.9281 15.8687 51.9281H7.52675C7.0435 51.9281 6.65175 51.5363 6.65175 51.0531C6.65175 50.5698 7.0435 50.1781 7.52675 50.1781H15.8687C16.352 50.1781 16.7437 50.5697 16.7437 51.0531Z" fill="#B0D3F0"/>
</svg>
