<svg width="64" height="64" viewBox="0 0 64 64" fill="none" xmlns="http://www.w3.org/2000/svg">
<path d="M41.4502 23.175C40.6752 23.175 40.0377 22.55 40.0252 21.7625L40.0002 18.625C39.9877 17.8375 40.6252 17.2 41.4127 17.1875H41.4252C42.2002 17.1875 42.8377 17.8125 42.8502 18.6L42.8752 21.7375C42.8877 22.525 42.2502 23.1625 41.4627 23.175C41.4502 23.175 41.4502 23.175 41.4502 23.175Z" fill="#B0D3F0"/>
<path d="M26.1751 14.6C25.4001 14.6 24.7626 13.975 24.7501 13.2L24.7126 10.0625C24.7001 9.275 25.3376 8.6375 26.1126 8.625H26.1251C26.9001 8.625 27.5376 9.25 27.5501 10.025L27.5876 13.1625C27.6001 13.95 26.9626 14.5875 26.1876 14.6C26.1876 14.6 26.1876 14.6 26.1751 14.6Z" fill="#B0D3F0"/>
<path d="M56.6875 26.7999C55.9 26.7999 55.2625 26.1624 55.2625 25.3874L55.2375 12.4249L42.1125 19.8499C41.425 20.2374 40.5625 19.9999 40.175 19.3124C39.7875 18.6249 40.025 17.7624 40.7125 17.3749L55.95 8.74993C56.3875 8.49993 56.925 8.49993 57.3625 8.76243C57.8 9.01243 58.0625 9.48743 58.075 9.98743L58.1125 25.3749C58.1125 26.1624 57.475 26.7999 56.6875 26.7999Z" fill="#B0D3F0"/>
<path d="M41.4126 20.0375C41.1751 20.0375 40.9376 19.975 40.7126 19.85L25.4501 11.2875C25.0001 11.0375 24.7251 10.5625 24.7251 10.05C24.7251 9.5375 25.0001 9.0625 25.4501 8.8125L40.6876 0.1875C41.1251 -0.0625 41.6501 -0.0625 42.0876 0.1875L57.3501 8.75C57.8001 9 58.0751 9.475 58.0751 9.9875C58.0751 10.5 57.8001 10.975 57.3501 11.225L42.1126 19.85C41.9001 19.975 41.6626 20.0375 41.4126 20.0375ZM29.0376 10.0375L41.4126 16.9875L53.7626 10L41.3876 3.05L29.0376 10.0375Z" fill="#B0D3F0"/>
<path d="M18.0502 52.725C17.8127 52.725 17.5752 52.6625 17.3502 52.5375L2.0877 43.975C1.6377 43.725 1.3627 43.25 1.3627 42.7375L1.3252 23.175C1.3252 22.675 1.5877 22.2 2.0252 21.95C2.4627 21.7 3.0002 21.6875 3.4377 21.9375L18.7127 30.5125C19.1627 30.7625 19.4377 31.2375 19.4377 31.75L19.4627 48.2C19.4627 48.9875 18.8252 49.625 18.0377 49.625C18.0127 49.625 17.9752 49.625 17.9377 49.625L18.7377 50.075C19.4252 50.4625 19.6627 51.325 19.2877 52.0125C19.0377 52.4625 18.5502 52.725 18.0502 52.725ZM4.2002 41.9L16.8877 49.025C16.7252 48.7875 16.6252 48.5125 16.6252 48.2L16.6002 32.575L4.1752 25.6L4.2002 41.9Z" fill="#B0D3F0"/>
<path d="M18.0253 33.1749C17.5253 33.1749 17.0503 32.9124 16.7878 32.4499C16.4003 31.7624 16.6378 30.8999 17.3253 30.5124L32.5628 21.8874C33.0003 21.6374 33.5378 21.6374 33.9753 21.8999C34.4128 22.1499 34.6753 22.6249 34.6878 23.1249L34.7003 26.2624C34.7003 27.0499 34.0628 27.6874 33.2878 27.6874C32.5003 27.6874 31.8628 27.0499 31.8628 26.2749V25.5624L18.7378 32.9874C18.5003 33.1124 18.2628 33.1749 18.0253 33.1749Z" fill="#B0D3F0"/>
<path d="M18.0629 52.7249C17.5629 52.7249 17.0879 52.4624 16.8254 51.9999C16.4379 51.3124 16.6754 50.4499 17.3629 50.0624L24.9504 45.7624C25.6379 45.3749 26.5004 45.6124 26.8879 46.2999C27.2754 46.9874 27.0379 47.8499 26.3504 48.2374L18.7629 52.5374C18.5379 52.6749 18.3004 52.7249 18.0629 52.7249Z" fill="#B0D3F0"/>
<path d="M18.0252 33.1749C17.7877 33.1749 17.5502 33.1124 17.3252 32.9874L2.0502 24.425C1.6002 24.175 1.3252 23.7 1.3252 23.1875C1.3252 22.675 1.6002 22.2 2.0502 21.95L17.2877 13.325C17.7252 13.075 18.2502 13.075 18.6877 13.325L33.9627 21.9C34.4127 22.15 34.6877 22.625 34.6877 23.1375C34.6877 23.65 34.4127 24.125 33.9627 24.375L18.7252 33C18.5002 33.1124 18.2627 33.1749 18.0252 33.1749ZM5.6502 23.175L18.0252 30.125L30.3752 23.1375L18.0002 16.1875L5.6502 23.175Z" fill="#B0D3F0"/>
<path d="M46.0004 63.9999C45.7629 63.9999 45.5254 63.9374 45.3004 63.8124L30.0379 55.2499C29.5879 54.9999 29.3129 54.5249 29.3129 54.0124L29.2754 34.4499C29.2754 33.9499 29.5379 33.4749 29.9754 33.2249C30.4129 32.9749 30.9504 32.9624 31.3879 33.2124L46.6629 41.7874C47.1129 42.0374 47.3879 42.5124 47.3879 43.0249L47.4129 59.4749C47.4129 60.2624 46.7754 60.8999 45.9879 60.8999C45.9629 60.8999 45.9254 60.8999 45.8879 60.8999L46.6879 61.3499C47.3754 61.7374 47.6129 62.5999 47.2379 63.2874C46.9879 63.7374 46.5004 63.9999 46.0004 63.9999ZM32.1504 53.1749L44.8379 60.2999C44.6754 60.0624 44.5754 59.7874 44.5754 59.4749L44.5504 43.8499L32.1254 36.8874L32.1504 53.1749Z" fill="#B0D3F0"/>
<path d="M46.013 63.9998C45.513 63.9998 45.038 63.7373 44.7755 63.2748C44.388 62.5873 44.6255 61.7248 45.313 61.3373L59.8255 53.1248L59.8005 36.8373L46.6755 44.2623C45.988 44.6498 45.1255 44.4123 44.738 43.7248C44.3505 43.0373 44.588 42.1748 45.2755 41.7873L60.513 33.1623C60.9505 32.9123 61.488 32.9123 61.9255 33.1748C62.363 33.4248 62.6255 33.8998 62.638 34.3998L62.6755 53.9623C62.6755 54.4748 62.4005 54.9498 61.9505 55.1998L46.713 63.8248C46.488 63.9373 46.2505 63.9998 46.013 63.9998Z" fill="#B0D3F0"/>
<path d="M45.9754 44.4374C45.7379 44.4374 45.5004 44.3749 45.2754 44.2499L30.0004 35.6874C29.5504 35.4374 29.2754 34.9624 29.2754 34.4499C29.2754 33.9374 29.5504 33.4624 30.0004 33.2124L45.2379 24.5874C45.6754 24.3374 46.2004 24.3374 46.6379 24.5874L61.9129 33.1624C62.3629 33.4124 62.6379 33.8874 62.6379 34.3999C62.6379 34.9124 62.3629 35.3874 61.9129 35.6374L46.6754 44.2624C46.4504 44.3874 46.2129 44.4374 45.9754 44.4374ZM33.6004 34.4499L45.9754 41.3999L58.3254 34.4124L45.9504 27.4624L33.6004 34.4499Z" fill="#B0D3F0"/>
</svg>
