<svg width="64" height="64" viewBox="0 0 64 64" fill="none" xmlns="http://www.w3.org/2000/svg">
<g clip-path="url(#clip0_2625_109)">
<path d="M11.085 30.2119V49.1827C11.085 49.7004 11.5046 50.1202 12.0225 50.1202C12.5403 50.1202 12.96 49.7004 12.96 49.1827V30.2119C12.96 29.6942 12.5403 29.2744 12.0225 29.2744C11.5046 29.2744 11.085 29.6942 11.085 30.2119Z" fill="#B0D3F0"/>
<path d="M51.9945 43.1616C51.4766 43.1616 51.057 43.5814 51.057 44.0991V57.3124C51.057 59.966 48.8998 62.1249 46.2485 62.1249H17.7685C15.1171 62.1249 12.96 59.966 12.96 57.3124V53.6084C12.96 53.0906 12.5403 52.6709 12.0225 52.6709C11.5046 52.6709 11.085 53.0906 11.085 53.6084V57.3124C11.085 60.9999 14.0831 63.9999 17.7685 63.9999H46.2485C49.9337 63.9999 52.932 60.9999 52.932 57.3124V44.0991C52.932 43.5814 52.5123 43.1616 51.9945 43.1616Z" fill="#B0D3F0"/>
<path d="M12.0225 10.3466C12.5403 10.3466 12.96 9.92688 12.96 9.40913V6.6875C12.96 4.03387 15.1171 1.875 17.7685 1.875H46.2485C48.8998 1.875 51.057 4.03387 51.057 6.6875V19.7568C51.057 20.2745 51.4766 20.6943 51.9945 20.6943C52.5123 20.6943 52.932 20.2745 52.932 19.7568V6.6875C52.9318 3 49.9337 0 46.2483 0H17.7683C14.0831 0 11.085 3 11.085 6.6875V9.40925C11.085 9.927 11.5046 10.3466 12.0225 10.3466Z" fill="#B0D3F0"/>
<path d="M48.2468 21.3193C48.7647 21.3193 49.1843 20.8995 49.1843 20.3818V6.53188C49.1843 4.8945 47.8529 3.5625 46.2163 3.5625H43.2503C42.8433 3.5625 42.4828 3.82513 42.3579 4.21238L41.6233 6.49137C41.4409 7.05725 40.9192 7.4375 40.3252 7.4375H23.691C23.097 7.4375 22.5754 7.05725 22.393 6.49125L21.6584 4.21238C21.5335 3.82513 21.173 3.5625 20.766 3.5625H17.7999C16.1634 3.5625 14.832 4.89463 14.832 6.53188V9.40913C14.832 9.92688 15.2517 10.3466 15.7695 10.3466C16.2874 10.3466 16.707 9.92688 16.707 9.40913V6.53188C16.707 5.92838 17.1973 5.4375 17.7999 5.4375H20.0833L20.6083 7.0665C21.0415 8.40988 22.2803 9.3125 23.691 9.3125H40.3252C41.736 9.3125 42.9748 8.40988 43.4079 7.06663L43.9329 5.4375H46.2162C46.8188 5.4375 47.3092 5.9285 47.3092 6.53188V20.3816C47.3093 20.8995 47.7289 21.3193 48.2468 21.3193Z" fill="#B0D3F0"/>
<path d="M15.77 29.2876C15.2521 29.2876 14.8325 29.7073 14.8325 30.2251V57.468C14.8325 59.1053 16.1639 60.4373 17.8004 60.4373H46.2165C47.8531 60.4373 49.1845 59.1052 49.1845 57.468V51.105C49.1845 50.5872 48.7649 50.1675 48.247 50.1675C47.7291 50.1675 47.3095 50.5872 47.3095 51.105V57.4681C47.3095 58.0716 46.8191 58.5625 46.2165 58.5625H17.8004C17.1978 58.5625 16.7075 58.0715 16.7075 57.4681V30.2251C16.7075 29.7073 16.2879 29.2876 15.77 29.2876Z" fill="#B0D3F0"/>
<path d="M37.0896 5.62305C37.6075 5.62305 38.0271 5.2033 38.0271 4.68555C38.0271 4.1678 37.6075 3.74805 37.0896 3.74805H26.9277C26.4099 3.74805 25.9902 4.1678 25.9902 4.68555C25.9902 5.2033 26.4099 5.62305 26.9277 5.62305H37.0896Z" fill="#B0D3F0"/>
<path d="M37.0896 54.2153H26.9277C26.4099 54.2153 25.9902 54.6351 25.9902 55.1528C25.9902 55.6706 26.4099 56.0903 26.9277 56.0903H37.0896C37.6075 56.0903 38.0271 55.6706 38.0271 55.1528C38.0271 54.6351 37.6074 54.2153 37.0896 54.2153Z" fill="#B0D3F0"/>
<path d="M21.484 24.5399V15.0878C21.484 13.5074 20.1989 12.2217 18.6192 12.2217H9.20575C8.68788 12.2217 8.26825 12.6414 8.26825 13.1592C8.26825 13.6769 8.68788 14.0967 9.20575 14.0967H18.6192C19.165 14.0967 19.609 14.5413 19.609 15.0878V24.5399C19.609 25.0864 19.165 25.5311 18.6192 25.5311H6.13575C5.93075 25.5311 5.7315 25.5982 5.56838 25.7222L1.875 28.5302V15.0878C1.875 14.5413 2.319 14.0967 2.86475 14.0967H4.89388C5.41175 14.0967 5.83138 13.6769 5.83138 13.1592C5.83138 12.6414 5.41175 12.2217 4.89388 12.2217H2.86475C1.28512 12.2217 0 13.5074 0 15.0878V30.4206C0 30.7768 0.201875 31.1022 0.521 31.2604C0.653 31.3258 0.7955 31.3581 0.937375 31.3581C1.13863 31.3581 1.33862 31.2933 1.50487 31.1669L6.45162 27.4062H18.6192C20.1989 27.4061 21.484 26.1203 21.484 24.5399Z" fill="#B0D3F0"/>
<path d="M16.676 17.6182C16.676 17.1004 16.2564 16.6807 15.7385 16.6807H5.74561C5.22773 16.6807 4.80811 17.1004 4.80811 17.6182C4.80811 18.1359 5.22773 18.5557 5.74561 18.5557H15.7385C16.2564 18.5557 16.676 18.1359 16.676 17.6182Z" fill="#B0D3F0"/>
<path d="M5.74561 20.9307C5.22773 20.9307 4.80811 21.3504 4.80811 21.8682C4.80811 22.3859 5.22773 22.8057 5.74561 22.8057H14.4895C15.0074 22.8057 15.427 22.3859 15.427 21.8682C15.427 21.3504 15.0074 20.9307 14.4895 20.9307H5.74561Z" fill="#B0D3F0"/>
<path d="M55.9062 27.3746C57.1062 26.1743 57.1062 24.2213 55.9062 23.0209C55.325 22.4394 54.5518 22.1191 53.7297 22.1191C52.9076 22.1191 52.1345 22.4394 51.5531 23.021L50.6311 23.9434C49.3687 23.3294 47.9735 23.0053 46.5285 23.0053C44.0195 23.0053 41.6606 23.9826 39.8865 25.7574L35.3792 30.2659L31.1445 31.7005C30.3817 31.9584 29.817 32.5805 29.6336 33.3646C29.4501 34.1494 29.6808 34.9583 30.2508 35.5283L33.7951 39.0736C32.7058 40.7719 32.9031 43.0628 34.3865 44.5466C35.2152 45.3758 36.3172 45.8324 37.4893 45.8324C38.3423 45.8324 39.1582 45.5905 39.8586 45.1393L43.4027 48.6845C43.8432 49.1251 44.4267 49.3629 45.0317 49.3629C45.2081 49.3629 45.3863 49.3426 45.5632 49.3014C46.3478 49.1184 46.971 48.5536 47.2297 47.7905C47.2298 47.7903 47.2298 47.7901 47.23 47.7899L48.6631 43.5545L53.1701 39.0463C54.9445 37.2726 55.9217 34.913 55.9217 32.4018C55.9217 30.9563 55.5976 29.5605 54.9837 28.2976L55.9062 27.3746ZM52.8791 24.3466C53.1063 24.1194 53.4083 23.9941 53.7297 23.9941C54.0511 23.9941 54.353 24.1193 54.5803 24.3466C55.0495 24.8159 55.0495 25.5796 54.5803 26.049L53.9676 26.662C53.7232 26.3464 53.4572 26.0441 53.1705 25.7573C52.8837 25.4704 52.5817 25.2044 52.2662 24.96L52.8791 24.3466ZM37.4893 43.9573C36.8181 43.9573 36.1871 43.6958 35.7123 43.221C34.9666 42.475 34.7883 41.3729 35.1777 40.4568L38.4766 43.7566C38.1686 43.8881 37.8343 43.9573 37.4893 43.9573ZM51.8445 37.7201L47.846 41.7198L42.6178 36.4901C42.252 36.124 41.6583 36.1239 41.2921 36.49C40.926 36.8561 40.9258 37.4496 41.292 37.8159L46.771 43.2965L45.4541 47.1885C45.3857 47.3899 45.2265 47.4546 45.1376 47.4754C45.049 47.4963 44.8783 47.5083 44.7288 47.3589L31.5767 34.2026C31.4262 34.052 31.4386 33.8804 31.4593 33.7915C31.4801 33.703 31.5448 33.5444 31.7456 33.4765L35.6365 32.1584L38.2112 34.734C38.3942 34.9171 38.6342 35.0088 38.8742 35.0088C39.1141 35.0088 39.354 34.9173 39.5371 34.7343C39.9032 34.3681 39.9033 33.7746 39.5372 33.4085L37.2131 31.0836L41.2125 27.083C42.6325 25.6626 44.5205 24.8803 46.5285 24.8803C47.8682 24.8803 49.1543 25.2285 50.2838 25.882C50.3116 25.9004 50.3402 25.9171 50.3693 25.9323C50.9005 26.249 51.3958 26.6341 51.8445 27.0829C52.2938 27.5325 52.6793 28.0289 52.9963 28.5613C53.0107 28.5886 53.0263 28.6155 53.0436 28.6418C53.698 29.7724 54.0467 31.0601 54.0467 32.4016C54.0467 34.4116 53.2646 36.3005 51.8445 37.7201Z" fill="#B0D3F0"/>
<path d="M39.1556 19.0952C37.6051 19.0952 36.3438 20.3568 36.3438 21.9077C36.3438 22.4255 36.7634 22.8452 37.2812 22.8452C37.7991 22.8452 38.2188 22.4255 38.2188 21.9077C38.2188 21.3907 38.639 20.9702 39.1556 20.9702C39.6735 20.9702 40.0931 20.5505 40.0931 20.0327C40.0931 19.515 39.6735 19.0952 39.1556 19.0952Z" fill="#B0D3F0"/>
<path d="M39.1553 15.1445C35.4269 15.1445 32.3936 18.1787 32.3936 21.908C32.3936 22.4258 32.8132 22.8455 33.3311 22.8455C33.8489 22.8455 34.2686 22.4258 34.2686 21.908C34.2686 19.2125 36.4607 17.0195 39.1553 17.0195C39.6732 17.0195 40.0928 16.5998 40.0928 16.082C40.0928 15.5643 39.6732 15.1445 39.1553 15.1445Z" fill="#B0D3F0"/>
<path d="M56.3008 41.8711C56.3008 42.3888 56.7204 42.8086 57.2383 42.8086C58.7888 42.8086 60.0503 41.547 60.0503 39.9961C60.0503 39.4783 59.6307 39.0586 59.1128 39.0586C58.5949 39.0586 58.1753 39.4783 58.1753 39.9961C58.1753 40.5131 57.755 40.9336 57.2383 40.9336C56.7205 40.9336 56.3008 41.3533 56.3008 41.8711Z" fill="#B0D3F0"/>
<path d="M63.0627 39.0586C62.5448 39.0586 62.1252 39.4783 62.1252 39.9961C62.1252 42.6917 59.9329 44.8847 57.2383 44.8847C56.7204 44.8847 56.3008 45.3045 56.3008 45.8222C56.3008 46.34 56.7204 46.7597 57.2383 46.7597C60.9668 46.7597 64.0002 43.7256 64.0002 39.9961C64.0002 39.4783 63.5805 39.0586 63.0627 39.0586Z" fill="#B0D3F0"/>
<path d="M21.3682 46.1748H25.386C25.9039 46.1748 26.3235 45.7551 26.3235 45.2373C26.3235 44.7196 25.9039 44.2998 25.386 44.2998H21.3682C20.8503 44.2998 20.4307 44.7196 20.4307 45.2373C20.4307 45.7551 20.8504 46.1748 21.3682 46.1748Z" fill="#B0D3F0"/>
<path d="M27.8823 48.6748H21.3682C20.8503 48.6748 20.4307 49.0946 20.4307 49.6123C20.4307 50.1301 20.8503 50.5498 21.3682 50.5498H27.8823C28.4002 50.5498 28.8198 50.1301 28.8198 49.6123C28.8198 49.0946 28.4 48.6748 27.8823 48.6748Z" fill="#B0D3F0"/>
</g>
<defs>
<clipPath id="clip0_2625_109">
<rect width="64" height="64" fill="white"/>
</clipPath>
</defs>
</svg>
