<svg width="64" height="64" viewBox="0 0 64 64" fill="none" xmlns="http://www.w3.org/2000/svg">
<g clip-path="url(#clip0_2619_373)">
<path d="M59.7445 32.8292C59.487 32.3023 59.487 31.698 59.7445 31.1713L62.1314 26.2882C63.4604 23.5693 62.4074 20.3287 59.7342 18.9104L54.933 16.3629C54.415 16.0881 54.0599 15.5991 53.9585 15.0218L53.0195 9.66818C52.4966 6.68745 49.7394 4.68446 46.7435 5.10833L41.3619 5.86958C40.7811 5.95158 40.2067 5.76483 39.7853 5.3572L35.879 1.57823C33.7039 -0.526013 30.2964 -0.526137 28.1214 1.57823L24.2149 5.35758C23.7934 5.76533 23.219 5.9517 22.6383 5.86995L17.2567 5.1087C14.2598 4.68458 11.5036 6.68782 10.9807 9.66855L10.0417 15.0219C9.94037 15.5994 9.58525 16.0883 9.06738 16.3631L4.26616 18.9106C1.59292 20.3289 0.539927 23.5697 1.86892 26.2886L4.25578 31.1716C4.51328 31.6984 4.51328 32.3027 4.25578 32.8294L1.86879 37.7124C0.539802 40.4312 1.5928 43.6719 4.26603 45.0902L9.06725 47.6377C9.58525 47.9125 9.94037 48.4014 10.0417 48.9788L10.9807 54.3324C11.4567 57.0459 13.7835 58.9489 16.4576 58.9486C16.721 58.9486 16.9882 58.9301 17.2568 58.8921L22.6384 58.1309C23.2188 58.0485 23.7935 58.2356 24.215 58.6433L28.1214 62.4222C29.2091 63.4745 30.6044 64.0005 32.0001 64.0004C33.3955 64.0002 34.7916 63.4742 35.8788 62.4222L39.7853 58.6433C40.2068 58.2356 40.7813 58.0494 41.3619 58.1309L46.7435 58.8921C49.7408 59.3161 52.4966 57.313 53.0195 54.3323L53.9586 48.9789C54.06 48.4015 54.4151 47.9126 54.933 47.6377L59.7342 45.0902C62.4074 43.672 63.4604 40.4311 62.1314 37.7123L59.7445 32.8292ZM58.0041 41.8294L53.2029 44.3769C51.6721 45.1892 50.6223 46.634 50.3229 48.3409L49.3839 53.6944C49.207 54.7029 48.2746 55.3803 47.2605 55.2372L41.8789 54.4759C40.1627 54.2328 38.4645 54.7852 37.2188 55.99L33.3124 59.7689C32.5766 60.4806 31.4237 60.4806 30.6878 59.7689L26.7814 55.9899C25.7287 54.9715 24.3524 54.4197 22.9157 54.4197C22.6524 54.4197 22.387 54.4382 22.1213 54.4758L16.7397 55.237C15.7265 55.3803 14.7933 54.7028 14.6163 53.6943L13.6772 48.3407C13.3777 46.6337 12.328 45.1888 10.7971 44.3767L5.9959 41.8292C5.0914 41.3494 4.73515 40.253 5.18478 39.3331L7.57176 34.45C8.33276 32.893 8.33276 31.1073 7.57176 29.5503L5.18478 24.6672C4.73515 23.7473 5.0914 22.651 5.9959 22.1711L10.7971 19.6236C12.3279 18.8113 13.3777 17.3665 13.6771 15.6595L14.6161 10.306C14.7931 9.29756 15.7253 8.62006 16.7395 8.76331L22.1211 9.52455C23.8367 9.76743 25.5355 9.21531 26.7811 8.01044L30.6876 4.23146C31.4234 3.51971 32.5762 3.51971 33.3122 4.23146L37.2186 8.01044C38.4642 9.21543 40.1628 9.76743 41.8787 9.52455L47.2603 8.76331C48.2736 8.61993 49.2068 9.29756 49.3836 10.306L50.3226 15.6596C50.6221 17.3666 51.6719 18.8115 53.2027 19.6236L58.004 22.1711C58.9085 22.651 59.2647 23.7473 58.8151 24.6672L56.4281 29.5502C55.6671 31.1071 55.6671 32.893 56.4281 34.4499L58.8151 39.3329C59.2648 40.253 58.9086 41.3495 58.0041 41.8294Z" fill="#B0D3F0"/>
<path d="M45.4853 18.5142C44.7647 17.7934 43.5959 17.7934 42.8752 18.5142L18.5142 42.8753C17.7934 43.596 17.7934 44.7647 18.5142 45.4854C18.8746 45.8458 19.3469 46.026 19.8192 46.026C20.2914 46.026 20.7639 45.8459 21.1242 45.4854L45.4852 21.1244C46.2062 20.4036 46.2062 19.2351 45.4853 18.5142Z" fill="#B0D3F0"/>
<path d="M24.6174 15.3896C20.886 15.3896 17.8501 18.4255 17.8501 22.157C17.8501 25.8885 20.886 28.9243 24.6174 28.9243C28.3489 28.9243 31.3848 25.8885 31.3848 22.157C31.3848 18.4255 28.3489 15.3896 24.6174 15.3896ZM24.6174 25.233C22.9213 25.233 21.5414 23.8531 21.5414 22.1569C21.5414 20.4607 22.9213 19.0809 24.6174 19.0809C26.3135 19.0809 27.6935 20.4607 27.6935 22.1569C27.6934 23.8531 26.3135 25.233 24.6174 25.233Z" fill="#B0D3F0"/>
<path d="M39.3826 35.0762C35.6511 35.0762 32.6152 38.112 32.6152 41.8435C32.6152 45.575 35.6511 48.6108 39.3826 48.6108C43.114 48.6108 46.1499 45.575 46.1499 41.8435C46.1499 38.112 43.114 35.0762 39.3826 35.0762ZM39.3826 44.9195C37.6865 44.9195 36.3065 43.5396 36.3065 41.8435C36.3065 40.1474 37.6863 38.7675 39.3826 38.7675C41.0787 38.7675 42.4586 40.1474 42.4586 41.8435C42.4586 43.5396 41.0787 44.9195 39.3826 44.9195Z" fill="#B0D3F0"/>
</g>
<defs>
<clipPath id="clip0_2619_373">
<rect width="64" height="64" fill="white"/>
</clipPath>
</defs>
</svg>
