<svg width="64" height="64" viewBox="0 0 64 64" fill="none" xmlns="http://www.w3.org/2000/svg">
<g clip-path="url(#clip0_2625_85)">
<path fill-rule="evenodd" clip-rule="evenodd" d="M14.0199 5.42875L45.6302 60.1804C46.2611 61.2731 47.66 61.6479 48.7526 61.017C49.8453 60.3862 50.2201 58.9873 49.5892 57.8946L17.9789 3.14295C17.3481 2.05034 15.9492 1.67546 14.8565 2.30634C13.7639 2.93722 13.3891 4.33613 14.0199 5.42875ZM32 49.8944C34.5235 49.8944 36.5716 51.9424 36.5716 54.466C36.5716 56.9895 34.5235 59.0375 32 59.0375C29.4765 59.0375 27.4284 56.9895 27.4284 54.466C27.4284 51.9424 29.4765 49.8944 32 49.8944ZM22.4728 44.221C24.0957 42.5981 26.0318 41.4758 28.089 40.854C29.2959 40.4906 29.9817 39.2151 29.6159 38.0059C29.2525 36.799 27.9747 36.1133 26.7678 36.479C24.0134 37.311 21.4168 38.8128 19.2407 40.9889C18.3492 41.8803 18.3492 43.3295 19.2407 44.221C20.1322 45.1148 21.5814 45.1148 22.4728 44.221ZM13.1879 34.9361C15.6429 32.4789 18.4635 30.6022 21.4739 29.3085C22.6328 28.8102 23.17 27.4661 22.6717 26.3072C22.1734 25.1483 20.827 24.6112 19.6681 25.1095C16.1389 26.6249 12.8336 28.8239 9.95351 31.704C9.06205 32.5954 9.06205 34.0446 9.95351 34.9361C10.8473 35.8276 12.2942 35.8276 13.1879 34.9361ZM36.2128 27.4821C41.5592 28.3324 46.6954 30.8171 50.8121 34.9361C51.7059 35.8276 53.1528 35.8276 54.0465 34.9361C54.938 34.0446 54.938 32.5954 54.0465 31.704C49.2189 26.8764 43.1981 23.9643 36.9305 22.9677C35.6847 22.7688 34.5121 23.6191 34.3133 24.8649C34.1167 26.1106 34.967 27.2833 36.2128 27.4821ZM3.90072 25.6489C7.13969 22.4099 10.8015 19.8476 14.708 17.9618C15.844 17.4132 16.3195 16.0463 15.7732 14.9102C15.2246 13.7742 13.8554 13.2965 12.7193 13.8451C8.36259 15.948 4.28016 18.8052 0.668596 22.4168C-0.222865 23.3083 -0.222865 24.7575 0.668596 25.6489C1.56006 26.5427 3.00926 26.5427 3.90072 25.6489ZM29.8377 14.0782C40.7181 13.4885 51.795 17.3469 60.0993 25.6489C60.9908 26.5427 62.44 26.5427 63.3315 25.6489C64.2229 24.7575 64.2229 23.3083 63.3315 22.4168C54.074 13.1593 41.7215 8.85744 29.5908 9.51346C28.3313 9.57975 27.3644 10.6587 27.4307 11.9181C27.4993 13.1776 28.5782 14.1445 29.8377 14.0782Z" fill="#B0D3F0"/>
</g>
<defs>
<clipPath id="clip0_2625_85">
<rect width="64" height="64" fill="white"/>
</clipPath>
</defs>
</svg>
