<svg width="64" height="64" viewBox="0 0 64 64" fill="none" xmlns="http://www.w3.org/2000/svg">
<g clip-path="url(#clip0_2615_295)">
<path d="M58.3658 28.3448C58.0327 27.0711 57.5256 25.8508 56.8527 24.7062L58.0518 22.308L54.0801 18.3362L51.6819 19.5353C50.5372 18.8624 49.3169 18.3543 48.0422 18.0222L47.196 15.4839H41.579L40.7328 18.0222C40.573 18.0635 40.4167 18.1159 40.259 18.1638V5.16129C40.259 2.31552 37.9435 0 35.0977 0H8.25797C5.4122 0 3.09668 2.31552 3.09668 5.16129V58.8387C3.09668 61.6845 5.4122 64 8.25797 64H35.0967C37.9424 64 40.258 61.6845 40.258 58.8387V45.8362C40.4157 45.8841 40.573 45.9365 40.7318 45.9778L41.578 48.5161H47.195L48.0412 45.9778C49.3159 45.6457 50.5362 45.1386 51.6809 44.4647L54.079 45.6638L58.0508 41.692L56.8517 39.2939C57.5236 38.1492 58.0312 36.9289 58.3648 35.6552L60.9031 34.809V29.192L58.3658 28.3448ZM8.25797 2.06452H35.0967C36.8038 2.06452 38.1935 3.45413 38.1935 5.16129V6.19355H5.1612V5.16129C5.1612 3.45413 6.55081 2.06452 8.25797 2.06452ZM35.0967 61.9355H8.25797C6.55081 61.9355 5.1612 60.5459 5.1612 58.8387V55.7419H38.1935V58.8387C38.1935 60.5459 36.8038 61.9355 35.0967 61.9355ZM38.1935 53.6774H5.1612V8.25807H38.1935V18.9577C37.821 19.1361 37.451 19.3251 37.0932 19.5353L36.1289 19.0534V10.3226H7.22571V51.6129H36.1289V44.9466L37.0932 44.4647C37.4525 44.6759 37.821 44.8639 38.1935 45.0423V53.6774ZM31.9213 24.7062C31.2494 25.8508 30.7413 27.0711 30.4082 28.3448L27.8709 29.191V34.808L30.4082 35.6542C30.7413 36.9279 31.2484 38.1482 31.9213 39.2928L30.7222 41.691L34.0644 45.0343V49.5484H9.29023V12.3871H34.0644V18.9657L30.7222 22.307L31.9213 24.7062ZM58.8386 33.3201L56.6108 34.0635L56.4863 34.6376C56.1743 36.0731 55.6078 37.435 54.8043 38.685L54.4868 39.1794L55.5407 41.2853L53.6733 43.1527L51.5664 42.0988L51.072 42.4173C49.822 43.2208 48.4601 43.7873 47.0256 44.0993L46.4515 44.2238L45.7071 46.4516H43.0659L42.3225 44.2238L41.7484 44.0993C40.3129 43.7873 38.952 43.2208 37.702 42.4173L37.2076 42.0988L35.1007 43.1527L33.2333 41.2853L34.2872 39.1794L33.9697 38.685C33.1652 37.435 32.5997 36.0731 32.2877 34.6376L32.1632 34.0635L29.9354 33.3201V30.6789L32.1632 29.9355L32.2877 29.3614C32.5997 27.9259 33.1662 26.564 33.9697 25.314L34.2872 24.8196L33.2333 22.7137L35.1007 20.8463L37.2076 21.9002L37.702 21.5817C38.952 20.7782 40.3139 20.2117 41.7484 19.8997L42.3225 19.7752L43.0669 17.5484H45.7081L46.4515 19.7762L47.0256 19.9007C48.4611 20.2127 49.822 20.7792 51.072 21.5827L51.5664 21.9012L53.6733 20.8473L55.5407 22.7147L54.4868 24.8206L54.8043 25.315C55.6088 26.565 56.1743 27.9269 56.4863 29.3624L56.6108 29.9365L58.8386 30.6799V33.3201Z" fill="#B0D3F0"/>
<path d="M44.387 21.6775C38.695 21.6775 34.0645 26.308 34.0645 32.0001C34.0645 37.6921 38.695 42.3227 44.387 42.3227C50.0791 42.3227 54.7096 37.6921 54.7096 32.0001C54.7096 26.308 50.0791 21.6775 44.387 21.6775ZM44.387 40.2581C39.8336 40.2581 36.129 36.5535 36.129 32.0001C36.129 27.4466 39.8336 23.742 44.387 23.742C48.9405 23.742 52.6451 27.4466 52.6451 32.0001C52.6451 36.5535 48.9405 40.2581 44.387 40.2581Z" fill="#B0D3F0"/>
<path d="M44.3868 27.8708C42.1096 27.8708 40.2578 29.7227 40.2578 31.9999C40.2578 34.2771 42.1096 36.1289 44.3868 36.1289C46.6641 36.1289 48.5159 34.2771 48.5159 31.9999C48.5159 29.7227 46.6641 27.8708 44.3868 27.8708ZM44.3868 34.0644C43.2482 34.0644 42.3223 33.1385 42.3223 31.9999C42.3223 30.8613 43.2482 29.9354 44.3868 29.9354C45.5255 29.9354 46.4514 30.8613 46.4514 31.9999C46.4514 33.1385 45.5255 34.0644 44.3868 34.0644Z" fill="#B0D3F0"/>
<path d="M18.5811 57.8064H24.7746V59.8709H18.5811V57.8064Z" fill="#B0D3F0"/>
<path d="M18.8827 24.4719L21.2497 26.8388H11.3545V28.9033H26.2335L20.3424 23.0122L18.8827 24.4719Z" fill="#B0D3F0"/>
<path d="M11.3545 37.1612H21.2497L18.8827 39.5281L20.3424 40.9878L26.2335 35.0967H11.3545V37.1612Z" fill="#B0D3F0"/>
<path d="M23.7422 30.9678H25.8067V33.0323H23.7422V30.9678Z" fill="#B0D3F0"/>
<path d="M19.6133 30.9678H21.6778V33.0323H19.6133V30.9678Z" fill="#B0D3F0"/>
<path d="M15.4834 30.9678H17.5479V33.0323H15.4834V30.9678Z" fill="#B0D3F0"/>
</g>
<defs>
<clipPath id="clip0_2615_295">
<rect width="64" height="64" fill="white"/>
</clipPath>
</defs>
</svg>
