<svg width="64" height="64" viewBox="0 0 64 64" fill="none" xmlns="http://www.w3.org/2000/svg">
<g clip-path="url(#clip0_2598_291)">
<path d="M63.0844 50.061C62.6688 49.0181 62.0303 48.0787 61.2135 47.3086C60.3966 46.5385 59.4213 45.9563 58.3558 45.6029L56.6841 45.046C57.8548 43.4425 58.518 41.525 58.5882 39.5408C58.6584 37.5567 58.1323 35.5971 57.0779 33.9149C57.7502 33.6287 58.3237 33.1513 58.7271 32.542C59.1304 31.9326 59.3458 31.2182 59.3466 30.4875V24.2031C59.3455 23.2158 58.9528 22.2692 58.2547 21.5711C57.5565 20.8729 56.6099 20.4802 55.6226 20.4791H54.5055C54.4519 20.4636 54.4033 20.4345 54.3643 20.3947C54.3252 20.3549 54.2972 20.3057 54.2827 20.2519C53.8769 18.9781 53.3665 17.7401 52.7565 16.5506C52.7313 16.5106 52.7203 16.4633 52.7252 16.4163C52.7302 16.3693 52.7508 16.3253 52.7838 16.2915L53.577 15.4983C54.2728 14.7999 54.6634 13.8542 54.6631 12.8684C54.6629 11.8826 54.272 10.937 53.5759 10.239L49.1064 5.76946C48.4082 5.07303 47.4624 4.68193 46.4762 4.68193C45.4901 4.68193 44.5442 5.07303 43.846 5.76946L43.0301 6.58541C42.9823 6.63428 42.88 6.6354 42.755 6.56723C41.5845 5.96981 40.3671 5.46888 39.115 5.06943C38.9548 5.01602 38.8662 4.90012 38.8662 4.83988V3.72275C38.8651 2.73544 38.4724 1.78888 37.7742 1.09075C37.0761 0.392608 36.1296 -9.95783e-05 35.1423 -0.0012207H28.8579C27.8706 -0.000124192 26.924 0.392579 26.2258 1.09073C25.5277 1.78888 25.135 2.73546 25.1339 3.7228V4.83993C25.1184 4.89348 25.0893 4.94212 25.0495 4.98114C25.0097 5.02016 24.9605 5.04824 24.9066 5.06266C23.6329 5.46846 22.3949 5.97893 21.2053 6.58885C21.1654 6.61407 21.1181 6.62509 21.0711 6.62015C21.0241 6.6152 20.9801 6.59456 20.9462 6.56157L20.153 5.76832C19.4546 5.07255 18.5089 4.68199 17.5231 4.68221C16.5373 4.68242 15.5918 5.07339 14.8937 5.76946L10.4242 10.239C9.72803 10.9373 9.3371 11.8831 9.3371 12.8692C9.3371 13.8552 9.72803 14.8011 10.4242 15.4994L11.2402 16.3153C11.289 16.3619 11.2902 16.4631 11.222 16.5904C10.6246 17.7609 10.1236 18.9783 9.72419 20.2303C9.67078 20.3906 9.55487 20.4792 9.49464 20.4792H8.37751C7.3902 20.4803 6.44364 20.873 5.7455 21.5711C5.04737 22.2693 4.65466 23.2158 4.65354 24.2031V30.4875C4.65432 31.2182 4.86977 31.9326 5.27313 32.542C5.67649 33.1513 6.24999 33.6287 6.92237 33.9149C5.8679 35.5971 5.34181 37.5567 5.41198 39.5408C5.48215 41.525 6.14537 43.4425 7.31604 45.046L5.64439 45.6029C4.57902 45.9562 3.60378 46.5382 2.78697 47.3081C1.97015 48.078 1.33152 49.0171 0.915789 50.0598L0.210086 51.8235C0.0317182 52.2697 -0.0345843 52.7528 0.0169799 53.2305C0.0685441 53.7083 0.236404 54.1661 0.505871 54.564C0.775338 54.9618 1.1382 55.2876 1.56271 55.5127C1.98722 55.7379 2.46044 55.8556 2.94097 55.8555H19.128C18.7194 56.4174 18.3798 57.0263 18.1166 57.6692L17.3006 59.7103C17.1107 60.1851 17.0399 60.6991 17.0947 61.2075C17.1494 61.7158 17.3279 62.2031 17.6145 62.6265C17.9011 63.0499 18.2871 63.3966 18.7388 63.6363C19.1905 63.876 19.694 64.0013 20.2053 64.0013H43.7949C44.3062 64.0013 44.8097 63.8759 45.2613 63.6363C45.713 63.3966 46.099 63.0498 46.3856 62.6264C46.6723 62.203 46.8507 61.7157 46.9054 61.2074C46.9601 60.699 46.8894 60.1849 46.6994 59.7102L45.8835 57.6691C45.6203 57.0262 45.2807 56.4173 44.8721 55.8554H61.0591C61.5397 55.8554 62.013 55.7376 62.4375 55.5124C62.8621 55.2871 63.2249 54.9613 63.4944 54.5633C63.7639 54.1653 63.9317 53.7074 63.9832 53.2296C64.0347 52.7517 63.9683 52.2685 63.7899 51.8223L63.0844 50.061ZM8.14458 24.2031C8.14424 24.1724 8.15003 24.142 8.16162 24.1136C8.17321 24.0852 8.19035 24.0593 8.21206 24.0376C8.23376 24.0159 8.25958 23.9988 8.288 23.9872C8.31642 23.9756 8.34686 23.9698 8.37755 23.9702H9.49469C10.2905 23.9572 11.0619 23.6934 11.6989 23.2163C12.336 22.7393 12.8062 22.0732 13.0425 21.3132C13.3811 20.2494 13.8049 19.2146 14.3097 18.2188C14.6982 17.518 14.8475 16.7095 14.7346 15.9161C14.6218 15.1228 14.2532 14.3879 13.6846 13.8232L12.8936 13.0323C12.8519 12.9885 12.8285 12.9305 12.8283 12.87C12.828 12.8095 12.851 12.7513 12.8924 12.7072L17.362 8.23765C17.4054 8.19556 17.4635 8.17202 17.5239 8.17202C17.5844 8.17202 17.6425 8.19556 17.6859 8.23765L18.4541 9.00587C19.0125 9.57767 19.7418 9.95232 20.5319 10.0733C21.3219 10.1942 22.1299 10.0549 22.8338 9.67633C23.8486 9.15901 24.9041 8.72573 25.9897 8.38083C26.7451 8.14208 27.4062 7.67156 27.8792 7.03599C28.3522 6.40042 28.6131 5.63206 28.6249 4.83988V3.72275C28.6246 3.69206 28.6304 3.66161 28.642 3.63319C28.6536 3.60477 28.6707 3.57895 28.6924 3.55725C28.7141 3.53555 28.7399 3.5184 28.7683 3.50681C28.7968 3.49523 28.8272 3.48944 28.8579 3.48978H35.1423C35.1729 3.48944 35.2034 3.49523 35.2318 3.50681C35.2602 3.5184 35.286 3.53555 35.3077 3.55725C35.3295 3.57895 35.3466 3.60477 35.3582 3.63319C35.3698 3.66161 35.3756 3.69206 35.3752 3.72275V4.83988C35.3882 5.63568 35.652 6.40708 36.1291 7.04414C36.6061 7.6812 37.2721 8.15141 38.0321 8.38774C39.096 8.72633 40.1308 9.15007 41.1266 9.65485C41.8275 10.0431 42.6359 10.1921 43.4292 10.0793C44.2225 9.9665 44.9573 9.59804 45.5222 9.02981L46.3131 8.23888C46.3571 8.19763 46.4151 8.17456 46.4754 8.17433C46.5357 8.17411 46.5939 8.19673 46.6382 8.23765L51.1077 12.7072C51.1491 12.751 51.1721 12.809 51.1721 12.8692C51.1721 12.9294 51.1491 12.9873 51.1077 13.0311L50.3395 13.7993C49.7668 14.3572 49.3915 15.0865 49.2705 15.8769C49.1495 16.6672 49.2894 17.4754 49.6691 18.179C50.1864 19.1938 50.6197 20.2493 50.9646 21.3349C51.2033 22.0904 51.6738 22.7515 52.3094 23.2246C52.945 23.6976 53.7134 23.9585 54.5056 23.9703H55.6227C55.6534 23.9699 55.6839 23.9757 55.7123 23.9873C55.7407 23.9989 55.7665 24.016 55.7882 24.0377C55.8099 24.0594 55.8271 24.0853 55.8387 24.1137C55.8503 24.1421 55.856 24.1725 55.8557 24.2032V30.4876C55.856 30.5183 55.8503 30.5487 55.8387 30.5771C55.8271 30.6056 55.8099 30.6314 55.7882 30.6531C55.7665 30.6748 55.7407 30.6919 55.7123 30.7035C55.6839 30.7151 55.6534 30.7209 55.6227 30.7205H54.5056C54.1911 30.7221 53.8782 30.7651 53.5749 30.8484C52.7251 30.466 51.8054 30.2638 50.8736 30.2545C49.5454 30.271 48.2507 30.6729 47.1467 31.4114C47.7887 29.0793 47.8835 26.6306 47.4238 24.2559C46.964 21.8812 45.9622 19.6447 44.4963 17.7207C43.0304 15.7967 41.14 14.2372 38.9725 13.1637C36.805 12.0902 34.4189 11.5317 32.0001 11.5317C29.5813 11.5317 27.1952 12.0902 25.0276 13.1637C22.8601 14.2372 20.9698 15.7967 19.5039 17.7207C18.038 19.6447 17.0361 21.8812 16.5764 24.2559C16.1167 26.6306 16.2115 29.0793 16.8534 31.4114C15.7495 30.6729 14.4547 30.271 13.1266 30.2545C12.1949 30.2637 11.2751 30.4659 10.4254 30.8483C10.1221 30.765 9.80919 30.722 9.49469 30.7205H8.37755C8.34686 30.7208 8.31642 30.715 8.288 30.7034C8.25958 30.6918 8.23376 30.6747 8.21206 30.653C8.19035 30.6313 8.17321 30.6055 8.16162 30.577C8.15003 30.5486 8.14424 30.5182 8.14458 30.4875V24.2031ZM20.8473 39.1708C20.8473 38.8659 20.7951 38.5776 20.7695 38.2807C21.7534 39.2977 22.8704 40.1768 24.0901 40.8941C23.5912 42.1907 23.3352 43.5681 23.3349 44.9574C23.346 45.8277 23.4562 46.6939 23.6634 47.5393C22.8137 46.66 21.7665 45.9961 20.6087 45.6029L18.937 45.0461C20.1918 43.3454 20.862 41.2841 20.8473 39.1708ZM25.8526 37.8886C23.5314 36.5373 21.7201 34.4587 20.6989 31.9744C19.6777 29.4901 19.5036 26.7385 20.2034 24.1453C20.9033 21.5521 22.4381 19.2618 24.5705 17.6286C26.7029 15.9954 29.3141 15.1104 32.0001 15.1104C34.686 15.1104 37.2972 15.9954 39.4296 17.6286C41.562 19.2618 43.0968 21.5521 43.7967 24.1453C44.4965 26.7385 44.3224 29.4901 43.3012 31.9744C42.28 34.4587 40.4687 36.5373 38.1475 37.8886C37.4144 36.9599 36.4804 36.2094 35.4157 35.6933C34.351 35.1773 33.1832 34.9092 32.0001 34.9092C30.8169 34.9092 29.6491 35.1773 28.5844 35.6933C27.5197 36.2094 26.5857 36.9599 25.8526 37.8886ZM40.3367 47.5399C40.5439 46.6943 40.654 45.8279 40.6651 44.9574C40.6648 43.5681 40.4088 42.1907 39.91 40.8941C41.1297 40.1768 42.2467 39.2977 43.2306 38.2807C43.205 38.5776 43.1527 38.8659 43.1527 39.1708C43.1381 41.2841 43.8083 43.3454 45.063 45.046L43.3914 45.6029C42.2334 45.9961 41.1862 46.6602 40.3367 47.5399ZM4.15692 51.3565C4.38469 50.7852 4.73462 50.2705 5.18219 49.8487C5.62976 49.4268 6.16415 49.1079 6.74793 48.9143L10.1322 47.787C10.5274 47.6559 10.8805 47.4214 11.1546 47.1079C11.4288 46.7944 11.6141 46.4132 11.6913 46.004C11.7677 45.5863 11.7308 45.1557 11.5845 44.7571C11.4382 44.3584 11.1879 44.0062 10.8595 43.7369C10.2203 43.1641 9.7136 42.4589 9.37466 41.6703C9.03573 40.8817 8.87269 40.0288 8.89688 39.1708C8.76026 37.8945 9.12511 36.615 9.91436 35.6026C10.7036 34.5903 11.8555 33.9244 13.1266 33.7456C14.3977 33.9244 15.5496 34.5903 16.3388 35.6026C17.128 36.615 17.4929 37.8944 17.3563 39.1708C17.3805 40.0287 17.2175 40.8817 16.8785 41.6703C16.5396 42.4588 16.0329 43.1641 15.3937 43.7369C15.0653 44.0062 14.815 44.3584 14.6687 44.7571C14.5224 45.1558 14.4855 45.5863 14.5619 46.0041C14.6389 46.4129 14.8239 46.7938 15.0977 47.1071C15.3714 47.4204 15.724 47.6548 16.1189 47.7859L19.5054 48.9144C20.0889 49.1085 20.6242 49.4276 21.0717 49.8494C21.5192 50.2712 21.8693 50.7855 22.0975 51.3565L22.4998 52.3645H3.7535L4.15692 51.3565ZM20.7405 60.5103L21.3576 58.9647C21.6364 58.2661 22.0645 57.6368 22.612 57.1209C23.1594 56.605 23.8131 56.215 24.527 55.9782L28.4465 54.6726C28.8578 54.5365 29.225 54.2927 29.51 53.9666C29.795 53.6404 29.9874 53.2437 30.067 52.818C30.1467 52.383 30.1083 51.9345 29.9558 51.5194C29.8033 51.1043 29.5423 50.7377 29.2 50.4576C28.4283 49.7685 27.8162 48.9194 27.4062 47.9694C26.9962 47.0195 26.7982 45.9917 26.8261 44.9574C26.6666 43.4063 27.1177 41.854 28.0836 40.6298C29.0495 39.4057 30.4543 38.606 32.0001 38.4003C33.5458 38.6059 34.9506 39.4056 35.9166 40.6298C36.8825 41.8539 37.3336 43.4062 37.1741 44.9574C37.202 45.9913 37.0042 47.019 36.5944 47.9687C36.1846 48.9184 35.5727 49.7674 34.8013 50.4565C34.4587 50.7365 34.1975 51.1033 34.0448 51.5186C33.8921 51.934 33.8536 52.3826 33.9332 52.8179C34.0127 53.2433 34.2047 53.6396 34.4893 53.9656C34.7739 54.2916 35.1407 54.5353 35.5515 54.6714L39.4732 55.9782C40.1869 56.2152 40.8414 56.6053 41.3887 57.1212C41.936 57.637 42.3639 58.2662 42.6426 58.9647L43.2597 60.5103H20.7405ZM41.5004 52.3645L41.9027 51.3576C42.1309 50.7862 42.481 50.2715 42.9288 49.8495C43.3765 49.4275 43.911 49.1083 44.4949 48.9143L47.8791 47.787C48.2744 47.6559 48.6274 47.4214 48.9016 47.1079C49.1757 46.7944 49.361 46.4132 49.4383 46.004C49.5146 45.5863 49.4777 45.1557 49.3315 44.757C49.1852 44.3583 48.9348 44.0061 48.6064 43.7369C47.9672 43.164 47.4605 42.4588 47.1216 41.6702C46.7827 40.8817 46.6196 40.0287 46.6438 39.1708C46.5072 37.8944 46.8721 36.6149 47.6613 35.6026C48.4506 34.5903 49.6024 33.9244 50.8736 33.7456C52.1447 33.9244 53.2965 34.5903 54.0858 35.6026C54.875 36.6149 55.2399 37.8944 55.1033 39.1708C55.1275 40.0287 54.9644 40.8817 54.6255 41.6703C54.2866 42.4588 53.7799 43.1641 53.1407 43.7369C52.8123 44.0062 52.5619 44.3584 52.4156 44.7571C52.2694 45.1558 52.2325 45.5863 52.3088 46.0041C52.3859 46.4129 52.5708 46.7938 52.8446 47.1071C53.1183 47.4204 53.4709 47.6548 53.8657 47.7859L57.2522 48.9144C57.8359 49.1083 58.3713 49.4274 58.8187 49.8494C59.2661 50.2715 59.6157 50.7863 59.8432 51.3577L60.2467 52.3646L41.5004 52.3645Z" fill="#B0D3F0"/>
</g>
<defs>
<clipPath id="clip0_2598_291">
<rect width="64" height="64" fill="white"/>
</clipPath>
</defs>
</svg>
