<svg width="64" height="64" viewBox="0 0 64 64" fill="none" xmlns="http://www.w3.org/2000/svg">
<g clip-path="url(#clip0_2615_390)">
<path d="M58.6667 0H5.33333C2.38933 0 0 2.38933 0 5.33333V50.1333C0 53.0773 2.38933 55.4667 5.33333 55.4667H42.2827C42.8693 55.4667 43.3493 54.9867 43.3493 54.4C43.3493 53.8133 42.8693 53.3333 42.2827 53.3333H5.33333C3.57333 53.3333 2.13333 51.8933 2.13333 50.1333V8.53333H61.8667V50.1333C61.8667 50.7733 61.6747 51.392 61.3227 51.9147C60.992 52.4053 61.12 53.0667 61.6107 53.3973C62.1013 53.728 62.7627 53.6 63.0933 53.1093C63.6907 52.224 64 51.2 64 50.1333V5.33333C64 2.38933 61.6107 0 58.6667 0ZM61.8667 6.4H46.9333V2.13333H58.6667C60.4267 2.13333 61.8667 3.57333 61.8667 5.33333V6.4Z" fill="#B0D3F0"/>
<path d="M60.3422 55.1253L51.9582 47.9786C50.5288 46.7626 48.4915 46.6453 46.9235 47.5626L44.0115 44.6506C46.4755 41.8346 47.9795 38.1653 47.9795 34.1333C47.9795 32.5333 47.7448 30.9653 47.2862 29.4613C47.1795 28.9813 46.7528 28.6293 46.2408 28.6293C45.6542 28.6293 45.1742 29.1093 45.1742 29.7066C45.1742 29.8133 45.1955 29.92 45.2275 30.0266C45.6435 31.3493 45.8462 32.7253 45.8462 34.1333C45.8462 41.7813 39.6275 48 31.9795 48C24.3315 48 18.1128 41.7813 18.1128 34.1333C18.1128 26.4853 24.3315 20.2666 31.9795 20.2666C35.1688 20.2666 38.1662 21.3226 40.6408 23.3173C41.0995 23.6906 41.7715 23.616 42.1448 23.1573C42.5182 22.6986 42.4435 22.0266 41.9848 21.6533C39.1155 19.3493 35.6595 18.1333 31.9795 18.1333C23.1582 18.1333 15.9795 25.312 15.9795 34.1333C15.9795 42.9546 23.1582 50.1333 31.9795 50.1333C36.0115 50.1333 39.6808 48.6293 42.4968 46.1546L45.3982 49.056C44.4808 50.6133 44.5875 52.6506 45.8142 54.0906L52.9608 62.4746C53.7502 63.392 54.8915 63.9466 56.0968 64H56.2675C57.4195 64 58.5288 63.5413 59.3395 62.7306L60.5662 61.504C61.4195 60.6506 61.8782 59.4666 61.8355 58.2613C61.7928 57.056 61.2382 55.9146 60.3102 55.1253H60.3422Z" fill="#B0D3F0"/>
<path d="M53.3335 14.9333H46.9335C46.3469 14.9333 45.8669 15.4133 45.8669 16C45.8669 16.5867 46.3469 17.0667 46.9335 17.0667H50.8589L35.1789 33.6747L30.6242 29.12C30.2082 28.704 29.5362 28.704 29.1202 29.12L22.7202 35.52C22.3042 35.936 22.3042 36.608 22.7202 37.024C22.9335 37.2373 23.2002 37.3333 23.4775 37.3333C23.7549 37.3333 24.0215 37.2267 24.2349 37.024L29.8775 31.3813L34.4535 35.9573C34.6562 36.16 34.9442 36.256 35.2215 36.2667C35.5095 36.2667 35.7869 36.1387 35.9789 35.936L52.2669 18.688V22.4107C52.2669 22.9973 52.7469 23.4773 53.3335 23.4773C53.9202 23.4773 54.4002 22.9973 54.4002 22.4107V16.0107C54.4002 15.424 53.9202 14.944 53.3335 14.944V14.9333Z" fill="#B0D3F0"/>
</g>
<defs>
<clipPath id="clip0_2615_390">
<rect width="64" height="64" fill="white"/>
</clipPath>
</defs>
</svg>
