<svg width="64" height="64" viewBox="0 0 64 64" fill="none" xmlns="http://www.w3.org/2000/svg">
<path d="M31.9999 3.75244C23.2113 3.75244 15.2418 7.31662 9.45292 13.072C9.42777 13.0941 9.39578 13.1017 9.37216 13.1254C9.34854 13.149 9.34092 13.181 9.31882 13.2061C3.56418 18.9943 0 26.9638 0 35.7523C0 43.4826 2.79237 50.9439 7.86588 56.7656C8.48302 57.4764 9.55273 57.5526 10.2651 56.9484L16.9523 51.2829C17.686 50.665 17.766 49.5595 17.1306 48.841C13.9428 45.225 12.1889 40.5752 12.1889 35.7516C12.1889 24.8274 21.075 15.9413 31.9991 15.9413C36.5462 15.9413 40.9903 17.5215 44.508 20.3878C46.2581 21.8164 48.4318 19.1642 46.6734 17.7318C42.9896 14.7276 38.441 12.9395 33.7134 12.5875V7.2671C48.6695 8.16157 60.5712 20.5768 60.5712 35.7523C60.5712 42.0784 58.4752 48.2079 54.636 53.1877L50.5537 49.7454C53.5868 45.7279 55.2387 40.8235 55.2387 35.7523C55.2387 33.4979 54.9148 31.2655 54.2764 29.1162C53.6227 26.9272 50.3503 27.9398 50.9903 30.0937C51.5328 31.9238 51.8093 33.8278 51.8093 35.7523C51.8093 40.5736 50.057 45.2212 46.8737 48.8349C46.2421 49.5488 46.313 50.6544 47.0543 51.2791L53.7529 56.9286C54.4676 57.5336 55.5388 57.449 56.1499 56.7435C61.212 50.9264 63.9998 43.4712 63.9998 35.7523C63.9998 18.1074 49.6448 3.75244 31.9999 3.75244ZM16.8457 18.1722L13.0765 14.4038C17.7203 10.2827 23.7005 7.661 30.2856 7.2671V12.5996C25.1679 12.9768 20.5119 15.0073 16.8457 18.1722ZM13.4552 49.7546L9.37901 53.2075C5.8796 48.6749 3.84303 43.187 3.49942 37.4666H8.83121C9.16035 41.9245 10.7611 46.1889 13.4552 49.7546ZM8.84797 34.038H3.51542C3.90932 27.4522 6.53102 21.472 10.6522 16.8282L14.4213 20.5958C11.2556 24.2628 9.22435 28.9196 8.84797 34.038Z" fill="#B0D3F0"/>
<path d="M35.8798 44.4777C37.4935 42.8617 50.8466 25.3524 52.3644 23.3616C53.5377 21.821 51.6337 19.8294 50.0497 20.8976C46.6074 23.1902 29.3511 34.7147 27.7328 36.333C25.4875 38.5783 25.4875 42.2324 27.7328 44.4777C29.9736 46.7185 33.6292 46.7276 35.8798 44.4777ZM30.1564 38.7566C30.9061 38.0175 37.0044 33.8172 43.2992 29.5581C38.6654 35.5802 34.2037 41.3036 33.4555 42.0533C31.2741 44.2354 27.9743 40.9387 30.1564 38.7566Z" fill="#B0D3F0"/>
<path d="M26.1011 53.7525H37.8999C40.1689 53.7525 40.1689 50.324 37.8999 50.324H26.1011C23.8322 50.324 23.8322 53.7525 26.1011 53.7525Z" fill="#B0D3F0"/>
<path d="M46.4289 56.8188H17.5718C15.3029 56.8188 15.3029 60.2474 17.5718 60.2474H46.4289C48.6971 60.2474 48.6971 56.8188 46.4289 56.8188Z" fill="#B0D3F0"/>
</svg>
