<svg width="64" height="64" viewBox="0 0 64 64" fill="none" xmlns="http://www.w3.org/2000/svg">
<g clip-path="url(#clip0_2625_19)">
<path d="M26.3966 24.1972C26.0215 23.8221 26.0215 23.2084 26.3966 22.8333C26.7717 22.4541 27.3854 22.4541 27.7605 22.8333L28.4569 23.5256L30.4234 21.5756H25.8147V26.4506H31.4356V23.2843L29.1326 25.5707C28.7575 25.9458 28.1439 25.9458 27.7688 25.5707L26.3966 24.1972ZM32.3706 19.6436L33.9069 18.1225C34.282 17.7474 34.8915 17.7474 35.2666 18.1267C35.6417 18.5018 35.6376 19.1113 35.2625 19.4864L33.3663 21.3702V27.4131C33.3663 27.9441 32.9319 28.3785 32.401 28.3785H24.8479C24.3156 28.3785 23.8826 27.9441 23.8826 27.4131V20.6089C23.8826 20.078 24.317 19.6436 24.8479 19.6436H32.3706ZM26.3966 10.644C26.0215 10.2689 26.0215 9.65936 26.3966 9.28012C26.7717 8.90502 27.3854 8.90502 27.7605 9.28012L28.4569 9.97654L30.3172 8.12725H25.6616V13.0022H31.2826V9.88552L29.1326 12.0161C28.7575 12.3954 28.1439 12.3954 27.7688 12.0161L26.3966 10.644ZM32.2644 6.19521L33.9069 4.56932C34.282 4.19422 34.8915 4.19836 35.2666 4.57346C35.6417 4.95269 35.6376 5.56223 35.2625 5.93733L33.2104 7.97003V13.9661C33.2104 14.4984 32.7802 14.9314 32.2493 14.9314H24.6963C24.1639 14.9314 23.7309 14.497 23.7309 13.9661V7.16192C23.7309 6.62961 24.1653 6.19659 24.6963 6.19659H32.2493H32.2644V6.19521ZM16.2689 31.633L17.7349 33.896L20.3537 34.5952C21.0225 34.7717 21.319 35.5881 20.8308 36.1631L19.1456 38.2386L19.2945 40.9512C19.3304 41.6352 18.645 42.1675 17.95 41.8848L15.4525 40.9195L12.9234 41.8972C12.267 42.1509 11.5788 41.631 11.6133 40.9512L11.7581 38.2386L10.0495 36.1314C9.60403 35.5839 9.88949 34.7676 10.5501 34.5952L13.1689 33.896L14.6458 31.6164C15.0292 31.0221 15.9007 31.0428 16.2689 31.633ZM16.3227 35.2557L15.4512 33.9112L14.6031 35.2213C14.4817 35.4322 14.2748 35.5964 14.0211 35.6626L12.4807 36.0735L13.4695 37.2898C13.6253 37.4732 13.7163 37.7118 13.6998 37.9697L13.6143 39.568L15.1036 38.9929C15.3229 38.9102 15.5684 38.9033 15.8001 38.9929L17.2894 39.568L17.2039 37.9697C17.1915 37.7394 17.2632 37.5049 17.4191 37.3133L18.4271 36.0735L16.8826 35.6626C16.6592 35.6046 16.4565 35.4626 16.3227 35.2557ZM17.2618 54.9222L17.266 53.237H13.7439L13.7287 56.5523C13.7287 57.0832 13.2985 57.5176 12.7634 57.5176C12.2311 57.5176 11.7981 57.0832 11.7981 56.5523V55.3359C10.8134 54.5692 9.38614 54.7499 8.6194 55.7303C9.85088 56.0861 10.91 56.9191 11.5471 58.0527C11.805 58.5174 11.6409 59.1049 11.1761 59.3655C10.7114 59.6234 10.1239 59.4593 9.86329 58.9945C9.33925 58.0609 8.3229 57.4459 7.2638 57.4541C7.24449 57.4541 7.22518 57.4541 7.2045 57.4541C4.84358 57.3797 3.33491 57.8803 2.55299 58.6029C1.30634 59.7558 2.2565 61.2175 3.95272 61.7967C4.96907 62.1443 11.5485 62.3828 17.5914 62.3277C22.2388 62.2849 26.4959 62.0739 27.4847 61.6161C28.9589 60.928 29.6001 59.5448 28.3135 58.4967C27.504 57.8361 26.0546 57.3907 23.8606 57.4528C23.7985 57.4569 23.7392 57.461 23.6813 57.4528C23.1614 57.4679 22.6649 57.6127 22.2305 57.8665C21.7768 58.1285 21.3935 58.516 21.1287 58.9918C20.8667 59.4565 20.2806 59.6206 19.8158 59.3627C19.3511 59.1007 19.187 58.5146 19.4449 58.0499C20.082 56.9163 21.1411 56.0834 22.3726 55.7276C21.6058 54.7471 20.1799 54.5664 19.1939 55.3332V56.5495C19.1939 57.0804 18.7595 57.5148 18.2286 57.5148C17.6935 57.5148 17.2632 57.0804 17.2632 56.5495V54.9222H17.2618ZM19.1884 52.531V53.1764C21.2997 52.4303 23.6137 53.4729 24.466 55.529C31.9169 55.6421 32.554 61.3886 28.3011 63.3661C25.3651 64.7341 5.29177 64.2928 3.33353 63.624C-1.62274 61.9347 -1.26419 55.649 6.52325 55.5276C7.37964 53.4632 9.70194 52.4193 11.8201 53.1819L11.8243 52.5558C11.4685 52.1724 11.2451 51.6567 11.2451 51.094L11.2492 48.9551C9.68126 48.0836 8.54768 46.688 7.80576 44.9642L7.2307 45.3117L6.46809 51.0223C6.35501 52.1283 4.86151 52.211 4.58018 51.2099L2.63712 44.2705C2.60126 44.1726 2.58195 44.0637 2.58195 43.9506V39.0715H2.58609C2.58609 38.7047 2.79295 38.3558 3.1446 38.1958L6.60737 36.6168C6.77148 32.3129 7.82645 27.016 9.69918 23.0443C10.8686 20.5621 12.8572 17.5406 15.6649 17.6688C16.2234 17.6964 16.7599 17.8453 17.2756 18.1101V4.78031C17.2756 2.30218 19.3001 0.276367 21.7796 0.276367H49.1466C51.6248 0.276367 53.6506 2.3008 53.6506 4.78031V16.0733L55.2461 13.3097C55.875 12.2189 57.2788 11.8355 58.3738 12.4726L62.8502 15.0569C63.9562 15.6982 64.3244 17.1131 63.69 18.1887L53.652 35.5757V44.4332C53.652 46.9114 51.6275 48.9372 49.148 48.9372H27.0461L26.409 51.2126C26.1277 52.2138 24.6342 52.1311 24.5211 51.0251L24.2398 48.9372H21.781C21.2652 48.9372 20.7522 48.8476 20.2723 48.6752C20.0999 48.7883 19.9248 48.8944 19.7441 48.9924V51.0954C19.7441 51.647 19.5331 52.1517 19.1884 52.531ZM19.2077 19.6946C22.5381 23.5808 24.1846 31.4647 24.3791 36.6168L27.8391 38.1958C28.1949 38.3558 28.4017 38.7047 28.4017 39.0715H28.4059V43.9506C28.4059 44.0637 28.3866 44.174 28.3507 44.2705L27.584 47.0065H49.1466C50.5615 47.0065 51.7186 45.8495 51.7186 44.4346V38.9226C51.4952 39.3101 51.4179 39.5487 50.9959 39.7155L45.0578 42.3578C44.9213 42.4364 44.7613 42.4791 44.5931 42.4791H33.0105C32.4782 42.4791 32.0452 42.0447 32.0452 41.5138C32.0452 40.9788 32.4796 40.5485 33.0105 40.5485H43.5215L42.9396 34.9937C42.9203 34.7869 42.9589 34.591 43.0651 34.4118L51.7199 19.4161V4.78031C51.7199 3.36542 50.5629 2.2084 49.148 2.2084H21.781C20.3702 2.2084 19.209 3.36542 19.209 4.78031V19.6946H19.2077ZM20.5329 26.3154H10.4563C9.24824 29.814 8.51735 34.0753 8.51735 37.8359C8.51735 42.6129 9.67022 48.0381 15.4953 48.0381C19.3497 48.0381 22.4732 45.5006 22.4732 37.8359C22.4719 34.0753 21.741 29.814 20.5329 26.3154ZM13.2075 20.9923C12.4766 21.8487 11.8008 23.0167 11.2023 24.3889H19.7869C19.158 22.9464 17.4108 19.4671 15.3781 19.6009C14.6499 19.6477 13.9149 20.1594 13.2075 20.9923ZM15.4939 49.9701C14.6927 49.9701 13.919 49.8874 13.1757 49.7081V51.0954C13.1757 51.2085 13.2737 51.3064 13.3867 51.3064H17.6011C17.7142 51.3064 17.8121 51.2085 17.8121 51.0954V49.715C17.0743 49.8874 16.2965 49.9701 15.4939 49.9701ZM7.1714 43.0942C6.84733 41.8475 6.6515 40.4009 6.59634 38.7351L4.51261 39.6852V43.8251L5.17317 46.186L5.38417 44.607C5.42278 44.3064 5.59516 44.0554 5.83787 43.9106H5.83373L7.1714 43.0942ZM24.3915 38.7351C24.3405 40.4037 24.1446 41.8503 23.833 43.1011L25.1541 43.9106H25.15C25.3927 44.0554 25.5637 44.305 25.6037 44.607L25.8147 46.186L26.4752 43.8251V39.6852L24.3915 38.7351ZM23.211 44.978C22.8787 45.7557 22.4884 46.4287 22.0457 47.0065H23.9847L23.7585 45.3145L23.211 44.978ZM35.9313 23.4511C35.399 23.4511 34.966 23.0167 34.966 22.4858C34.966 21.9549 35.4004 21.5205 35.9313 21.5205H44.742C45.2743 21.5205 45.7073 21.9549 45.7073 22.4858C45.7073 23.0181 45.2729 23.4511 44.742 23.4511H35.9313ZM35.9313 27.1015C35.399 27.1015 34.966 26.6671 34.966 26.1361C34.966 25.6011 35.4004 25.1708 35.9313 25.1708H43.1244C43.6594 25.1708 44.0897 25.6011 44.0897 26.1361C44.0897 26.6671 43.6594 27.1015 43.1244 27.1015H35.9313ZM35.7755 9.68694C35.2432 9.68694 34.8101 9.25254 34.8101 8.72161C34.8101 8.19068 35.2445 7.75628 35.7755 7.75628H45.0716C45.6066 7.75628 46.0369 8.19068 46.0369 8.72161C46.0369 9.25392 45.6066 9.68694 45.0716 9.68694H35.7755ZM35.7755 13.3373C35.2432 13.3373 34.8101 12.9029 34.8101 12.3719C34.8101 11.8369 35.2445 11.4066 35.7755 11.4066H45.0716C45.6066 11.4066 46.0369 11.8369 46.0369 12.3719C46.0369 12.9042 45.6066 13.3373 45.0716 13.3373H35.7755ZM59.6012 21.4212L54.4918 18.47L45.4963 34.0477C47.4973 34.3842 49.3149 35.435 50.6098 36.9947L59.6012 21.4212ZM55.453 16.8055L60.5623 19.7567L62.0241 17.2234C62.122 17.0552 62.06 16.8207 61.8917 16.7269L57.4857 14.1826C57.2127 14.0378 57.0554 14.053 56.8803 14.3357L55.453 16.8055ZM45.415 40.0962L49.2542 38.3875C48.2061 37.0278 46.6699 36.1438 44.9737 35.9135L45.415 40.0962Z" fill="#0284C7"/>
</g>
<defs>
<clipPath id="clip0_2625_19">
<rect width="64" height="64" fill="white"/>
</clipPath>
</defs>
</svg>
