<svg width="64" height="64" viewBox="0 0 64 64" fill="none" xmlns="http://www.w3.org/2000/svg">
<path d="M61.8125 47.8184H61.4916L61.5075 14.395C61.5084 13.6441 61.2165 12.9379 60.6855 12.4063C60.1543 11.8744 59.4478 11.5814 58.6969 11.5814L54.6106 11.5788C54.6104 11.5788 54.6103 11.5788 54.61 11.5788C54.0925 11.5788 53.6728 11.998 53.6725 12.5156C53.6723 13.0335 54.0916 13.4534 54.6094 13.4538L58.6963 13.4564C58.9465 13.4564 59.1819 13.554 59.3589 13.7313C59.5356 13.9081 59.6327 14.1431 59.6325 14.3934L59.6166 47.8183H57.1662V29.0276C57.1662 27.1226 55.6169 25.5726 53.7125 25.5726H46.8321V13.4505L50.2344 13.4526H50.2349C50.7524 13.4526 51.1721 13.0333 51.1724 12.5158C51.1726 11.9979 50.7532 11.578 50.2354 11.5776L46.832 11.5755V6.01851C46.832 4.46013 45.5641 3.19238 44.0059 3.19238H2.82638C1.268 3.19238 0 4.46038 0 6.01876V37.9789C0 39.4253 1.09225 40.6206 2.49513 40.7853L2.49175 47.8189H2.1875C1.60338 47.8189 1.054 48.0465 0.64275 48.4579C0.22825 48.87 0 49.4199 0 50.0064C0 52.5911 2.10275 54.6939 4.6875 54.6939H8.09875C8.6165 54.6939 9.03625 54.2743 9.03625 53.7564C9.03625 53.2385 8.6165 52.8189 8.09875 52.8189H4.6875C3.13663 52.8189 1.875 51.5571 1.875 50.0064C1.875 49.8936 1.93125 49.8209 1.96675 49.7855C2.00088 49.7513 2.07513 49.6939 2.1875 49.6939H34.6162V52.8189H12.4738C11.956 52.8189 11.5363 53.2385 11.5363 53.7564C11.5363 54.2743 11.956 54.6939 12.4738 54.6939H34.6162V57.3528C34.6162 59.2578 36.1661 60.8078 38.0713 60.8078H53.7125C55.6169 60.8078 57.1662 59.2579 57.1662 57.3528V54.6935H59.3125C61.8972 54.6935 64 52.5908 64 50.006C64 48.7996 63.0186 47.8184 61.8125 47.8184ZM1.875 37.9789V6.01876C1.875 5.49413 2.30187 5.06738 2.82638 5.06738H44.006C44.5305 5.06738 44.9571 5.49401 44.9571 6.01851V25.5726H43.2075V7.75513C43.2075 7.23726 42.7878 6.81763 42.27 6.81763H13.985C13.4672 6.81763 13.0475 7.23726 13.0475 7.75513C13.0475 8.27301 13.4672 8.69263 13.985 8.69263H41.3325V25.5726H38.0713C36.1661 25.5726 34.6162 27.1225 34.6162 29.0276V35.3053H5.5V8.69276H9.61C10.1277 8.69276 10.5475 8.27313 10.5475 7.75526C10.5475 7.23738 10.1277 6.81776 9.61 6.81776H4.5625C4.04475 6.81776 3.625 7.23738 3.625 7.75526V36.2428C3.625 36.7606 4.04475 37.1803 4.5625 37.1803H34.6162V38.9304H2.82638C2.30187 38.9303 1.875 38.5035 1.875 37.9789ZM55.2912 57.3526C55.2912 58.2239 54.583 58.9326 53.7125 58.9326H38.0713C37.2 58.9326 36.4912 58.2239 36.4912 57.3526V46.9639C36.4912 46.446 36.0715 46.0264 35.5537 46.0264C35.036 46.0264 34.6162 46.446 34.6162 46.9639V47.8189H4.36688L4.37012 40.8054H34.6162V42.589C34.6162 43.1069 35.036 43.5265 35.5537 43.5265C36.0715 43.5265 36.4912 43.1069 36.4912 42.589V29.0278C36.4912 28.1565 37.2 27.4478 38.0713 27.4478H53.7125C54.583 27.4478 55.2912 28.1565 55.2912 29.0278V57.3526ZM59.3125 52.8184H57.1662V49.6934H61.8125C61.9848 49.6934 62.125 49.8335 62.125 50.0059C62.125 51.5566 60.8634 52.8184 59.3125 52.8184Z" fill="#B0D3F0"/>
<path d="M23.4159 31.0668C28.5538 31.0668 32.7336 26.8869 32.7336 21.749C32.7336 16.611 28.5538 12.4312 23.4159 12.4312C18.278 12.4312 14.0981 16.611 14.0981 21.749C14.098 26.8869 18.278 31.0668 23.4159 31.0668ZM23.4159 14.3062C27.5199 14.3062 30.8586 17.645 30.8586 21.749C30.8586 25.853 27.5199 29.1918 23.4159 29.1918C19.3119 29.1918 15.9731 25.853 15.9731 21.749C15.9731 17.645 19.3119 14.3062 23.4159 14.3062Z" fill="#B0D3F0"/>
<path d="M22.1308 25.3208C22.3091 25.5214 22.5643 25.6358 22.8317 25.6358C22.8417 25.6358 22.8518 25.6356 22.8618 25.6353C23.1402 25.6264 23.4001 25.4941 23.5712 25.2744L27.8727 19.754C28.191 19.3456 28.1178 18.7566 27.7095 18.4384C27.301 18.12 26.7118 18.193 26.3937 18.6018L22.7846 23.2335L20.8997 21.1111C20.556 20.724 19.9633 20.6889 19.5762 21.0328C19.1891 21.3765 19.154 21.969 19.4977 22.3563L22.1308 25.3208Z" fill="#B0D3F0"/>
<path d="M44.2134 30.7109H47.5699C48.0876 30.7109 48.5074 30.2913 48.5074 29.7734C48.5074 29.2556 48.0876 28.8359 47.5699 28.8359H44.2134C43.6956 28.8359 43.2759 29.2556 43.2759 29.7734C43.2759 30.2913 43.6956 30.7109 44.2134 30.7109Z" fill="#B0D3F0"/>
<path d="M45.8917 35.7212C41.7733 35.7212 38.4229 39.0717 38.4229 43.1901C38.4229 47.3084 41.7733 50.6589 45.8917 50.6589C50.0101 50.6589 53.3606 47.3084 53.3606 43.1901C53.3606 39.0717 50.0101 35.7212 45.8917 35.7212ZM45.8917 48.7838C42.8072 48.7838 40.2979 46.2744 40.2979 43.1899C40.2979 40.1054 42.8072 37.5961 45.8917 37.5961C48.9762 37.5961 51.4856 40.1054 51.4856 43.1899C51.4856 46.2744 48.9762 48.7838 45.8917 48.7838Z" fill="#B0D3F0"/>
<path d="M49.1693 40.6025C48.7608 40.284 48.1719 40.3572 47.8536 40.7657L45.4361 43.8682L44.2806 42.5671C43.9368 42.1799 43.3442 42.1449 42.9571 42.4887C42.5699 42.8325 42.5348 43.425 42.8786 43.8122L44.7821 45.9556C44.9603 46.1562 45.2156 46.2706 45.4829 46.2706C45.4929 46.2706 45.5031 46.2705 45.5131 46.2701C45.7914 46.2612 46.0513 46.129 46.2224 45.9094L49.3324 41.9182C49.6509 41.5099 49.5778 40.9207 49.1693 40.6025Z" fill="#B0D3F0"/>
</svg>
