<svg width="64" height="64" viewBox="0 0 64 64" fill="none" xmlns="http://www.w3.org/2000/svg">
<g clip-path="url(#clip0_2619_311)">
<path d="M51.0625 47.7402C51.5803 47.7402 52 47.3205 52 46.8027C52 46.285 51.5803 45.8652 51.0625 45.8652C50.5447 45.8652 50.125 46.285 50.125 46.8027C50.125 47.3205 50.5447 47.7402 51.0625 47.7402Z" fill="#B0D3F0"/>
<path d="M54.375 47.7402C54.8928 47.7402 55.3125 47.3205 55.3125 46.8027C55.3125 46.285 54.8928 45.8652 54.375 45.8652C53.8572 45.8652 53.4375 46.285 53.4375 46.8027C53.4375 47.3205 53.8572 47.7402 54.375 47.7402Z" fill="#B0D3F0"/>
<path d="M57.6875 47.7402C58.2053 47.7402 58.625 47.3205 58.625 46.8027C58.625 46.285 58.2053 45.8652 57.6875 45.8652C57.1697 45.8652 56.75 46.285 56.75 46.8027C56.75 47.3205 57.1697 47.7402 57.6875 47.7402Z" fill="#B0D3F0"/>
<path d="M60.7344 7.42H47.3146C43.733 2.90287 38.1994 0 32 0C25.8006 0 20.267 2.90287 16.6852 7.42H3.26562C1.71475 7.42 0.453125 8.68163 0.453125 10.2325V48.0059C0.453125 49.9014 1.99513 51.4434 3.89062 51.4434H23.8861V56.937H9.77775C8.91612 56.937 8.21525 57.6379 8.21525 58.4995V62.4375C8.21525 63.2991 8.91612 64 9.77775 64H54.2221C55.0838 64 55.7846 63.2991 55.7846 62.4375V58.4995C55.7846 57.6379 55.0838 56.937 54.2221 56.937H49.375C48.8571 56.937 48.4375 57.3568 48.4375 57.8745C48.4375 58.3923 48.8571 58.812 49.375 58.812H53.9096V62.125H10.0903V58.812H45C45.5179 58.812 45.9375 58.3923 45.9375 57.8745C45.9375 57.3568 45.5179 56.937 45 56.937H40.1139V51.4434H60.1094C62.0049 51.4434 63.5469 49.9014 63.5469 48.0059V10.2325C63.5469 8.68175 62.2851 7.42 60.7344 7.42ZM47.819 11.6875C48.8664 13.7896 49.5078 16.128 49.6376 18.5999H42.153C42.0951 16.1846 41.812 13.85 41.3279 11.6875H47.819ZM38.8734 29.2624C37.5377 33.4764 35.38 36.4636 32.9375 37.0806V29.2624H38.8734ZM32.9375 27.3874V20.475H40.2769C40.2131 22.9324 39.9002 25.2746 39.3931 27.3874H32.9375ZM39.3641 33.1063C39.9441 31.9371 40.4391 30.6452 40.8456 29.2624H46.7364C44.5004 32.6395 41.1363 35.2071 37.185 36.4229C37.9806 35.5282 38.7135 34.4179 39.3641 33.1063ZM41.3279 27.3874C41.812 25.2249 42.0951 22.8903 42.153 20.475H49.6375C49.5076 22.9469 48.8662 25.2852 47.8189 27.3874H41.3279ZM46.7364 9.8125H40.8456C40.4391 8.42963 39.944 7.13775 39.3641 5.96863C38.7135 4.657 37.9806 3.54662 37.1851 2.652C41.1364 3.86787 44.5004 6.4355 46.7364 9.8125ZM32.9375 1.99437C35.3801 2.61137 37.5377 5.59863 38.8734 9.8125H32.9375V1.99437ZM32 13.6875C32.5179 13.6875 32.9375 13.2678 32.9375 12.75V11.6875H39.3931C39.9004 13.8003 40.2131 16.1425 40.2769 18.5999H32.9375V17.25C32.9375 16.7322 32.5179 16.3125 32 16.3125C31.4822 16.3125 31.0625 16.7322 31.0625 17.25V18.6H23.7231C23.7869 16.1426 24.0997 13.8002 24.6069 11.6876H31.0625V12.7501C31.0625 13.2677 31.4822 13.6875 32 13.6875ZM23.1544 29.2624C23.5609 30.6452 24.0559 31.9373 24.6359 33.1063C25.2865 34.4179 26.0194 35.5282 26.8149 36.4229C22.8636 35.2071 19.4996 32.6394 17.2635 29.2624H23.1544ZM16.181 27.3874C15.1336 25.2852 14.4924 22.947 14.3624 20.475H21.8471C21.905 22.8901 22.1881 25.2249 22.6723 27.3874H16.181ZM25.1266 29.2624H31.0625V37.0806C28.6199 36.4635 26.4623 33.4764 25.1266 29.2624ZM24.6069 27.3874C24.0996 25.2746 23.7869 22.9324 23.7231 20.475H31.0625V27.3874H24.6069ZM31.0625 1.99437V9.8125H25.1266C26.4623 5.59863 28.62 2.61137 31.0625 1.99437ZM26.8149 2.65212C26.0192 3.54662 25.2865 4.65712 24.6359 5.96875C24.056 7.13787 23.5609 8.42975 23.1544 9.81262H17.2635C19.4996 6.4355 22.8636 3.86787 26.8149 2.65212ZM22.6723 11.6875C22.1881 13.85 21.905 16.1847 21.8471 18.5999H14.3625C14.4924 16.1279 15.1338 13.7896 16.1811 11.6875H22.6723ZM38.2389 56.937H25.7611V51.4434H38.2389V56.937ZM61.6719 42.4701H19.1249C18.6071 42.4701 18.1874 42.8899 18.1874 43.4076C18.1874 43.9254 18.6071 44.3451 19.1249 44.3451H61.6719V48.0059C61.6719 48.8675 60.971 49.5684 60.1094 49.5684H3.89062C3.029 49.5684 2.32812 48.8675 2.32812 48.0059V44.3451H14.75C15.2678 44.3451 15.6875 43.9254 15.6875 43.4076C15.6875 42.8899 15.2678 42.4701 14.75 42.4701H2.32812V10.2325C2.32812 9.7155 2.74862 9.295 3.26562 9.295H15.3695C13.5274 12.2751 12.4625 15.784 12.4625 19.5375C12.4625 30.3105 21.227 39.075 32 39.075C42.773 39.075 51.5375 30.3105 51.5375 19.5375C51.5375 15.7841 50.4726 12.2751 48.6305 9.29513H60.7344C61.2514 9.29513 61.6719 9.71562 61.6719 10.2326V42.4701Z" fill="#B0D3F0"/>
<path d="M12.2656 37.375H6.26562C5.74787 37.375 5.32812 37.7947 5.32812 38.3125C5.32812 38.8303 5.74787 39.25 6.26562 39.25H12.2656C12.7834 39.25 13.2031 38.8303 13.2031 38.3125C13.2031 37.7947 12.7834 37.375 12.2656 37.375Z" fill="#B0D3F0"/>
<path d="M6.26562 36H8.51562C9.03338 36 9.45312 35.5803 9.45312 35.0625C9.45312 34.5447 9.03338 34.125 8.51562 34.125H6.26562C5.74787 34.125 5.32812 34.5447 5.32812 35.0625C5.32812 35.5803 5.74787 36 6.26562 36Z" fill="#B0D3F0"/>
<path d="M57.7656 37.375H55.2656C54.7477 37.375 54.3281 37.7947 54.3281 38.3125C54.3281 38.8303 54.7477 39.25 55.2656 39.25H57.7656C58.2835 39.25 58.7031 38.8303 58.7031 38.3125C58.7031 37.7947 58.2835 37.375 57.7656 37.375Z" fill="#B0D3F0"/>
<path d="M57.7656 34.125H55.2656C54.7477 34.125 54.3281 34.5447 54.3281 35.0625C54.3281 35.5803 54.7477 36 55.2656 36H57.7656C58.2835 36 58.7031 35.5803 58.7031 35.0625C58.7031 34.5447 58.2835 34.125 57.7656 34.125Z" fill="#B0D3F0"/>
<path d="M57.7656 30.875H55.2656C54.7477 30.875 54.3281 31.2947 54.3281 31.8125C54.3281 32.3303 54.7477 32.75 55.2656 32.75H57.7656C58.2835 32.75 58.7031 32.3303 58.7031 31.8125C58.7031 31.2947 58.2835 30.875 57.7656 30.875Z" fill="#B0D3F0"/>
</g>
<defs>
<clipPath id="clip0_2619_311">
<rect width="64" height="64" fill="white"/>
</clipPath>
</defs>
</svg>
