<svg width="64" height="64" viewBox="0 0 64 64" fill="none" xmlns="http://www.w3.org/2000/svg">
<path d="M21.002 34.5132H30.996C31.549 34.5132 31.996 34.0662 31.996 33.5132C31.996 32.9602 31.549 32.5132 30.996 32.5132H21.002C20.449 32.5132 20.002 32.9602 20.002 33.5132C20.002 34.0662 20.449 34.5132 21.002 34.5132Z" fill="#B0D3F0"/>
<path d="M22.002 37.5132C22.002 38.0662 22.449 38.5132 23.002 38.5132H33.996C34.549 38.5132 34.996 38.0662 34.996 37.5132C34.996 36.9602 34.549 36.5132 33.996 36.5132H23.002C22.449 36.5132 22.002 36.9602 22.002 37.5132Z" fill="#B0D3F0"/>
<path d="M31.002 48.5171H23.002C22.449 48.5171 22.002 48.9641 22.002 49.5171C22.002 50.0701 22.449 50.5171 23.002 50.5171H31.002C31.555 50.5171 32.002 50.0701 32.002 49.5171C32.002 48.9641 31.555 48.5171 31.002 48.5171Z" fill="#B0D3F0"/>
<path d="M37.9961 38.5132H39.9961C40.5491 38.5132 40.9961 38.0662 40.9961 37.5132C40.9961 36.9602 40.5491 36.5132 39.9961 36.5132H37.9961C37.4431 36.5132 36.9961 36.9602 36.9961 37.5132C36.9961 38.0662 37.4431 38.5132 37.9961 38.5132Z" fill="#B0D3F0"/>
<path d="M26.002 52.5049H21.002C20.449 52.5049 20.002 52.9519 20.002 53.5049C20.002 54.0579 20.449 54.5049 21.002 54.5049H26.002C26.555 54.5049 27.002 54.0579 27.002 53.5049C27.002 52.9519 26.555 52.5049 26.002 52.5049Z" fill="#B0D3F0"/>
<path d="M25.002 40.5132C24.449 40.5132 24.002 40.9602 24.002 41.5132C24.002 42.0662 24.449 42.5132 25.002 42.5132H28.002C28.555 42.5132 29.002 42.0662 29.002 41.5132C29.002 40.9602 28.555 40.5132 28.002 40.5132H25.002Z" fill="#B0D3F0"/>
<path d="M31.002 41.5132C31.002 42.0662 31.449 42.5132 32.002 42.5132H43.996C44.549 42.5132 44.996 42.0662 44.996 41.5132C44.996 40.9602 44.549 40.5132 43.996 40.5132H32.002C31.449 40.5132 31.002 40.9602 31.002 41.5132Z" fill="#B0D3F0"/>
<path d="M38.996 44.5132H25.002C24.449 44.5132 24.002 44.9602 24.002 45.5132C24.002 46.0662 24.449 46.5132 25.002 46.5132H38.996C39.549 46.5132 39.996 46.0662 39.996 45.5132C39.996 44.9602 39.549 44.5132 38.996 44.5132Z" fill="#B0D3F0"/>
<path d="M45.9961 44.5132H42.9961C42.4431 44.5132 41.9961 44.9602 41.9961 45.5132C41.9961 46.0662 42.4431 46.5132 42.9961 46.5132H45.9961C46.5491 46.5132 46.9961 46.0662 46.9961 45.5132C46.9961 44.9602 46.5491 44.5132 45.9961 44.5132Z" fill="#B0D3F0"/>
<path d="M58.0133 42.5142H58.0023C57.4503 42.5142 57.0083 42.9612 57.0083 43.5142C57.0083 44.0672 57.4603 44.5142 58.0133 44.5142C58.5653 44.5142 59.0133 44.0672 59.0133 43.5142C59.0133 42.9612 58.5643 42.5142 58.0133 42.5142Z" fill="#B0D3F0"/>
<path d="M57.9821 35.5141C55.0141 35.5141 52.5491 37.6811 52.0721 40.5151L50.9701 40.5141V29.5171C50.9701 29.4861 50.9551 29.4601 50.9521 29.4301V27.5171C50.9521 25.8631 49.6061 24.5171 47.9521 24.5171H15.9981C14.3441 24.5171 12.9981 25.8631 12.9981 27.5171V29.5171C12.9981 29.5481 13.0131 29.5741 13.0161 29.6041V48.5181H11.9281C11.4501 45.6841 8.98607 43.5171 6.01807 43.5171C2.70907 43.5171 0.0180664 46.2081 0.0180664 49.5161C0.0180664 52.8241 2.70807 55.5161 6.01607 55.5171C8.98307 55.5171 11.4481 53.3511 11.9271 50.5181H13.0161V57.4991C13.0161 58.0521 13.4631 58.4991 14.0161 58.4991H49.9711C50.5241 58.4991 50.9711 58.0521 50.9711 57.4991V42.5141L52.0741 42.5151C52.5531 45.3481 55.0181 47.5141 57.9851 47.5141C61.2931 47.5131 63.9831 44.8211 63.9831 41.5131C63.9831 38.2051 61.2911 35.5141 57.9821 35.5141ZM6.01607 53.5171C3.81207 53.5161 2.01807 51.7211 2.01807 49.5161C2.01807 47.3111 3.81207 45.5171 6.01807 45.5171C8.22407 45.5171 10.0181 47.3111 10.0181 49.5151C10.0181 51.7221 8.22307 53.5171 6.01607 53.5171ZM15.9981 26.5171H17.0181C16.4661 26.5171 16.0241 26.9641 16.0241 27.5171C16.0241 28.0701 16.4761 28.5171 17.0291 28.5171C17.5811 28.5171 18.0291 28.0701 18.0291 27.5171C18.0291 26.9641 17.5811 26.5171 17.0291 26.5171H20.0181C19.4661 26.5171 19.0241 26.9641 19.0241 27.5171C19.0241 28.0701 19.4761 28.5171 20.0291 28.5171C20.5811 28.5171 21.0291 28.0701 21.0291 27.5171C21.0291 26.9641 20.5811 26.5171 20.0291 26.5171H23.0181C22.4661 26.5171 22.0241 26.9641 22.0241 27.5171C22.0241 28.0701 22.4761 28.5171 23.0291 28.5171C23.5811 28.5171 24.0291 28.0701 24.0291 27.5171C24.0291 26.9641 23.5811 26.5171 23.0291 26.5171H47.9541C48.5061 26.5171 48.9541 26.9651 48.9541 27.5171V28.5171H23.0291H20.0291H17.0291H17.0211C17.0141 28.5171 17.0081 28.5131 17.0011 28.5131C16.9941 28.5131 16.9881 28.5171 16.9811 28.5171H14.9971V27.5171C14.9981 26.9651 15.4461 26.5171 15.9981 26.5171ZM15.0161 30.5171H16.0021V49.4501C15.9651 48.9301 15.5431 48.5171 15.0161 48.5171V30.5171ZM15.0161 50.5171C15.5441 50.5171 15.9651 50.1031 16.0021 49.5841V56.4991H15.0161V50.5171ZM18.0021 56.4991V30.5171H48.9711V40.5171C48.4261 40.5251 47.9851 40.9661 47.9851 41.5141C47.9851 42.0611 48.4251 42.5031 48.9711 42.5111V56.4991H18.0021ZM57.9841 45.5141C55.7771 45.5141 53.9821 43.7191 53.9821 41.5121C53.9821 39.3081 55.7761 37.5141 57.9821 37.5141C60.1881 37.5141 61.9821 39.3081 61.9821 41.5131C61.9821 43.7181 60.1881 45.5131 57.9841 45.5141Z" fill="#B0D3F0"/>
<path d="M57.9839 42.5142C58.5379 42.5132 58.9849 42.0662 58.9839 41.5132L58.9819 39.5132C58.9809 38.9612 58.5339 38.5142 57.9819 38.5142C57.4289 38.5152 56.9809 38.9622 56.9819 39.5152L56.9839 41.5152C56.9849 42.0662 57.4329 42.5142 57.9839 42.5142Z" fill="#B0D3F0"/>
<path d="M6.04797 50.5171H6.03697C5.48497 50.5171 5.04297 50.9641 5.04297 51.5171C5.04297 52.0701 5.49497 52.5171 6.04797 52.5171C6.59997 52.5171 7.04797 52.0701 7.04797 51.5171C7.04797 50.9641 6.59997 50.5171 6.04797 50.5171Z" fill="#B0D3F0"/>
<path d="M6.01512 50.5171C6.56811 50.5171 7.01511 50.0701 7.01611 49.5181L7.01812 47.5181C7.01912 46.9651 6.57212 46.5181 6.01912 46.5171C5.46712 46.5171 5.01912 46.9641 5.01812 47.5161L5.01611 49.5161C5.01511 50.0681 5.46212 50.5161 6.01512 50.5171Z" fill="#B0D3F0"/>
<path d="M31.9819 8.50195C29.2249 8.50195 26.9819 10.745 26.9819 13.502C26.9819 16.259 29.2249 18.502 31.9819 18.502C34.7389 18.502 36.9819 16.259 36.9819 13.502C36.9819 10.745 34.7389 8.50195 31.9819 8.50195ZM31.9819 16.502C30.3279 16.502 28.9819 15.156 28.9819 13.502C28.9819 11.848 30.3279 10.502 31.9819 10.502C33.6359 10.502 34.9819 11.848 34.9819 13.502C34.9819 15.156 33.6369 16.502 31.9819 16.502Z" fill="#B0D3F0"/>
<path d="M31.9842 5.50098C26.9272 5.50098 22.2942 8.47798 20.1762 13.084C20.0552 13.349 20.0552 13.653 20.1762 13.918C22.2932 18.524 26.9272 21.501 31.9842 21.501C37.0382 21.501 41.6722 18.524 43.7912 13.919C43.9132 13.653 43.9132 13.349 43.7912 13.083C41.6732 8.47798 37.0382 5.50098 31.9842 5.50098ZM31.9842 19.501C27.8612 19.501 24.0702 17.161 22.1972 13.501C24.0702 9.84098 27.8612 7.50098 31.9842 7.50098C36.1052 7.50098 39.8972 9.84098 41.7712 13.501C39.8972 17.161 36.1052 19.501 31.9842 19.501Z" fill="#B0D3F0"/>
</svg>
