<svg width="64" height="64" viewBox="0 0 64 64" fill="none" xmlns="http://www.w3.org/2000/svg">
<path d="M44.5071 23.7668L44.2871 23.7859C44.2871 24.8198 44.3986 25.7286 44.781 26.6039L44.9916 26.5405L44.5071 23.7668Z" fill="white" stroke="white" stroke-width="0.2"/>
<path d="M44.9721 26.4939L44.7812 26.6039C45.159 27.4684 45.7446 28.1696 46.4558 28.8808L46.6234 28.7368L44.9721 26.4939Z" fill="white" stroke="white" stroke-width="0.2"/>
<path fill-rule="evenodd" clip-rule="evenodd" d="M29.3518 13.17C30.12 12.5837 30.9643 12.1477 32.0006 12.1477C33.0371 12.1477 33.8814 12.5837 34.6496 13.17C35.3693 13.7191 36.163 14.5129 37.0917 15.4417L37.1571 15.507C38.1072 16.4572 38.9357 16.8315 40.2147 16.8315C40.3747 16.8315 40.5773 16.8257 40.8063 16.8193C41.3876 16.8028 42.1391 16.7815 42.7959 16.8369C43.7591 16.9183 44.9656 17.1771 45.8856 18.0895C46.8127 19.0089 47.0779 20.2203 47.1618 21.1895C47.2189 21.8522 47.1978 22.6095 47.1813 23.195C47.1748 23.4233 47.1691 23.6256 47.1691 23.7859C47.1691 24.6184 47.2616 25.0834 47.4221 25.4506C47.5868 25.8279 47.8775 26.2274 48.4937 26.8436L48.5591 26.909C49.4878 27.8376 50.2815 28.6313 50.8306 29.3509C51.4169 30.1193 51.8529 30.9636 51.8529 32C51.8529 33.0362 51.4169 33.8805 50.8306 34.6489C50.2815 35.3687 49.4875 36.1626 48.5586 37.0916L48.4936 37.1564C47.8775 37.7725 47.5868 38.172 47.4221 38.5492C47.2616 38.9165 47.1691 39.3815 47.1691 40.214C47.1691 40.3743 47.1748 40.5765 47.1813 40.805C47.1978 41.3903 47.2189 42.1477 47.1618 42.8105C47.0779 43.7797 46.8127 44.9911 45.8854 45.9105C44.9654 46.8229 43.759 47.0816 42.7959 47.1629C42.1391 47.2185 41.3876 47.197 40.8063 47.1806C40.5773 47.1742 40.3747 47.1684 40.2147 47.1684C39.4 47.1684 38.942 47.2504 38.5815 47.3991C38.2214 47.5477 37.8362 47.8138 37.2562 48.3939C37.1322 48.518 36.9687 48.6928 36.7804 48.8949C36.3558 49.3501 35.8036 49.9418 35.2881 50.3925C34.5054 51.0766 33.3829 51.8523 32.0006 51.8523C30.6186 51.8523 29.496 51.0766 28.7136 50.3925C28.1978 49.9418 27.6456 49.3501 27.221 48.8949C27.0326 48.6928 26.8693 48.518 26.7454 48.3941C26.1652 47.8138 25.7799 47.5477 25.4198 47.3991C25.0594 47.2504 24.6014 47.1684 23.7866 47.1684C23.6268 47.1684 23.4241 47.1742 23.1951 47.1806C22.6138 47.197 21.8621 47.2185 21.2055 47.1629C20.2424 47.0816 19.036 46.8229 18.1159 45.9105C17.1888 44.9911 16.9235 43.7797 16.8397 42.8105C16.7823 42.1477 16.8037 41.3903 16.8201 40.805C16.8266 40.5765 16.8322 40.3743 16.8322 40.214C16.8322 39.3815 16.7397 38.9165 16.5793 38.5492C16.4146 38.172 16.1239 37.7725 15.5077 37.1564L15.4429 37.0916C14.5139 36.1626 13.7199 35.3687 13.1708 34.6489C12.5845 33.8805 12.1485 33.0362 12.1484 32C12.1485 30.9636 12.5845 30.1193 13.1708 29.3509C13.7198 28.6313 14.5136 27.8375 15.4424 26.9089L15.5077 26.8436C16.4582 25.8931 16.8322 25.0646 16.8322 23.7859C16.8322 23.626 16.8265 23.4235 16.82 23.1944C16.8036 22.6131 16.7823 21.8613 16.8377 21.2047C16.919 20.2416 17.1778 19.0352 18.0902 18.1151C19.0096 17.188 20.221 16.9227 21.1902 16.8389C21.8529 16.7816 22.6103 16.8029 23.1958 16.8194C23.4241 16.8258 23.6264 16.8315 23.7867 16.8315C25.0654 16.8315 25.8939 16.4574 26.8443 15.507L26.9097 15.4417C27.8383 14.5129 28.6321 13.7191 29.3518 13.17ZM28.8031 17.4657C29.8153 16.4535 30.4781 15.7949 31.0319 15.3723L32.0006 14.9178L32.9695 15.3723L35.1983 17.4657C36.6106 18.8781 38.1237 19.6016 40.2147 19.6016C40.5338 19.6016 40.8245 19.5927 41.1017 19.5842L42.5629 19.5972L43.9349 20.0564L44.402 21.4282L44.4162 22.9004C44.4078 23.1772 44.399 23.4677 44.399 23.7859C44.399 24.812 44.5099 25.7038 44.8836 26.5595C45.2532 27.4053 45.8275 28.0948 46.5349 28.8024C47.5471 29.8146 48.2056 30.4773 48.6283 31.0312C49.0267 31.5532 49.0829 31.8129 49.0829 32C49.0829 32.187 49.0266 32.4467 48.6283 32.9687C48.2056 33.5226 47.5471 34.1853 46.5349 35.1975C45.8275 35.905 45.2529 36.5946 44.8836 37.4404C44.5099 38.2961 44.399 39.1878 44.399 40.214C44.399 40.5322 44.4078 40.8225 44.4162 41.0995C44.4316 41.6058 44.4455 42.0673 44.402 42.5717C44.3386 43.3038 44.167 43.7135 43.9349 43.9435C43.705 44.1715 43.2945 44.3409 42.5629 44.4027C42.0609 44.4451 41.6033 44.431 41.1017 44.4157C40.8245 44.4072 40.5338 44.3983 40.2147 44.3983C39.2357 44.3983 38.3647 44.4917 37.5246 44.8385C36.6844 45.1856 35.9973 45.7352 35.2973 46.4352C35.0332 46.6994 34.8033 46.9479 34.5811 47.1881C34.2255 47.5726 33.8895 47.9357 33.465 48.3069C32.8133 48.8766 32.3429 49.0822 32.0006 49.0822C31.6587 49.0822 31.1881 48.8766 30.5364 48.3069C30.1119 47.9357 29.7759 47.5726 29.4203 47.1881C29.1981 46.9479 28.9682 46.6994 28.7041 46.4352C28.0041 45.7352 27.3171 45.1856 26.4768 44.8385C25.6368 44.4917 24.7657 44.3983 23.7866 44.3983C23.4676 44.3983 23.1769 44.4072 22.8996 44.4157C22.3982 44.431 21.9406 44.4451 21.4385 44.4027C20.7069 44.3409 20.2963 44.1715 20.0664 43.9435C19.8344 43.7135 19.6628 43.3038 19.5994 42.5717C19.5558 42.0673 19.5698 41.6058 19.5851 41.0995C19.5935 40.8225 19.6023 40.5322 19.6023 40.214C19.6023 39.1878 19.4916 38.2961 19.1178 37.4404C18.7484 36.5946 18.1739 35.905 17.4664 35.1975C16.4543 34.1853 15.7957 33.5226 15.373 32.9687L14.9185 32C14.9185 31.8127 14.9748 31.5531 15.373 31.0312C15.7957 30.4773 16.4542 29.8146 17.4664 28.8024C18.8792 27.3895 19.6023 25.8764 19.6023 23.7859C19.6023 23.4669 19.5934 23.1761 19.5849 22.8989C19.5696 22.3974 19.5556 21.9398 19.598 21.4377C19.6597 20.7061 19.8291 20.2955 20.0571 20.0656C20.2872 19.8337 20.6968 19.662 21.4289 19.5987C21.9333 19.555 22.3948 19.569 22.9011 19.5844C23.178 19.5927 23.4685 19.6016 23.7867 19.6016C25.8771 19.6016 27.3903 18.8785 28.8031 17.4657Z" fill="white"/>
<path fill-rule="evenodd" clip-rule="evenodd" d="M26.9089 15.4417C27.8376 14.5129 28.6314 13.7191 29.351 13.1701C30.1193 12.5838 30.9637 12.1477 32 12.1477C33.0363 12.1477 33.8807 12.5838 34.649 13.1701C35.3683 13.7189 36.1618 14.5124 37.0901 15.4407L37.0911 15.4417L37.1565 15.507C38.1066 16.4573 38.935 16.8315 40.2141 16.8315C40.3736 16.8315 40.5757 16.8258 40.8042 16.8193L40.8055 16.8193C41.3869 16.8028 42.1385 16.7815 42.7952 16.837C43.7584 16.9183 44.9649 17.1771 45.885 18.0895C46.812 19.0089 47.0772 20.2203 47.161 21.1896C47.2183 21.8522 47.197 22.6095 47.1806 23.195C47.1742 23.4233 47.1684 23.6257 47.1684 23.7859C47.1684 24.6184 47.2609 25.0834 47.4214 25.4506C47.5861 25.8279 47.8768 26.2275 48.4931 26.8436L48.5584 26.909C49.4872 27.8377 50.2809 28.6313 50.8299 29.3509C51.4163 30.1193 51.8523 30.9637 51.8523 32C51.8523 33.0362 51.4163 33.8805 50.8299 34.649C50.2814 35.3681 49.4885 36.161 48.5609 37.0886L48.5579 37.0916L48.4929 37.1564C47.8768 37.7725 47.5861 38.1721 47.4214 38.5492C47.2609 38.9166 47.1684 39.3815 47.1684 40.2141C47.1684 40.3742 47.1742 40.5762 47.1806 40.8044C47.197 41.3898 47.2183 42.1477 47.161 42.8105C47.0772 43.7797 46.812 44.9911 45.8848 45.9106C44.9648 46.8229 43.7582 47.0817 42.7952 47.1629C42.1399 47.2184 41.3902 47.1971 40.8094 47.1807L40.8055 47.1806H40.8044C40.576 47.1742 40.3737 47.1684 40.2141 47.1684C39.3992 47.1684 38.9413 47.2504 38.5808 47.3991C38.2207 47.5477 37.8355 47.8139 37.2554 48.3939C37.1315 48.518 36.9681 48.6929 36.7797 48.895C36.3551 49.3501 35.803 49.9418 35.2873 50.3926C34.5047 51.0767 33.3823 51.8523 32 51.8523C30.618 51.8523 29.4953 51.0767 28.7128 50.3926C28.197 49.9418 27.645 49.3501 27.2203 48.895C27.0319 48.6929 26.8686 48.518 26.7447 48.3941C26.1644 47.8139 25.7793 47.5477 25.4191 47.3991C25.0586 47.2504 24.6007 47.1684 23.7859 47.1684C23.6264 47.1684 23.4243 47.1742 23.1958 47.1806H23.1945L23.1907 47.1807C22.6099 47.1971 21.8601 47.2184 21.2049 47.1629C20.2417 47.0817 19.0353 46.8229 18.1152 45.9106C17.188 44.9911 16.9228 43.7797 16.8389 42.8105C16.7816 42.1477 16.8029 41.3904 16.8194 40.805C16.8258 40.5765 16.8315 40.3743 16.8315 40.2141C16.8315 39.3815 16.739 38.9166 16.5786 38.5492C16.4139 38.1721 16.1232 37.7725 15.507 37.1564L15.4422 37.0916C14.5135 36.1631 13.719 35.3686 13.17 34.649C12.5838 33.8805 12.1478 33.0362 12.1477 32C12.1478 30.9637 12.5838 30.1193 13.17 29.3509C13.7191 28.6313 14.5129 27.8376 15.4417 26.9089L15.507 26.8436C16.4575 25.8932 16.8315 25.0646 16.8315 23.7859C16.8315 23.6264 16.8258 23.4244 16.8194 23.196L16.8193 23.1945C16.8029 22.6132 16.7816 21.8613 16.837 21.2048C16.9183 20.2416 17.1771 19.0352 18.0895 18.1151C19.0089 17.188 20.2203 16.9227 21.1896 16.8389C21.8522 16.7816 22.6095 16.8029 23.195 16.8194C23.4234 16.8258 23.6257 16.8315 23.7859 16.8315C25.0646 16.8315 25.8932 16.4574 26.8437 15.507L26.9089 15.4417ZM29.2615 13.0526C28.5337 13.6078 27.7341 14.4076 26.8104 15.3313L26.7392 15.4025C26.2721 15.8696 25.8423 16.1877 25.3787 16.3903C24.9159 16.5926 24.4102 16.6838 23.7859 16.6838C23.6283 16.6838 23.4284 16.6782 23.1992 16.6717L23.1952 16.6716C22.6121 16.6552 21.8479 16.6337 21.1768 16.6917C20.195 16.7766 18.9408 17.0468 17.9846 18.0111C17.0357 18.968 16.7721 20.2169 16.6898 21.1923C16.6337 21.8572 16.6551 22.6154 16.6715 23.1945L16.6716 23.1987C16.6781 23.4285 16.6838 23.6286 16.6838 23.7859C16.6838 24.4102 16.5926 24.9159 16.3903 25.3787C16.1877 25.8423 15.8695 26.2721 15.4025 26.7392L15.3312 26.8104C14.4076 27.7341 13.6078 28.5337 13.0526 29.2613C12.4564 30.0428 12 30.9183 12 32C12 33.0815 12.4564 33.9571 13.0526 34.7386C13.6076 35.466 14.407 36.2655 15.3303 37.1887L15.3377 37.1961L15.4026 37.2609C16.0139 37.8721 16.2894 38.2563 16.4432 38.6083C16.5923 38.9496 16.6838 39.3918 16.6838 40.2141C16.6838 40.3719 16.6782 40.5716 16.6717 40.8009L16.6716 40.8048C16.6552 41.3879 16.6337 42.152 16.6918 42.8233C16.7767 43.805 17.0469 45.0593 18.0112 46.0155C18.9681 46.9643 20.217 47.2278 21.1924 47.3101C21.8558 47.3663 22.6124 47.3449 23.1909 47.3285L23.1986 47.3283C23.4284 47.3218 23.6286 47.3161 23.7859 47.3161C24.592 47.3161 25.0279 47.3976 25.3628 47.5356C25.6973 47.6738 26.0664 47.9247 26.6402 48.4986C26.7619 48.6203 26.9232 48.7929 27.1122 48.9957L27.1136 48.9972C27.537 49.451 28.0936 50.0476 28.6156 50.5038C29.4051 51.194 30.5624 52 32 52C33.4378 52 34.5949 51.194 35.3846 50.5038C35.9069 50.0472 36.4643 49.4496 36.8878 48.9957C37.0767 48.793 37.2382 48.6203 37.3599 48.4983C37.9336 47.9247 38.3027 47.6737 38.6371 47.5356C38.9721 47.3976 39.408 47.3161 40.2141 47.3161C40.3714 47.3161 40.5716 47.3218 40.8013 47.3283L40.8092 47.3285C41.3877 47.3449 42.1442 47.3663 42.8076 47.3101C43.7829 47.2278 45.0319 46.9643 45.9888 46.0155C46.9531 45.0593 47.2233 43.805 47.3083 42.8233C47.3662 42.1518 47.3447 41.3874 47.3284 40.8041L47.3283 40.8009C47.3218 40.5716 47.3161 40.3717 47.3161 40.2141C47.3161 39.3918 47.4078 38.9496 47.5568 38.6084C47.7106 38.2563 47.986 37.8722 48.5972 37.261M48.5972 37.261L48.6622 37.1962L48.6719 37.1865C49.5942 36.2643 50.3929 35.4655 50.9474 34.7385C51.5437 33.957 52 33.0815 52 32C52 30.9183 51.5437 30.0428 50.9474 29.2613C50.3919 28.5333 49.5917 27.7332 48.6674 26.809L48.5976 26.7392C47.986 26.1277 47.7106 25.7437 47.5568 25.3916C47.4078 25.0504 47.3161 24.6082 47.3161 23.7859C47.3161 23.6282 47.3218 23.4284 47.3283 23.1992L47.3284 23.1959C47.3447 22.6126 47.3662 21.8482 47.3083 21.1768C47.2233 20.195 46.9531 18.9408 45.989 17.9846C45.0321 17.0357 43.7832 16.7721 42.8076 16.6897C42.1426 16.6336 41.3843 16.6551 40.8051 16.6715L40.8013 16.6716C40.5716 16.6781 40.3714 16.6838 40.2141 16.6838C39.5896 16.6838 39.0839 16.5925 38.6211 16.3902C38.1575 16.1876 37.7278 15.8695 37.2609 15.4025L37.1955 15.3372L37.1878 15.3296C36.2649 14.4066 35.4658 13.6074 34.7385 13.0526C33.9572 12.4563 33.0818 12 32 12C30.9182 12 30.0428 12.4563 29.2615 13.0526M43.8302 43.8386C44.0252 43.6453 44.1919 43.2782 44.2541 42.559C44.2968 42.0646 44.2832 41.6115 44.2678 41.1039L44.2675 41.0904C44.2593 40.8177 44.2506 40.5295 44.2506 40.2141C44.2506 39.1775 44.3624 38.2632 44.7475 37.3814C45.1278 36.5106 45.7175 35.8055 46.4298 35.0932C47.445 34.0779 48.095 33.4233 48.5102 32.8791C48.8982 32.3704 48.9344 32.1419 48.9344 32C48.9344 31.8581 48.8984 31.6296 48.5102 31.1209C48.095 30.5767 47.445 29.9221 46.4298 28.9069C45.7173 28.1945 45.128 27.4894 44.7476 26.6187L44.8829 26.5595C45.2524 27.4053 45.8268 28.0948 46.5343 28.8024C47.5465 29.8146 48.205 30.4773 48.6277 31.0312C49.026 31.5532 49.0822 31.813 49.0822 32C49.0822 32.187 49.0258 32.4468 48.6277 32.9687C48.205 33.5227 47.5465 34.1854 46.5343 35.1976C45.8268 35.905 45.2523 36.5947 44.8829 37.4404C44.5091 38.2962 44.3983 39.1878 44.3983 40.2141C44.3983 40.5272 44.4069 40.8133 44.4151 41.0864L44.4155 41.0995V41.1013C44.4309 41.607 44.4448 42.068 44.4013 42.5717C44.3379 43.3038 44.1662 43.7136 43.9343 43.9435C43.7044 44.1715 43.2938 44.3409 42.5621 44.4028C42.0606 44.445 41.6033 44.431 41.1023 44.4157H41.1011C40.8238 44.4072 40.5332 44.3983 40.2141 44.3983C39.2349 44.3983 38.364 44.4917 37.5239 44.8386L37.4675 44.702C38.3332 44.3447 39.2261 44.2506 40.2141 44.2506C40.5357 44.2506 40.8285 44.2595 41.1055 44.268C41.6081 44.2834 42.0575 44.2971 42.5497 44.2556C43.2689 44.1948 43.6371 44.0301 43.8302 43.8386ZM34.5804 47.1881C34.8025 46.9479 35.0325 46.6994 35.2966 46.4352C35.9967 45.7352 36.6837 45.1856 37.5239 44.8386L37.4675 44.702C36.6017 45.0596 35.8986 45.6243 35.1921 46.3309C34.9258 46.5972 34.694 46.8478 34.4719 47.0879C34.1158 47.4728 33.7849 47.8304 33.367 48.1957C32.7223 48.7593 32.2868 48.9344 32 48.9344C31.7135 48.9344 31.2777 48.7593 30.633 48.1957C30.2151 47.8304 29.8841 47.4728 29.5281 47.0879C29.306 46.8478 29.0742 46.5972 28.8079 46.3309C28.1014 45.6243 27.3983 45.0596 26.5324 44.702C25.6668 44.3447 24.7738 44.2506 23.7859 44.2506C23.4644 44.2506 23.1715 44.2595 22.8944 44.268C22.3919 44.2834 21.9426 44.2971 21.4503 44.2556C20.7311 44.1948 20.3629 44.0302 20.1698 43.8387C19.9748 43.6454 19.8081 43.2783 19.7459 42.559C19.7031 42.0646 19.7167 41.6114 19.7321 41.104C19.7405 40.8273 19.7494 40.5347 19.7494 40.2141C19.7494 39.1775 19.6376 38.2632 19.2525 37.3813C18.8722 36.5106 18.2826 35.8055 17.5702 35.0932C16.5627 34.0856 15.9149 33.4332 15.4993 32.8916L15.0662 31.9685C15.0724 31.8241 15.1292 31.5933 15.4898 31.1209C15.905 30.5767 16.5549 29.9221 17.5702 28.9069C19.0075 27.4695 19.7494 25.9198 19.7494 23.7859C19.7494 23.4651 19.7404 23.173 19.732 22.8965L19.7319 22.8944C19.7165 22.3919 19.7029 21.9425 19.7445 21.4503C19.8052 20.731 19.9698 20.3628 20.1613 20.1697C20.3546 19.9747 20.7216 19.8081 21.441 19.7459C21.9354 19.7031 22.3886 19.7167 22.896 19.7321L22.8984 19.7321C23.1744 19.7405 23.4661 19.7493 23.7859 19.7493C25.9197 19.7493 27.4695 19.0076 28.9068 17.5702C29.9143 16.5627 30.5668 15.9149 31.1084 15.4993L32 15.081L32.8848 15.4961L35.0947 17.5719C36.5313 19.0078 38.0804 19.7493 40.2141 19.7493C40.5346 19.7493 40.8265 19.7404 41.1026 19.732L42.5374 19.7448L43.8179 20.1733L44.2537 21.4534L44.2677 22.8988L44.2675 22.9092C44.2593 23.182 44.2506 23.4702 44.2506 23.7859C44.2506 24.8225 44.3624 25.7369 44.7476 26.6187L44.8829 26.5595C44.5091 25.7038 44.3983 24.8121 44.3983 23.7859C44.3983 23.4727 44.4069 23.1864 44.4151 22.9132L44.4155 22.9004L44.4013 21.4282L43.9343 20.0564L42.5621 19.5972L41.1011 19.5842C40.8238 19.5927 40.5332 19.6016 40.2141 19.6016C38.123 19.6016 36.61 18.8782 35.1976 17.4658L32.9688 15.3723L32 14.9178L31.0312 15.3723C30.4773 15.795 29.8146 16.4535 28.8024 17.4658C27.3896 18.8785 25.8763 19.6016 23.7859 19.6016C23.4684 19.6016 23.1785 19.5928 22.9019 19.5844L22.9004 19.5844C22.394 19.5691 21.9326 19.5551 21.4283 19.5987C20.6961 19.662 20.2864 19.8337 20.0564 20.0657C19.8284 20.2955 19.659 20.7061 19.5973 21.4378C19.5549 21.9398 19.5689 22.3974 19.5842 22.8989L19.5843 22.9003C19.5928 23.1772 19.6016 23.4675 19.6016 23.7859C19.6016 25.8764 18.8785 27.3896 17.4657 28.8024C16.4535 29.8146 15.795 30.4773 15.3723 31.0312C14.9741 31.5531 14.9178 31.8127 14.9178 32L15.3723 32.9687C15.795 33.5227 16.4536 34.1854 17.4657 35.1976C18.1732 35.905 18.7477 36.5947 19.1171 37.4404C19.4909 38.2962 19.6016 39.1878 19.6016 40.2141C19.6016 40.5322 19.5928 40.8225 19.5844 41.0995C19.5691 41.6059 19.5551 42.0674 19.5987 42.5717C19.662 43.3038 19.8337 43.7136 20.0657 43.9435C20.2956 44.1715 20.7062 44.3409 21.4379 44.4028C21.9395 44.4451 22.3968 44.431 22.8977 44.4157H22.8989C23.1762 44.4072 23.4669 44.3983 23.7859 44.3983C24.7651 44.3983 25.636 44.4917 26.476 44.8386C27.3165 45.1856 28.0033 45.7352 28.7034 46.4352C28.9675 46.6994 29.1975 46.9479 29.4196 47.1881C29.7753 47.5726 30.1111 47.9357 30.5357 48.3069C31.1875 48.8767 31.658 49.0822 32 49.0822C32.3422 49.0822 32.8125 48.8767 33.4643 48.3069C33.8889 47.9357 34.2247 47.5726 34.5804 47.1881Z" fill="white"/>
<path fill-rule="evenodd" clip-rule="evenodd" d="M38.431 26.3226C39.0168 26.8145 39.0927 27.6882 38.6007 28.2739L30.8445 37.5076C30.6035 37.7944 30.2567 37.9714 29.883 37.9983C29.5094 38.0251 29.1409 37.8993 28.8614 37.65L25.5373 34.6819C24.9667 34.1724 24.9172 33.2969 25.4266 32.7262C25.9361 32.1558 26.8117 32.1061 27.3822 32.6157L29.6415 34.6328L36.4795 26.4923C36.9714 25.9065 37.8451 25.8306 38.431 26.3226Z" fill="white"/>
<path fill-rule="evenodd" clip-rule="evenodd" d="M30.9579 37.6027C30.6911 37.9201 30.3073 38.1161 29.8939 38.1457C29.4804 38.1754 29.0725 38.0361 28.7634 37.7603L25.4392 34.7922L25.5376 34.682L28.8617 37.6501C29.1411 37.8994 29.5098 38.0251 29.8833 37.9983C30.2569 37.9715 30.6037 37.7944 30.8447 37.5077L38.601 28.274C39.0929 27.6883 39.017 26.8146 38.4312 26.3226C37.8455 25.8307 36.9718 25.9066 36.4798 26.4924L29.6417 34.6329L27.3826 32.6157C26.8119 32.1061 25.9364 32.1559 25.4269 32.7263C24.9174 33.2969 24.967 34.1725 25.5376 34.682L25.4392 34.7922C24.8077 34.2283 24.7529 33.2594 25.3167 32.6279C25.8805 31.9966 26.8494 31.9416 27.481 32.5055L29.6265 34.4212L36.3667 26.3973C36.9111 25.7491 37.878 25.665 38.5263 26.2095C39.1746 26.754 39.2586 27.7209 38.7141 28.3691L30.9579 37.6027Z" fill="white"/>
</svg>
