<svg width="64" height="64" viewBox="0 0 64 64" fill="none" xmlns="http://www.w3.org/2000/svg">
<g clip-path="url(#clip0_2619_523)">
<path d="M16.807 55.5968C15.4888 55.5974 14.1889 55.288 13.0124 54.6934C11.8359 54.0988 10.8158 53.2358 10.0345 52.1741C9.25322 51.1124 8.73265 49.8817 8.51488 48.5817C8.29711 47.2816 8.38824 45.9485 8.78092 44.6901C9.1736 43.4318 9.8568 42.2835 10.7753 41.338C11.6938 40.3925 12.8219 39.6763 14.0684 39.2474C15.3148 38.8184 16.6447 38.6887 17.9506 38.8688C19.2564 39.0488 20.5016 39.5336 21.5855 40.2838C21.6943 40.3593 21.7872 40.4555 21.8588 40.5668C21.9305 40.6782 21.9795 40.8026 22.0031 40.9329C22.0266 41.0632 22.0243 41.1969 21.9962 41.3263C21.9682 41.4557 21.9149 41.5784 21.8394 41.6872C21.7639 41.796 21.6677 41.8889 21.5564 41.9605C21.445 42.0322 21.3206 42.0812 21.1903 42.1048C21.06 42.1284 20.9263 42.126 20.7969 42.098C20.6675 42.0699 20.5448 42.0166 20.436 41.9411C19.1361 41.0432 17.5495 40.6588 15.9828 40.8623C14.416 41.0657 12.9803 41.8425 11.9528 43.0426C10.9253 44.2428 10.3789 45.7811 10.4193 47.3605C10.4597 48.9398 11.0839 50.4482 12.1713 51.5943C13.2588 52.7404 14.7324 53.4428 16.3075 53.566C17.8826 53.6891 19.4474 53.2242 20.6998 52.2611C21.9521 51.2979 22.8032 49.9048 23.0885 48.3509C23.3738 46.797 23.0732 45.1925 22.2447 43.8472C22.1041 43.6197 22.0596 43.3457 22.1211 43.0854C22.1825 42.8251 22.3448 42.5999 22.5724 42.4593C22.7999 42.3187 23.0739 42.2742 23.3342 42.3357C23.5945 42.3971 23.8197 42.5594 23.9603 42.7869C24.7452 44.0599 25.176 45.5193 25.2083 47.0144C25.2407 48.5095 24.8733 49.9861 24.1442 51.2918C23.415 52.5975 22.3506 53.6849 21.0608 54.4417C19.7709 55.1984 18.3024 55.5972 16.807 55.5968ZM16.807 51.5631C15.9427 51.5631 15.0979 51.3069 14.3793 50.8267C13.6607 50.3466 13.1006 49.6641 12.7699 48.8656C12.4391 48.0672 12.3526 47.1886 12.5212 46.3409C12.6898 45.4933 13.106 44.7146 13.7171 44.1035C14.3282 43.4924 15.1068 43.0762 15.9545 42.9076C16.8021 42.739 17.6807 42.8255 18.4792 43.1563C19.2777 43.487 19.9601 44.0471 20.4403 44.7657C20.9204 45.4843 21.1767 46.3291 21.1767 47.1934C21.1754 48.3519 20.7146 49.4626 19.8954 50.2818C19.0762 51.101 17.9655 51.5618 16.807 51.5631ZM16.807 44.8405C16.3416 44.8405 15.8867 44.9785 15.4998 45.237C15.1128 45.4955 14.8112 45.863 14.6331 46.293C14.4551 46.7229 14.4085 47.196 14.4993 47.6524C14.59 48.1089 14.8141 48.5281 15.1432 48.8572C15.4723 49.1862 15.8915 49.4103 16.3479 49.5011C16.8044 49.5919 17.2775 49.5453 17.7074 49.3672C18.1374 49.1891 18.5048 48.8876 18.7634 48.5006C19.0219 48.1137 19.1599 47.6588 19.1599 47.1934C19.1592 46.5696 18.9111 45.9715 18.47 45.5304C18.0289 45.0893 17.4308 44.8412 16.807 44.8405Z" fill="#B0D3F0"/>
<path d="M59.6302 47.3279C59.3628 47.3279 59.1063 47.4341 58.9172 47.6233C58.7281 47.8124 58.6218 48.0689 58.6218 48.3363V53.4006C58.6213 53.8462 58.4441 54.2734 58.129 54.5885C57.814 54.9036 57.3868 55.0808 56.9412 55.0813H30.5981C30.5075 54.8717 30.3873 54.6761 30.2411 54.5007L28.7521 52.7143C28.901 52.3936 29.0366 52.0676 29.159 51.7361L31.4735 51.5257C32.0592 51.475 32.6044 51.2059 33.0009 50.7718C33.3973 50.3377 33.616 49.7703 33.6134 49.1824V45.2043C33.616 44.6165 33.3974 44.0491 33.0009 43.615C32.6045 43.1809 32.0593 42.9118 31.4736 42.8611L29.159 42.6507C29.0369 42.3199 28.9013 41.9939 28.7521 41.6725L30.2411 39.8858C30.6194 39.4358 30.8147 38.86 30.788 38.2728C30.7614 37.6855 30.5149 37.1297 30.0973 36.7159L27.2844 33.903C26.8706 33.4854 26.3148 33.2387 25.7275 33.2121C25.1401 33.1854 24.5643 33.3807 24.1143 33.7591L22.3277 35.2482C22.0069 35.0992 21.6808 34.9635 21.3495 34.8412L21.1391 32.5267C21.0885 31.941 20.8194 31.3957 20.3852 30.9993C19.9511 30.6028 19.3838 30.3842 18.7958 30.3867H14.8176C14.2297 30.3841 13.6624 30.6027 13.2283 30.9992C12.7942 31.3956 12.5251 31.9409 12.4745 32.5266L12.2639 34.8412C11.9334 34.9633 11.6073 35.0989 11.2858 35.2482L9.49918 33.7591C9.04917 33.3808 8.47333 33.1855 7.88602 33.2122C7.29871 33.2388 6.74291 33.4854 6.32903 33.903L3.51612 36.7159C3.09861 37.1298 2.85205 37.6855 2.82542 38.2728C2.79879 38.8601 2.99405 39.4359 3.37239 39.8859L4.86133 41.6725C4.71254 41.9933 4.57692 42.3194 4.45447 42.6507L2.13985 42.8611C1.55416 42.9118 1.00896 43.1809 0.612533 43.615C0.216107 44.0491 -0.00253807 44.6165 2.28341e-05 45.2043V49.1824C-0.00257191 49.7703 0.216058 50.3377 0.612487 50.7718C1.00892 51.206 1.55414 51.4751 2.13985 51.5258L4.45447 51.7362C4.57656 52.067 4.71218 52.393 4.86133 52.7144L3.37239 54.501C2.99407 54.951 2.79883 55.5268 2.82546 56.1141C2.85208 56.7014 3.09863 57.2572 3.51612 57.6712L6.32903 60.4839C6.74293 60.9014 7.29872 61.148 7.88602 61.1747C8.47332 61.2013 9.04916 61.0061 9.49918 60.6278L11.2858 59.1387C11.6066 59.2877 11.9327 59.4234 12.2639 59.5457L12.4744 61.8602C12.525 62.4459 12.7941 62.9912 13.2282 63.3877C13.6623 63.7841 14.2297 64.0028 14.8176 64.0002H18.7958C19.3837 64.0028 19.9511 63.7842 20.3852 63.3878C20.8193 62.9913 21.0884 62.4461 21.139 61.8603L21.3495 59.5457C21.6802 59.4236 22.0062 59.288 22.3277 59.1387L24.1144 60.6278C24.5644 61.0062 25.1402 61.2014 25.7275 61.1748C26.3148 61.1481 26.8706 60.9015 27.2844 60.4839L30.0973 57.6712C30.2658 57.5024 30.4078 57.3093 30.5187 57.0983H56.9412C57.9214 57.0971 58.8613 56.7072 59.5544 56.014C60.2476 55.3209 60.6375 54.3811 60.6386 53.4008V48.3363C60.6386 48.0689 60.5324 47.8124 60.3433 47.6233C60.1542 47.4341 59.8977 47.3279 59.6302 47.3279ZM28.6712 56.2449L25.8582 59.0579C25.799 59.1175 25.7197 59.1527 25.6358 59.1565C25.5519 59.1603 25.4697 59.1324 25.4055 59.0784L23.114 57.1691C22.9603 57.041 22.7719 56.9616 22.573 56.9409C22.374 56.9201 22.1733 56.959 21.9965 57.0527C21.392 57.3728 20.759 57.6362 20.1058 57.8394C19.9151 57.8985 19.7463 58.0129 19.6207 58.1681C19.4951 58.3233 19.4184 58.5123 19.4003 58.7112L19.1304 61.6782C19.1231 61.7617 19.0846 61.8395 19.0227 61.896C18.9607 61.9526 18.8797 61.9837 18.7958 61.9834H14.8176C14.7336 61.9837 14.6526 61.9525 14.5906 61.8958C14.5286 61.8392 14.4902 61.7613 14.483 61.6776L14.2131 58.7108C14.195 58.5119 14.1183 58.3229 13.9928 58.1677C13.8672 58.0125 13.6983 57.8981 13.5076 57.839C12.8544 57.6358 12.2215 57.3724 11.617 57.0523C11.4402 56.9586 11.2395 56.9197 11.0405 56.9405C10.8415 56.9612 10.6532 57.0406 10.4995 57.1687L8.20815 59.0779C8.1439 59.132 8.06164 59.16 7.97774 59.1562C7.89384 59.1524 7.81443 59.1172 7.75531 59.0575L4.94241 56.245C4.88271 56.1859 4.84744 56.1065 4.84361 56.0226C4.83977 55.9387 4.86765 55.8565 4.9217 55.7922L6.83094 53.5007C6.95904 53.347 7.03851 53.1586 7.05924 52.9596C7.07998 52.7606 7.04104 52.5599 6.94738 52.3831C6.62712 51.7787 6.36376 51.1457 6.16069 50.4925C6.10155 50.3019 5.98714 50.1331 5.83197 50.0075C5.67679 49.8819 5.48783 49.8052 5.28903 49.7871L2.3219 49.5172C2.23834 49.5098 2.16059 49.4713 2.10409 49.4093C2.04758 49.3473 2.01644 49.2663 2.01683 49.1824V45.2043C2.01645 45.1204 2.04769 45.0393 2.10434 44.9773C2.16099 44.9153 2.2389 44.8769 2.32258 44.8697L5.28957 44.5998C5.48837 44.5817 5.67733 44.505 5.8325 44.3794C5.98768 44.2538 6.10208 44.085 6.16123 43.8944C6.36431 43.2411 6.62767 42.6081 6.94792 42.0035C7.04155 41.8267 7.08047 41.6261 7.05974 41.4271C7.039 41.2281 6.95955 41.0398 6.83148 40.8861L4.92224 38.5946C4.86819 38.5303 4.84031 38.448 4.84415 38.3641C4.84798 38.2802 4.88325 38.2009 4.94294 38.1418L7.75531 35.329C7.81444 35.2694 7.89382 35.2342 7.97768 35.2304C8.06154 35.2267 8.14376 35.2545 8.20802 35.3086L10.4995 37.2178C10.6532 37.3459 10.8415 37.4254 11.0405 37.4461C11.2395 37.4669 11.4401 37.428 11.617 37.3344C12.2214 37.0141 12.8544 36.7508 13.5076 36.5478C13.6983 36.4887 13.8672 36.3742 13.9928 36.219C14.1183 36.0638 14.195 35.8748 14.2131 35.676L14.4831 32.7089C14.4904 32.6253 14.5288 32.5475 14.5908 32.4909C14.6527 32.4344 14.7337 32.4032 14.8176 32.4035H18.7958C18.8798 32.4032 18.9609 32.4344 19.0229 32.4911C19.0849 32.5477 19.1233 32.6256 19.1305 32.7093L19.4003 35.6763C19.4184 35.8751 19.4951 36.0641 19.6207 36.2193C19.7463 36.3745 19.9151 36.4889 20.1058 36.5481C20.7591 36.7511 21.392 37.0144 21.9965 37.3346C22.1733 37.4282 22.374 37.4671 22.573 37.4464C22.772 37.4256 22.9603 37.3462 23.114 37.2181L25.4055 35.3088C25.4697 35.2547 25.5519 35.2268 25.6358 35.2306C25.7197 35.2344 25.7991 35.2696 25.8582 35.3293L28.6711 38.1422C28.7308 38.2013 28.766 38.2806 28.7699 38.3645C28.7737 38.4484 28.7458 38.5307 28.6918 38.595L26.7825 40.8865C26.6545 41.0402 26.575 41.2285 26.5543 41.4275C26.5335 41.6265 26.5725 41.8271 26.6661 42.0039C26.9863 42.6084 27.2497 43.2414 27.4528 43.8946C27.5119 44.0853 27.6263 44.2541 27.7815 44.3797C27.9367 44.5053 28.1256 44.582 28.3244 44.6001L31.2914 44.87C31.375 44.8773 31.4527 44.9157 31.5092 44.9776C31.5658 45.0396 31.597 45.1205 31.5966 45.2043V49.1824C31.597 49.2664 31.5658 49.3475 31.5091 49.4095C31.4525 49.4715 31.3746 49.51 31.2909 49.5172L28.3239 49.7871C28.1251 49.8052 27.9361 49.8819 27.781 50.0075C27.6258 50.1331 27.5114 50.3019 27.4522 50.4925C27.2492 51.1457 26.9858 51.7787 26.6656 52.3831C26.5719 52.5599 26.533 52.7606 26.5537 52.9596C26.5744 53.1586 26.6539 53.347 26.782 53.5007L28.6912 55.792C28.7454 55.8563 28.7733 55.9385 28.7696 56.0224C28.7659 56.1063 28.7308 56.1858 28.6712 56.245V56.2449Z" fill="#B0D3F0"/>
<path d="M37.1644 22.7066V24.5217H34.1392C33.6936 24.5222 33.2664 24.6995 32.9513 25.0146C32.6362 25.3296 32.459 25.7568 32.4585 26.2024V31.8495C32.459 32.295 32.6363 32.7222 32.9513 33.0373C33.2664 33.3524 33.6936 33.5296 34.1392 33.5301H51.6181C52.0637 33.5296 52.4909 33.3524 52.806 33.0373C53.1211 32.7223 53.2983 32.2951 53.2988 31.8495V15.5806C53.2983 15.135 53.1211 14.7078 52.806 14.3927C52.4909 14.0776 52.0637 13.9004 51.6181 13.8999H48.2568C47.8112 13.9004 47.384 14.0776 47.0689 14.3927C46.7539 14.7078 46.5766 15.135 46.5761 15.5806V17.3957H43.5509C43.1053 17.3962 42.6781 17.5734 42.3631 17.8885C42.048 18.2036 41.8708 18.6308 41.8703 19.0764V21.0259H38.845C38.3995 21.0264 37.9723 21.2037 37.6572 21.5188C37.3421 21.8338 37.1649 22.261 37.1644 22.7066ZM37.1644 31.5133H34.4753V26.5386H37.1644V31.5133ZM48.5929 18.4041V15.9167H51.282V31.5133H48.5929V18.4041ZM43.8871 22.0344V19.4125H46.5761V31.5133H43.8871V22.0344ZM39.1812 25.5301V23.0428H41.8703V31.5133H39.1812V25.5301Z" fill="#B0D3F0"/>
<path d="M52.8761 8.56026C53.433 8.56026 53.8845 8.10879 53.8845 7.55186C53.8845 6.99493 53.433 6.54346 52.8761 6.54346C52.3192 6.54346 51.8677 6.99493 51.8677 7.55186C51.8677 8.10879 52.3192 8.56026 52.8761 8.56026Z" fill="#B0D3F0"/>
<path d="M42.254 8.56026C42.8109 8.56026 43.2624 8.10879 43.2624 7.55186C43.2624 6.99493 42.8109 6.54346 42.254 6.54346C41.6971 6.54346 41.2456 6.99493 41.2456 7.55186C41.2456 8.10879 41.6971 8.56026 42.254 8.56026Z" fill="#B0D3F0"/>
<path d="M31.6324 8.56026C32.1894 8.56026 32.6408 8.10879 32.6408 7.55186C32.6408 6.99493 32.1894 6.54346 31.6324 6.54346C31.0755 6.54346 30.624 6.99493 30.624 7.55186C30.624 8.10879 31.0755 8.56026 31.6324 8.56026Z" fill="#B0D3F0"/>
<path d="M21.0104 8.56026C21.5673 8.56026 22.0188 8.10879 22.0188 7.55186C22.0188 6.99493 21.5673 6.54346 21.0104 6.54346C20.4534 6.54346 20.002 6.99493 20.002 7.55186C20.002 8.10879 20.4534 8.56026 21.0104 8.56026Z" fill="#B0D3F0"/>
<path d="M13.1138 22.8126C13.1138 23.08 13.22 23.3365 13.4091 23.5257C13.5982 23.7148 13.8547 23.821 14.1222 23.821H28.9121C29.1795 23.821 29.436 23.7148 29.6251 23.5257C29.8142 23.3365 29.9205 23.08 29.9205 22.8126C29.9205 22.5452 29.8142 22.2887 29.6251 22.0996C29.436 21.9104 29.1795 21.8042 28.9121 21.8042H14.1222C13.8547 21.8042 13.5982 21.9104 13.4091 22.0996C13.22 22.2887 13.1138 22.5452 13.1138 22.8126Z" fill="#B0D3F0"/>
<path d="M19.5973 26.3755C19.3298 26.3755 19.0733 26.4817 18.8842 26.6708C18.6951 26.86 18.5889 27.1164 18.5889 27.3839C18.5889 27.6513 18.6951 27.9078 18.8842 28.0969C19.0733 28.2861 19.3298 28.3923 19.5973 28.3923H24.859C25.1264 28.3923 25.3829 28.2861 25.572 28.0969C25.7611 27.9078 25.8674 27.6513 25.8674 27.3839C25.8674 27.1164 25.7611 26.86 25.572 26.6708C25.3829 26.4817 25.1264 26.3755 24.859 26.3755H19.5973Z" fill="#B0D3F0"/>
<path d="M14.1222 28.3923H16.4751C16.7426 28.3923 16.999 28.2861 17.1882 28.0969C17.3773 27.9078 17.4835 27.6513 17.4835 27.3839C17.4835 27.1164 17.3773 26.86 17.1882 26.6708C16.999 26.4817 16.7426 26.3755 16.4751 26.3755H14.1222C13.8547 26.3755 13.5982 26.4817 13.4091 26.6708C13.22 26.86 13.1138 27.1164 13.1138 27.3839C13.1138 27.6513 13.22 27.9078 13.4091 28.0969C13.5982 28.2861 13.8547 28.3923 14.1222 28.3923Z" fill="#B0D3F0"/>
<path d="M16.8789 18.2403C16.8789 18.5078 16.9851 18.7643 17.1743 18.9534C17.3634 19.1425 17.6199 19.2487 17.8873 19.2487H28.9125C29.18 19.2487 29.4364 19.1425 29.6256 18.9534C29.8147 18.7643 29.9209 18.5078 29.9209 18.2403C29.9209 17.9729 29.8147 17.7164 29.6256 17.5273C29.4364 17.3382 29.18 17.2319 28.9125 17.2319H17.8873C17.6199 17.2319 17.3634 17.3382 17.1743 17.5273C16.9851 17.7164 16.8789 17.9729 16.8789 18.2403Z" fill="#B0D3F0"/>
<path d="M15.131 19.2497C15.6879 19.2497 16.1394 18.7982 16.1394 18.2413C16.1394 17.6844 15.6879 17.2329 15.131 17.2329C14.574 17.2329 14.1226 17.6844 14.1226 18.2413C14.1226 18.7982 14.574 19.2497 15.131 19.2497Z" fill="#B0D3F0"/>
<path d="M27.9039 28.3923C28.4608 28.3923 28.9123 27.9408 28.9123 27.3839C28.9123 26.827 28.4608 26.3755 27.9039 26.3755C27.347 26.3755 26.8955 26.827 26.8955 27.3839C26.8955 27.9408 27.347 28.3923 27.9039 28.3923Z" fill="#B0D3F0"/>
<path d="M51.9542 44.3023C51.9542 44.0349 51.8479 43.7784 51.6588 43.5893C51.4697 43.4002 51.2132 43.2939 50.9458 43.2939H36.1559C35.8884 43.2939 35.6319 43.4002 35.4428 43.5893C35.2537 43.7784 35.1475 44.0349 35.1475 44.3023C35.1475 44.5698 35.2537 44.8263 35.4428 45.0154C35.6319 45.2045 35.8884 45.3108 36.1559 45.3108H50.9458C51.2132 45.3108 51.4697 45.2045 51.6588 45.0154C51.8479 44.8263 51.9542 44.5698 51.9542 44.3023Z" fill="#B0D3F0"/>
<path d="M41.6314 47.8657C41.364 47.8657 41.1075 47.972 40.9184 48.1611C40.7293 48.3502 40.623 48.6067 40.623 48.8741C40.623 49.1416 40.7293 49.3981 40.9184 49.5872C41.1075 49.7763 41.364 49.8825 41.6314 49.8825H46.893C47.1605 49.8825 47.417 49.7763 47.6061 49.5872C47.7952 49.3981 47.9014 49.1416 47.9014 48.8741C47.9014 48.6067 47.7952 48.3502 47.6061 48.1611C47.417 47.972 47.1605 47.8657 46.893 47.8657H41.6314Z" fill="#B0D3F0"/>
<path d="M36.1559 47.8657C35.8884 47.8657 35.6319 47.972 35.4428 48.1611C35.2537 48.3502 35.1475 48.6067 35.1475 48.8741C35.1475 49.1416 35.2537 49.3981 35.4428 49.5872C35.6319 49.7763 35.8884 49.8825 36.1559 49.8825H38.5088C38.7762 49.8825 39.0327 49.7763 39.2218 49.5872C39.411 49.3981 39.5172 49.1416 39.5172 48.8741C39.5172 48.6067 39.411 48.3502 39.2218 48.1611C39.0327 47.972 38.7762 47.8657 38.5088 47.8657H36.1559Z" fill="#B0D3F0"/>
<path d="M50.9457 38.7227H39.9205C39.6531 38.7227 39.3966 38.8289 39.2075 39.018C39.0183 39.2071 38.9121 39.4636 38.9121 39.7311C38.9121 39.9985 39.0183 40.255 39.2075 40.4441C39.3966 40.6332 39.6531 40.7395 39.9205 40.7395H50.9457C51.2132 40.7395 51.4696 40.6332 51.6588 40.4441C51.8479 40.255 51.9541 39.9985 51.9541 39.7311C51.9541 39.4636 51.8479 39.2071 51.6588 39.018C51.4696 38.8289 51.2132 38.7227 50.9457 38.7227Z" fill="#B0D3F0"/>
<path d="M37.1642 40.7395C37.3636 40.7395 37.5586 40.6803 37.7244 40.5695C37.8902 40.4587 38.0195 40.3012 38.0958 40.117C38.1721 39.9327 38.1921 39.7299 38.1532 39.5343C38.1143 39.3387 38.0182 39.159 37.8772 39.018C37.7362 38.877 37.5565 38.7809 37.3609 38.742C37.1653 38.7031 36.9625 38.7231 36.7783 38.7994C36.594 38.8757 36.4365 39.005 36.3257 39.1708C36.2149 39.3367 36.1558 39.5316 36.1558 39.7311C36.1558 39.9985 36.262 40.255 36.4511 40.4441C36.6402 40.6332 36.8967 40.7395 37.1642 40.7395Z" fill="#B0D3F0"/>
<path d="M48.9292 48.8741C48.9292 49.0736 48.9883 49.2685 49.0991 49.4344C49.21 49.6002 49.3674 49.7294 49.5517 49.8058C49.736 49.8821 49.9387 49.9021 50.1343 49.8632C50.3299 49.8242 50.5096 49.7282 50.6506 49.5872C50.7917 49.4461 50.8877 49.2665 50.9266 49.0709C50.9655 48.8752 50.9456 48.6725 50.8692 48.4882C50.7929 48.304 50.6637 48.1465 50.4978 48.0357C50.332 47.9249 50.137 47.8657 49.9376 47.8657C49.6702 47.8657 49.4137 47.972 49.2246 48.1611C49.0354 48.3502 48.9292 48.6067 48.9292 48.8741Z" fill="#B0D3F0"/>
<path d="M59.6302 0C58.7268 0.00111315 57.846 0.281725 57.1085 0.803334C56.3709 1.32494 55.8129 2.06199 55.5109 2.91334H17.322C17.0547 2.91358 16.7983 3.01997 16.6094 3.20914L7.19765 12.6209C7.00849 12.8098 6.90209 13.0661 6.90186 13.3335V31.2671C6.90186 31.5345 7.0081 31.791 7.19721 31.9801C7.38632 32.1692 7.64281 32.2755 7.91026 32.2755C8.1777 32.2755 8.43419 32.1692 8.62331 31.9801C8.81242 31.791 8.91866 31.5345 8.91866 31.2671V14.3419H14.6329C15.6132 14.3408 16.5531 13.9509 17.2462 13.2577C17.9394 12.5646 18.3293 11.6247 18.3304 10.6444V4.93015H55.2604V38.8283C55.2604 38.9754 55.2926 39.1206 55.3545 39.2539L58.1065 45.1665C58.2416 45.4567 58.4568 45.7023 58.7267 45.8744C58.9966 46.0465 59.3101 46.1379 59.6302 46.1379C59.9503 46.1379 60.2638 46.0465 60.5337 45.8744C60.8037 45.7023 61.0188 45.4567 61.1539 45.1665L63.9058 39.2539C63.9678 39.1206 63.9999 38.9754 63.9999 38.8283V4.36975C63.9986 3.21121 63.5378 2.10049 62.7186 1.28128C61.8994 0.462075 60.7887 0.00128117 59.6302 0ZM14.6329 12.3251H10.3447L16.3136 6.3563V10.6444C16.3131 11.09 16.1359 11.5172 15.8208 11.8323C15.5057 12.1474 15.0785 12.3246 14.6329 12.3251ZM61.9831 38.6052L59.6302 43.6606L57.2772 38.6052V12.1008H61.9831V38.6052ZM61.9831 10.084H57.2772V8.06722H61.9831V10.084ZM61.9831 6.05042H57.2772V4.36975C57.2772 3.74571 57.5251 3.14723 57.9664 2.70597C58.4076 2.2647 59.0061 2.01681 59.6302 2.01681C60.2542 2.01681 60.8527 2.2647 61.2939 2.70597C61.7352 3.14723 61.9831 3.74571 61.9831 4.36975V6.05042Z" fill="#B0D3F0"/>
</g>
<defs>
<clipPath id="clip0_2619_523">
<rect width="64" height="64" fill="white"/>
</clipPath>
</defs>
</svg>
