<svg width="64" height="64" viewBox="0 0 64 64" fill="none" xmlns="http://www.w3.org/2000/svg">
<path fill-rule="evenodd" clip-rule="evenodd" d="M35.7751 38.744H43.0978C43.6501 38.744 44.0978 38.2962 44.0978 37.744V32.6921C44.0978 32.1399 43.6501 31.6921 43.0978 31.6921H35.7751C35.2228 31.6921 34.7751 32.1399 34.7751 32.6921V37.744C34.7751 38.2962 35.2228 38.744 35.7751 38.744ZM36.7751 33.6921H42.0978V36.744H36.7751V33.6921ZM47.4671 42.0019V31.5682H48.5288C49.3656 31.5682 50.0567 31.0197 50.2484 30.2034C50.4402 29.3871 50.0656 28.5882 49.3163 28.2156L34.6281 20.9139C34.3476 20.7747 34.0182 20.7747 33.7377 20.9139L29.2696 23.1351V22.7805C29.2696 22.2282 28.8218 21.7805 28.2696 21.7805H24.8193C24.2671 21.7805 23.8193 22.2282 23.8193 22.7805V25.8446L19.0494 28.2159C18.3002 28.5882 17.9256 29.3871 18.1173 30.2035C18.3089 31.0199 19.0001 31.5684 19.8368 31.5684H20.8986V41.1531C19.0694 40.9951 17.4164 41.762 15.9989 42.5827L9.6487 46.2595L9.14107 45.3626C8.51795 44.2615 7.1147 43.8727 6.0137 44.4959L3.54645 45.8921C2.4452 46.5152 2.05632 47.9182 2.67957 49.0196L9.93332 61.8367C10.2346 62.369 10.7263 62.7522 11.3179 62.9164C11.5226 62.973 11.7303 63.0011 11.9366 63.0011C12.3271 63.0011 12.7124 62.9006 13.0607 62.7035L15.5279 61.3072C16.6292 60.6841 17.0181 59.2811 16.3948 58.1797L15.7542 57.0479L16.9781 56.3412L28.1532 59.3356C28.7939 59.5074 29.4317 59.5927 30.0588 59.5927C31.3278 59.5927 32.5541 59.2432 33.6752 58.5531L49.6338 48.7265C51.1853 47.7711 51.6817 45.3709 50.6753 43.6905C50.3647 43.1712 49.4404 41.9976 47.4671 42.0019ZM25.8194 23.7805H27.2697V24.1294L25.8194 24.8504V23.7805ZM20.8214 29.5682L34.1829 22.926L47.5444 29.5682H46.4672C45.9149 29.5682 45.4672 30.016 45.4672 30.5682V42.3502C44.7492 42.5819 43.9432 42.9414 43.0396 43.4676L34.2458 48.5896C33.9786 48.7451 33.7083 48.8717 33.4322 48.9699C33.5034 48.803 33.5643 48.6267 33.6138 48.4417C33.8224 47.663 33.7394 46.8696 33.4286 46.1726V37.7737C33.4286 37.2215 32.9808 36.7737 32.4286 36.7737H25.9616C25.4093 36.7737 24.9616 37.2215 24.9616 37.7737V42.4005C24.6583 42.2922 24.3627 42.1855 24.0781 42.0826C23.6673 41.9341 23.2708 41.7909 22.8987 41.6606V30.5684C22.8987 30.0161 22.4509 29.5684 21.8987 29.5684L20.8214 29.5682ZM31.4286 44.2715C31.3533 44.2416 31.2773 44.2132 31.1992 44.188C31.1563 44.1742 31.1126 44.1632 31.0682 44.1551C29.6646 43.902 28.2687 43.5092 26.9614 43.086V38.7737H31.4284L31.4286 44.2715ZM14.6803 59.3882C14.6679 59.4326 14.6338 59.5151 14.5429 59.5665L12.0757 60.9627C11.9368 61.0415 11.7527 60.9907 11.6739 60.8515L4.4202 48.0344C4.36882 47.9436 4.3817 47.8554 4.3942 47.8109C4.40657 47.7665 4.4407 47.684 4.53157 47.6326L6.99882 46.2364C7.0432 46.2111 7.09232 46.1992 7.1412 46.1992C7.24482 46.1992 7.34695 46.2531 7.40057 46.3476L14.6543 59.1647C14.7058 59.2555 14.6928 59.3437 14.6803 59.3882ZM48.5854 47.0231L32.6269 56.8497C31.4148 57.5959 30.0841 57.7822 28.6712 57.4036L17.0958 54.3021C16.8399 54.2334 16.5668 54.2692 16.3371 54.4021L14.7693 55.3072L10.6338 48L17.0011 44.3135C18.4238 43.4897 19.9583 42.7982 21.5404 43.3116C22.0717 43.4839 22.6863 43.706 23.3979 43.9632C25.4459 44.7037 27.9903 45.6235 30.6388 46.1097C31.4379 46.3971 31.8847 47.1671 31.6819 47.9242C31.4664 48.7292 30.8637 49.0802 29.8928 48.9697C28.6107 48.7054 27.3878 48.3565 26.0942 47.9871C25.4759 47.8105 24.8364 47.628 24.1784 47.4516C23.6453 47.3089 23.0968 47.6254 22.9537 48.1587C22.8107 48.6922 23.1274 49.2405 23.6608 49.3835C24.3031 49.5555 24.9343 49.7359 25.5449 49.9102C26.8914 50.2949 29.5694 50.945 29.5766 50.9461L30.6709 51.1241C32.3589 51.3939 33.8572 51.1304 35.2522 50.318L44.0461 45.196C46.4238 43.811 48.3069 43.6276 48.9597 44.718C49.4008 45.4545 49.2084 46.6395 48.5854 47.0231ZM7.60657 48.5206C7.67695 49.002 7.3437 49.4492 6.86232 49.5197C6.38095 49.5901 5.9337 49.2569 5.86332 48.7755C5.79295 48.2941 6.12607 47.8467 6.60757 47.7765C7.08882 47.706 7.5362 48.0391 7.60657 48.5206ZM61.3204 14.9806L54.0666 2.16349C53.4434 1.06224 52.0401 0.673611 50.9392 1.29674L48.4718 2.69311C47.3708 3.31636 46.9819 4.71924 47.6051 5.82049L48.2457 6.95249L47.0217 7.65911L35.8466 4.66474C33.9088 4.14561 31.9997 4.41599 30.3246 5.44724L14.3659 15.2739C12.8144 16.2291 12.3179 18.6294 13.3244 20.3097C13.8109 21.1221 15.7991 23.5384 20.9604 20.5325L29.7542 15.4105C30.0216 15.2549 30.2917 15.1282 30.5679 15.0301C30.4967 15.197 30.4357 15.3732 30.3862 15.5584C29.9063 17.349 30.9669 19.2174 32.8008 19.8121C32.8437 19.8259 32.8874 19.8369 32.9318 19.845C35.4408 20.2975 37.9256 21.1959 39.9221 21.9176C40.6203 22.17 41.2797 22.4084 41.8424 22.5909C42.4404 22.7849 43.0222 22.8684 43.5863 22.8684C45.2233 22.8684 46.7098 22.165 48.0008 21.4176L54.3512 17.7407L54.8588 18.6377H54.8587C55.1599 19.17 55.6517 19.5532 56.2433 19.7174C56.4479 19.774 56.6557 19.8021 56.8619 19.8021C57.2524 19.8021 57.6378 19.7016 57.9861 19.5045L60.4533 18.1082C61.5548 17.4849 61.9438 16.082 61.3204 14.9806ZM46.9989 19.6867C45.5766 20.5105 44.0423 21.202 42.4597 20.6885C41.9284 20.5162 41.3138 20.2941 40.6022 20.0369C38.5542 19.2964 36.0098 18.3766 33.3613 17.8904C32.5621 17.603 32.1153 16.8331 32.3182 16.076C32.5339 15.2714 33.1353 14.9201 34.1071 15.0304C35.3887 15.2946 36.6111 15.6432 37.9041 16.0125C38.5229 16.1892 39.1631 16.372 39.8218 16.5485C39.9084 16.5717 39.9956 16.5827 40.0812 16.5827C40.5227 16.5827 40.9268 16.2881 41.0466 15.8412C41.1896 15.3076 40.8728 14.7595 40.3394 14.6165C39.6964 14.4442 39.0646 14.2639 38.4533 14.0892C37.1073 13.7049 34.4304 13.055 34.4236 13.0539L33.3294 12.876C31.6416 12.6056 30.1432 12.8696 28.7481 13.6821L19.9542 18.8041C17.5764 20.189 15.6933 20.3721 15.0406 19.282C14.5993 18.5452 14.7917 17.3604 15.4148 16.9769L31.3733 7.15024C32.5854 6.40411 33.9162 6.21786 35.3291 6.59649L46.9044 9.69799C47.1602 9.76661 47.4336 9.73074 47.6632 9.59811L49.2309 8.69299L53.3663 15.9999L46.9989 19.6867ZM59.6059 16.1892C59.5936 16.2336 59.5594 16.3161 59.4686 16.3675L57.0013 17.7637C56.8624 17.8426 56.6783 17.7916 56.5997 17.6526C56.5997 17.6525 56.5996 17.6525 56.5996 17.6525L49.3458 4.83536C49.2671 4.69636 49.3181 4.51236 49.4572 4.43361L51.9244 3.03736C51.9688 3.01211 52.0179 3.00024 52.0668 3.00024C52.1704 3.00024 52.2726 3.05411 52.3262 3.14861L59.5799 15.9657C59.6313 16.0565 59.6183 16.1447 59.6059 16.1892ZM58.1368 15.2247C58.2072 15.7061 57.8739 16.1535 57.3926 16.2239C56.9112 16.2942 56.4638 15.961 56.3934 15.4796C56.3231 14.9982 56.6563 14.5509 57.1377 14.4805C57.6192 14.4101 58.0664 14.7432 58.1368 15.2247Z" fill="#B0D3F0"/>
</svg>
