<svg width="64" height="64" viewBox="0 0 64 64" fill="none" xmlns="http://www.w3.org/2000/svg">
<g clip-path="url(#clip0_2602_145)">
<path d="M53.9373 5.00003H38.5355C37.7857 2.09139 35.139 -0.0625 31.9997 -0.0625C28.8603 -0.0625 26.2137 2.09139 25.4639 5.00003H10.062C7.27039 5.00003 4.99951 7.27091 4.99951 10.0626V59.0004C4.99951 61.792 7.27039 64.0629 10.062 64.0629H53.9373C56.729 64.0629 58.9998 61.792 58.9998 59.0004V10.0626C58.9998 7.27091 56.729 5.00003 53.9373 5.00003ZM23.5621 8.37505H26.9371C27.8699 8.37505 28.6247 7.62028 28.6247 6.68754C28.6247 4.82699 30.1391 3.31252 31.9997 3.31252C33.8602 3.31252 35.3747 4.82699 35.3747 6.68754C35.3747 7.62028 36.1295 8.37505 37.0622 8.37505H40.4372V11.7501C40.4372 12.6812 39.6808 13.4376 38.7497 13.4376H25.2496C24.3185 13.4376 23.5621 12.6812 23.5621 11.7501V8.37505ZM25.2496 16.8126H38.7497C40.2401 16.8126 41.5682 16.1533 42.4955 15.1251H48.8748V53.9378H15.1246V15.1251H21.5038C22.4311 16.1533 23.7593 16.8126 25.2496 16.8126ZM55.6248 59.0004C55.6248 59.9315 54.8684 60.6879 53.9373 60.6879H10.062C9.13094 60.6879 8.37453 59.9315 8.37453 59.0004V10.0626C8.37453 9.13146 9.13094 8.37505 10.062 8.37505H20.1871V11.7501H13.4371C12.5043 11.7501 11.7496 12.5048 11.7496 13.4376V55.6253C11.7496 56.5581 12.5043 57.3128 13.4371 57.3128H50.5623C51.495 57.3128 52.2498 56.5581 52.2498 55.6253V13.4376C52.2498 12.5048 51.495 11.7501 50.5623 11.7501H43.8122V8.37505H53.9373C54.8684 8.37505 55.6248 9.13146 55.6248 10.0626V59.0004Z" fill="#B0D3F0"/>
<path d="M32 10.9063C32.932 10.9063 33.6875 10.1507 33.6875 9.21876C33.6875 8.28677 32.932 7.53125 32 7.53125C31.068 7.53125 30.3125 8.28677 30.3125 9.21876C30.3125 10.1507 31.068 10.9063 32 10.9063Z" fill="#B0D3F0"/>
<path d="M40.3005 36.3984C39.728 35.0626 37.7707 35.0599 37.1991 36.3984L32.1365 48.2109C31.7691 49.0662 32.1662 50.0583 33.0231 50.4258C33.8751 50.7966 34.8721 50.3978 35.238 49.5392L35.8844 48.0313H41.6152C41.6152 48.0313 42.2609 49.5375 42.2616 49.5392C42.6223 50.3806 43.6353 50.7918 44.4765 50.4258C45.3334 50.0583 45.7305 49.0662 45.3631 48.2109C45.3631 48.2109 40.3067 36.4127 40.3005 36.3984ZM37.3312 44.6563L38.7498 41.3472L40.1684 44.6563H37.3312Z" fill="#B0D3F0"/>
<path d="M25.2496 35.3751C26.4978 35.3751 27.6532 35.0116 28.6571 34.4189C28.6571 34.4189 29.9611 35.7229 29.9627 35.7245C30.615 36.3767 31.6981 36.3753 32.349 35.7245C33.0081 35.0653 33.0081 33.9974 32.349 33.3382L31.0434 32.0326C31.6361 31.0287 31.9996 29.8733 31.9996 28.6251V26.9375C31.9996 23.2148 28.9723 20.1875 25.2496 20.1875C21.5268 20.1875 18.4995 23.2148 18.4995 26.9375V28.6251C18.4995 32.3478 21.5268 35.3751 25.2496 35.3751ZM21.8745 26.9375C21.8745 25.077 23.389 23.5625 25.2496 23.5625C27.1101 23.5625 28.6246 25.077 28.6246 26.9375V28.6251C28.6246 28.9251 28.5726 29.2108 28.4987 29.488L28.1302 29.1194C27.471 28.4603 26.4031 28.4603 25.744 29.1194C25.0848 29.7786 25.0848 30.8465 25.744 31.5057L26.1125 31.8742C25.8353 31.9481 25.5496 32.0001 25.2496 32.0001C23.389 32.0001 21.8745 30.4856 21.8745 28.6251V26.9375Z" fill="#B0D3F0"/>
<path d="M37.0625 25.25H43.8126C44.7453 25.25 45.5001 24.4952 45.5001 23.5625C45.5001 22.6298 44.7453 21.875 43.8126 21.875H37.0625C36.1298 21.875 35.375 22.6298 35.375 23.5625C35.375 24.4952 36.1298 25.25 37.0625 25.25Z" fill="#B0D3F0"/>
<path d="M37.0625 32.0003H43.8126C44.7453 32.0003 45.5001 31.2455 45.5001 30.3128C45.5001 29.38 44.7453 28.6252 43.8126 28.6252H37.0625C36.1298 28.6252 35.375 29.38 35.375 30.3128C35.375 31.2455 36.1298 32.0003 37.0625 32.0003Z" fill="#B0D3F0"/>
<path d="M20.187 42.1253H26.9371C27.8698 42.1253 28.6246 41.3705 28.6246 40.4378C28.6246 39.505 27.8698 38.7502 26.9371 38.7502H20.187C19.2543 38.7502 18.4995 39.505 18.4995 40.4378C18.4995 41.3705 19.2543 42.1253 20.187 42.1253Z" fill="#B0D3F0"/>
<path d="M20.187 48.8753H26.9371C27.8698 48.8753 28.6246 48.1205 28.6246 47.1878C28.6246 46.255 27.8698 45.5002 26.9371 45.5002H20.187C19.2543 45.5002 18.4995 46.255 18.4995 47.1878C18.4995 48.1205 19.2543 48.8753 20.187 48.8753Z" fill="#B0D3F0"/>
</g>
<defs>
<clipPath id="clip0_2602_145">
<rect width="64" height="64" fill="white"/>
</clipPath>
</defs>
</svg>
