<svg width="64" height="64" viewBox="0 0 64 64" fill="none" xmlns="http://www.w3.org/2000/svg">
<g clip-path="url(#clip0_2615_267)">
<path d="M32 61.7544H5.05263C2.26644 61.7544 0 59.4879 0 56.7018V5.05263C0 2.26644 2.26644 0 5.05263 0H49.9649C52.7511 0 55.0175 2.26644 55.0175 5.05263V34.9079C55.0175 35.8377 54.2632 36.5921 53.3333 36.5921C52.4035 36.5921 51.6491 35.8377 51.6491 34.9079V5.05263C51.6491 4.1239 50.8936 3.36842 49.9649 3.36842H5.05263C4.1239 3.36842 3.36842 4.1239 3.36842 5.05263V56.7018C3.36842 57.6305 4.1239 58.386 5.05263 58.386H32C32.9298 58.386 33.6842 59.1404 33.6842 60.0702C33.6842 61 32.9298 61.7544 32 61.7544Z" fill="#B0D3F0"/>
<path d="M29.7541 37.0526H9.54359C8.61377 37.0526 7.85938 36.2982 7.85938 35.3684V9.54383C7.85938 8.61401 8.61377 7.85962 9.54359 7.85962C10.4734 7.85962 11.2278 8.61401 11.2278 9.54383V33.6842H29.7541C30.6839 33.6842 31.4383 34.4386 31.4383 35.3684C31.4383 36.2982 30.6839 37.0526 29.7541 37.0526Z" fill="#B0D3F0"/>
<path d="M9.54271 29.193C9.14906 29.193 8.75433 29.0559 8.43525 28.7763C7.73459 28.1634 7.66332 27.0998 8.27626 26.4002L16.1359 17.4178C16.4429 17.0669 16.8815 16.8586 17.3475 16.8432C17.8026 16.8147 18.2653 17.0055 18.5942 17.3355L25.1381 23.8794L34.0646 12.9682C34.3662 12.5998 34.8092 12.3772 35.2839 12.3531C35.7719 12.3356 36.2225 12.5077 36.5591 12.8443L40.8431 17.1272L44.1589 12.9825C44.739 12.2566 45.7971 12.1371 46.5262 12.7204C47.2521 13.3015 47.3694 14.3608 46.7883 15.0877L42.2971 20.7018C41.9977 21.0757 41.5537 21.3037 41.0756 21.3312C40.6041 21.3509 40.1304 21.1787 39.7916 20.8399L35.4934 16.5417L26.5668 27.4529C26.2653 27.8213 25.8223 28.0439 25.3475 28.068C24.8552 28.0812 24.4089 27.9123 24.0723 27.5768L17.4857 20.9902L10.8113 28.6173C10.478 28.9978 10.012 29.193 9.54271 29.193Z" fill="#B0D3F0"/>
<path d="M27.5085 44.9124H9.54359C8.61377 44.9124 7.85938 44.158 7.85938 43.2282C7.85938 42.2983 8.61377 41.5439 9.54359 41.5439H27.5085C28.4383 41.5439 29.1927 42.2983 29.1927 43.2282C29.1927 44.158 28.4383 44.9124 27.5085 44.9124Z" fill="#B0D3F0"/>
<path d="M19.6488 51.6492H9.54359C8.61377 51.6492 7.85938 50.8948 7.85938 49.965C7.85938 49.0352 8.61377 48.2808 9.54359 48.2808H19.6488C20.5787 48.2808 21.3331 49.0352 21.3331 49.965C21.3331 50.8948 20.5787 51.6492 19.6488 51.6492Z" fill="#B0D3F0"/>
<path d="M48.1128 32.2249C39.3518 32.2249 32.2246 39.3521 32.2246 48.113C32.2246 56.8729 39.3518 64.0001 48.1128 64.0001C56.8726 64.0001 63.9998 56.8729 63.9998 48.113C63.9998 39.3521 56.8726 32.2249 48.1128 32.2249ZM55.5974 54.9968C55.2652 55.3575 54.8112 55.5407 54.3573 55.5407C53.9494 55.5407 53.5404 55.3937 53.2169 55.0966L46.9724 49.3532C46.6259 49.0341 46.4286 48.5845 46.4286 48.113V39.8104C46.4286 38.8806 47.1829 38.1262 48.1128 38.1262C49.0426 38.1262 49.797 38.8806 49.797 39.8104V47.374L55.4976 52.6163C56.1819 53.2468 56.2268 54.3115 55.5974 54.9968Z" fill="#B0D3F0"/>
</g>
<defs>
<clipPath id="clip0_2615_267">
<rect width="64" height="64" fill="white"/>
</clipPath>
</defs>
</svg>
