<svg width="64" height="64" viewBox="0 0 64 64" fill="none" xmlns="http://www.w3.org/2000/svg">
<g clip-path="url(#clip0_2609_6)">
<path d="M31.25 22.5C31.9399 22.5 32.5 21.9399 32.5 21.25C32.5 20.5601 31.9399 20 31.25 20C30.5601 20 30 20.5601 30 21.25C30 21.9399 30.5601 22.5 31.25 22.5Z" fill="#B0D3F0"/>
<path d="M31.25 27.5C31.9399 27.5 32.5 26.9399 32.5 26.25C32.5 25.5601 31.9399 25 31.25 25C30.5601 25 30 25.5601 30 26.25C30 26.9399 30.5601 27.5 31.25 27.5Z" fill="#B0D3F0"/>
<path d="M63.6338 12.8662L51.1338 0.366211C50.9126 0.144531 50.5913 0 50.25 0H18.75C16.6821 0 15 1.68213 15 3.75V7.55762C14.585 7.52002 14.1675 7.5 13.75 7.5C6.16846 7.5 0 13.6685 0 21.25C0 28.8315 6.16846 35 13.75 35C14.1675 35 14.585 34.98 15 34.9424V60.25C15 62.3179 16.6821 64 18.75 64H60.25C62.3179 64 64 62.3179 64 60.25V13.75C64 13.4087 63.8579 13.0903 63.6338 12.8662ZM51.5 4.26758L59.7324 12.5H51.5V4.26758ZM15 10.0698C20.2783 10.6523 24.3506 14.8608 24.9277 20H15V10.0698ZM2.5 21.25C2.5 15.4692 6.88281 10.6938 12.5 10.0698V21.25C12.5 21.9404 13.0596 22.4985 13.75 22.4985H24.9277C24.2998 28.0903 19.5688 32.5 13.75 32.5C7.54688 32.5 2.5 27.4531 2.5 21.25ZM60.25 61.5H18.75C18.0605 61.5 17.5 60.9395 17.5 60.25V34.4795C23.3516 32.8232 27.5 27.418 27.5 21.25C27.5 15.082 23.3516 9.67676 17.5 8.02051V3.75C17.5 3.06055 18.0605 2.5 18.75 2.5H49V13.75C49 14.4404 49.5596 15 50.25 15H61.5V60.25C61.5 60.9395 60.9395 61.5 60.25 61.5Z" fill="#B0D3F0"/>
<path d="M32 10H45.25C45.9404 10 46.5 9.44043 46.5 8.75C46.5 8.05957 45.9404 7.5 45.25 7.5H32C31.3096 7.5 30.75 8.05957 30.75 8.75C30.75 9.44043 31.3096 10 32 10Z" fill="#B0D3F0"/>
<path d="M32 15H45.25C45.9404 15 46.5 14.4404 46.5 13.75C46.5 13.0596 45.9404 12.5 45.25 12.5H32C31.3096 12.5 30.75 13.0596 30.75 13.75C30.75 14.4404 31.3096 15 32 15Z" fill="#B0D3F0"/>
<path d="M13.75 27.5C10.3037 27.5 7.5 24.6963 7.5 21.25C7.5 20.5596 6.94043 20 6.25 20C5.55957 20 5 20.5596 5 21.25C5 26.0747 8.92529 30 13.75 30C14.4404 30 15 29.4404 15 28.75C15 28.0596 14.4404 27.5 13.75 27.5Z" fill="#B0D3F0"/>
<path d="M54.875 33.25C52.8071 33.25 51.125 34.9321 51.125 37C51.125 37.7749 51.3613 38.4961 51.7656 39.0942L43.0854 48.4106C42.7417 48.3066 42.3774 48.25 42 48.25C41.4727 48.25 40.9624 48.3594 40.4937 48.5649L36.584 43.7183C36.8555 43.1934 37 42.6079 37 42C37 39.9321 35.3179 38.25 33.25 38.25C31.1821 38.25 29.5 39.9321 29.5 42C29.5 42.584 29.6338 43.147 29.8848 43.6558L25.3267 48.5962C24.8389 48.3696 24.3037 48.25 23.75 48.25C21.6821 48.25 20 49.9321 20 52C20 54.0679 21.6821 55.75 23.75 55.75C25.8179 55.75 27.5 54.0679 27.5 52C27.5 51.416 27.3667 50.853 27.1152 50.3442L31.6733 45.4038C32.1611 45.6304 32.6963 45.75 33.25 45.75C33.7773 45.75 34.2876 45.6406 34.7563 45.4351L38.666 50.2817C38.3945 50.8066 38.25 51.3921 38.25 52C38.25 54.0679 39.9321 55.75 42 55.75C44.0679 55.75 45.75 54.0679 45.75 52C45.75 51.2251 45.5137 50.5039 45.1094 49.9058L53.7896 40.5894C54.1333 40.6934 54.4976 40.75 54.875 40.75C56.9429 40.75 58.625 39.0679 58.625 37C58.625 34.9321 56.9429 33.25 54.875 33.25ZM23.75 53.25C23.0605 53.25 22.5 52.6895 22.5 52C22.5 51.3105 23.0605 50.75 23.75 50.75C24.4399 50.75 25 51.3096 25 52C25 52.6895 24.4395 53.25 23.75 53.25ZM32 42C32 41.3105 32.5605 40.75 33.25 40.75C33.9395 40.75 34.5 41.3105 34.5 42C34.5 42.6899 33.9404 43.25 33.25 43.25C32.5596 43.25 32 42.6899 32 42ZM42 53.25C41.3105 53.25 40.75 52.6895 40.75 52C40.75 51.3101 41.3096 50.75 42 50.75C42.6895 50.75 43.25 51.3105 43.25 52C43.25 52.6895 42.6895 53.25 42 53.25ZM54.875 38.25C54.1855 38.25 53.625 37.6895 53.625 37C53.625 36.3105 54.1855 35.75 54.875 35.75C55.5645 35.75 56.125 36.3105 56.125 37C56.125 37.6895 55.5645 38.25 54.875 38.25Z" fill="#B0D3F0"/>
<path d="M35 21.25C35 21.9404 35.5596 22.5 36.25 22.5H55.25C55.9404 22.5 56.5 21.9404 56.5 21.25C56.5 20.5596 55.9404 20 55.25 20H36.25C35.5596 20 35 20.5596 35 21.25Z" fill="#B0D3F0"/>
<path d="M55.25 25H36.25C35.5596 25 35 25.5596 35 26.25C35 26.9404 35.5596 27.5 36.25 27.5H55.25C55.9404 27.5 56.5 26.9404 56.5 26.25C56.5 25.5596 55.9404 25 55.25 25Z" fill="#B0D3F0"/>
</g>
<defs>
<clipPath id="clip0_2609_6">
<rect width="64" height="64" fill="white"/>
</clipPath>
</defs>
</svg>
