<svg width="64" height="64" viewBox="0 0 64 64" fill="none" xmlns="http://www.w3.org/2000/svg">
<path d="M46.0264 48.3963V43.8462C46.0264 43.6162 45.9201 43.3987 45.7389 43.2562C42.0664 40.3775 40.4226 37.62 38.1601 33.4362C38.0626 31.8887 36.7739 30.66 35.2039 30.66H34.5501V30.6325C34.5501 30.2187 34.2139 29.8825 33.8001 29.8825H28.0626L27.5426 29.24V26.9037C27.5426 25.4275 26.6651 24.1538 25.4039 23.575V23.4688C26.6976 23.3537 27.6751 22.8887 28.3176 22.08C29.2339 20.9275 29.4126 19.18 28.8614 16.7463C29.5076 15.475 29.4764 14.1037 28.7626 12.8525C27.7389 11.055 25.4301 9.74875 23.2739 9.74875C19.6314 9.74875 16.6676 12.7125 16.6676 16.355C16.6676 19.1525 18.4151 21.55 20.8764 22.5112V23.5737C20.4764 23.7575 20.1151 24.01 19.8076 24.3188H13.1676C11.1626 24.3188 9.53137 25.95 9.53137 27.955V37.4762C9.53137 37.89 9.86762 38.2262 10.2814 38.2262H17.3676C16.9939 39.275 17.0339 40.61 17.4001 41.7675H10.1489C8.58512 41.7675 7.31387 43.04 7.31387 44.6025C7.31387 45.155 7.47387 45.6712 7.74762 46.1075C4.47012 47.9387 2.40137 51.41 2.40137 55.2188C2.40137 55.335 2.40387 55.4513 2.40762 55.5675C2.42137 55.9725 2.75262 56.2925 3.15762 56.2925H5.73012C6.10387 59.57 8.89262 62.125 12.2676 62.125C15.6426 62.125 18.4326 59.57 18.8064 56.2925H23.1264H24.5401H34.2739C34.6476 59.57 37.4364 62.125 40.8126 62.125C44.1889 62.125 46.9776 59.57 47.3514 56.2925H48.6039C48.8089 56.2925 49.0051 56.2088 49.1464 56.06C49.2876 55.9113 49.3626 55.7112 49.3526 55.5062C49.2164 52.725 47.9664 50.1988 46.0264 48.3963ZM44.5264 44.2075V47.2363C43.4976 46.58 42.3451 46.0987 41.1076 45.8387L35.5051 34.3875H36.9701C39.2014 38.5013 40.8939 41.2875 44.5264 44.2075ZM25.8789 53.5938C24.3864 51.6275 23.8226 49.7538 24.0426 47.4375H24.5739C25.3414 47.4375 26.0389 47.13 26.5501 46.6325L28.9389 53.745V54.7925H26.2126C26.2601 54.3725 26.1464 53.945 25.8789 53.5938ZM34.8276 53.4437L36.5939 54.4375C36.7601 54.5312 36.8951 54.6525 36.9964 54.7938H30.4389V54.2487L34.8276 53.4437ZM27.5426 34.3875H33.8001H33.8351L39.6914 46.3563C38.5501 48.5338 37.1626 49.9812 35.3764 51.3937L32.2939 40.645C31.6639 38.4463 29.7851 36.9237 27.5414 36.745V34.3875H27.5426ZM35.2039 32.16C35.7426 32.16 36.2151 32.4525 36.4689 32.8875H34.5501V32.16H35.2039ZM33.0501 31.3825V32.8875H27.1026L22.2564 28.04C21.9201 27.7038 21.9101 27.1662 22.2339 26.8175L22.3051 26.74C22.4851 26.5462 22.6901 26.46 22.9564 26.4587C23.3701 26.4612 23.5264 26.6538 23.5776 26.7175L27.1214 31.1025C27.2639 31.2788 27.4776 31.3813 27.7051 31.3813H33.0501V31.3825ZM27.1439 21.145C26.6851 21.7225 25.8476 22.0125 24.6626 21.9937C24.5214 21.9937 24.3826 22.0313 24.2626 22.1038V19.54C24.2626 19.1263 23.9264 18.79 23.5126 18.79H22.9089C22.8439 18.79 22.7876 18.7325 22.7876 18.6688V17.2488C22.7876 17.1838 22.8451 17.1275 22.9089 17.1275H23.7801C23.9826 17.1275 24.1764 17.0463 24.3176 16.9013L25.5814 15.605L27.5614 15.9913C27.5201 16.0788 27.4726 16.1662 27.4201 16.2537C27.3201 16.4225 27.2901 16.6238 27.3364 16.815C27.8439 18.8888 27.7789 20.3463 27.1439 21.145ZM18.1676 16.355C18.1676 13.5387 20.4589 11.2487 23.2739 11.2487C24.8714 11.2487 26.7101 12.2788 27.4589 13.595C27.6314 13.8988 27.7426 14.2038 27.7926 14.51L25.4701 14.0562C25.2214 14.0075 24.9664 14.0875 24.7889 14.2688L23.4626 15.6287H22.9076C22.0139 15.6287 21.2864 16.3562 21.2864 17.25V18.67C21.2864 19.515 21.9364 20.2112 22.7626 20.285V21.4363C20.1864 21.1788 18.1676 18.9975 18.1676 16.355ZM22.3776 22.9C22.6714 22.94 22.9714 22.9613 23.2751 22.9613C23.3814 22.9613 23.4239 22.9587 23.4889 22.9525C23.5064 22.9512 23.5276 22.9488 23.5614 22.9475C23.6864 22.94 23.8026 22.9013 23.9039 22.84V23.2412C23.8964 23.2412 23.8889 23.2412 23.8801 23.2412H22.4001C22.3926 23.2412 22.3839 23.2412 22.3764 23.2412V22.9H22.3776ZM22.4001 24.74H23.8801C25.0726 24.74 26.0426 25.71 26.0426 26.9025V27.3825L24.7439 25.7763C24.3226 25.255 23.6914 24.965 22.9664 24.96C22.9601 24.96 22.9551 24.96 22.9489 24.96C22.2701 24.96 21.6676 25.2225 21.2051 25.7213L21.1339 25.7987C20.2589 26.7412 20.2851 28.1925 21.1951 29.1025L26.0414 33.9487V36.7262H20.2364V26.9037C20.2389 25.71 21.2089 24.74 22.4001 24.74ZM18.9014 25.8213C18.7951 26.1625 18.7389 26.5263 18.7389 26.9025V36.725H16.8051V27.98C16.8039 26.81 17.7389 25.8563 18.9014 25.8213ZM11.0314 27.9538C11.0314 26.7763 11.9901 25.8175 13.1676 25.8175H16.0126C15.5676 26.4237 15.3039 27.1712 15.3039 27.98V36.725H11.0314V27.9538ZM19.0551 38.225H19.4889H27.0951C28.8576 38.225 30.3676 39.3625 30.8539 41.0575L34.0114 52.0687L30.1951 52.7687L27.4076 44.47C27.3376 42.9675 26.0951 41.7675 24.5751 41.7675H19.0014C18.4101 40.4775 18.5076 38.87 19.0551 38.225ZM10.1489 43.2675H24.5751C25.3114 43.2675 25.9101 43.8663 25.9101 44.6025C25.9101 45.3388 25.3114 45.9375 24.5751 45.9375H10.1489C9.41262 45.9375 8.81387 45.3388 8.81387 44.6025C8.81387 43.8663 9.41262 43.2675 10.1489 43.2675ZM5.74637 54.7925C6.13512 51.3637 9.05637 48.6875 12.5839 48.6875C16.1114 48.6875 19.0326 51.3637 19.4214 54.7925H5.74637ZM14.2176 56.2925C13.9151 57.0762 13.1564 57.6338 12.2676 57.6338C11.3789 57.6338 10.6201 57.0762 10.3176 56.2925H14.2176ZM8.95012 47.1712C9.31387 47.3412 9.72012 47.4375 10.1489 47.4375H10.5576C7.15887 48.2862 4.57012 51.2187 4.23887 54.7925H3.91137C4.06762 51.5225 5.99887 48.5975 8.95012 47.1712ZM12.2676 60.625C9.72012 60.625 7.60512 58.7412 7.24137 56.2925H8.75637C9.10262 57.9137 10.5451 59.1338 12.2676 59.1338C13.9901 59.1338 15.4339 57.9137 15.7789 56.2925H17.2939C16.9301 58.7412 14.8151 60.625 12.2676 60.625ZM23.1264 54.7925H20.9276C20.5964 51.2187 18.0076 48.2862 14.6089 47.4375H22.5351C22.3164 50.0663 22.9951 52.275 24.6851 54.5013C24.7326 54.5638 24.7376 54.6225 24.7026 54.6925C24.6676 54.7625 24.6176 54.7938 24.5401 54.7938H23.1264V54.7925ZM40.8114 60.625C38.2639 60.625 36.1489 58.7412 35.7851 56.2925H37.3001C37.4414 56.9612 37.7701 57.5762 38.2626 58.0725C38.9401 58.7562 39.8451 59.1338 40.8114 59.1338C42.5339 59.1338 43.9776 57.9137 44.3226 56.2925H45.8376C45.4751 58.7412 43.3589 60.625 40.8114 60.625ZM38.8614 56.2925H42.7614C42.4589 57.0762 41.7001 57.6338 40.8114 57.6338C40.2489 57.6338 39.7226 57.415 39.3289 57.0175C39.1214 56.8075 38.9639 56.5612 38.8614 56.2925ZM38.6276 54.7925C38.4414 54.0937 37.9851 53.4987 37.3289 53.1287L36.3189 52.56C38.1814 51.0875 39.6501 49.575 40.8789 47.3213C44.5026 48.1188 47.2701 51.13 47.7801 54.7925H38.6276ZM59.9814 3.4725C58.9464 2.4425 57.5726 1.875 56.1126 1.875C56.1076 1.875 56.1039 1.875 56.0989 1.875C53.0739 1.8825 50.6189 4.35 50.6264 7.375C50.6314 9.26 51.8564 10.8925 52.9376 12.3337C53.2639 12.7687 53.5726 13.18 53.8439 13.5875L55.5101 16.0912C55.6489 16.3 55.8839 16.4263 56.1351 16.4263H56.1364C56.3876 16.4263 56.6226 16.2988 56.7614 16.0888L58.4151 13.5763C58.6839 13.1675 58.9901 12.755 59.3151 12.3175C60.3889 10.8713 61.6051 9.2325 61.6014 7.3475C61.5951 5.8825 61.0201 4.50625 59.9814 3.4725ZM58.1089 11.4225C57.7864 11.8562 57.4526 12.3063 57.1601 12.75L56.1301 14.315L55.0926 12.755C54.7976 12.3125 54.4626 11.865 54.1376 11.4325C53.1514 10.1175 52.1301 8.7575 52.1264 7.37125C52.1214 5.17375 53.9051 3.38 56.1026 3.375H56.1126C57.1739 3.375 58.1714 3.7875 58.9239 4.535C59.6789 5.28625 60.0964 6.28625 60.0989 7.35125C60.1014 8.7375 59.0889 10.1025 58.1089 11.4225ZM58.2464 5.21625C57.6739 4.64625 56.9089 4.33375 56.1039 4.335C54.4351 4.33875 53.0814 5.7 53.0851 7.36875C53.0876 8.1775 53.4039 8.93625 53.9764 9.50625C54.5476 10.075 55.3051 10.3875 56.1101 10.3875H56.1176C57.7864 10.3837 59.1401 9.0225 59.1364 7.35375C59.1364 6.545 58.8201 5.78625 58.2464 5.21625ZM56.1164 8.8875C56.1151 8.8875 56.1139 8.8875 56.1126 8.8875C55.7064 8.8875 55.3251 8.73 55.0364 8.44375C54.7476 8.15625 54.5876 7.77375 54.5864 7.36625C54.5851 6.95875 54.7426 6.575 55.0301 6.28625C55.3176 5.9975 55.7001 5.8375 56.1076 5.83625H56.1114C56.9514 5.83625 57.6351 6.51875 57.6376 7.35875C57.6401 8.19875 56.9576 8.885 56.1164 8.8875ZM58.8251 31.5225V36.7762C58.8251 40.4312 55.8514 43.405 52.1964 43.405H48.2276C47.8139 43.405 47.4776 43.0687 47.4776 42.655C47.4776 42.2412 47.8139 41.905 48.2276 41.905H52.1964C55.0239 41.905 57.3251 39.6037 57.3251 36.7762V31.5225C57.3251 28.695 55.0251 26.3937 52.1964 26.3937H37.6526C35.1726 26.3937 33.1539 24.3763 33.1539 21.895C33.1539 19.4138 35.1714 17.3962 37.6526 17.3962H57.0014C57.4151 17.3962 57.7514 17.7325 57.7514 18.1462C57.7514 18.56 57.4151 18.8962 57.0014 18.8962H37.6526C35.9989 18.8962 34.6539 20.2413 34.6539 21.895C34.6539 23.5488 35.9989 24.8937 37.6526 24.8937H52.1964C55.8514 24.8937 58.8251 27.8675 58.8251 31.5225Z" fill="#B0D3F0"/>
</svg>
