<svg width="64" height="64" viewBox="0 0 64 64" fill="none" xmlns="http://www.w3.org/2000/svg">
<path d="M62.75 22C63.2431 22 63.6901 21.7101 63.8914 21.2598C64.0924 20.8095 64.01 20.2832 63.681 19.9159L59.3885 15.125L63.681 10.3341C64.01 9.96687 64.0924 9.4405 63.8914 8.99025C63.6901 8.53987 63.2431 8.25 62.75 8.25H47.1251C46.4349 8.25 45.8751 8.80975 45.8751 9.5V33.25H30.0285V25.2407C31.6589 24.7122 32.841 23.1791 32.841 21.375C32.841 19.1349 31.0186 17.3125 28.7785 17.3125C26.5384 17.3125 24.716 19.1349 24.716 21.375C24.716 23.1791 25.8981 24.7124 27.5285 25.2407V33.25H11.6818V28.8345C13.3121 28.3061 14.4944 26.7729 14.4944 24.9688C14.4944 22.7286 12.6719 20.9062 10.4318 20.9062C8.19163 20.9062 6.36925 22.7286 6.36925 24.9688C6.36925 26.7729 7.55138 28.3061 9.18175 28.8345V33.25H1.25C0.55975 33.25 0 33.8098 0 34.5V54.5C0 55.1902 0.55975 55.75 1.25 55.75H56.2897C56.7141 55.75 57.1095 55.5346 57.3396 55.1784L63.7998 45.1784C64.0665 44.7654 64.0665 44.2346 63.7998 43.8216L57.3396 33.8216C57.1094 33.4652 56.714 33.25 56.2897 33.25H48.3751V22H62.75ZM48.3751 10.75H59.9516L56.7791 14.2909C56.3539 14.7656 56.3539 15.4844 56.7791 15.9591L59.9516 19.5H48.3751V10.75ZM28.7785 19.8125C29.6401 19.8125 30.341 20.5134 30.341 21.375C30.341 22.2366 29.6401 22.9375 28.7785 22.9375C27.9169 22.9375 27.216 22.2366 27.216 21.375C27.216 20.5134 27.9169 19.8125 28.7785 19.8125ZM10.4318 23.4062C11.2934 23.4062 11.9944 24.1071 11.9944 24.9688C11.9944 25.8304 11.2934 26.5312 10.4318 26.5312C9.57013 26.5312 8.86925 25.8304 8.86925 24.9688C8.86925 24.1071 9.57025 23.4062 10.4318 23.4062ZM21.8923 53.25L27.1066 45.1784C27.3734 44.7654 27.3734 44.2346 27.1066 43.8216L21.8923 35.75H37.2625L42.9151 44.5L37.2625 53.25H21.8923ZM2.5 35.75H18.916L24.5686 44.5L18.916 53.25H2.5V35.75ZM61.2617 44.5L55.6091 53.25H40.2389L45.4533 45.1784C45.72 44.7654 45.72 44.2346 45.4533 43.8216L40.2388 35.75H55.6091L61.2617 44.5Z" fill="#B0D3F0"/>
</svg>
