<svg width="64" height="64" viewBox="0 0 64 64" fill="none" xmlns="http://www.w3.org/2000/svg">
<mask id="mask0_2595_230" style="mask-type:luminance" maskUnits="userSpaceOnUse" x="12" y="12" width="40" height="40">
<path d="M52 12H12V52H52V12Z" fill="white"/>
</mask>
<g mask="url(#mask0_2595_230)">
<path d="M27.8204 20.0576L27.5821 23.0797C27.55 23.4863 27.7316 23.8802 28.0615 24.1198C28.3915 24.3595 28.8222 24.4105 29.1989 24.2544L31.9995 23.0938L34.8001 24.2543C35.175 24.4098 35.6068 24.3602 35.9375 24.1198C36.2675 23.8801 36.449 23.4861 36.417 23.0796L36.1787 20.0575L38.1479 17.7526C38.4128 17.4426 38.4974 17.0171 38.3714 16.6293C38.2454 16.2415 37.9268 15.947 37.5303 15.8519L34.5825 15.1446L32.9989 12.5596C32.7857 12.212 32.4073 12 31.9995 12C31.5917 12 31.2132 12.212 31.0002 12.5597L29.4166 15.1447L26.4688 15.8519C26.0722 15.9471 25.7537 16.2415 25.6277 16.6294C25.5017 17.0172 25.5863 17.4427 25.8512 17.7527L27.8204 20.0576ZM30.4356 17.3104C30.7379 17.2379 30.999 17.0481 31.1614 16.7831L31.9995 15.4152L32.8375 16.7831C33 17.0481 33.2611 17.2379 33.5634 17.3104L35.1232 17.6847L34.0813 18.9044C33.8793 19.1408 33.7796 19.4477 33.804 19.7577L33.9301 21.3568L32.4482 20.7427C32.1609 20.6238 31.8382 20.6238 31.551 20.7427L30.069 21.3568L30.1951 19.7577C30.2196 19.4477 30.1198 19.1408 29.9179 18.9044L28.8759 17.6847L30.4356 17.3104Z" fill="white"/>
<path d="M51.9425 21.2388C51.8165 20.8509 51.498 20.5565 51.1014 20.4613L48.1536 19.7541L46.57 17.1691C46.357 16.8213 45.9785 16.6094 45.5708 16.6094C45.163 16.6094 44.7845 16.8213 44.5715 17.1691L42.9879 19.7541L40.0401 20.4613C39.6435 20.5565 39.325 20.8509 39.199 21.2388C39.073 21.6266 39.1576 22.0521 39.4225 22.3621L41.3916 24.667L41.1534 27.6891C41.1213 28.0957 41.3029 28.4896 41.6328 28.7293C41.9628 28.9689 42.3935 29.02 42.7702 28.8638L45.5709 27.7033L48.3714 28.8638C48.7463 29.0193 49.1781 28.9696 49.5088 28.7293C49.8388 28.4896 50.0203 28.0957 49.9883 27.6891L49.75 24.667L51.7191 22.3621C51.9839 22.0521 52.0686 21.6266 51.9425 21.2388ZM47.6525 23.5138C47.4505 23.7501 47.3508 24.0571 47.3752 24.3671L47.5013 25.9663L46.0194 25.3522C45.7322 25.2332 45.4094 25.2332 45.1222 25.3522L43.6402 25.9663L43.7663 24.3671C43.7907 24.0571 43.6909 23.7502 43.489 23.5138L42.447 22.2941L44.0069 21.9198C44.3092 21.8473 44.5703 21.6576 44.7327 21.3925L45.5708 20.0246L46.4088 21.3925C46.5712 21.6577 46.8323 21.8473 47.1346 21.9198L48.6945 22.2942L47.6525 23.5138Z" fill="white"/>
<path d="M22.3672 28.7293C22.6971 28.4896 22.8786 28.0956 22.8466 27.6891L22.6083 24.667L24.5775 22.3621C24.8424 22.0521 24.927 21.6266 24.801 21.2388C24.675 20.8509 24.3564 20.5565 23.9599 20.4613L21.0121 19.7541L19.4285 17.1691C19.2154 16.8213 18.837 16.6094 18.4292 16.6094C18.0214 16.6094 17.6429 16.8213 17.4299 17.1691L15.8463 19.7541L12.8985 20.4613C12.5019 20.5565 12.1834 20.8509 12.0574 21.2388C11.9314 21.6266 12.016 22.0521 12.2809 22.3621L14.25 24.667L14.0118 27.6891C13.9797 28.0957 14.1613 28.4896 14.4912 28.7293C14.8219 28.9696 15.2538 29.0193 15.6286 28.8638L18.4292 27.7033L21.2298 28.8638C21.6064 29.0199 22.0373 28.969 22.3672 28.7293ZM20.2336 24.3671L20.3597 25.9663L18.8777 25.3522C18.5904 25.2332 18.2677 25.2332 17.9805 25.3522L16.4986 25.9663L16.6247 24.3671C16.6491 24.0571 16.5493 23.7502 16.3474 23.5138L15.3054 22.2942L16.8653 21.9198C17.1677 21.8473 17.4288 21.6576 17.5912 21.3925L18.4292 20.0246L19.2672 21.3925C19.4297 21.6576 19.6907 21.8473 19.9931 21.9198L21.553 22.2941L20.511 23.5138C20.3089 23.7502 20.2092 24.0571 20.2336 24.3671Z" fill="white"/>
<path d="M45.3591 37.5765C44.5923 36.664 43.4691 36.1406 42.2773 36.1406H37.9136L38.6769 33.7644C38.8234 33.3175 38.8977 32.8537 38.8977 32.3859C38.8977 30.4641 37.6696 28.7723 35.8425 28.176C34.4798 27.7302 33.0085 28.4762 32.5614 29.843L30.7829 35.3512C30.568 36.0097 30.0501 36.5426 29.3978 36.7765L27.3906 37.4955V36.7656C27.3906 36.1184 26.8659 35.5937 26.2188 35.5937H20.2812C19.6341 35.5937 19.1094 36.1184 19.1094 36.7656V50.8281C19.1094 51.4753 19.6341 52 20.2812 52H26.2188C26.8659 52 27.3906 51.4753 27.3906 50.8281V49.7277C27.9922 49.7779 28.5511 50.0358 28.9822 50.4667C29.8846 51.3789 31.1644 51.9087 32.4492 51.9031H40.2375C42.5988 51.9031 44.6077 50.2148 45.0145 47.8883L46.2418 40.8583C46.4472 39.6848 46.1255 38.4887 45.3591 37.5765ZM25.0469 49.6562H21.4531V37.9375H25.0469V49.6562ZM43.9331 40.4547L42.7059 47.4848C42.4957 48.6869 41.4576 49.5594 40.2376 49.5594H32.4493C31.7782 49.5619 31.1119 49.2866 30.6405 48.8104C29.7656 47.9356 28.6186 47.4327 27.3906 47.3795V39.9852L30.1885 38.9828C31.5179 38.506 32.573 37.4203 33.012 36.0749L34.7903 30.5674C34.8342 30.4332 34.9792 30.3598 35.1145 30.4039C36.2002 30.7422 36.818 31.9652 36.4475 33.0409L35.1905 36.9541C34.9349 37.6812 35.5359 38.5053 36.3062 38.4844H42.2773C43.2909 38.4597 44.1323 39.4602 43.9331 40.4547Z" fill="white"/>
</g>
</svg>
