<svg width="64" height="64" viewBox="0 0 64 64" fill="none" xmlns="http://www.w3.org/2000/svg">
<g clip-path="url(#clip0_2600_305)">
<path d="M3.75 3.75H6.90125V0H0V6.90137H3.75V3.75Z" fill="#0284C7"/>
<path d="M0 11.4197H3.75V18.3211H0V11.4197Z" fill="#0284C7"/>
<path d="M0 22.8396H3.75V29.741H0V22.8396Z" fill="#0284C7"/>
<path d="M45.6792 0H52.5804V3.75H45.6792V0Z" fill="#0284C7"/>
<path d="M34.2593 0H41.1605V3.75H34.2593V0Z" fill="#0284C7"/>
<path d="M22.8394 0H29.7406V3.75H22.8394V0Z" fill="#0284C7"/>
<path d="M11.4199 0H18.3212V3.75H11.4199V0Z" fill="#0284C7"/>
<path d="M57.0986 0V3.75H60.2499V6.90137H63.9999V0H57.0986Z" fill="#0284C7"/>
<path d="M60.25 11.4197H64V18.3211H60.25V11.4197Z" fill="#0284C7"/>
<path d="M60.25 22.8396H64V29.741H60.25V22.8396Z" fill="#0284C7"/>
<path d="M60.25 34.259H64V41.1604H60.25V34.259Z" fill="#0284C7"/>
<path d="M60.25 45.679H64V52.5803H60.25V45.679Z" fill="#0284C7"/>
<path d="M60.2499 60.25H57.0986V64H63.9999V57.0986H60.2499V60.25Z" fill="#0284C7"/>
<path d="M45.6792 60.25H52.5804V64H45.6792V60.25Z" fill="#0284C7"/>
<path d="M34.2593 60.25H41.1605V64H34.2593V60.25Z" fill="#0284C7"/>
<path d="M0 64H29.7407V34.2593H0V64ZM3.75 38.0093H25.9907V60.25H3.75V38.0093Z" fill="#0284C7"/>
<path d="M44.9953 14.4917H46.8565L36.7905 24.5577V22.6965H33.0405V30.9593H41.3034V27.2093H39.4422L49.5082 17.1432V19.0046H53.2582V10.7417H44.9953V14.4917Z" fill="#0284C7"/>
</g>
<defs>
<clipPath id="clip0_2600_305">
<rect width="64" height="64" fill="white"/>
</clipPath>
</defs>
</svg>
