<svg width="64" height="64" viewBox="0 0 64 64" fill="none" xmlns="http://www.w3.org/2000/svg">
<g clip-path="url(#clip0_2619_461)">
<path d="M60.25 0.000976562H3.75C1.68225 0.000976562 0 1.68323 0 3.75098V53.751C0 55.8187 1.68225 57.501 3.75 57.501H17.6562C18.3465 57.501 18.9062 56.9412 18.9062 56.251C18.9062 55.5607 18.3465 55.001 17.6562 55.001H3.75C3.06075 55.001 2.5 54.4402 2.5 53.751V12.501H61.5V53.751C61.5 54.4402 60.9392 55.001 60.25 55.001H54.0902L41.3355 42.2462C42.7161 39.7225 43.502 36.8289 43.502 33.7549C43.502 23.9675 35.5394 16.0049 25.752 16.0049C15.9646 16.0049 8.002 23.9675 8.002 33.7549C8.002 43.5422 15.9646 51.5049 25.752 51.5049C28.8256 51.5049 31.7191 50.7191 34.2427 49.3386L39.905 55.0009H28.9062C28.216 55.0009 27.6562 55.5606 27.6562 56.2509C27.6562 56.9411 28.216 57.5009 28.9062 57.5009H42.405L47.4365 62.5325C48.4141 63.5101 49.6985 63.999 50.9827 63.9989C52.267 63.9989 53.5514 63.5101 54.5291 62.5324C55.8884 61.173 56.3016 59.2215 55.7713 57.5009H60.25C62.3177 57.5009 64 55.8186 64 53.7509V3.75085C64 1.68323 62.3177 0.000976562 60.25 0.000976562ZM10.502 33.7549C10.502 25.346 17.3431 18.5049 25.752 18.5049C34.1609 18.5049 41.002 25.346 41.002 33.7549C41.002 42.1637 34.1609 49.0049 25.752 49.0049C17.3431 49.0049 10.502 42.1639 10.502 33.7549ZM39.9496 44.3961L42.3301 46.7766L38.7731 50.3336L36.3926 47.9531C37.7392 46.9412 38.9379 45.7426 39.9496 44.3961ZM52.7615 60.7647C51.7806 61.7454 50.185 61.7454 49.2044 60.7647L40.541 52.1014L44.098 48.5444L52.7614 57.2077C53.7421 58.1884 53.7421 59.784 52.7615 60.7647ZM2.5 10.001V3.75098C2.5 3.06173 3.06075 2.50098 3.75 2.50098H60.25C60.9392 2.50098 61.5 3.06173 61.5 3.75098V10.001H2.5Z" fill="#B0D3F0"/>
<path d="M56 5.00098H29C28.3098 5.00098 27.75 5.56073 27.75 6.25098C27.75 6.94123 28.3098 7.50098 29 7.50098H56C56.6902 7.50098 57.25 6.94123 57.25 6.25098C57.25 5.56073 56.6902 5.00098 56 5.00098Z" fill="#B0D3F0"/>
<path d="M13.5 5.00146C13.1712 5.00146 12.8488 5.13396 12.6163 5.36771C12.3836 5.60021 12.25 5.92271 12.25 6.25146C12.25 6.58021 12.3836 6.90271 12.6163 7.13509C12.8488 7.36759 13.1712 7.50146 13.5 7.50146C13.8288 7.50146 14.1513 7.36771 14.3836 7.13509C14.6163 6.90271 14.75 6.58021 14.75 6.25146C14.75 5.92271 14.6163 5.60021 14.3836 5.36771C14.1513 5.13384 13.8288 5.00146 13.5 5.00146Z" fill="#B0D3F0"/>
<path d="M8 5.00146C7.67125 5.00146 7.34875 5.13396 7.11625 5.36771C6.88363 5.60021 6.75 5.92271 6.75 6.25146C6.75 6.58021 6.88363 6.90271 7.11625 7.13509C7.34875 7.36759 7.67125 7.50146 8 7.50146C8.32875 7.50146 8.65125 7.36771 8.88363 7.13509C9.11625 6.90146 9.25 6.58021 9.25 6.25146C9.25 5.92271 9.11625 5.60021 8.88363 5.36771C8.65125 5.13384 8.32875 5.00146 8 5.00146Z" fill="#B0D3F0"/>
<path d="M19 5.00146C18.6712 5.00146 18.3487 5.13396 18.1162 5.36771C17.8837 5.60021 17.75 5.92271 17.75 6.25146C17.75 6.58021 17.8836 6.90271 18.1162 7.13509C18.3487 7.36759 18.6712 7.50146 19 7.50146C19.3288 7.50146 19.6513 7.36771 19.8836 7.13509C20.1163 6.90271 20.25 6.58021 20.25 6.25146C20.25 5.92271 20.1163 5.60021 19.8836 5.36771C19.6513 5.13384 19.3288 5.00146 19 5.00146Z" fill="#B0D3F0"/>
<path d="M25.752 32.8799C25.0617 32.8799 24.502 33.4396 24.502 34.1299V39.0049C24.502 39.6951 25.0617 40.2549 25.752 40.2549C26.4422 40.2549 27.002 39.6951 27.002 39.0049V34.1299C27.002 33.4396 26.4422 32.8799 25.752 32.8799Z" fill="#B0D3F0"/>
<path d="M25.7524 27.2549C25.4224 27.2549 25.0999 27.3885 24.8674 27.6211C24.6351 27.8535 24.5024 28.176 24.5024 28.5049C24.5024 28.8336 24.6351 29.1561 24.8674 29.3885C25.0999 29.621 25.4224 29.7549 25.7524 29.7549C26.0812 29.7549 26.4037 29.6211 26.6362 29.3885C26.8687 29.1561 27.0024 28.8336 27.0024 28.5049C27.0024 28.176 26.8688 27.8535 26.6362 27.6211C26.4036 27.3885 26.0811 27.2549 25.7524 27.2549Z" fill="#B0D3F0"/>
<path d="M25.752 21.0049C18.7216 21.0049 13.002 26.7245 13.002 33.7549C13.002 40.7853 18.7216 46.5049 25.752 46.5049C32.7823 46.5049 38.502 40.7853 38.502 33.7549C38.502 26.7245 32.7823 21.0049 25.752 21.0049ZM25.752 44.0049C20.1001 44.0049 15.502 39.4068 15.502 33.7549C15.502 28.103 20.1001 23.5049 25.752 23.5049C31.4038 23.5049 36.002 28.103 36.002 33.7549C36.002 39.4068 31.4037 44.0049 25.752 44.0049Z" fill="#B0D3F0"/>
<path d="M45.2837 25.2559C45.2837 25.9461 45.8434 26.5059 46.5337 26.5059H56.0002C56.6904 26.5059 57.2502 25.9461 57.2502 25.2559C57.2502 24.5656 56.6904 24.0059 56.0002 24.0059H46.5337C45.8433 24.0059 45.2837 24.5655 45.2837 25.2559Z" fill="#B0D3F0"/>
<path d="M46.5337 18.0063H43.9668C43.2765 18.0063 42.7168 18.5661 42.7168 19.2563C42.7168 19.9466 43.2765 20.5063 43.9668 20.5063H46.5337C47.2239 20.5063 47.7837 19.9466 47.7837 19.2563C47.7837 18.5661 47.2239 18.0063 46.5337 18.0063Z" fill="#B0D3F0"/>
<path d="M56.0002 20.5063C56.6904 20.5063 57.2502 19.9466 57.2502 19.2563C57.2502 18.5661 56.6904 18.0063 56.0002 18.0063H52.0337C51.3434 18.0063 50.7837 18.5661 50.7837 19.2563C50.7837 19.9466 51.3434 20.5063 52.0337 20.5063H56.0002Z" fill="#B0D3F0"/>
<path d="M56 30.0059H52.9062C52.216 30.0059 51.6562 30.5656 51.6562 31.2559C51.6562 31.9461 52.216 32.5059 52.9062 32.5059H56C56.6902 32.5059 57.25 31.9461 57.25 31.2559C57.25 30.5656 56.6902 30.0059 56 30.0059Z" fill="#B0D3F0"/>
<path d="M23.2812 55.0015C22.9525 55.0015 22.63 55.134 22.3975 55.3677C22.165 55.6002 22.0312 55.9227 22.0312 56.2515C22.0312 56.5802 22.1649 56.9015 22.3975 57.1351C22.63 57.3676 22.9525 57.5015 23.2812 57.5015C23.61 57.5015 23.9325 57.3677 24.1649 57.1351C24.3974 56.9027 24.5312 56.5802 24.5312 56.2515C24.5312 55.9213 24.3975 55.6002 24.1649 55.3677C23.9325 55.1338 23.61 55.0015 23.2812 55.0015Z" fill="#B0D3F0"/>
</g>
<defs>
<clipPath id="clip0_2619_461">
<rect width="64" height="64" fill="white"/>
</clipPath>
</defs>
</svg>
