<svg width="64" height="64" viewBox="0 0 64 64" fill="none" xmlns="http://www.w3.org/2000/svg">
<path fill-rule="evenodd" clip-rule="evenodd" d="M46.2181 51.3897H62.8594C63.4149 51.3897 63.8657 50.9395 63.8657 50.3834V9.2934C63.8657 7.24527 63.0519 5.28033 61.6035 3.83195C60.1552 2.38357 58.1902 1.56982 56.1421 1.56982C44.2726 1.56982 19.7273 1.56982 7.85785 1.56982C5.80973 1.56982 3.84479 2.38357 2.39641 3.83195C0.948027 5.28033 0.134277 7.24527 0.134277 9.2934V50.3834C0.134277 50.9395 0.585093 51.3897 1.14056 51.3897H26.7103C27.2657 51.3897 27.7166 50.9388 27.7166 50.3834C27.7166 49.8286 27.2657 49.3771 26.7103 49.3771H2.14685V9.2934C2.14685 7.7786 2.74861 6.3262 3.81929 5.25484C4.89065 4.18415 6.34306 3.58239 7.85785 3.58239H56.1421C57.6569 3.58239 59.1093 4.18415 60.1807 5.25484C61.2513 6.3262 61.8531 7.7786 61.8531 9.2934V49.3771H46.2181C45.6626 49.3771 45.2118 49.8286 45.2118 50.3834C45.2118 50.9388 45.6626 51.3897 46.2181 51.3897Z" fill="#B0D3F0"/>
<path d="M56.1423 1.43555C58.226 1.4356 60.225 2.26353 61.6985 3.73703C63.172 5.21053 63.9999 7.20959 64 9.29322V50.3832C64 51.0135 63.4889 51.5238 62.8594 51.5238H46.2184C45.5888 51.5238 45.0778 51.0128 45.0778 50.3832C45.0779 49.7544 45.5888 49.2433 46.2184 49.2433H61.7188V9.29322C61.7188 7.8141 61.1311 6.39613 60.0856 5.34997C59.0394 4.30448 57.6214 3.71678 56.1423 3.71672H7.85767C6.37856 3.71678 4.96059 4.30448 3.91442 5.34997C2.86893 6.39613 2.28123 7.81411 2.28118 9.29322V49.2433H26.7105C27.3399 49.2433 27.8509 49.7545 27.851 50.3832C27.851 51.0127 27.3399 51.5237 26.7105 51.5238H1.14059C0.511076 51.5238 0 51.0135 0 50.3832V9.29322C5.4056e-05 7.20959 0.827987 5.21053 2.30148 3.73703C3.77498 2.26353 5.77404 1.4356 7.85767 1.43555H56.1423ZM7.85767 1.56985C5.80962 1.5699 3.84481 2.38369 2.39648 3.83203C0.948147 5.28036 0.134356 7.24517 0.134302 9.29322V50.3832C0.134302 50.9393 0.585118 51.3895 1.14059 51.3895H26.7105C27.2658 51.3894 27.7167 50.9386 27.7167 50.3832C27.7166 49.8285 27.2658 49.377 26.7105 49.3769H2.14687V9.29322C2.14693 7.7785 2.74879 6.32629 3.81943 5.25498C4.89074 4.18434 6.34295 3.58247 7.85767 3.58242H56.1423C57.657 3.58247 59.1093 4.18434 60.1806 5.25498C61.2512 6.32629 61.8531 7.7785 61.8531 9.29322V49.3769H46.2184C45.663 49.3769 45.2122 49.8285 45.2121 50.3832C45.2121 50.9387 45.6629 51.3895 46.2184 51.3895H62.8594C63.4149 51.3895 63.8657 50.9393 63.8657 50.3832V9.29322C63.8656 7.24517 63.0519 5.28036 61.6035 3.83203C60.1552 2.38369 58.1904 1.5699 56.1423 1.56985H7.85767Z" fill="#B0D3F0"/>
<path fill-rule="evenodd" clip-rule="evenodd" d="M39.912 21.9364H56.933C57.4885 21.9364 57.9393 21.4856 57.9393 20.9301C57.9393 20.3753 57.4885 19.9238 56.933 19.9238H39.912C39.3566 19.9238 38.9058 20.3753 38.9058 20.9301C38.9058 21.4856 39.3566 21.9364 39.912 21.9364Z" fill="#B0D3F0"/>
<path fill-rule="evenodd" clip-rule="evenodd" d="M39.912 26.3253H48.4225C48.978 26.3253 49.4288 25.8745 49.4288 25.319C49.4288 24.7636 48.978 24.3127 48.4225 24.3127H39.912C39.3566 24.3127 38.9058 24.7636 38.9058 25.319C38.9058 25.8745 39.3566 26.3253 39.912 26.3253Z" fill="#B0D3F0"/>
<path fill-rule="evenodd" clip-rule="evenodd" d="M1.14056 16.5126H62.8594C63.4149 16.5126 63.8657 16.0618 63.8657 15.5063C63.8657 14.9515 63.4149 14.5 62.8594 14.5H1.14056C0.585093 14.5 0.134277 14.9515 0.134277 15.5063C0.134277 16.0618 0.585093 16.5126 1.14056 16.5126Z" fill="#B0D3F0"/>
<path d="M62.8594 14.3657C63.489 14.3657 64 14.8775 64 15.5063C64 16.1359 63.489 16.6469 62.8594 16.6469H1.14059C0.511017 16.6469 0 16.1359 0 15.5063C0 14.8775 0.510959 14.3657 1.14059 14.3657H62.8594ZM1.14059 14.5C0.585118 14.5 0.134302 14.9515 0.134302 15.5063C0.134302 16.0618 0.585118 16.5126 1.14059 16.5126H62.8594C63.4149 16.5126 63.8657 16.0618 63.8657 15.5063C63.8657 14.9515 63.4149 14.5 62.8594 14.5H1.14059Z" fill="#B0D3F0"/>
<path fill-rule="evenodd" clip-rule="evenodd" d="M44.4168 5.85742C42.6598 5.85742 41.2329 7.28433 41.2329 9.04131C41.2329 10.799 42.6598 12.2252 44.4168 12.2252C46.1744 12.2252 47.6014 10.799 47.6014 9.04131C47.6014 7.28433 46.1744 5.85742 44.4168 5.85742ZM44.4168 7.86999C45.0635 7.86999 45.5888 8.3946 45.5888 9.04131C45.5888 9.68801 45.0635 10.2126 44.4168 10.2126C43.7708 10.2126 43.2455 9.68801 43.2455 9.04131C43.2455 8.3946 43.7708 7.86999 44.4168 7.86999Z" fill="#B0D3F0"/>
<path fill-rule="evenodd" clip-rule="evenodd" d="M53.367 5.85742C51.61 5.85742 50.1831 7.28433 50.1831 9.04131C50.1831 10.799 51.61 12.2252 53.367 12.2252C55.1246 12.2252 56.5516 10.799 56.5516 9.04131C56.5516 7.28433 55.1246 5.85742 53.367 5.85742ZM53.367 7.86999C54.0137 7.86999 54.539 8.3946 54.539 9.04131C54.539 9.68801 54.0137 10.2126 53.367 10.2126C52.721 10.2126 52.1957 9.68801 52.1957 9.04131C52.1957 8.3946 52.721 7.86999 53.367 7.86999Z" fill="#B0D3F0"/>
<path fill-rule="evenodd" clip-rule="evenodd" d="M23.9112 44.0686C23.0833 44.2639 22.2206 44.3665 21.3337 44.3665C15.1444 44.3665 10.119 39.3411 10.119 33.1518C10.119 26.9618 15.1444 21.9364 21.3337 21.9364C26.8099 21.9364 31.3751 25.8696 32.3546 31.0634C32.4572 31.6095 32.9845 31.9691 33.5299 31.8657C34.076 31.7631 34.4356 31.2365 34.3322 30.6904C33.177 24.5648 27.7934 19.9238 21.3337 19.9238C14.0335 19.9238 8.10645 25.8508 8.10645 33.1518C8.10645 40.452 14.0335 46.3791 21.3337 46.3791C22.3796 46.3791 23.3966 46.2576 24.372 46.0275C24.9127 45.9007 25.2482 45.358 25.1207 44.8173C24.9939 44.2773 24.4512 43.9412 23.9112 44.0686Z" fill="#B0D3F0"/>
<path d="M21.3336 19.7896C27.859 19.7896 33.2968 24.4778 34.4638 30.6654C34.5809 31.2842 34.1738 31.8808 33.5551 31.9973C32.9369 32.1144 32.3389 31.707 32.2226 31.088C31.2547 25.9566 26.744 22.0707 21.3336 22.0707C15.2185 22.0708 10.2534 27.0359 10.2533 33.1517C10.2533 39.2668 15.2185 44.2325 21.3336 44.2326C22.21 44.2326 23.0624 44.1306 23.8801 43.9378C24.4924 43.7933 25.1076 44.1746 25.2513 44.7868C25.3956 45.3994 25.0158 46.0142 24.4029 46.158C23.4174 46.3905 22.3899 46.5131 21.3336 46.5131C13.9593 46.513 7.97217 40.526 7.97217 33.1517C7.97225 25.7767 13.9594 19.7896 21.3336 19.7896ZM21.3336 19.9239C14.0335 19.9239 8.10655 25.8508 8.10647 33.1517C8.10647 40.4519 14.0334 46.3787 21.3336 46.3788C22.3795 46.3788 23.3967 46.2578 24.3721 46.0277C24.9127 45.9009 25.2482 45.3582 25.1209 44.8176C24.9942 44.2776 24.451 43.9413 23.9109 44.0688C23.0832 44.264 22.2204 44.3662 21.3336 44.3662C15.1444 44.3662 10.119 39.3409 10.119 33.1517C10.1191 26.9618 15.1444 21.9365 21.3336 21.9364C26.8098 21.9364 31.3748 25.87 32.3543 31.0637C32.457 31.6097 32.9849 31.9689 33.5302 31.8656C34.0761 31.7628 34.4354 31.2363 34.3321 30.6903C33.1769 24.5648 27.7932 19.9239 21.3336 19.9239Z" fill="#B0D3F0"/>
<path fill-rule="evenodd" clip-rule="evenodd" d="M10.0956 26.1755C9.90445 26.4835 9.89304 26.8699 10.0661 27.1879C10.5243 28.0305 11.1583 28.8885 11.9532 29.444C12.6402 29.9236 13.3178 30.2329 13.8806 30.5811C14.4146 30.9118 14.7829 31.3022 14.7561 32.2119C14.689 34.4935 14.2858 37.1333 14.2858 37.1333C14.2342 37.4728 14.3596 37.8156 14.6179 38.0423C14.8768 38.2684 15.2331 38.3469 15.5631 38.2503C15.5631 38.2503 17.4784 37.6908 19.1032 36.4772C20.3034 35.5816 21.3204 34.3372 21.5123 32.7674C21.682 31.3754 21.8309 28.5497 22.7299 26.0333C23.2686 24.5239 24.0729 23.1164 25.4019 22.3168C25.7427 22.1122 25.9312 21.7257 25.8822 21.3306C25.8333 20.9362 25.5562 20.6074 25.1758 20.492C23.9602 20.1231 22.6702 19.9238 21.3338 19.9238C16.5929 19.9238 12.4302 22.4234 10.0956 26.1755ZM12.1364 26.7364C14.1644 23.8356 17.5294 21.9364 21.3338 21.9364C21.794 21.9364 22.2475 21.9646 22.6937 22.0182C21.8772 22.9668 21.2741 24.1254 20.8347 25.3564C19.8774 28.0358 19.6956 31.0413 19.5145 32.5232C19.391 33.5328 18.6712 34.2889 17.899 34.8645C17.4362 35.2106 16.9444 35.4917 16.4996 35.7111C16.613 34.7243 16.7331 33.4523 16.768 32.2709C16.8237 30.3744 16.0535 29.56 14.9399 28.8704C14.4052 28.539 13.7585 28.2498 13.1064 27.7943C12.7207 27.5246 12.4014 27.1422 12.1364 26.7364Z" fill="#B0D3F0"/>
<path d="M21.3342 19.7896C22.6839 19.7896 23.9872 19.9907 25.2152 20.3634C25.6462 20.4943 25.9602 20.867 26.0158 21.314C26.0713 21.7618 25.8575 22.1998 25.4714 22.4317C24.1818 23.2076 23.3914 24.58 22.8567 26.0782C21.9644 28.576 21.8166 31.3786 21.6454 32.7835C21.4474 34.4035 20.3994 35.6771 19.1834 36.5846C18.3597 37.1998 17.4646 37.648 16.7771 37.942C16.4329 38.0892 16.1393 38.1986 15.932 38.2709C15.8285 38.3069 15.7461 38.3335 15.6896 38.3515C15.6612 38.3605 15.639 38.3679 15.624 38.3724C15.6167 38.3746 15.6109 38.3758 15.607 38.377C15.6051 38.3776 15.6034 38.378 15.6024 38.3783L15.6018 38.379H15.6011C15.2271 38.4884 14.8234 38.3993 14.53 38.1431H14.5293C14.2369 37.8863 14.0947 37.4973 14.1533 37.1126L14.1539 37.1113C14.1541 37.11 14.1542 37.1079 14.1546 37.1054C14.1553 37.1004 14.1564 37.0928 14.1579 37.0831C14.1608 37.0634 14.1654 37.034 14.171 36.996C14.1821 36.9197 14.1975 36.8081 14.2168 36.6671C14.2556 36.3847 14.3084 35.9842 14.3629 35.5128C14.4719 34.5693 14.589 33.3434 14.6223 32.2083C14.6352 31.7728 14.5532 31.475 14.4147 31.2498C14.2751 31.023 14.0696 30.8557 13.81 30.6949C13.5323 30.5231 13.2274 30.3618 12.8987 30.1793C12.5718 29.9978 12.2258 29.7975 11.8767 29.5537C11.0582 28.9817 10.412 28.1042 9.94862 27.2522C9.75242 26.8917 9.7655 26.4538 9.98203 26.105V26.1044C12.3401 22.3148 16.545 19.7896 21.3342 19.7896ZM21.3342 19.9239C16.5932 19.9239 12.4306 22.4237 10.096 26.1758C9.90487 26.4837 9.89347 26.87 10.0665 27.188C10.5247 28.0305 11.1584 28.8888 11.9533 29.4443C12.6402 29.9239 13.3179 30.2328 13.8807 30.5809C14.4147 30.9116 14.7828 31.3025 14.756 32.2122C14.6889 34.4937 14.2863 37.1336 14.2863 37.1336C14.2347 37.4728 14.3597 37.8155 14.6178 38.0422C14.8766 38.2683 15.2331 38.3471 15.5631 38.2506C15.5631 38.2506 17.4786 37.6907 19.1035 36.4771C20.3036 35.5815 21.3205 34.3369 21.5124 32.7671C21.6821 31.375 21.8314 28.5498 22.7303 26.0336C23.2689 24.5243 24.0731 23.1167 25.4019 22.3171C25.7427 22.1124 25.9311 21.7256 25.8821 21.3304C25.8331 20.9361 25.5562 20.6072 25.1759 20.4919C23.9604 20.1229 22.6704 19.9239 21.3342 19.9239ZM21.3342 21.9364C21.7943 21.9364 22.2476 21.9647 22.6936 22.0183C21.8773 22.9668 21.2744 24.1254 20.835 25.3562C19.8777 28.0356 19.696 31.0415 19.5149 32.5234C19.3914 33.533 18.6714 34.2893 17.8993 34.8648C17.4365 35.2109 16.9447 35.4919 16.5 35.7113C16.6133 34.7245 16.733 33.4525 16.7679 32.2712C16.8236 30.3746 16.0537 29.56 14.9401 28.8704C14.4054 28.539 13.7584 28.2501 13.1064 27.7946C12.7207 27.525 12.4017 27.1424 12.1368 26.7366C14.1648 23.8358 17.5298 21.9364 21.3342 21.9364ZM21.3342 22.0707C17.6084 22.0707 14.3092 23.9144 12.2999 26.7386C12.549 27.1072 12.8407 27.4448 13.1837 27.6846C13.5037 27.9081 13.8236 28.0911 14.1323 28.2611C14.439 28.4299 14.7396 28.5882 15.0108 28.7564C15.575 29.1057 16.0663 29.495 16.4069 30.0476C16.7486 30.602 16.9306 31.3074 16.9022 32.2751C16.87 33.3645 16.7639 34.529 16.6592 35.4774C17.0372 35.2796 17.4387 35.0409 17.8187 34.7567C18.5828 34.1872 19.2646 33.4603 19.3812 32.507C19.561 31.0365 19.7447 28.0087 20.7085 25.311C21.1224 24.1515 21.6822 23.051 22.4302 22.1251C22.0694 22.0897 21.704 22.0707 21.3342 22.0707Z" fill="#B0D3F0"/>
<path fill-rule="evenodd" clip-rule="evenodd" d="M36.4638 29.76C29.1562 29.76 23.2231 35.6931 23.2231 43.0007C23.2231 50.3084 29.1562 56.2414 36.4638 56.2414C43.7715 56.2414 49.7045 50.3084 49.7045 43.0007C49.7045 35.6931 43.7715 29.76 36.4638 29.76ZM36.4638 31.7726C42.6612 31.7726 47.692 36.804 47.692 43.0007C47.692 49.1981 42.6612 54.2288 36.4638 54.2288C30.2671 54.2288 25.2357 49.1981 25.2357 43.0007C25.2357 36.804 30.2671 31.7726 36.4638 31.7726Z" fill="#B0D3F0"/>
<path d="M36.4641 29.6257C43.8457 29.6258 49.8386 35.6193 49.8386 43.0009C49.8385 50.3825 43.8457 56.3754 36.4641 56.3755C29.0824 56.3755 23.089 50.3826 23.0889 43.0009C23.0889 35.6192 29.0823 29.6257 36.4641 29.6257ZM36.4641 29.76C29.1564 29.76 23.2232 35.6933 23.2232 43.0009C23.2233 50.3085 29.1565 56.2412 36.4641 56.2412C43.7716 56.2411 49.7042 50.3084 49.7043 43.0009C49.7043 35.6934 43.7716 29.7601 36.4641 29.76ZM36.4641 31.7726C42.6614 31.7727 47.6918 36.8043 47.6918 43.0009C47.6916 49.1982 42.6613 54.2285 36.4641 54.2286C30.2674 54.2286 25.2358 49.1982 25.2357 43.0009C25.2357 36.8042 30.2674 31.7726 36.4641 31.7726ZM36.4641 31.9069C30.3415 31.9069 25.37 36.8783 25.37 43.0009C25.3702 49.1241 30.3415 54.095 36.4641 54.095C42.5872 54.0949 47.558 49.1241 47.5581 43.0009C47.5581 36.8784 42.5872 31.907 36.4641 31.9069Z" fill="#B0D3F0"/>
<path fill-rule="evenodd" clip-rule="evenodd" d="M44.4023 52.3618L54.1753 62.1355C54.5684 62.5279 55.2057 62.5279 55.5989 62.1355C55.9913 61.7424 55.9913 61.105 55.5989 60.7119L45.8252 50.9389C45.4327 50.5458 44.7947 50.5458 44.4023 50.9389C44.0091 51.3313 44.0091 51.9693 44.4023 52.3618Z" fill="#B0D3F0"/>
<path d="M44.3068 50.8439C44.7516 50.3984 45.4749 50.3984 45.9197 50.8439L55.6937 60.6172C56.1382 61.0626 56.1381 61.7847 55.6937 62.2301L55.693 62.2308C55.2475 62.6752 54.5255 62.6753 54.0801 62.2308V62.2301L44.3068 52.4568C43.8613 52.012 43.8613 51.2888 44.3068 50.8439ZM45.8247 50.9389C45.4323 50.5458 44.7942 50.5458 44.4018 50.9389C44.0087 51.3314 44.0087 51.9694 44.4018 52.3618L54.1751 62.1358C54.5682 62.528 55.2056 62.5282 55.5987 62.1358C55.9911 61.7427 55.9909 61.1053 55.5987 60.7122L45.8247 50.9389Z" fill="#B0D3F0"/>
</svg>
