<svg width="64" height="64" viewBox="0 0 64 64" fill="none" xmlns="http://www.w3.org/2000/svg">
<g clip-path="url(#clip0_2619_144)">
<path d="M6.86983 16.658H16.2147C18.2379 16.658 19.8838 15.0121 19.8838 12.9889V3.66914C19.8838 1.64593 18.2379 0 16.2147 0H6.86983C4.84661 0 3.20068 1.64593 3.20068 3.66914V5.39108C3.23906 6.63071 5.03788 6.62984 5.07589 5.39108V3.66914C5.07589 2.67991 5.8806 1.8752 6.8697 1.8752H16.2146C17.2038 1.8752 18.0085 2.67991 18.0085 3.66914V12.9889C18.0085 13.9781 17.2038 14.7828 16.2146 14.7828H6.86983C5.88072 14.7828 5.07601 13.9781 5.07601 12.9889V9.0791C5.03763 7.83947 3.23881 7.84034 3.20081 9.0791V12.9889C3.20068 15.012 4.84661 16.658 6.86983 16.658Z" fill="#B0D3F0"/>
<path d="M11.5422 4.50488C9.4307 4.50488 7.71289 6.22044 7.71289 8.32917C7.90541 13.3956 15.1797 13.3942 15.3713 8.32917C15.3713 6.22044 13.6535 4.50488 11.5422 4.50488ZM11.5422 10.3808C10.4082 10.3808 9.48558 9.46041 9.48558 8.32917C9.58884 5.61125 13.4959 5.61188 13.5988 8.32917C13.5986 9.46041 12.676 10.3808 11.5422 10.3808Z" fill="#B0D3F0"/>
<path d="M14.9358 4.61947C15.2596 5.13877 16.0862 5.13902 16.4097 4.61947C16.8514 3.9814 16.2578 3.09443 15.4996 3.25932C14.8966 3.35921 14.5825 4.12216 14.9358 4.61947Z" fill="#B0D3F0"/>
<path d="M12.4141 19.7936V22.1715C12.4551 23.4938 14.3738 23.4929 14.4143 22.1715V19.7936C14.3734 18.4714 12.4546 18.4722 12.4141 19.7936Z" fill="#B0D3F0"/>
<path d="M8.66992 19.7936V23.5029C8.71093 24.8252 10.6296 24.8243 10.6701 23.5029V19.7936C10.6291 18.4714 8.71043 18.4722 8.66992 19.7936Z" fill="#B0D3F0"/>
<path d="M41.1697 22.4248C41.1697 16.9691 36.7244 12.5305 31.2603 12.5305C24.2316 12.4212 19.2619 20.0376 22.1882 26.4104C17.853 26.1692 13.4966 26.3033 9.18503 26.813C8.27819 26.9203 7.59424 27.6881 7.59424 28.5991V39.2765C7.59424 40.1874 8.27806 40.9553 9.18503 41.0625C15.0375 41.7543 20.9727 41.7543 26.8252 41.0625C27.732 40.9554 28.416 40.1874 28.416 39.2765V31.906C34.6163 33.8549 41.2737 28.9373 41.1697 22.4248ZM26.5409 39.2079C20.877 39.8724 15.1335 39.8724 9.46957 39.2079V28.6678C15.1337 28.0034 20.877 28.0034 26.5409 28.6678V39.2079ZM31.2604 30.3189C30.2758 30.3189 29.3211 30.1424 28.4162 29.7934V28.5992C28.4162 27.6881 27.7324 26.9203 26.8254 26.8131C26.0626 26.723 25.2983 26.6446 24.5329 26.578C21.2553 21.4439 25.1589 14.4522 31.2605 14.5309C41.7382 14.9276 41.7362 29.9232 31.2604 30.3189Z" fill="#B0D3F0"/>
<path d="M33.1784 16.7352C32.2494 16.4179 29.9178 16.8874 30.0218 19.0327V20.2721H29.5519C29.0341 20.2721 28.6143 20.6919 28.6143 21.2097C28.6143 21.7275 29.0341 22.1473 29.5519 22.1473H30.0218V27.252C30.0218 27.7698 30.4416 28.1896 30.9594 28.1896C31.4772 28.1896 31.897 27.7698 31.897 27.252V22.1473H32.8181C33.3359 22.1473 33.7557 21.7275 33.7557 21.2097C33.7557 20.6919 33.3359 20.2721 32.8181 20.2721H31.897V19.0327C31.8136 18.5242 32.3619 18.4798 32.7648 18.5643C33.2676 18.6758 33.7669 18.3615 33.8823 17.8588C33.9982 17.3542 33.6831 16.8511 33.1784 16.7352Z" fill="#B0D3F0"/>
<path d="M15.2957 30.5514C15.0217 30.7098 14.8529 31.0023 14.8529 31.3189V36.5432C14.8324 37.2043 15.6195 37.6588 16.1818 37.3111L20.7138 34.699C21.2974 34.3863 21.2974 33.4759 20.7138 33.1632L16.1818 30.551C15.9075 30.393 15.5699 30.3931 15.2957 30.5514ZM16.6255 32.8527L18.4963 33.9309L16.6255 35.0091V32.8527Z" fill="#B0D3F0"/>
<path d="M16.0016 43.5059C15.4493 43.5059 15.0015 43.9537 15.0015 44.506V46.8838C15.0425 48.2061 16.9612 48.2052 17.0017 46.8838V44.506C17.0017 43.9535 16.554 43.5059 16.0016 43.5059Z" fill="#B0D3F0"/>
<path d="M20.0084 43.5059C19.4561 43.5059 19.0083 43.9537 19.0083 44.506V51.0944C19.0493 52.4167 20.968 52.4158 21.0085 51.0944V44.506C21.0085 43.9535 20.5607 43.5059 20.0084 43.5059Z" fill="#B0D3F0"/>
<path d="M49.6271 21.7741C52.4782 21.7771 55.1842 20.6284 57.0167 18.6338C58.9389 16.5435 59.8353 13.5894 59.6158 10.0785L60.7168 7.54252C61.069 6.79944 60.2998 5.92772 59.5188 6.18425L57.2756 6.83995C56.566 6.17638 55.6208 5.79508 54.6344 5.79508C52.2794 5.77321 50.423 7.96519 50.8267 10.2804C47.9457 10.118 46.1257 7.5254 45.5903 6.64643C45.1503 5.86647 43.8777 6.10662 43.7514 6.99259C43.7369 7.07447 43.4011 9.02356 43.7565 11.2818C44.1347 13.6844 45.1509 15.5458 46.7281 16.7576C46.1219 16.963 45.3034 17.096 44.2795 16.947C43.5528 16.8185 42.9183 17.6061 43.1994 18.2888C43.2531 18.4318 44.5683 21.7742 49.6271 21.7741ZM49.4175 17.4606C49.9133 16.9868 49.7346 16.0853 49.0957 15.8363C46.4582 14.7212 45.7551 11.9817 45.6238 9.91278C48.3709 12.6038 51.3983 12.3525 52.4022 12.1721C53.0859 12.0696 53.457 11.218 53.067 10.6475C51.847 8.58576 54.6744 6.67643 56.1419 8.56413C56.5692 9.22933 57.4415 8.89117 58.0326 8.70252C57.9198 9.01268 57.5478 9.64 57.604 9.98116C57.8426 13.0785 57.1497 15.5341 55.5444 17.2798C53.6239 19.6383 48.7078 20.6038 46.2968 18.9166C48.2756 18.5901 49.358 17.5208 49.4175 17.4606Z" fill="#B0D3F0"/>
<path d="M53.1466 24.6128C52.5943 24.6128 52.1465 25.0606 52.1465 25.6129V27.9908C52.1875 29.313 54.1062 29.3122 54.1467 27.9908V25.6129C54.1467 25.0606 53.6989 24.6128 53.1466 24.6128Z" fill="#B0D3F0"/>
<path d="M48.1401 25.6129V32.2014C48.1811 33.5236 50.0998 33.5228 50.1404 32.2014V25.6129C50.0993 24.2906 48.1806 24.2916 48.1401 25.6129Z" fill="#B0D3F0"/>
<path d="M50.5869 35.4521H33.9156C33.3633 35.4521 32.9155 35.8999 32.9155 36.4523V43.7747C32.9155 44.327 33.3633 44.7748 33.9156 44.7748C34.4679 44.7748 34.9157 44.327 34.9157 43.7747V37.4524H49.5868V46.6956L45.7432 50.5328H41.727C41.4621 50.5328 41.2079 50.6379 41.0204 50.825L38.6791 53.1623V51.5327C38.6791 50.9804 38.2313 50.5326 37.679 50.5326H34.9157V47.6338C34.8755 46.3129 32.9564 46.3112 32.9155 47.6338V51.5327C32.9155 52.0851 33.3633 52.5329 33.9156 52.5329H36.6789V55.5738C36.6511 56.437 37.7915 56.913 38.3856 56.2816L42.1408 52.5329H46.1569C46.422 52.5329 46.676 52.4277 46.8635 52.2406L51.2935 47.8181C51.4814 47.6306 51.587 47.3758 51.587 47.1103V36.4521C51.587 35.8998 51.1392 35.4521 50.5869 35.4521Z" fill="#B0D3F0"/>
<path d="M47.2048 44.9116V40.5417C47.1638 39.2194 45.2451 39.2203 45.2046 40.5417V44.9116C45.2455 46.234 47.1642 46.233 47.2048 44.9116Z" fill="#B0D3F0"/>
<path d="M43.4309 44.9116V40.5417C43.3899 39.2194 41.4712 39.2203 41.4307 40.5417V44.9116C41.4717 46.234 43.3904 46.233 43.4309 44.9116Z" fill="#B0D3F0"/>
<path d="M40.2477 58.0093C39.6954 58.0093 39.2476 58.4571 39.2476 59.0094V61.3873C39.2886 62.7095 41.2073 62.7087 41.2478 61.3873V59.0094C41.2478 58.457 40.8 58.0093 40.2477 58.0093Z" fill="#B0D3F0"/>
<path d="M44.2545 55.418C43.7022 55.418 43.2544 55.8658 43.2544 56.4181V63.0065C43.2954 64.3288 45.2141 64.3279 45.2546 63.0065V56.4181C45.2546 55.8656 44.8068 55.418 44.2545 55.418Z" fill="#B0D3F0"/>
<path d="M11.848 49.1852L8.70679 47.466L6.98873 44.3224C6.66407 43.6809 5.66784 43.681 5.3433 44.3224L3.62524 47.466L0.484032 49.1852C-0.156787 49.51 -0.156787 50.5054 0.484032 50.8301L3.62524 52.5493L5.3433 55.6929C5.66796 56.3345 6.6642 56.3344 6.98873 55.6929L8.70679 52.5493L11.848 50.8303C12.4889 50.5054 12.4888 49.5101 11.848 49.1852ZM7.56567 51.0364C7.4084 51.1224 7.27901 51.2519 7.19313 51.4092L6.16614 53.2884L5.13916 51.4092C5.05315 51.2518 4.92388 51.1224 4.76662 51.0364L2.88729 50.0078L4.76662 48.9792C4.92388 48.8932 5.05327 48.7637 5.13916 48.6064L6.16614 46.7272L7.19313 48.6064C7.27914 48.7638 7.4084 48.8932 7.56567 48.9792L9.445 50.0078L7.56567 51.0364Z" fill="#B0D3F0"/>
<path d="M30.275 58.7379L28.2491 57.6291L27.1409 55.6017C26.8163 54.9602 25.82 54.9603 25.4955 55.6017L24.3874 57.6291L22.3614 58.7379C21.7206 59.0629 21.7207 60.0581 22.3614 60.3829L24.3873 61.4916L25.4954 63.5191C25.82 64.1607 26.8163 64.1605 27.1408 63.5191L28.2489 61.4916L30.2748 60.3829C30.9158 60.058 30.9157 59.0627 30.275 58.7379ZM27.1079 59.9785C26.9507 60.0645 26.8213 60.194 26.7354 60.3512L26.3184 61.1143L25.9013 60.3512C25.8153 60.1939 25.686 60.0645 25.5288 59.9785L24.7648 59.5603L25.5289 59.1421C25.6862 59.0561 25.8154 58.9266 25.9014 58.7693L26.3185 58.0064L26.7355 58.7693C26.8215 58.9267 26.9508 59.0561 27.1081 59.1421L27.8721 59.5603L27.1079 59.9785Z" fill="#B0D3F0"/>
<path d="M63.5162 35.4792L61.4903 34.3703L60.3822 32.3429C60.0575 31.7014 59.0613 31.7015 58.7367 32.3429L57.6286 34.3703L55.6026 35.4792C54.9618 35.8041 54.9619 36.7993 55.6026 37.1241L57.6285 38.2328L58.7366 40.2603C59.0613 40.9019 60.0575 40.9017 60.382 40.2603L61.4901 38.2328L63.516 37.1241C64.1571 36.7993 64.1569 35.8039 63.5162 35.4792ZM60.3491 36.7198C60.1919 36.8058 60.0625 36.9353 59.9766 37.0926L59.5596 37.8557L59.1425 37.0926C59.0565 36.9352 58.9272 36.8058 58.77 36.7198L58.006 36.3016L58.7701 35.8834C58.9274 35.7974 59.0566 35.6679 59.1426 35.5107L59.5597 34.7477L59.9767 35.5107C60.0627 35.6681 60.192 35.7974 60.3493 35.8834L61.1134 36.3016L60.3491 36.7198Z" fill="#B0D3F0"/>
<path d="M29.8097 5.97788L32.2935 7.33728L33.652 9.82292C33.9767 10.4645 34.9729 10.4644 35.2974 9.82292L36.656 7.33728L39.1397 5.97788C39.7805 5.6531 39.7805 4.65774 39.1397 4.33296L36.656 2.97356L35.2974 0.487919C34.9728 -0.15365 33.9765 -0.1534 33.652 0.487919L32.2935 2.97356L29.8097 4.33296C29.1689 4.65787 29.1689 5.6531 29.8097 5.97788ZM33.4346 4.48672C33.5919 4.40071 33.7213 4.2712 33.8071 4.11393L34.4746 2.89268L35.142 4.11393C35.228 4.27133 35.3573 4.40071 35.5146 4.48672L36.7365 5.15555L35.5146 5.82437C35.3573 5.91038 35.228 6.03989 35.142 6.19716L34.4746 7.41841L33.8071 6.19716C33.7211 6.03977 33.5919 5.91038 33.4346 5.82437L32.2127 5.15555L33.4346 4.48672Z" fill="#B0D3F0"/>
</g>
<defs>
<clipPath id="clip0_2619_144">
<rect width="64" height="64" fill="white"/>
</clipPath>
</defs>
</svg>
