<svg width="64" height="64" viewBox="0 0 64 64" fill="none" xmlns="http://www.w3.org/2000/svg">
<g clip-path="url(#clip0_2619_224)">
<path d="M2.13324 40.3265V60.8001C2.13324 61.6488 2.47038 62.4627 3.07049 63.0629C3.67061 63.663 4.48454 64.0001 5.33324 64.0001H58.6666C59.5153 64.0001 60.3292 63.663 60.9293 63.0629C61.5294 62.4627 61.8666 61.6488 61.8666 60.8001V40.3265C62.5249 40.1006 63.0905 39.6643 63.4762 39.0849C63.7688 38.6377 63.9448 38.1243 63.988 37.5916C64.0312 37.0589 63.9403 36.5239 63.7236 36.0353L61.3471 30.702C61.0964 30.1371 60.6875 29.6569 60.1698 29.3194C59.6521 28.9819 59.0478 28.8016 58.4298 28.8001H36.4586L35.3332 27.7495L36.7764 22.4407C39.2315 21.3465 41.2364 19.4426 42.4559 17.0473C43.6755 14.6521 44.0357 11.9108 43.4764 9.28185C42.917 6.65287 41.472 4.29563 39.383 2.60434C37.2941 0.913044 34.6877 -0.00976562 31.9999 -0.00976562C29.3121 -0.00976562 26.7058 0.913044 24.6168 2.60434C22.5278 4.29563 21.0828 6.65287 20.5234 9.28185C19.9641 11.9108 20.3243 14.6521 21.5439 17.0473C22.7634 19.4426 24.7684 21.3465 27.2234 22.4407L28.6666 27.7495L27.5412 28.8001H5.57004C4.95223 28.8018 4.34811 28.9822 3.83062 29.3197C3.31313 29.6572 2.90439 30.1373 2.65377 30.702L0.274036 36.0353C0.0585939 36.5233 -0.0314247 37.0575 0.0121675 37.5892C0.0557598 38.1208 0.23158 38.6332 0.523636 39.0796C0.908464 39.6609 1.47419 40.0992 2.13324 40.3265ZM4.26657 60.8001V40.5335H15.4719C15.4301 40.6928 15.4065 40.8563 15.4015 41.0209C15.3956 41.3074 15.4478 41.592 15.5551 41.8577C15.6624 42.1233 15.8224 42.3645 16.0255 42.5665L17.4186 43.9596C17.6225 44.1636 17.8656 44.3244 18.1332 44.4321V61.8668H5.33324C5.05034 61.8668 4.77903 61.7544 4.57899 61.5544C4.37895 61.3543 4.26657 61.083 4.26657 60.8001ZM46.466 41.0583L45.0794 42.4449L32.7284 30.9185C32.5308 30.7338 32.2704 30.631 31.9999 30.631C31.7294 30.631 31.469 30.7338 31.2714 30.9185L18.9258 42.4535L17.5391 41.0668L31.6735 27.8625C31.7623 27.7802 31.8788 27.7345 31.9999 27.7345C32.121 27.7345 32.2375 27.7802 32.3263 27.8625L46.466 41.0583ZM36.2666 61.8668H33.0666V51.2001H35.1999C35.4828 51.2001 35.7541 51.3125 35.9542 51.5125C36.1542 51.7126 36.2666 51.9839 36.2666 52.2668V61.8668ZM30.9332 61.8668H27.7332V52.2668C27.7332 51.9839 27.8456 51.7126 28.0457 51.5125C28.2457 51.3125 28.517 51.2001 28.7999 51.2001H30.9332V61.8668ZM38.3999 61.8668V52.2668C38.3999 51.4181 38.0628 50.6042 37.4626 50.004C36.8625 49.4039 36.0486 49.0668 35.1999 49.0668H28.7999C27.9512 49.0668 27.1373 49.4039 26.5372 50.004C25.937 50.6042 25.5999 51.4181 25.5999 52.2668V61.8668H20.2666V44.0972C20.305 44.0663 20.3455 44.0428 20.3818 44.0087L31.9999 33.1575L43.617 44.0087C43.6532 44.0428 43.6948 44.0673 43.7332 44.0983V61.8668H38.3999ZM58.6666 61.8668H45.8666V44.43C46.1346 44.3229 46.3781 44.1625 46.5823 43.9585L47.969 42.5719C48.1718 42.3699 48.3316 42.1289 48.4387 41.8634C48.5457 41.5979 48.5979 41.3135 48.5919 41.0273C48.5913 40.861 48.5716 40.6953 48.5332 40.5335H59.7332V60.8001C59.7332 61.083 59.6209 61.3543 59.4208 61.5544C59.2208 61.7544 58.9495 61.8668 58.6666 61.8668ZM58.4298 30.9335C58.6358 30.9352 58.8369 30.9966 59.0087 31.1102C59.1806 31.2237 59.3159 31.3846 59.3983 31.5735L61.7738 36.9068C61.8445 37.0688 61.8738 37.2459 61.8591 37.4221C61.8444 37.5983 61.7862 37.768 61.6896 37.9161C61.593 38.0642 61.4612 38.186 61.3059 38.2705C61.1506 38.3549 60.9767 38.3995 60.7999 38.4001H46.7444L38.7444 30.9335H58.4298ZM22.3999 11.7334C22.3999 9.83475 22.9629 7.97869 24.0178 6.39998C25.0727 4.82126 26.572 3.59081 28.3261 2.86421C30.0803 2.1376 32.0106 1.94749 33.8728 2.31791C35.735 2.68833 37.4455 3.60264 38.7881 4.94522C40.1307 6.28781 41.045 7.99837 41.4154 9.86058C41.7859 11.7228 41.5957 13.653 40.8691 15.4072C40.1425 17.1614 38.9121 18.6607 37.3334 19.7156C35.7547 20.7704 33.8986 21.3335 31.9999 21.3335C29.4547 21.3306 27.0145 20.3183 25.2148 18.5186C23.4151 16.7188 22.4027 14.2787 22.3999 11.7334ZM31.9999 23.4668C32.7881 23.4666 33.5743 23.3873 34.3466 23.23L33.5572 26.1335C33.1064 25.7964 32.5586 25.6142 31.9956 25.6142C31.4327 25.6142 30.8849 25.7964 30.434 26.1335L29.6447 23.23C30.4198 23.3879 31.2089 23.4672 31.9999 23.4668ZM2.2239 36.9068L4.60257 31.5735C4.68489 31.3848 4.82003 31.224 4.9917 31.1104C5.16336 30.9969 5.36422 30.9354 5.57004 30.9335H25.2554L17.2554 38.4001H3.1999C3.02275 38.4002 2.84836 38.3562 2.69248 38.272C2.53661 38.1878 2.40416 38.0661 2.30709 37.9179C2.21002 37.7697 2.15139 37.5997 2.1365 37.4231C2.1216 37.2466 2.15091 37.0692 2.22177 36.9068H2.2239Z" fill="#B0D3F0"/>
<path d="M34.1334 39.4668H29.8667C29.3009 39.4668 28.7583 39.6916 28.3582 40.0916C27.9582 40.4917 27.7334 41.0343 27.7334 41.6001V44.8001C27.7334 45.3659 27.9582 45.9085 28.3582 46.3086C28.7583 46.7087 29.3009 46.9335 29.8667 46.9335H34.1334C34.6992 46.9335 35.2418 46.7087 35.6419 46.3086C36.042 45.9085 36.2667 45.3659 36.2667 44.8001V41.6001C36.2667 41.0343 36.042 40.4917 35.6419 40.0916C35.2418 39.6916 34.6992 39.4668 34.1334 39.4668ZM29.8667 44.8001V41.6001H34.1334V44.8001H29.8667Z" fill="#B0D3F0"/>
<path d="M12.8001 42.6665H9.60013C9.03434 42.6665 8.49171 42.8913 8.09164 43.2913C7.69156 43.6914 7.4668 44.234 7.4668 44.7998V47.9998C7.4668 48.5656 7.69156 49.1083 8.09164 49.5083C8.49171 49.9084 9.03434 50.1332 9.60013 50.1332H12.8001C13.3659 50.1332 13.9085 49.9084 14.3086 49.5083C14.7087 49.1083 14.9335 48.5656 14.9335 47.9998V44.7998C14.9335 44.234 14.7087 43.6914 14.3086 43.2913C13.9085 42.8913 13.3659 42.6665 12.8001 42.6665ZM9.60013 47.9998V44.7998H12.8001V47.9998H9.60013Z" fill="#B0D3F0"/>
<path d="M12.8001 52.2666H9.60013C9.03434 52.2666 8.49171 52.4914 8.09164 52.8914C7.69156 53.2915 7.4668 53.8341 7.4668 54.3999V57.5999C7.4668 58.1657 7.69156 58.7084 8.09164 59.1084C8.49171 59.5085 9.03434 59.7333 9.60013 59.7333H12.8001C13.3659 59.7333 13.9085 59.5085 14.3086 59.1084C14.7087 58.7084 14.9335 58.1657 14.9335 57.5999V54.3999C14.9335 53.8341 14.7087 53.2915 14.3086 52.8914C13.9085 52.4914 13.3659 52.2666 12.8001 52.2666ZM9.60013 57.5999V54.3999H12.8001V57.5999H9.60013Z" fill="#B0D3F0"/>
<path d="M54.4002 42.6665H51.2002C50.6344 42.6665 50.0918 42.8913 49.6917 43.2913C49.2917 43.6914 49.0669 44.234 49.0669 44.7998V47.9998C49.0669 48.5656 49.2917 49.1083 49.6917 49.5083C50.0918 49.9084 50.6344 50.1332 51.2002 50.1332H54.4002C54.966 50.1332 55.5086 49.9084 55.9087 49.5083C56.3088 49.1083 56.5336 48.5656 56.5336 47.9998V44.7998C56.5336 44.234 56.3088 43.6914 55.9087 43.2913C55.5086 42.8913 54.966 42.6665 54.4002 42.6665ZM51.2002 47.9998V44.7998H54.4002V47.9998H51.2002Z" fill="#B0D3F0"/>
<path d="M54.4002 52.2666H51.2002C50.6344 52.2666 50.0918 52.4914 49.6917 52.8914C49.2917 53.2915 49.0669 53.8341 49.0669 54.3999V57.5999C49.0669 58.1657 49.2917 58.7084 49.6917 59.1084C50.0918 59.5085 50.6344 59.7333 51.2002 59.7333H54.4002C54.966 59.7333 55.5086 59.5085 55.9087 59.1084C56.3088 58.7084 56.5336 58.1657 56.5336 57.5999V54.3999C56.5336 53.8341 56.3088 53.2915 55.9087 52.8914C55.5086 52.4914 54.966 52.2666 54.4002 52.2666ZM51.2002 57.5999V54.3999H54.4002V57.5999H51.2002Z" fill="#B0D3F0"/>
<path d="M25.6574 10.6665H25.5998C25.4611 10.6669 25.3239 10.695 25.1962 10.749C25.0685 10.8031 24.9529 10.8822 24.8561 10.9815C24.7594 11.0808 24.6834 11.1985 24.6327 11.3276C24.582 11.4566 24.5576 11.5945 24.5608 11.7332C24.5673 12.0192 24.6858 12.2913 24.8909 12.4908C25.096 12.6903 25.3712 12.8013 25.6574 12.7998C25.9403 12.7998 26.2116 12.6875 26.4116 12.4874C26.6117 12.2874 26.724 12.0161 26.724 11.7332C26.724 11.4503 26.6117 11.179 26.4116 10.9789C26.2116 10.7789 25.9403 10.6665 25.6574 10.6665Z" fill="#B0D3F0"/>
<path d="M29.3973 10.3198L29.3461 10.3379C29.216 10.3862 29.0969 10.4599 28.9956 10.5547C28.8943 10.6495 28.8129 10.7635 28.7562 10.8901C28.6995 11.0168 28.6686 11.1534 28.6653 11.2921C28.662 11.4308 28.6864 11.5687 28.737 11.6979C28.8431 11.9627 29.0479 12.1758 29.3083 12.2923C29.5687 12.4087 29.8641 12.4193 30.1322 12.3219C30.3915 12.2199 30.6005 12.0204 30.7146 11.7663C30.8287 11.5121 30.8389 11.2233 30.7429 10.9618C30.6468 10.7002 30.4523 10.4866 30.2009 10.3667C29.9494 10.2467 29.661 10.2299 29.3973 10.3198Z" fill="#B0D3F0"/>
<path d="M32.2518 15.0004L32.3009 15.0228C32.438 15.0875 32.5877 15.1214 32.7393 15.122C32.9422 15.1207 33.1406 15.0613 33.3108 14.9507C33.4809 14.8401 33.6158 14.683 33.6993 14.498C33.815 14.2373 33.824 13.9417 33.7243 13.6745C33.6246 13.4073 33.4242 13.1898 33.166 13.0686C32.9106 12.9544 32.6206 12.945 32.3584 13.0425C32.0962 13.14 31.8829 13.3366 31.7642 13.5899C31.6456 13.8433 31.6312 14.133 31.7242 14.3969C31.8172 14.6607 32.0102 14.8774 32.2614 15.0004H32.2518Z" fill="#B0D3F0"/>
<path d="M26.7606 15.4667L26.7211 15.5062C26.5766 15.6556 26.4793 15.8443 26.4415 16.0488C26.4036 16.2532 26.4269 16.4643 26.5085 16.6555C26.59 16.8468 26.7261 17.0098 26.8998 17.1241C27.0734 17.2384 27.2769 17.2989 27.4849 17.2982C27.7782 17.2994 28.0601 17.1843 28.2689 16.9782C28.3681 16.8791 28.4469 16.7615 28.5007 16.632C28.5545 16.5026 28.5822 16.3638 28.5824 16.2236C28.5825 16.0834 28.555 15.9445 28.5015 15.8149C28.448 15.6853 28.3695 15.5675 28.2705 15.4683C28.1714 15.369 28.0538 15.2903 27.9243 15.2365C27.7949 15.1827 27.6561 15.1549 27.5159 15.1548C27.3757 15.1546 27.2368 15.1821 27.1072 15.2356C26.9776 15.2891 26.8598 15.3677 26.7606 15.4667Z" fill="#B0D3F0"/>
<path d="M33.0664 18.0759C33.0664 17.793 32.9541 17.5217 32.754 17.3217C32.554 17.1217 32.2827 17.0093 31.9998 17.0093C31.7169 17.0093 31.4456 17.1217 31.2455 17.3217C31.0455 17.5217 30.9331 17.793 30.9331 18.0759V18.1335C30.9335 18.2722 30.9616 18.4094 31.0156 18.5371C31.0697 18.6648 31.1488 18.7804 31.2481 18.8772C31.3474 18.9739 31.4651 19.0499 31.5942 19.1006C31.7232 19.1513 31.8611 19.1757 31.9998 19.1725C32.2858 19.166 32.5579 19.0475 32.7574 18.8424C32.9569 18.6373 33.0679 18.3621 33.0664 18.0759Z" fill="#B0D3F0"/>
</g>
<defs>
<clipPath id="clip0_2619_224">
<rect width="64" height="64" fill="white"/>
</clipPath>
</defs>
</svg>
