<svg width="64" height="64" viewBox="0 0 64 64" fill="none" xmlns="http://www.w3.org/2000/svg">
<path d="M32 58.6744L4.26593 45.8884C4.36193 45.9464 1.81197 44.7945 0 43.7584C0 45.3045 0.387974 48.1385 1.83007 48.9024L28.9821 61.1084C31.3821 62.2404 32.416 62.2404 35.0161 61.1084L62.1681 48.9024C63.51 48.2784 64 45.3404 64 43.7584C62.254 44.6324 59.782 45.8784 59.734 45.8884L32 58.6744ZM32 5.40038C32.1999 5.63442 32.148 5.44838 32 5.40038ZM1.83007 36.1164L28.9821 48.3224C31.3821 49.4543 32.416 49.4543 35.0161 48.3224L62.1681 36.1164C63.51 35.4924 64 32.5545 64 30.9724C62.254 31.8464 59.782 33.0924 59.734 33.1024L32 45.8884L4.26593 33.1024C4.36193 33.1605 1.81197 32.0084 0 30.9724C0 32.5184 0.387974 35.3525 1.83007 36.1164ZM1.83007 23.3304L28.9821 35.5364C31.3821 36.6685 32.416 36.6685 35.0161 35.5364L62.1681 23.3304C64.1681 22.3984 64.234 18.4344 62.1681 17.3024L35.0161 2.96639C32.884 1.70239 31.3821 1.76838 28.982 2.96639L1.83007 17.3024C-0.236026 18.6344 -0.302013 22.1984 1.83007 23.3304ZM32 5.40038L59.734 20.3164L32 32.0044L4.26593 20.3164L32 5.40038Z" fill="#B0D3F0"/>
</svg>
