<svg width="64" height="64" viewBox="0 0 64 64" fill="none" xmlns="http://www.w3.org/2000/svg">
<path d="M47.5547 33.0442H43.2477C42.6615 33.0442 42.094 33.1243 41.5538 33.2716C40.4884 31.1771 38.3131 29.738 35.8066 29.738H28.1934C25.6869 29.738 23.5116 31.1771 22.4462 33.2716C21.906 33.1243 21.3385 33.0442 20.7523 33.0442H16.4453C12.8914 33.0442 10 35.9356 10 39.4895V46.3747C10 48.507 11.7348 50.2419 13.8672 50.2419H50.1328C52.2652 50.2419 54 48.507 54 46.3747V39.4895C54 35.9356 51.1086 33.0442 47.5547 33.0442ZM21.7481 36.1835V47.6638H13.8672C13.1564 47.6638 12.5781 47.0856 12.5781 46.3748V39.4896C12.5781 37.3573 14.3129 35.6224 16.4453 35.6224H20.7523C21.1023 35.6224 21.4411 35.67 21.7637 35.7575C21.7544 35.8986 21.7481 36.0404 21.7481 36.1835ZM39.6738 47.6638H24.3262V36.1834C24.3262 34.0511 26.061 32.3162 28.1934 32.3162H35.8066C37.939 32.3162 39.6738 34.0511 39.6738 36.1834V47.6638ZM51.4219 46.3748C51.4219 47.0856 50.8436 47.6638 50.1328 47.6638H42.2519V36.1834C42.2519 36.0402 42.2456 35.8984 42.2363 35.7574C42.5589 35.67 42.8977 35.6224 43.2477 35.6224H47.5547C49.6871 35.6224 51.4219 37.3572 51.4219 39.4895V46.3748Z" fill="white"/>
<path d="M18.599 20.8713C15.4409 20.8713 12.8716 23.4406 12.8716 26.5987C12.8715 29.7568 15.4409 32.3261 18.599 32.3261C21.757 32.3261 24.3264 29.7568 24.3264 26.5987C24.3264 23.4406 21.7571 20.8713 18.599 20.8713ZM18.5989 29.748C16.8623 29.748 15.4496 28.3353 15.4496 26.5987C15.4496 24.8622 16.8623 23.4495 18.5989 23.4495C20.3354 23.4495 21.7482 24.8622 21.7482 26.5987C21.7482 28.3353 20.3354 29.748 18.5989 29.748Z" fill="white"/>
<path d="M31.9998 13.7581C27.7807 13.7581 24.3481 17.1906 24.3481 21.4098C24.3481 25.6289 27.7807 29.0615 31.9998 29.0615C36.219 29.0615 39.6515 25.6289 39.6515 21.4098C39.6515 17.1907 36.219 13.7581 31.9998 13.7581ZM31.9998 26.4833C29.2022 26.4833 26.9263 24.2074 26.9263 21.4098C26.9263 18.6122 29.2022 16.3362 31.9998 16.3362C34.7975 16.3362 37.0734 18.6121 37.0734 21.4098C37.0734 24.2074 34.7975 26.4833 31.9998 26.4833Z" fill="white"/>
<path d="M45.4012 20.8713C42.2432 20.8713 39.6738 23.4406 39.6738 26.5987C39.6739 29.7568 42.2432 32.3261 45.4012 32.3261C48.5593 32.3261 51.1286 29.7568 51.1286 26.5987C51.1286 23.4406 48.5593 20.8713 45.4012 20.8713ZM45.4012 29.748C43.6648 29.748 42.252 28.3353 42.252 26.5987C42.252 24.8622 43.6648 23.4495 45.4012 23.4495C47.1378 23.4495 48.5505 24.8622 48.5505 26.5987C48.5505 28.3353 47.1378 29.748 45.4012 29.748Z" fill="white"/>
</svg>
