<svg width="64" height="64" viewBox="0 0 64 64" fill="none" xmlns="http://www.w3.org/2000/svg">
<path d="M48.4999 35.3C47.7665 35.3 47.0332 34.75 47.0332 33.8334V24.3H37.4999C36.7665 24.3 36.0332 23.75 36.0332 22.8334C36.0332 21.9167 36.5832 21.3667 37.4999 21.3667H48.4999C49.2332 21.3667 49.9665 21.9167 49.9665 22.8334V33.8334C49.9665 34.5667 49.2332 35.3 48.4999 35.3Z" fill="white"/>
<path d="M15.5 44.4667C15.1333 44.4667 14.95 44.2833 14.5833 44.1C14.0333 43.55 13.85 42.8167 14.4 42.0833L22.4666 32.55C23.2 31.8167 23.5666 31.2667 24.1166 31.0833C24.6666 30.9 25.2166 30.7167 25.95 30.7167C26.6833 30.7167 27.2333 31.0833 27.9666 31.6333L33.1 34.75C33.4666 34.9333 33.8333 35.3 34.0166 35.3H34.2C34.3833 35.3 34.5666 34.9333 34.9333 34.5666L47.2166 21.9167C47.7666 21.3667 48.6833 21.3667 49.2333 21.9167C49.7833 22.4667 49.7833 23.3833 49.2333 23.9333L36.95 36.5833C36.2166 37.3167 35.85 37.6833 35.3 37.8667C34.75 38.05 34.2 38.2333 33.65 38.05C32.9166 38.05 32.55 37.6833 31.6333 37.1333L26.5 34.0167C26.1333 33.8333 25.5833 33.4667 25.5833 33.4667H25.4C25.2166 33.4667 25.0333 33.8333 24.6666 34.2L16.6 43.7333C16.2333 44.2833 15.8666 44.4667 15.5 44.4667Z" fill="white"/>
</svg>
