<svg width="64" height="64" viewBox="0 0 64 64" fill="none" xmlns="http://www.w3.org/2000/svg">
<g clip-path="url(#clip0_2595_173)">
<path d="M44.7741 37.2563C43.8733 36.3184 42.7868 35.8169 41.6353 35.8169C40.493 35.8169 39.3972 36.3091 38.4593 37.247L35.5247 40.1723C35.2833 40.0423 35.0418 39.9215 34.8097 39.8008C34.4754 39.6336 34.1596 39.4758 33.8903 39.3086C31.1415 37.5628 28.6434 35.2876 26.2475 32.3437C25.0867 30.8765 24.3066 29.6414 23.7402 28.3877C24.5017 27.6912 25.2074 26.9669 25.8946 26.2704C26.1547 26.0103 26.4147 25.741 26.6747 25.481C28.6249 23.5309 28.6249 21.0049 26.6747 19.0548L24.1395 16.5195C23.8516 16.2317 23.5544 15.9345 23.2758 15.6373C22.7187 15.0616 22.1336 14.4672 21.53 13.91C20.6292 13.0185 19.552 12.5449 18.419 12.5449C17.2861 12.5449 16.1902 13.0185 15.2616 13.91C15.2523 13.9193 15.2523 13.9193 15.243 13.9286L12.0856 17.1139C10.8969 18.3026 10.219 19.7512 10.0704 21.4321C9.84756 24.1438 10.6462 26.6697 11.2591 28.3227C12.7635 32.3809 15.0109 36.1419 18.3633 40.1723C22.4308 45.0291 27.3248 48.8644 32.9152 51.5668C35.0511 52.579 37.9021 53.777 41.0874 53.9813C41.2824 53.9906 41.4867 53.9999 41.6724 53.9999C43.8176 53.9999 45.6192 53.2291 47.0307 51.6968C47.04 51.6782 47.0586 51.669 47.0679 51.6504C47.5508 51.0653 48.1079 50.536 48.693 49.9695C49.0923 49.5888 49.5009 49.1895 49.9002 48.7716C50.8196 47.8151 51.3025 46.7007 51.3025 45.5584C51.3025 44.4069 50.8103 43.3018 49.8724 42.3732L44.7741 37.2563ZM48.0987 47.035C48.0894 47.0443 48.0894 47.035 48.0987 47.035C47.7365 47.425 47.365 47.7779 46.9657 48.1679C46.3621 48.7437 45.7492 49.3473 45.1734 50.0252C44.2355 51.0282 43.1304 51.5018 41.6817 51.5018C41.5424 51.5018 41.3938 51.5018 41.2545 51.4925C38.4964 51.3161 35.9333 50.2388 34.011 49.3195C28.7549 46.775 24.1395 43.1625 20.3042 38.5843C17.1375 34.7675 15.0201 31.2386 13.6179 27.4498C12.7542 25.1374 12.4385 23.3358 12.5778 21.6364C12.6707 20.5499 13.0886 19.6491 13.8593 18.8783L17.026 15.7116C17.4811 15.2844 17.964 15.0523 18.4376 15.0523C19.0226 15.0523 19.4962 15.4052 19.7934 15.7023C19.8027 15.7116 19.812 15.7209 19.8213 15.7302C20.3877 16.2595 20.9264 16.8074 21.4928 17.3925C21.7807 17.6896 22.0779 17.9868 22.3751 18.2933L24.9103 20.8285C25.8946 21.8129 25.8946 22.7229 24.9103 23.7073C24.641 23.9766 24.3809 24.2459 24.1116 24.5059C23.3316 25.3046 22.5886 26.0475 21.7807 26.7718C21.7621 26.7904 21.7436 26.7997 21.7343 26.8183C20.9356 27.6169 21.0842 28.397 21.2514 28.9263C21.2607 28.9542 21.27 28.982 21.2792 29.0099C21.9386 30.6072 22.8672 32.1116 24.2788 33.9039L24.2881 33.9132C26.8511 37.0706 29.5535 39.5315 32.5345 41.4167C32.9152 41.6581 33.3053 41.8531 33.6767 42.0389C34.011 42.206 34.3268 42.3639 34.5961 42.531C34.6332 42.5496 34.6704 42.5775 34.7075 42.596C35.0233 42.7539 35.3204 42.8282 35.6269 42.8282C36.3977 42.8282 36.8806 42.3453 37.0384 42.1874L40.2144 39.0115C40.5302 38.6957 41.0316 38.315 41.6167 38.315C42.1924 38.315 42.6661 38.6771 42.9539 38.9929C42.9632 39.0022 42.9632 39.0022 42.9725 39.0115L48.0894 44.1283C49.0459 45.0755 49.0459 46.0506 48.0987 47.035Z" fill="white"/>
<path d="M33.779 20.4665C36.2121 20.8751 38.4223 22.0266 40.1867 23.7911C41.9511 25.5555 43.0934 27.7657 43.5113 30.1987C43.6134 30.8116 44.1427 31.2388 44.7464 31.2388C44.8207 31.2388 44.8857 31.2295 44.96 31.2203C45.6472 31.1088 46.1022 30.4588 45.9908 29.7716C45.4893 26.8277 44.0963 24.1439 41.9697 22.0173C39.8431 19.8907 37.1593 18.4977 34.2155 17.9963C33.5283 17.8848 32.8875 18.3399 32.7668 19.0178C32.6461 19.6957 33.0918 20.355 33.779 20.4665Z" fill="white"/>
<path d="M53.9489 29.4093C53.1224 24.5618 50.838 20.1507 47.3277 16.6404C43.8174 13.1301 39.4063 10.8456 34.5587 10.0191C33.8808 9.89839 33.24 10.3627 33.1193 11.0406C33.0079 11.7278 33.4629 12.3686 34.1501 12.4893C38.4776 13.223 42.4244 15.2753 45.5632 18.4048C48.7021 21.5437 50.7451 25.4904 51.4787 29.8179C51.5809 30.4308 52.1102 30.858 52.7138 30.858C52.7881 30.858 52.8531 30.8487 52.9274 30.8394C53.6053 30.7373 54.0697 30.0872 53.9489 29.4093Z" fill="white"/>
</g>
<defs>
<clipPath id="clip0_2595_173">
<rect width="44" height="44" fill="white" transform="translate(10 10)"/>
</clipPath>
</defs>
</svg>
