<svg width="64" height="64" viewBox="0 0 64 64" fill="none" xmlns="http://www.w3.org/2000/svg">
<path d="M25.4028 39.0637V29.391C25.4028 28.814 26.04 28.4644 26.5267 28.7743L34.1222 33.6106C34.5734 33.8979 34.5734 34.5568 34.1222 34.8441L26.5267 39.6804C26.04 39.9903 25.4028 39.6407 25.4028 39.0637Z" stroke="#B0D3F0" stroke-width="2" stroke-miterlimit="10"/>
<path d="M13.8759 52.7988L10.7759 57.3173" stroke="#B0D3F0" stroke-width="2" stroke-miterlimit="10"/>
<path d="M39.3364 15.6558H57.2092C58.0103 15.6558 58.6597 16.3052 58.6597 17.1063V30.9835" stroke="#B0D3F0" stroke-width="2" stroke-miterlimit="10"/>
<path d="M45.0865 52.7994H3.28405C2.48295 52.7994 1.8335 52.15 1.8335 51.3489V17.1063C1.8335 16.3052 2.48295 15.6558 3.28405 15.6558H20.5209" stroke="#B0D3F0" stroke-width="2" stroke-miterlimit="10"/>
<path d="M7.47217 57.3179H45.0863" stroke="#B0D3F0" stroke-width="2" stroke-miterlimit="10"/>
<path d="M51.2583 48.9499V43.1532C51.2583 42.8074 51.6401 42.5979 51.9318 42.7836L56.4837 45.682C56.7541 45.8541 56.7541 46.249 56.4837 46.4212L51.9318 49.3195C51.6401 49.5052 51.2583 49.2957 51.2583 48.9499Z" stroke="#B0D3F0" stroke-width="2" stroke-miterlimit="10"/>
<path d="M62.1664 35.1746V60.3675C62.1664 61.2692 61.4354 62.0001 60.5337 62.0001H46.719C45.8174 62.0001 45.0864 61.2692 45.0864 60.3675V35.1746C45.0864 34.273 45.8174 33.542 46.719 33.542H60.5337C61.4354 33.542 62.1664 34.273 62.1664 35.1746Z" stroke="#B0D3F0" stroke-width="2" stroke-miterlimit="10"/>
<path d="M45.0864 57.2817H62.1664" stroke="#B0D3F0" stroke-width="2" stroke-miterlimit="10"/>
<path d="M20.8164 11.0057C25.8488 5.97336 34.0078 5.97336 39.0401 11.0057" stroke="#B0D3F0" stroke-width="2" stroke-miterlimit="10"/>
<path d="M29.9289 22.0771C31.0107 22.0771 31.8877 21.2002 31.8877 20.1184C31.8877 19.0366 31.0107 18.1597 29.9289 18.1597C28.8472 18.1597 27.9702 19.0366 27.9702 20.1184C27.9702 21.2002 28.8472 22.0771 29.9289 22.0771Z" stroke="#B0D3F0" stroke-width="2" stroke-miterlimit="10"/>
<path d="M24.4873 14.677C27.4923 11.6721 32.3642 11.6721 35.3691 14.677" stroke="#B0D3F0" stroke-width="2" stroke-miterlimit="10"/>
<path d="M17.1646 7.3536C24.2141 0.30401 35.6437 0.30401 42.6933 7.3536" stroke="#B0D3F0" stroke-width="2" stroke-miterlimit="10"/>
</svg>
