<svg width="64" height="64" viewBox="0 0 64 64" fill="none" xmlns="http://www.w3.org/2000/svg">
<g clip-path="url(#clip0_2625_49)">
<path d="M56.4235 44.1775C58.291 42.7611 59.5 40.5195 59.5 38.0002C59.5 33.7269 56.0234 30.2502 51.75 30.2502C47.4766 30.2502 44 33.7269 44 38.0002C44 40.5187 45.2082 42.7596 47.0747 44.1761C45.5259 44.8154 44.1165 45.7697 42.9389 46.9911C41.6186 44.3806 39.3911 42.3041 36.6735 41.1782C38.541 39.7619 39.75 37.5202 39.75 35.001C39.75 30.7276 36.2734 27.251 32 27.251C27.7266 27.251 24.25 30.7276 24.25 35.001C24.25 37.5202 25.459 39.7619 27.3265 41.1782C24.6089 42.3041 22.3815 44.3806 21.0611 46.9911C19.8835 45.7696 18.4741 44.8154 16.9252 44.1761C18.7917 42.7596 20 40.5187 20 38.0002C20 33.7269 16.5234 30.2502 12.25 30.2502C7.97662 30.2502 4.5 33.7269 4.5 38.0002C4.5 40.5195 5.709 42.7611 7.5765 44.1775C3.13363 46.0181 0 50.3999 0 55.5002V62.7502C0 63.4405 0.559625 64.0002 1.25 64.0002H21H43H62.75C63.4404 64.0002 64 63.4405 64 62.7502V55.5002C64 50.3999 60.8664 46.0181 56.4235 44.1775ZM7 38.0002C7 35.1054 9.35512 32.7502 12.25 32.7502C15.1449 32.7502 17.5 35.1054 17.5 38.0002C17.5 40.8951 15.1449 43.2502 12.25 43.2502C9.35512 43.2502 7 40.8951 7 38.0002ZM19.75 52.501V61.5002H2.5V55.5002C2.5 50.124 6.87388 45.7502 12.25 45.7502C15.3509 45.7502 18.2371 47.2131 20.0763 49.6889C19.8633 50.5922 19.75 51.5336 19.75 52.501ZM26.75 35.001C26.75 32.1061 29.1051 29.751 32 29.751C34.8949 29.751 37.25 32.1061 37.25 35.001C37.25 37.8959 34.8949 40.251 32 40.251C29.1051 40.251 26.75 37.8959 26.75 35.001ZM41.75 61.5002H39.2709V57.5594C39.2709 56.8691 38.7112 56.3094 38.0209 56.3094C37.3305 56.3094 36.7709 56.8691 36.7709 57.5594V61.5002H22.25V52.501C22.25 47.1247 26.6239 42.751 32 42.751C37.3761 42.751 41.75 47.1247 41.75 52.501V61.5002ZM46.5 38.0002C46.5 35.1054 48.8551 32.7502 51.75 32.7502C54.6449 32.7502 57 35.1054 57 38.0002C57 40.8951 54.6449 43.2502 51.75 43.2502C48.8551 43.2502 46.5 40.8951 46.5 38.0002ZM61.5 61.5002H44.25V52.501C44.25 51.5336 44.1368 50.5922 43.9238 49.6889C45.7629 47.2131 48.6491 45.7502 51.75 45.7502C57.1261 45.7502 61.5 50.124 61.5 55.5002V61.5002Z" fill="#0284C7"/>
<path d="M44.3842 3.85003C43.896 3.36178 43.1045 3.3619 42.6163 3.85003L38.327 8.13928C37.8389 8.6274 37.8389 9.4189 38.327 9.90715C38.5712 10.1512 38.891 10.2733 39.211 10.2733C39.5309 10.2733 39.8509 10.1513 40.0949 9.90715L44.3842 5.6179C44.8723 5.12978 44.8723 4.33828 44.3842 3.85003Z" fill="#0284C7"/>
<path d="M25.6728 8.13923L21.3835 3.84998C20.8954 3.36186 20.1039 3.36186 19.6157 3.84998C19.1274 4.33811 19.1275 5.12961 19.6157 5.61786L23.905 9.90711C24.1492 10.1512 24.469 10.2732 24.7889 10.2732C25.1088 10.2732 25.4288 10.1512 25.6728 9.90711C26.1609 9.41898 26.1609 8.62748 25.6728 8.13923Z" fill="#0284C7"/>
<path d="M32 0C31.3096 0 30.75 0.559625 30.75 1.25V3.93587C30.75 4.62625 31.3096 5.18587 32 5.18587C32.6904 5.18587 33.25 4.62625 33.25 3.93587V1.25C33.25 0.559625 32.6904 0 32 0Z" fill="#0284C7"/>
<path d="M41.7131 14.1194C41.4943 13.446 40.9231 12.9646 40.2226 12.8629L35.6851 12.2035L33.6558 8.09175C33.3424 7.45688 32.7081 7.0625 32.0001 7.0625C31.2921 7.0625 30.6577 7.45688 30.3443 8.09175L28.3151 12.2035L23.7777 12.8629C23.0771 12.9646 22.5059 13.4461 22.2871 14.1194C22.0683 14.7926 22.2472 15.5179 22.7542 16.0121L26.0377 19.2126L25.2626 23.7318C25.1428 24.4295 25.4242 25.1215 25.9969 25.5378C26.3206 25.7729 26.6993 25.8924 27.0804 25.8924C27.3739 25.8924 27.6689 25.8216 27.9414 25.6784L32.0001 23.5446L36.0586 25.6782C36.6852 26.0077 37.4303 25.9539 38.0032 25.5378C38.5759 25.1215 38.8573 24.4295 38.7376 23.7319L37.9624 19.2126L41.2459 16.0121C41.7529 15.5179 41.9318 14.7926 41.7131 14.1194ZM35.9713 17.6624C35.5362 18.0866 35.3377 18.6974 35.4403 19.2966L36.0497 22.8493L32.8593 21.172C32.5903 21.0305 32.2952 20.9599 32.0001 20.9599C31.7049 20.9599 31.4098 21.0305 31.1408 21.172L27.9504 22.8493L28.5598 19.2965C28.6624 18.6975 28.4639 18.0866 28.0287 17.6624L25.4476 15.1465L29.0144 14.6281C29.6162 14.5408 30.1359 14.1631 30.4048 13.618L32.0001 10.3857L33.7341 13.8991C33.9161 14.2679 34.2678 14.5235 34.6747 14.5829L38.5524 15.1464L35.9713 17.6624Z" fill="#0284C7"/>
<path d="M38.9052 51.8074C38.6715 51.5749 38.3502 51.4424 38.0215 51.4424C37.6915 51.4424 37.3702 51.5749 37.1377 51.8074C36.904 52.0411 36.7715 52.3623 36.7715 52.6924C36.7715 53.0211 36.904 53.3436 37.1377 53.576C37.3702 53.8086 37.6915 53.9424 38.0215 53.9424C38.3502 53.9424 38.6715 53.8086 38.9052 53.576C39.1377 53.3424 39.2715 53.0211 39.2715 52.6924C39.2715 52.3636 39.1377 52.0411 38.9052 51.8074Z" fill="#0284C7"/>
</g>
<defs>
<clipPath id="clip0_2625_49">
<rect width="64" height="64" fill="white"/>
</clipPath>
</defs>
</svg>
