<svg width="64" height="64" viewBox="0 0 64 64" fill="none" xmlns="http://www.w3.org/2000/svg">
<path fill-rule="evenodd" clip-rule="evenodd" d="M8.41058 17.2701H12.4947V19.0778H8.41058V17.2701ZM8.02656 20.9977H12.8795C13.7369 20.9977 14.4342 20.3065 14.4342 19.4582V16.8884C14.4342 16.0394 13.737 15.3498 12.8795 15.3498H8.02656C7.16743 15.3498 6.47098 16.0394 6.47098 16.8884V19.4582C6.47098 20.3064 7.16743 20.9977 8.02656 20.9977ZM62.4029 32.3896C62.7251 32.8134 62.638 33.415 62.2093 33.7341C61.7814 34.0515 61.1736 33.9661 60.8514 33.5416L58.0584 29.8552V43.9876C58.0584 44.5177 57.6255 44.948 57.0886 44.948H49.9228C49.3866 44.948 48.9529 44.5178 48.9529 43.9876C48.9529 43.4576 49.3866 43.0274 49.9228 43.0274H56.1189V29.8552L53.3267 33.5416C53.0028 33.9693 52.3941 34.0493 51.9688 33.7341C51.541 33.4152 51.4547 32.8134 51.7753 32.3896L56.3133 26.3983C56.702 25.8863 57.4782 25.8869 57.8648 26.3983L62.4029 32.3896ZM18.5891 43.9876C18.5891 44.5177 18.1547 44.948 17.6201 44.948H10.4534C9.91649 44.948 9.48365 44.5178 9.48365 43.9876V29.8552L6.69061 33.5416C6.36694 33.9679 5.75959 34.0502 5.33273 33.7341C4.90402 33.4152 4.81691 32.8134 5.13915 32.3896L9.67722 26.3983C10.063 25.888 10.8392 25.8852 11.2287 26.3983L15.7667 32.3896C16.0873 32.8134 16.001 33.415 15.573 33.7341C15.1452 34.0515 14.5358 33.9661 14.2152 33.5416L11.4223 29.8552V43.0274H17.62C18.1547 43.0274 18.5891 43.4576 18.5891 43.9876ZM58.9087 19.0779H54.8229V17.2702H58.9087V19.0779ZM59.2918 15.3497H54.4381C53.5814 15.3497 52.8833 16.0393 52.8833 16.8883V19.4581C52.8833 20.3064 53.5814 20.9975 54.4381 20.9975H59.2918C60.151 20.9975 60.8474 20.3064 60.8474 19.4581V16.8883C60.8474 16.0393 60.151 15.3497 59.2918 15.3497ZM61.0239 22.3566C61.595 22.3566 62.0604 21.895 62.0604 21.3294V12.1836H42.1605V21.3294C42.1605 21.8949 42.6251 22.3566 43.197 22.3566H61.0239ZM43.197 8.61655H61.0239C61.595 8.61655 62.0604 9.07812 62.0604 9.64371V10.2631H42.1605V9.64371C42.1605 9.07812 42.6251 8.61655 43.197 8.61655ZM61.0239 6.69596H43.197C41.556 6.69596 40.2209 8.01882 40.2209 9.64357V21.3294C40.2209 22.9543 41.556 24.2764 43.197 24.2764H61.0239C62.664 24.2764 64 22.9543 64 21.3294V9.64371C64 8.01882 62.664 6.69596 61.0239 6.69596ZM1.93946 19.2061C1.93946 20.9276 3.35342 22.3286 5.09119 22.3286H22.0817C23.8195 22.3286 25.2343 20.9276 25.2343 19.2061C25.2343 17.4853 23.8195 16.0844 22.0817 16.0844H20.9671C20.5156 16.0844 20.1259 15.7774 20.0234 15.3416C19.5664 13.4043 17.5457 12.3149 15.6822 12.9007C15.1171 13.0783 14.5213 12.7117 14.4309 12.1314C14.0574 9.73082 11.9218 7.92059 9.46415 7.92059C5.83716 7.92059 3.41448 11.6166 4.85776 14.8922C5.09261 15.4251 4.80281 16.0413 4.23532 16.2021C2.88314 16.5839 1.93946 17.8179 1.93946 19.2061ZM22.0817 24.249C24.8886 24.249 27.1731 21.9861 27.1731 19.2061C27.1731 16.4252 24.8886 14.1638 22.0817 14.1638H21.6782C20.806 11.9651 18.5399 10.5866 16.1192 10.8561C15.218 7.97626 12.5251 6 9.46415 6C4.85576 6 1.53138 10.3612 2.74735 14.7326C1.09014 15.589 0 17.3097 0 19.2061C0 21.9862 2.28291 24.249 5.09133 24.249H22.0817ZM46.0665 34.2553H21.4757V32.9413H46.0666L46.0665 34.2553ZM43.1385 52.8458H24.4036V36.1758H43.1385V52.8458ZM46.0665 56.0795H21.4757V54.7664H46.0666L46.0665 56.0795ZM33.771 21.6405L42.9431 31.0216H24.5989L33.771 21.6405ZM46.2357 31.0216C47.212 31.0216 48.0061 31.8071 48.0061 32.7738V34.4228C48.0061 35.3895 47.212 36.1758 46.2357 36.1758H45.078V52.8458H46.2357C47.212 52.8458 48.0061 53.6313 48.0061 54.598V56.2487C48.0061 57.2138 47.212 58 46.2357 58H21.3047C20.3293 58 19.5361 57.2138 19.5361 56.2487V54.598C19.5361 53.6313 20.3293 52.8458 21.3047 52.8458H22.464V36.1758H21.3047C20.3293 36.1758 19.5361 35.3895 19.5361 34.4228V32.7738C19.5361 31.8071 20.3293 31.0216 21.3047 31.0216H21.8994L33.0737 19.5918C33.454 19.2031 34.0887 19.2032 34.4682 19.5918L45.6425 31.0216H46.2357ZM34.7164 45.9C34.7017 45.9822 34.6505 46.0821 34.4228 46.1933C33.8045 46.4913 32.8776 46.2606 32.2968 45.9629C31.8209 45.7196 31.236 45.9026 30.9902 46.3737C30.7445 46.845 30.9309 47.425 31.406 47.6683C31.8526 47.8972 32.3196 48.0589 32.8013 48.1532C32.8063 48.6801 33.2382 49.1046 33.771 49.1046C34.3107 49.1046 34.7407 48.6822 34.7407 48.1201C35.8114 47.8127 36.588 47.0495 36.6584 45.9619C36.6608 45.9248 36.6608 45.8862 36.6593 45.8492C36.6129 45.0089 36.1248 44.3121 35.2835 43.8891C34.4778 43.4597 33.6368 43.6427 33.1625 43.4178C32.7557 43.2172 32.7562 43.0166 33.1415 42.8314C33.7612 42.5334 34.6885 42.7662 35.2193 43.0505C35.6904 43.301 36.2794 43.1279 36.534 42.6622C36.7887 42.1959 36.6146 41.6134 36.1427 41.3604C35.7066 41.1275 35.2437 40.9632 34.7409 40.8689C34.7367 40.3412 34.3041 39.9159 33.7711 39.9159C33.2298 39.9159 32.8014 40.3388 32.8014 40.9068C30.5873 41.5511 30.1968 44.031 32.2766 45.1266C33.2308 45.6293 34.6001 45.3171 34.7164 45.9ZM33.771 39.0726C30.743 39.0726 28.2803 41.5127 28.2803 44.5112C28.2803 47.5096 30.743 49.9481 33.771 49.9481C36.799 49.9481 39.2626 47.5096 39.2626 44.5112C39.2626 41.5129 36.7992 39.0726 33.771 39.0726ZM33.771 51.8687C37.8681 51.8687 41.2013 48.5682 41.2013 44.5112C41.2013 40.4527 37.8681 37.1522 33.771 37.1522C29.6739 37.1522 26.3407 40.4527 26.3407 44.5112C26.3407 48.5682 29.6739 51.8687 33.771 51.8687Z" fill="#B0D3F0"/>
</svg>
