<svg width="64" height="64" viewBox="0 0 64 64" fill="none" xmlns="http://www.w3.org/2000/svg">
<g clip-path="url(#clip0_2625_129)">
<path d="M59.854 3H4.14605C2.90505 3.00132 1.71526 3.49489 0.83774 4.37241C-0.0397792 5.24993 -0.533348 6.43972 -0.534668 7.68072V43.7705C-0.533342 45.0115 -0.0397702 46.2013 0.837748 47.0788C1.71527 47.9563 2.90506 48.4498 4.14605 48.4512H26.8977C27.0403 51.2046 22.4223 56.075 18.7408 58.9184C18.5489 59.0666 18.4083 59.2712 18.3385 59.5034C18.2687 59.7356 18.2733 59.9838 18.3516 60.2132C18.4299 60.4427 18.578 60.6419 18.7752 60.783C18.9723 60.9241 19.2087 60.9999 19.4511 61H44.5489C44.793 60.9954 45.0296 60.9145 45.2254 60.7686C45.4212 60.6227 45.5664 60.4192 45.6406 60.1865C45.7148 59.9539 45.7143 59.7039 45.6392 59.4715C45.5641 59.2392 45.4181 59.0362 45.2217 58.8911C45.1442 58.8359 37.9574 53.6571 37.3672 48.4511H59.854C61.095 48.4498 62.2847 47.9562 63.1623 47.0787C64.0398 46.2012 64.5333 45.0115 64.5347 43.7705V7.68072C64.5334 6.43972 64.0398 5.24993 63.1623 4.37241C62.2848 3.49489 61.095 3.00132 59.854 3ZM4.14605 5.32391H59.854C60.4788 5.32462 61.0779 5.57315 61.5197 6.01498C61.9615 6.45682 62.2101 7.05587 62.2108 7.68072V38.2841H1.78924V7.68072C1.78995 7.05587 2.03848 6.45682 2.48032 6.01498C2.92215 5.57315 3.5212 5.32462 4.14605 5.32391ZM41.3092 58.6761H22.6261C25.3591 56.1888 29.2756 51.9933 29.22 48.4512H35.0435C35.3964 52.5639 38.8237 56.4045 41.3092 58.6761ZM59.854 46.1273H4.14605C3.52121 46.1266 2.92216 45.878 2.48032 45.4362C2.03849 44.9944 1.78995 44.3953 1.78924 43.7705V40.608H62.2108V43.7705C62.2101 44.3953 61.9615 44.9944 61.5197 45.4362C61.0779 45.878 60.4789 46.1266 59.854 46.1273Z" fill="#B0D3F0"/>
<path d="M34.5749 41.8779H29.076C28.7718 41.8839 28.482 42.0089 28.2689 42.2262C28.0559 42.4434 27.9365 42.7356 27.9365 43.0399C27.9365 43.3442 28.0559 43.6364 28.269 43.8536C28.482 44.0709 28.7718 44.1959 29.0761 44.2018H34.5749C34.8791 44.1959 35.1689 44.0709 35.382 43.8536C35.595 43.6364 35.7144 43.3442 35.7144 43.0399C35.7144 42.7356 35.595 42.4434 35.382 42.2262C35.1689 42.0089 34.8791 41.8839 34.5749 41.8779Z" fill="#B0D3F0"/>
<path d="M12.7812 28.9418C13.4241 29.0026 14.0727 28.9292 14.6858 28.7261C15.2988 28.5231 15.863 28.1948 16.3424 27.7622C16.8219 27.3295 17.2062 26.8019 17.471 26.2129C17.7358 25.6239 17.8753 24.9863 17.8806 24.3405V16.9007C17.8806 16.5926 17.7582 16.297 17.5403 16.0791C17.3224 15.8612 17.0268 15.7388 16.7187 15.7388C16.4105 15.7388 16.1149 15.8612 15.897 16.0791C15.6791 16.297 15.5567 16.5926 15.5567 16.9007V24.3405C15.5561 24.9443 15.3159 25.5232 14.889 25.9501C14.462 26.3771 13.8831 26.6173 13.2793 26.6179C12.9448 26.6761 12.6017 26.6615 12.2733 26.5751C11.945 26.4887 11.6391 26.3326 11.3766 26.1173C11.114 25.902 10.901 25.6327 10.7519 25.3276C10.6029 25.0225 10.5213 24.6889 10.5129 24.3495V16.9467C10.5129 16.6386 10.3905 16.343 10.1725 16.1251C9.95463 15.9072 9.65909 15.7848 9.35092 15.7848C9.04275 15.7848 8.7472 15.9072 8.52929 16.1251C8.31138 16.343 8.18896 16.6386 8.18896 16.9467V24.3496C8.19027 25.5672 8.67451 26.7345 9.53544 27.5954C10.3964 28.4563 11.5637 28.9405 12.7812 28.9418Z" fill="#B0D3F0"/>
<path d="M19.7891 28.7203C20.0386 28.9011 20.3497 28.9754 20.6539 28.9269C20.9582 28.8784 21.2308 28.711 21.4117 28.4616L24.2483 24.5502L26.8765 28.431C27.0521 28.6794 27.318 28.8491 27.6173 28.9036C27.9165 28.9582 28.2252 28.8932 28.4771 28.7227C28.729 28.5522 28.904 28.2897 28.9646 27.9916C29.0251 27.6935 28.9663 27.3835 28.8009 27.1283L25.6997 22.549L29.3014 17.5825C29.4813 17.333 29.5549 17.0223 29.506 16.7186C29.4572 16.4149 29.2899 16.143 29.0409 15.9624C28.7918 15.7819 28.4813 15.7074 28.1775 15.7555C27.8736 15.8035 27.6013 15.97 27.42 16.2186L24.3135 20.5021L21.4333 16.2492C21.2578 16.0005 20.9918 15.8305 20.6924 15.7758C20.393 15.7211 20.0841 15.786 19.8321 15.9566C19.58 16.1273 19.405 16.3899 19.3445 16.6882C19.2841 16.9865 19.343 17.2966 19.5088 17.5519L22.8622 22.5034L19.5303 27.0977C19.4408 27.2212 19.3764 27.3612 19.3409 27.5096C19.3054 27.658 19.2995 27.8119 19.3236 27.9626C19.3476 28.1133 19.4011 28.2577 19.4809 28.3878C19.5608 28.5178 19.6655 28.6308 19.7891 28.7203Z" fill="#B0D3F0"/>
<path d="M30.2154 32.376C30.4935 32.5083 30.8128 32.5249 31.1032 32.4221C31.3935 32.3194 31.6313 32.1057 31.7643 31.8279L40.2679 14.0162C40.4006 13.7381 40.4174 13.4187 40.3146 13.1282C40.2118 12.8378 39.9979 12.6 39.7198 12.4673C39.4417 12.3346 39.1223 12.3178 38.8319 12.4205C38.5414 12.5233 38.3036 12.7373 38.1709 13.0154L29.6673 30.8271C29.6015 30.9647 29.5634 31.114 29.5553 31.2664C29.5473 31.4188 29.5693 31.5713 29.6202 31.7152C29.6711 31.859 29.7499 31.9914 29.852 32.1048C29.9541 32.2182 30.0776 32.3103 30.2154 32.376Z" fill="#B0D3F0"/>
<path d="M46.2587 28.9418C46.9017 29.0027 47.5503 28.9292 48.1634 28.7262C48.7766 28.5231 49.3408 28.1949 49.8204 27.7622C50.2999 27.3296 50.6844 26.8021 50.9493 26.213C51.2142 25.624 51.3538 24.9863 51.3592 24.3405V16.9007C51.3592 16.5926 51.2368 16.297 51.0189 16.0791C50.801 15.8612 50.5055 15.7388 50.1973 15.7388C49.8891 15.7388 49.5936 15.8612 49.3757 16.0791C49.1578 16.297 49.0353 16.5926 49.0353 16.9007V24.3405C49.0344 24.9444 48.7941 25.5233 48.3669 25.9502C47.9398 26.3772 47.3608 26.6173 46.7568 26.6179C46.4223 26.6761 46.0792 26.6615 45.7509 26.5751C45.4225 26.4887 45.1167 26.3326 44.8541 26.1173C44.5916 25.902 44.3785 25.6327 44.2295 25.3276C44.0804 25.0225 43.9989 24.6889 43.9904 24.3495V16.9467C43.9904 16.6386 43.868 16.343 43.6501 16.1251C43.4322 15.9072 43.1366 15.7848 42.8285 15.7848C42.5203 15.7848 42.2247 15.9072 42.0068 16.1251C41.7889 16.343 41.6665 16.6386 41.6665 16.9467V24.3496C41.6678 25.5672 42.152 26.7344 43.013 27.5954C43.8739 28.4563 45.0412 28.9405 46.2587 28.9418Z" fill="#B0D3F0"/>
<path d="M54.6488 28.9418C54.8014 28.9419 54.9525 28.9118 55.0935 28.8534C55.2345 28.7951 55.3626 28.7095 55.4705 28.6016C55.5784 28.4937 55.664 28.3656 55.7224 28.2246C55.7807 28.0836 55.8108 27.9325 55.8107 27.7799V16.9007C55.8107 16.5926 55.6883 16.297 55.4704 16.0791C55.2525 15.8612 54.9569 15.7388 54.6488 15.7388C54.3406 15.7388 54.0451 15.8612 53.8271 16.0791C53.6092 16.297 53.4868 16.5926 53.4868 16.9007V27.7799C53.4868 27.9325 53.5168 28.0836 53.5752 28.2246C53.6336 28.3656 53.7191 28.4937 53.8271 28.6016C53.935 28.7095 54.0631 28.7951 54.2041 28.8534C54.3451 28.9118 54.4962 28.9419 54.6488 28.9418Z" fill="#B0D3F0"/>
</g>
<defs>
<clipPath id="clip0_2625_129">
<rect width="64" height="64" fill="white"/>
</clipPath>
</defs>
</svg>
