<svg width="64" height="64" viewBox="0 0 64 64" fill="none" xmlns="http://www.w3.org/2000/svg">
<path fill-rule="evenodd" clip-rule="evenodd" d="M58.9487 25.8345H16.3022L57.2646 13.9683C57.583 13.876 57.8515 13.6606 58.0117 13.3706C58.1719 13.0801 58.2099 12.7383 58.1177 12.4199L55.9741 5.02002C55.1177 2.06445 52.3657 0 49.2817 0C48.6318 0 47.9844 0.0922851 47.3564 0.273926L8.89695 11.415C7.11814 11.9302 5.64402 13.1128 4.7451 14.7441C3.84666 16.3755 3.63572 18.2539 4.15086 20.0322L6.2451 27.2617V57.0435C6.2451 60.8794 9.3657 64 13.2012 64H28.2217C28.9121 64 29.4717 63.4404 29.4717 62.75C29.4717 62.0596 28.9121 61.5 28.2217 61.5H13.2016C10.7441 61.5 8.7451 59.501 8.7451 57.0435V40.0327H15.1489H15.1518H15.1543H24.9433H24.9463H24.9492H34.7383H34.7412H34.7441H44.5332H44.5361H44.5386H57.6987V57.0435C57.6987 59.501 55.6997 61.5 53.2422 61.5H38.2217C37.5317 61.5 36.9717 62.0596 36.9717 62.75C36.9717 63.4404 37.5317 64 38.2217 64H53.2422C57.0781 64 60.1987 60.8794 60.1987 57.0435V27.0845C60.1987 26.394 59.6391 25.8345 58.9487 25.8345ZM36.9072 37.5327L42.2182 28.3345H49.126L43.8154 37.5327H36.9072ZM27.1123 37.5327L32.4233 28.3345H39.331L34.0205 37.5327H27.1123ZM17.3179 37.5327L22.6284 28.3345H29.5366L24.2256 37.5327H17.3179ZM21.9653 21.3506L13.0718 12.8086L19.7353 10.8784C19.7822 10.9468 19.8369 11.0112 19.8994 11.0713L28.793 19.6133L22.1294 21.5435C22.0825 21.4751 22.0273 21.4102 21.9653 21.3506ZM38.7153 5.62061L47.6089 14.1626L40.9453 16.0928C40.8984 16.0244 40.8437 15.9595 40.7812 15.8999L31.8877 7.35791L38.5513 5.42773C38.5981 5.49609 38.6528 5.56055 38.7153 5.62061ZM29.3071 8.34619L38.2007 16.8877L31.5371 18.8184C31.4902 18.75 31.4355 18.6851 31.373 18.6255L22.4795 10.0835L29.143 8.15332C29.1904 8.22119 29.2451 8.28613 29.3071 8.34619ZM48.0522 2.67529C48.4536 2.55908 48.8672 2.5 49.2817 2.5C51.2597 2.5 53.0239 3.82227 53.5727 5.71582L55.3686 11.9146L50.3535 13.3672C50.3061 13.2988 50.2514 13.2344 50.1889 13.1743L41.2959 4.63281L48.0522 2.67529ZM6.93504 15.9502C7.51121 14.9038 8.45506 14.146 9.59275 13.8164L10.3271 13.6035C10.3745 13.6719 10.4292 13.7368 10.4912 13.7964L19.3847 22.3384L8.34812 25.5356L6.55222 19.3369C6.22263 18.1997 6.35887 16.9971 6.93504 15.9502ZM8.7451 28.3345H19.7417L14.4311 37.5327H8.7451V28.3345ZM46.7021 37.5327L52.0127 28.3345H57.6987V37.5327H46.7021Z" fill="#B0D3F0"/>
<path fill-rule="evenodd" clip-rule="evenodd" d="M41.8652 50.639C41.8652 50.1923 41.627 49.7797 41.2402 49.5565L30.2583 43.2162C29.8716 42.993 29.395 42.993 29.0083 43.2162C28.6216 43.4393 28.3833 43.8519 28.3833 44.2987V56.9794C28.3833 57.4257 28.6216 57.8383 29.0083 58.0614C29.2017 58.1732 29.4175 58.2294 29.6333 58.2294C29.8491 58.2294 30.0649 58.1732 30.2583 58.0614L41.2402 51.7216C41.627 51.4984 41.8652 51.0858 41.8652 50.639ZM30.8833 54.8143V46.4637L38.1152 50.639L30.8833 54.8143Z" fill="#B0D3F0"/>
<path fill-rule="evenodd" clip-rule="evenodd" d="M33.2217 61.5C32.5332 61.5 31.9717 62.0615 31.9717 62.75C31.9717 63.4385 32.5332 64 33.2217 64C33.9106 64 34.4717 63.4385 34.4717 62.75C34.4717 62.0615 33.9106 61.5 33.2217 61.5Z" fill="#B0D3F0"/>
</svg>
