<svg width="64" height="64" viewBox="0 0 64 64" fill="none" xmlns="http://www.w3.org/2000/svg">
<g clip-path="url(#clip0_2619_485)">
<path d="M61.0905 32.2684V23.2733C61.0905 20.2232 58.7247 17.7427 55.7355 17.5021L47.382 2.91144C46.6079 1.56201 45.3578 0.597527 43.8621 0.197033C42.3734 -0.200733 40.8167 0.00817283 39.4843 0.78366L10.848 17.4552H5.81862C2.6099 17.4552 0.000488281 20.0645 0.000488281 23.2733V58.1819C0.000488281 61.3906 2.60976 64 5.81862 64H55.2724C58.4811 64 61.0905 61.3907 61.0905 58.1819V49.1868C62.7799 48.5843 63.9995 46.985 63.9995 45.0912V36.364C63.9995 34.4702 62.7799 32.8709 61.0905 32.2684ZM52.3552 17.4552H39.6776L49.1859 11.9195L52.3552 17.4552ZM47.7406 9.39502L33.896 17.4552H28.1534L46.3047 6.8872L47.7406 9.39502ZM40.9487 3.29776C41.6064 2.91281 42.3748 2.81054 43.1092 3.00662C43.8521 3.20544 44.4715 3.68557 44.8564 4.35742L44.8594 4.36274L22.3721 17.4552H16.6298L40.9487 3.29776ZM58.1814 58.1819C58.1814 59.7855 56.876 61.0909 55.2724 61.0909H5.81862C4.21501 61.0909 2.90962 59.7855 2.90962 58.1819V23.2733C2.90962 21.6697 4.21501 20.3643 5.81862 20.3643H55.2724C56.876 20.3643 58.1814 21.6697 58.1814 23.2733V32.0005H49.4543C44.6418 32.0005 40.7271 35.9151 40.7271 40.7276C40.7271 45.5401 44.6418 49.4547 49.4543 49.4547H58.1814V58.1819ZM61.0905 45.0912C61.0905 45.8937 60.4386 46.5457 59.636 46.5457H49.4543C46.2456 46.5457 43.6361 43.9365 43.6361 40.7276C43.6361 37.5189 46.2454 34.9095 49.4543 34.9095H59.636C60.4385 34.9095 61.0905 35.5614 61.0905 36.364V45.0912Z" fill="#B0D3F0"/>
<path d="M49.4544 37.8184C47.8508 37.8184 46.5454 39.1237 46.5454 40.7274C46.5454 42.331 47.8508 43.6364 49.4544 43.6364C51.058 43.6364 52.3634 42.331 52.3634 40.7274C52.3635 39.1237 51.0582 37.8184 49.4544 37.8184Z" fill="#B0D3F0"/>
</g>
<defs>
<clipPath id="clip0_2619_485">
<rect width="64" height="64" fill="white"/>
</clipPath>
</defs>
</svg>
