<svg width="64" height="64" viewBox="0 0 64 64" fill="none" xmlns="http://www.w3.org/2000/svg">
<path d="M59 13H53V5C53 2.794 51.206 1 49 1H15C12.794 1 11 2.794 11 5V13H5C2.794 13 1 14.794 1 17V47C1 49.206 2.794 51 5 51H25V53.523C21.671 54.055 17 55.284 17 58C17 61.436 24.775 63 32 63C39.225 63 47 61.436 47 58C47 55.284 42.329 54.055 39 53.523V51H59C61.206 51 63 49.206 63 47V17C63 14.794 61.206 13 59 13ZM45 27V26C45 24.346 43.654 23 42 23H37V18.488C37 17.153 36.141 15.998 34.862 15.614L26.53 13.114C26.274 13.039 26.01 13 25.74 13C24.229 13 23 14.229 23 15.74V24.382L20.658 25.553C19.635 26.064 19 27.093 19 28.236V35H39V37H15C13.897 37 13 36.103 13 35V11H51V27H45ZM57.086 40.5L52.5 45.086L43 35.586L41 37.586V29H49.586L47.586 31L57.086 40.5ZM35 27V33H33V26C33 25.449 33.449 25 34 25H42C42.551 25 43 25.449 43 26V27H39V33H37V27H35ZM26.382 23C25.978 23 25.573 23.096 25.211 23.276L25 23.382V19.281L35 21.781V23H34C32.346 23 31 24.346 31 26V33H29V25.618C29 24.174 27.826 23 26.382 23ZM35 19.719L25 17.219V15.74C25 15.261 25.493 14.891 25.958 15.031L34.288 17.53C34.713 17.658 35 18.043 35 18.488V19.719ZM26.105 25.065C26.496 24.868 27 25.183 27 25.618V26.382L21 29.382V28.236C21 27.855 21.212 27.512 21.553 27.342L26.105 25.065ZM21 31.618L27 28.618V33H21V31.618ZM45.586 41H40.414L43 38.414L45.586 41ZM15 3H49C50.103 3 51 3.897 51 5V9H13V5C13 3.897 13.897 3 15 3ZM5 15H11V35C11 37.206 12.794 39 15 39H39V41H3V17C3 15.897 3.897 15 5 15ZM45 58C45 58.897 40.577 61 32 61C23.423 61 19 58.897 19 58C19 57.591 20.458 56.322 25 55.55V59H39V55.55C43.542 56.322 45 57.591 45 58ZM37 57H27V51H37V57ZM61 47C61 48.103 60.103 49 59 49H5C3.897 49 3 48.103 3 47V43H47.586L52.5 47.914L59.914 40.5L50.414 31L54.414 27H53V15H59C60.103 15 61 15.897 61 17V47Z" fill="#B0D3F0"/>
<path d="M15 5H17V7H15V5Z" fill="#B0D3F0"/>
<path d="M19 5H21V7H19V5Z" fill="#B0D3F0"/>
<path d="M23 5H25V7H23V5Z" fill="#B0D3F0"/>
<path d="M30 45H34V47H30V45Z" fill="#B0D3F0"/>
<path d="M36 45H38V47H36V45Z" fill="#B0D3F0"/>
<path d="M26 45H28V47H26V45Z" fill="#B0D3F0"/>
</svg>
