<svg width="64" height="64" viewBox="0 0 64 64" fill="none" xmlns="http://www.w3.org/2000/svg">
<path d="M37.75 9.21875C37.0601 9.21875 36.5 9.6913 36.5 10.2734C36.5 10.8556 37.0601 11.3281 37.75 11.3281C38.4399 11.3281 39 10.8556 39 10.2734C39 9.6913 38.4399 9.21875 37.75 9.21875Z" fill="#B0D3F0"/>
<path d="M47.75 9.21875H42.75C42.0596 9.21875 41.5 9.69089 41.5 10.2734C41.5 10.856 42.0596 11.3281 42.75 11.3281H47.75C48.4404 11.3281 49 10.856 49 10.2734C49 9.69089 48.4404 9.21875 47.75 9.21875Z" fill="#B0D3F0"/>
<path d="M57.75 9.21875H52.75C52.0596 9.21875 51.5 9.69089 51.5 10.2734C51.5 10.856 52.0596 11.3281 52.75 11.3281H57.75C58.4404 11.3281 59 10.856 59 10.2734C59 9.69089 58.4404 9.21875 57.75 9.21875Z" fill="#B0D3F0"/>
<path d="M60.25 5H3.75C1.68213 5 0 6.4193 0 8.16406V55.8359C0 57.5807 1.68213 59 3.75 59H60.25C62.3179 59 64 57.5807 64 55.8359V8.16406C64 6.4193 62.3179 5 60.25 5ZM61.5 55.8359C61.5 56.4177 60.9395 56.8906 60.25 56.8906H3.75C3.06055 56.8906 2.5 56.4177 2.5 55.8359V15.5469H61.5V55.8359ZM61.5 13.4375H2.5V8.16406C2.5 7.58234 3.06055 7.10938 3.75 7.10938H60.25C60.9395 7.10938 61.5 7.58234 61.5 8.16406V13.4375Z" fill="#B0D3F0"/>
<path d="M9.5 28.8359H54.5C55.1904 28.8359 55.75 28.3638 55.75 27.7812V21.4531C55.75 20.8706 55.1904 20.3984 54.5 20.3984H9.5C8.80957 20.3984 8.25 20.8706 8.25 21.4531V27.7812C8.25 28.3638 8.80957 28.8359 9.5 28.8359ZM10.75 22.5078H53.25V26.7266H10.75V22.5078Z" fill="#B0D3F0"/>
<path d="M9.5 52.3555H24.5C25.1904 52.3555 25.75 51.8833 25.75 51.3008V34.4258C25.75 33.8432 25.1904 33.3711 24.5 33.3711H9.5C8.80957 33.3711 8.25 33.8432 8.25 34.4258V51.3008C8.25 51.8833 8.80957 52.3555 9.5 52.3555ZM10.75 35.4805H23.25V50.2461H10.75V35.4805Z" fill="#B0D3F0"/>
<path d="M54.5 33.3711H32C31.9878 33.3711 31.9761 33.3723 31.9639 33.3727C31.2778 33.3892 30.75 33.8667 30.75 34.4258V51.3008C30.75 51.307 30.751 51.3131 30.751 51.3193C30.7632 51.9015 31.3296 52.3555 32 52.3555H54.5C55.1738 52.3555 55.7368 51.8998 55.749 51.3193C55.749 51.3131 55.75 51.307 55.75 51.3008V34.4258C55.75 33.8498 55.1934 33.3711 54.5 33.3711ZM51.2124 35.4805L43.25 41.4522L35.2876 35.4805H51.2124ZM33.25 36.7745L41.3687 42.8633L33.25 48.952V36.7745ZM35.2876 50.2461L43.25 44.2743L51.2124 50.2461H35.2876ZM53.25 48.952L45.1313 42.8633L53.25 36.7745V48.952Z" fill="#B0D3F0"/>
</svg>
