<svg width="64" height="64" viewBox="0 0 64 64" fill="none" xmlns="http://www.w3.org/2000/svg">
<g clip-path="url(#clip0_2619_194)">
<path d="M58.5188 43.0476H19.6186C19.0275 43.0476 18.5483 42.5684 18.5483 41.9773C18.5483 41.3863 19.0275 40.9071 19.6186 40.9071H57.4485V3.10047H5.71863V40.9069H11.1519C11.7429 40.9069 12.2221 41.3861 12.2221 41.9771C12.2221 42.5682 11.7429 43.0474 11.1519 43.0474H4.64838C4.05732 43.0474 3.57812 42.5682 3.57812 41.9771V2.03021C3.57812 1.43915 4.05732 0.959961 4.64838 0.959961H58.519C59.11 0.959961 59.5892 1.43915 59.5892 2.03021V41.9773C59.5892 42.5684 59.1098 43.0476 58.5188 43.0476Z" fill="#0284C7"/>
<path d="M15.3294 24.4679C12.4345 24.4679 10.0796 22.113 10.0796 19.2181C10.0796 16.3232 12.4345 13.9678 15.3294 13.9678C18.2242 13.9678 20.5795 16.3232 20.5795 19.2181C20.5795 22.113 18.224 24.4679 15.3294 24.4679ZM15.3294 16.1085C13.6152 16.1085 12.2203 17.5034 12.2203 19.2181C12.2203 20.9323 13.6152 22.3272 15.3294 22.3272C17.0441 22.3272 18.439 20.9323 18.439 19.2181C18.4388 17.5034 17.0439 16.1085 15.3294 16.1085Z" fill="#0284C7"/>
<path d="M11.1518 50.102C10.5607 50.102 10.0815 49.6228 10.0815 49.0317V38.2933C9.83163 38.3629 9.56881 38.4 9.29701 38.4C7.67797 38.4 6.36084 37.0876 6.36084 35.4748V29.8994C6.36084 28.6331 6.85738 27.4314 7.75833 26.5163C8.67922 25.61 9.88029 25.1178 11.1527 25.1178H19.496C19.577 25.0969 19.6617 25.0859 19.7489 25.0859H20.2229C22.3353 25.0859 24.0538 26.8043 24.0538 28.9169V35.3228C24.0538 36.8051 22.8482 38.0107 21.3659 38.0107C21.149 38.0107 20.9374 37.9846 20.7352 37.936L20.6133 48.9023C20.6065 49.4892 20.1288 49.9606 19.5431 49.9606C19.5395 49.9606 19.5353 49.9606 19.5311 49.9606C18.94 49.9538 18.4664 49.4692 18.4728 48.8782L18.6788 30.4575C18.6856 29.8707 19.1634 29.3993 19.7491 29.3993H19.7553C20.3437 29.4024 20.8193 29.8806 20.8193 30.4695V35.3226C20.8193 35.6241 21.0644 35.8698 21.3659 35.8698C21.6674 35.8698 21.9131 35.6241 21.9131 35.3226V28.9167C21.9131 27.9691 21.1705 27.2264 20.2229 27.2264H20.0017C19.9208 27.2474 19.836 27.2584 19.7489 27.2584H11.1527C10.4456 27.2584 9.77719 27.5321 9.27128 28.0303C8.77893 28.5304 8.50154 29.1984 8.50154 29.8992V35.4746C8.50154 35.8999 8.86587 36.2591 9.29701 36.2591C9.72235 36.2591 10.0815 35.8999 10.0815 35.4746C10.0815 34.8835 10.5607 34.4043 11.1518 34.4043C11.7428 34.4043 12.222 34.8835 12.222 35.4746V49.0315C12.2222 49.6226 11.7428 50.102 11.1518 50.102Z" fill="#0284C7"/>
<path d="M11.1498 36.5415C10.5588 36.5415 10.0796 36.0623 10.0796 35.4712V30.4702C10.0796 29.8791 10.5588 29.3999 11.1498 29.3999C11.7409 29.3999 12.2201 29.8791 12.2201 30.4702V35.4712C12.2201 36.0621 11.7409 36.5415 11.1498 36.5415Z" fill="#0284C7"/>
<path d="M19.1429 50.954H11.4326C10.8415 50.954 10.3623 50.4752 10.3623 49.8837C10.3623 49.2927 10.8415 48.8135 11.4326 48.8135H19.1429C19.7339 48.8135 20.2131 49.2927 20.2131 49.8837C20.2131 50.4752 19.7339 50.954 19.1429 50.954Z" fill="#0284C7"/>
<path d="M15.433 49.875C14.842 49.875 14.3628 49.3958 14.3628 48.8047V41.2553C14.3628 40.6642 14.842 40.1851 15.433 40.1851C16.0241 40.1851 16.5033 40.6642 16.5033 41.2553V48.8047C16.5035 49.3958 16.0241 49.875 15.433 49.875Z" fill="#0284C7"/>
<path d="M23.3505 56.4358C22.0591 56.4358 20.809 55.9748 19.8301 55.1376C18.6177 54.1071 17.9209 52.5997 17.9209 51.0068C17.9209 48.0126 20.3563 45.5771 23.3505 45.5771C26.3447 45.5771 28.7806 48.0126 28.7806 51.0068C28.7806 52.5997 28.0838 54.1061 26.8688 55.1398C25.8927 55.975 24.6419 56.4358 23.3505 56.4358ZM23.3505 47.7179C21.5371 47.7179 20.0616 49.1933 20.0616 51.0068C20.0616 51.9715 20.4834 52.8831 21.2192 53.5092C22.4067 54.5252 24.2975 54.523 25.4797 53.5112C26.2177 52.8831 26.6399 51.9705 26.6399 51.0068C26.6401 49.1933 25.1646 47.7179 23.3505 47.7179Z" fill="#0284C7"/>
<path d="M30.5245 63.0401H28.3838V58.9238C28.3838 57.4886 27.5747 56.1915 26.324 55.5487C24.568 56.7006 22.1335 56.7006 20.3775 55.5487C19.1268 56.1917 18.3178 57.4888 18.3178 58.9238V63.0401H16.1772V58.9238C16.1772 56.3933 17.7843 54.1387 20.1769 53.3129C20.5348 53.1875 20.9327 53.2659 21.2216 53.5115C22.4049 54.5234 24.2968 54.5234 25.4801 53.5115C25.7674 53.2659 26.1669 53.1875 26.5248 53.3129C28.9174 54.1387 30.5245 56.3933 30.5245 58.9238V63.0401Z" fill="#0284C7"/>
<path d="M7.1734 56.2195C5.88199 56.2195 4.63187 55.7585 3.65295 54.9213C2.43992 53.8896 1.74316 52.3834 1.74316 50.7905C1.74316 47.7963 4.1792 45.3608 7.1732 45.3608C10.1674 45.3618 12.6028 47.7979 12.6028 50.7905C12.6028 52.3834 11.9061 53.8898 10.6911 54.9235C9.71512 55.7587 8.465 56.2195 7.1734 56.2195ZM7.173 47.5015C5.35953 47.5015 3.88407 48.977 3.88407 50.7905C3.88407 51.7542 4.30643 52.6668 5.04226 53.2929C6.22917 54.3079 8.11901 54.3067 9.30214 53.2949C10.0402 52.6668 10.4623 51.7542 10.4623 50.7905C10.4623 48.978 8.98706 47.5025 7.173 47.5015Z" fill="#0284C7"/>
<path d="M14.3466 62.8247H12.2059V58.7084C12.2059 57.2732 11.3969 55.9772 10.1462 55.3333C8.38953 56.4851 5.95569 56.4851 4.20025 55.3333C2.94953 55.9772 2.14051 57.2744 2.14051 58.7084V62.8247H0V58.7084C0 56.1788 1.60707 53.9242 3.99924 53.0975C4.35519 52.971 4.75502 53.0484 5.04457 53.2961C6.22629 54.3069 8.11813 54.3079 9.30244 53.2961C9.5904 53.0484 9.98823 52.971 10.3478 53.0975C12.7399 53.9242 14.347 56.1788 14.347 58.7084V62.8247H14.3466Z" fill="#0284C7"/>
<path d="M40.6069 56.2195C39.3155 56.2195 38.0654 55.7585 37.0864 54.9213C35.874 53.8908 35.1772 52.3834 35.1772 50.7905C35.1772 47.7963 37.6127 45.3608 40.6069 45.3608C43.6011 45.3618 46.0369 47.7979 46.0369 50.7905C46.0369 52.3834 45.3402 53.8898 44.1251 54.9235C43.1488 55.7587 41.8983 56.2195 40.6069 56.2195ZM40.6063 47.5015C38.7932 47.5015 37.318 48.977 37.318 50.7905C37.318 51.7552 37.7397 52.6668 38.4755 53.2929C39.6631 54.3089 41.5539 54.3067 42.736 53.2949C43.474 52.6668 43.8962 51.7542 43.8962 50.7905C43.8962 48.978 42.4203 47.5025 40.6063 47.5015Z" fill="#0284C7"/>
<path d="M47.7805 62.8247H45.6398V58.7084C45.6398 57.2742 44.8308 55.9772 43.5801 55.3333C41.824 56.4851 39.3896 56.4851 37.6336 55.3333C36.3828 55.9772 35.5738 57.2744 35.5738 58.7084V62.8247H33.4331V58.7084C33.4331 56.1788 35.0402 53.9242 37.4323 53.0975C37.7893 52.971 38.1885 53.0484 38.4777 53.2961C39.6598 54.3079 41.5528 54.3079 42.7361 53.2961C43.0247 53.0484 43.4223 52.971 43.7815 53.0975C46.1736 53.9242 47.7807 56.1788 47.7807 58.7084L47.7805 62.8247Z" fill="#0284C7"/>
<path d="M56.8266 56.2195C55.5358 56.2195 54.2857 55.7585 53.3068 54.9213C52.0937 53.8896 51.397 52.3834 51.397 50.7905C51.397 47.7963 53.8324 45.3608 56.8266 45.3608C59.8208 45.3618 62.2566 47.7979 62.2566 50.7905C62.2566 52.3834 61.5599 53.8898 60.3449 54.9235C59.3687 55.7587 58.118 56.2195 56.8266 56.2195ZM56.826 47.5015C55.0129 47.5015 53.5377 48.977 53.5377 50.7905C53.5377 51.7542 53.96 52.6668 54.6959 53.2929C55.8832 54.3089 57.7736 54.3057 58.9557 53.2949C59.6938 52.6668 60.1159 51.7542 60.1159 50.7905C60.1159 48.978 58.6401 47.5025 56.826 47.5015Z" fill="#0284C7"/>
<path d="M64.0001 62.8247H61.8594V58.7084C61.8594 57.2732 61.0504 55.9772 59.7997 55.3333C58.0436 56.4851 55.6098 56.4851 53.8538 55.3333C52.603 55.9772 51.794 57.2744 51.794 58.7084V62.8247H49.6533V58.7084C49.6533 56.1788 51.2604 53.9242 53.6526 53.0975C54.0095 52.971 54.4087 53.0484 54.6979 53.2961C55.88 54.3079 57.7724 54.3069 58.9558 53.2961C59.2437 53.0484 59.6409 52.971 60.0011 53.0975C62.3933 53.9242 64.0003 56.1788 64.0003 58.7084L64.0001 62.8247Z" fill="#0284C7"/>
<path d="M23.0103 21.3458C22.4512 21.3458 21.9807 20.9121 21.9431 20.3459L21.1596 8.50895C21.1209 7.91948 21.5672 7.40938 22.1572 7.3701L25.6787 7.13698C26.2761 7.0973 26.7778 7.54458 26.8169 8.13425L26.8895 9.21866L30.6237 8.97199L30.5515 7.88698C30.5332 7.60381 30.6279 7.32463 30.815 7.11086C31.002 6.89769 31.266 6.76687 31.5492 6.74813L35.0707 6.51601C35.6633 6.47313 36.1702 6.92361 36.2095 7.51367L36.993 19.3507C37.0113 19.6338 36.9166 19.913 36.7302 20.1262C36.5431 20.34 36.2787 20.4706 35.9953 20.4893L23.0817 21.3432C23.0578 21.3452 23.0339 21.3458 23.0103 21.3458ZM23.3667 9.43542L24.0084 19.1365L34.7861 18.4242L34.1444 8.72272L32.7589 8.81425L32.8304 9.89866C32.8691 10.4887 32.4228 10.9982 31.8328 11.0375L25.963 11.4258C25.3704 11.4571 24.8639 11.0182 24.8248 10.4285L24.7522 9.34409L23.3667 9.43542Z" fill="#0284C7"/>
<path d="M25.8899 11.4285C25.3312 11.4285 24.8603 10.9947 24.8227 10.4286L24.5379 6.12467C24.5195 5.8415 24.6143 5.56232 24.8007 5.34915C24.9878 5.13538 25.2522 5.00476 25.5356 4.98602L31.4053 4.59776C31.9948 4.56166 32.5049 5.00536 32.5441 5.59542L32.8289 9.89937C32.8473 10.1825 32.7525 10.4617 32.5661 10.6749C32.379 10.8887 32.1146 11.0193 31.8312 11.038L25.9615 11.4263C25.9374 11.4279 25.9134 11.4285 25.8899 11.4285ZM26.7448 7.05134L26.888 9.21917L30.6216 8.97249L30.4784 6.80467L26.7448 7.05134Z" fill="#0284C7"/>
<path d="M51.7605 25.0696C51.6795 25.0696 51.5969 25.0606 51.5148 25.0413L38.9146 22.0832C38.6382 22.0184 38.3987 21.8459 38.2494 21.605C38.0998 21.3635 38.0524 21.073 38.1172 20.7966L40.8296 9.24754C40.965 8.67163 41.5383 8.31309 42.1162 8.45009L45.5531 9.25592C45.8295 9.32073 46.069 9.49262 46.2184 9.73411C46.3677 9.9756 46.4154 10.2661 46.3506 10.5425L46.1017 11.6008L49.7444 12.4563L49.9927 11.3984C50.1281 10.8229 50.705 10.4656 51.2793 10.601L54.715 11.408C55.2905 11.5434 55.6474 12.1193 55.5124 12.6946L52.801 24.2436C52.6855 24.7372 52.246 25.0696 51.7605 25.0696ZM40.4461 20.2436L50.962 22.7125L53.1843 13.2478L51.8322 12.9301L51.584 13.988C51.4486 14.5639 50.8701 14.9215 50.2974 14.7855L44.571 13.4402C44.2946 13.3748 44.0551 13.2029 43.9058 12.962C43.7562 12.7205 43.7087 12.4294 43.7735 12.1536L44.0224 11.0957L42.6698 10.7784L40.4461 20.2436Z" fill="#0284C7"/>
<path d="M50.5416 14.8137C50.46 14.8137 50.3775 14.8044 50.2969 14.7854L44.5701 13.4404C43.9946 13.305 43.6377 12.7291 43.7727 12.1537L44.7588 7.9549C44.8942 7.37939 45.4711 7.02244 46.0454 7.15744L51.7718 8.50209C52.3473 8.63749 52.7042 9.2134 52.5692 9.7887L51.5835 13.988C51.5187 14.2643 51.3468 14.5038 51.1053 14.6532C50.9346 14.7589 50.7392 14.8137 50.5416 14.8137ZM46.1014 11.6012L49.7441 12.4567L50.2407 10.3417L46.598 9.48619L46.1014 11.6012Z" fill="#0284C7"/>
<path d="M40.6729 39.5364C40.6661 39.5364 40.6587 39.5364 40.652 39.5364L27.7128 39.283C27.1217 39.271 26.6519 38.7829 26.6633 38.1918L26.8942 26.3313C26.9058 25.7402 27.4017 25.2782 27.9854 25.2818L31.5142 25.3502C32.1053 25.3617 32.5751 25.8503 32.5637 26.4413L32.5424 27.528L36.284 27.6017L36.3049 26.5151C36.3107 26.2314 36.4288 25.9618 36.6332 25.7645C36.8376 25.5681 37.0852 25.4556 37.3961 25.4656L40.925 25.534C41.2087 25.5398 41.4783 25.6579 41.6755 25.8623C41.8726 26.067 41.9796 26.3414 41.9745 26.6252L41.7433 38.4869C41.7376 38.7707 41.6195 39.0409 41.4151 39.2375C41.2155 39.4294 40.9495 39.5364 40.6729 39.5364ZM28.8245 37.1638L39.6236 37.375L39.8132 27.6542L38.4245 27.6271L38.4036 28.7141C38.3978 28.9978 38.2797 29.268 38.0753 29.4647C37.8709 29.6611 37.5862 29.749 37.3124 29.7636L31.4307 29.6475C30.8396 29.6356 30.3698 29.1474 30.3812 28.5563L30.4025 27.4703L29.0138 27.4432L28.8245 37.1638Z" fill="#0284C7"/>
<path d="M37.3325 29.7612C37.3251 29.7612 37.3183 29.7612 37.3112 29.7612L31.4301 29.6468C31.1463 29.641 30.8761 29.5229 30.6795 29.3185C30.4825 29.1137 30.3754 28.8394 30.3806 28.5556L30.4647 24.2429C30.4763 23.6522 30.9754 23.2185 31.5559 23.1934L37.437 23.3078C37.7208 23.3136 37.991 23.4317 38.1876 23.6361C38.3846 23.8409 38.4917 24.1152 38.4865 24.399L38.4024 28.7117C38.3908 29.2956 37.9136 29.7612 37.3325 29.7612ZM32.5422 27.527L36.2826 27.6002L36.3249 25.4276L32.5845 25.3544L32.5422 27.527Z" fill="#0284C7"/>
<path d="M44.5518 28.3213H55.3378V30.462H44.5518V28.3213Z" fill="#0284C7"/>
<path d="M44.5518 31.5566H52.1022V33.6973H44.5518V31.5566Z" fill="#0284C7"/>
<path d="M44.5518 34.7925H55.3378V36.9332H44.5518V34.7925Z" fill="#0284C7"/>
</g>
<defs>
<clipPath id="clip0_2619_194">
<rect width="64" height="64" fill="white"/>
</clipPath>
</defs>
</svg>
