<svg width="139" height="34" viewBox="0 0 139 34" fill="none" xmlns="http://www.w3.org/2000/svg">
<g clip-path="url(#clip0_2593_16)">
<mask id="mask0_2593_16" style="mask-type:luminance" maskUnits="userSpaceOnUse" x="0" y="0" width="139" height="34">
<path d="M139 0H0V34H139V0Z" fill="white"/>
</mask>
<g mask="url(#mask0_2593_16)">
<path fill-rule="evenodd" clip-rule="evenodd" d="M17 0C26.4698 0 34 7.46333 34 16.8522C34 18.3823 33.7069 20.1043 33.2672 22.0261C30.3362 18.6261 26.5259 18.9217 23.8879 19.9565C24.3276 18.7739 24.4741 18.1826 24.4741 17C24.4741 13.1565 21.25 9.31304 17 9.31304C12.6634 9.31304 9.23276 12.7882 9.23276 17C9.23276 21.2118 12.4569 24.687 17 24.6372C18.9944 24.6372 22.2759 22.7652 22.2759 22.7652C22.2759 22.7652 24.6207 21.4114 27.5517 21.8783C30.4828 22.3451 32.282 24.7267 32.2414 24.687C35.0259 27.9391 34.422 34.7452 30.9972 31.9955C30.6411 31.7096 30.2667 31.4681 29.874 31.271C29.8115 31.2552 29.7401 31.2311 29.6596 31.1992C28.5913 30.7755 27.0734 30.9873 25.106 31.8347L25.1176 31.83C22.7012 33.1201 19.9368 34 17 34C7.53022 34 0 26.241 0 16.8522C0 7.46333 7.53022 0 17 0Z" fill="black"/>
<path d="M63.7007 29.5L66.9906 25.7951L64.4983 23.7591C65.894 21.7564 66.8577 19.42 66.8577 16.683C66.8577 9.84048 61.6071 4.5 54.4289 4.5C47.2507 4.5 42 9.84048 42 16.683C42 23.6923 47.2507 29.1663 54.4289 29.1663C57.021 29.1663 59.3472 28.4653 61.2748 27.197L63.7007 29.5ZM54.4289 23.8258C50.873 23.8258 48.0151 20.7551 48.0151 16.683C48.0151 12.7777 50.873 9.84048 54.4289 9.84048C57.9847 9.84048 60.8427 12.7777 60.8427 16.683C60.8427 17.7844 60.6101 18.8191 60.2113 19.7537L57.8518 17.4506L54.595 21.1556L57.021 23.2918C56.2899 23.659 55.2929 23.8258 54.4289 23.8258ZM72.7842 29.1663C76.3733 29.1663 77.6361 26.6629 77.6361 26.6629H77.7026C77.7026 26.6629 77.6409 27.1272 77.6364 27.6682L77.6361 28.7657H82.8867V18.1849C82.8867 13.8124 79.9956 11.1756 75.1769 11.1756C70.9564 11.1756 67.9987 13.4119 67.9987 13.4119L69.9926 17.4839C69.9926 17.4839 72.4519 15.8485 74.6119 15.8485C76.0409 15.8485 77.1376 16.3158 77.1376 17.751V18.0514H76.905C74.2463 18.0514 66.9685 18.6189 66.9685 23.6255C66.9685 27.0301 69.5938 29.1663 72.7842 29.1663ZM74.3793 24.7603C73.2495 24.7603 72.751 24.1262 72.751 23.3251C72.751 21.8899 74.8445 21.3559 76.6724 21.3559H77.2041V21.7229C77.2041 23.1248 75.8748 24.7603 74.3793 24.7603ZM92.4688 28.8325V23.8258C92.4688 23.8258 92.1364 23.8592 91.7709 23.8592C90.4748 23.8592 90.1758 23.2918 90.1758 21.6563V4.90054H84.4266V22.4239C84.4266 28.1406 87.6185 28.9174 90.6489 28.9326H90.7406C91.6712 28.9326 92.4688 28.8325 92.4688 28.8325ZM103.28 29.1663C107.833 29.1663 111.256 25.6282 111.256 20.1876C111.256 14.8471 108.198 11.1756 103.546 11.1756C100.522 11.1756 98.9269 13.0113 98.9269 13.0113H98.8601C98.8601 13.0113 98.9269 12.4105 98.9269 11.5428V4.90054H93.1778V28.7657H98.5615V28.1983C98.5615 27.6642 98.5281 27.2304 98.5281 27.2304H98.5949C98.5949 27.2304 100.123 29.1663 103.28 29.1663ZM102.117 24.3932C99.8571 24.3932 98.7609 22.3572 98.7609 20.2877C98.7609 17.3171 100.39 16.0487 102.117 16.0487C104.111 16.0487 105.474 17.7177 105.474 20.2877C105.474 22.9246 103.912 24.3932 102.117 24.3932ZM116.484 28.7657V5.20093H113.195V28.7657H116.484ZM128.957 28.7657V8.07143H137V5.20093H117.625V8.07143H125.668V28.7657H128.957Z" fill="black"/>
</g>
</g>
<defs>
<clipPath id="clip0_2593_16">
<rect width="139" height="34" fill="white"/>
</clipPath>
</defs>
</svg>
