<svg width="512" height="512" viewBox="0 0 512 512" fill="none" xmlns="http://www.w3.org/2000/svg">
<path fill-rule="evenodd" clip-rule="evenodd" d="M256 60C365.181 60 452 146.048 452 254.296C452 271.937 448.621 291.791 443.552 313.948C409.759 274.748 365.828 278.157 335.414 290.087C340.483 276.452 342.172 269.635 342.172 256C342.172 211.687 305 167.374 256 167.374C206.001 167.374 166.448 207.44 166.448 256C166.448 304.56 203.621 344.626 256 344.053C278.995 344.053 316.828 322.47 316.828 322.47C316.828 322.47 343.862 306.861 377.655 312.244C411.448 317.626 432.192 345.084 431.724 344.626C463.828 382.122 456.866 460.591 417.379 428.889C413.273 425.593 408.957 422.808 404.43 420.537C403.709 420.354 402.886 420.076 401.958 419.708C389.641 414.823 372.14 417.266 349.457 427.035L349.591 426.981C321.732 441.856 289.86 452 256 452C146.819 452 60 362.543 60 254.296C60 146.048 146.819 60 256 60Z" fill="#0065FF"/>
</svg>
