<svg width="64" height="64" viewBox="0 0 64 64" fill="none" xmlns="http://www.w3.org/2000/svg">
<g clip-path="url(#clip0_2618_13)">
<path d="M58.3681 33.8786C56.8128 33.8786 55.3126 34.5315 54.2521 35.6699L52.7438 37.2891C52.7438 35.978 52.7438 27.126 52.7438 25.9312C54.9564 26.7144 57.4816 26.0574 59.0095 24.1436C60.9517 21.7179 60.5621 18.18 58.1314 16.2386L52.7438 11.9286V1.88236C52.7438 0.846984 51.9044 0.00760934 50.869 0.00760934H43.37C42.3346 0.00760934 41.4953 0.846984 41.4953 1.88236V2.92973L39.383 1.23998C37.3151 -0.413391 34.4264 -0.413391 32.3579 1.24036L13.6112 16.2376C11.1781 18.1807 10.791 21.7194 12.7305 24.1417C14.2965 26.1025 16.8546 26.6945 18.9977 25.935V33.6699C17.6775 34.061 16.408 34.6632 15.2413 35.477C15.0966 32.5036 12.6325 30.129 9.62388 30.129H1.87475C0.839375 30.129 0 30.9684 0 32.0037V62.1252C0 63.1606 0.839375 64 1.87475 64H9.62388C12.0784 64 14.1694 62.419 14.9353 60.2222C15.0373 60.2395 15.1414 60.2505 15.2483 60.2505H43.37C47.42 60.2505 51.3449 58.2414 53.8688 54.8761L62.8696 42.8754C63.6043 41.8959 63.9926 40.7296 63.9926 39.5029C63.9925 36.4016 61.4695 33.8786 58.3681 33.8786ZM11.4986 58.3757C11.4986 59.4095 10.6576 60.2505 9.62388 60.2505H3.74962V33.8786H9.624C10.6578 33.8786 11.4987 34.7196 11.4987 35.7534L11.4986 58.3757ZM45.2448 3.75711H48.9944V8.92898L45.2448 5.92936V3.75711ZM18.2931 22.0941C17.4876 22.7387 16.3083 22.6131 15.6589 21.8C15.0145 20.9952 15.1379 19.8172 15.9525 19.1665L34.6999 4.16861C35.3894 3.61723 36.3524 3.61748 37.0414 4.16823L55.7904 19.1675C56.5961 19.811 56.7334 20.9871 56.0811 21.8021C55.4367 22.6091 54.2579 22.7422 53.4481 22.0937L37.0419 8.97023C36.6995 8.69636 36.2851 8.55936 35.8708 8.55936C35.4564 8.55936 35.042 8.69636 34.6996 8.97023C34.0089 9.52273 18.9855 21.5401 18.2931 22.0941ZM39.6204 26.3794H32.1213C31.0859 26.3794 30.2465 27.2187 30.2465 28.2541V35.472C28.0014 33.9085 25.3753 33.1236 22.7474 33.1236V23.3324L35.8709 12.8349L48.9944 23.3325C48.9944 23.523 48.9944 38.9804 48.9944 39.1377V41.3142L48.742 41.585C48.0299 39.2952 45.8911 37.628 43.37 37.628H41.4953V28.2541C41.4951 27.2187 40.6558 26.3794 39.6204 26.3794ZM37.7456 30.129V37.6281H33.996V30.129H37.7456ZM59.8698 40.6256L50.869 52.6264C49.0494 55.0525 46.246 56.5009 43.3699 56.5009H15.2483V40.3505L16.5548 39.2007C20.0851 36.094 25.4099 36.094 28.94 39.2007C29.6031 39.7842 29.8881 40.046 30.162 40.2529C30.2815 40.3431 31.4589 41.3776 32.1213 41.3776C32.3005 41.3776 43.3699 41.3776 43.3699 41.3776C44.4036 41.3776 45.2446 42.2186 45.2446 43.2524C45.2446 44.2861 44.4036 45.1271 43.3699 45.1271C42.1704 45.1271 28.6758 45.1271 28.3716 45.1271C27.3363 45.1271 26.4969 45.9665 26.4969 47.0019C26.4969 48.0372 27.3363 48.8766 28.3716 48.8766C30.5461 48.8766 42.9049 48.8766 44.6265 48.8766C46.1819 48.8766 47.6818 48.224 48.742 47.0859L56.9958 38.2254C57.3548 37.84 57.842 37.628 58.3681 37.628C59.4019 37.628 60.2429 38.469 60.2429 39.5027C60.243 39.912 60.114 40.3002 59.8698 40.6256Z" fill="#0284C7"/>
</g>
<defs>
<clipPath id="clip0_2618_13">
<rect width="63.9926" height="64" fill="white"/>
</clipPath>
</defs>
</svg>
