<svg width="64" height="64" viewBox="0 0 64 64" fill="none" xmlns="http://www.w3.org/2000/svg">
<path d="M52.0802 48.64C51.2802 47.88 50.0002 47.94 49.2602 48.74C48.5002 49.54 48.5602 50.82 49.3602 51.56L54.5202 56.36C54.9002 56.72 55.4002 56.9 55.8802 56.9C56.4202 56.9 56.9402 56.68 57.3402 56.26C58.1002 55.46 58.0402 54.18 57.2402 53.44L52.0802 48.64Z" fill="#0284C7"/>
<path d="M11.9201 15.36C12.3001 15.72 12.8001 15.9 13.2801 15.9C13.8201 15.9 14.3401 15.68 14.7401 15.26C15.5001 14.46 15.4401 13.18 14.6401 12.44L9.48007 7.64002C8.68007 6.90002 7.40007 6.94002 6.66007 7.74002C5.90007 8.54002 5.96007 9.82002 6.76007 10.56L11.9201 15.36Z" fill="#0284C7"/>
<path d="M53.76 32.555L60.48 25.835C61.46 24.855 61.98 23.575 61.98 22.195C61.98 20.815 61.44 19.535 60.48 18.555L45.38 3.455C43.44 1.515 40.06 1.515 38.12 3.455L31.4 10.175C29.4 12.175 29.4 15.435 31.4 17.435L34.74 20.775L20.82 34.695L17.48 31.355C15.48 29.355 12.22 29.355 10.22 31.355L3.5 38.075C1.5 40.075 1.5 43.335 3.5 45.335L18.6 60.435C19.58 61.415 20.86 61.935 22.24 61.935C23.62 61.935 24.9 61.395 25.88 60.435L32.6 53.715C33.58 52.755 34.1 51.455 34.1 50.075C34.1 48.695 33.56 47.415 32.6 46.435L29.26 43.095L43.18 29.175L46.52 32.515C47.52 33.515 48.84 34.015 50.16 34.015C51.48 34.015 52.8 33.515 53.8 32.515L53.76 32.555ZM40.94 6.295C41.16 6.075 41.44 5.955 41.74 5.955C42.04 5.955 42.32 6.075 42.54 6.295L57.64 21.395C57.86 21.615 57.98 21.895 57.98 22.195C57.98 22.495 57.86 22.775 57.64 22.995L55.7 24.935L39 8.235L40.94 6.295ZM23.02 57.635C22.58 58.055 21.84 58.055 21.4 57.635L6.3 42.535C5.86 42.095 5.86 41.375 6.3 40.915L8.24 38.975L24.94 55.675L23 57.615L23.02 57.635ZM29.74 49.295C29.96 49.515 30.08 49.795 30.08 50.095C30.08 50.395 29.96 50.675 29.74 50.895L27.8 52.835L11.1 36.135L13.04 34.195C13.26 33.975 13.56 33.855 13.84 33.855C14.12 33.855 14.42 33.975 14.64 34.195L29.74 49.295ZM26.4 40.295L23.64 37.535L37.56 23.615L40.32 26.375L26.4 40.295ZM34.22 14.635C33.78 14.195 33.78 13.475 34.22 13.015L36.16 11.075L52.86 27.775L50.92 29.715C50.48 30.155 49.76 30.155 49.3 29.715L34.2 14.615L34.22 14.635Z" fill="#0284C7"/>
</svg>
