<svg width="64" height="64" viewBox="0 0 64 64" fill="none" xmlns="http://www.w3.org/2000/svg">
<path fill-rule="evenodd" clip-rule="evenodd" d="M47.0412 61.7412C47.0412 62.3112 46.5775 62.7762 46.0062 62.7762H17.99C17.4225 62.7762 16.9587 62.3125 16.9587 61.7412C16.9587 61.1737 17.4225 60.71 17.99 60.71H22.8587L24.0987 52.3862H39.9025L41.1425 60.71H46.0075C46.5775 60.71 47.0412 61.1737 47.0412 61.7412ZM64 5.24248V41.1612V43.8362V47.3375C64 48.9812 62.6575 50.325 61.0125 50.325H2.98375C1.34375 50.3237 0 48.9812 0 47.3375V43.8362V41.1612V5.24248C0 4.13748 0.45 3.13123 1.18 2.40373C1.90625 1.67873 2.9125 1.22498 4.01875 1.22498H59.9813C61.0863 1.22498 62.0925 1.67873 62.82 2.40498C63.55 3.13123 64 4.13748 64 5.24248ZM61.9338 5.24248C61.9338 4.70748 61.7138 4.21873 61.36 3.86373C61.0063 3.50998 60.5163 3.28998 59.9813 3.28998H4.01875C3.48 3.28998 2.995 3.50998 2.64 3.86373C2.28625 4.21748 2.0625 4.70748 2.0625 5.24248V41.1612H61.9338V5.24248ZM19.265 17.2687H15.8525C15.4987 17.2687 15.2075 17.5587 15.2075 17.9175V35.8112C15.2075 36.165 15.4975 36.4562 15.8525 36.4562H19.265C19.6187 36.4562 19.91 36.1662 19.91 35.8112V17.9175C19.91 17.5587 19.62 17.2687 19.265 17.2687ZM10.0638 25.8612H6.65125C6.2975 25.8612 6.00625 26.1512 6.00625 26.5062V35.8112C6.00625 36.165 6.29625 36.4562 6.65125 36.4562H10.0638C10.4175 36.4562 10.7087 36.1662 10.7087 35.8112V26.5062C10.7087 26.1512 10.4175 25.8612 10.0638 25.8612ZM28.4675 22.7787H25.055C24.7013 22.7787 24.41 23.0687 24.41 23.4237V35.8112C24.41 36.165 24.7 36.4562 25.055 36.4562H28.4675C28.8213 36.4562 29.1125 36.1662 29.1125 35.8112V23.4237C29.1125 23.0687 28.8213 22.7787 28.4675 22.7787ZM50.8325 7.02873V14.1225H57.9263C57.4625 10.4225 54.5325 7.49248 50.8325 7.02873ZM49.8013 23.345C53.975 23.345 57.42 20.2237 57.9263 16.1875H49.8013C49.2313 16.1875 48.77 15.7237 48.77 15.1525V7.02748C44.7338 7.53373 41.6125 10.9787 41.6125 15.1525C41.6125 19.6787 45.2763 23.345 49.8013 23.345ZM57.9938 35.4212H42.5125C41.9425 35.4212 41.4775 35.885 41.4775 36.4562C41.4775 37.0275 41.9413 37.4875 42.5125 37.4875H57.9938C58.5638 37.4875 59.025 37.0262 59.025 36.4562C59.025 35.8862 58.5638 35.4212 57.9938 35.4212ZM39.4625 35.4212H38.895C38.325 35.4212 37.8638 35.885 37.8638 36.4562C37.8638 37.0275 38.325 37.4875 38.895 37.4875H39.4625C40.0325 37.4875 40.4975 37.0262 40.4975 36.4562C40.4975 35.8862 40.0325 35.4212 39.4625 35.4212ZM57.9938 31.6787H42.5125C41.9425 31.6787 41.4775 32.14 41.4775 32.71C41.4775 33.28 41.9413 33.7412 42.5125 33.7412H57.9938C58.5638 33.7412 59.025 33.2812 59.025 32.71C59.025 32.14 58.5638 31.6787 57.9938 31.6787ZM39.4625 31.6787H38.895C38.325 31.6787 37.8638 32.14 37.8638 32.71C37.8638 33.28 38.325 33.7412 38.895 33.7412H39.4625C40.0325 33.7412 40.4975 33.2812 40.4975 32.71C40.4963 32.14 40.0325 31.6787 39.4625 31.6787ZM57.9938 27.9337H42.5125C41.9425 27.9337 41.4775 28.3975 41.4775 28.9687C41.4775 29.5362 41.9413 30 42.5125 30H57.9938C58.5638 30 59.025 29.5362 59.025 28.9687C59.025 28.3987 58.5638 27.9337 57.9938 27.9337ZM39.4625 27.9337H38.895C38.325 27.9337 37.8638 28.3975 37.8638 28.9687C37.8638 29.5362 38.325 30 38.895 30H39.4625C40.0325 30 40.4975 29.5362 40.4975 28.9687C40.4963 28.3987 40.0325 27.9337 39.4625 27.9337ZM26.76 12.475C26.285 12.475 25.8463 12.6137 25.4775 12.8575L25.2725 12.7337L20.1063 9.63998L19.9013 9.51998C19.9088 9.45248 19.9112 9.38497 19.9112 9.31497C19.9112 8.01872 18.8588 6.96623 17.5588 6.96623C16.2625 6.96623 15.21 8.01872 15.21 9.31497C15.21 9.55622 15.245 9.78623 15.3125 10.0062L15.1425 10.1662L9.3725 15.55L9.19875 15.71C8.93625 15.6112 8.6525 15.5575 8.35875 15.5575C7.05875 15.5575 6.00625 16.61 6.00625 17.9062C6.00625 19.2037 7.05875 20.255 8.35875 20.255C9.65625 20.255 10.7075 19.2025 10.7075 17.9062C10.7075 17.665 10.6725 17.435 10.605 17.215L10.775 17.055L16.5438 11.6725L16.7175 11.51C16.98 11.6087 17.2638 11.6662 17.5575 11.6662C18.0325 11.6662 18.475 11.525 18.8438 11.2837L19.0487 11.4037L24.215 14.5L24.4175 14.62C24.4137 14.6875 24.41 14.755 24.41 14.8225C24.41 16.1225 25.4625 17.175 26.7588 17.175C28.0588 17.175 29.1112 16.1225 29.1112 14.8225C29.1125 13.5275 28.06 12.475 26.76 12.475Z" fill="#0284C7"/>
</svg>
