<svg width="64" height="64" viewBox="0 0 64 64" fill="none" xmlns="http://www.w3.org/2000/svg">
<g clip-path="url(#clip0_2618_4)">
<path d="M30.6741 49.9954C31.4064 50.7278 32.5936 50.7277 33.3259 49.9956L41.91 41.4114C44.699 38.6224 44.699 34.0844 41.91 31.2953C39.1697 28.5551 34.7942 28.5128 32 31.0971C29.2037 28.5109 24.828 28.5573 22.09 31.2953C19.2944 34.0909 19.2941 38.6154 22.09 41.4113L30.6741 49.9954ZM24.7416 33.9469C26.0717 32.6169 28.2242 32.6168 29.5545 33.9469L30.6742 35.0667C31.4064 35.7989 32.5936 35.7989 33.3259 35.0667L34.4456 33.9469C35.7756 32.6169 37.9282 32.6168 39.2584 33.9469C40.5852 35.2738 40.5852 37.4329 39.2584 38.7598L32 46.0181L24.7416 38.7597C23.4116 37.4296 23.4115 35.2772 24.7416 33.9469Z" fill="#0284C7"/>
<path d="M36.1641 56.0674C33.4297 56.5619 30.5708 56.5619 27.8364 56.0674C26.8168 55.883 25.8419 56.5598 25.6577 57.5788C25.4734 58.5978 26.1501 59.5733 27.1691 59.7575C30.3028 60.3241 33.5906 60.3435 36.8314 59.7575C37.8504 59.5733 38.5271 58.5978 38.3428 57.5788C38.1586 56.5599 37.1833 55.8834 36.1641 56.0674Z" fill="#0284C7"/>
<path d="M6.93898 35.57C6.95523 35.57 6.97161 35.5698 6.98798 35.5693C8.02311 35.5428 8.84086 34.6821 8.81423 33.6468C8.64911 27.1726 11.4186 20.4021 16.8132 15.724C17.5956 15.0455 17.6799 13.8613 17.0014 13.079C16.3229 12.2966 15.1389 12.2125 14.3564 12.8908C8.12611 18.2938 4.86948 26.1361 5.06548 33.7431C5.09161 34.7618 5.92573 35.57 6.93898 35.57Z" fill="#0284C7"/>
<path d="M47.1867 15.724C52.5636 20.3868 55.3483 27.1414 55.1857 33.6476C55.1596 34.6829 55.9776 35.5433 57.0128 35.5694C57.0289 35.5698 57.0449 35.57 57.0611 35.57C58.0746 35.57 58.9088 34.7614 58.9346 33.7423C59.1274 26.1574 55.8939 18.3111 49.6436 12.8909C48.8613 12.2124 47.6771 12.2966 46.9986 13.079C46.3201 13.8614 46.4043 15.0456 47.1867 15.724Z" fill="#0284C7"/>
<path d="M16.5336 50.0631C17.5841 48.8425 18.2213 47.2565 18.2213 45.5236C18.2213 41.6803 15.0945 38.5537 11.2514 38.5537C7.40825 38.5537 4.2815 41.6805 4.2815 45.5236C4.2815 47.2565 4.91862 48.8425 5.96912 50.0631C2.42062 51.9581 0 55.6988 0 59.9948V62.125C0 63.1605 0.8395 64 1.875 64H20.6279C21.6634 64 22.5029 63.1605 22.5029 62.125V59.9948C22.5029 55.6988 20.0822 51.9581 16.5336 50.0631ZM8.0315 45.5236C8.0315 43.7481 9.476 42.3037 11.2514 42.3037C13.0268 42.3037 14.4712 43.7482 14.4712 45.5236C14.4712 47.299 13.0268 48.7435 11.2514 48.7435C9.476 48.7435 8.0315 47.2991 8.0315 45.5236ZM18.7529 60.25H3.75C3.75 55.5121 7.37188 52.4935 11.2514 52.4935C15.1384 52.4935 18.7529 55.518 18.7529 60.25Z" fill="#0284C7"/>
<path d="M58.0308 50.0631C59.0813 48.8425 59.7184 47.2565 59.7184 45.5236C59.7184 41.6803 56.5917 38.5537 52.7486 38.5537C48.9054 38.5537 45.7787 41.6805 45.7787 45.5236C45.7787 47.2565 46.4158 48.8425 47.4663 50.0631C43.9177 51.9581 41.4971 55.6988 41.4971 59.995V62.125C41.4971 63.1605 42.3366 64 43.3721 64H62.1249C63.1604 64 63.9999 63.1605 63.9999 62.125V59.9948C63.9999 55.6988 61.5793 51.9581 58.0308 50.0631ZM49.5286 45.5236C49.5286 43.7481 50.9731 42.3037 52.7484 42.3037C54.5238 42.3037 55.9683 43.7482 55.9683 45.5236C55.9683 47.299 54.5238 48.7435 52.7484 48.7435C50.9731 48.7435 49.5286 47.2991 49.5286 45.5236ZM60.2499 60.25H45.2471C45.2471 55.5107 48.8702 52.4935 52.7486 52.4935C56.6364 52.4935 60.2499 55.5192 60.2499 60.25Z" fill="#0284C7"/>
<path d="M22.6235 25.4503H41.376C42.4115 25.4503 43.251 24.6108 43.251 23.5753V21.4412C43.251 17.1452 40.8304 13.4045 37.2819 11.5096C38.3324 10.289 38.9697 8.703 38.9697 6.97C38.9697 3.12675 35.843 0 31.9998 0C28.1565 0 25.0299 3.12675 25.0299 6.96987C25.0299 8.70287 25.6672 10.2889 26.7177 11.5095C23.1692 13.4044 20.7485 17.1451 20.7485 21.4411V23.5751C20.7485 24.6107 21.588 25.4503 22.6235 25.4503ZM31.9998 3.75C33.7753 3.75 35.2197 5.1945 35.2197 6.96987C35.2197 8.74525 33.7753 10.1899 31.9998 10.1899C30.2243 10.1899 28.7799 8.74537 28.7799 6.97C28.7799 5.19462 30.2243 3.75 31.9998 3.75ZM24.4985 21.4412C24.4985 17.3051 27.8635 13.94 31.9998 13.94C36.136 13.94 39.501 17.305 39.501 21.4412V21.7003H24.4985V21.4412Z" fill="#0284C7"/>
</g>
<defs>
<clipPath id="clip0_2618_4">
<rect width="64" height="64" fill="white"/>
</clipPath>
</defs>
</svg>
