<svg width="65" height="64" viewBox="0 0 65 64" fill="none" xmlns="http://www.w3.org/2000/svg">
<g clip-path="url(#clip0_2593_11690)">
<path d="M23.3964 55.9748C23.3964 56.8376 22.6967 57.5373 21.8339 57.5373H19.3495C18.4866 57.5373 17.787 56.8376 17.787 55.9748C17.787 55.1119 18.4866 54.4123 19.3495 54.4123H21.8339C22.6967 54.4123 23.3964 55.1119 23.3964 55.9748ZM54.0407 31.5625C54.0407 40.0895 47.507 47.1182 39.1833 47.9076V57.3605C39.1833 60.5391 36.5972 63.125 33.4189 63.125H7.7645C4.58588 63.125 2 60.539 2 57.3605V5.7645C2 2.586 4.586 0 7.7645 0H33.4188C36.5973 0 39.1831 2.586 39.1831 5.7645V15.2174C47.5069 16.0067 54.0406 23.0355 54.0406 31.5625H54.0407ZM15.0114 3.125L15.8954 4.656H25.2882L26.1721 3.125H15.0114ZM36.0583 57.3605V47.9076C27.7345 47.1181 21.2009 40.0894 21.2009 31.5625C21.2009 23.0356 27.7345 16.0069 36.0583 15.2174V5.7645C36.0583 4.309 34.8741 3.125 33.4189 3.125H29.7805L27.5435 6.99975C27.2645 7.48313 26.7486 7.781 26.1904 7.781H14.9932C14.435 7.781 13.9193 7.48313 13.6401 6.99975L11.403 3.125H7.76463C6.30913 3.125 5.12512 4.30913 5.12512 5.7645V57.3605C5.12512 58.816 6.30925 60 7.76463 60H33.4189C34.8742 60 36.0583 58.8159 36.0583 57.3605ZM50.9157 31.5625C50.9157 24.2318 44.9516 18.2676 37.6209 18.2676C30.2901 18.2676 24.3259 24.2318 24.3259 31.5625C24.3259 38.8932 30.29 44.8574 37.6209 44.8574C44.9517 44.8574 50.9157 38.8932 50.9157 31.5625ZM39.2832 30.4459C38.8621 30.3274 38.4159 30.2228 37.9842 30.1216C36.9194 29.8721 35.7126 29.5894 35.0941 29.1141C34.8311 28.912 34.511 28.583 34.4804 28.163C34.4585 27.8634 34.5933 27.5466 34.86 27.2715C35.6325 26.4747 37.6316 26.1773 39.2256 26.6221C39.6931 26.7525 40.801 27.1451 40.9907 27.9714C41.184 28.8124 42.0216 29.338 42.8633 29.1445C43.7044 28.9514 44.2295 28.113 44.0364 27.272C43.6385 25.5392 42.1911 24.2053 40.0654 23.6121C39.7837 23.5336 39.488 23.4691 39.183 23.419V21.613C39.183 20.7501 38.4834 20.0505 37.6205 20.0505C36.7576 20.0505 36.058 20.7501 36.058 21.613V23.4309C34.7387 23.6608 33.493 24.1922 32.6162 25.0966C31.7207 26.0204 31.2759 27.1901 31.3636 28.3909C31.4534 29.6194 32.102 30.7564 33.1901 31.5924C34.3435 32.4785 35.899 32.8429 37.2712 33.1644C37.688 33.262 38.0816 33.3542 38.4361 33.454C40.2517 33.9651 40.7538 34.574 40.8853 34.812C40.9618 34.9506 41.034 35.1627 40.9123 35.5757C40.7394 36.1612 39.4154 36.7556 37.7162 36.709C36.2287 36.6675 34.5006 36.0837 34.222 34.9002C34.0243 34.0602 33.1826 33.5397 32.3431 33.7374C31.5031 33.9351 30.9825 34.7764 31.1802 35.6162C31.666 37.6797 33.5154 39.174 36.058 39.6632V41.512C36.058 42.3749 36.7576 43.0745 37.6205 43.0745C38.4834 43.0745 39.183 42.3749 39.183 41.512V39.7469C41.3097 39.4526 43.3325 38.4145 43.9095 36.46C44.2411 35.3356 44.1412 34.2431 43.6206 33.3008C42.9112 32.0169 41.4519 31.0564 39.2831 30.4457L39.2832 30.4459ZM48.0514 6.22638C47.1885 6.22638 46.4889 6.926 46.4889 7.78887C46.4889 8.65175 47.1885 9.35137 48.0514 9.35137C54.5552 9.35137 59.8466 14.6427 59.8466 21.1467C59.8466 22.0096 60.5462 22.7092 61.4091 22.7092C62.272 22.7092 62.9716 22.0096 62.9716 21.1467C62.9716 12.9196 56.2784 6.22638 48.0514 6.22638ZM48.0514 12.5603C47.1885 12.5603 46.4889 13.2599 46.4889 14.1228C46.4889 14.9856 47.1885 15.6852 48.0514 15.6852C51.0629 15.6852 53.5129 18.1354 53.5129 21.1467C53.5129 22.0096 54.2125 22.7092 55.0754 22.7092C55.9382 22.7092 56.6379 22.0096 56.6379 21.1467C56.6379 16.4121 52.786 12.5603 48.0514 12.5603Z" fill="white"/>
</g>
<defs>
<clipPath id="clip0_2593_11690">
<rect width="64.9716" height="63.125" fill="white"/>
</clipPath>
</defs>
</svg>
