<svg width="64" height="64" viewBox="0 0 64 64" fill="none" xmlns="http://www.w3.org/2000/svg">
<path d="M1.875 6.75H17C18.0355 6.75 18.875 5.9105 18.875 4.875C18.875 3.8395 18.0355 3 17 3H1.875C0.8395 3 0 3.8395 0 4.875C0 5.9105 0.8395 6.75 1.875 6.75Z" fill="#0284C7"/>
<path d="M1.875 14.75H12C13.0355 14.75 13.875 13.9105 13.875 12.875C13.875 11.8395 13.0355 11 12 11H1.875C0.8395 11 0 11.8395 0 12.875C0 13.9105 0.8395 14.75 1.875 14.75Z" fill="#0284C7"/>
<path d="M1.875 22.75H6C7.0355 22.75 7.875 21.9105 7.875 20.875C7.875 19.8395 7.0355 19 6 19H1.875C0.8395 19 0 19.8395 0 20.875C0 21.9105 0.8395 22.75 1.875 22.75Z" fill="#0284C7"/>
<path d="M62.125 41H59.835C59.6181 37.254 58.4309 28.8975 52.3749 22.6041C48.675 18.7592 43.8127 16.3604 37.875 15.4355V12.875C37.875 9.6355 35.2395 7 32 7C30.4303 7 28.9549 7.611 27.8455 8.7205C26.736 9.82987 26.125 11.3053 26.125 12.875V15.4355C20.1873 16.3604 15.325 18.7592 11.6251 22.6041C5.56925 28.8975 4.382 37.254 4.165 41H1.875C0.8395 41 0 41.8395 0 42.875V50.875C0 51.9105 0.8395 52.75 1.875 52.75H8.12763C8.127 52.7916 8.125 52.8333 8.125 52.875C8.125 57.2172 11.6578 60.75 16 60.75C20.3422 60.75 23.875 57.2172 23.875 52.875C23.875 52.8333 23.873 52.7916 23.8724 52.75H40.1276C40.127 52.7916 40.125 52.8333 40.125 52.875C40.125 57.2172 43.6578 60.75 48 60.75C52.3422 60.75 55.875 57.2172 55.875 52.875C55.875 52.8333 55.873 52.7916 55.8724 52.75H62.125C63.1605 52.75 64 51.9105 64 50.875V42.875C64 41.8395 63.1605 41 62.125 41ZM29.875 12.875C29.875 12.307 30.096 11.7732 30.4971 11.3721C30.8983 10.971 31.432 10.75 32 10.75C33.1717 10.75 34.125 11.7033 34.125 12.875V15.0548C33.4289 15.0194 32.7214 15 32 15C31.2786 15 30.571 15.0194 29.875 15.0548V12.875ZM14.3494 25.1815C18.4696 20.9139 24.4082 18.75 32 18.75C39.5918 18.75 45.5304 20.9139 49.6506 25.1815C54.7304 30.4429 55.8349 37.676 56.0682 41H7.93188C8.16538 37.6741 9.27025 30.4422 14.3494 25.1815ZM20.125 52.875C20.125 55.1495 18.2745 57 16 57C13.7255 57 11.875 55.1495 11.875 52.875C11.875 52.8333 11.8764 52.7916 11.8776 52.75H20.1225C20.1236 52.7916 20.125 52.8333 20.125 52.875ZM52.125 52.875C52.125 55.1495 50.2745 57 48 57C45.7255 57 43.875 55.1495 43.875 52.875C43.875 52.8333 43.8764 52.7916 43.8776 52.75H52.1225C52.1236 52.7916 52.125 52.8333 52.125 52.875ZM60.25 49H3.75V44.75H60.25V49Z" fill="#0284C7"/>
</svg>
