<svg width="64" height="64" viewBox="0 0 64 64" fill="none" xmlns="http://www.w3.org/2000/svg">
<path d="M24.04 53.958H9.88C7.52 53.958 5.6 52.046 5.6 49.698V23.238H57.98V30.26C57.98 31.254 58.786 32.06 59.78 32.06C60.774 32.06 61.58 31.254 61.58 30.26V13.86C61.58 9.526 58.054 6 53.72 6H9.88C5.536 6 2 9.526 2 13.86V49.7C2 54.034 5.536 57.56 9.88 57.56H24.04C25.034 57.56 25.84 56.754 25.84 55.76C25.84 54.766 25.034 53.958 24.04 53.958ZM9.88 9.598H53.72C56.07 9.598 57.98 11.51 57.98 13.858V19.636H5.6V13.86C5.6 11.51 7.52 9.598 9.88 9.598Z" fill="white"/>
<path d="M12.3921 16.334C13.3461 16.334 14.1201 15.56 14.1201 14.606C14.1201 13.652 13.3461 12.876 12.3921 12.876C11.4381 12.876 10.6641 13.65 10.6641 14.604C10.6641 15.558 11.4361 16.334 12.3921 16.334Z" fill="white"/>
<path d="M18.4819 16.334C19.4359 16.334 20.2099 15.56 20.2099 14.606C20.2099 13.652 19.4359 12.876 18.4819 12.876C17.5279 12.876 16.7539 13.65 16.7539 14.604C16.7539 15.558 17.5259 16.334 18.4819 16.334Z" fill="white"/>
<path d="M24.5722 16.334C25.5262 16.334 26.3002 15.56 26.3002 14.606C26.3002 13.652 25.5262 12.878 24.5722 12.878C23.6182 12.878 22.8442 13.652 22.8442 14.606C22.8442 15.56 23.6162 16.334 24.5722 16.334Z" fill="white"/>
<path d="M60.5701 37.892C58.6021 36.116 55.7521 35.098 52.7541 35.098C50.1281 35.098 47.6081 35.888 45.7081 37.262C43.8081 35.886 41.2881 35.098 38.6621 35.098C35.6641 35.098 32.8141 36.116 30.8481 37.89C30.2001 38.472 29.8301 39.328 29.8301 40.236V53.002C29.8301 54.124 30.4001 55.136 31.3561 55.712C32.3381 56.304 33.5401 56.334 34.5641 55.788C35.7581 55.156 37.1761 54.822 38.6641 54.822C40.9761 54.822 43.1181 55.636 44.3981 56.998C44.7381 57.36 45.2141 57.566 45.7101 57.566C46.2061 57.566 46.6821 57.36 47.0221 56.998C48.3021 55.634 50.4441 54.822 52.7561 54.822C54.2441 54.822 55.6621 55.156 56.8561 55.788C57.8841 56.332 59.0821 56.304 60.0641 55.712C61.0201 55.136 61.5901 54.124 61.5901 53.002V40.236C61.5881 39.328 61.2161 38.474 60.5701 37.892ZM33.4281 52.336V40.418C34.7401 39.324 36.6321 38.7 38.6621 38.7C40.7201 38.7 42.6081 39.372 43.9081 40.476V52.368C42.3321 51.642 40.5281 51.228 38.6621 51.228C36.8081 51.224 35.0121 51.608 33.4281 52.336ZM57.9881 52.336C54.8081 50.872 50.6781 50.97 47.5081 52.388V40.474C48.8081 39.37 50.6961 38.698 52.7541 38.698C54.7821 38.698 56.6741 39.322 57.9881 40.416V52.336Z" fill="white"/>
</svg>
