<svg width="64" height="64" viewBox="0 0 64 64" fill="none" xmlns="http://www.w3.org/2000/svg">
<path d="M58.9519 57.0239L57.1448 16.853C57.0999 15.8516 56.2742 15.0625 55.2718 15.0625H41.3855V9.40625C41.3855 4.21973 37.1658 0 31.9793 0C26.7923 0 22.573 4.21973 22.573 9.40625V15.0625H8.68632C7.68339 15.0625 6.8582 15.8516 6.81327 16.853L5.00566 57.0332C4.93144 58.8823 5.58964 60.6284 6.85966 61.9502C8.12968 63.272 9.84794 64 11.699 64H52.2591C54.1097 64 55.8284 63.272 57.0984 61.9502C58.3685 60.6284 59.0267 58.8823 58.9519 57.0239ZM26.323 9.40625C26.323 6.2876 28.8601 3.75 31.9793 3.75C35.0979 3.75 37.6355 6.2876 37.6355 9.40625V15.0625H26.323V9.40625ZM54.3943 59.3521C53.8382 59.9312 53.0799 60.25 52.2591 60.25H11.699C10.8782 60.25 10.1199 59.9312 9.56376 59.3521C9.00761 58.7734 8.71952 58.0029 8.75175 57.1924L10.4788 18.8125H53.4793L55.2059 57.1836C55.2386 58.0029 54.9505 58.7734 54.3943 59.3521Z" fill="white"/>
<path d="M42.272 35.4892L27.2405 25.416C26.7198 25.0669 26.0596 25.0019 25.4804 25.2412C24.9017 25.4814 24.4811 25.9946 24.3596 26.6098L20.8487 44.3686C20.7145 45.0469 20.9643 45.7441 21.4992 46.1826C22.0335 46.6206 22.7654 46.7295 23.4041 46.4648L26.3085 45.2607L29.4314 52.8061C29.6217 53.2651 29.9862 53.6304 30.4454 53.8208C30.6752 53.916 30.9187 53.9634 31.1627 53.9634C31.4067 53.9634 31.6501 53.916 31.88 53.8208L41.1512 49.978C41.6104 49.7881 41.9753 49.4228 42.1652 48.9634C42.3555 48.5039 42.3555 47.9878 42.1652 47.5283L39.0422 39.9829L41.9466 38.7793C42.5848 38.5146 43.0259 37.9199 43.0937 37.2319C43.1621 36.5439 42.8459 35.874 42.272 35.4892ZM32.1767 49.6387L29.0537 42.0937C28.7546 41.3716 28.0573 40.9355 27.322 40.9355C27.0829 40.9355 26.8399 40.9819 26.6056 41.0791L25.2042 41.6597L27.4903 30.0967L37.2773 36.6557L35.8764 37.2363C35.4172 37.4263 35.0527 37.7915 34.8624 38.251C34.6721 38.7104 34.6721 39.2265 34.8624 39.686L37.9858 47.2314L32.1767 49.6387Z" fill="white"/>
</svg>
