<svg width="64" height="64" viewBox="0 0 64 64" fill="none" xmlns="http://www.w3.org/2000/svg">
<g clip-path="url(#clip0_2618_41)">
<path fill-rule="evenodd" clip-rule="evenodd" d="M10.0825 35.502C10.729 35.5017 11.3611 35.6932 11.8988 36.0522C12.4365 36.4111 12.8556 36.9215 13.1032 37.5187C13.3509 38.1159 13.4158 38.7731 13.2899 39.4073C13.164 40.0414 12.8528 40.6239 12.3958 41.0812C11.9388 41.5385 11.3564 41.85 10.7224 41.9763C10.0883 42.1026 9.43104 42.038 8.83369 41.7907C8.23634 41.5434 7.72573 41.1246 7.36645 40.5871C7.00717 40.0496 6.81535 39.4176 6.81525 38.7711C6.81598 37.9046 7.16038 37.0738 7.7729 36.461C8.38541 35.8481 9.21602 35.5032 10.0825 35.502ZM16.2852 38.7711C16.2853 37.5446 15.9216 36.3455 15.2403 35.3257C14.5589 34.3058 13.5904 33.5108 12.4572 33.0414C11.3241 32.5719 10.0771 32.449 8.87412 32.6882C7.67111 32.9274 6.56604 33.5179 5.69864 34.3851C4.83125 35.2524 4.24048 36.3573 4.00106 37.5603C3.76163 38.7632 3.88428 40.0102 4.35352 41.1434C4.82275 42.2767 5.61749 43.2453 6.63724 43.9269C7.65699 44.6085 8.85594 44.9724 10.0825 44.9726C11.7268 44.9708 13.3032 44.3168 14.466 43.1543C15.6288 41.9917 16.2831 40.4154 16.2852 38.7711ZM41.5151 4.378L39.5659 1H41.5526L44.8921 4.378H41.5151ZM47.425 10.3737C47.655 10.1417 47.9559 9.99297 48.2799 9.95123C48.604 9.90949 48.9327 9.9771 49.214 10.1433C49.4953 10.3096 49.7131 10.5649 49.8328 10.8689C49.9525 11.1729 49.9674 11.5082 49.875 11.8216L49.6237 12.6763H60.1959C60.3491 12.6763 60.4996 12.6354 60.6318 12.5579C60.7639 12.4804 60.8731 12.3691 60.9479 12.2353C61.0227 12.1016 61.0606 11.9504 61.0575 11.7972C61.0544 11.644 61.0105 11.4944 60.9304 11.3638L60.0625 9.94688C59.5808 9.1311 58.8917 8.45747 58.0651 7.99456C57.2385 7.53165 56.3041 7.29597 55.3569 7.3115H33.2521C32.8672 7.31154 32.4978 7.16024 32.2235 6.89025L27.3288 2.07487H22.3026L28.7992 12.2771C28.8726 12.4032 28.979 12.507 29.1068 12.5773C29.2346 12.6476 29.3792 12.6818 29.525 12.6763H36.5672L37.7251 10.6713C37.8206 10.5029 37.9484 10.3551 38.1013 10.2363C38.2542 10.1176 38.429 10.0303 38.6158 9.9795C38.8026 9.92868 38.9975 9.91533 39.1895 9.94023C39.3814 9.96513 39.5666 10.0278 39.7342 10.1246C39.9018 10.2214 40.0486 10.3504 40.1661 10.5042C40.2836 10.658 40.3695 10.8335 40.4189 11.0207C40.4682 11.2078 40.48 11.4029 40.4536 11.5947C40.4272 11.7864 40.3631 11.971 40.265 12.1379L36.2385 19.1129H38.7892L47.425 10.3737ZM3.10725 31.4576C0.29425 34.2701 -0.10975 38.1326 1.17288 41.7582C1.65871 43.1234 2.35458 44.4045 3.23537 45.5551L10.0825 54.498L16.9325 45.5552C18.7423 43.1927 19.9035 40.0695 19.6588 37.0685C19.4998 34.9452 18.5762 32.9517 17.0591 31.4576C15.2076 29.6101 12.6988 28.5725 10.0832 28.5725C7.46756 28.5725 4.95875 29.6101 3.10725 31.4576ZM8.91875 57.8015C9.05582 57.9802 9.23217 58.1249 9.43414 58.2245C9.63611 58.3242 9.8583 58.376 10.0835 58.376C10.3087 58.376 10.5309 58.3242 10.7329 58.2245C10.9348 58.1249 11.1112 57.9802 11.2483 57.8015L13.5712 54.7675L13.9692 54.8368C15.5021 55.1035 17.1789 55.5719 18.5249 56.3755C19.1386 56.7421 20.167 57.4814 20.167 58.2891C20.167 59.3466 18.4466 60.2971 17.6437 60.6616C15.3937 61.6829 12.5361 62.0652 10.0825 62.0652C7.62888 62.0652 4.77263 61.6826 2.52325 60.6616C1.72025 60.2971 0 59.3466 0 58.2891C0 57.4814 1.02838 56.7421 1.64213 56.3755C2.98812 55.5719 4.66488 55.1035 6.19775 54.8368L6.59575 54.7675L8.91875 57.8015ZM23.141 58.2879H53.8356C54.7876 58.2918 55.7309 58.1078 56.6115 57.7462C57.4922 57.3846 58.2927 56.8527 58.9673 56.181C59.6418 55.5093 60.177 54.7109 60.5422 53.8318C60.9074 52.9527 61.0954 52.0101 61.0954 51.0582C61.0954 50.1062 60.9074 49.1636 60.5422 48.2845C60.177 47.4054 59.6418 46.6071 58.9673 45.9354C58.2927 45.2636 57.4922 44.7317 56.6115 44.3702C55.7309 44.0086 54.7876 43.8245 53.8356 43.8285H38.3625C37.2045 43.8329 36.0571 43.6086 34.9861 43.1685C33.915 42.7283 32.9414 42.0811 32.121 41.2638C31.3007 40.4466 30.6498 39.4754 30.2056 38.406C29.7615 37.3366 29.5328 36.19 29.5328 35.0321C29.5328 33.8741 29.7615 32.7275 30.2056 31.6581C30.6498 30.5887 31.3007 29.6175 32.121 28.8003C32.9414 27.983 33.915 27.3358 34.9861 26.8957C36.0571 26.4556 37.2045 26.2313 38.3625 26.2356H46.8613C48.0322 26.2373 49.1767 25.8878 50.147 25.2322C51.1172 24.5766 51.8685 23.6451 52.3039 22.5581C52.7392 21.4711 52.8385 20.2785 52.589 19.1344C52.3395 17.9904 51.7527 16.9474 50.9043 16.1404C50.8285 16.067 50.7605 15.986 50.7012 15.8988L50.5026 15.6098H54.3164L54.778 16.5661C55.4273 17.9055 55.7253 19.3879 55.6439 20.8741C55.5624 22.3603 55.1043 23.8014 54.3126 25.0618C53.5209 26.3222 52.4215 27.3605 51.118 28.079C49.8145 28.7975 48.3497 29.1726 46.8613 29.1691H38.3625C36.8076 29.1691 35.3163 29.7868 34.2168 30.8863C33.1173 31.9859 32.4996 33.4771 32.4996 35.0321C32.4996 36.587 33.1173 38.0783 34.2168 39.1778C35.3163 40.2773 36.8076 40.895 38.3625 40.895H53.8356C55.1733 40.8903 56.4987 41.1497 57.7359 41.6584C58.973 42.167 60.0976 42.9149 61.0452 43.8591C61.9927 44.8033 62.7445 45.9253 63.2575 47.1606C63.7705 48.396 64.0345 49.7205 64.0345 51.0582C64.0345 52.3958 63.7705 53.7203 63.2575 54.9557C62.7445 56.1911 61.9927 57.3131 61.0452 58.2573C60.0976 59.2015 58.973 59.9494 57.7359 60.458C56.4987 60.9666 55.1733 61.2261 53.8356 61.2214H21.9106C22.4702 60.6585 22.8803 59.6807 23.141 58.2879Z" fill="#0284C7"/>
</g>
<defs>
<clipPath id="clip0_2618_41">
<rect width="64" height="63.0652" fill="white"/>
</clipPath>
</defs>
</svg>
