<svg width="64" height="64" viewBox="0 0 64 64" fill="none" xmlns="http://www.w3.org/2000/svg">
<path d="M58.2905 7.90591C51.1053 0.720905 39.6673 0.31703 32.0045 6.69553C24.3418 0.31703 12.9037 0.72078 5.71875 7.90591C2.03087 11.5935 0 16.4967 0 21.7119C0 26.9272 2.03087 31.8303 5.71875 35.518L32.0046 61.8038L58.2906 35.5179C65.9031 27.9053 65.9031 15.5185 58.2905 7.90591ZM55.6385 32.8659L32.0045 56.4998L8.37075 32.8659C5.3915 29.8865 3.75062 25.9252 3.75062 21.7118C3.75062 17.4984 5.3915 13.5372 8.37075 10.5578C11.446 7.48253 15.4852 5.94516 19.5247 5.94516C23.5642 5.94516 27.6035 7.48278 30.6787 10.5578L32.0046 11.8839L33.3305 10.558C39.4808 4.40778 49.4881 4.40778 55.6385 10.558C61.7889 16.7083 61.7888 26.7154 55.6385 32.8659Z" fill="white"/>
<path d="M37.8059 26.9312L35.4846 31.5737L28.5243 17.6526L23.885 26.9312H15.7754V30.6817H26.203L28.5243 26.0392L35.4846 39.9601L40.1239 30.6817H48.2335V26.9312H37.8059Z" fill="white"/>
</svg>
