<svg fill="none" height="64" viewBox="0 0 64 64" width="64" xmlns="http://www.w3.org/2000/svg"><g fill="#fff"><path d="m52.0802 48.64c-.8-.76-2.08-.7-2.82.1-.76.8-.7 2.08.1 2.82l5.16 4.8c.38.36.88.54 1.36.54.54 0 1.06-.22 1.46-.64.76-.8.7-2.08-.1-2.82z"/><path d="m11.9201 15.36c.38.36.88.54 1.36.54.54 0 1.06-.22 1.46-.64.76-.8.7-2.08-.1-2.82l-5.16003-4.79998c-.8-.74-2.08-.7-2.82.1-.76.8-.7 2.08.1 2.81998z"/><path d="m53.76 32.555 6.72-6.72c.98-.98 1.5-2.26 1.5-3.64s-.54-2.66-1.5-3.64l-15.1-15.1c-1.94-1.94-5.32-1.94-7.26 0l-6.72 6.72c-2 2-2 5.26 0 7.26l3.34 3.34-13.92 13.92-3.34-3.34c-2-2-5.26-2-7.26 0l-6.72 6.72c-2 2-2 5.26 0 7.26l15.1 15.1c.98.98 2.26 1.5 3.64 1.5s2.66-.54 3.64-1.5l6.72-6.72c.98-.96 1.5-2.26 1.5-3.64s-.54-2.66-1.5-3.64l-3.34-3.34 13.92-13.92 3.34 3.34c1 1 2.32 1.5 3.64 1.5s2.64-.5 3.64-1.5zm-12.82-26.26c.22-.22.5-.34.8-.34s.58.12.8.34l15.1 15.1c.22.22.34.5.34.8s-.12.58-.34.8l-1.94 1.94-16.7-16.7zm-17.92 51.34c-.44.42-1.18.42-1.62 0l-15.1-15.1c-.44-.44-.44-1.16 0-1.62l1.94-1.94 16.7 16.7-1.94 1.94zm6.72-8.34c.22.22.34.5.34.8s-.12.58-.34.8l-1.94 1.94-16.7-16.7 1.94-1.94c.22-.22.52-.34.8-.34s.58.12.8.34zm-3.34-9-2.76-2.76 13.92-13.92 2.76 2.76zm7.82-25.66c-.44-.44-.44-1.16 0-1.62l1.94-1.94 16.7 16.7-1.94 1.94c-.44.44-1.16.44-1.62 0l-15.1-15.1z"/></g></svg>