<svg width="480" height="480" viewBox="0 0 480 480" fill="none" xmlns="http://www.w3.org/2000/svg">
<path opacity="0.27" d="M421.68 112.109C421.68 112.109 461.155 173.794 405.048 230.462C348.941 287.131 313.848 292.589 353.419 350.813C392.99 409.037 342.043 501.701 243.902 455.52C145.761 409.339 187.641 331.291 109.392 320.242C31.1422 309.192 15.4654 241.522 52.1134 181.738C88.7614 121.954 151.953 130.282 203.169 152.803C254.385 175.325 289.248 156.739 292.281 116.434C295.91 68.2464 376.737 39.2448 421.68 112.109Z" fill="#9E97FC"/>
<path opacity="0.27" d="M78.6625 334.037C78.6625 334.037 126.859 329.717 142.718 366.547C158.578 403.378 126.432 429.706 110.88 409.392C95.3281 389.078 108.893 366.418 81.0673 366.192C53.2417 365.966 63.3217 333.715 78.6625 334.037Z" fill="#9E97FC"/>
<path d="M17.6353 249.043C17.6353 256.824 22.5457 263.131 28.6033 263.131H312.763C318.816 263.131 323.726 256.824 323.726 249.043V84.2976H17.6353V249.043Z" fill="#D2E1F9"/>
<path opacity="0.74" d="M282.413 238.944C278.051 238.94 273.742 239.897 269.792 241.746C265.841 243.595 262.347 246.291 259.555 249.643C257.847 244.253 254.641 239.461 250.312 235.824C245.982 232.187 240.708 229.857 235.104 229.104C235.802 226.421 235.853 223.61 235.252 220.903C234.652 218.196 233.416 215.67 231.648 213.534C229.88 211.398 227.63 209.713 225.084 208.617C222.537 207.52 219.766 207.045 216.999 207.229C214.233 207.413 211.549 208.252 209.17 209.677C206.791 211.101 204.785 213.07 203.316 215.422C201.847 217.773 200.957 220.44 200.721 223.203C200.484 225.966 200.908 228.745 201.955 231.312C197.902 229.168 193.265 228.389 188.733 229.091C184.202 229.794 180.018 231.939 176.803 235.21C176.641 231.025 175.516 226.934 173.517 223.254C171.517 219.574 168.697 216.404 165.275 213.99C161.853 211.576 157.921 209.983 153.783 209.334C149.646 208.686 145.415 208.999 141.418 210.25C141.442 209.77 141.451 209.29 141.451 208.81C141.438 202.139 138.978 195.706 134.539 190.727C130.099 185.749 123.988 182.571 117.363 181.796C110.738 181.021 104.059 182.703 98.5904 186.523C93.122 190.342 89.2442 196.035 87.6914 202.522C82.8156 199.58 77.2588 197.956 71.5662 197.809C65.8735 197.662 60.2404 198.997 55.2193 201.683C50.1981 204.37 45.9614 208.315 42.9245 213.132C39.8876 217.949 38.1549 223.473 37.8962 229.162C34.1453 228.507 30.2873 228.871 26.7251 230.216C23.1629 231.561 20.027 233.837 17.645 236.808V249.048C17.645 256.829 22.5554 263.136 28.613 263.136H311.664C310.363 256.331 306.73 250.193 301.391 245.778C296.052 241.362 289.341 238.946 282.413 238.944Z" fill="white"/>
<path d="M17.6353 249.043C17.6353 256.824 22.5457 263.131 28.6033 263.131H312.763C318.816 263.131 323.726 256.824 323.726 249.043V84.2976H17.6353V249.043Z" stroke="#5A4DAA" stroke-width="3.01" stroke-miterlimit="10"/>
<path d="M312.782 54.3312H28.6225C27.1821 54.3287 25.7554 54.6099 24.4237 55.1587C23.0921 55.7076 21.8815 56.5134 20.8613 57.5301C19.841 58.5468 19.031 59.7544 18.4775 61.0842C17.924 62.4139 17.6378 63.8397 17.6353 65.28V84.2784H323.746V65.28C323.741 62.3753 322.583 59.5912 320.528 57.5385C318.473 55.4859 315.687 54.3325 312.782 54.3312Z" fill="#AAC8F9" stroke="#5A4DAA" stroke-width="3.01" stroke-miterlimit="10"/>
<path d="M31.171 75.6C33.3077 75.6 35.0398 73.8679 35.0398 71.7312C35.0398 69.5945 33.3077 67.8624 31.171 67.8624C29.0344 67.8624 27.3022 69.5945 27.3022 71.7312C27.3022 73.8679 29.0344 75.6 31.171 75.6Z" fill="#5A4DAA"/>
<path d="M44.0592 75.6C46.1959 75.6 47.928 73.8679 47.928 71.7312C47.928 69.5945 46.1959 67.8624 44.0592 67.8624C41.9225 67.8624 40.1904 69.5945 40.1904 71.7312C40.1904 73.8679 41.9225 75.6 44.0592 75.6Z" fill="#5A4DAA"/>
<path d="M56.9474 75.6C59.0841 75.6 60.8162 73.8679 60.8162 71.7312C60.8162 69.5945 59.0841 67.8624 56.9474 67.8624C54.8107 67.8624 53.0786 69.5945 53.0786 71.7312C53.0786 73.8679 54.8107 75.6 56.9474 75.6Z" fill="#5A4DAA"/>
<path opacity="0.68" d="M274.651 114.768H224.837C215.866 114.768 208.594 122.04 208.594 131.011C208.594 139.982 215.866 147.254 224.837 147.254H274.651C283.622 147.254 290.895 139.982 290.895 131.011C290.895 122.04 283.622 114.768 274.651 114.768Z" fill="white"/>
<path opacity="0.68" d="M290.895 161.333H208.594V168.998H290.895V161.333Z" fill="white"/>
<path opacity="0.68" d="M290.895 173.386H208.594V181.051H290.895V173.386Z" fill="white"/>
<path opacity="0.68" d="M249.744 185.434H208.594V193.099H249.744V185.434Z" fill="white"/>
<path d="M290.88 69.4752H309.571" stroke="#5A4DAA" stroke-width="3.01" stroke-miterlimit="10"/>
<path d="M314.001 175.747C314.001 179.967 315.678 184.015 318.662 186.999C321.646 189.983 325.693 191.659 329.913 191.659H438.873C443.094 191.659 447.141 189.983 450.125 186.999C453.109 184.015 454.785 179.967 454.785 175.747V54.8448H314.001V175.747Z" fill="#D2E1F9" stroke="#5A4DAA" stroke-width="3.01" stroke-miterlimit="10"/>
<path d="M435.648 82.2816H343.238C342.242 82.2816 341.434 83.0896 341.434 84.0864C341.434 85.0832 342.242 85.8912 343.238 85.8912H435.648C436.645 85.8912 437.453 85.0832 437.453 84.0864C437.453 83.0896 436.645 82.2816 435.648 82.2816Z" fill="#5A4DAA" stroke="#5A4DAA" stroke-width="3.01" stroke-miterlimit="10"/>
<path d="M380.957 73.9776H369.773C363.89 73.9776 359.122 78.7452 359.122 84.6264C359.122 90.5076 363.89 95.2752 369.773 95.2752H380.957C386.839 95.2752 391.608 90.5076 391.608 84.6264C391.608 78.7452 386.839 73.9776 380.957 73.9776Z" fill="#89B5F7"/>
<path d="M369.773 73.9776C368.374 73.977 366.989 74.252 365.696 74.7871C364.403 75.3221 363.229 76.1067 362.24 77.0959C361.251 78.085 360.466 79.2595 359.931 80.552C359.396 81.8446 359.121 83.2299 359.122 84.6288C359.119 87.0588 359.951 89.416 361.478 91.3056H371.938C373.337 91.3056 374.723 91.0296 376.016 90.4934C377.309 89.9571 378.484 89.1712 379.473 88.1806C380.461 87.1899 381.245 86.014 381.779 84.7201C382.313 83.4262 382.587 82.0397 382.584 80.64C382.586 78.2109 381.756 75.8544 380.232 73.9632L369.773 73.9776Z" fill="#AAC8F9"/>
<path d="M380.957 73.9776H369.773C363.89 73.9776 359.122 78.7452 359.122 84.6264C359.122 90.5076 363.89 95.2752 369.773 95.2752H380.957C386.839 95.2752 391.608 90.5076 391.608 84.6264C391.608 78.7452 386.839 73.9776 380.957 73.9776Z" stroke="#5A4DAA" stroke-width="3.01" stroke-miterlimit="10"/>
<path d="M435.648 110.438H343.238C342.242 110.438 341.434 111.246 341.434 112.243C341.434 113.24 342.242 114.048 343.238 114.048H435.648C436.645 114.048 437.453 113.24 437.453 112.243C437.453 111.246 436.645 110.438 435.648 110.438Z" fill="#5A4DAA" stroke="#5A4DAA" stroke-width="3.01" stroke-miterlimit="10"/>
<path d="M411.643 102.134H400.459C394.577 102.134 389.808 106.902 389.808 112.783C389.808 118.664 394.577 123.432 400.459 123.432H411.643C417.526 123.432 422.295 118.664 422.295 112.783C422.295 106.902 417.526 102.134 411.643 102.134Z" fill="#89B5F7"/>
<path d="M400.455 102.134C399.055 102.134 397.669 102.41 396.376 102.947C395.083 103.483 393.908 104.269 392.92 105.259C391.931 106.25 391.147 107.426 390.613 108.72C390.079 110.014 389.806 111.4 389.808 112.8C389.808 115.224 390.638 117.576 392.16 119.462H402.615C404.015 119.465 405.402 119.191 406.696 118.657C407.99 118.123 409.166 117.339 410.157 116.349C411.148 115.36 411.933 114.185 412.469 112.891C413.005 111.598 413.281 110.211 413.28 108.811C413.283 106.381 412.451 104.024 410.923 102.134H400.455Z" fill="#AAC8F9"/>
<path d="M411.643 102.134H400.459C394.577 102.134 389.808 106.902 389.808 112.783C389.808 118.664 394.577 123.432 400.459 123.432H411.643C417.526 123.432 422.295 118.664 422.295 112.783C422.295 106.902 417.526 102.134 411.643 102.134Z" stroke="#5A4DAA" stroke-width="3.01" stroke-miterlimit="10"/>
<path opacity="0.68" d="M433.325 140.035H348.451C344.575 140.035 341.434 143.177 341.434 147.053V157.565C341.434 161.441 344.575 164.582 348.451 164.582H433.325C437.201 164.582 440.342 161.441 440.342 157.565V147.053C440.342 143.177 437.201 140.035 433.325 140.035Z" fill="white"/>
<path opacity="0.68" d="M436.013 172.886H345.763C343.372 172.886 341.434 174.825 341.434 177.216V177.221C341.434 179.612 343.372 181.55 345.763 181.55H436.013C438.404 181.55 440.342 179.612 440.342 177.221V177.216C440.342 174.825 438.404 172.886 436.013 172.886Z" fill="white"/>
<path d="M438.869 31.0224H329.909C325.688 31.0224 321.641 32.6988 318.657 35.6829C315.673 38.667 313.997 42.7143 313.997 46.9344V54.8448H454.781V46.9344C454.781 42.7143 453.104 38.667 450.12 35.6829C447.136 32.6988 443.089 31.0224 438.869 31.0224Z" fill="#AAC8F9" stroke="#5A4DAA" stroke-width="3.01" stroke-miterlimit="10"/>
<path d="M423.494 243.624C423.494 243.624 436.757 219.624 427.08 207.595C417.403 195.566 410.952 220.488 423.494 243.624Z" fill="#AAC8F9"/>
<path d="M416.976 223.882C417.947 230.8 420.155 237.488 423.494 243.624C423.494 243.624 428.592 234.398 430.162 224.52C427.877 228.869 423.523 233.222 416.976 223.882Z" fill="#89B5F7"/>
<path d="M423.494 243.624C423.494 243.624 436.757 219.624 427.08 207.595C417.403 195.566 410.952 220.488 423.494 243.624Z" stroke="#5A4DAA" stroke-width="3.01" stroke-miterlimit="10"/>
<path d="M422.069 205.253C422.069 205.253 426.351 237.499 420.149 271.166" stroke="#5A4DAA" stroke-width="3.01" stroke-miterlimit="10"/>
<path d="M416.602 317.87C416.602 317.87 409.637 269.39 431.727 236.011C453.816 202.632 469.829 234.715 458.77 262.776C448.541 288.734 417.264 322.886 416.602 317.87Z" fill="#89B5F7"/>
<path d="M443.424 223.642C439.838 225.754 435.888 229.718 431.726 236.011C413.539 263.52 415.046 301.2 416.16 313.675C416.678 315.365 417 316.286 417 316.286C418.627 321.086 442.651 281.486 447.634 254.03C449.722 242.424 447.643 231.014 443.424 223.642Z" fill="#AAC8F9"/>
<path d="M416.602 317.87C416.602 317.87 409.637 269.39 431.727 236.011C453.816 202.632 469.829 234.715 458.77 262.776C448.541 288.734 417.264 322.886 416.602 317.87Z" stroke="#5A4DAA" stroke-width="3.01" stroke-miterlimit="10"/>
<path d="M421.92 332.918C421.104 332.246 424.32 296.155 439.017 283.138C453.715 270.12 466.416 289.517 456.043 301.541C445.67 313.565 425.601 335.928 421.92 332.918Z" fill="#89B5F7"/>
<path d="M450.566 278.976C447.206 278.366 443.198 279.456 439.046 283.138C427.853 293.04 423.322 316.291 422.155 327.149C422.41 329.837 422.717 331.493 422.914 331.598C427.08 333.878 442.67 308.184 450.643 294.451C452.048 292.112 452.784 289.432 452.77 286.703C452.756 283.974 451.994 281.301 450.566 278.976Z" fill="#AAC8F9"/>
<path d="M421.92 332.918C421.104 332.246 424.32 296.155 439.017 283.138C453.715 270.12 466.416 289.517 456.043 301.541C445.67 313.565 425.601 335.928 421.92 332.918Z" stroke="#5A4DAA" stroke-width="3.01" stroke-miterlimit="10"/>
<path d="M409.118 323.069C409.118 323.069 400.838 289.061 378.681 264.202C356.525 239.342 365.385 218.424 375.744 212.16C386.102 205.896 421.872 216.917 420.086 274.258C419.438 316.128 410.4 328.018 409.118 323.069Z" fill="#89B5F7"/>
<path d="M387.101 211.104C377.693 218.462 370.867 236.482 387.264 260.626C405.984 288.173 409.723 322.978 409.723 322.978C409.72 323.197 409.772 323.413 409.876 323.606C409.979 323.799 410.13 323.963 410.314 324.082C413.155 323.27 419.544 309.202 420.087 274.248C421.44 231.048 401.463 214.138 387.101 211.104Z" fill="#AAC8F9"/>
<path d="M409.118 323.069C409.118 323.069 400.838 289.061 378.681 264.202C356.525 239.342 365.385 218.424 375.744 212.16C386.102 205.896 421.872 216.917 420.086 274.258C419.438 316.128 410.4 328.018 409.118 323.069Z" stroke="#5A4DAA" stroke-width="3.01" stroke-miterlimit="10"/>
<path d="M400.282 333.667C400.282 333.667 389.386 317.347 373.21 308.4C357.034 299.453 357.451 286.8 361.498 281.558C365.544 276.317 385.949 275.395 396.293 305.909C404.16 328.075 401.904 336.029 400.282 333.667Z" fill="#89B5F7"/>
<path d="M401.861 331.133C402.067 327.158 400.958 319.022 396.293 305.909C388.766 283.709 375.917 278.146 367.915 278.784C365.741 284.707 366.955 293.928 377.837 302.654C392.237 314.174 400.209 332.155 400.209 332.155C400.613 333.034 401.28 332.765 401.861 331.133Z" fill="#AAC8F9"/>
<path d="M400.282 333.667C400.282 333.667 389.386 317.347 373.21 308.4C357.034 299.453 357.451 286.8 361.498 281.558C365.544 276.317 385.949 275.395 396.293 305.909C404.16 328.075 401.904 336.029 400.282 333.667Z" stroke="#5A4DAA" stroke-width="3.01" stroke-miterlimit="10"/>
<path d="M409.195 365.654L383.798 365.626L391.896 414.288C392.151 415.822 392.942 417.215 394.127 418.222C395.313 419.228 396.816 419.781 398.371 419.784H409.138H419.904C421.459 419.785 422.963 419.235 424.151 418.231C425.338 417.228 426.131 415.836 426.389 414.302L434.597 365.659L409.195 365.654Z" fill="#89B5F7"/>
<path d="M428.462 365.674C428.491 369.437 428.395 404.414 414.158 409.776C403.814 413.669 395.529 409.978 390.389 405.23L391.896 414.288C392.151 415.822 392.942 417.215 394.127 418.222C395.313 419.228 396.816 419.781 398.371 419.784H409.137H419.904C421.459 419.785 422.963 419.235 424.151 418.231C425.338 417.228 426.131 415.836 426.389 414.302L434.597 365.659L428.462 365.674Z" fill="#609AEF"/>
<path d="M409.195 365.654L383.798 365.626L391.896 414.288C392.151 415.822 392.942 417.215 394.127 418.222C395.313 419.228 396.816 419.781 398.371 419.784H409.138H419.904C421.459 419.785 422.963 419.235 424.151 418.231C425.338 417.228 426.131 415.836 426.389 414.302L434.597 365.659L409.195 365.654Z" stroke="#5A4DAA" stroke-width="3.01" stroke-miterlimit="10"/>
<path d="M434.579 365.334C434.581 363.121 423.137 361.314 409.018 361.3C394.899 361.285 383.451 363.067 383.449 365.281C383.447 367.494 394.891 369.301 409.01 369.316C423.129 369.33 434.576 367.548 434.579 365.334Z" fill="#5A4DAA" stroke="#5A4DAA" stroke-width="3.01" stroke-miterlimit="10"/>
<path d="M420.557 365.333C420.557 365.333 429.283 333.259 441.307 338.933C446.985 343.306 421.56 368.342 420.557 365.333Z" fill="#89B5F7"/>
<path d="M436.387 338.616C426.975 341.746 420.547 365.333 420.547 365.333C420.58 365.418 420.641 365.49 420.721 365.535C420.801 365.58 420.894 365.595 420.984 365.578C424.373 363.667 435.96 346.109 436.387 338.616Z" fill="#AAC8F9"/>
<path d="M420.557 365.333C420.557 365.333 429.283 333.259 441.307 338.933C446.985 343.306 421.56 368.342 420.557 365.333Z" stroke="#5A4DAA" stroke-width="3.01" stroke-miterlimit="10"/>
<path d="M401.842 365.314C401.842 365.314 389.515 331.877 379.483 335.554C369.451 339.23 400.839 368.318 401.842 365.314Z" fill="#89B5F7"/>
<path d="M383.006 335.645C384.134 345.014 399.629 365.659 401.654 364.805C400.262 361.162 391.43 338.832 383.006 335.645Z" fill="#AAC8F9"/>
<path d="M401.842 365.314C401.842 365.314 389.515 331.877 379.483 335.554C369.451 339.23 400.839 368.318 401.842 365.314Z" stroke="#5A4DAA" stroke-width="3.01" stroke-miterlimit="10"/>
<path d="M454.661 223.349C454.661 223.349 409.258 310.512 410.535 365.654C410.535 365.654 415.69 232.982 373.935 213.557" stroke="#5A4DAA" stroke-width="3.01" stroke-miterlimit="10"/>
<path d="M361.498 282.053C361.498 282.053 408.59 308.506 405.518 366.317" stroke="#5A4DAA" stroke-width="3.01" stroke-miterlimit="10"/>
<path d="M457.474 283.68C457.474 283.68 414.274 321.557 413.208 365.669" stroke="#5A4DAA" stroke-width="3.01" stroke-miterlimit="10"/>
<path d="M385.545 376.142C385.545 376.142 410.846 384.038 432.821 376.195" stroke="#5A4DAA" stroke-width="3.01" stroke-miterlimit="10"/>
<path d="M433.843 42.7632H445.656" stroke="#5A4DAA" stroke-width="3.01" stroke-miterlimit="10" stroke-linecap="round"/>
<path d="M296.937 106.968L296.073 106.123C295.507 105.571 295.593 104.712 296.265 104.501L299.246 104.256C299.822 104.215 300.364 103.968 300.773 103.56L302.448 102.12C302.448 102.12 306.125 103.483 296.937 106.968Z" fill="#251760" stroke="#251760" stroke-width="3.01" stroke-miterlimit="10" stroke-linecap="round"/>
<path d="M307.142 94.1952C307.142 94.1952 306.36 99.5232 300.283 103.939C292.344 109.699 294.523 126.682 311.112 126.682C327.701 126.682 328.8 98.1648 317.611 94.1952C310.003 91.4928 307.142 94.1952 307.142 94.1952Z" fill="#F9C7A5"/>
<path d="M319.776 109.714C316.166 102.134 325.92 104.64 319.056 97.44C316.96 95.3449 314.367 93.8156 311.52 92.9952C308.405 92.9952 307.123 94.1952 307.123 94.1952C307.123 94.1952 306.528 98.2224 302.376 102.178C302.935 102.962 303.703 103.572 304.594 103.939C307.474 105.024 299.544 110.074 305.318 113.688C308.198 112.603 308.568 107.928 309.288 110.074C310.008 112.219 307.123 121.987 312.898 122.712C318.672 123.437 323.386 117.298 319.776 109.714Z" fill="#F99F91"/>
<path d="M307.142 94.1952C307.142 94.1952 306.36 99.5232 300.283 103.939C292.344 109.699 294.523 126.682 311.112 126.682C327.701 126.682 328.8 98.1648 317.611 94.1952C310.003 91.4928 307.142 94.1952 307.142 94.1952Z" stroke="#251760" stroke-width="3.01" stroke-miterlimit="10" stroke-linecap="round"/>
<path d="M326.635 103.2C326.635 103.2 333.475 108.278 328.44 116.554C323.405 124.829 313.262 124.536 312.917 116.554C312.557 108.25 309.307 110.419 308.227 112.584C307.147 114.749 304.253 113.669 305.698 109.334C307.142 105 311.837 96.3408 316.166 97.4208C320.496 98.5008 326.635 103.2 326.635 103.2Z" fill="#251760" stroke="#251760" stroke-width="3.01" stroke-miterlimit="10" stroke-linecap="round"/>
<path d="M370.315 92.7504C373.195 91.3104 376.075 81.5568 370.315 83.0016C357.082 86.5536 362.544 132.96 358.224 138.48C360.547 143.227 365.107 154.238 363.581 164.966C364.378 164.635 365.175 164.27 365.981 163.862C390.168 151.589 367.426 94.1952 370.315 92.7504Z" fill="#F9C7A5"/>
<path d="M370.114 93.0432C367.378 92.208 366.442 96.264 370.675 122.712C373.387 139.675 368.755 150.965 363.278 153.754C363.962 157.453 364.064 161.236 363.581 164.966C364.378 164.635 365.174 164.27 365.981 163.862C389.414 151.968 368.794 97.7184 370.114 93.0432Z" fill="#F99F91"/>
<path d="M370.315 92.7504C373.195 91.3104 376.075 81.5568 370.315 83.0016C357.082 86.5536 362.544 132.96 358.224 138.48C360.547 143.227 365.107 154.238 363.581 164.966C364.378 164.635 365.175 164.27 365.981 163.862C390.168 151.589 367.426 94.1952 370.315 92.7504Z" stroke="#251760" stroke-width="3.01" stroke-miterlimit="10" stroke-linecap="round"/>
<path d="M367.901 362.88C356.007 337.099 346.512 303.187 352.263 277.92C360.567 241.464 356.583 208.253 356.583 208.253C346.834 201.754 300.269 225.941 307.488 277.2C312.605 313.44 337.92 350.563 355.738 372.283C359.861 370.603 364.896 367.68 367.901 362.88Z" fill="#E55C5C"/>
<path opacity="0.64" d="M367.901 362.88C356.007 337.099 346.512 303.187 352.263 277.92C360.567 241.464 356.583 208.253 356.583 208.253C346.834 201.754 300.269 225.941 307.488 277.2C307.824 279.6 308.251 282 308.755 284.371C311.559 285.533 314.717 284.774 318.317 282.614C318.317 282.614 336.73 272.146 341.419 303.187C344.818 325.666 351.811 350.405 362.539 368.515C364.667 366.992 366.486 365.08 367.901 362.88Z" fill="#CC4040"/>
<path d="M367.901 362.88C356.007 337.099 346.512 303.187 352.263 277.92C360.567 241.464 356.583 208.253 356.583 208.253C346.834 201.754 300.269 225.941 307.488 277.2C312.605 313.44 337.92 350.563 355.738 372.283C359.861 370.603 364.896 367.68 367.901 362.88Z" stroke="#251760" stroke-width="3.01" stroke-miterlimit="10" stroke-linecap="round"/>
<path d="M358.224 138.48C357.715 139.138 357.067 139.219 356.237 138.595C338.549 125.237 319.056 124.877 319.056 124.877L321.221 152.674C321.221 152.674 340.45 174.595 363.581 164.966C365.107 154.238 360.547 143.227 358.224 138.48Z" fill="#B0D5F7"/>
<path d="M354.067 149.059C349.267 139.162 337.497 130.651 331.737 126.912C329.237 126.264 326.995 125.822 325.113 125.52C322.305 129.413 322.022 142.704 326.333 157.416C333.533 163.253 347.635 171.605 363.581 164.966C364.064 161.236 363.962 157.453 363.278 153.754C360.029 155.41 356.496 154.051 354.067 149.059Z" fill="#7EC1F2"/>
<path d="M358.224 138.48C357.715 139.138 357.067 139.219 356.237 138.595C338.549 125.237 319.056 124.877 319.056 124.877L321.221 152.674C321.221 152.674 340.45 174.595 363.581 164.966C365.107 154.238 360.547 143.227 358.224 138.48Z" stroke="#251760" stroke-width="3.01" stroke-miterlimit="10" stroke-linecap="round"/>
<path d="M307.027 377.63C302.789 355.512 301.747 327.307 315.446 298.867C344.683 238.224 334.824 222.394 334.824 222.394C335.434 200.429 299.923 198.154 293.064 200.683C286.205 203.213 273.211 233.17 269.962 290.203C267.869 326.971 280.622 358.186 291.989 379.598C296.16 380.347 302.179 380.611 307.027 377.63Z" fill="#FC8181"/>
<path d="M315.446 298.867C339.331 249.322 337.123 229.69 335.52 224.16C320.64 218.16 297.456 210.984 284.909 211.987C282.835 216.741 281.089 221.631 279.682 226.622C284.069 233.611 292.8 244.915 304.982 248.328C323.03 253.378 280.435 334.248 299.928 377.554C300.274 378.322 300.605 379.066 300.931 379.805C303.088 379.487 305.162 378.746 307.032 377.626C302.789 355.512 301.733 327.307 315.446 298.867Z" fill="#EF6C6C"/>
<path d="M307.027 377.63C302.789 355.512 301.747 327.307 315.446 298.867C344.683 238.224 334.824 222.394 334.824 222.394C335.434 200.429 299.923 198.154 293.064 200.683C286.205 203.213 273.211 233.17 269.962 290.203C267.869 326.971 280.622 358.186 291.989 379.598C296.16 380.347 302.179 380.611 307.027 377.63Z" stroke="#251760" stroke-width="3.01" stroke-miterlimit="10" stroke-linecap="round"/>
<path d="M326.693 105.024C326.693 105.024 308.371 104.266 298.119 89.8608C290.539 77.2272 337.685 104.266 326.693 105.024Z" fill="#F9CE55" stroke="#251760" stroke-width="3.01" stroke-miterlimit="10" stroke-linecap="round"/>
<path d="M305.611 90.9552C305.413 90.6486 305.326 90.2828 305.367 89.9198C305.407 89.5568 305.571 89.2189 305.832 88.9632C308.16 86.6832 315.014 81.0336 323.746 83.3616C334.574 86.2416 329.731 104.002 328.181 104.515C326.631 105.029 311.04 99.36 305.611 90.9552Z" fill="#F9CE55"/>
<path opacity="0.58" d="M324.96 83.7696C326.511 87.9574 326.472 92.5688 324.85 96.7296C321.797 102.835 311.093 92.0496 310.114 95.8176C316.944 101.458 327.024 104.909 328.2 104.525C329.669 104.03 334.2 87.6144 324.96 83.7696Z" fill="#F9A846"/>
<path d="M305.832 88.9632C308.16 86.6832 315.014 81.0336 323.746 83.3616C334.574 86.2416 329.731 104.002 328.181 104.515C327.005 104.904 316.872 101.429 310.042 95.7648" stroke="#251760" stroke-width="3.01" stroke-miterlimit="10" stroke-linecap="round"/>
<path d="M280.877 226.776C280.026 226.274 279.365 225.504 278.999 224.587C278.632 223.67 278.58 222.657 278.851 221.707C280.944 214.373 285.768 195.49 285.485 177.941C285.12 155.558 285.485 130.651 314.362 127.762C342.797 124.92 353.381 152.52 360.922 220.214C361.027 221.163 360.826 222.121 360.349 222.947C359.871 223.774 359.142 224.426 358.267 224.808C347.443 229.541 309.528 243.864 280.877 226.776Z" fill="#B0D5F7"/>
<path d="M358.282 224.808C359.156 224.426 359.886 223.774 360.363 222.947C360.841 222.121 361.042 221.163 360.936 220.214C360.168 213.334 359.368 206.867 358.536 200.813C358.152 200.976 357.754 201.173 357.331 201.403C350.131 205.373 288.254 220.546 282.005 212.059C282.005 212.059 288.024 227.755 329.899 224.866C343.762 223.747 339.619 227.746 337.032 231.912C344.305 230.155 351.414 227.778 358.282 224.808Z" fill="#7EC1F2"/>
<path d="M280.877 226.776C280.026 226.274 279.365 225.504 278.999 224.587C278.632 223.67 278.58 222.657 278.851 221.707C280.944 214.373 285.768 195.49 285.485 177.941C285.12 155.558 285.485 130.651 314.362 127.762C342.797 124.92 353.381 152.52 360.922 220.214C361.027 221.163 360.826 222.121 360.349 222.947C359.871 223.774 359.142 224.426 358.267 224.808C347.443 229.541 309.528 243.864 280.877 226.776Z" stroke="#251760" stroke-width="3.01" stroke-miterlimit="10" stroke-linecap="round"/>
<path d="M301.368 129.566C301.368 129.566 303.331 123.072 311.981 120.926C320.631 118.781 324.048 123.154 323.323 125.827C322.599 128.501 301.368 129.566 301.368 129.566Z" fill="#B0D5F7" stroke="#251760" stroke-width="3.01" stroke-miterlimit="10" stroke-linecap="round"/>
<path d="M361.286 205.013C355.152 151.949 343.637 121.382 312.197 124.877C283.349 128.083 291.633 156.418 285.485 177.941C281.875 190.574 281.577 196.406 280.43 204.293C273.571 228.84 364.488 224.16 361.286 205.013Z" fill="#F9CE55"/>
<path opacity="0.58" d="M312.197 124.877C310.596 125.048 309.009 125.325 307.445 125.707C306.346 126.005 305.597 126.23 305.271 126.331L305.103 126.389C305.722 126.235 335.031 119.275 343.599 168.917C352.239 208.814 304.637 225.499 280.368 209.04C285.883 228.106 364.263 222.806 361.287 205.013C355.152 151.949 343.637 121.382 312.197 124.877Z" fill="#F9A846"/>
<path d="M354.859 167.203C350.664 169.382 315.552 186.518 287.621 166.522C287.212 170.378 286.497 174.197 285.485 177.941C284.251 182.261 283.406 185.76 282.782 188.837C289.022 191.693 326.726 207.293 358.224 184.834L358.445 184.627C357.395 178.384 356.2 172.576 354.859 167.203Z" fill="white"/>
<path d="M361.286 205.013C355.152 151.949 343.637 121.382 312.197 124.877C283.349 128.083 291.633 156.418 285.485 177.941C281.875 190.574 281.577 196.406 280.43 204.293C273.571 228.84 364.488 224.16 361.286 205.013Z" stroke="#251760" stroke-width="3.01" stroke-miterlimit="10" stroke-linecap="round"/>
<path d="M272.769 168.581C266.789 176.621 247.454 124.392 228.811 133.541C223.757 137.15 227.006 142.925 231.691 142.205C236.376 141.485 237.83 143.645 242.16 154.838C246.489 166.032 254.88 209.674 285.12 190.214C285.91 189.654 286.675 189.069 287.414 188.458C278.035 183.36 274.277 174.806 272.769 168.581Z" fill="#F9C7A5"/>
<path d="M285.12 190.214C285.91 189.654 286.675 189.069 287.414 188.458C283.342 186.265 279.878 183.095 277.334 179.232C255.528 190.934 241.781 141.312 235.354 142.57C237.586 143.736 239.194 147.163 242.17 154.838C246.485 165.994 254.88 209.674 285.12 190.214Z" fill="#F99F91"/>
<path d="M272.769 168.581C266.789 176.621 247.454 124.392 228.811 133.541C223.757 137.15 227.006 142.925 231.691 142.205C236.376 141.485 237.83 143.645 242.16 154.838C246.489 166.032 254.88 209.674 285.12 190.214C285.91 189.654 286.675 189.069 287.414 188.458C278.035 183.36 274.277 174.806 272.769 168.581Z" stroke="#251760" stroke-width="3.01" stroke-miterlimit="10" stroke-linecap="round"/>
<path d="M296.674 131.376C296.674 131.376 289.474 133.541 273.211 167.832C273.089 168.095 272.941 168.346 272.77 168.581C274.277 174.821 278.05 183.379 287.414 188.458C310.426 169.363 308.098 125.472 296.674 131.376Z" fill="#B0D5F7"/>
<path d="M284.04 175.411C281.837 177.576 279.59 178.771 277.32 179.251C279.864 183.114 283.327 186.284 287.4 188.477C308.885 170.65 308.28 131.208 298.805 130.877C298.848 131.011 303.105 156.706 284.04 175.411Z" fill="#7EC1F2"/>
<path d="M296.674 131.376C296.674 131.376 289.474 133.541 273.211 167.832C273.089 168.095 272.941 168.346 272.77 168.581C274.277 174.821 278.05 183.379 287.414 188.458C310.426 169.363 308.098 125.472 296.674 131.376Z" stroke="#251760" stroke-width="3.01" stroke-miterlimit="10" stroke-linecap="round"/>
<path d="M315.043 407.789C312.706 400.262 309.379 389.88 307.027 377.63C302.179 380.611 296.165 380.347 291.989 379.598C298.229 391.402 304.09 400.238 306.782 405.355C307.222 406.18 307.578 407.046 307.843 407.942C310.118 408.394 312.734 408.557 315.043 407.789Z" fill="#F9C7A5"/>
<path d="M300.926 379.81C307.32 394.142 310.608 402.85 312.077 408.307C313.084 408.271 314.083 408.096 315.043 407.789C312.705 400.262 309.379 389.88 307.027 377.63C305.157 378.751 303.083 379.492 300.926 379.81Z" fill="#F99F91"/>
<path d="M315.043 407.789C312.706 400.262 309.379 389.88 307.027 377.63C302.179 380.611 296.165 380.347 291.989 379.598C298.229 391.402 304.09 400.238 306.782 405.355C307.222 406.18 307.578 407.046 307.843 407.942C310.118 408.394 312.734 408.557 315.043 407.789Z" stroke="#251760" stroke-width="3.01" stroke-miterlimit="10" stroke-linecap="round"/>
<path d="M288.734 420.878C288.734 423.403 309.667 422.683 316.886 420.878C318.845 420.398 317.486 415.646 315.043 407.789C312.734 408.557 310.118 408.394 307.843 407.942C311.179 419.626 288.734 418.512 288.734 420.878Z" fill="#251760" stroke="#251760" stroke-width="3.01" stroke-miterlimit="10" stroke-linecap="round"/>
<path d="M380.424 385.776C375.693 378.462 371.508 370.809 367.901 362.88C364.896 367.68 359.861 370.608 355.738 372.288C363.139 381.298 369.259 387.648 372.12 390.202C373.059 391.026 373.824 392.03 374.371 393.154C376.848 391.2 378.888 388.397 380.424 385.776Z" fill="#F99F91" stroke="#251760" stroke-width="3.01" stroke-miterlimit="10" stroke-linecap="round"/>
<path d="M367.786 419.794C368.87 421.963 390.528 401.026 384.029 390.917C382.858 389.362 381.653 387.638 380.424 385.776C378.888 388.397 376.848 391.219 374.371 393.149C378.922 402.533 366.816 417.85 367.786 419.794Z" fill="#251760" stroke="#251760" stroke-width="3.01" stroke-miterlimit="10" stroke-linecap="round"/>
<path d="M319.056 124.877C319.056 124.877 342.879 149.059 340.354 210.797" stroke="#251760" stroke-width="3.01" stroke-miterlimit="10" stroke-linecap="round"/>
<path d="M308.698 89.0519C310.045 87.8653 310.602 86.2971 309.943 85.5493C309.284 84.8015 307.658 85.1573 306.311 86.3439C304.965 87.5305 304.408 89.0987 305.067 89.8465C305.726 90.5943 307.352 90.2386 308.698 89.0519Z" fill="white" stroke="#251760" stroke-width="3.01" stroke-miterlimit="10" stroke-linecap="round"/>
<path d="M89.4722 420.878H448.287" stroke="#251760" stroke-width="3.01" stroke-miterlimit="10" stroke-linecap="round"/>
<path d="M304.397 105.672C304.991 105.672 305.472 105.191 305.472 104.597C305.472 104.003 304.991 103.522 304.397 103.522C303.803 103.522 303.322 104.003 303.322 104.597C303.322 105.191 303.803 105.672 304.397 105.672Z" fill="#251760"/>
<path d="M299.923 116.938C300.721 116.938 301.368 116.291 301.368 115.493C301.368 114.695 300.721 114.048 299.923 114.048C299.125 114.048 298.479 114.695 298.479 115.493C298.479 116.291 299.125 116.938 299.923 116.938Z" fill="#251760" stroke="#251760" stroke-width="3.01" stroke-miterlimit="10" stroke-linecap="round"/>
<path d="M130.762 116.035V217.2C130.762 217.441 130.833 217.676 130.967 217.876C131.101 218.076 131.291 218.232 131.513 218.325C131.735 218.417 131.98 218.442 132.216 218.395C132.452 218.349 132.669 218.234 132.84 218.064C142.743 208.128 182.635 162.485 132.84 115.157C132.669 114.986 132.45 114.871 132.213 114.825C131.975 114.779 131.729 114.805 131.506 114.899C131.283 114.993 131.094 115.151 130.961 115.354C130.828 115.556 130.759 115.793 130.762 116.035Z" fill="#AAC8F9"/>
<path d="M132.84 218.064C141.907 208.968 176.117 169.93 143.578 127.07C141.034 129.336 139.555 132.35 139.618 135.264C139.872 147.413 140.415 154.027 140.415 154.027C140.415 154.027 148.983 147.662 149.741 170.443C150.499 193.224 130.762 202.08 130.762 202.08V217.2C130.762 217.441 130.833 217.676 130.967 217.876C131.101 218.076 131.291 218.232 131.513 218.325C131.735 218.417 131.98 218.442 132.216 218.395C132.452 218.349 132.669 218.234 132.84 218.064Z" fill="#89B5F7"/>
<path d="M130.762 116.035V217.2C130.762 217.441 130.833 217.676 130.967 217.876C131.101 218.076 131.291 218.232 131.513 218.325C131.735 218.417 131.98 218.442 132.216 218.395C132.452 218.349 132.669 218.234 132.84 218.064C142.743 208.128 182.635 162.485 132.84 115.157C132.669 114.986 132.45 114.871 132.213 114.825C131.975 114.779 131.729 114.805 131.506 114.899C131.283 114.993 131.094 115.151 130.961 115.354C130.828 115.556 130.759 115.793 130.762 116.035Z" stroke="#5A4DAA" stroke-width="3.01" stroke-miterlimit="10"/>
<path d="M97.0993 116.035V217.2C97.1001 217.442 97.029 217.678 96.895 217.879C96.7611 218.081 96.5704 218.237 96.3472 218.33C96.1239 218.423 95.8782 218.447 95.6412 218.399C95.4042 218.352 95.1866 218.235 95.0161 218.064C85.1137 208.128 45.2209 162.485 95.0161 115.157C95.1875 114.985 95.4064 114.868 95.6448 114.821C95.8831 114.774 96.1301 114.799 96.3539 114.893C96.5778 114.988 96.7683 115.147 96.9011 115.35C97.034 115.554 97.103 115.792 97.0993 116.035Z" fill="#AAC8F9"/>
<path d="M97.0993 124.728C93.9457 124.301 89.4193 123.994 85.9249 124.968C84.077 127.247 82.3529 129.623 80.7601 132.086C80.827 132.622 80.9296 133.153 81.0673 133.675C81.0673 133.675 93.0673 172.469 85.9585 189.427C81.1585 200.563 73.4785 183.466 73.4785 183.466C78.8977 200.611 90.3361 213.35 95.0305 218.064C95.201 218.235 95.4186 218.352 95.6556 218.399C95.8926 218.447 96.1384 218.423 96.3616 218.33C96.5849 218.237 96.7755 218.081 96.9095 217.879C97.0434 217.678 97.1145 217.442 97.1137 217.2L97.0993 124.728Z" fill="#89B5F7"/>
<path d="M97.0993 116.035V217.2C97.1001 217.442 97.029 217.678 96.895 217.879C96.7611 218.081 96.5704 218.237 96.3472 218.33C96.1239 218.423 95.8782 218.447 95.6412 218.399C95.4042 218.352 95.1866 218.235 95.0161 218.064C85.1137 208.128 45.2209 162.485 95.0161 115.157C95.1875 114.985 95.4064 114.868 95.6448 114.821C95.8831 114.774 96.1301 114.799 96.3539 114.893C96.5778 114.988 96.7683 115.147 96.9011 115.35C97.034 115.554 97.103 115.792 97.0993 116.035Z" stroke="#5A4DAA" stroke-width="3.01" stroke-miterlimit="10"/>
<path d="M124.959 187.426H102.202C100.253 187.426 98.7362 186.029 98.9522 184.435L100.963 169.526C101.146 168.163 102.547 167.126 104.213 167.126H122.698C124.344 167.126 125.736 168.139 125.943 169.483L128.203 184.397C128.448 186.005 126.927 187.426 124.959 187.426Z" fill="#5A4DAA" stroke="#5A4DAA" stroke-width="3.01" stroke-miterlimit="10"/>
<path d="M114.072 12C114.072 12 41.357 66.4176 97.2722 174.998H130.896C186.792 66.4176 114.072 12 114.072 12Z" fill="#D2E1F9"/>
<path d="M114.072 12C114.696 12.5952 151.387 48.0864 135.072 125.635C129 156.259 114.062 115.003 114.062 115.003L115.627 175.003H130.896C186.792 66.4176 114.072 12 114.072 12Z" fill="#AAC8F9"/>
<path d="M114.072 12C114.072 12 41.357 66.4176 97.2722 174.998H130.896C186.792 66.4176 114.072 12 114.072 12Z" stroke="#5A4DAA" stroke-width="3.01" stroke-miterlimit="10"/>
<path d="M112.891 118.517C98.7602 162.979 109.186 205.622 112.891 218.141C112.966 218.393 113.12 218.614 113.331 218.771C113.542 218.928 113.797 219.013 114.06 219.013C114.323 219.013 114.579 218.928 114.789 218.771C115 218.614 115.154 218.393 115.229 218.141C118.93 205.622 129.355 162.979 115.229 118.517C115.151 118.267 114.996 118.049 114.786 117.895C114.576 117.74 114.321 117.656 114.06 117.656C113.799 117.656 113.545 117.74 113.334 117.895C113.124 118.049 112.969 118.267 112.891 118.517Z" fill="#AAC8F9"/>
<path d="M115.224 218.141C118.925 205.622 129.35 162.979 115.224 118.517C115.169 118.343 115.076 118.184 114.952 118.052C114.828 117.919 114.675 117.816 114.506 117.749C114.337 117.683 114.154 117.655 113.973 117.669C113.792 117.682 113.616 117.736 113.458 117.826C113.458 118.066 113.515 118.306 113.554 118.555C113.554 118.555 121.402 160.574 112.037 186.134C110.525 190.262 109.253 193.978 108.197 197.314C109.327 204.345 110.889 211.301 112.872 218.141C112.942 218.399 113.096 218.626 113.308 218.788C113.521 218.95 113.781 219.038 114.048 219.038C114.315 219.038 114.575 218.95 114.788 218.788C115 218.626 115.153 218.399 115.224 218.141Z" fill="#89B5F7"/>
<path d="M112.891 118.517C98.7602 162.979 109.186 205.622 112.891 218.141C112.966 218.393 113.12 218.614 113.331 218.771C113.542 218.928 113.797 219.013 114.06 219.013C114.323 219.013 114.579 218.928 114.789 218.771C115 218.614 115.154 218.393 115.229 218.141C118.93 205.622 129.355 162.979 115.229 118.517C115.151 118.267 114.996 118.049 114.786 117.895C114.576 117.74 114.321 117.656 114.06 117.656C113.799 117.656 113.545 117.74 113.334 117.895C113.124 118.049 112.969 118.267 112.891 118.517Z" stroke="#5A4DAA" stroke-width="3.01" stroke-miterlimit="10"/>
<path d="M114.053 93.504C124.678 93.504 133.291 84.8907 133.291 74.2656C133.291 63.6405 124.678 55.0272 114.053 55.0272C103.428 55.0272 94.8145 63.6405 94.8145 74.2656C94.8145 84.8907 103.428 93.504 114.053 93.504Z" fill="#AAC8F9"/>
<path d="M117.091 97.3008C127.717 97.3008 136.33 88.6875 136.33 78.0624C136.33 67.4373 127.717 58.824 117.091 58.824C106.466 58.824 97.853 67.4373 97.853 78.0624C97.853 88.6875 106.466 97.3008 117.091 97.3008Z" fill="#AAC8F9"/>
<path d="M114.053 93.504C124.678 93.504 133.291 84.8907 133.291 74.2656C133.291 63.6405 124.678 55.0272 114.053 55.0272C103.428 55.0272 94.8145 63.6405 94.8145 74.2656C94.8145 84.8907 103.428 93.504 114.053 93.504Z" stroke="#5A4DAA" stroke-width="3.01" stroke-miterlimit="10"/>
<path opacity="0.63" d="M114.053 89.7072C122.581 89.7072 129.495 82.7937 129.495 74.2656C129.495 65.7374 122.581 58.824 114.053 58.824C105.525 58.824 98.6113 65.7374 98.6113 74.2656C98.6113 82.7937 105.525 89.7072 114.053 89.7072Z" fill="white"/>
<path d="M111.086 89.4144L127.92 67.464C126.977 65.5567 125.654 63.8627 124.032 62.4864L105.269 86.9664C107.017 88.1773 108.998 89.011 111.086 89.4144Z" fill="white"/>
<path d="M103.046 85.0848L121.656 60.8256C120.675 60.2682 119.635 59.8207 118.555 59.4912L100.958 82.44C101.557 83.3941 102.257 84.2808 103.046 85.0848Z" fill="white"/>
<path d="M114.053 89.7072C122.581 89.7072 129.495 82.7937 129.495 74.2656C129.495 65.7374 122.581 58.824 114.053 58.824C105.525 58.824 98.6113 65.7374 98.6113 74.2656C98.6113 82.7937 105.525 89.7072 114.053 89.7072Z" stroke="#5A4DAA" stroke-width="3.01" stroke-miterlimit="10"/>
<path d="M136.733 39.192C126.192 21.072 114.072 12 114.072 12C114.072 12 102.811 20.4336 92.5537 37.2768C100.253 34.224 118.358 27.9456 136.733 39.192Z" fill="#AAC8F9"/>
<path d="M129.039 35.4336C131.714 36.435 134.286 37.6937 136.719 39.192C136.57 38.9328 136.421 38.6784 136.267 38.424C136.243 38.3808 136.219 38.3376 136.191 38.2944L135.744 37.5504L135.691 37.464C135.043 36.3936 134.391 35.352 133.733 34.3488C133.575 34.0992 133.411 33.8688 133.253 33.6144L133.219 33.5664C128.603 26.5281 123.131 20.0901 116.928 14.4C116.472 13.992 116.064 13.632 115.704 13.3296L115.671 13.296L115.488 13.1424L115.45 13.1136L114.802 12.5712L114.754 12.5328L114.653 12.4512L114.605 12.4128L114.514 12.3408L114.475 12.3072L114.255 12.1344L114.221 12.1104L114.183 12.0816H114.154C114.351 12.2784 122.184 19.8624 129.039 35.4336Z" fill="#89B5F7"/>
<path d="M136.733 39.192C126.192 21.072 114.072 12 114.072 12C114.072 12 102.811 20.4336 92.5537 37.2768C100.253 34.224 118.359 27.9456 136.733 39.192Z" stroke="#5A4DAA" stroke-width="3.01" stroke-miterlimit="10"/>
<path d="M124.848 252.749C126.667 252.749 128.412 252.026 129.698 250.74C130.985 249.453 131.707 247.709 131.707 245.89C131.707 244.07 130.985 242.326 129.698 241.039C128.412 239.753 126.667 239.03 124.848 239.03V194.184" stroke="#5A4DAA" stroke-width="3.01" stroke-miterlimit="10" stroke-linecap="round"/>
<path d="M104.64 194.184V229.037C103.28 229.037 101.977 229.577 101.015 230.538C100.054 231.5 99.5137 232.804 99.5137 234.163C99.5137 235.523 100.054 236.827 101.015 237.788C101.977 238.749 103.28 239.29 104.64 239.29" stroke="#5A4DAA" stroke-width="3.01" stroke-miterlimit="10" stroke-linecap="round"/>
<path d="M111.49 225.59V258.437" stroke="#5A4DAA" stroke-width="3.01" stroke-miterlimit="10" stroke-linecap="round"/>
<path d="M118.713 219.091V248.693" stroke="#5A4DAA" stroke-width="3.01" stroke-miterlimit="10" stroke-linecap="round"/>
<path d="M137.122 239.669C137.09 238.084 137.374 236.51 137.959 235.037C138.543 233.564 139.415 232.222 140.524 231.09C141.634 229.959 142.957 229.06 144.418 228.446C145.879 227.832 147.448 227.516 149.033 227.516C150.617 227.516 152.186 227.832 153.647 228.446C155.108 229.06 156.432 229.959 157.541 231.09C158.65 232.222 159.523 233.564 160.107 235.037C160.691 236.51 160.976 238.084 160.944 239.669" stroke="#5A4DAA" stroke-width="3.01" stroke-miterlimit="10" stroke-linecap="round"/>
<path d="M69.979 235.334C70.0237 233.737 70.6899 232.219 71.8359 231.105C72.9819 229.99 74.5173 229.367 76.1158 229.367C77.7143 229.367 79.2498 229.99 80.3958 231.105C81.5418 232.219 82.2079 233.737 82.2526 235.334" stroke="#5A4DAA" stroke-width="3.01" stroke-miterlimit="10" stroke-linecap="round"/>
<path d="M188.741 251.942C188.718 251.122 188.86 250.305 189.158 249.541C189.456 248.776 189.904 248.079 190.476 247.491C191.048 246.902 191.733 246.435 192.489 246.115C193.245 245.796 194.057 245.632 194.877 245.632C195.698 245.632 196.51 245.796 197.266 246.115C198.022 246.435 198.707 246.902 199.279 247.491C199.851 248.079 200.299 248.776 200.597 249.541C200.895 250.305 201.037 251.122 201.014 251.942" stroke="#5A4DAA" stroke-width="3.01" stroke-miterlimit="10" stroke-linecap="round"/>
<path d="M41.4624 251.942C41.431 250.406 41.7067 248.878 42.2731 247.449C42.8395 246.02 43.6854 244.719 44.7611 243.621C45.8368 242.523 47.1208 241.651 48.5379 241.055C49.9549 240.46 51.4765 240.153 53.0136 240.153C54.5506 240.153 56.0722 240.46 57.4893 241.055C58.9063 241.651 60.1903 242.523 61.266 243.621C62.3418 244.719 63.1876 246.02 63.754 247.449C64.3205 248.878 64.5961 250.406 64.5648 251.942" stroke="#5A4DAA" stroke-width="3.01" stroke-miterlimit="10" stroke-linecap="round"/>
<path d="M340.354 46.2624C342.469 46.2624 344.184 44.5475 344.184 42.432C344.184 40.3166 342.469 38.6016 340.354 38.6016C338.238 38.6016 336.523 40.3166 336.523 42.432C336.523 44.5475 338.238 46.2624 340.354 46.2624Z" fill="#5A4DAA"/>
<path d="M353.126 46.2624C355.242 46.2624 356.957 44.5475 356.957 42.432C356.957 40.3166 355.242 38.6016 353.126 38.6016C351.011 38.6016 349.296 40.3166 349.296 42.432C349.296 44.5475 351.011 46.2624 353.126 46.2624Z" fill="#5A4DAA"/>
<path d="M327.581 46.2624C329.696 46.2624 331.411 44.5475 331.411 42.432C331.411 40.3166 329.696 38.6016 327.581 38.6016C325.465 38.6016 323.75 40.3166 323.75 42.432C323.75 44.5475 325.465 46.2624 327.581 46.2624Z" fill="#5A4DAA"/>
<path opacity="0.68" d="M438.538 70.7328C441.13 70.7328 443.232 68.631 443.232 66.0384C443.232 63.4457 441.13 61.344 438.538 61.344C435.945 61.344 433.843 63.4457 433.843 66.0384C433.843 68.631 435.945 70.7328 438.538 70.7328Z" fill="white"/>
<path opacity="0.68" d="M30.9937 108.274C33.5864 108.274 35.6881 106.172 35.6881 103.579C35.6881 100.987 33.5864 98.8848 30.9937 98.8848C28.4011 98.8848 26.2993 100.987 26.2993 103.579C26.2993 106.172 28.4011 108.274 30.9937 108.274Z" fill="white"/>
<path d="M172.546 419.434H143.098C143.098 419.434 135.73 400.09 149.237 401.011C162.744 401.933 140.026 375.528 148.93 367.853C157.834 360.178 167.65 366.931 171.038 375.221C174.427 383.51 183.322 377.064 183.322 377.064C183.322 377.064 180.557 347.894 190.08 345.744C199.603 343.594 208.502 354.034 206.659 379.517C215.563 363.245 228.706 356.198 233.803 371.544C238.901 386.89 225.082 400.704 225.082 400.704C225.082 400.704 245.347 377.664 253.33 384.432C261.312 391.2 251.179 408.379 251.179 408.379C251.179 408.379 276.36 394.565 275.746 419.419H172.546V419.434Z" fill="#609AEF" stroke="#5A4DAA" stroke-width="3.01" stroke-miterlimit="10"/>
<path d="M161.827 419.434C161.827 419.434 136.037 400.09 144.941 384.125C153.845 368.16 167.352 390.878 167.352 390.878C167.352 390.878 149.544 348.509 167.352 340.526C185.16 332.544 195.293 384.125 195.293 384.125C195.293 384.125 194.986 345.437 212.487 345.725C229.987 346.013 218.323 386.88 218.323 386.88C218.323 386.88 233.367 365.386 243.192 370.296C253.018 375.206 243.192 396.696 238.589 399.773C233.986 402.85 255.783 385.651 261.307 391.176C266.832 396.701 256.397 416.045 251.482 419.424L161.827 419.434Z" fill="#AAC8F9"/>
<path d="M216.787 363.245C219.552 376.757 216.787 389.957 216.787 389.957C216.787 389.957 217.786 388.315 219.264 385.608C218.659 386.405 218.304 386.89 218.304 386.89C218.304 386.89 229.973 346.051 212.467 345.744C207.187 345.653 203.534 349.104 201 353.981C201.019 353.981 214.022 349.738 216.787 363.245Z" fill="#89B5F7"/>
<path d="M231.595 406.08C235.762 402.501 239.545 398.497 242.88 394.133C247.018 386.51 250.426 373.92 243.197 370.306C240.341 368.866 237.043 369.686 233.803 371.544C233.803 371.544 245.04 377.064 238.901 392.722C236.203 399.576 233.635 403.68 231.595 406.08Z" fill="#89B5F7"/>
<path d="M195.293 384.125C195.293 384.125 185.16 332.544 167.352 340.526C163.934 342.058 161.832 344.846 160.661 348.384C173.496 343.901 185.481 362.99 195.293 384.125Z" fill="#89B5F7"/>
<path d="M167.659 392.722C167.108 391.186 166.426 389.7 165.619 388.282C161.688 382.819 151.906 371.635 144.941 384.125C143.713 386.31 143.07 388.775 143.074 391.282C143.266 391.2 158.506 383.568 167.659 392.722Z" fill="#89B5F7"/>
<path d="M261.307 391.2C259.43 389.323 255.672 390.072 251.707 391.752C251.822 391.752 259.704 391.315 250.267 406.858C244.771 415.901 225.883 418.699 210.907 419.448H251.501C256.397 416.054 266.837 396.715 261.307 391.2Z" fill="#89B5F7"/>
<path d="M161.827 419.434C161.827 419.434 136.037 400.09 144.941 384.125C153.845 368.16 167.352 390.878 167.352 390.878C167.352 390.878 149.544 348.509 167.352 340.526C185.16 332.544 195.293 384.125 195.293 384.125C195.293 384.125 194.986 345.437 212.487 345.725C229.987 346.013 218.323 386.88 218.323 386.88C218.323 386.88 233.367 365.386 243.192 370.296C253.018 375.206 243.192 396.696 238.589 399.773C233.986 402.85 255.783 385.651 261.307 391.176C266.832 396.701 256.397 416.045 251.482 419.424L161.827 419.434Z" stroke="#5A4DAA" stroke-width="3.01" stroke-miterlimit="10"/>
</svg>
