<svg width="100" height="100" viewBox="0 0 100 100" fill="none" xmlns="http://www.w3.org/2000/svg">
<rect width="100" height="100" rx="8" fill="#15284C"/>
<path fill-rule="evenodd" clip-rule="evenodd" d="M57.1588 32.0011C56.1692 32.0011 55.3682 31.2215 55.3682 30.2584C55.3682 29.2953 56.1692 28.5192 57.1588 28.5192C58.1483 28.5192 58.9494 29.2953 58.9494 30.2584C58.9494 31.2215 58.1483 32.0011 57.1588 32.0011ZM42.8412 32.0011C41.8517 32.0011 41.0506 31.2215 41.0506 30.2584C41.0506 29.2953 41.8517 28.5192 42.8412 28.5192C43.8308 28.5192 44.6318 29.2953 44.6318 30.2584C44.6318 31.2215 43.8308 32.0011 42.8412 32.0011ZM58.2172 25.0232L58.8841 24.0425L59.551 23.0759L61.0372 20.9028C61.222 20.6347 61.1459 20.2748 60.8704 20.0984C60.5986 19.9185 60.2253 19.9926 60.0476 20.2607L57.7786 23.5662L57.0971 24.5611C54.9404 23.7462 52.5373 23.2911 50 23.2911C47.4663 23.2911 45.0596 23.7462 42.9029 24.5611L42.225 23.5662L41.5545 22.589L39.9596 20.2607C39.7747 19.9926 39.405 19.922 39.1296 20.0984C38.8577 20.2748 38.7816 20.6347 38.9628 20.9028L40.449 23.0759L41.1159 24.0425L41.7865 25.0232C36.7228 27.3198 33.2974 31.6695 33.2974 36.6472H66.7026C66.7026 31.6695 63.2772 27.3198 58.2172 25.0232ZM33.5548 38.9685H33.2974V64.5166C33.2974 66.5451 34.9902 68.1961 37.078 68.1961H39.8037C39.7095 68.503 39.6588 68.824 39.6588 69.1627V76.5181C39.6588 78.4407 41.2645 80 43.2399 80C45.2154 80 46.8211 78.4407 46.8211 76.5181V69.1627C46.8211 68.824 46.7668 68.503 46.6762 68.1961H53.3238C53.2332 68.503 53.1825 68.824 53.1825 69.1627V76.5181C53.1825 78.4407 54.7846 80 56.7601 80C58.7391 80 60.3448 78.4407 60.3448 76.5181V69.1627C60.3448 68.824 60.2905 68.503 60.1963 68.1961H62.9256C65.0135 68.1961 66.7026 66.5451 66.7026 64.5166V38.9685H33.5548ZM27.3312 38.9685C25.3521 38.9685 23.75 40.5278 23.75 42.4504V57.3552C23.75 59.2778 25.3521 60.8372 27.3312 60.8372C29.3067 60.8372 30.9088 59.2778 30.9088 57.3552V42.4504C30.9088 40.5278 29.3067 38.9685 27.3312 38.9685ZM72.6724 38.9685C70.6933 38.9685 69.0912 40.5278 69.0912 42.4504V57.3552C69.0912 59.2778 70.6933 60.8372 72.6724 60.8372C74.6479 60.8372 76.25 59.2778 76.25 57.3552V42.4504C76.25 40.5278 74.6479 38.9685 72.6724 38.9685Z" fill="#A1EDF7"/>
</svg>
