<svg width="100" height="100" viewBox="0 0 100 100" fill="none" xmlns="http://www.w3.org/2000/svg">
<rect width="100" height="100" rx="8" fill="#15284C"/>
<g clip-path="url(#clip0_2615_155)">
<path d="M37.0525 45.1341C37.0525 45.8659 37.1314 46.4593 37.2696 46.8945C37.4275 47.3297 37.6248 47.8044 37.9011 48.3187C37.9998 48.4769 38.0393 48.6352 38.0393 48.7736C38.0393 48.9714 37.9209 49.1692 37.6643 49.367L36.4209 50.1978C36.2432 50.3165 36.0656 50.3758 35.9077 50.3758C35.7103 50.3758 35.513 50.2769 35.3156 50.0989C35.0393 49.8022 34.8025 49.4857 34.6051 49.1692C34.4077 48.833 34.2103 48.4572 33.9932 48.0022C32.4538 49.822 30.5196 50.7319 28.1906 50.7319C26.5327 50.7319 25.2103 50.2572 24.2432 49.3077C23.2761 48.3583 22.7827 47.0923 22.7827 45.5099C22.7827 43.8286 23.3748 42.4637 24.5788 41.4352C25.7827 40.4066 27.3814 39.8923 29.4143 39.8923C30.0853 39.8923 30.7761 39.9517 31.5064 40.0506C32.2367 40.1495 32.9867 40.3077 33.7761 40.4857V39.0418C33.7761 37.5385 33.4603 36.4901 32.8485 35.8769C32.2169 35.2637 31.1511 34.967 29.6314 34.967C28.9406 34.967 28.2301 35.0462 27.4998 35.2242C26.7696 35.4022 26.059 35.6198 25.3682 35.8967C25.0525 36.0352 24.8156 36.1143 24.6775 36.1539C24.5393 36.1934 24.4406 36.2132 24.3617 36.2132C24.0853 36.2132 23.9472 36.0154 23.9472 35.6V34.6308C23.9472 34.3143 23.9867 34.0769 24.0853 33.9385C24.184 33.8 24.3617 33.6615 24.638 33.5231C25.3288 33.167 26.1577 32.8703 27.1248 32.633C28.0919 32.3758 29.1182 32.2572 30.2038 32.2572C32.5525 32.2572 34.2696 32.7912 35.3748 33.8593C36.4603 34.9275 37.013 36.5495 37.013 38.7253V45.1341H37.0525ZM29.0393 48.1407C29.6906 48.1407 30.3617 48.022 31.0722 47.7846C31.7827 47.5473 32.4143 47.1121 32.9472 46.5187C33.263 46.1429 33.4998 45.7275 33.6182 45.2528C33.7367 44.778 33.8156 44.2044 33.8156 43.5319V42.7011C33.2432 42.5626 32.6314 42.444 31.9998 42.3648C31.3682 42.2857 30.7564 42.2462 30.1446 42.2462C28.8222 42.2462 27.8551 42.5033 27.2038 43.0374C26.5525 43.5714 26.2367 44.3231 26.2367 45.3121C26.2367 46.2418 26.4735 46.9341 26.9669 47.4088C27.4406 47.9033 28.1314 48.1407 29.0393 48.1407ZM44.888 50.2769C44.5327 50.2769 44.2959 50.2176 44.138 50.0791C43.9801 49.9604 43.8419 49.6835 43.7235 49.3077L39.0853 34.0176C38.9669 33.622 38.9077 33.3648 38.9077 33.2264C38.9077 32.9099 39.0656 32.7319 39.3814 32.7319H41.3156C41.6906 32.7319 41.9472 32.7912 42.0853 32.9297C42.2432 33.0484 42.3617 33.3253 42.4801 33.7011L45.7959 46.7956L48.8748 33.7011C48.9735 33.3055 49.0919 33.0484 49.2498 32.9297C49.4077 32.811 49.684 32.7319 50.0393 32.7319H51.6182C51.9932 32.7319 52.2498 32.7912 52.4077 32.9297C52.5656 33.0484 52.7038 33.3253 52.7827 33.7011L55.9011 46.9539L59.3156 33.7011C59.434 33.3055 59.5722 33.0484 59.7103 32.9297C59.8682 32.811 60.1248 32.7319 60.4801 32.7319H62.3156C62.6314 32.7319 62.809 32.8901 62.809 33.2264C62.809 33.3253 62.7893 33.4242 62.7696 33.5429C62.7498 33.6615 62.7103 33.8198 62.6314 34.0374L57.8748 49.3275C57.7564 49.7231 57.6182 49.9802 57.4603 50.0989C57.3024 50.2176 57.0459 50.2967 56.7103 50.2967H55.013C54.638 50.2967 54.3814 50.2374 54.2235 50.0989C54.0656 49.9604 53.9274 49.7033 53.8485 49.3077L50.7893 36.5495L47.7498 49.2879C47.6511 49.6835 47.5327 49.9407 47.3748 50.0791C47.2169 50.2176 46.9406 50.2769 46.5853 50.2769H44.888ZM70.2498 50.811C69.2235 50.811 68.1972 50.6923 67.2103 50.455C66.2235 50.2176 65.4538 49.9604 64.9406 49.6637C64.6248 49.4857 64.4077 49.2879 64.3288 49.1099C64.2498 48.9319 64.2103 48.7341 64.2103 48.5561V47.5473C64.2103 47.1319 64.3682 46.9341 64.6643 46.9341C64.7827 46.9341 64.9011 46.9539 65.0196 46.9934C65.138 47.033 65.3156 47.1121 65.513 47.1912C66.184 47.4879 66.9143 47.7253 67.684 47.8835C68.4735 48.0418 69.2432 48.1209 70.0327 48.1209C71.2761 48.1209 72.2432 47.9033 72.9143 47.4681C73.5853 47.033 73.9406 46.4 73.9406 45.589C73.9406 45.0352 73.763 44.5802 73.4077 44.2044C73.0524 43.8286 72.3814 43.4923 71.4143 43.1758L68.5524 42.2857C67.1117 41.8308 66.0459 41.1582 65.3946 40.2681C64.7432 39.3978 64.4077 38.4286 64.4077 37.4C64.4077 36.5692 64.5853 35.8374 64.9406 35.2044C65.2959 34.5714 65.7696 34.0176 66.3617 33.5824C66.9538 33.1275 67.6248 32.7912 68.4143 32.5539C69.2038 32.3165 70.0327 32.2176 70.9011 32.2176C71.3353 32.2176 71.7893 32.2374 72.2235 32.2967C72.6774 32.3561 73.0919 32.4352 73.5064 32.5143C73.9011 32.6132 74.2761 32.7121 74.6314 32.8308C74.9867 32.9495 75.263 33.0681 75.4603 33.1868C75.7367 33.3451 75.934 33.5033 76.0524 33.6813C76.1709 33.8396 76.2301 34.0572 76.2301 34.3341V35.2637C76.2301 35.6791 76.0722 35.8967 75.7761 35.8967C75.6182 35.8967 75.3617 35.8176 75.0261 35.6593C73.9011 35.1451 72.638 34.8879 71.2367 34.8879C70.1117 34.8879 69.2235 35.0659 68.6117 35.4418C67.9998 35.8176 67.684 36.3912 67.684 37.2022C67.684 37.7561 67.8814 38.2308 68.2761 38.6066C68.6709 38.9824 69.4011 39.3583 70.4472 39.6945L73.2498 40.5846C74.6709 41.0396 75.6972 41.6725 76.309 42.4835C76.9209 43.2945 77.2169 44.2242 77.2169 45.2528C77.2169 46.1033 77.0393 46.8747 76.7038 47.5473C76.3485 48.2198 75.8748 48.8132 75.263 49.2879C74.6511 49.7824 73.9209 50.1385 73.0722 50.3956C72.184 50.6725 71.2564 50.811 70.2498 50.811Z" fill="#A1EDF7"/>
<path fill-rule="evenodd" clip-rule="evenodd" d="M73.9802 60.4242C67.4867 65.2308 58.0525 67.7825 49.9407 67.7825C38.5723 67.7825 28.3288 63.5693 20.592 56.5671C19.9802 56.0132 20.5328 55.2616 21.2631 55.6967C29.6315 60.5627 39.9538 63.5099 50.6315 63.5099C57.8354 63.5099 65.7499 62.0066 73.0328 58.9209C74.1183 58.4264 75.0459 59.633 73.9802 60.4242Z" fill="#A1EDF7"/>
<path fill-rule="evenodd" clip-rule="evenodd" d="M76.684 57.3385C75.8551 56.2704 71.1972 56.8242 69.0853 57.0814C68.4538 57.1605 68.3551 56.6066 68.9274 56.1912C72.638 53.5803 78.7367 54.3319 79.4472 55.2022C80.1577 56.0923 79.2498 62.2044 75.7761 65.1319C75.2432 65.5868 74.7301 65.3495 74.9669 64.7561C75.7564 62.7978 77.513 58.3868 76.684 57.3385Z" fill="#A1EDF7"/>
</g>
<defs>
<clipPath id="clip0_2615_155">
<rect width="60" height="36" fill="white" transform="translate(20 32)"/>
</clipPath>
</defs>
</svg>
