<svg width="100" height="100" viewBox="0 0 100 100" fill="none" xmlns="http://www.w3.org/2000/svg">
<rect width="100" height="100" rx="8" fill="#15284C"/>
<path d="M56.6487 75.1108C59.1834 73.5417 61.1146 71.3691 61.7181 68.3517C62.563 64.3686 61.1146 61.1097 58.4592 58.3336C56.7694 56.5232 54.5968 55.0748 52.545 53.7471C51.0966 52.7815 49.5275 51.8159 48.3205 50.4882C47.2342 49.4019 46.51 48.0743 46.7514 46.1431C45.4237 47.4708 44.6995 48.9191 44.5788 50.4882C44.3374 52.2987 44.9409 53.8678 46.0272 55.3162C46.51 55.9197 46.9928 56.5232 47.3549 57.1267C48.0791 57.9715 48.5619 59.0578 48.5619 60.1441C48.5619 62.0753 47.3549 63.5237 45.6651 63.6444C43.8546 63.7651 42.2856 62.3167 42.1649 60.5062C42.1649 59.9027 42.2855 59.2992 42.2855 58.4543C39.5095 60.7476 37.5783 63.5237 37.4576 67.1447C37.3369 70.8863 39.3888 73.421 42.2855 75.5936C42.0441 75.835 41.8027 75.5936 41.5614 75.5936C33.1124 72.6968 28.6466 64.7307 30.5778 55.799C31.6641 50.4882 34.5608 46.0224 38.0611 42.0393C40.4751 39.2632 43.2511 36.97 45.6651 34.3146C47.2342 32.5041 48.5619 30.5729 49.2861 28.2797C49.7689 26.7106 49.6482 25.5036 49.1654 24.4173C49.4068 24.1759 49.6482 24.2966 49.7689 24.538C52.7864 27.4347 54.5968 30.8143 54.3554 35.1595C54.2348 36.8493 53.6312 38.539 53.2691 40.2288C52.907 41.5565 52.7864 43.0049 53.1485 44.3326C53.5106 45.6603 54.2348 46.7466 55.5624 47.1086C57.6143 47.7121 60.149 46.1431 59.6662 43.6084C61.9595 44.8154 63.77 46.2638 65.4597 48.1949C72.0982 55.6783 71.1326 65.9377 63.2872 72.214C61.356 73.6624 59.3041 74.8694 57.0108 75.7143C56.8901 75.3522 56.6487 75.4729 56.6487 75.1108Z" fill="#A1EDF7"/>
</svg>
