<svg width="100" height="100" viewBox="0 0 100 100" fill="none" xmlns="http://www.w3.org/2000/svg">
<rect width="100" height="100" rx="8" fill="#15284C"/>
<path d="M55.3885 38.6281L51.1248 30.4699C50.9073 30.0631 50.4854 29.7893 49.9998 29.7893C49.5141 29.7893 49.0923 30.0612 48.8785 30.4624L48.8748 30.4699L30.1529 64.0212L55.3885 38.6281ZM70.3473 67.2537L65.0748 34.4506C64.9773 33.8412 64.4541 33.3799 63.8241 33.3799C63.4698 33.3799 63.151 33.5243 62.9204 33.7587L29.6504 67.2556L48.0573 77.6281C48.5935 77.9337 49.2348 78.1156 49.9173 78.1156C50.5998 78.1156 51.2429 77.9356 51.796 77.6187L51.7773 77.6281L70.3473 67.2537ZM30.9966 58.6043L36.5373 22.9643C36.6329 22.3493 37.1579 21.8824 37.7935 21.8824C38.2773 21.8824 38.6991 22.1524 38.9129 22.5518L38.9166 22.5593L44.8754 33.7381L30.9966 58.6043Z" fill="#A1EDF7"/>
</svg>
