<svg width="100" height="100" viewBox="0 0 100 100" fill="none" xmlns="http://www.w3.org/2000/svg">
<rect width="100" height="100" rx="8" fill="#15284C"/>
<g clip-path="url(#clip0_2572_14777)">
<path d="M79.0582 33.5499C79.0798 33.6298 79.091 33.7121 79.091 33.7948V46.6512C79.091 46.9871 78.9113 47.2973 78.62 47.4644L67.8294 53.677V65.9908C67.8294 66.326 67.6513 66.6353 67.3607 66.804L44.8362 79.7705C44.7847 79.7998 44.7284 79.8186 44.6722 79.8385C44.6511 79.8455 44.6312 79.8584 44.6089 79.8643C44.4514 79.9058 44.2859 79.9058 44.1285 79.8643C44.1027 79.8573 44.0793 79.8432 44.0547 79.8338C44.0031 79.8151 43.9492 79.7987 43.9 79.7705L21.3802 66.804C21.089 66.6367 20.9092 66.3266 20.9092 65.9908V27.4217C20.9092 27.3373 20.9209 27.2553 20.942 27.1756C20.949 27.1487 20.9654 27.1241 20.9748 27.0971C20.9924 27.0479 21.0088 26.9975 21.0346 26.9518C21.0521 26.9213 21.0779 26.8967 21.099 26.8686C21.126 26.8311 21.1506 26.7925 21.1822 26.7596C21.2091 26.7327 21.2443 26.7128 21.2748 26.6893C21.3087 26.6612 21.3392 26.6308 21.3779 26.6085H21.379L32.6395 20.1252C32.9297 19.9583 33.2868 19.9583 33.5769 20.1252L44.8374 26.6085H44.8397C44.8772 26.6319 44.9089 26.6612 44.9428 26.6882C44.9733 26.7116 45.0073 26.7327 45.0342 26.7585C45.067 26.7925 45.0905 26.8311 45.1186 26.8686C45.1385 26.8967 45.1655 26.9213 45.1819 26.9518C45.2088 26.9987 45.2241 27.0479 45.2428 27.0971C45.2522 27.1241 45.2686 27.1487 45.2756 27.1768C45.2972 27.2566 45.3082 27.339 45.3084 27.4217V51.5116L54.6918 46.1087V33.7936C54.6918 33.7116 54.7035 33.6284 54.7246 33.5499C54.7328 33.5218 54.748 33.4972 54.7574 33.4702C54.7761 33.421 54.7925 33.3706 54.8183 33.3249C54.8359 33.2945 54.8617 33.2699 54.8816 33.2417C54.9097 33.2042 54.9331 33.1656 54.9659 33.1328C54.9929 33.1058 55.0269 33.0859 55.0573 33.0625C55.0925 33.0343 55.123 33.0039 55.1604 32.9816H55.1616L66.4233 26.4983C66.7134 26.3311 67.0706 26.3311 67.3607 26.4983L78.6211 32.9816C78.661 33.005 78.6914 33.0343 78.7266 33.0613C78.7559 33.0847 78.7899 33.1058 78.8168 33.1316C78.8496 33.1656 78.8731 33.2042 78.9012 33.2417C78.9223 33.2699 78.948 33.2945 78.9644 33.3249C78.9914 33.3706 79.0066 33.421 79.0254 33.4702C79.0359 33.4972 79.0512 33.5218 79.0582 33.5499ZM77.2139 46.1087V35.4177L77.215 46.1087L77.2139 46.1087ZM65.9534 65.4483V54.7503V57.0575V65.4483ZM22.7863 29.0445V65.4483L43.4301 77.3333L32.6419 60.4309L32.6372 60.4286C32.6008 60.4075 32.5704 60.377 32.5364 60.3512C32.5071 60.3278 32.4731 60.309 32.4474 60.2833L32.445 60.2797C32.4145 60.2505 43.4559 66.5697 43.4301 66.5369C43.4067 66.5052 39.4907 69 32.2974 60.0899L32.2962 60.0864C32.2751 60.0513 32.2622 60.0091 32.247 59.9692C32.2317 59.9341 32.2118 59.9013 32.2025 59.8638V59.8626C32.1907 59.8181 32.1884 59.7712 32.1837 59.7255C32.179 59.6904 32.1696 59.6552 32.1696 59.6201V59.6177L43.4301 77.3333L22.7863 66.5357V29.0457V29.0445ZM33.1094 22.0211L23.7272 27.4217L33.107 32.8223L42.488 27.4205L33.107 22.0211H33.1094ZM37.9885 55.7252L43.4313 52.5919V29.0445L39.4907 31.313L34.0468 34.4475V57.9948L37.9885 55.7252ZM66.892 28.3942L57.511 33.7948L66.892 39.1954L76.2718 33.7936L66.892 28.3942ZM65.9534 40.8206L60.5095 37.6862L56.5689 35.4177V46.1087L62.0116 49.2419L65.9534 51.5116V40.8206ZM44.3675 64.9128L58.1273 57.0574L65.0055 53.1321L55.6315 47.735L44.8386 53.9488L35.0018 59.6119L44.3675 64.9128Z" fill="#A1EDF7"/>
</g>
<defs>
<clipPath id="clip0_2572_14777">
<rect width="60" height="60" fill="white" transform="translate(20 20)"/>
</clipPath>
</defs>
</svg>
