<svg width="100" height="100" viewBox="0 0 100 100" fill="none" xmlns="http://www.w3.org/2000/svg">
<rect width="100" height="100" rx="8" fill="#15284C"/>
<path d="M49.6645 63.4719C49.6645 63.4719 49.6645 44.045 50.3095 44.0469C50.8083 44.0469 51.457 69.1063 51.457 69.1063C50.5645 69.0013 49.6645 64.9832 49.6645 63.4719ZM62.167 44.2719C60.4439 36.7419 56.6695 30.2675 51.4645 25.2706L51.4514 25.2594C50.8177 24.2919 50.2383 23.1819 49.7733 22.0119L49.7283 21.8844C49.7302 21.9219 49.7302 21.9669 49.7302 22.0119C49.7302 23.0713 49.2558 24.0181 48.5077 24.6538L48.502 24.6575C41.8008 30.3463 37.537 38.7294 37.3964 48.11V48.1344C37.3945 48.2506 37.3945 48.3875 37.3945 48.5244C37.3945 57.8188 41.8664 66.0688 48.7758 71.24L48.8489 71.2925L49.012 71.4107C49.3133 73.6407 49.5708 75.8757 49.7845 78.1157H50.9114C51.2227 75.32 51.6427 72.8732 52.192 70.4732L52.1058 70.9213C52.8483 70.4057 53.497 69.8713 54.1027 69.2919L54.097 69.2975C59.3489 64.4282 62.6264 57.4906 62.6264 49.79C62.6264 49.6756 62.6264 49.5632 62.6245 49.4488V49.4656C62.6189 47.6263 62.452 45.8281 62.1352 44.0825L62.1633 44.2681L62.167 44.2719Z" fill="#A1EDF7"/>
</svg>
