<svg width="100" height="100" viewBox="0 0 100 100" fill="none" xmlns="http://www.w3.org/2000/svg">
<rect width="100" height="100" rx="8" fill="#15284C"/>
<path d="M34.7402 66.4689H32.3745C32.2909 62.6638 32.0605 59.0865 31.6838 55.7344H31.6627L28.0609 66.4689H26.2597L22.6793 55.7344H22.6588C22.3932 58.9527 22.2258 62.5309 22.1564 66.4689H20C20.139 61.6801 20.4882 57.1906 21.0464 53H23.9786L27.3912 62.8968H27.4122L30.8458 53H33.6513C34.2657 57.9085 34.6287 62.3985 34.7402 66.4689ZM45 56.5316C44.0368 61.5124 42.7659 65.1315 41.1888 67.3906C39.96 69.1296 38.6137 70 37.1476 70C36.7567 70 36.2744 69.8876 35.703 69.6646V68.4636C35.9823 68.5019 36.3101 68.5237 36.6868 68.5237C37.3716 68.5237 37.922 68.3442 38.3417 67.9844C38.8436 67.5462 39.0946 67.0535 39.0946 66.5085C39.0946 66.1348 38.8989 65.3707 38.5085 64.2137L35.9124 56.5311H38.2365L40.0998 62.2769C40.5186 63.5816 40.6932 64.4925 40.6233 65.0113C41.6423 62.4181 42.354 59.5905 42.7595 56.5307H45V56.5316Z" fill="#A1EDF7"/>
<path d="M75 66.2215H68.5047V53.1938H70.6897V64.6178H75V66.2215ZM66.8044 66.5362L64.2929 65.3544C64.5156 65.1799 64.7286 64.9912 64.9203 64.7725C65.9879 63.5767 66.5203 61.8083 66.5203 59.466C66.5203 55.156 64.7467 53 61.1981 53C59.4581 53 58.1007 53.5469 57.13 54.6412C56.0633 55.8378 55.5309 57.5999 55.5309 59.9295C55.5309 62.2195 56.0028 63.8994 56.947 64.965C57.8109 65.9303 59.113 66.4136 60.8544 66.4136C61.5039 66.4136 62.1 66.3378 62.643 66.1848L65.9128 68L66.8044 66.5362ZM58.6685 63.6146C58.1153 62.766 57.8387 61.4034 57.8387 59.5246C57.8387 56.2444 58.8837 54.6024 60.9759 54.6024C62.0695 54.6024 62.871 54.9951 63.3836 55.7788C63.9359 56.6287 64.2138 57.9791 64.2138 59.8317C64.2138 63.1389 63.1679 64.7927 61.0771 64.7927C59.983 64.7931 59.1815 64.4017 58.6685 63.6146ZM54.5787 62.6105C54.5787 63.7153 54.1536 64.6216 53.3043 65.3316C52.4542 66.0386 51.3142 66.393 49.8857 66.393C48.5495 66.393 47.254 65.986 46 65.1761L46.5872 64.0574C47.6662 64.5728 48.6432 64.8289 49.5203 64.8289C50.3435 64.8289 50.9868 64.6549 51.4534 64.3098C51.9196 63.9635 52.1975 63.4777 52.1975 62.8633C52.1975 62.0893 51.6315 61.4278 50.5931 60.8737C49.6356 60.3723 47.7206 59.324 47.7206 59.324C46.6827 58.6027 46.163 57.8282 46.163 56.5524C46.163 55.4965 46.5506 54.6441 47.326 53.9956C48.1024 53.3447 49.1041 53.0202 50.332 53.0202C51.6001 53.0202 52.7529 53.3442 53.7913 53.9855L53.2646 55.1046C52.3764 54.7448 51.4998 54.5649 50.6351 54.5649C49.9347 54.5649 49.3939 54.7254 49.0179 55.0478C48.6388 55.3688 48.405 55.7796 48.405 56.2836C48.405 57.0538 48.983 57.7237 50.0496 58.2888C51.0199 58.791 52.9827 59.8574 52.9827 59.8574C54.0471 60.5775 54.5787 61.3448 54.5787 62.6105Z" fill="#A1EDF7"/>
<path d="M78.105 48.3358C76.7986 48.3006 75.7871 48.4402 74.9381 48.8213C74.693 48.9252 74.3032 48.9252 74.2692 49.2539C74.4016 49.393 74.4169 49.6174 74.5318 49.8094C74.7275 50.1557 75.0688 50.6217 75.3803 50.8647C75.7224 51.1429 76.0658 51.4183 76.4259 51.6608C77.0607 52.0776 77.7804 52.3201 78.3991 52.7356C78.7595 52.9771 79.1178 53.2897 79.4787 53.5498C79.6561 53.6884 79.7697 53.9133 80 54V53.9471C79.8846 53.7914 79.8519 53.566 79.7387 53.3926L79.2485 52.8909C78.7748 52.2158 78.1863 51.6265 77.5514 51.1424C77.0288 50.7604 75.8858 50.2411 75.6739 49.6021L75.6407 49.5669C75.9999 49.5312 76.4259 49.393 76.7671 49.2868C77.3225 49.1315 77.8289 49.1667 78.3986 49.0114C78.6608 48.9419 78.9208 48.8547 79.1838 48.7689V48.6127C78.8884 48.3006 78.6778 47.8861 78.3672 47.5912C77.5361 46.8294 76.6203 46.0843 75.6739 45.4606C75.1671 45.1134 74.5152 44.8899 73.9755 44.5945C73.7811 44.4902 73.4534 44.4387 73.3389 44.2653C73.0462 43.8842 72.8815 43.3825 72.6691 42.9313C72.1972 41.9794 71.7389 40.9232 71.3317 39.9166C71.0372 39.2415 70.858 38.5673 70.4989 37.9428C68.8167 34.9985 66.9898 33.2152 64.1821 31.4649C63.5787 31.1004 62.8608 30.9451 62.094 30.7541L60.8693 30.6854C60.608 30.564 60.3462 30.2343 60.1182 30.0785C59.1866 29.4553 56.7883 28.1047 56.1032 29.8879C55.6619 31.0151 56.756 32.1233 57.1317 32.695C57.4092 33.0919 57.7688 33.5435 57.9628 33.9942C58.0777 34.2886 58.11 34.6011 58.2249 34.9122C58.4862 35.6745 58.7305 36.5225 59.0739 37.2338C59.253 37.5964 59.4483 37.9775 59.6773 38.3058C59.8084 38.4978 60.0365 38.5826 60.0863 38.8956C59.8586 39.2406 59.8407 39.7613 59.7101 40.1943C59.1228 42.1515 59.3522 44.576 60.1846 46.0143C60.445 46.4473 61.0663 47.4006 61.8974 47.0353C62.6332 46.7237 62.4702 45.7365 62.6817 44.8709C62.7302 44.6617 62.6983 44.5245 62.7961 44.3873V44.4211C63.0238 44.9056 63.2536 45.3725 63.4647 45.8585C63.9711 46.7065 64.8528 47.5903 65.5873 48.1777C65.9783 48.4912 66.2881 49.0272 66.7779 49.2187V49.1667H66.7456C66.6464 49.0114 66.5013 48.9419 66.3711 48.8213C66.0766 48.5093 65.7507 48.1281 65.5222 47.7822C64.8379 46.8118 64.2323 45.7375 63.6949 44.6288C63.4319 44.091 63.2051 43.503 62.9932 42.9661C62.8944 42.7589 62.8945 42.4463 62.7306 42.342C62.485 42.7227 62.1272 43.0524 61.948 43.5188C61.6374 44.2648 61.6051 45.1824 61.4897 46.1367L61.4255 46.1701C60.9055 46.0314 60.7246 45.4606 60.5271 44.9761C60.0382 43.7455 59.9561 41.7703 60.3803 40.3506C60.4939 39.9875 60.9855 38.8441 60.7893 38.4982C60.691 38.1667 60.3642 37.978 60.185 37.7169C59.9744 37.3887 59.7437 36.9732 59.5969 36.6088C59.2054 35.6393 59.0084 34.5649 58.5867 33.5959C58.3897 33.1443 58.0475 32.6769 57.7705 32.261C57.4594 31.7936 57.1173 31.4644 56.8713 30.9103C56.79 30.7198 56.676 30.4082 56.8066 30.2009C56.8385 30.0618 56.905 30.0099 57.0352 29.9751C57.2466 29.7855 57.8509 30.0266 58.0628 30.1309C58.668 30.3905 59.174 30.633 59.679 30.9966C59.9076 31.1704 60.1527 31.4996 60.4459 31.5863H60.7893C61.3106 31.7069 61.8982 31.6197 62.3889 31.7764C63.2536 32.0713 64.037 32.5039 64.7396 32.9709C66.8775 34.4096 68.6406 36.4539 69.8308 38.8956C70.0261 39.2934 70.1091 39.6579 70.2874 40.0728C70.6312 40.9223 71.0564 41.7884 71.3976 42.6198C71.7406 43.4335 72.0675 44.2644 72.5573 44.9404C72.8015 45.3039 73.7829 45.4945 74.2229 45.6851C74.5484 45.8404 75.0552 45.9786 75.3488 46.1691C75.9042 46.5322 76.4573 46.949 76.9795 47.3482C77.2395 47.556 78.0565 47.989 78.105 48.3358ZM61.4552 33.2834C61.2298 33.2809 61.0052 33.3102 60.7871 33.3705V33.4053H60.8186C60.9501 33.6821 61.1786 33.8741 61.3416 34.1156C61.4731 34.3934 61.5871 34.6688 61.716 34.9461L61.7475 34.9118C61.9778 34.7388 62.0922 34.4615 62.0922 34.0456C61.9931 33.9232 61.9778 33.8036 61.8952 33.6821C61.7991 33.5087 61.5871 33.4225 61.4552 33.2834Z" fill="#A1EDF7"/>
<path d="M79.619 66H80V65.0003H79.4285L78.9623 65.6825L78.4558 65.0003H77.9055V66H78.2653V65.2394H78.2855L78.8161 66H79.0903L79.619 65.2394V66ZM76.5498 66H76.953V65.1697H77.4807V65H76V65.1697H76.5489L76.5498 66Z" fill="#A1EDF7"/>
</svg>
