<svg width="100" height="100" viewBox="0 0 100 100" fill="none" xmlns="http://www.w3.org/2000/svg">
<rect width="100" height="100" rx="8" fill="#15284C"/>
<path fill-rule="evenodd" clip-rule="evenodd" d="M54.7731 21.9622C54.3628 21.9622 53.9818 22.0501 53.6301 22.1675C54.3774 22.666 54.7877 23.3259 54.9929 24.0738C55.0076 24.1764 55.0368 24.2497 55.0515 24.3524C55.0662 24.4404 55.0808 24.5284 55.0808 24.6163C55.1394 25.9068 54.7437 26.0681 54.4653 26.8306C54.0404 27.8131 54.1576 28.8689 54.6705 29.7194C54.7144 29.8221 54.7731 29.9394 54.8463 30.042C54.2895 26.332 57.3815 25.7748 57.9529 24.6163C57.9969 23.6045 57.1616 22.93 56.5022 22.4607C55.8721 22.0795 55.3006 21.9622 54.7731 21.9622ZM59.433 22.798C59.3744 23.1353 59.4183 23.0473 59.4037 23.2233C59.389 23.3406 59.389 23.4872 59.3744 23.6045C59.3451 23.7218 59.3158 23.8391 59.2718 23.9565C59.2426 24.0738 59.1986 24.1911 59.1546 24.3084C59.096 24.4257 59.052 24.5284 58.9934 24.6457C58.9495 24.7044 58.9202 24.763 58.8762 24.8216C58.8469 24.8656 58.8176 24.9096 58.7883 24.9536C58.715 25.0563 58.6417 25.1589 58.5685 25.2469C58.4805 25.3349 58.4073 25.4375 58.3047 25.5109V25.5255C58.2168 25.5989 58.1288 25.6868 58.0263 25.7602C57.7185 25.9948 57.3668 26.1707 57.0445 26.3907C56.9419 26.464 56.8393 26.5227 56.7514 26.6107C56.6488 26.684 56.5609 26.7573 56.473 26.8453C56.3704 26.9333 56.2971 27.0213 56.2092 27.1239C56.1359 27.2119 56.048 27.3145 55.9894 27.4172C55.9161 27.5198 55.8428 27.6225 55.7842 27.7251C55.7256 27.8424 55.6816 27.9451 55.623 28.0624C55.5791 28.1797 55.5351 28.2824 55.5058 28.3997C55.4618 28.5317 55.4325 28.649 55.4032 28.7663C55.3885 28.825 55.3885 28.8983 55.3739 28.9569C55.3592 29.0156 55.3592 29.0742 55.3447 29.1329C55.3447 29.2502 55.33 29.3822 55.33 29.4995C55.33 29.5875 55.33 29.6754 55.3447 29.7634C55.3447 29.8807 55.3593 29.998 55.3886 30.13C55.4033 30.2473 55.4326 30.3646 55.4619 30.482C55.5058 30.5993 55.5352 30.7166 55.5791 30.8339C55.6084 30.9072 55.6524 30.9805 55.6817 31.0392L52.3113 29.7341C51.7398 29.5728 51.1829 29.4262 50.6114 29.2942C50.3037 29.2209 49.996 29.1475 49.6882 29.0742C48.809 28.8983 47.9151 28.7663 47.0212 28.6783C46.992 28.6783 46.9773 28.6636 46.948 28.6636C46.0687 28.5756 45.2042 28.5316 44.3249 28.5316C43.6802 28.5316 43.0354 28.5609 42.4053 28.605C41.5114 28.6636 40.6175 28.7809 39.7236 28.9276C39.5038 28.9569 39.284 29.0009 39.0642 29.0449C38.6099 29.1329 38.1703 29.2355 37.7453 29.3382C37.5255 29.3968 37.3057 29.4555 37.0859 29.5141C36.8661 29.6021 36.6609 29.7048 36.4558 29.7927C36.2946 29.8661 36.1334 29.9394 35.9722 30.0127C35.9429 30.0274 35.9136 30.0274 35.8989 30.042C35.7524 30.1153 35.6205 30.174 35.4886 30.2473C35.4447 30.262 35.4154 30.2766 35.3861 30.2913C35.2249 30.3646 35.0637 30.4526 34.9318 30.5259C34.8292 30.5699 34.7266 30.6286 34.6387 30.6726C34.5947 30.7019 34.5361 30.7312 34.5068 30.7459C34.3749 30.8192 34.243 30.8925 34.1258 30.9658C33.9939 31.0392 33.8767 31.1125 33.7741 31.1858C33.6715 31.2591 33.569 31.3178 33.481 31.3911C33.4664 31.4058 33.4518 31.4058 33.4371 31.4204C33.3492 31.4791 33.2466 31.5524 33.1587 31.6257C33.1587 31.6257 33.144 31.6404 33.1294 31.655C33.0561 31.7137 32.9828 31.7723 32.9096 31.831C32.8803 31.8456 32.8509 31.875 32.8216 31.8896C32.7484 31.9483 32.6751 32.0216 32.6018 32.0803C32.5872 32.1096 32.5579 32.1243 32.5432 32.139C32.4553 32.2269 32.3674 32.3003 32.2794 32.3882C32.2648 32.3882 32.2648 32.4029 32.2501 32.4176C32.1622 32.4909 32.0743 32.5789 31.9864 32.6668C31.9717 32.6815 31.9717 32.6961 31.9571 32.6961C31.8838 32.7695 31.8106 32.8428 31.7373 32.9308C31.708 32.9601 31.664 32.9894 31.6347 33.0187C31.5614 33.1067 31.4735 33.1947 31.3856 33.2827C31.3709 33.312 31.3416 33.3267 31.327 33.356C31.2097 33.4733 31.1071 33.5906 30.9899 33.708C30.9752 33.7226 30.9606 33.7373 30.9459 33.752C30.7115 34.0012 30.4624 34.2505 30.1986 34.4705C29.9348 34.7051 29.6564 34.9251 29.378 35.1157C29.0849 35.321 28.8065 35.497 28.4987 35.6729C28.2057 35.8342 27.8979 35.9809 27.5756 36.1129C27.2678 36.2448 26.9454 36.3621 26.6231 36.4648C26.0076 36.5968 25.3775 36.8461 24.8353 36.89C24.718 36.89 24.5862 36.9194 24.4689 36.934C24.337 36.9633 24.2198 36.9927 24.1026 37.022C23.9854 37.066 23.8681 37.11 23.7509 37.154C23.6337 37.198 23.5164 37.2566 23.3992 37.3153C23.2966 37.3886 23.1794 37.4473 23.0768 37.5206C22.9742 37.5939 22.8717 37.6819 22.7837 37.7699C22.6812 37.8432 22.5786 37.9459 22.4907 38.0338C22.4027 38.1365 22.3148 38.2245 22.2415 38.3271C22.1683 38.4444 22.0803 38.5471 22.0217 38.6644C21.9485 38.767 21.8752 38.8844 21.8166 39.0017C21.7579 39.1336 21.6993 39.2509 21.6554 39.3829C21.6114 39.5002 21.5675 39.6322 21.5235 39.7642C21.4942 39.8815 21.4649 39.9988 21.4502 40.1161C21.4502 40.1308 21.4356 40.1454 21.4356 40.1601C21.4063 40.2921 21.4063 40.4681 21.3916 40.5561C21.3769 40.6587 21.3623 40.7467 21.3623 40.8493C21.3623 40.908 21.3623 40.9813 21.377 41.04C21.3917 41.1426 21.4063 41.2306 21.4356 41.3186C21.4649 41.4066 21.4943 41.4945 21.5382 41.5825V41.5972C21.5822 41.6852 21.6408 41.7732 21.6994 41.8612C21.758 41.9492 21.8166 42.0371 21.8899 42.1251C21.9632 42.1984 22.0511 42.2864 22.139 42.3597C22.2269 42.4477 22.3149 42.521 22.4174 42.5944C22.7691 42.9023 22.857 43.005 23.3113 43.2396C23.3846 43.2836 23.4579 43.3129 23.5458 43.3569C23.5605 43.3569 23.5751 43.3716 23.5897 43.3716C23.5897 43.4009 23.5897 43.4156 23.6044 43.4449C23.6191 43.5622 23.6484 43.6795 23.6777 43.7968C23.707 43.9288 23.751 44.0461 23.7949 44.1488C23.8389 44.2368 23.8682 44.3247 23.9122 44.4127C23.9268 44.442 23.9414 44.4714 23.9561 44.4861C24.0148 44.6034 24.0733 44.706 24.132 44.8087C24.2052 44.9113 24.2785 45.014 24.3518 45.1166C24.425 45.2046 24.513 45.3072 24.6009 45.3952C24.6888 45.4832 24.7767 45.5565 24.8793 45.6445C24.8793 45.6445 24.894 45.6592 24.9086 45.6592C24.9965 45.7325 25.0844 45.8059 25.1724 45.8645C25.2749 45.9378 25.3775 45.9965 25.4948 46.0551C25.5973 46.1138 25.7146 46.1724 25.8318 46.2164C25.9197 46.2604 26.0223 46.2898 26.1249 46.3191C26.1395 46.3338 26.1542 46.3338 26.1835 46.3484C26.2421 46.3631 26.3154 46.3777 26.374 46.3924C26.33 47.1842 26.3154 47.9321 26.4326 48.1961C26.5645 48.4893 27.2093 47.5948 27.8541 46.5684C27.7661 47.5802 27.7075 48.768 27.8541 49.1199C28.0153 49.4865 28.8945 48.3427 29.6565 47.0816C40.0461 44.6767 49.5272 51.8621 50.5236 62.0095C50.3331 60.4258 48.3842 59.546 47.4903 59.766C47.0507 60.8511 46.3033 62.2442 45.1017 63.1093C45.2043 62.1415 45.1603 61.1444 44.9552 60.1765C44.6328 61.5256 44.0027 62.7867 43.1381 63.8719C41.746 63.9745 40.3538 63.3 39.6211 62.2882C39.5625 62.2442 39.5479 62.1562 39.5039 62.0975C39.4599 61.9949 39.416 61.8922 39.3867 61.7896C39.3427 61.6869 39.3134 61.5843 39.2988 61.4816C39.2841 61.379 39.2841 61.2763 39.2841 61.159C39.2841 61.0857 39.2841 61.0124 39.2841 60.9391C39.2988 60.8364 39.328 60.7338 39.3573 60.6311C39.3866 60.5285 39.416 60.4258 39.4599 60.3232C39.5186 60.2205 39.5625 60.1179 39.6358 60.0152C39.8849 59.3114 39.8849 58.7395 39.4306 58.4022C39.3427 58.3435 39.2548 58.2996 39.1522 58.2556C39.0935 58.2409 39.0203 58.2116 38.9617 58.1969C38.9177 58.1822 38.8884 58.1676 38.8445 58.1529C38.7419 58.1236 38.6393 58.0942 38.5367 58.0796C38.4341 58.0503 38.3316 58.0356 38.229 58.0356C38.1264 58.0209 38.0092 58.0063 37.9066 58.0063C37.8333 58.0063 37.7601 58.021 37.6868 58.021C37.5696 58.021 37.467 58.0357 37.3644 58.0649C37.2618 58.0797 37.1593 58.0942 37.0567 58.1236C36.9541 58.1529 36.8515 58.1823 36.749 58.2263C36.6464 58.2703 36.5585 58.3143 36.4559 58.3583C36.368 58.4022 36.28 58.4609 36.1775 58.5049C32.7631 60.7338 34.8 65.9542 37.13 67.4646C36.2507 67.6259 35.3568 67.8165 35.1077 68.0072C35.093 68.0218 35.0784 68.0365 35.0784 68.0365C35.7086 68.4177 36.368 68.7403 37.0567 69.019C37.9946 69.3269 38.991 69.6055 39.4306 69.7228V69.7375C40.6469 69.9868 41.8778 70.0748 43.1234 70.0015C49.6151 69.5469 54.9345 64.6051 55.9016 58.0943C55.9309 58.2263 55.9603 58.3436 55.9895 58.4756C56.0335 58.7395 56.0921 59.0181 56.1214 59.2967V59.3114C56.1507 59.4434 56.1654 59.5754 56.1801 59.6927V59.7514C56.1948 59.8834 56.2093 60.0153 56.2093 60.1326C56.224 60.294 56.2386 60.4553 56.2386 60.6166V60.8512C56.2386 60.9245 56.2533 61.0125 56.2533 61.0858C56.2533 61.1738 56.2386 61.2618 56.2386 61.3498V61.5551C56.2386 61.6577 56.2239 61.7457 56.2239 61.8483C56.2239 61.907 56.2239 61.9657 56.2093 62.039C56.2093 62.1416 56.1946 62.2443 56.1946 62.3616C56.1799 62.4056 56.1799 62.4496 56.1799 62.4936C56.1652 62.6109 56.1506 62.7135 56.1359 62.8308C56.1359 62.8748 56.1359 62.9188 56.1213 62.9628C56.1066 63.1094 56.0773 63.2414 56.0626 63.3881V63.4028V63.4174C56.0333 63.5494 56.004 63.6961 55.9747 63.828V63.872C55.9454 64.004 55.9161 64.136 55.8868 64.268C55.8868 64.2827 55.8721 64.312 55.8721 64.3266C55.8428 64.4586 55.8135 64.5906 55.7695 64.7226V64.7666C55.7256 64.9132 55.6816 65.0452 55.6523 65.1771C55.6376 65.1918 55.6376 65.2065 55.6376 65.2065C55.5937 65.3531 55.5497 65.4997 55.5057 65.6464C55.4471 65.793 55.4032 65.925 55.3446 66.0716C55.2859 66.2183 55.242 66.3649 55.1834 66.4969C55.1247 66.6435 55.0661 66.7755 55.0075 66.9221H54.9928C54.9342 67.0541 54.8756 67.2008 54.8023 67.3327C54.7876 67.3767 54.773 67.4061 54.7584 67.4354C54.7437 67.4501 54.7437 67.4647 54.7291 67.4794C53.7766 69.4004 52.3698 71.0867 50.6113 72.4065C50.4941 72.4798 50.3769 72.5678 50.2596 72.6558C50.2303 72.6851 50.1864 72.6998 50.1571 72.7291C50.0545 72.8024 49.9519 72.8757 49.8347 72.949L49.8786 73.037H49.8933C50.0985 73.0077 50.3036 72.9784 50.5088 72.949H50.5234C50.9044 72.8904 51.2854 72.8171 51.6664 72.7437C51.769 72.729 51.8863 72.6998 51.9888 72.6704C52.0621 72.6557 52.1207 72.6411 52.194 72.6264C52.2966 72.6117 52.3991 72.5824 52.5017 72.5678C52.5896 72.5384 52.6776 72.5238 52.7655 72.4944C54.2309 72.1425 55.6523 71.6586 57.0151 71.0867C54.6851 74.2688 51.5639 76.835 47.915 78.5213C49.6002 78.404 51.2854 78.1254 52.912 77.6562C58.8175 75.9111 63.7852 71.9372 66.7599 66.5848C66.1591 69.9722 64.811 73.1983 62.8181 76.0138C64.2395 75.0753 65.5437 73.9902 66.7306 72.7584C70.0131 69.327 72.1672 64.9718 72.8999 60.294C73.3982 62.6109 73.5447 65.0011 73.3249 67.362C83.905 52.5954 74.2041 37.2862 70.145 33.2536C70.1303 33.2243 70.1157 33.2096 70.1157 33.1802C70.101 33.1949 70.101 33.1949 70.101 33.2096C70.101 33.1949 70.101 33.1949 70.0863 33.1802C70.0863 33.3562 70.0717 33.5322 70.0571 33.7081C70.0131 34.0454 69.9691 34.368 69.9105 34.6906C69.8373 35.0132 69.7493 35.3358 69.6614 35.6585C69.5588 35.9664 69.4416 36.289 69.3097 36.597C69.1778 36.8902 69.0313 37.1982 68.8701 37.4915C68.7089 37.7701 68.5331 38.0634 68.3426 38.3273C68.1521 38.6059 67.9469 38.8699 67.7417 39.1192C67.5219 39.3831 67.2875 39.6177 67.053 39.8524C66.9065 39.9843 66.7746 40.1017 66.628 40.219C66.5108 40.3216 66.4082 40.4096 66.291 40.5122C66.0272 40.7175 65.7635 40.9082 65.4704 41.0841C65.192 41.2601 64.8989 41.4361 64.6058 41.5827C64.2981 41.7294 63.9903 41.8613 63.6826 41.9933C63.3749 42.1106 63.0525 42.2133 62.7301 42.3013C62.4077 42.3892 62.0707 42.4626 61.7483 42.5212C61.4113 42.5799 61.0742 42.6092 60.7518 42.6385C60.5174 42.6532 60.2829 42.6678 60.0485 42.6678C59.7114 42.6678 59.3744 42.6385 59.052 42.6092C58.715 42.5799 58.3779 42.5358 58.0555 42.4625C57.7185 42.4038 57.3961 42.3159 57.0737 42.2132H57.059C57.3814 42.1839 57.7038 42.1545 58.0262 42.0959C58.3632 42.0372 58.6856 41.9639 59.008 41.8759C59.3304 41.788 59.6528 41.6853 59.9605 41.568C60.2829 41.4507 60.5906 41.3041 60.8837 41.1574C61.1914 41.0108 61.4699 40.8495 61.7629 40.6735C62.0414 40.4829 62.3198 40.2922 62.5836 40.0869C62.8473 39.8816 63.0964 39.6617 63.3309 39.4271C63.58 39.2071 63.7998 38.9578 64.0196 38.7085C64.2394 38.4446 64.4446 38.1806 64.6351 37.9167C64.6644 37.8727 64.6937 37.814 64.723 37.77C64.8696 37.5354 65.0161 37.3008 65.148 37.0662C65.3092 36.7729 65.4557 36.4796 65.5876 36.1717C65.7195 35.8637 65.8367 35.5558 65.9393 35.2332C66.0419 34.9252 66.1151 34.6026 66.1884 34.28C66.2471 33.9427 66.3056 33.6201 66.335 33.2975C66.3642 32.9602 66.3936 32.623 66.3936 32.3004C66.3936 32.0657 66.3789 31.8311 66.3643 31.5965C66.335 31.2592 66.291 30.9366 66.2471 30.614C66.1884 30.2767 66.1152 29.9541 66.0273 29.6315C65.9247 29.3236 65.8221 29.001 65.7049 28.693C65.5876 28.3851 65.4411 28.0771 65.2946 27.7838C65.1334 27.4906 64.9722 27.1973 64.7963 26.9187C64.6058 26.6401 64.4153 26.3761 64.2102 26.1122C63.9904 25.8629 63.7706 25.6136 63.5361 25.3643C63.4189 25.247 63.287 25.115 63.1551 24.9977C62.4957 24.4844 61.8069 24.0005 61.1182 23.5606C61.0156 23.5019 60.9277 23.458 60.8251 23.414C60.3416 23.106 59.8873 22.9446 59.433 22.798Z" fill="#A1EDF7"/>
</svg>
