<svg width="100" height="100" viewBox="0 0 100 100" fill="none" xmlns="http://www.w3.org/2000/svg">
<rect width="100" height="100" rx="8" fill="#15284C"/>
<g clip-path="url(#clip0_2573_14857)">
<path d="M64.5324 76.255C64.3099 76.3725 64.3224 76.42 64.5449 76.3075C64.6101 76.2796 64.6694 76.2397 64.7199 76.19C64.7199 76.15 64.7149 76.155 64.5324 76.255ZM64.9774 76.02C64.8724 76.1025 64.8724 76.1075 64.9999 76.0425C65.0699 76.0075 65.1299 75.9675 65.1299 75.955C65.1299 75.9075 65.0999 75.92 64.9774 76.02ZM65.2699 75.8425C65.1649 75.925 65.1649 75.93 65.2924 75.865C65.3624 75.83 65.4224 75.79 65.4224 75.7775C65.4224 75.73 65.3924 75.7425 65.2699 75.8425ZM65.5624 75.6675C65.4574 75.75 65.4574 75.755 65.5849 75.69C65.6549 75.655 65.7149 75.615 65.7149 75.6025C65.7149 75.555 65.6849 75.5675 65.5624 75.6675ZM65.9674 75.405C65.7624 75.535 65.6974 75.6225 65.8799 75.5225C66.0099 75.4475 66.2199 75.2875 66.1849 75.2825C66.1083 75.3155 66.0353 75.3565 65.9674 75.405ZM48.0349 20.015C47.9049 20.0275 47.4949 20.0675 47.1249 20.0975C38.6049 20.865 30.6224 25.4625 25.5674 32.53C22.7728 36.4091 20.9564 40.9058 20.2724 45.6375C20.0324 47.285 20.0024 47.7725 20.0024 50.0075C20.0024 52.2425 20.0324 52.7275 20.2724 54.3775C21.9024 65.6425 29.9199 75.1075 40.7924 78.615C42.7399 79.2425 44.7924 79.67 47.1249 79.9275C48.0349 80.0275 51.9624 80.0275 52.8724 79.9275C56.8999 79.4825 60.3149 78.485 63.6799 76.7675C64.1949 76.5025 64.2949 76.4325 64.2249 76.375C62.5812 74.2032 60.9529 72.0198 59.3399 69.825L54.5424 63.345L48.5324 54.45C46.5342 51.4736 44.5166 48.5103 42.4799 45.56C42.4574 45.555 42.4324 49.5075 42.4224 54.3325C42.4049 62.7825 42.3999 63.1225 42.2924 63.3225C42.1904 63.5562 42.0076 63.7452 41.7774 63.855C41.5899 63.95 41.4249 63.9675 40.5399 63.9675H39.5249L39.2549 63.7975C39.0884 63.6925 38.9528 63.5449 38.8624 63.37L38.7399 63.105L38.7524 51.3475L38.7699 39.585L38.9524 39.3575C39.0751 39.2135 39.2224 39.0924 39.3874 39C39.6274 38.8825 39.7224 38.87 40.7374 38.87C41.9349 38.87 42.1324 38.9175 42.4449 39.2575C44.8778 42.8781 47.2903 46.5124 49.6824 50.16C53.5774 56.065 58.8999 64.1275 61.5174 68.0875L66.2674 75.2825L66.5074 75.125C68.793 73.6047 70.8655 71.7862 72.6699 69.7175C76.4499 65.3917 78.9012 60.067 79.7299 54.3825C79.9699 52.735 79.9999 52.2475 79.9999 50.0125C79.9999 47.7775 79.9699 47.2925 79.7299 45.6425C78.0999 34.3775 70.0824 24.9125 59.2099 21.405C57.1781 20.7581 55.0856 20.32 52.9649 20.0975C52.4024 20.04 48.5249 19.975 48.0399 20.0225L48.0349 20.015ZM60.3149 38.16C60.4548 38.2303 60.5792 38.3277 60.6809 38.4466C60.7826 38.5655 60.8597 38.7035 60.9074 38.8525C60.9549 39.005 60.9649 42.265 60.9549 49.6125L60.9374 60.1575L59.0774 57.3075L57.2124 54.4575V46.7925C57.2124 41.8375 57.2349 39.0525 57.2699 38.9175C57.3124 38.7617 57.3855 38.616 57.4851 38.4889C57.5847 38.3618 57.7088 38.2559 57.8499 38.1775C58.0899 38.055 58.1774 38.0425 59.0999 38.0425C59.9674 38.0425 60.1199 38.055 60.3149 38.16Z" fill="#A1EDF7"/>
</g>
<defs>
<clipPath id="clip0_2573_14857">
<rect width="60" height="60" fill="white" transform="translate(20 20)"/>
</clipPath>
</defs>
</svg>
