<svg width="100" height="100" viewBox="0 0 100 100" fill="none" xmlns="http://www.w3.org/2000/svg">
<rect width="100" height="100" rx="8" fill="#15284C"/>
<g clip-path="url(#clip0_2572_14836)">
<path d="M50 80C49.7801 80 49.564 79.9419 49.3738 79.8316L41.8323 75.4663C41.5454 75.3002 41.3363 75.027 41.2509 74.7067C41.1656 74.3864 41.2109 74.0454 41.377 73.7585C41.5431 73.4717 41.8163 73.2626 42.1366 73.1772C42.4569 73.0918 42.7979 73.1371 43.0848 73.3032L50 77.3047L72.5 64.2797V35.7202L50 22.6952L27.5 35.7202V64.2798L29.5252 65.4517C31.5002 66.815 33.8503 67.5308 36.25 67.5C37.4792 67.5 38.75 67.5 38.75 62.5V38.75C38.75 38.4185 38.8817 38.1005 39.1161 37.8661C39.3505 37.6317 39.6685 37.5 40 37.5C40.3315 37.5 40.6495 37.6317 40.8839 37.8661C41.1183 38.1005 41.25 38.4185 41.25 38.75V62.5C41.25 66.3965 40.6445 70 36.25 70C33.4035 70.0207 30.6166 69.1854 28.2507 67.6025L25.6238 66.0815C25.434 65.9719 25.2764 65.8142 25.1669 65.6244C25.0574 65.4345 24.9998 65.2192 25 65V35C24.9998 34.7808 25.0574 34.5655 25.1669 34.3756C25.2764 34.1857 25.434 34.0281 25.6238 33.9185L49.3738 20.1685C49.564 20.0581 49.7801 20 50 20C50.22 20 50.436 20.0581 50.6263 20.1685L74.3763 33.9185C74.5661 34.0281 74.7236 34.1858 74.8331 34.3756C74.9426 34.5655 75.0002 34.7808 75 35V65C75.0002 65.2192 74.9426 65.4346 74.8331 65.6244C74.7236 65.8143 74.566 65.972 74.3762 66.0816L50.6262 79.8316C50.436 79.9419 50.2199 80 50 80Z" fill="#A1EDF7"/>
<path d="M55 62.5C49.4861 62.5 45 59.1357 45 55C45 54.6685 45.1317 54.3505 45.3661 54.1161C45.6005 53.8817 45.9185 53.75 46.25 53.75C46.5815 53.75 46.8995 53.8817 47.1339 54.1161C47.3683 54.3505 47.5 54.6685 47.5 55C47.5 57.71 50.935 60 55 60C59.065 60 62.5 57.71 62.5 55C62.5 53.225 59.4202 51.25 55 51.25C49.3921 51.25 45 48.5058 45 45C45 40.8643 49.4861 37.5 55 37.5C60.5139 37.5 65 40.8643 65 45C65 45.3315 64.8683 45.6495 64.6339 45.8839C64.3995 46.1183 64.0815 46.25 63.75 46.25C63.4185 46.25 63.1005 46.1183 62.8661 45.8839C62.6317 45.6495 62.5 45.3315 62.5 45C62.5 42.29 59.065 40 55 40C50.935 40 47.5 42.29 47.5 45C47.5 46.775 50.5798 48.75 55 48.75C60.6079 48.75 65 51.4942 65 55C65 59.1357 60.5139 62.5 55 62.5Z" fill="#A1EDF7"/>
</g>
<defs>
<clipPath id="clip0_2572_14836">
<rect width="60" height="60" fill="white" transform="translate(20 20)"/>
</clipPath>
</defs>
</svg>
