<svg width="100" height="100" viewBox="0 0 100 100" fill="none" xmlns="http://www.w3.org/2000/svg">
<rect width="100" height="100" rx="8" fill="#15284C"/>
<g clip-path="url(#clip0_2615_60)">
<path d="M65.2352 64.4227C65.6381 61.0659 65.5174 60.5736 68.0177 61.1174L68.6524 61.1731C70.575 61.2606 73.0899 60.8639 74.5674 60.1775C77.748 58.7017 79.634 56.2377 76.4978 56.8851C69.344 58.3609 68.8521 55.9386 68.8521 55.9386C76.4062 44.7303 79.564 30.5025 76.8383 27.0198C69.4038 17.5203 56.535 22.0124 56.3197 22.129L56.2511 22.1417C54.8376 21.8484 53.2557 21.6732 51.4787 21.6444C48.2414 21.5913 45.7849 22.4931 43.9215 23.9065C43.9215 23.9065 20.9642 14.4484 22.0322 35.801C22.2594 40.3433 28.5432 70.172 36.0378 61.1623C38.777 57.8678 41.4242 55.0822 41.4242 55.0822C42.7387 55.9555 44.3125 56.401 45.9631 56.241L46.0907 56.1322C46.0507 56.5412 46.0684 56.9413 46.1417 57.4149C44.2114 59.5722 44.7786 59.9509 40.9186 60.7454C37.0133 61.5503 39.3077 62.9833 40.8052 63.3578C42.6212 63.8119 46.8223 64.4553 49.6617 60.4813L49.5486 60.9347C50.306 61.5407 50.2548 65.2897 50.3622 67.9684C50.4697 70.6472 50.6491 73.1469 51.1951 74.6207C51.7411 76.0942 52.3854 79.8904 57.4584 78.8031C61.6982 77.8946 64.9398 76.587 65.2352 64.4227Z" fill="#15284C"/>
<path d="M76.4987 56.8849C69.3442 58.3607 68.8523 55.9384 68.8523 55.9384C76.4064 44.7294 79.5642 30.5013 76.8391 27.019C69.4046 17.5201 56.5352 22.0125 56.3205 22.1291L56.2513 22.1415C54.8378 21.8481 53.2559 21.6733 51.478 21.6442C48.2407 21.5912 45.7851 22.4929 43.9217 23.906C43.9217 23.906 20.964 14.4483 22.0317 35.8008C22.2589 40.3434 28.5425 70.172 36.0374 61.1624C38.7768 57.8679 41.4236 55.0823 41.4236 55.0823C42.7382 55.9556 44.312 56.4011 45.9619 56.2411L46.09 56.1322C46.0502 56.5413 46.0684 56.9414 46.1414 57.415C44.2106 59.5723 44.7779 59.951 40.9182 60.7455C37.0127 61.5504 39.307 62.9834 40.805 63.3579C42.621 63.812 46.8224 64.4553 49.6612 60.4814L49.548 60.9348C50.3045 61.5407 50.8357 64.8762 50.7467 67.8998C50.6577 70.9235 50.5982 72.9993 51.1943 74.6208C51.7904 76.2422 52.3845 79.8904 57.4585 78.8032C61.6982 77.8946 63.8953 75.5402 64.2009 71.6127C64.4178 68.8206 64.9087 69.2333 64.9397 66.737L65.3334 65.5552C65.7874 61.7703 65.4055 60.5492 68.0176 61.1172L68.6524 61.1729C70.5749 61.2604 73.0911 60.8637 74.5679 60.1773C77.7479 58.7015 79.6339 56.2375 76.4984 56.8849H76.4987Z" fill="#A1EDF7"/>
<path d="M49.9935 58.1683C50.4829 58.182 50.8685 58.5898 50.8548 59.0792C50.7567 62.5844 50.7693 66.0966 50.8913 68.9402C50.9524 70.3628 51.0405 71.6081 51.1542 72.5968C51.2713 73.6154 51.4068 74.2742 51.5303 74.5832L51.5964 74.7467C51.935 75.5756 52.4056 76.5684 53.2539 77.283C54.1049 77.9998 55.4527 78.5291 57.7611 78.0346L57.9498 77.9931C59.8772 77.559 61.0734 76.9574 61.8724 76.1269C62.6954 75.2714 63.2035 74.0626 63.5245 72.2009L63.5246 72.2007C64.0127 69.3722 64.9596 61.4681 65.0793 59.8711C65.116 59.3829 65.5414 59.0168 66.0296 59.0534C66.5178 59.09 66.8839 59.5155 66.8473 60.0036C66.7232 61.6574 65.7694 69.6182 65.2716 72.5023C64.9233 74.5227 64.3254 76.1344 63.1501 77.356C61.9764 78.5759 60.3335 79.2963 58.1327 79.7682H58.1325C55.3666 80.3607 53.4394 79.7574 52.1116 78.6389C50.8377 77.5658 50.2303 76.1066 49.8843 75.2418L49.8842 75.2416C49.6632 74.6888 49.5096 73.8149 49.3928 72.7992C49.2726 71.7533 49.1822 70.4623 49.1201 69.0162C48.9959 66.1223 48.9836 62.5672 49.0826 59.0296C49.0963 58.5402 49.5041 58.1546 49.9935 58.1683Z" fill="#15284C"/>
<path d="M32.4825 20.8379C35.4149 20.6697 38.3522 21.1984 40.5333 21.7563C41.6288 22.0365 42.5451 22.3272 43.1894 22.5485C43.5117 22.6592 43.7665 22.7527 43.9423 22.8192C44.0302 22.8525 44.0985 22.8791 44.1456 22.8976C44.1691 22.9068 44.1873 22.9141 44.2001 22.9193C44.2064 22.9218 44.2114 22.9238 44.2151 22.9253C44.2169 22.926 44.2184 22.9266 44.2195 22.9271C44.2201 22.9273 44.2206 22.9276 44.2209 22.9277C44.2214 22.9279 44.2217 22.928 43.9053 23.7021L44.2218 22.928C44.675 23.1132 44.8922 23.6308 44.707 24.084C44.5218 24.5371 44.0045 24.7543 43.5514 24.5693H43.5513C43.551 24.5691 43.5503 24.5689 43.5494 24.5685C43.5475 24.5677 43.5441 24.5664 43.5395 24.5646C43.5302 24.5608 43.5155 24.5549 43.4956 24.5471C43.4558 24.5314 43.3951 24.5078 43.315 24.4775C43.1548 24.4169 42.9171 24.3296 42.6134 24.2253C42.0055 24.0165 41.1353 23.7404 40.0938 23.474C38.0008 22.9386 35.2614 22.4544 32.584 22.6079C29.9053 22.7615 27.3888 23.5455 25.5978 25.4428C23.8145 27.3318 22.6069 30.4778 22.8665 35.6673L22.8724 35.7708C22.9457 36.8882 23.3624 39.4773 24.0765 42.664C24.8093 45.9347 25.8403 49.7677 27.0907 53.169C28.3564 56.6119 29.7962 59.4666 31.2865 60.9152C32.0194 61.6275 32.656 61.8948 33.2052 61.8715C33.7489 61.8484 34.4549 61.5294 35.3055 60.5068C36.6854 58.8467 37.9983 57.3668 38.966 56.3023C39.45 55.7697 39.8482 55.3405 40.1258 55.0439C40.2646 54.8957 40.3734 54.7805 40.4476 54.7021C40.4847 54.663 40.5134 54.6331 40.5327 54.6128C40.5424 54.6026 40.5498 54.5948 40.5548 54.5895C40.5573 54.5869 40.5593 54.5849 40.5606 54.5835C40.5613 54.5828 40.5618 54.5822 40.5622 54.5818C40.5624 54.5817 40.5625 54.5815 40.5626 54.5814L40.5627 54.5812C40.5628 54.5812 40.5639 54.5822 41.2028 55.1946L40.5628 54.5812C40.9016 54.2278 41.4628 54.2159 41.8163 54.5546C42.1586 54.8828 42.1805 55.4196 41.8735 55.7742L41.8428 55.8079H41.8427C41.8427 55.808 41.8426 55.8081 41.8425 55.8083C41.8423 55.8085 41.8419 55.8089 41.8414 55.8094C41.8403 55.8105 41.8386 55.8123 41.8364 55.8146C41.8319 55.8193 41.825 55.8265 41.8159 55.8361C41.7977 55.8552 41.7703 55.884 41.7344 55.9219C41.6625 55.9978 41.5562 56.1102 41.4201 56.2557C41.1477 56.5466 40.7554 56.9694 40.2779 57.4947C39.3224 58.5459 38.0275 60.0056 36.6687 61.6403L36.6685 61.6406C35.6455 62.8705 34.5156 63.5903 33.2803 63.6427C32.0504 63.6949 30.9646 63.0746 30.0509 62.1865C28.248 60.4341 26.6972 57.2369 25.4266 53.7807C24.1408 50.2831 23.0899 46.3699 22.3463 43.0516C21.607 39.7521 21.1566 36.9727 21.0957 35.7558C20.8213 30.2691 22.0848 26.5815 24.3087 24.2257C26.5248 21.8781 29.5514 21.0059 32.4825 20.8379Z" fill="#15284C"/>
<path d="M63.3426 19.9929C67.7602 19.9519 73.3991 21.1603 77.487 26.3837V26.3838C78.3663 27.5075 78.6707 29.3176 78.6392 31.3552C78.607 33.4446 78.2166 35.9724 77.5084 38.7141C76.0917 44.199 73.374 50.6519 69.5373 56.3452C69.2637 56.7512 68.7128 56.8585 68.3068 56.5849C67.9008 56.3113 67.7935 55.7604 68.0671 55.3544C71.7843 49.8384 74.4224 43.5727 75.7919 38.2707C76.4768 35.6189 76.8371 33.236 76.8665 31.3278C76.8968 29.368 76.5739 28.0938 76.0907 27.4763V27.4762C72.4641 22.8423 67.4586 21.7277 63.3592 21.7658C61.3109 21.7848 59.514 22.0931 58.2788 22.3818C57.662 22.526 57.1898 22.6643 56.9016 22.7567C56.8129 22.7851 56.7443 22.8085 56.6957 22.8255C56.6529 22.8472 56.6078 22.8659 56.5604 22.8807C56.5447 22.8856 56.5112 22.896 56.474 22.9049C56.4632 22.9075 56.4453 22.9116 56.4232 22.9156C56.4086 22.9183 56.3583 22.9273 56.2936 22.9296C56.2565 22.9301 56.1588 22.9241 56.0985 22.9149C55.9881 22.8867 55.6947 22.7248 55.5428 22.5621C55.4108 22.2917 55.4102 21.797 55.4865 21.6135C55.5402 21.5283 55.6414 21.41 55.6821 21.3725C55.7491 21.3146 55.8102 21.28 55.822 21.2732C55.8451 21.26 55.8643 21.2503 55.8751 21.245C55.8971 21.2342 55.9161 21.2258 55.9267 21.2213C55.9497 21.2114 55.973 21.2023 55.9925 21.1948C56.071 21.1647 56.1967 21.1208 56.3605 21.0683C56.6925 20.9619 57.2106 20.8108 57.8752 20.6555C59.2025 20.3452 61.1325 20.0135 63.3426 19.9929Z" fill="#15284C"/>
<path d="M42.9236 23.4395C45.0002 21.7106 47.7781 20.6086 51.442 20.6687C58.707 20.7878 63.5013 24.5232 66.3822 28.2062C67.8195 30.0437 68.7905 31.8785 69.3703 33.2717C69.6594 33.9665 69.8578 34.5671 69.967 35.0163C70.02 35.2343 70.0605 35.451 70.0707 35.6391C70.0752 35.7244 70.0779 35.867 70.041 36.0204C70.0199 36.108 69.8848 36.6151 69.3225 36.7314L69.0027 36.7387C65.3636 36.156 63.6953 36.7742 62.9711 37.6027C62.2341 38.446 62.1345 39.8859 62.6157 41.8152C63.0827 43.6875 64.0253 45.7284 64.9303 47.4651C65.3801 48.3283 65.8132 49.1025 66.1658 49.7351C66.5019 50.3379 66.8019 50.8752 66.9346 51.1968L66.9767 51.2972C67.4149 52.3242 67.9545 53.0564 68.4412 53.671C68.6823 53.9755 68.95 54.2989 69.1549 54.5907C69.354 54.8745 69.558 55.2145 69.6556 55.6078C69.6612 55.6182 69.6723 55.6374 69.6921 55.6629C69.7492 55.7367 69.9061 55.9022 70.2819 56.0578C71.0594 56.3796 72.7633 56.6518 76.27 55.928L76.3502 55.9118C76.7488 55.8337 77.1102 55.7944 77.4271 55.8053C77.7453 55.8162 78.1337 55.8809 78.4539 56.1246C78.8367 56.4159 78.9753 56.8465 78.9365 57.2493C78.9032 57.5957 78.7457 57.902 78.5904 58.1363C78.2714 58.6173 77.7446 59.1149 77.1317 59.5718C76.5058 60.0383 75.7391 60.4999 74.8916 60.8935L74.8914 60.8936C73.4367 61.5688 71.187 61.9609 69.308 61.9815C68.3665 61.9918 67.4398 61.9106 66.7105 61.684C66.0655 61.4835 65.1374 61.0184 65.0786 59.988V59.9879C65.0112 58.8054 65.1811 57.8975 65.5589 57.2049C65.9467 56.4941 66.5022 56.1038 67.0167 55.872C67.2658 55.7599 67.505 55.6848 67.6978 55.6289C67.7032 55.6273 67.7086 55.6259 67.7139 55.6243C67.7105 55.6194 67.7072 55.6143 67.7037 55.6093C67.5381 55.3733 67.3319 55.126 67.0513 54.7716C66.5271 54.1095 65.8759 53.2342 65.3465 51.9941L65.2957 51.8729C65.2137 51.6742 64.9847 51.2574 64.6173 50.5984C64.2664 49.969 63.8212 49.1733 63.358 48.2845C62.4372 46.5174 61.4147 44.326 60.8955 42.2443C60.3905 40.2195 60.2835 37.9837 61.6361 36.436C62.8486 35.0487 64.9699 34.5086 68.0642 34.8266C67.9786 34.5726 67.8691 34.279 67.7334 33.9529C67.2072 32.6884 66.3132 30.9955 64.9857 29.2984C62.337 25.9122 58.0023 22.5495 51.413 22.4414C48.1514 22.388 45.7918 23.3584 44.0579 24.802C42.3073 26.2596 41.1389 28.2471 40.3642 30.2999C39.5903 32.3506 39.2263 34.4219 39.0575 35.9903C38.9733 36.772 38.9383 37.4227 38.9243 37.8753C38.9172 38.1014 38.9156 38.2776 38.9155 38.3956C38.9155 38.4545 38.9159 38.4989 38.9162 38.5276C38.9164 38.5419 38.9166 38.5523 38.9168 38.5587C38.9168 38.5619 38.9168 38.5641 38.9169 38.5653V38.5661C38.9295 39.0553 38.5432 39.4623 38.054 39.4751C37.5646 39.488 37.1574 39.1017 37.1446 38.6123L38.0308 38.5889L37.2553 38.6092C37.1502 38.6118 37.1448 38.6117 37.1446 38.6114C37.1446 38.6112 37.1445 38.6106 37.1445 38.6101C37.1444 38.6091 37.1445 38.6078 37.1445 38.6063C37.1444 38.6033 37.1442 38.5992 37.1441 38.5942C37.1439 38.5839 37.1437 38.5696 37.1434 38.5513C37.1429 38.5147 37.1426 38.4622 37.1426 38.3948C37.1426 38.26 37.1446 38.0656 37.1522 37.8202C37.1674 37.3297 37.2051 36.6336 37.2948 35.8006C37.4736 34.1397 37.8616 31.91 38.7055 29.6739C39.5486 27.4398 40.8638 25.1545 42.9236 23.4395ZM68.7122 57.1765C68.5449 57.2349 68.3275 57.2922 68.1917 57.3316C68.027 57.3794 67.8809 57.4273 67.7448 57.4886C67.4889 57.6038 67.2742 57.7628 67.1153 58.0541C66.9506 58.356 66.8007 58.884 66.8449 59.8154C66.8883 59.8504 66.9958 59.9161 67.2367 59.991C67.7127 60.1389 68.4295 60.2181 69.2885 60.2087C71.0106 60.1898 72.9905 59.8213 74.145 59.2855C74.8871 58.9408 75.5483 58.5407 76.0723 58.1502C76.3073 57.975 76.5056 57.8085 76.6675 57.6566C76.6547 57.6592 76.6417 57.6616 76.6286 57.6643H76.6285C72.9806 58.4173 70.8611 58.2164 69.6037 57.6959C69.2363 57.5438 68.9438 57.3646 68.7122 57.1765ZM69.6676 55.6572L69.6678 55.658C69.6676 55.6569 69.6673 55.6559 69.6671 55.6548C69.6658 55.6492 69.6645 55.644 69.6633 55.6392C69.6631 55.6382 69.6628 55.6372 69.6625 55.6362C69.6641 55.6432 69.666 55.6502 69.6676 55.6572Z" fill="#15284C"/>
<path d="M47.3319 55.6564C47.9596 55.6015 48.48 55.8246 48.7572 55.9394L48.7574 55.9395C49.6337 56.3027 50.2945 57.133 50.615 57.9979C50.9388 58.8715 50.9878 59.989 50.332 60.9071C47.1505 65.3618 42.4219 64.6001 40.5394 64.1291C40.0969 64.0185 39.6013 63.8323 39.1656 63.594C38.7642 63.3743 38.2673 63.0324 38.0046 62.5453C37.8588 62.275 37.7681 61.9248 37.8569 61.5395C37.9436 61.1634 38.1735 60.8756 38.4315 60.6652C38.9165 60.2697 39.6848 59.9958 40.6887 59.7888H40.6889C42.6309 59.389 43.254 59.1251 43.6503 58.8094C43.8547 58.6465 44.0313 58.4437 44.3085 58.0942C44.5788 57.7534 44.9255 57.2992 45.4304 56.7352C46.0303 56.064 46.6632 55.7148 47.3319 55.6564ZM47.9741 57.5349C47.7447 57.4442 47.6138 57.4114 47.4862 57.4225C47.3815 57.4317 47.138 57.4851 46.7519 57.9171L46.7513 57.9178C46.2907 58.4323 45.9843 58.8342 45.6974 59.196C45.4173 59.549 45.1325 59.8951 44.755 60.1959C43.9875 60.8075 42.9646 61.1302 41.0466 61.5252L41.0467 61.5253C40.5895 61.6195 40.2463 61.7184 39.9947 61.8138C39.9147 61.8442 39.8471 61.8734 39.79 61.9002C39.8548 61.9448 39.9305 61.9915 40.0166 62.0386C40.3103 62.1993 40.6631 62.3326 40.9694 62.4092H40.9696C42.7192 62.847 46.3931 63.3717 48.8892 59.8767L48.9083 59.8488C49.1005 59.5562 49.1383 59.1153 48.9525 58.6139C48.7575 58.0877 48.3899 57.7064 48.0787 57.5773L47.9741 57.5349Z" fill="#15284C"/>
<path d="M42.5477 35.2855C43.8465 34.9859 45.3126 34.8899 46.592 35.3839C47.9395 35.9043 48.9463 37.0279 49.3416 38.8557H49.3417C50.2713 43.1546 50.1693 46.0519 49.6709 48.2484C49.4228 49.3418 49.0816 50.2382 48.7466 51.0185C48.3969 51.8328 48.1048 52.4152 47.8673 53.0543C47.5317 53.9588 47.2333 54.7306 47.0357 55.4412C46.8387 56.1499 46.7713 56.7022 46.8406 57.1543C46.9149 57.6382 46.5827 58.0906 46.0988 58.1649C45.6149 58.2391 45.1625 57.9071 45.0882 57.4232C45.0702 57.3055 45.0577 57.1874 45.0502 57.0691C40.1455 56.949 36.2457 52.1923 37.0006 46.7936V46.7935C37.5535 42.8403 37.1373 39.5864 37.1439 38.5832V38.583C37.1464 38.1984 37.3686 37.9199 37.4499 37.8213C37.5687 37.6773 37.7163 37.5418 37.8659 37.4201C38.1697 37.173 38.5772 36.906 39.043 36.6466C39.9762 36.127 41.2324 35.5889 42.5477 35.2855ZM45.9533 37.0378C45.1482 36.7269 44.0887 36.7496 42.9462 37.0131C41.8203 37.2728 40.7196 37.7422 39.9055 38.1956C39.4977 38.4227 39.1839 38.6335 38.9846 38.7956C38.9621 38.814 38.9421 38.8308 38.9245 38.8461C38.9781 39.9381 39.2784 43.3069 38.7565 47.0392C38.1233 51.5671 41.4315 55.2856 45.2413 55.2974C45.2682 55.1865 45.2972 55.076 45.3277 54.9661C45.5509 54.1637 45.8857 53.2982 46.2052 52.4372L46.2054 52.4368C46.4601 51.7514 46.821 51.0092 47.1174 50.319C47.4284 49.5947 47.7262 48.8067 47.9419 47.8561C48.3712 45.9646 48.4964 43.3352 47.6088 39.2305L47.5813 39.1104C47.287 37.8898 46.6672 37.3135 45.9533 37.0378ZM38.8175 38.9495C38.7998 38.9709 38.8044 38.9693 38.819 38.9477C38.8184 38.9483 38.818 38.9489 38.8175 38.9495Z" fill="#15284C"/>
<path d="M43.8029 38.4615C43.7619 38.7515 44.3338 39.5254 45.0795 39.6288C45.824 39.7326 46.4612 39.1279 46.5016 38.8382C46.5419 38.5481 45.9707 38.2287 45.2247 38.1249C44.4799 38.0209 43.8424 38.1722 43.803 38.4615H43.8029Z" fill="#15284C"/>
<path d="M44.1813 37.8582C44.4826 37.7869 44.8663 37.7766 45.2657 37.8323L45.2655 37.8324C45.6654 37.8881 46.0319 38.0027 46.3023 38.1538C46.4366 38.2288 46.5613 38.3207 46.6523 38.4313C46.7435 38.5421 46.8196 38.6971 46.7943 38.879C46.7734 39.0286 46.6882 39.1709 46.5974 39.2837C46.5006 39.4041 46.3716 39.5233 46.2204 39.6258C45.9199 39.8294 45.502 39.986 45.0391 39.9215V39.9216C44.5801 39.858 44.1934 39.5931 43.9323 39.319C43.8003 39.1803 43.6919 39.0307 43.6178 38.8877C43.5504 38.7575 43.4869 38.5861 43.5103 38.4203L43.5463 38.1661H43.6212C43.6649 38.1109 43.7167 38.0655 43.769 38.0293C43.8866 37.9479 44.0317 37.8937 44.1813 37.8582ZM45.184 38.4175C44.8385 38.3693 44.5311 38.3827 44.3176 38.4333C44.2098 38.4588 44.1415 38.4902 44.1053 38.5153C44.1041 38.5161 44.103 38.517 44.1019 38.5178C44.1073 38.5368 44.1184 38.5692 44.1427 38.616C44.1876 38.7028 44.2613 38.8075 44.3603 38.9114C44.5614 39.1226 44.8335 39.2965 45.1202 39.3363H45.1204C45.4018 39.3755 45.6747 39.2817 45.8889 39.1366C45.9951 39.0646 46.0796 38.9847 46.1369 38.9134C46.1742 38.8669 46.1925 38.833 46.2013 38.8142C46.1997 38.8121 46.1981 38.8094 46.1959 38.8067C46.1678 38.7726 46.1107 38.7238 46.014 38.6698C45.8224 38.5627 45.5302 38.4657 45.1841 38.4175H45.184Z" fill="#15284C"/>
<path d="M66.478 37.8703C66.5184 38.1603 65.9472 38.9342 65.2013 39.0376C64.4563 39.1414 63.8191 38.5366 63.7783 38.2469C63.7389 37.9569 64.3102 37.6374 65.0554 37.5336C65.8005 37.4298 66.4376 37.581 66.478 37.8704V37.8703Z" fill="#15284C"/>
<path d="M65.0348 37.3873C65.4209 37.3336 65.7855 37.3446 66.0649 37.4108C66.2041 37.4438 66.33 37.4922 66.4273 37.5595C66.5248 37.6269 66.6062 37.7228 66.624 37.85H66.6242C66.6408 37.969 66.595 38.1059 66.5315 38.2284C66.4647 38.3574 66.3651 38.4959 66.2414 38.6259C65.9954 38.8842 65.6374 39.1261 65.2214 39.1838L65.2215 39.1839C64.8037 39.2421 64.4218 39.1013 64.1427 38.9122C64.0027 38.8174 63.8849 38.708 63.7979 38.5999C63.7139 38.4956 63.6475 38.3785 63.6318 38.2676L63.6317 38.2669C63.6145 38.1397 63.6668 38.0252 63.7423 37.9337C63.8176 37.8424 63.9255 37.7613 64.0504 37.6915C64.3011 37.5515 64.6488 37.4411 65.0348 37.3873ZM65.9968 37.6983C65.7613 37.6425 65.4348 37.6299 65.0757 37.68C64.7166 37.73 64.406 37.8314 64.1946 37.9495C64.0885 38.0088 64.0143 38.0684 63.9703 38.1218C63.9267 38.1746 63.9221 38.2087 63.9245 38.2267C63.9294 38.2607 63.958 38.3277 64.028 38.4147C64.0952 38.4983 64.1909 38.5879 64.3084 38.6675C64.5444 38.8273 64.8536 38.9369 65.1808 38.8913H65.1809C65.5107 38.8456 65.8113 38.649 66.0273 38.4221C66.1345 38.3095 66.2168 38.1935 66.2691 38.0926C66.3245 37.9856 66.335 37.9171 66.3315 37.8909L66.33 37.8836C66.3251 37.8653 66.3088 37.8369 66.2593 37.8027C66.2026 37.7635 66.115 37.7263 65.9968 37.6983Z" fill="#15284C"/>
<path d="M69.0948 34.9782C69.5837 34.9519 70.0013 35.3268 70.0277 35.8157C70.0941 37.047 69.9599 38.0764 69.8104 39.064C69.66 40.058 69.4979 40.9912 69.4613 42.1376V42.1382C69.4351 42.9458 69.518 43.7996 69.6276 44.7336C69.7349 45.6487 69.8693 46.65 69.9193 47.6643C70.0209 49.7247 69.7834 51.9536 68.2892 54.1852C68.0168 54.592 67.4662 54.7009 67.0594 54.4286C66.6526 54.1562 66.5436 53.6056 66.8159 53.1988C68.0227 51.3966 68.2394 49.594 68.1485 47.7516C68.1023 46.8144 67.9788 45.8964 67.8666 44.9401C67.7567 44.0027 67.6584 43.0329 67.6893 42.0806C67.73 40.8056 67.913 39.7534 68.0575 38.7987C68.203 37.8375 68.3137 36.9547 68.2574 35.9111C68.231 35.4223 68.606 35.0046 69.0948 34.9782Z" fill="#15284C"/>
</g>
<defs>
<clipPath id="clip0_2615_60">
<rect width="60" height="60" fill="white" transform="translate(20 20)"/>
</clipPath>
</defs>
</svg>
