<svg width="100" height="100" viewBox="0 0 100 100" fill="none" xmlns="http://www.w3.org/2000/svg">
<rect width="100" height="100" rx="8" fill="#15284C"/>
<path d="M74.9786 56.5277C68.2195 57.9221 67.7547 55.6336 67.7547 55.6336C74.8911 45.0443 77.8745 31.6027 75.3001 28.313C68.2765 19.3391 56.1186 23.5832 55.9156 23.6932L55.8504 23.705C54.5149 23.4277 53.0206 23.2627 51.3408 23.2352C48.2826 23.1852 45.9626 24.0371 44.2022 25.3721C44.2022 25.3721 22.5136 16.4371 23.5224 36.6093C23.737 40.9007 29.6733 69.0805 36.7538 60.5689C39.3417 57.4564 41.8424 54.8248 41.8424 54.8248C43.0842 55.6498 44.5711 56.0707 46.1297 55.9196L46.2508 55.8168C46.2131 56.2032 46.2304 56.5811 46.2992 57.0286C44.4751 59.0666 45.0113 59.4243 41.3649 60.175C37.6751 60.9355 39.8426 62.2891 41.2579 62.6432C42.9736 63.0721 46.9426 63.6798 49.6245 59.9255L49.5176 60.3539C50.2322 60.9264 50.734 64.0773 50.6499 66.9339C50.5658 69.7902 50.5097 71.7514 51.0726 73.2832C51.6361 74.815 52.1972 78.2616 56.9908 77.2346C60.9961 76.3761 63.0717 74.1518 63.3606 70.4414C63.5654 67.8036 64.0292 68.1936 64.0583 65.8352L64.4304 64.7189C64.8592 61.1432 64.4986 59.9896 66.9661 60.5261L67.5661 60.5789C69.382 60.6614 71.7592 60.2866 73.1545 59.6382C76.1586 58.2441 77.9404 55.9161 74.9781 56.5277H74.9786Z" fill="#A1EDF7"/>
<path d="M45.472 38.5284C44.8629 38.4436 44.3113 38.522 44.0322 38.7334C43.8754 38.8522 43.8268 38.99 43.8136 39.0847C43.7786 39.3359 43.9545 39.6136 44.0627 39.7568C44.3686 40.1622 44.8154 40.4409 45.2577 40.5022C45.3218 40.5113 45.3857 40.5154 45.4491 40.5154C46.1866 40.5154 46.8572 39.9411 46.9163 39.5172C46.9902 38.9863 46.2195 38.6322 45.472 38.5284ZM65.6502 38.5452C65.592 38.1291 64.8516 38.0104 64.1488 38.1082C63.447 38.2059 62.7666 38.5227 62.8234 38.9397C62.8688 39.2641 63.4545 39.8177 64.1477 39.8177C64.2063 39.8177 64.2654 39.8138 64.325 39.8054C64.7877 39.7413 65.1272 39.4475 65.2886 39.2782C65.5341 39.02 65.6763 38.7322 65.6502 38.5452Z" fill="black"/>
<path d="M77.2278 56.3693C76.97 55.59 76.1405 55.3393 74.7623 55.6238C70.6703 56.4684 69.2048 55.8834 68.7237 55.5291C71.9044 50.6836 74.5209 44.8263 75.9325 39.3616C76.6012 36.7729 76.9705 34.3688 77.0007 32.4093C77.0341 30.2586 76.6678 28.6782 75.9123 27.7127C72.8664 23.8207 68.3959 21.7329 62.9846 21.6757C59.2644 21.6338 56.1212 22.5859 55.5118 22.8536C54.2287 22.5345 52.8298 22.3386 51.3069 22.3136C48.5141 22.2684 46.1 22.937 44.1014 24.3C43.2332 23.9768 40.9896 23.2066 38.2457 22.7645C33.5021 22.0009 29.7325 22.5795 27.0425 24.4852C23.8328 26.7593 22.3509 30.8243 22.638 36.567C22.7346 38.4991 23.8355 44.4427 25.5728 50.1347C27.8596 57.6266 30.3455 61.8677 32.9609 62.7402C33.2671 62.8422 33.62 62.9136 34.0093 62.9136C34.9634 62.9136 36.1332 62.4836 37.3503 61.0204C38.8347 59.2396 40.3703 57.5021 41.955 55.81C42.9832 56.3618 44.1128 56.67 45.268 56.7009C45.2703 56.7311 45.2732 56.7613 45.2759 56.7913C45.0771 57.0285 44.8824 57.269 44.6918 57.5129C43.8914 58.5291 43.7248 58.7407 41.1482 59.2711C40.4153 59.4225 38.4687 59.8236 38.44 61.1881C38.4091 62.6791 40.7412 63.3052 41.0068 63.3716C41.9328 63.6034 42.8248 63.7177 43.6755 63.7177C45.7443 63.7177 47.565 63.0377 49.02 61.722C48.9753 67.037 49.1968 72.2743 49.835 73.87C50.3578 75.1763 51.6346 78.3688 55.6678 78.3686C56.2596 78.3686 56.9109 78.2997 57.6275 78.1461C61.8368 77.2438 63.6648 75.3834 64.3718 71.2818C64.7503 69.0897 65.3996 63.8554 65.705 61.0477C66.3496 61.2488 67.1793 61.3409 68.0764 61.3406C69.9473 61.3406 72.1062 60.9431 73.46 60.3147C74.9809 59.6084 77.7255 57.8752 77.2278 56.3693ZM67.2037 37.3966C67.1898 38.2254 67.0757 38.9779 66.9548 39.7634C66.8246 40.6082 66.69 41.4816 66.6562 42.5418C66.6228 43.5736 66.7516 44.6463 66.8762 45.6838C67.128 47.7793 67.3864 49.9366 66.3862 52.0652C66.22 51.7708 66.072 51.4665 65.943 51.1541C65.8187 50.8527 65.5487 50.3686 65.1748 49.6986C63.7205 47.0904 60.3148 40.9827 62.0582 38.4904C62.5775 37.7486 63.8955 36.9859 67.2037 37.3966ZM63.1937 23.3541C68.0423 23.4611 71.8778 25.275 74.5932 28.745C76.6759 31.4066 74.3825 43.5172 67.7432 53.9652C67.6764 53.8803 67.6093 53.7957 67.5419 53.7113L67.4578 53.6063C69.1734 50.7729 68.838 47.9695 68.5393 45.4841C68.4166 44.4641 68.3007 43.5007 68.3303 42.5956C68.3607 41.6366 68.4875 40.8138 68.6103 40.0184C68.7609 39.0382 68.9144 38.0238 68.8721 36.8282C68.9037 36.7027 68.9164 36.5545 68.8998 36.3786C68.7919 35.232 67.4828 31.8004 64.8146 28.6945C63.355 26.9957 61.2266 25.0945 58.3205 23.8122C59.5705 23.5532 61.2798 23.3116 63.1937 23.3541ZM36.0623 59.9495C34.7214 61.5618 33.7955 61.2527 33.4909 61.1513C31.5068 60.4895 29.2046 56.2959 27.1748 49.6459C25.4184 43.8918 24.3921 38.1057 24.3107 36.4832C24.0543 31.3518 25.2982 27.7757 28.008 25.8538C32.418 22.7266 39.6684 24.5984 42.5819 25.5477C42.54 25.5891 42.4964 25.6277 42.455 25.6697C37.6741 30.4979 37.7875 38.747 37.7993 39.2513C37.7989 39.4459 37.8153 39.7213 37.8375 40.1002C37.9198 41.4877 38.073 44.07 37.6639 46.9943C37.2839 49.7118 38.1216 52.3716 39.9618 54.2918C40.1507 54.4885 40.3492 54.6757 40.5566 54.8527C39.7375 55.73 37.9573 57.67 36.0623 59.9495ZM41.1712 53.1329C39.688 51.5852 39.0143 49.4325 39.3228 47.2261C39.7546 44.137 39.5953 41.4466 39.5096 40.0011C39.4975 39.7988 39.4868 39.6216 39.4807 39.4818C40.1791 38.8625 43.4157 37.1284 45.7239 37.6572C46.7771 37.8984 47.4189 38.6157 47.6857 39.8493C49.0666 46.2363 47.8684 48.8984 46.9057 51.0377C46.7073 51.4784 46.5198 51.895 46.3598 52.3259L46.2357 52.6591C45.9216 53.5013 45.6293 54.2845 45.4482 55.0281C43.8714 55.0236 42.3375 54.35 41.1712 53.1327V53.1329ZM41.4132 61.7466C40.9528 61.6316 40.5387 61.4318 40.2957 61.2661C40.4987 61.1707 40.8598 61.0406 41.4862 60.9116C44.5173 60.2877 44.9855 59.8472 46.0078 58.5493C46.2421 58.2516 46.5078 57.9143 46.8757 57.5034L46.8762 57.5029C47.4241 56.8893 47.6748 56.9934 48.1293 57.182C48.4978 57.3343 48.8566 57.7961 49.0021 58.3043C49.0709 58.5443 49.1482 58.9997 48.8953 59.3543C46.7598 62.3443 43.648 62.3059 41.4132 61.7466ZM57.2766 76.5084C53.5684 77.3029 52.2555 75.4109 51.3903 73.2479C50.8319 71.8516 50.5573 65.5547 50.7521 58.6009C50.7546 58.5084 50.7414 58.4191 50.7159 58.335C50.6932 58.1689 50.6585 58.0047 50.6123 57.8436C50.3228 56.8318 49.6171 55.9854 48.7705 55.6345C48.4341 55.4952 47.8168 55.2395 47.075 55.4293C47.2332 54.7775 47.5075 54.0413 47.805 53.2443L47.9298 52.9091C48.0703 52.5311 48.2466 52.1395 48.433 51.725C49.4405 49.4868 50.8203 46.4211 49.3228 39.4954C48.7618 36.9013 46.8887 35.6345 44.0491 35.9288C42.3468 36.105 40.7893 36.7918 40.0125 37.1856C39.8455 37.2702 39.6928 37.352 39.55 37.4316C39.7668 34.8179 40.5859 29.9334 43.65 26.8429C45.5793 24.8975 48.1487 23.9366 51.2791 23.9884C57.4473 24.0893 61.4028 27.2547 63.635 29.8927C65.5587 32.1657 66.6003 34.4554 67.0159 35.6904C63.8898 35.3725 61.7637 35.9895 60.6859 37.5304C58.3412 40.8822 61.9687 47.3877 63.7121 50.5143C64.0318 51.0872 64.3078 51.5825 64.3946 51.7929C64.9623 53.1688 65.6973 54.0875 66.2339 54.7579C66.3984 54.9634 66.558 55.1627 66.6794 55.3368C65.7325 55.6097 64.0318 56.2404 64.1868 59.3929C64.0618 60.9747 63.173 68.3806 62.7214 70.9972C62.1253 74.4541 60.8532 75.7416 57.2766 76.5086V76.5084ZM72.7548 58.7957C71.7866 59.245 70.1664 59.582 68.6273 59.6545C66.9273 59.7341 66.0619 59.4641 65.8582 59.2979C65.7628 57.3334 66.4939 57.1282 67.2678 56.9109C67.3894 56.8768 67.508 56.8434 67.6225 56.8034C67.6937 56.8613 67.7716 56.9188 67.8571 56.9752C69.2234 57.877 71.6605 57.9743 75.1012 57.2641L75.1389 57.2566C74.6748 57.6904 73.8807 58.2727 72.7548 58.7957Z" fill="black"/>
</svg>
