<svg width="100" height="100" viewBox="0 0 100 100" fill="none" xmlns="http://www.w3.org/2000/svg">
<rect width="100" height="100" rx="8" fill="#15284C"/>
<path fill-rule="evenodd" clip-rule="evenodd" d="M44.4058 23.75C40.2862 23.75 36.9467 26.9835 36.9467 30.9722V35.9722H49.8566V37.3611H31.209C27.0895 37.3611 23.75 40.5946 23.75 44.5833V55.4167C23.75 59.4054 27.0895 62.6388 31.209 62.6388H35.5123V56.5278C35.5123 52.5391 38.8518 49.3055 42.9714 49.3055H56.7417C60.2276 49.3055 63.0532 46.5695 63.0532 43.1945V30.9722C63.0532 26.9835 59.7138 23.75 55.5943 23.75H44.4058ZM42.6845 32.6389C44.1104 32.6389 45.2664 31.5196 45.2664 30.1389C45.2664 28.7582 44.1104 27.6389 42.6845 27.6389C41.2584 27.6389 40.1024 28.7582 40.1024 30.1389C40.1024 31.5196 41.2584 32.6389 42.6845 32.6389Z" fill="#A1EDF7"/>
<path fill-rule="evenodd" clip-rule="evenodd" d="M55.5937 76.2501C59.7133 76.2501 63.0529 73.0166 63.0529 69.0279V64.0279H50.1429V62.6391H68.7906C72.9101 62.6391 76.2495 59.4054 76.2495 55.4167V44.5834C76.2495 40.5947 72.9101 37.3612 68.7906 37.3612H64.4872V43.4722C64.4872 47.4611 61.1477 50.6946 57.0283 50.6946H43.2577C39.7719 50.6946 36.9463 53.4306 36.9463 56.8056V69.0279C36.9463 73.0166 40.2859 76.2501 44.4052 76.2501H55.5937ZM57.3152 67.3612C55.8891 67.3612 54.7331 68.4804 54.7331 69.8612C54.7331 71.2419 55.8891 72.3611 57.3152 72.3611C58.7411 72.3611 59.8971 71.2419 59.8971 69.8612C59.8971 68.4804 58.7411 67.3612 57.3152 67.3612Z" fill="#82B5BC"/>
</svg>
