<svg width="100" height="100" viewBox="0 0 100 100" fill="none" xmlns="http://www.w3.org/2000/svg">
<rect width="100" height="100" rx="8" fill="#15284C"/>
<path d="M50.0254 45C47.2642 45 45.0254 47.2388 45.0254 50C45.0254 52.7612 47.2642 55 50.0254 55C52.7871 55 55.0254 52.7612 55.0254 50C55.0225 47.2397 52.7856 45.0034 50.0254 45ZM50.0254 53C48.3687 53 47.0254 51.6567 47.0254 50C47.0254 48.3433 48.3687 47 50.0254 47C51.6826 47 53.0254 48.3433 53.0254 50C53.0254 51.6567 51.6826 53 50.0254 53Z" fill="#A1EDF7"/>
<path d="M67.4259 50C68.9288 48.7295 70.3571 47.373 71.7037 45.938C75.9806 41.312 77.4699 37.5288 76.0099 35C73.9098 31.3672 66.8556 32.041 58.7296 34.9292C57.1647 26.4482 54.2199 20 50.0255 20C45.8317 20 42.8869 26.4482 41.3258 34.9302C33.1998 32.042 26.1427 31.3682 24.0455 35C22.5856 37.5288 24.0748 41.312 28.3517 45.938C29.6974 47.373 31.1242 48.729 32.6256 50C31.1227 51.2705 29.6945 52.627 28.3478 54.062C24.0739 58.688 22.5846 62.4712 24.0446 65C25.0446 66.7339 27.1759 67.4868 30.0138 67.4868C33.8903 67.2969 37.7106 66.4805 41.3258 65.0688C42.8869 73.5518 45.8317 80 50.0255 80C54.2199 80 57.1647 73.5518 58.7257 65.0698C62.341 66.4805 66.1608 67.2969 70.0368 67.4868C72.8737 67.4868 75.0045 66.7329 76.006 65C77.466 62.4712 75.9767 58.688 71.6998 54.062C70.3541 52.627 68.9274 51.271 67.4259 50ZM74.278 36C75.214 37.6221 73.7028 40.8301 70.236 44.5801C68.8629 46.041 67.4039 47.418 65.8659 48.7041C64.0197 47.2192 62.0089 45.7471 59.8507 44.3208C59.694 41.7891 59.4308 39.2949 59.0665 36.9209C67.1256 34.0278 73.0016 33.7998 74.2745 36H74.278ZM54.0255 56.9282C52.6696 57.7095 51.3366 58.4365 50.0255 59.1099C48.7164 58.438 47.3829 57.7104 46.0255 56.9282C44.6867 56.1548 43.3947 55.354 42.1359 54.542C42.0626 53.0762 42.0255 51.562 42.0255 50C42.0255 48.438 42.0626 46.9238 42.1359 45.458C43.3947 44.646 44.6867 43.8452 46.0255 43.0718C47.3805 42.29 48.714 41.563 50.0255 40.8911C51.3356 41.5649 52.6715 42.291 54.0255 43.0718C55.3649 43.8452 56.6569 44.646 57.9157 45.458C57.9889 46.9238 58.0255 48.438 58.0255 50C58.0255 51.562 57.9889 53.0762 57.9157 54.542C56.6569 55.354 55.3649 56.1548 54.0255 56.9282ZM57.7589 57.0171C57.6129 58.8979 57.4108 60.6831 57.1588 62.3599C55.5807 61.7368 53.9328 61.019 52.2296 60.2041C53.1696 59.7041 54.1037 59.1909 55.0226 58.6611C55.9415 58.1309 56.8649 57.5742 57.7589 57.0171ZM47.819 60.2002C46.1188 61.0142 44.4679 61.7329 42.8898 62.356C42.6408 60.6792 42.4386 58.894 42.2897 57.0132C43.1837 57.5698 44.0949 58.1177 45.0226 58.6572C45.945 59.1909 46.8786 59.7002 47.819 60.2002ZM40.0827 53.1729C38.5607 52.1309 37.1237 51.0732 35.7706 50C37.1203 48.9287 38.5573 47.8696 40.0827 46.8232C40.0465 47.8828 40.0255 48.9438 40.0255 50C40.0255 51.0562 40.0465 52.1172 40.0827 53.1768V53.1729ZM42.2926 42.979C42.4386 41.0991 42.6408 39.3149 42.8927 37.6392C44.4689 38.2612 46.1149 38.98 47.8156 39.793C46.8771 40.2915 45.9479 40.8057 45.0289 41.335C44.0968 41.875 43.1847 42.4243 42.2926 42.9829V42.979ZM52.235 39.7998C53.9347 38.9858 55.5846 38.2681 57.1618 37.645C57.4108 39.3218 57.6129 41.1069 57.7619 42.9878C56.8659 42.4272 55.9537 41.8774 55.0255 41.3389C54.1076 40.8091 53.1749 40.2998 52.235 39.7998ZM59.9689 46.8281C61.4909 47.8691 62.9279 48.9268 64.2809 50C62.9313 51.0708 61.4943 52.1299 59.9689 53.1768C60.0045 52.1172 60.0255 51.0562 60.0255 50C60.0255 48.9438 60.0045 47.8828 59.9689 46.8232V46.8281ZM50.0255 22C52.5709 22 55.3097 27.207 56.8307 35.6348C54.5929 36.5059 52.2999 37.5259 50.0309 38.6572C47.757 37.5259 45.4625 36.5059 43.2306 35.6348C44.7418 27.208 47.4806 22 50.0255 22ZM29.819 44.5801C26.3517 40.8301 24.841 37.6221 25.777 36C26.3419 35.022 27.8117 34.5229 29.9767 34.5229C33.7526 34.7217 37.4713 35.5322 40.9879 36.9229C40.6237 39.293 40.361 41.7861 40.2037 44.3169C38.0455 45.7432 36.0348 47.2168 34.1886 48.7002C32.651 47.4155 31.1915 46.0396 29.819 44.5801ZM25.777 64C24.841 62.3779 26.3517 59.1699 29.819 55.4199C31.1915 53.959 32.6505 52.582 34.1886 51.2959C36.0348 52.7808 38.0455 54.2529 40.2037 55.6792C40.361 58.2109 40.6237 60.7051 40.9879 63.0791C32.9259 65.9722 27.0499 66.2002 25.777 64ZM50.0255 78C47.4806 78 44.7428 72.793 43.2257 64.3662C45.4625 63.4951 47.757 62.4751 50.0309 61.3442C52.3048 62.4751 54.5988 63.4951 56.8356 64.3662C55.3087 72.793 52.5709 78 50.0255 78ZM74.2745 64C73.0026 66.2002 67.1227 65.9722 59.0636 63.0762C59.4279 60.7051 59.6906 58.2109 59.8478 55.6758C62.006 54.25 64.0167 52.7759 65.8629 51.293C67.401 52.5786 68.86 53.9561 70.2326 55.417C73.6998 59.1699 75.2106 62.3779 74.2745 64Z" fill="#A1EDF7"/>
</svg>
