<svg width="100" height="100" viewBox="0 0 100 100" fill="none" xmlns="http://www.w3.org/2000/svg">
<rect width="100" height="100" rx="8" fill="#15284C"/>
<path fill-rule="evenodd" clip-rule="evenodd" d="M50 35.09C43.3325 35.09 39.1675 38.4025 37.5 45.03C40 41.7175 42.9175 40.475 46.25 41.3025C48.1525 41.775 49.5125 43.1475 51.015 44.665C53.4675 47.1375 56.305 50 62.5 50C69.1675 50 73.3325 46.6875 75 40.06C72.5 43.3725 69.585 44.615 66.25 43.7875C64.3475 43.315 62.9875 41.9425 61.4825 40.425C59.0325 37.95 56.1975 35.09 50 35.09ZM37.5 50C30.8325 50 26.6675 53.3125 25 59.94C27.5 56.625 30.4175 55.385 33.75 56.2125C35.6525 56.685 37.0125 58.0575 38.5175 59.575C40.9675 62.0475 43.805 64.91 50.0025 64.91C56.67 64.91 60.835 61.5975 62.5025 54.97C60.0025 58.2825 57.085 59.525 53.7525 58.6975C51.85 58.225 50.49 56.8525 48.9875 55.335C46.5325 52.8625 43.695 50 37.5 50Z" fill="#A1EDF7"/>
</svg>
