<svg width="100" height="100" viewBox="0 0 100 100" fill="none" xmlns="http://www.w3.org/2000/svg">
<rect width="100" height="100" rx="8" fill="#15284C"/>
<g clip-path="url(#clip0_2615_47)">
<path d="M74.1406 20H25.8594C22.6233 20 20 22.6233 20 25.8594V74.1406C20 77.3767 22.6233 80 25.8594 80H74.1406C77.3767 80 80 77.3767 80 74.1406V25.8594C80 22.6233 77.3767 20 74.1406 20Z" fill="#A1EDF7"/>
<path d="M74.1406 20H25.8594C22.6233 20 20 22.6233 20 25.8594V74.1406C20 77.3767 22.6233 80 25.8594 80H74.1406C77.3767 80 80 77.3767 80 74.1406V25.8594C80 22.6233 77.3767 20 74.1406 20Z" fill="#A1EDF7"/>
<path fill-rule="evenodd" clip-rule="evenodd" d="M57.1413 67.745V73.6115C58.095 74.1004 59.2229 74.467 60.5251 74.7114C61.8273 74.9559 63.1996 75.0781 64.6425 75.0781C66.0486 75.0781 67.3843 74.9437 68.6498 74.6748C69.9153 74.4059 71.025 73.9629 71.9786 73.3456C72.9323 72.7285 73.6873 71.9218 74.2436 70.9257C74.7999 69.9296 75.0781 68.6983 75.0781 67.2317C75.0781 66.1684 74.9192 65.2365 74.6013 64.436C74.2834 63.6355 73.8249 62.9236 73.2257 62.3002C72.6267 61.6769 71.9083 61.1177 71.0708 60.6227C70.2332 60.1277 69.2887 59.6602 68.2372 59.2203C67.4669 58.9025 66.7761 58.5939 66.1647 58.2945C65.5534 57.995 65.0337 57.6895 64.6058 57.3779C64.1778 57.0662 63.8477 56.7362 63.6154 56.3879C63.3832 56.0395 63.2669 55.6454 63.2669 55.2054C63.2669 54.8021 63.3709 54.4385 63.5788 54.1146C63.7866 53.7907 64.0801 53.5127 64.4591 53.2804C64.8382 53.0483 65.3027 52.8679 65.8529 52.7396C66.4032 52.6113 67.0145 52.5472 67.687 52.5472C68.176 52.5472 68.6926 52.5839 69.2367 52.6571C69.7808 52.7305 70.3279 52.8436 70.8782 52.9962C71.4284 53.1491 71.9633 53.3416 72.483 53.5738C73.0026 53.806 73.4825 54.0748 73.9227 54.3805V48.8989C73.0302 48.5567 72.055 48.3031 70.9974 48.1381C69.9398 47.9731 68.7262 47.8906 67.3569 47.8906C65.9629 47.8906 64.6425 48.0404 63.3954 48.3398C62.1482 48.6392 61.0509 49.1067 60.1032 49.7422C59.1556 50.3778 58.4068 51.1875 57.8566 52.1714C57.3064 53.1552 57.0312 54.3315 57.0312 55.7004C57.0312 57.4481 57.5356 58.9392 58.5444 60.1736C59.553 61.408 61.0844 62.4529 63.1386 63.3085C63.9455 63.6385 64.6975 63.9623 65.3945 64.2801C66.0914 64.5979 66.6936 64.9279 67.2009 65.2701C67.7083 65.6123 68.1087 65.9851 68.4023 66.3884C68.6957 66.7917 68.8425 67.25 68.8425 67.7634C68.8425 68.1423 68.7507 68.4936 68.5673 68.8175C68.3839 69.1414 68.1057 69.4224 67.7328 69.6608C67.3599 69.8991 66.8953 70.0855 66.339 70.2199C65.7826 70.3544 65.1316 70.4216 64.3857 70.4216C63.1141 70.4216 61.8548 70.1986 60.6076 69.7524C59.3605 69.3064 58.205 68.6373 57.1413 67.745ZM47.2789 53.2909H54.8047V48.4766H33.8281V53.2909H41.3171V74.7266H47.2789V53.2909Z" fill="#15284C"/>
</g>
<defs>
<clipPath id="clip0_2615_47">
<rect width="60" height="60" fill="white" transform="translate(20 20)"/>
</clipPath>
</defs>
</svg>
