<svg width="100" height="100" viewBox="0 0 100 100" fill="none" xmlns="http://www.w3.org/2000/svg">
<rect width="100" height="100" rx="8" fill="#15284C"/>
<g clip-path="url(#clip0_2572_14761)">
<path d="M50 20.0586C33.4903 20.0586 20.0586 33.4893 20.0586 49.9991C20.0586 66.5087 33.4903 79.9414 50 79.9414C66.5093 79.9414 79.9414 66.5087 79.9414 49.9991C79.9414 33.4893 66.5093 20.0586 50 20.0586ZM23.0805 49.9991C23.0805 46.096 23.9178 42.3909 25.4114 39.0434L38.253 74.2261C29.2715 69.8635 23.0805 60.654 23.0805 49.9991ZM50 76.9205C47.3578 76.9205 44.8075 76.533 42.3948 75.8236L50.4727 52.3539L58.7466 75.0234C58.8013 75.1564 58.8679 75.2788 58.9395 75.3943C56.1413 76.3791 53.1345 76.9205 50 76.9205ZM53.71 37.3773C55.3304 37.2924 56.7909 37.1219 56.7909 37.1219C58.2412 36.9504 58.0701 34.8182 56.6189 34.9036C56.6189 34.9036 52.2587 35.2456 49.4435 35.2456C46.7988 35.2456 42.3543 34.9036 42.3543 34.9036C40.9026 34.8182 40.7326 37.0361 42.1837 37.1219C42.1837 37.1219 43.5566 37.2924 45.0073 37.3773L49.2008 48.869L43.3089 66.537L33.5063 37.3773C35.1282 37.2924 36.5867 37.1219 36.5867 37.1219C38.0366 36.9504 37.8655 34.8182 36.4147 34.9036C36.4147 34.9036 32.0555 35.2456 29.2402 35.2456C28.7353 35.2456 28.1403 35.233 27.5077 35.2125C32.3212 27.9051 40.5951 23.079 50 23.079C57.0078 23.079 63.3888 25.7588 68.1782 30.1471C68.0623 30.1404 67.9488 30.1257 67.8293 30.1257C65.1852 30.1257 63.3089 32.4288 63.3089 34.9036C63.3089 37.1219 64.5886 38.999 65.9531 41.2169C66.977 43.0098 68.1724 45.313 68.1724 48.6413C68.1724 50.9449 67.2864 53.6189 66.1241 57.3436L63.4385 66.3147L53.71 37.3773ZM63.5335 73.267L71.7557 49.4942C73.2914 45.654 73.803 42.5829 73.803 39.853C73.803 38.8618 73.7376 37.9416 73.6217 37.0844C75.7231 40.9182 76.919 45.3182 76.919 49.9991C76.919 59.9302 71.537 68.6008 63.5335 73.267Z" fill="#A1EDF7"/>
</g>
<defs>
<clipPath id="clip0_2572_14761">
<rect width="60" height="60" fill="white" transform="translate(20 20)"/>
</clipPath>
</defs>
</svg>
